<svg xmlns="http://www.w3.org/2000/svg" width="179.718" height="32.368" viewBox="0 0 179.718 32.368"><path d="M-2507.905-1135.474q11.39,0,22.781-.005c.214,0,.254.063.254.261-.006,2.966,0,5.931-.01,8.9,0,.2.05.247.248.246q2.342-.013,4.683,0c.188,0,.256-.03.255-.242q-.01-7.034,0-14.068c0-.181-.035-.242-.231-.242q-7.047.009-14.094,0c-.182,0-.245.037-.242.232.012.723,0,1.445.008,2.168,0,.151-.036.211-.2.21q-1.922-.009-3.846,0c-.166,0-.2-.058-.2-.208q.007-3.207,0-6.413c0-.152.034-.229.2-.2a.6.6,0,0,0,.09,0q11.233,0,22.465,0c.221,0,.287.044.287.279q-.011,11.212,0,22.423c0,.223-.048.286-.281.286q-11.244-.01-22.487,0c-.216,0-.274-.049-.273-.27.008-2.958,0-5.916.01-8.875,0-.207-.052-.261-.259-.259q-2.342.013-4.683,0c-.2,0-.252.051-.252.251q.009,7.034,0,14.068c0,.184.045.243.237.242q7.059-.008,14.117,0c.2,0,.236-.067.233-.246-.009-.715,0-1.43-.007-2.145,0-.161.03-.22.208-.219q1.912.012,3.823,0c.158,0,.2.04.2.2q-.008,3.207,0,6.413c0,.163-.032.241-.208.212a1.129,1.129,0,0,0-.181,0h-22.645Zm18.795,6.821c0-.79-.005-1.581,0-2.371,0-.181-.054-.226-.23-.226q-2.353.009-4.7,0c-.163,0-.222.037-.221.212q.01,2.382,0,4.764c0,.164.055.2.207.2q2.375-.007,4.75,0c.164,0,.2-.054.2-.206C-2489.114-1127.073-2489.11-1127.863-2489.11-1128.653Z" transform="translate(2507.905 1144.846)" fill="#58585f"/><path d="M-1697.589-1111.158c-.383.04-.768.014-1.152.016-.761,0-1.523,0-2.285,0-.159,0-.206-.048-.2-.2.007-.805,0-1.611.007-2.416,0-.173-.04-.234-.225-.232-.8.01-1.6,0-2.4.008-.164,0-.219-.034-.218-.21.009-1.069.005-2.138,0-3.206,0-.119.005-.194.163-.194q3.122.008,6.243.006a.3.3,0,0,1,.066.015Z" transform="translate(1877.306 1123.466)" fill="#58585f"/><path d="M-2282.144-1107.646a5.749,5.749,0,0,1,2.367,1.572,4.489,4.489,0,0,1,.966,2.382,6.764,6.764,0,0,1-.491,3.865,4.855,4.855,0,0,1-2.163,2.244,6.97,6.97,0,0,1-3.4.824c-4.215.007-8.429,0-12.644.008-.206,0-.274-.031-.274-.26q.011-10.183,0-20.365c0-.186.028-.25.238-.25,4,.008,8.007-.009,12.011.014a6.951,6.951,0,0,1,3.711,1.023,4.322,4.322,0,0,1,2,3.022,6.654,6.654,0,0,1-.355,3.772,3.854,3.854,0,0,1-1.84,2.048C-2282.061-1107.725-2282.123-1107.723-2282.144-1107.646Zm-7.307,2.512c-1.063,0-2.125,0-3.188,0-.169,0-.21.039-.209.208q.012,1.9,0,3.791c0,.189.045.233.233.232,2.073-.008,4.145,0,6.217-.007a4.454,4.454,0,0,0,1.025-.115,1.614,1.614,0,0,0,1.391-1.5,3.321,3.321,0,0,0,.007-.695,1.8,1.8,0,0,0-1.125-1.671,3.275,3.275,0,0,0-1.254-.239C-2287.387-1105.137-2288.419-1105.134-2289.452-1105.134Zm-.227-4.02q1.471,0,2.941,0a1.715,1.715,0,0,0,1.632-1.13,2.931,2.931,0,0,0,.127-1.659,1.679,1.679,0,0,0-1.183-1.4,3.515,3.515,0,0,0-1-.14c-1.825,0-3.65,0-5.474-.006-.162,0-.214.029-.212.2q.013,1.964,0,3.929c0,.165.033.213.207.211C-2291.654-1109.158-2290.667-1109.153-2289.679-1109.153Z" transform="translate(2343.068 1123.493)" fill="#58585f"/><path d="M-1941.045-1096.753h-.247c-1.727,0-3.453,0-5.18,0a.306.306,0,0,1-.321-.2q-1.45-2.915-2.914-5.822c-.286-.569-.58-1.135-.86-1.707a.241.241,0,0,0-.258-.155c-1.508,0-3.016.007-4.524,0-.183,0-.2.062-.2.216,0,2.476,0,4.952.008,7.428,0,.193-.039.248-.242.247q-2.24-.015-4.479,0c-.18,0-.243-.033-.243-.23q.008-10.206,0-20.412c0-.195.06-.232.241-.231,3.966.005,7.932-.011,11.9.013a5.963,5.963,0,0,1,3.609,1.094,5.017,5.017,0,0,1,1.834,2.783,9.387,9.387,0,0,1,.275,2.92,8.1,8.1,0,0,1-.4,2.406,4.158,4.158,0,0,1-2.64,2.727c-.148.051-.114.111-.063.205q1.063,1.956,2.125,3.912,1.275,2.353,2.546,4.706C-1941.073-1096.835-1941.068-1096.814-1941.045-1096.753Zm-11.29-12.036h2.871a2.95,2.95,0,0,0,.907-.146,1.158,1.158,0,0,0,.844-.9,5.833,5.833,0,0,0,.048-2.119,1.4,1.4,0,0,0-1.047-1.2,3.217,3.217,0,0,0-1.021-.153c-1.861,0-3.723,0-5.584-.006-.168,0-.211.038-.21.208q.012,2.053,0,4.107c0,.169.039.211.209.21C-1954.324-1108.793-1953.329-1108.789-1952.335-1108.789Z" transform="translate(2078.48 1123.49)" fill="#58585f"/><path d="M-1855.637-1107.193q0-5.08,0-10.161c0-.206.032-.274.261-.274q7.8.012,15.609,0c.192,0,.25.036.248.241q-.016,1.965,0,3.929c0,.179-.049.219-.223.219q-5.35-.008-10.7-.008c-.194,0-.266.032-.263.25.013,1.121.011,2.243,0,3.365,0,.188.045.234.234.233,3.424-.006,6.847,0,10.271-.011.237,0,.276.067.274.284q-.016,1.953,0,3.906c0,.192-.037.248-.242.247-3.423-.007-6.847,0-10.271-.011-.221,0-.269.055-.267.27.012,1.114.014,2.228,0,3.342,0,.227.065.26.273.26,3.6-.007,7.194,0,10.791-.009.2,0,.262.034.26.249-.012,1.3-.009,2.6,0,3.906,0,.165-.034.211-.208.211q-7.918-.008-15.836,0c-.2,0-.206-.083-.206-.234Q-1855.635-1102.089-1855.637-1107.193Z" transform="translate(1996.217 1123.494)" fill="#58585f"/><path d="M-1760.157-1103.424l-.833,1.2q-1.837,2.641-3.672,5.284a.391.391,0,0,1-.366.192c-1.757-.008-3.514-.005-5.271-.005h-.271c.238-.33.45-.625.664-.919q3.431-4.71,6.866-9.417a.286.286,0,0,0,0-.4q-2.979-4.245-5.946-8.5-.51-.729-1.019-1.458c-.028-.04-.094-.071-.069-.131s.091-.035.139-.035c1.862,0,3.725,0,5.587,0,.132,0,.182.072.241.161,1.026,1.527,2.059,3.049,3.08,4.58,1.689,2.536,3.47,5.008,5.215,7.505q2.841,4.067,5.7,8.125c.086.123.173.246.263.366.063.084.067.135-.059.132h-.136c-1.795,0-3.589,0-5.384,0a.362.362,0,0,1-.347-.181q-2.156-3.218-4.324-6.427C-1760.112-1103.375-1760.129-1103.391-1760.157-1103.424Z" transform="translate(1929.481 1123.489)" fill="#58585f"/><path d="M-2050.729-1117.618q4.479,0,8.957,0c.185,0,.236.04.235.231q-.014,1.942,0,3.883c0,.17-.042.208-.209.207-2.073-.006-4.147,0-6.22-.009-.191,0-.23.047-.23.233q.008,8.038.009,16.075c0,.209-.056.255-.257.253q-2.285-.013-4.569,0c-.215,0-.274-.046-.274-.268q.01-8,.011-16.008c0-.242-.069-.287-.3-.286-2.036.009-4.072,0-6.107.01-.18,0-.239-.03-.237-.227q.016-1.93,0-3.861c0-.184.038-.235.23-.235Q-2055.208-1117.613-2050.729-1117.618Z" transform="translate(2156.468 1123.49)" fill="#58585f"/><path d="M-2144.254-1117.616q4.468,0,8.936,0c.19,0,.256.033.255.242q-.016,1.93,0,3.861c0,.182-.053.218-.224.218-2.051-.006-4.1,0-6.153-.009-.219,0-.286.039-.285.275q.012,7.994.006,15.987c0,.338.043.294-.3.294q-2.251,0-4.5,0c-.353,0-.3.048-.3-.316q0-7.982.005-15.965c0-.236-.065-.277-.284-.276-2.036.009-4.072,0-6.108.009-.171,0-.226-.035-.225-.217q.013-1.93,0-3.861c0-.208.064-.242.254-.242Q-2148.722-1117.611-2144.254-1117.616Z" transform="translate(2229.837 1123.488)" fill="#58585f"/><path d="M-2191.333-1107.209q0-5.08,0-10.159c0-.208.055-.255.257-.254q2.307.013,4.614,0c.173,0,.228.039.228.221q-.008,10.216,0,20.432c0,.187-.062.219-.231.219q-2.319-.009-4.636,0c-.191,0-.232-.048-.231-.234Q-2191.328-1102.1-2191.333-1107.209Z" transform="translate(2259.564 1123.489)" fill="#58585f"/></svg>