<svg xmlns="http://www.w3.org/2000/svg" width="187.72" height="37.103" viewBox="0 0 187.72 37.103"><path d="M181-530.189v12.842h-3.147v-12.842h-2.882v-2.755h2.886v-2.629a4.947,4.947,0,0,1,5.124-5.352,3.853,3.853,0,0,1,1.823.332v2.718a3.54,3.54,0,0,0-1.326-.2,2.339,2.339,0,0,0-2.465,2.66v2.467h3.762v2.756ZM99.2-517.347v-23.479h3.049v23.479ZM83.607-540.339c4.379,0,6.939,2.594,6.939,6.227a5.121,5.121,0,0,1-3.436,4.97,5.529,5.529,0,0,1,4.15,5.545c0,3.632-2.886,6.259-7.1,6.259H76.117v-23Zm-.356,10.046c2.562,0,4.086-1.523,4.086-3.664,0-2.172-1.588-3.6-4.215-3.6H79.294v7.264Zm.454,10.157c2.562,0,4.306-1.428,4.306-3.664,0-2.206-1.394-3.763-4.183-3.763H79.294v7.427Zm33.451,3.28c4.664,0,7.977-3.535,7.977-8.3,0-4.739-3.313-8.268-7.977-8.268s-7.977,3.535-7.977,8.268c0,4.763,3.312,8.3,7.977,8.3Zm0-13.847c2.6,0,4.864,1.945,4.864,5.545,0,3.627-2.271,5.579-4.864,5.579s-4.864-1.946-4.864-5.579c0-3.6,2.268-5.545,4.864-5.545Zm18.028,5.545c0,3.567,2.237,5.481,4.767,5.481a4.239,4.239,0,0,0,4.344-3.21l2.692,1.159a7.166,7.166,0,0,1-7.036,4.863c-4.541,0-7.881-3.562-7.881-8.293,0-4.863,3.407-8.268,7.848-8.268a6.78,6.78,0,0,1,6.941,4.97L144.1-527.3a4.1,4.1,0,0,0-4.184-3.312c-2.466,0-4.736,1.818-4.736,5.453Zm32.847,7.812-6.779-9.016,6.649-6.581h-4.216l-6.746,6.906v-14.788h-3.017v23.479h3.017v-4.7l2.173-2.172,5.092,6.875Zm31.68.49c4.664,0,7.977-3.535,7.977-8.3,0-4.739-3.313-8.268-7.977-8.268s-7.977,3.535-7.977,8.268c0,4.763,3.312,8.3,7.977,8.3Zm0-13.847c2.594,0,4.864,1.945,4.864,5.545,0,3.627-2.267,5.579-4.861,5.579s-4.865-1.946-4.865-5.579c0-3.6,2.268-5.545,4.862-5.545Zm14.914,13.357v-23.479h3.048v23.479Zm13.005-23.234a1.507,1.507,0,0,0-2.1.382,1.507,1.507,0,0,0,.382,2.1l.068.044a1.507,1.507,0,0,0,2.073-.493A1.506,1.506,0,0,0,227.63-540.581Zm.678,7.635h-3.017v15.6h3.017Zm15.6,16.089c4.665,0,7.977-3.535,7.977-8.3,0-4.739-3.311-8.268-7.976-8.268s-7.977,3.535-7.977,8.268C235.928-520.4,239.239-516.856,243.9-516.856Zm0-13.847c2.6,0,4.865,1.945,4.865,5.545,0,3.627-2.271,5.579-4.865,5.579s-4.863-1.946-4.863-5.579c0-3.6,2.267-5.545,4.863-5.545Z" transform="translate(-64.161 547.85)" fill="#58585f" fill-rule="evenodd"/><path d="M-46.371-594.925H-78.836a2.318,2.318,0,0,1-2.32-2.317V-629.71a2.318,2.318,0,0,1,2.318-2.318h32.467a2.32,2.32,0,0,1,2.318,2.318v1.459h-.829v-1.459a1.491,1.491,0,0,0-1.491-1.49H-78.838a1.491,1.491,0,0,0-1.49,1.49v32.465a1.491,1.491,0,0,0,1.49,1.491h32.465a1.491,1.491,0,0,0,1.491-1.491h0v-.807h.829v.807a2.319,2.319,0,0,1-2.317,2.32h0Z" transform="translate(81.156 632.028)" fill="#58585f" opacity="0.7" style="isolation:isolate"/></svg>