<svg xmlns="http://www.w3.org/2000/svg" width="215.752" height="37.103" viewBox="0 0 215.752 37.103"><path d="M51.982,292.083a1.971,1.971,0,0,1-1.977.144,3.037,3.037,0,0,1-1.15-2.732v-4.063c0-1.941-.755-3.344-2.049-3.7-2.193-.647-3.847,2.049-4.458,3.056L38.464,291v-7.658c-.036-1.762-.611-2.8-1.69-3.128-.719-.216-1.8-.108-2.84,1.474L25.269,295.57a15.338,15.338,0,0,1-1.762-7.119,14.958,14.958,0,1,1,29.913,0v.072a3.829,3.829,0,0,1-1.438,3.559Zm4.746-3.631h0v-.072A18.267,18.267,0,1,0,38.464,307a17.947,17.947,0,0,0,12.4-4.962,1.68,1.68,0,0,0-2.265-2.481l-.036.036a14.775,14.775,0,0,1-21.284-.971l7.8-12.512V291.9c0,2.768,1.079,3.667,1.977,3.919s2.265.072,3.739-2.265l4.278-6.939a3.978,3.978,0,0,1,.4-.575v3.523c0,2.589,1.043,4.674,2.84,5.681a5.225,5.225,0,0,0,5.357-.216A7.124,7.124,0,0,0,56.728,288.451Zm25.455-6.328a1.8,1.8,0,0,1,.827,1.4,1.589,1.589,0,0,1-1.546,1.582,2.725,2.725,0,0,1-.575-.108,5.909,5.909,0,0,0-3.487-1.186c-3.056,0-5.141,2.481-5.141,5.573a5.216,5.216,0,0,0,5.141,5.537,5.584,5.584,0,0,0,3.883-1.582,1.573,1.573,0,0,1,.9-.288,1.458,1.458,0,0,1,1.474,1.474,1.531,1.531,0,0,1-.719,1.258,8.534,8.534,0,1,1-5.5-15.1A8.126,8.126,0,0,1,82.182,282.124Zm8.557,3.6a5.971,5.971,0,0,1,5.86,6.04,6.115,6.115,0,0,1-5.86,6.148,6.184,6.184,0,0,1-6.112-6.148A6.092,6.092,0,0,1,90.739,285.719Zm-.036,9.2a2.871,2.871,0,0,0,2.589-3.128,2.7,2.7,0,0,0-2.589-2.948,2.751,2.751,0,0,0-2.768,2.948A2.956,2.956,0,0,0,90.7,294.923Zm7.91,1.115v-8.485a1.658,1.658,0,0,1,1.654-1.69,1.681,1.681,0,0,1,1.654,1.69v8.485a1.681,1.681,0,0,1-1.654,1.69A1.7,1.7,0,0,1,98.613,296.037Zm-.252-13.374a1.934,1.934,0,0,1,1.905-1.977,1.964,1.964,0,0,1,1.941,1.977,1.924,1.924,0,1,1-3.847,0Zm9.887,8.772v4.6a1.654,1.654,0,1,1-3.308,0v-8.88a1.276,1.276,0,1,1,2.553,0,4.8,4.8,0,0,1,3.631-1.438c3.308,0,4.782,2.481,4.782,5.321v5a1.654,1.654,0,1,1-3.308,0v-4.6c0-1.438-.18-2.66-2.265-2.66-1.474,0-2.085,1.222-2.085,2.66ZM126.62,293.2a1.072,1.072,0,0,1-.863-.431L121.91,288.6v7.442a1.654,1.654,0,1,1-3.308,0V281.3a.7.7,0,0,1,.611-.431,1.157,1.157,0,0,1,.719.431l6.148,6.9a.8.8,0,0,0,.539.324.883.883,0,0,0,.539-.324l6.148-6.9a1.069,1.069,0,0,1,.719-.431.627.627,0,0,1,.611.431v14.741a1.658,1.658,0,0,1-1.654,1.69,1.681,1.681,0,0,1-1.654-1.69V288.6l-3.847,4.171a1.327,1.327,0,0,1-.863.431Zm15.891,1.726a2.929,2.929,0,0,0,2.732-3.128,2.818,2.818,0,0,0-2.732-2.984,2.759,2.759,0,0,0-2.625,2.984A2.894,2.894,0,0,0,142.511,294.923Zm3.523,1.51-.072-.4c-.647,1.258-2.7,1.834-3.991,1.834-3.092,0-5.393-2.8-5.393-6.148a5.736,5.736,0,0,1,5.573-6.04A5.173,5.173,0,0,1,146,287.517l.072-.4a1.259,1.259,0,0,1,1.258-1.294,1.312,1.312,0,0,1,1.294,1.294V296.4a1.289,1.289,0,0,1-1.294,1.294,1.238,1.238,0,0,1-1.294-1.258Zm11.685-7.658h-.36c-2.085.108-2.481,1.294-2.481,2.66v4.6a1.654,1.654,0,1,1-3.308,0v-8.88a1.276,1.276,0,1,1,2.553,0,4.586,4.586,0,0,1,3.236-1.438h.324a1.551,1.551,0,0,1,1.51,1.546,1.512,1.512,0,0,1-1.474,1.51Zm12.763,6.471a1.58,1.58,0,0,1,.252.791,1.723,1.723,0,0,1-1.654,1.654,2.041,2.041,0,0,1-1.474-.935l-3.811-4.422V296a1.654,1.654,0,1,1-3.308,0V282.519a1.654,1.654,0,1,1,3.308,0v8.413l3.811-4.206a2.163,2.163,0,0,1,1.438-.9,1.653,1.653,0,0,1,1.582,1.618,1.415,1.415,0,0,1-.216.755l-3.02,3.308,3.092,3.739Zm6.472-6.436c-.9,0-2.373.467-2.373,1.87h4.782c-.036-1.4-1.546-1.87-2.409-1.87Zm4.314,3.991h-6.687c0,1.977,1.906,2.3,2.732,2.3a5.367,5.367,0,0,0,2.157-.431,1.628,1.628,0,0,1,.863-.252,1.358,1.358,0,0,1,1.33,1.366,1.457,1.457,0,0,1-.719,1.186,5.941,5.941,0,0,1-3.6.935c-3.344,0-6.112-1.8-6.112-6,0-3.308,1.69-6.184,5.645-6.184,3.2,0,5.609,2.085,5.681,5.788a1.312,1.312,0,0,1-1.294,1.294Zm9.2,5.069h-.9c-2.517,0-3.991-1.115-3.991-5.033v-4.063h-.863a1.529,1.529,0,0,1,0-3.056h.863v-3.128a1.658,1.658,0,0,1,1.654-1.69,1.681,1.681,0,0,1,1.654,1.69v3.128h1.366a1.521,1.521,0,0,1,1.474,1.546,1.563,1.563,0,0,1-1.474,1.51H188.89v3.415c0,2.265.108,2.732,1.115,2.732h.467a1.481,1.481,0,0,1,1.474,1.474,1.5,1.5,0,0,1-1.474,1.474Zm16-15.747a1.8,1.8,0,0,1,.827,1.4,1.589,1.589,0,0,1-1.546,1.582,2.725,2.725,0,0,1-.575-.108,5.909,5.909,0,0,0-3.487-1.186c-3.056,0-5.141,2.481-5.141,5.573a5.216,5.216,0,0,0,5.141,5.537,5.584,5.584,0,0,0,3.883-1.582,1.573,1.573,0,0,1,.9-.288,1.458,1.458,0,0,1,1.474,1.474,1.531,1.531,0,0,1-.719,1.258,8.534,8.534,0,1,1-5.5-15.1,8.048,8.048,0,0,1,4.746,1.438Zm8.377,12.8a2.929,2.929,0,0,0,2.732-3.128,2.818,2.818,0,0,0-2.732-2.984,2.737,2.737,0,0,0-2.625,2.984,2.919,2.919,0,0,0,2.625,3.128Zm3.523,1.51-.072-.4c-.647,1.258-2.7,1.834-3.991,1.834-3.092,0-5.393-2.8-5.393-6.148a5.736,5.736,0,0,1,5.573-6.04,5.173,5.173,0,0,1,3.847,1.834l.072-.4a1.259,1.259,0,0,1,1.258-1.294,1.312,1.312,0,0,1,1.294,1.294V296.4a1.289,1.289,0,0,1-1.294,1.294A1.238,1.238,0,0,1,218.371,296.433Zm11.613-1.51a2.894,2.894,0,0,0,2.625-3.128,2.738,2.738,0,0,0-2.625-2.984,2.8,2.8,0,0,0-2.732,2.984A2.929,2.929,0,0,0,229.984,294.923Zm-2.732,1.977v4.206a1.654,1.654,0,1,1-3.308,0v-13.95a1.289,1.289,0,0,1,1.294-1.294A1.322,1.322,0,0,1,226.5,287.3a5.317,5.317,0,0,1,3.883-1.582,5.737,5.737,0,0,1,5.573,6.04c0,3.308-2.265,6.148-5.393,6.148a6.341,6.341,0,0,1-3.308-1.007Z" transform="translate(-20.2 -269.9)" fill="#58585f"/></svg>