<svg xmlns="http://www.w3.org/2000/svg" width="151.804" height="37.104" viewBox="0 0 151.804 37.104"><path d="M-8.182-198.512l.03.136a.146.146,0,0,0,.045.138l.126.743a.221.221,0,0,1-.035.006l-2.254.012a.236.236,0,0,1-.161-.06,2.9,2.9,0,0,0-1.414-2.16,4,4,0,0,0-1.831-.57,4.37,4.37,0,0,0-1.638.164,3.735,3.735,0,0,0-2.083,1.588,5.4,5.4,0,0,0-.749,1.81,7.872,7.872,0,0,0,.167,4.2,4.769,4.769,0,0,0,.886,1.627,3.7,3.7,0,0,0,2.415,1.312,5.117,5.117,0,0,0,1.785-.068,3.294,3.294,0,0,0,2.663-2.634,5.321,5.321,0,0,0,.135-1.066.581.581,0,0,0-.362-.051q-1.533,0-3.065,0c-.36,0-.347.018-.346-.343,0-.457,0-.915,0-1.372,0-.16.021-.174.188-.18.047,0,.094,0,.141,0h5.391c.342,0,.321-.014.321.329q0,3.4,0,6.791c0,.094,0,.188,0,.281a.457.457,0,0,1-.13.042c-.444,0-.889,0-1.333,0a.266.266,0,0,1-.162-.058l-.11-.491a.06.06,0,0,0-.025-.083,5.092,5.092,0,0,0-.212-.906c-.009-.017-.014-.045-.027-.048-.037-.011-.048.019-.057.048l-.634.628a.324.324,0,0,0-.188.156l-.015.011a.062.062,0,0,0-.067.055l-.082.064a.136.136,0,0,0-.116.082l-.018.011a.062.062,0,0,0-.07.052l-.005,0a.128.128,0,0,0-.117.075l-.02.011a.061.061,0,0,0-.071.05l0,0a.135.135,0,0,0-.127.073l-.012.005a.133.133,0,0,0-.124.067l-.017.006a.128.128,0,0,0-.124.064l-.017.006a.137.137,0,0,0-.129.062l-.013,0a.133.133,0,0,0-.137.061l-.005,0a.229.229,0,0,0-.2.072l-.01,0a.228.228,0,0,0-.2.065l-.007,0a.362.362,0,0,0-.274.069l-.007,0a1.141,1.141,0,0,0-.173.006,7.225,7.225,0,0,1-1.7.078c-.15-.008-.3-.009-.45-.013h-.009a.779.779,0,0,0-.415-.067l-.011,0a.544.544,0,0,0-.341-.073h-.006a.227.227,0,0,0-.206-.06l-.017,0a.367.367,0,0,0-.263-.077h-.005a.226.226,0,0,0-.206-.07h0a.13.13,0,0,0-.139-.059l-.014,0a.23.23,0,0,0-.194-.079l-.562-.282a.066.066,0,0,0-.078-.05l-.019-.008a.132.132,0,0,0-.12-.073l-.007,0a.135.135,0,0,0-.128-.078h0a.063.063,0,0,0-.075-.056l-.008-.005a.058.058,0,0,0-.065-.049l-.022-.014a.128.128,0,0,0-.113-.079l0,0a.064.064,0,0,0-.071-.057l-.012-.008a.055.055,0,0,0-.06-.05l-.021-.015a.138.138,0,0,0-.111-.087l-.151-.132a.066.066,0,0,0-.068-.062l-.007-.007a.064.064,0,0,0-.064-.062l-.008-.008a.06.06,0,0,0-.063-.061l-.01-.009a.065.065,0,0,0-.061-.06l-.009-.01a.06.06,0,0,0-.061-.063l-.008-.008a.064.064,0,0,0-.062-.064l-.006-.007a.067.067,0,0,0-.063-.068l-.132-.15a.09.09,0,0,0-.069-.081.069.069,0,0,0-.035-.052.053.053,0,0,0-.049-.058l-.008-.011a.069.069,0,0,0-.058-.073l-.06-.077a.15.15,0,0,0-.086-.124l0-.008a.069.069,0,0,0-.057-.076h0a.139.139,0,0,0-.08-.125l-.005-.009a.078.078,0,0,0-.056-.081l-.079-.132a.143.143,0,0,0-.073-.128l0-.01a.08.08,0,0,0-.053-.085l-.234-.48a.142.142,0,0,0-.061-.13l0-.009a.152.152,0,0,0-.062-.142v0a.153.153,0,0,0-.063-.151.078.078,0,0,0-.016-.059.151.151,0,0,0-.058-.146.089.089,0,0,0-.016-.065.149.149,0,0,0-.054-.146.091.091,0,0,0-.015-.065.152.152,0,0,0-.052-.15l-.028-.131a.079.079,0,0,0-.035-.093c-.056-.311-.118-.62-.166-.932a8.9,8.9,0,0,1,.136-3.416,1.276,1.276,0,0,0,.017-.139.144.144,0,0,0,.044-.138l.03-.139c.027-.017.041-.038.024-.07l.043-.146a.144.144,0,0,0,.052-.138l.019-.073a.143.143,0,0,0,.055-.138l.083-.219a.143.143,0,0,0,.059-.132l.51-.986a.065.065,0,0,0,.051-.073l.012-.021.026-.014v-.029l.052-.077a.064.064,0,0,0,.052-.071l.012-.02a.033.033,0,0,0,.031-.045l.114-.154a.058.058,0,0,0,.05-.062l.017-.023a.033.033,0,0,0,.033-.042l.324-.376a.047.047,0,0,0,.048-.051l.021-.022a.047.047,0,0,0,.048-.049l.022-.022a.046.046,0,0,0,.048-.048l.022-.022a.047.047,0,0,0,.048-.048l.023-.021a.046.046,0,0,0,.05-.047l.378-.325a.03.03,0,0,0,.04-.03.023.023,0,0,0,.027-.019.054.054,0,0,0,.06-.048l.156-.114a.033.033,0,0,0,.044-.03l.022-.014a.061.061,0,0,0,.068-.051,9.624,9.624,0,0,1,1.133-.583.135.135,0,0,0,.126-.055l.088-.027a.127.127,0,0,0,.12-.046l.092-.025a.123.123,0,0,0,.122-.043l.087-.018a.259.259,0,0,0,.191-.054l.091-.018a.249.249,0,0,0,.2-.05l.085-.011a.61.61,0,0,0,.336-.06l.087-.008a4.073,4.073,0,0,0,.763-.061h.374a4.179,4.179,0,0,0,.76.056l.158.014a.613.613,0,0,0,.336.058l.088.012a.4.4,0,0,0,.265.06l.083.013a.24.24,0,0,0,.2.058l.078.015a.134.134,0,0,0,.132.048l.084.019a.136.136,0,0,0,.127.05l.082.021a.137.137,0,0,0,.13.055l.024.007a.121.121,0,0,0,.114.049l.779.386a.061.061,0,0,0,.071.049l.023.012.014.025h.028l.079.053a.059.059,0,0,0,.067.05l.023.014a.032.032,0,0,0,.043.03l.155.114a.056.056,0,0,0,.061.051l.022.016a.043.043,0,0,0,.048.042.037.037,0,0,0,.035.028l.007.023h.023l.6.616a.039.039,0,0,0,.038.045l.016.021a.058.058,0,0,0,.052.063l.114.153a.033.033,0,0,0,.031.045l.012.02a.064.064,0,0,0,.052.071l.049.076a.032.032,0,0,0,.028.047l.009.017a.068.068,0,0,0,.052.078l.308.629a.132.132,0,0,0,.055.126l.028.085a.056.056,0,0,0,.034.074l.041.139A.054.054,0,0,0-8.182-198.512Z" transform="translate(114.69 211.822)" fill="#58585f"/><path d="M-298.329-188.805l-.077.064a.138.138,0,0,0-.115.085l-.018.012a.06.06,0,0,0-.067.053l-.083.061a.141.141,0,0,0-.125.081l-.01.006a.075.075,0,0,0-.08.056l-.134.078a.136.136,0,0,0-.126.073l-.013.005a.132.132,0,0,0-.124.067l-.017.006a.128.128,0,0,0-.124.064l-.017.006a.134.134,0,0,0-.128.063l-.014,0a.134.134,0,0,0-.135.062l-.008,0a.223.223,0,0,0-.193.074l-.018,0a.13.13,0,0,0-.139.056h0a.356.356,0,0,0-.262.078l-.018,0a.229.229,0,0,0-.205.06l-.008,0a.544.544,0,0,0-.337.073l-.014,0a1.854,1.854,0,0,0-.208.01,7.652,7.652,0,0,1-2.439-.024,1.18,1.18,0,0,0-.378-.058l-.012,0a.359.359,0,0,0-.27-.07l-.009,0a.229.229,0,0,0-.2-.065l-.012,0a.226.226,0,0,0-.2-.069l-.01,0a.225.225,0,0,0-.2-.074l0,0a.133.133,0,0,0-.138-.061l-.01,0a.132.132,0,0,0-.132-.062l-.015-.005a.134.134,0,0,0-.126-.063l-.017-.006a.131.131,0,0,0-.124-.065l-.016-.006a.131.131,0,0,0-.125-.069l-.01,0a.135.135,0,0,0-.129-.073l0,0a.061.061,0,0,0-.072-.049l-.021-.011a.129.129,0,0,0-.117-.074l-.007,0a.057.057,0,0,0-.068-.049.075.075,0,0,0-.055-.03.08.08,0,0,0-.082-.059l0,0a.063.063,0,0,0-.07-.054l-.015-.01a.138.138,0,0,0-.117-.085l-.077-.063a.068.068,0,0,0-.071-.059l-.009-.007a.06.06,0,0,0-.063-.056l-.014-.011a.586.586,0,0,0-.256-.225h0a.074.074,0,0,0-.07-.069h0a.074.074,0,0,0-.07-.07h0a.074.074,0,0,0-.07-.07h0a.3.3,0,0,0-.157-.181l-.014-.016a.058.058,0,0,0-.054-.059l-.009-.012a.065.065,0,0,0-.058-.068l-.066-.079a.132.132,0,0,0-.083-.111l-.016-.022a.057.057,0,0,0-.049-.061l-.007-.01a.069.069,0,0,0-.057-.074h0a.137.137,0,0,0-.08-.119l-.009-.015a.065.065,0,0,0-.053-.073v0a.138.138,0,0,0-.077-.122l-.007-.014a.071.071,0,0,0-.053-.079l-.078-.136a.142.142,0,0,0-.072-.127l-.005-.011a.08.08,0,0,0-.052-.085l-.163-.338a.076.076,0,0,0-.047-.086.071.071,0,0,0-.019-.055.147.147,0,0,0-.062-.137l-.083-.214a.082.082,0,0,0-.043-.094l-.033-.118a.145.145,0,0,0-.053-.137l-.018-.074a.078.078,0,0,0-.038-.091l-.052-.193a.056.056,0,0,0-.026-.077l-.026-.132a.08.08,0,0,0-.034-.1l-.049-.258a.063.063,0,0,0-.027-.086c-.032-.255-.065-.51-.1-.766a8.847,8.847,0,0,1,.074-2.588c.012-.069.014-.139.021-.209a.056.056,0,0,0,.022-.08l.054-.265a.069.069,0,0,0,.032-.09l.027-.139a.145.145,0,0,0,.048-.142l.018-.078a.14.14,0,0,0,.047-.133l.022-.082a.137.137,0,0,0,.048-.129l.023-.08a.141.141,0,0,0,.054-.132l.021-.071a.053.053,0,0,0,.033-.068l.032-.084a.136.136,0,0,0,.059-.128l.306-.625a.07.07,0,0,0,.051-.081l.007-.015a.035.035,0,0,0,.028-.05l.329-.5a.06.06,0,0,0,.051-.066l.014-.021a.032.032,0,0,0,.031-.044l.183-.231a.052.052,0,0,0,.048-.055l.02-.025a.034.034,0,0,0,.035-.042l.605-.611.025,0,.008-.025a.036.036,0,0,0,.033-.028.042.042,0,0,0,.047-.042l.023-.018a.054.054,0,0,0,.059-.05l.161-.128.021,0,.008-.022a.035.035,0,0,0,.035-.024.048.048,0,0,0,.054-.043l.442-.289a.127.127,0,0,0,.117-.067l.023-.011a.061.061,0,0,0,.073-.047l.352-.169a.121.121,0,0,0,.115-.055l.025-.008a.135.135,0,0,0,.126-.058l.09-.031a.116.116,0,0,0,.112-.045l.024-.007a.134.134,0,0,0,.133-.054l.079-.018a.134.134,0,0,0,.136-.05l.15-.035a.121.121,0,0,0,.125-.04l.083-.014a.427.427,0,0,0,.262-.061l.091-.013a.67.67,0,0,0,.332-.057l.09-.009a4.34,4.34,0,0,0,.76-.059h.305a4.1,4.1,0,0,0,.761.057l.155.013a.6.6,0,0,0,.339.058l.086.011a.39.39,0,0,0,.266.061l.08.013a.126.126,0,0,0,.128.041l.149.033a.135.135,0,0,0,.136.049l.081.018a.137.137,0,0,0,.13.051l.233.083a.128.128,0,0,0,.118.051,6.9,6.9,0,0,1,1.367.8.041.041,0,0,0,.047.04.035.035,0,0,0,.034.027l.008.023h.024l.606.614a.037.037,0,0,0,.037.044l.017.023a.058.058,0,0,0,.051.063l.116.154q-.01.038.029.044l.013.021a.064.064,0,0,0,.052.071l.051.077q-.013.037.027.045l.01.019a.068.068,0,0,0,.051.077l.306.631a.137.137,0,0,0,.055.129l.025.082a.06.06,0,0,0,.035.078l.035.133a.063.063,0,0,0,.034.081l.052.2c0,.009-.012.02-.01.027a.312.312,0,0,0,.03.047c.019.115.043.228.057.344a1.011,1.011,0,0,1,.013.415c-.7,0-1.395,0-2.092-.006a.711.711,0,0,1-.376-.041l-.025-.084a.062.062,0,0,0-.033-.082l-.031-.128a.065.065,0,0,0-.039-.085.071.071,0,0,0-.015-.057.145.145,0,0,0-.059-.147.083.083,0,0,0-.02-.063.14.14,0,0,0-.06-.132l0-.008a.142.142,0,0,0-.066-.135l0-.006a.137.137,0,0,0-.069-.131l0-.009a.078.078,0,0,0-.054-.085l-.078-.13a.133.133,0,0,0-.078-.12l-.01-.016a.062.062,0,0,0-.054-.069l-.064-.08a.077.077,0,0,0-.065-.076h0a.862.862,0,0,0-.355-.353l-.076-.063a.065.065,0,0,0-.073-.057l-.012-.007a.127.127,0,0,0-.122-.08h0a.061.061,0,0,0-.074-.053l-.013-.007a.127.127,0,0,0-.126-.071l-.008,0a.129.129,0,0,0-.133-.067l-.008,0a.129.129,0,0,0-.134-.062l-.014,0a.208.208,0,0,0-.2-.072l-.008,0a.215.215,0,0,0-.2-.064l-.014,0a.468.468,0,0,0-.338-.071l-.01,0a1.1,1.1,0,0,0-.2-.056,5.134,5.134,0,0,0-1.119,0,1.115,1.115,0,0,0-.5.119h-.006a.323.323,0,0,0-.268.074l-.012,0a.208.208,0,0,0-.194.07l-.017,0a.13.13,0,0,0-.134.061l-.008,0a.133.133,0,0,0-.139.065l-.143.075a.128.128,0,0,0-.125.072l-.014.007a.062.062,0,0,0-.074.053h0a.127.127,0,0,0-.122.079l-.012.007a.063.063,0,0,0-.072.056l0,0a.07.07,0,0,0-.074.062h0a.126.126,0,0,0-.111.086l-.017.014a.055.055,0,0,0-.059.054l-.012.011a.059.059,0,0,0-.062.059l-.009.009a.06.06,0,0,0-.062.062l-.008.009a.059.059,0,0,0-.06.063l-.01.011a.057.057,0,0,0-.056.06l-.013.015a.052.052,0,0,0-.049.055l-.017.021a.13.13,0,0,0-.086.111l-.063.08a.063.063,0,0,0-.054.069l-.01.016a.13.13,0,0,0-.079.119v0a.065.065,0,0,0-.052.075l-.008.015a.132.132,0,0,0-.073.122,2.142,2.142,0,0,0-.285.567.144.144,0,0,0-.06.137.081.081,0,0,0-.018.062.149.149,0,0,0-.059.151v.006a.141.141,0,0,0-.052.133l-.031.129a.063.063,0,0,0-.034.083l-.043.189a.076.076,0,0,0-.033.092l-.034.195a.062.062,0,0,0-.027.086,7.6,7.6,0,0,0,.007,3.169c0,.01-.013.022-.01.029a.343.343,0,0,0,.032.051,1.628,1.628,0,0,0,.115.482.055.055,0,0,0,.029.076l.035.135a.06.06,0,0,0,.035.078l.041.134a.053.053,0,0,0,.032.071l.021.069a.133.133,0,0,0,.057.127l.037.086a.043.043,0,0,0,.03.061,1.164,1.164,0,0,0,.188.363.034.034,0,0,0,.027.05l.007.015a.068.068,0,0,0,.052.079,2.057,2.057,0,0,0,.406.558l0,.026.025.009a.031.031,0,0,0,.026.031.042.042,0,0,0,.044.047l.022.023a.046.046,0,0,0,.048.048l.023.023a.046.046,0,0,0,.048.048l.023.023a.044.044,0,0,0,.048.047.025.025,0,0,0,.026.023.038.038,0,0,0,.043.038.043.043,0,0,0,.038.032l.005.022.021,0,.157.126a.054.054,0,0,0,.06.048.024.024,0,0,0,.028.018l.01.023.025,0,.083.056a.055.055,0,0,0,.065.046l.027.015a.114.114,0,0,0,.112.065.984.984,0,0,0,.3.149.122.122,0,0,0,.119.053l.081.024a.131.131,0,0,0,.131.054l.079.017a.126.126,0,0,0,.131.046l.091.018a.362.362,0,0,0,.262.059l.091.011a2.726,2.726,0,0,0,1.311,0l.085-.01a.34.34,0,0,0,.266-.062l.088-.018a.127.127,0,0,0,.131-.048l.079-.02a.128.128,0,0,0,.126-.054,1.4,1.4,0,0,0,.438-.219c.055.007.085-.027.111-.068l.027-.017a.053.053,0,0,0,.06-.046l.155-.118.026,0,.009-.025a.031.031,0,0,0,.031-.025.045.045,0,0,0,.05-.044l.021-.017a.051.051,0,0,0,.054-.052l.016-.016a.053.053,0,0,0,.054-.054l.016-.016a.052.052,0,0,0,.053-.054l.016-.018a.05.05,0,0,0,.049-.053l.02-.024a.036.036,0,0,0,.036-.043l.111-.144a.062.062,0,0,0,.054-.07l.01-.016a.039.039,0,0,0,.037-.05l.042-.069a.066.066,0,0,0,.052-.076l.009-.018.026-.016v-.029a1.054,1.054,0,0,0,.192-.363.044.044,0,0,0,.029-.062l.037-.087a.13.13,0,0,0,.055-.126l.021-.074c.027-.014.038-.033.023-.063l.048-.147c.026-.015.037-.034.018-.062a.358.358,0,0,0,.057-.212c.027-.018.04-.041.02-.072a2.622,2.622,0,0,0,.121-.7.411.411,0,0,1,.234-.053q1,0,1.991,0a.328.328,0,0,1,.229.066l-.14,1.024a.059.059,0,0,0-.024.082l-.043.2a.056.056,0,0,0-.027.078l-.038.143a.149.149,0,0,0-.049.139l-.019.076a.145.145,0,0,0-.054.136l-.02.07a.149.149,0,0,0-.059.141l-.369.764a.079.079,0,0,0-.053.082l-.005.011a.14.14,0,0,0-.077.125v0a.067.067,0,0,0-.052.074l-.009.015a.138.138,0,0,0-.08.119h0a.068.068,0,0,0-.057.074l-.007.01a.053.053,0,0,0-.047.059.073.073,0,0,0-.036.054.087.087,0,0,0-.066.081l-.066.078a.066.066,0,0,0-.06.068l-.008.01a.058.058,0,0,0-.056.061l-.014.016a.054.054,0,0,0-.052.054l-.019.019a.049.049,0,0,0-.051.052l-.019.021-.05.05-.022.019a.049.049,0,0,0-.051.05l-.02.02a.051.051,0,0,0-.052.051l-.019.017a.054.054,0,0,0-.057.053l-.014.011a.061.061,0,0,0-.064.057l-.009.007A.068.068,0,0,0-298.329-188.805Z" transform="translate(360.58 211.822)" fill="#58585f"/><path d="M241.5-189.482l.044.072a.038.038,0,0,0,.033.049l.009.017a.066.066,0,0,0,.053.074l.045.071a.038.038,0,0,0,.034.049l.009.017a.066.066,0,0,0,.053.074l.045.071a.038.038,0,0,0,.034.049l.009.017a.066.066,0,0,0,.053.074l.045.071a.038.038,0,0,0,.034.049l.009.017a.066.066,0,0,0,.053.074l.044.071a.039.039,0,0,0,.034.052l.008.015a.067.067,0,0,0,.053.076c.2.3.387.6.586.9.347.521.7,1.039,1.048,1.558-.006.058-.012.119-.09.122-.093,0-.187,0-.28,0l-2.31.006-.072-.066a.147.147,0,0,0-.079-.128l0-.008a.079.079,0,0,0-.057-.083l-.079-.13a.135.135,0,0,0-.076-.123l-.008-.015a.067.067,0,0,0-.053-.076h0a.139.139,0,0,0-.078-.127l0-.009a.078.078,0,0,0-.055-.082l-.08-.131a.134.134,0,0,0-.074-.121l-.009-.017a.066.066,0,0,0-.052-.075v0a.139.139,0,0,0-.077-.125l-.006-.011a.077.077,0,0,0-.054-.08,1.463,1.463,0,0,0-.216-.346.138.138,0,0,0-.077-.124l-.007-.012a.067.067,0,0,0-.053-.077h0a.142.142,0,0,0-.078-.128l0-.007a.079.079,0,0,0-.056-.083l-.079-.129a.136.136,0,0,0-.076-.123l-.007-.014a.067.067,0,0,0-.053-.076h0a.141.141,0,0,0-.077-.127l0-.009a.078.078,0,0,0-.056-.082l-.08-.131a.133.133,0,0,0-.075-.121l-.009-.017a.066.066,0,0,0-.052-.075h0a.137.137,0,0,0-.077-.125l-.006-.011a.077.077,0,0,0-.054-.08,1.48,1.48,0,0,0-.216-.346.137.137,0,0,0-.077-.124l-.007-.012a.067.067,0,0,0-.053-.077h0a.14.14,0,0,0-.078-.128l0-.008a.079.079,0,0,0-.056-.083l-.079-.129a.138.138,0,0,0-.076-.124l-.007-.014a.067.067,0,0,0-.053-.076h0a.141.141,0,0,0-.078-.127l0-.009a.078.078,0,0,0-.055-.082l-.08-.131a.073.073,0,0,0-.056-.081h0c0-.04-.017-.074-.054-.073a.092.092,0,0,0-.094.083,6.094,6.094,0,0,0-.643.625.078.078,0,0,0-.073.07h0a.073.073,0,0,0-.069.069h0a.073.073,0,0,0-.07.069h0a.075.075,0,0,0-.07.069h0a.552.552,0,0,0-.29.3.758.758,0,0,0-.03.346c0,.971,0,1.942,0,2.913a1.18,1.18,0,0,1-.025.383c-.524,0-1.049,0-1.573,0-.221,0-.442-.011-.663-.016q0-3.519,0-7.038,0-3.308,0-6.616c0-.129,0-.258-.008-.387l.052-.076,2.131-.01.03.013h.033a1.284,1.284,0,0,1,.025.419q0,3.534,0,7.069c0,.129.008.257.012.386-.02.029-.024.072,0,.082.057.022.095-.011.109-.069l1.827-1.848a.056.056,0,0,0,.057-.06l.012-.015a.056.056,0,0,0,.054-.056l.016-.016a.053.053,0,0,0,.054-.054l.016-.016a.053.053,0,0,0,.054-.054l.016-.016a.053.053,0,0,0,.054-.054l.016-.016a.053.053,0,0,0,.054-.054l.016-.016a.053.053,0,0,0,.054-.054l.016-.016a.053.053,0,0,0,.054-.054l.016-.016a.052.052,0,0,0,.053-.054l.016-.018a.051.051,0,0,0,.049-.053l.021-.022a.047.047,0,0,0,.048-.049l.022-.022a.046.046,0,0,0,.048-.048l.022-.022a.046.046,0,0,0,.048-.048l.022-.022a.046.046,0,0,0,.048-.048l.022-.022a.046.046,0,0,0,.048-.048l.022-.022a.046.046,0,0,0,.048-.048l.023-.023a.045.045,0,0,0,.048-.048l.023-.023a.044.044,0,0,0,.047-.048.025.025,0,0,0,.023-.027.041.041,0,0,0,.041-.044.035.035,0,0,0,.031-.031.037.037,0,0,0,.04-.04.035.035,0,0,0,.031-.03.037.037,0,0,0,.04-.04.036.036,0,0,0,.031-.031.037.037,0,0,0,.04-.04.035.035,0,0,0,.031-.031.037.037,0,0,0,.04-.04.036.036,0,0,0,.031-.031.037.037,0,0,0,.04-.04.036.036,0,0,0,.031-.031.037.037,0,0,0,.04-.04.036.036,0,0,0,.031-.031.037.037,0,0,0,.04-.04.035.035,0,0,0,.03-.03l.026-.009,0-.027.269-.252,2.284.007c.105,0,.211,0,.316.012a.1.1,0,0,1,.085.1l-.016.014a.054.054,0,0,0-.058.055l-.013.013a.058.058,0,0,0-.058.058l-.012.012a.061.061,0,0,0-.06.058l-.011.009a.059.059,0,0,0-.063.06l-.008.008a.062.062,0,0,0-.063.062l-.008.008a.066.066,0,0,0-.065.062l-.007.006a.064.064,0,0,0-.067.063,5.077,5.077,0,0,0-.574.555.078.078,0,0,0-.073.069h0a.073.073,0,0,0-.069.069h0a.074.074,0,0,0-.07.068h0a.516.516,0,0,0-.248.229l-.02.017a.048.048,0,0,0-.051.05l-.019.019a.05.05,0,0,0-.051.051l-.019.019a.055.055,0,0,0-.055.052l-.016.014a.055.055,0,0,0-.058.056l-.012.012a.057.057,0,0,0-.058.058l-.012.012a.061.061,0,0,0-.061.058l-.011.009a.059.059,0,0,0-.063.06l-.008.008a.062.062,0,0,0-.063.063l-.008.007a.066.066,0,0,0-.066.062,6.719,6.719,0,0,0-.647.623.078.078,0,0,0-.072.071h0a.074.074,0,0,0-.07.069h0a.883.883,0,0,0-.321.3l-.018.017a.049.049,0,0,0-.051.051l-.019.019a.051.051,0,0,0-.052.051l-.019.017a.054.054,0,0,0-.056.053l-.014.013a.056.056,0,0,0-.058.057l-.012.012a.059.059,0,0,0-.059.058l-.011.01c-.134.087-.134.087-.074.193l0,.006a.125.125,0,0,0,.075.115l.013.021a.061.061,0,0,0,.049.069l.056.081,0,.025.024.011.015.025a.06.06,0,0,0,.049.069l.056.081,0,.025.024.011.015.025a.06.06,0,0,0,.049.069l.056.081,0,.025.024.011.015.025a.062.062,0,0,0,.049.07l.051.078v.028l.026.014.012.021a.064.064,0,0,0,.051.071l.052.077v.028l.026.014.012.021a.063.063,0,0,0,.051.071l.052.077v.029l.026.014.012.021a.063.063,0,0,0,.051.071l.052.077v.028l.026.014.012.021a.063.063,0,0,0,.051.071l.051.077q-.013.037.026.044l.011.02a.064.064,0,0,0,.052.073l.048.074a.033.033,0,0,0,.03.046l.011.019a.064.064,0,0,0,.052.072l.048.074a.033.033,0,0,0,.03.046l.011.019a.064.064,0,0,0,.052.072l.048.074a.033.033,0,0,0,.03.046l.011.019a.064.064,0,0,0,.052.073l.048.074a.033.033,0,0,0,.03.046l.011.019A.066.066,0,0,0,241.5-189.482Z" transform="translate(-103.063 209.826)" fill="#58585f"/><path d="M80.794-171.335l.042-.149a.142.142,0,0,0,.047-.135l.021-.082a.138.138,0,0,0,.051-.129l.023-.077a.144.144,0,0,0,.057-.135,8.166,8.166,0,0,1,.577-1.067.057.057,0,0,0,.048-.062.023.023,0,0,0,.019-.027l.024-.01v-.026l.123-.155a.059.059,0,0,0,.054-.063l.014-.018a.05.05,0,0,0,.047-.053.025.025,0,0,0,.022-.026.041.041,0,0,0,.041-.044.038.038,0,0,0,.03-.034l.025-.009,0-.026a.055.055,0,0,0,.042-.042l.025,0,0-.025a.054.054,0,0,0,.042-.042l.024,0,0-.024a.056.056,0,0,0,.043-.042c.023,0,.035-.006.036-.03a.038.038,0,0,0,.034-.03.038.038,0,0,0,.041-.04.032.032,0,0,0,.031-.026.042.042,0,0,0,.048-.042l.241-.194.023,0,.009-.023a.031.031,0,0,0,.032-.022.052.052,0,0,0,.058-.044l.367-.226a.117.117,0,0,0,.113-.063l.027-.012a.06.06,0,0,0,.072-.044l.07-.026a.128.128,0,0,0,.119-.057l.234-.091a.13.13,0,0,0,.121-.049l.092-.026a.123.123,0,0,0,.122-.043l.087-.017a.253.253,0,0,0,.194-.054l.088-.014a.4.4,0,0,0,.27-.054l.153-.015,1.262,0,.09.009a.664.664,0,0,0,.333.062L86.7-175a.246.246,0,0,0,.2.057l.079.016a.133.133,0,0,0,.132.049l.081.021a.135.135,0,0,0,.131.055l.024.007a.123.123,0,0,0,.114.049l.5.242a.058.058,0,0,0,.067.046l.027.015c.027.04.056.075.111.069l.015.008a.052.052,0,0,0,.058.043.027.027,0,0,0,.03.02.114.114,0,0,0,.107.074l.1.073a.044.044,0,0,0,.05.042.037.037,0,0,0,.035.027l.007.022.022,0,.679.69a.037.037,0,0,0,.036.045l.015.021a.059.059,0,0,0,.051.064l.11.152a.04.04,0,0,0,.035.05l.009.017a.066.066,0,0,0,.053.075l.474.917c-.014.029,0,.048.024.061l.023.077a.138.138,0,0,0,.051.129l.022.081a.066.066,0,0,0,.035.083l.029.128a.148.148,0,0,0,.047.144l.046.211c0,.009-.013.021-.01.028a.348.348,0,0,0,.03.05,8.294,8.294,0,0,1,.07,1.872,1.064,1.064,0,0,1-.417.036H83.29c-.117,0-.234,0-.35.014-.055.005-.061.059-.056.108a2.359,2.359,0,0,0,.109.846c-.018.034,0,.057.025.075l.03.135a.129.129,0,0,0,.05.129l.027.082a.055.055,0,0,0,.036.072,2.276,2.276,0,0,0,1.286,1.333.127.127,0,0,0,.123.054l.08.02a.126.126,0,0,0,.131.048l.089.017a.346.346,0,0,0,.263.057,3.5,3.5,0,0,0,.994,0,.335.335,0,0,0,.268-.055l.084-.014a.228.228,0,0,0,.19-.061,1.311,1.311,0,0,0,.52-.265l.022.005.009-.022a.028.028,0,0,0,.031-.02.05.05,0,0,0,.057-.046.886.886,0,0,0,.3-.289.059.059,0,0,0,.055-.065l.011-.016a.042.042,0,0,0,.041-.051,1.765,1.765,0,0,0,.313-.571c.026-.012.038-.03.022-.058l.048-.106.062-.039,2.056,0,.025.136-.04.189a.08.08,0,0,0-.038.094l-.017.072a.151.151,0,0,0-.053.138l-.02.068a.152.152,0,0,0-.062.144l0,.007a.152.152,0,0,0-.063.134l0,.013a.138.138,0,0,0-.064.126.072.072,0,0,0-.022.056.081.081,0,0,0-.052.087l0,.01a.148.148,0,0,0-.075.129l-.142.215a.065.065,0,0,0-.053.07l-.011.016a.142.142,0,0,0-.086.116l-.063.076a.069.069,0,0,0-.062.071l-.006.007a.062.062,0,0,0-.059.064l-.01.011a.06.06,0,0,0-.058.06l-.012.012a.058.058,0,0,0-.058.058l-.012.012a.058.058,0,0,0-.058.058l-.012.012a.061.061,0,0,0-.06.058l-.011.009a.063.063,0,0,0-.066.059l-.155.129a.142.142,0,0,0-.119.086l-.013.008a.064.064,0,0,0-.072.055l0,0a.134.134,0,0,0-.119.077l-.018.009a.061.061,0,0,0-.073.051l0,0a.137.137,0,0,0-.13.074l-.009,0a.135.135,0,0,0-.127.069l-.013,0a.134.134,0,0,0-.129.065l-.012,0a.134.134,0,0,0-.133.064l-.009,0a.142.142,0,0,0-.145.061.092.092,0,0,0-.063.018.135.135,0,0,0-.139.056l-.007,0a.236.236,0,0,0-.211.067.1.1,0,0,0-.067.014.237.237,0,0,0-.209.059H86.9a1.65,1.65,0,0,0-.208.014,5.742,5.742,0,0,1-1.667.069c-.242-.025-.484-.054-.726-.082l-.009,0a.368.368,0,0,0-.273-.069l-.008,0a.228.228,0,0,0-.2-.065l-.01,0a.229.229,0,0,0-.2-.071l-.007,0a.133.133,0,0,0-.136-.059l-.016,0a.133.133,0,0,0-.128-.061.085.085,0,0,0-.06-.021.068.068,0,0,0-.082-.047.081.081,0,0,0-.058-.025.068.068,0,0,0-.081-.049l-.017-.007a.132.132,0,0,0-.122-.071l-.009,0a.136.136,0,0,0-.129-.076h0a.064.064,0,0,0-.074-.055l-.011-.006a.133.133,0,0,0-.121-.082h0a.071.071,0,0,0-.075-.061l0,0a.066.066,0,0,0-.071-.059l-.01-.007a.059.059,0,0,0-.063-.055l-.015-.012a2.307,2.307,0,0,0-.413-.406l-.015-.018a.056.056,0,0,0-.052-.058l-.01-.013a.065.065,0,0,0-.058-.068l-.065-.079a.139.139,0,0,0-.083-.115l-.012-.018a.065.065,0,0,0-.052-.07l-.14-.217a.146.146,0,0,0-.075-.129l0-.009a.082.082,0,0,0-.053-.087.072.072,0,0,0-.022-.055.077.077,0,0,0-.049-.085.071.071,0,0,0-.022-.055.079.079,0,0,0-.048-.087.068.068,0,0,0-.019-.054.147.147,0,0,0-.062-.138l-.08-.214a.15.15,0,0,0-.057-.146.093.093,0,0,0-.015-.065.152.152,0,0,0-.052-.15l-.111-.484a.061.061,0,0,0-.025-.085c-.028-.255-.064-.509-.082-.764a8.2,8.2,0,0,1,.082-1.882.06.06,0,0,0,.024-.083l.041-.207A.05.05,0,0,0,80.794-171.335Zm7.3.675a.566.566,0,0,0,0-.308,3.028,3.028,0,0,0-.56-1.348,2.377,2.377,0,0,0-2.447-.959,2.551,2.551,0,0,0-2.125,2.034,1.718,1.718,0,0,0-.076.52.087.087,0,0,0,.084.091,1.664,1.664,0,0,0,.176.007h4.713A.37.37,0,0,0,88.094-170.66Z" transform="translate(28.141 188.584)" fill="#58585f"/><path d="M309.2-175.089l.157.013a.653.653,0,0,0,.336.058l.088.012a.257.257,0,0,0,.192.049l.094.02a.269.269,0,0,0,.19.057l.083.019a.131.131,0,0,0,.129.05l.236.084a.123.123,0,0,0,.116.052l.711.379a.061.061,0,0,0,.068.051l.022.013a.034.034,0,0,0,.045.032l.152.114a.059.059,0,0,0,.064.053l.019.014a.048.048,0,0,0,.053.046.026.026,0,0,0,.028.022.032.032,0,0,0,.04.034l.331.323,0,.025.025.008a.034.034,0,0,0,.028.032l.043.047.019.024a.054.054,0,0,0,.049.057,6.336,6.336,0,0,1,.718,1.213.144.144,0,0,0,.057.134l.024.078a.132.132,0,0,0,.05.126l.023.085a.135.135,0,0,0,.045.13l.017.08a.144.144,0,0,0,.047.142c.071.415.144.829.174,1.251a7.553,7.553,0,0,1-.073,1.541c-.016.116-.03.232-.044.349a.08.08,0,0,0-.032.1l-.036.189a.079.079,0,0,0-.035.093l-.028.129a.064.064,0,0,0-.035.082l-.035.13a.156.156,0,0,0-.059.152v.005a.146.146,0,0,0-.058.135l-.3.626a.076.076,0,0,0-.053.081l-.006.012a.14.14,0,0,0-.077.124v0a.066.066,0,0,0-.053.073l-.009.015a.137.137,0,0,0-.081.118h0a.069.069,0,0,0-.059.074l-.005.007a.062.062,0,0,0-.054.065l-.012.015a.133.133,0,0,0-.088.112h0a.081.081,0,0,0-.069.074l-.351.347a.334.334,0,0,0-.19.155l-.013.009a.065.065,0,0,0-.07.056l-.08.061a.143.143,0,0,0-.123.083l-.011.006a.074.074,0,0,0-.079.055l-.134.079a.136.136,0,0,0-.126.072l-.013.006a.132.132,0,0,0-.124.066l-.017.006a.134.134,0,0,0-.127.063l-.014,0a.133.133,0,0,0-.133.062l-.009,0a.144.144,0,0,0-.146.061.089.089,0,0,0-.062.017.134.134,0,0,0-.141.056l0,0a.363.363,0,0,0-.266.076l-.014,0a.376.376,0,0,0-.269.067l-.013,0a.548.548,0,0,0-.344.066h-.009c-.1,0-.209,0-.312.009a7.512,7.512,0,0,1-1.458-.009,2.726,2.726,0,0,0-.55-.069l-.01,0a.367.367,0,0,0-.272-.068l-.01,0a.231.231,0,0,0-.2-.064l-.015,0a.227.227,0,0,0-.2-.068l-.013,0a.227.227,0,0,0-.2-.075l0,0a.133.133,0,0,0-.138-.063l-.009,0a.136.136,0,0,0-.132-.065l-.01,0a.14.14,0,0,0-.134-.07l-.134-.077a.066.066,0,0,0-.076-.051l-.018-.008a.133.133,0,0,0-.12-.076l0,0a.063.063,0,0,0-.071-.053l-.016-.01a.14.14,0,0,0-.117-.083l-.079-.064a.065.065,0,0,0-.069-.057l-.013-.01a.055.055,0,0,0-.059-.051l-.019-.016a.3.3,0,0,0-.18-.157h0a.074.074,0,0,0-.07-.069h0a.3.3,0,0,0-.158-.179l-.015-.018a.056.056,0,0,0-.052-.058l-.01-.013a.065.065,0,0,0-.057-.069l-.065-.079a.141.141,0,0,0-.083-.117l-.01-.017a.065.065,0,0,0-.053-.07l-.141-.215a.148.148,0,0,0-.075-.131l0-.008a.081.081,0,0,0-.053-.087.072.072,0,0,0-.022-.054.077.077,0,0,0-.049-.085.071.071,0,0,0-.022-.055.079.079,0,0,0-.048-.087.068.068,0,0,0-.02-.054.149.149,0,0,0-.062-.137l-.08-.215a.15.15,0,0,0-.056-.146l-.037-.136a.06.06,0,0,0-.031-.079l-.028-.131a.079.079,0,0,0-.034-.093c-.028-.161-.058-.321-.083-.482a7.557,7.557,0,0,1-.009-2.3c.01-.069.012-.139.018-.209a.06.06,0,0,0,.024-.083l.04-.209c.027-.018.038-.039.019-.069l.123-.422a.056.056,0,0,0,.032-.075l.1-.286a.047.047,0,0,0,.029-.064l.037-.086a.142.142,0,0,0,.064-.13l0-.013a.138.138,0,0,0,.066-.128l.006-.015a.034.034,0,0,0,.025-.05l.124-.214a.067.067,0,0,0,.052-.075l.01-.018a.033.033,0,0,0,.03-.047l.049-.074a.065.065,0,0,0,.054-.072l.01-.017a.042.042,0,0,0,.039-.051l.246-.3a.049.049,0,0,0,.049-.053l.02-.022a.047.047,0,0,0,.048-.049l.023-.022a.046.046,0,0,0,.048-.048l.022-.022a.046.046,0,0,0,.048-.048l.023-.023a.046.046,0,0,0,.049-.046l.31-.259h.027l.011-.025a.023.023,0,0,0,.028-.018.055.055,0,0,0,.061-.047l.3-.2.026,0,.013-.023.025-.011a.061.061,0,0,0,.073-.047l.21-.1a.12.12,0,0,0,.114-.057l.026-.009a.135.135,0,0,0,.124-.057l.229-.082a.132.132,0,0,0,.134-.052l.077-.018a.251.251,0,0,0,.194-.059l.089-.017a.25.25,0,0,0,.2-.052l.085-.011a.623.623,0,0,0,.339-.059l.155-.013Zm2.208,5.372a4.467,4.467,0,0,0-.366-1.882,3.007,3.007,0,0,0-.791-1.105,2.614,2.614,0,0,0-1.891-.615,2.533,2.533,0,0,0-1.734.746,3.215,3.215,0,0,0-.738,1.183,4.858,4.858,0,0,0-.26,2.214,4.152,4.152,0,0,0,.478,1.606,2.6,2.6,0,0,0,2.533,1.451,2.541,2.541,0,0,0,2.1-1.163,3.2,3.2,0,0,0,.3-.553A4.535,4.535,0,0,0,311.408-169.717Z" transform="translate(-161.884 188.59)" fill="#58585f"/><path d="M-205.931-175.084l.156.013a.621.621,0,0,0,.338.059l.084.011a.252.252,0,0,0,.2.052l.089.017a.254.254,0,0,0,.194.059l.078.017a.137.137,0,0,0,.133.052l.229.083a.136.136,0,0,0,.124.057l.026.009a.12.12,0,0,0,.113.055l.211.1a.061.061,0,0,0,.073.047l.022.01a.128.128,0,0,0,.117.069l.225.148a.053.053,0,0,0,.06.046.026.026,0,0,0,.03.02l.01.024h.026l.232.191a.052.052,0,0,0,.056.05l.022.019a.048.048,0,0,0,.049.048l.022.022a.047.047,0,0,0,.048.048l.022.022a.046.046,0,0,0,.048.048l.022.022a.047.047,0,0,0,.048.049l.021.022a.048.048,0,0,0,.048.051l.249.3a.039.039,0,0,0,.037.049l.011.018a.065.065,0,0,0,.053.071l.052.076V-173l.026.014.011.021a.066.066,0,0,0,.051.074l.08.141a.136.136,0,0,0,.069.125l.006.014a.14.14,0,0,0,.066.125l.005.015a.136.136,0,0,0,.063.128l.039.088a.044.044,0,0,0,.027.063l.108.288a.053.053,0,0,0,.029.071l.039.14a.055.055,0,0,0,.03.076l.116.488c0,.01-.013.022-.01.029a.352.352,0,0,0,.031.052c.03.3.07.6.087.906a6.843,6.843,0,0,1-.145,1.95,1.172,1.172,0,0,0-.016.139.076.076,0,0,0-.034.092l-.028.133a.152.152,0,0,0-.052.148l-.016.068a.15.15,0,0,0-.056.144l-.08.216a.147.147,0,0,0-.062.136.073.073,0,0,0-.019.056.075.075,0,0,0-.047.085.081.081,0,0,0-.022.059.071.071,0,0,0-.049.082.07.07,0,0,0-.024.055.081.081,0,0,0-.052.086l0,.009a.147.147,0,0,0-.075.129l-.141.216a.065.065,0,0,0-.052.069l-.012.018a.137.137,0,0,0-.082.116l-.065.08a.063.063,0,0,0-.057.067l-.011.014a.053.053,0,0,0-.049.056l-.017.021a.127.127,0,0,0-.089.106h0a.075.075,0,0,0-.069.07h0a.074.074,0,0,0-.07.07h0a.3.3,0,0,0-.179.157l-.019.016a.054.054,0,0,0-.057.051l-.014.011a.063.063,0,0,0-.068.057l-.081.064a.138.138,0,0,0-.117.083l-.017.01a.062.062,0,0,0-.07.053l0,0a.131.131,0,0,0-.119.075l-.018.009a.067.067,0,0,0-.076.051l-.136.077a.14.14,0,0,0-.134.069l-.01,0a.136.136,0,0,0-.132.066l-.009,0a.132.132,0,0,0-.138.063l0,0a.227.227,0,0,0-.2.075l-.014,0a.233.233,0,0,0-.195.069l-.017,0a.23.23,0,0,0-.2.064l-.011,0a.365.365,0,0,0-.272.067l-.01,0a1.558,1.558,0,0,0-.207.013,5.676,5.676,0,0,1-1.176.1c-.312-.006-.624-.026-.937-.04h-.008a.553.553,0,0,0-.345-.065l-.013,0a.374.374,0,0,0-.27-.067l-.014,0a.238.238,0,0,0-.2-.062.1.1,0,0,0-.065-.016.142.142,0,0,0-.144-.055l-.018,0a.222.222,0,0,0-.192-.074l-.008,0a.135.135,0,0,0-.134-.062l-.014,0a.135.135,0,0,0-.128-.063l-.017-.006a.131.131,0,0,0-.124-.067l-.013-.005a.136.136,0,0,0-.127-.071l-.133-.08a.075.075,0,0,0-.08-.055l-.01-.006a.135.135,0,0,0-.123-.081h0a.07.07,0,0,0-.075-.059l0,0a.064.064,0,0,0-.07-.056l-.014-.01a.053.053,0,0,0-.058-.049l-.021-.017a.136.136,0,0,0-.11-.089l-.351-.347a.081.081,0,0,0-.069-.074h0a.134.134,0,0,0-.088-.112l-.011-.014a.063.063,0,0,0-.055-.067l-.063-.081a.145.145,0,0,0-.083-.12l-.007-.013a.066.066,0,0,0-.054-.075h0a.143.143,0,0,0-.078-.124l-.006-.011a.078.078,0,0,0-.053-.082l-.3-.624a.146.146,0,0,0-.058-.135l-.023-.075a.065.065,0,0,0-.038-.082l-.033-.129a.064.064,0,0,0-.036-.084l-.027-.127a.081.081,0,0,0-.035-.1,11.694,11.694,0,0,1-.179-1.248,7.69,7.69,0,0,1,.081-1.677c.011-.069.013-.139.02-.209a.055.055,0,0,0,.022-.078l.045-.21a.047.047,0,0,0,.021-.07.394.394,0,0,0,.056-.2.066.066,0,0,0,.035-.083l.022-.081a.14.14,0,0,0,.05-.129l.023-.077a.145.145,0,0,0,.058-.135,6.205,6.205,0,0,1,.718-1.21.056.056,0,0,0,.051-.06l.017-.021a.044.044,0,0,0,.044-.049.031.031,0,0,0,.026-.03l.026-.009,0-.027.258-.261h.024l.007-.024a.039.039,0,0,0,.035-.03.041.041,0,0,0,.045-.04.024.024,0,0,0,.026-.021.05.05,0,0,0,.054-.047,5.882,5.882,0,0,1,1.079-.655.124.124,0,0,0,.116-.053l.236-.084a.132.132,0,0,0,.129-.05l.083-.019a.262.262,0,0,0,.19-.057l.094-.019a.247.247,0,0,0,.192-.049l.088-.012a.652.652,0,0,0,.336-.058l.157-.012Zm-3.616,5.356c.008.176.008.352.026.526a4.138,4.138,0,0,0,.625,1.882,2.556,2.556,0,0,0,1.692,1.16,3.07,3.07,0,0,0,.806.038,2.5,2.5,0,0,0,1.8-.909,3.075,3.075,0,0,0,.45-.71,4.808,4.808,0,0,0,.373-2.643,4.046,4.046,0,0,0-.471-1.5,2.748,2.748,0,0,0-1.15-1.151,2.705,2.705,0,0,0-3.523.964,4.028,4.028,0,0,0-.261.5A4.5,4.5,0,0,0-209.547-169.728Z" transform="translate(277.623 188.587)" fill="#58585f"/><path d="M-89.967-175.092l.157.014a.434.434,0,0,0,.265.052l.091.016a.276.276,0,0,0,.191.053l.088.02a.126.126,0,0,0,.123.047l.088.024a.137.137,0,0,0,.126.055l.353.164a.061.061,0,0,0,.071.048l.024.012.014.024h.027l.081.054a.06.06,0,0,0,.067.051l.021.014a.039.039,0,0,0,.047.036l.473.462,0,.027.026.011a.022.022,0,0,0,.019.027.057.057,0,0,0,.048.062,5.062,5.062,0,0,1,.37.716.149.149,0,0,0,.052.136l.042.148a.05.05,0,0,0,.022.073A8.792,8.792,0,0,1-86.963-171c0,1.975,0,3.95,0,5.924a1.138,1.138,0,0,1-.042.484c-.617,0-1.234,0-1.851-.008-.127,0-.255-.015-.382-.022q0-3.156,0-6.312a3.387,3.387,0,0,0-.12-1.04.063.063,0,0,0-.033-.084l-.031-.126a.066.066,0,0,0-.04-.083.073.073,0,0,0-.018-.058.135.135,0,0,0-.065-.129l0-.01a.077.077,0,0,0-.053-.086.069.069,0,0,0-.029-.055.058.058,0,0,0-.05-.067.738.738,0,0,0-.284-.288.059.059,0,0,0-.068-.052l-.02-.011a.118.118,0,0,0-.118-.069l-.013,0a.126.126,0,0,0-.13-.062.084.084,0,0,0-.063-.018.219.219,0,0,0-.215-.064l-.008,0a.691.691,0,0,0-.159-.059,3.865,3.865,0,0,0-.9,0,1,1,0,0,0-.194.065l-.017,0a.211.211,0,0,0-.2.064l-.01,0a.136.136,0,0,0-.146.06.085.085,0,0,0-.061.021.071.071,0,0,0-.084.047.076.076,0,0,0-.057.025.06.06,0,0,0-.074.049l0,0a.124.124,0,0,0-.123.077l-.012.007a.065.065,0,0,0-.073.057l-.076.063a.359.359,0,0,0-.215.211h0a.077.077,0,0,0-.068.075l-.063.078a.064.064,0,0,0-.056.072l-.008.013a.131.131,0,0,0-.078.123,1.154,1.154,0,0,0-.21.425.142.142,0,0,0-.055.14l-.028.12a.075.075,0,0,0-.034.092,2.569,2.569,0,0,0-.1.726l0,6.03c-.1.088-.221.054-.334.055-.638,0-1.277,0-1.915,0-.006-.128-.019-.257-.019-.385q0-4.729,0-9.458c0-.128.012-.257.018-.384h2.1a6.027,6.027,0,0,1,.019.771c.006.2.008.4.011.6-.019.04-.023.093.016.106s.074-.028.091-.07a.133.133,0,0,0,0-.031l.216-.294a.056.056,0,0,0,.051-.061l.017-.022a.044.044,0,0,0,.043-.048.032.032,0,0,0,.027-.03.032.032,0,0,0,.034-.04.051.051,0,0,0,.037-.042l.024,0,0-.025a.055.055,0,0,0,.043-.042l.024,0,0-.024a.056.056,0,0,0,.043-.042l.026,0,.009-.025a.041.041,0,0,0,.036-.031.041.041,0,0,0,.044-.039.024.024,0,0,0,.026-.021.05.05,0,0,0,.053-.047l.018-.014a.059.059,0,0,0,.065-.053,5.072,5.072,0,0,1,.926-.512.135.135,0,0,0,.127-.053l.085-.021a.133.133,0,0,0,.131-.047l.079-.014a.418.418,0,0,0,.267-.06l.086-.009Z" transform="translate(178.786 188.593)" fill="#58585f"/><path d="M155.942-171.919l.023-.081a.138.138,0,0,0,.052-.131l.022-.074a.148.148,0,0,0,.06-.139l0-.012a.139.139,0,0,0,.058-.126l.166-.345a.069.069,0,0,0,.05-.08l.008-.017c.026-.006.034-.022.025-.046l.191-.295a.059.059,0,0,0,.049-.064l.017-.025.026-.012v-.028l.189-.235a.049.049,0,0,0,.048-.052l.02-.022a.043.043,0,0,0,.044-.048.032.032,0,0,0,.027-.03.037.037,0,0,0,.04-.04.036.036,0,0,0,.031-.031.037.037,0,0,0,.04-.04.036.036,0,0,0,.031-.031.037.037,0,0,0,.04-.04.034.034,0,0,0,.031-.028.041.041,0,0,0,.047-.042l.024-.021a.05.05,0,0,0,.053-.048l.018-.015a.058.058,0,0,0,.062-.053l.154-.122h.026l.011-.024a.023.023,0,0,0,.028-.017.056.056,0,0,0,.063-.048l.012-.007a.118.118,0,0,0,.111-.071l.027-.015a.058.058,0,0,0,.066-.046l.644-.312a.122.122,0,0,0,.115-.048l.235-.078a.251.251,0,0,0,.195-.061l.089-.017a.254.254,0,0,0,.2-.052l.086-.012a.632.632,0,0,0,.336-.059l.158-.013a12.02,12.02,0,0,1,1.228.007,1.145,1.145,0,0,0,.175-.005l.154.013a.607.607,0,0,0,.339.059l.084.011a.245.245,0,0,0,.2.052l.089.016a.254.254,0,0,0,.194.059l.078.017a.137.137,0,0,0,.133.052l.23.083a.135.135,0,0,0,.123.056l.573.3a.057.057,0,0,0,.064.046.024.024,0,0,0,.029.017l.01.023.025,0,.164.124a.05.05,0,0,0,.055.046.027.027,0,0,0,.029.022c0,.025.014.035.038.03l.405.4v.025l.024.008a.034.034,0,0,0,.026.033.047.047,0,0,0,.044.051l.014.019a.061.061,0,0,0,.053.066,6.312,6.312,0,0,1,.439.782.145.145,0,0,0,.057.134l.022.078a.141.141,0,0,0,.049.133l.018.078a.15.15,0,0,0,.047.144,3.034,3.034,0,0,1,.072.7h-.421l-1.826-.011-.048-.2c.019-.034,0-.059-.024-.078a.075.075,0,0,0-.012-.06.148.148,0,0,0-.055-.156.064.064,0,0,0-.016-.055.143.143,0,0,0-.063-.143l-.073-.139a.133.133,0,0,0-.076-.126l-.007-.012a.067.067,0,0,0-.056-.074l-.062-.076a.348.348,0,0,0-.211-.215h0a.074.074,0,0,0-.074-.065.425.425,0,0,0-.207-.142.067.067,0,0,0-.079-.051l-.017-.007a.122.122,0,0,0-.123-.063l-.02-.006a.2.2,0,0,0-.191-.073l-.01,0a.312.312,0,0,0-.271-.072h-.007a.726.726,0,0,0-.161-.058,4.178,4.178,0,0,0-.939,0,.725.725,0,0,0-.161.058l-.008,0a.318.318,0,0,0-.271.071l-.01,0a.2.2,0,0,0-.193.072l-.017.005a.127.127,0,0,0-.128.063l-.013,0a.123.123,0,0,0-.122.068l-.017.008a.06.06,0,0,0-.073.052l0,0a.124.124,0,0,0-.119.079l-.015.01a.06.06,0,0,0-.068.055.986.986,0,0,0-.288.282.067.067,0,0,0-.06.071l-.006.009a.059.059,0,0,0-.052.064l-.013.018a.127.127,0,0,0-.078.118l-.078.131a.079.079,0,0,0-.052.084l0,.011a.133.133,0,0,0-.066.13l0,.012a.136.136,0,0,0-.059.127l-.021.067a.141.141,0,0,0-.058.144.084.084,0,0,0-.015.063.145.145,0,0,0-.053.148l-.025.121a.072.072,0,0,0-.032.09,5.955,5.955,0,0,0-.02,2.664,1.392,1.392,0,0,0,.058.163l-.011.025.02.02.019.083a.136.136,0,0,0,.05.132.5.5,0,0,0,.08.22.135.135,0,0,0,.06.131.516.516,0,0,0,.117.224.033.033,0,0,0,.026.049l.008.015a.067.067,0,0,0,.053.077,1.04,1.04,0,0,0,.258.348c0,.025.008.037.033.036a.035.035,0,0,0,.031.031.036.036,0,0,0,.04.04.036.036,0,0,0,.031.031.036.036,0,0,0,.039.039.038.038,0,0,0,.034.031l.007.023H159a.358.358,0,0,0,.157.123.05.05,0,0,0,.058.044.026.026,0,0,0,.03.019.11.11,0,0,0,.11.066l.159.079a.126.126,0,0,0,.123.057l.075.021a.128.128,0,0,0,.137.052l.081.015a.332.332,0,0,0,.271.058,2.532,2.532,0,0,0,.781,0,.326.326,0,0,0,.269-.059l.083-.016a.127.127,0,0,0,.133-.052l.078-.023a.115.115,0,0,0,.116-.056l.024-.01a.114.114,0,0,0,.114-.061l.025-.013a.058.058,0,0,0,.068-.048l.078-.051h.028l.012-.025.026-.018a.053.053,0,0,0,.059-.049.946.946,0,0,0,.294-.292.057.057,0,0,0,.052-.063l.014-.021a.035.035,0,0,0,.033-.045l.047-.069a.065.065,0,0,0,.053-.076l.008-.016a.033.033,0,0,0,.027-.048.524.524,0,0,0,.117-.222.138.138,0,0,0,.062-.136l0-.012a.13.13,0,0,0,.052-.126l.022-.079a.133.133,0,0,0,.046-.132l.029-.141c.006-.005.018-.011.019-.016a.256.256,0,0,0-.006-.047.471.471,0,0,0,.054-.235l.064-.053h2.16c.07.124.011.228.021.33a.075.075,0,0,0-.03.092l-.036.2a.064.064,0,0,0-.03.085l-.031.141a.15.15,0,0,0-.049.141l-.031.125a.07.07,0,0,0-.039.087l-.021.073a.149.149,0,0,0-.057.138,6.713,6.713,0,0,1-.58,1.057.067.067,0,0,0-.057.072l-.009.013a.054.054,0,0,0-.049.058l-.017.022a.139.139,0,0,0-.089.109l-.35.348a.338.338,0,0,0-.191.154l-.012.009a.065.065,0,0,0-.071.056l0,0a.128.128,0,0,0-.114.077l-.023.013a.059.059,0,0,0-.068.049l-.007,0a.133.133,0,0,0-.121.073l-.018.008a.068.068,0,0,0-.08.05l-.137.072a.147.147,0,0,0-.144.069.09.09,0,0,0-.061.021.135.135,0,0,0-.132.059l-.012,0a.23.23,0,0,0-.193.07l-.018,0a.237.237,0,0,0-.2.064l-.014,0a.371.371,0,0,0-.267.068l-.015,0a.783.783,0,0,0-.138,0,5.694,5.694,0,0,1-1.245.1c-.289-.006-.578-.026-.867-.041h-.007a.542.542,0,0,0-.346-.067l-.009,0a.368.368,0,0,0-.272-.07l-.008,0a.229.229,0,0,0-.2-.065l-.01,0a.225.225,0,0,0-.2-.071l-.007,0a.133.133,0,0,0-.136-.061l-.014,0a.134.134,0,0,0-.127-.061l-.02-.007a.128.128,0,0,0-.121-.063l-.021-.008a.13.13,0,0,0-.121-.066l-.016-.007a.134.134,0,0,0-.124-.072l-.007,0a.135.135,0,0,0-.128-.078h0a.063.063,0,0,0-.075-.056l-.008,0a.058.058,0,0,0-.065-.05l-.022-.014a.135.135,0,0,0-.113-.083l-.08-.065a.065.065,0,0,0-.068-.058l-.011-.009a.056.056,0,0,0-.06-.054l-.018-.015a.053.053,0,0,0-.053-.052l-.019-.019a.051.051,0,0,0-.052-.051l-.019-.019a.051.051,0,0,0-.052-.052l-.019-.019a.051.051,0,0,0-.052-.052l-.017-.019a.057.057,0,0,0-.053-.058l-.011-.013a.062.062,0,0,0-.058-.065l-.006-.007a.071.071,0,0,0-.061-.073l-.062-.076a.147.147,0,0,0-.087-.121l-.007-.011a.068.068,0,0,0-.056-.075h0a.143.143,0,0,0-.079-.123l-.006-.012a.077.077,0,0,0-.054-.081l-.076-.133a.15.15,0,0,0-.073-.133l0-.006a.146.146,0,0,0-.068-.134l0-.006a.149.149,0,0,0-.065-.139l-.085-.214a.151.151,0,0,0-.057-.138v0a.157.157,0,0,0-.058-.157l-.029-.124a.08.08,0,0,0-.037-.094l-.04-.188a.074.074,0,0,0-.033-.09l-.046-.263c0-.011.013-.024.01-.032a.411.411,0,0,0-.034-.056c-.026-.4-.09-.789-.085-1.189a7.879,7.879,0,0,1,.132-1.429c.011-.057.012-.116.017-.174.026-.019.038-.041.017-.071a.411.411,0,0,0,.051-.214.145.145,0,0,0,.048-.142l.018-.078A.14.14,0,0,0,155.942-171.919Z" transform="translate(-35.854 188.675)" fill="#58585f"/><path d="M-128.108-163.08c-.006-.128-.019-.257-.019-.385q0-4.729,0-9.458c0-.128.012-.257.018-.384l1.863,0a1.269,1.269,0,0,1,.384.026q0,4.866,0,9.731c0,.141,0,.281,0,.421a.539.539,0,0,1-.338.045C-126.831-163.079-127.469-163.08-128.108-163.08Z" transform="translate(206.224 187.071)" fill="#58585f"/><path d="M-128.069-199.976l2.118,0a.071.071,0,0,0,.059.02q0,1.048.009,2.1a2.058,2.058,0,0,1-.207.02q-1.024,0-2.048,0c-.015-.706-.03-1.413.008-2.119A.078.078,0,0,0-128.069-199.976Z" transform="translate(206.247 209.823)" fill="#58585f"/><path d="M-637.98-229.97a6.909,6.909,0,0,0-.067-1.016.386.386,0,0,1,0-.105c.023-.362.03-.726.075-1.085a11.82,11.82,0,0,1,.648-2.618,15.5,15.5,0,0,1,1.066-2.293c.3-.52.6-1.036.936-1.529a29.437,29.437,0,0,1,1.876-2.458c.381-.446.776-.878,1.167-1.315.705-.788,1.459-1.527,2.227-2.251.547-.515,1.071-1.052,1.612-1.572a10.249,10.249,0,0,0,.927-1.056.372.372,0,0,0,.109-.215.133.133,0,0,0,.042-.05.449.449,0,0,0,.108-.084,5.993,5.993,0,0,0,.927-1.955,3.238,3.238,0,0,0-.844-3.108,6.125,6.125,0,0,0-1.654-1.232A13.99,13.99,0,0,0-631.675-255c-.756-.211-1.5-.473-2.231-.745-.582-.215-1.157-.447-1.739-.664a.61.61,0,0,1-.371-.294,2.848,2.848,0,0,0-1.522-1.567,4.353,4.353,0,0,0-1.879-.345,6.384,6.384,0,0,0-1.657.255.879.879,0,0,1-.275.01c-.331-.072-.668-.12-1-.184a6.822,6.822,0,0,0-1.326-.133c-.223,0-.446,0-.669,0a7.006,7.006,0,0,0-2.216.326,17.809,17.809,0,0,0-3.169,1.251,9.334,9.334,0,0,0-2.6,1.953,7.234,7.234,0,0,0-1.3,2.037,9.521,9.521,0,0,0-.63,2.3,14.217,14.217,0,0,0-.168,1.6c-.017.4-.075.791-.114,1.186,0,.035-.006.07-.009.105-.028.408-.05.817-.087,1.225-.03.337-.08.673-.117,1.009-.033.3-.057.605-.089.907-.023.221-.045.442-.082.661-.111.668-.213,1.339-.347,2a20.946,20.946,0,0,1-1.109,3.693c-.092.228-.193.453-.289.679a.554.554,0,0,1-.215-.226,19.452,19.452,0,0,1-1.769-3.353,18.226,18.226,0,0,1-.931-3.016c-.114-.514-.189-1.034-.269-1.554a19.96,19.96,0,0,1-.118-3.718,13.1,13.1,0,0,1,.178-1.567,18.581,18.581,0,0,1,.375-1.855,19.481,19.481,0,0,1,1.021-2.914,19.378,19.378,0,0,1,1.467-2.68c.311-.482.657-.941,1.014-1.392a18.634,18.634,0,0,1,1.818-1.958,18.414,18.414,0,0,1,2.684-2.1c.463-.3.945-.567,1.43-.829a17.326,17.326,0,0,1,2.678-1.154,16.779,16.779,0,0,1,2.86-.716c.579-.089,1.158-.158,1.741-.216a21.055,21.055,0,0,1,2.356-.042c.385.005.768.077,1.153.106s.766.095,1.148.156c.521.084,1.035.2,1.545.332a18.463,18.463,0,0,1,2.528.86,19.379,19.379,0,0,1,1.925.945,17.265,17.265,0,0,1,2,1.309c.364.276.717.566,1.066.861.5.425.96.9,1.419,1.366a15.7,15.7,0,0,1,1.457,1.758,18.1,18.1,0,0,1,1.717,2.86,18.57,18.57,0,0,1,1.493,4.45c.105.54.185,1.083.259,1.627a15.677,15.677,0,0,1,.091,2.175c0,.246,0,.493-.007.739a14.06,14.06,0,0,1-.132,1.537,18.323,18.323,0,0,1-.475,2.443,17.129,17.129,0,0,1-.8,2.359,18.747,18.747,0,0,1-1.983,3.6,18.721,18.721,0,0,1-1.385,1.726c-.284.313-.569.623-.873.916a19.4,19.4,0,0,1-3.422,2.63,18.47,18.47,0,0,1-4.44,1.929c-.517.15-1.045.261-1.569.386A.546.546,0,0,1-637.98-229.97Zm-1.775-35.01v-.008l-.17.011a7.656,7.656,0,0,0-1.284.16.457.457,0,0,0-.215.094.071.071,0,0,0-.016.059.073.073,0,0,0,.041.046.663.663,0,0,0,.1.013c.628.1,1.256.191,1.883.29a22.779,22.779,0,0,1,3.081.726c.945.288,1.885.595,2.813.937a8.562,8.562,0,0,1,2.276,1.218,10.861,10.861,0,0,1,2.083,2.053c.514.68,1.022,1.363,1.488,2.078a20.328,20.328,0,0,1,1.251,2.189,31.118,31.118,0,0,1,1.505,3.538c.243.708.476,1.419.665,2.143.152.581.3,1.163.449,1.744.011.043.025.1.083.081.023-.006.046-.045.054-.074a.624.624,0,0,0,.041-.2c-.016-.3.053-.587.031-.884a3.3,3.3,0,0,1,0-.748.963.963,0,0,0-.019-.373,8.545,8.545,0,0,1-.119-.98c-.036-.269-.078-.539-.135-.8-.072-.332-.159-.661-.245-.989a13.183,13.183,0,0,0-.835-2.3,16.348,16.348,0,0,0-1.193-2.064,14.962,14.962,0,0,0-9.421-7.423,10.88,10.88,0,0,0-2.154-.494,8.175,8.175,0,0,0-1.358-.08C-639.3-265.01-639.527-264.995-639.755-264.981Z" transform="translate(660.001 267.041)" fill="#58585f"/><path d="M-571.588-195.695a3.622,3.622,0,0,1,3.6,3.641,3.611,3.611,0,0,1-3.622,3.591,3.584,3.584,0,0,1-3.634-3.647A3.592,3.592,0,0,1-571.588-195.695Zm-2.571,3.651a2.524,2.524,0,0,0,2.548,2.542,2.546,2.546,0,0,0,2.548-2.55,2.534,2.534,0,0,0-2.556-2.541A2.512,2.512,0,0,0-574.16-192.043Z" transform="translate(587.688 206.172)" fill="#58585f"/><path d="M-516.5-133.775a2.079,2.079,0,0,1-.658.569,15.6,15.6,0,0,1-2.6,1.458,19.61,19.61,0,0,1-2.168.823,17.108,17.108,0,0,1-2.56.608,8.2,8.2,0,0,1-1.679.122,6.271,6.271,0,0,1-2.766-.71,3.542,3.542,0,0,1-.774-.546c-.058-.057-.124-.111-.112-.207l0,0a.722.722,0,0,1,.289.12,6.286,6.286,0,0,0,1.9.6c.244.04.488.047.732.07a5.3,5.3,0,0,0,.875.048c.559-.04,1.119-.056,1.679-.112a15.65,15.65,0,0,0,2.577-.5,18.9,18.9,0,0,0,2.515-.884c.365-.158.725-.329,1.084-.5a10.6,10.6,0,0,0,1.4-.809c.085-.058.156-.147.275-.142Z" transform="translate(548.94 153.343)" fill="#58585f"/><path d="M-465.932-151.062a.782.782,0,0,1-.782.785.776.776,0,0,1-.785-.814.79.79,0,0,1,.8-.769A.792.792,0,0,1-465.932-151.062Z" transform="translate(495.766 168.772)" fill="#58585f"/><path d="M-530.363-119.717a.53.53,0,0,1-.069-.006c-.01,0-.026-.015-.026-.021,0-.03.026-.042.051-.026a.239.239,0,0,1,.046.05Z" transform="translate(549.478 141.401)" fill="#58585f"/></svg>