<?xml version="1.0" encoding="UTF-8" standalone="no"?>
<svg
   xmlns:dc="http://purl.org/dc/elements/1.1/"
   xmlns:cc="http://creativecommons.org/ns#"
   xmlns:rdf="http://www.w3.org/1999/02/22-rdf-syntax-ns#"
   xmlns:svg="http://www.w3.org/2000/svg"
   xmlns="http://www.w3.org/2000/svg"
   xmlns:sodipodi="http://sodipodi.sourceforge.net/DTD/sodipodi-0.dtd"
   xmlns:inkscape="http://www.inkscape.org/namespaces/inkscape"
   width="1577.076"
   height="194.663"
   viewBox="0 0 1577.076 194.663"
   version="1.1"
   id="svg855"
   sodipodi:docname="Indodax.svg"
   inkscape:version="0.92.4 (5da689c313, 2019-01-14)">
  <metadata
     id="metadata861">
    <rdf:RDF>
      <cc:Work
         rdf:about="">
        <dc:format>image/svg+xml</dc:format>
        <dc:type
           rdf:resource="http://purl.org/dc/dcmitype/StillImage" />
        <dc:title></dc:title>
      </cc:Work>
    </rdf:RDF>
  </metadata>
  <defs
     id="defs859" />
  <sodipodi:namedview
     pagecolor="#ffffff"
     bordercolor="#666666"
     borderopacity="1"
     objecttolerance="10"
     gridtolerance="10"
     guidetolerance="10"
     inkscape:pageopacity="0"
     inkscape:pageshadow="2"
     inkscape:window-width="1920"
     inkscape:window-height="1017"
     id="namedview857"
     showgrid="false"
     inkscape:zoom="0.84206466"
     inkscape:cx="788.53802"
     inkscape:cy="97.331497"
     inkscape:window-x="-8"
     inkscape:window-y="-8"
     inkscape:window-maximized="1"
     inkscape:current-layer="Gruppe_20" />
  <g
     id="Gruppe_20"
     data-name="Gruppe 20"
     transform="translate(-172.549 -98.551)">
    <g
       id="Gruppe_19"
       data-name="Gruppe 19">
      <g
         id="Gruppe_16"
         data-name="Gruppe 16">
        <path
           id="Pfad_90"
           data-name="Pfad 90"
           d="M1538.262,254.433a10.5,10.5,0,0,0,20.951,1.021l51.532-51.769h46.32l55.774-56.025a10.5,10.5,0,1,0-11.289-10.634l-51.3,51.054h-45.6L1548.8,243.934h-.033A10.5,10.5,0,0,0,1538.262,254.433Z"
           fill="#0084b5"
           style="fill:#58585f;fill-opacity:1" />
        <path
           id="Pfad_91"
           data-name="Pfad 91"
           d="M1712.761,98.551l-70.232,70.23H1591.91L1559.2,136.556c0-.072.011-.141.011-.213a10.5,10.5,0,1,0-11.716,10.425l37.616,37.618h63.5l64.139-63.911,16.3,16.3-72.852,72.61,45.477,45.731a10.493,10.493,0,1,0,10.83-11.1l-34.382-34.386,71.5-71.488v-2.729Z"
           fill="#0084b5"
           style="fill:#58585f;fill-opacity:1" />
      </g>
      <g
         id="Gruppe_17"
         data-name="Gruppe 17">
        <path
           id="Pfad_92"
           data-name="Pfad 92"
           d="M172.549,107.488v178h54.2v-178Zm38.6,162.536h-23V122.946h23Z"
           fill="#0084b5"
           fill-rule="evenodd"
           style="fill:#58585f;fill-opacity:1" />
        <path
           id="Pfad_93"
           data-name="Pfad 93"
           d="M189.151,257.791a10.5,10.5,0,0,0,21,0,10.3,10.3,0,0,0-2.7-6.949V142.135a10.3,10.3,0,0,0,2.7-6.949,10.5,10.5,0,0,0-21,0,10.3,10.3,0,0,0,2.694,6.941V250.85A10.3,10.3,0,0,0,189.151,257.791Z"
           fill="#0084b5"
           fill-rule="evenodd"
           style="fill:#58585f;fill-opacity:1" />
      </g>
      <path
         id="Pfad_94"
         data-name="Pfad 94"
         d="M501.347,118.452a10.5,10.5,0,0,0-21,0,10.3,10.3,0,0,0,2.7,6.948V270.025H431.762L306.073,145.734H287.631V270.025H264.638V122.946h51.277L441.6,247.24h18.443V122.946h3.7V250.908H439.967l-125.448-124.3h-46.19V250.849a10.3,10.3,0,0,0-2.7,6.944,10.5,10.5,0,0,0,21,0,10.3,10.3,0,0,0-2.7-6.947V142.072h23.776L433.162,266.361h46.187V107.488h-34.9V228.8l-122.2-121.311H249.032v178h54.205V164.175l122.2,121.313h73.209V125.4A10.3,10.3,0,0,0,501.347,118.452Z"
         fill="#0084b5"
         fill-rule="evenodd"
         style="fill:#58585f;fill-opacity:1" />
      <path
         id="Pfad_95"
         data-name="Pfad 95"
         d="M998.827,162.19,943.45,107.551H824.126l-52.864,53-.005,77.147,51.652,47.85H940.331l37.992-54.964.058-60.1-43.433-42.75-102.456-.2L791.534,170.5l1.371,59.641,39.6,35.562,97.3-.156,28.06-43.368.042-43.367-31.479-30.979-85.526-.183-27.976,31.228,1.811,43.1L841.7,246.351l63.91-.484a10.554,10.554,0,0,0,6.9,2.559,10.317,10.317,0,1,0,.019-20.63,10.544,10.544,0,0,0-8.154,3.81l-56.056.471L830.29,215.446l-.94-30.257,18.558-21.477,71.754.163,21.9,21.556-.032,32.648-21.393,31.554-80.358.6-30-26.658-1.838-46.626L839.4,143.6l88.769.181,33.844,33.309-.727,46.347-28.832,45.147-102.153,1.6L787.539,230.9l.061-63.7,43.287-43.67,105.75.2,45.839,45.071-1.383,63.11-21.157,31.994a10.36,10.36,0,1,0,14.523,9.54,4.081,4.081,0,0,0-.016-.6l24.384-37.27Z"
         fill="#0084b5"
         fill-rule="evenodd"
         style="fill:#58585f;fill-opacity:1" />
      <path
         id="Pfad_96"
         data-name="Pfad 96"
         d="M1246.8,134.057c-1.407-5.971-3.979-11.626-8.394-16.008s-10.121-6.931-16.143-8.326c-7.822-1.809-16.434-2.235-24.444-2.235H1021.143V285.674h34.9V142.11h141.772a64.382,64.382,0,0,1,9.677.561,7.764,7.764,0,0,1,4.264,1.8,7.609,7.609,0,0,1,1.815,4.228,63.185,63.185,0,0,1,.569,9.6v76.565a63.232,63.232,0,0,1-.569,9.6,7.652,7.652,0,0,1-1.812,4.228,7.8,7.8,0,0,1-4.267,1.8,64.386,64.386,0,0,1-9.677.564H1075.343v-89.8h112.83c1.108,0,4.86.066,6.068.6.533,1.2.6,4.92.6,6.019v57.422a40.338,40.338,0,0,1-.216,4.9,2.687,2.687,0,0,1-.353,1.144,2.734,2.734,0,0,1-1.16.356,41.116,41.116,0,0,1-4.937.216h-93.466a10.416,10.416,0,1,0,0,15.477h103.11c8.087,0,12.631-4.5,12.631-12.524V158.3c0-8.016-4.55-12.525-12.631-12.525H1059.747V266.528h138.069a82.536,82.536,0,0,0,15.16-1.134,19.8,19.8,0,0,0,10.472-5.114,19.409,19.409,0,0,0,5.158-10.249,79.975,79.975,0,0,0,1.14-15.168V158.3a80.477,80.477,0,0,0-1.137-15.031,19.546,19.546,0,0,0-5.161-10.387,19.786,19.786,0,0,0-10.475-5.116,82.939,82.939,0,0,0-15.157-1.128H1040.445V270.194h-3.7V122.967h161.071a94.123,94.123,0,0,1,18.692,1.494,20.2,20.2,0,0,1,10.326,5.063,19.967,19.967,0,0,1,5.1,10.241,91.4,91.4,0,0,1,1.506,18.533v76.565a91.439,91.439,0,0,1-1.506,18.536,19.972,19.972,0,0,1-5.1,10.248,20.236,20.236,0,0,1-10.328,5.057,94.106,94.106,0,0,1-18.69,1.49H1075.407a10.415,10.415,0,1,0,0,15.48h122.412c8,0,16.576-.392,24.41-2.105,6.044-1.322,11.753-3.831,16.177-8.217,4.443-4.407,7-10.13,8.4-16.136,1.814-7.806,2.244-16.364,2.244-24.353V158.3C1249.045,150.357,1248.624,141.812,1246.8,134.057Z"
         fill="#0084b5"
         fill-rule="evenodd"
         style="fill:#58585f;fill-opacity:1" />
      <g
         id="Gruppe_18"
         data-name="Gruppe 18">
        <path
           id="Pfad_97"
           data-name="Pfad 97"
           d="M1497.11,134.024c-1.407-5.967-3.979-11.611-8.4-15.991s-10.12-6.924-16.14-8.319c-7.819-1.808-16.433-2.226-24.438-2.226H1322.679c-8.053,0-16.678.428-24.546,2.225-6.056,1.385-11.83,3.916-16.271,8.32-4.421,4.384-6.948,10.041-8.281,16.026-1.732,7.76-2.122,16.255-2.122,24.183V285.488h54.2V237.68h138.8v13.164a10.3,10.3,0,0,0-2.7,6.947,10.5,10.5,0,0,0,21,0,10.3,10.3,0,0,0-2.695-6.942V222.222h-170v47.8h-23V158.242a91.62,91.62,0,0,1,1.5-18.511,19.961,19.961,0,0,1,5.1-10.236,20.256,20.256,0,0,1,10.329-5.053,94.137,94.137,0,0,1,18.684-1.5h125.455a94.167,94.167,0,0,1,18.687,1.5,20.237,20.237,0,0,1,10.329,5.053,19.954,19.954,0,0,1,5.1,10.234,91.635,91.635,0,0,1,1.5,18.513V270.024h-22.994V241.341H1345.012a10.4,10.4,0,1,0,0,15.463h100.141v28.684h54.2V158.242C1499.361,150.31,1498.939,141.769,1497.11,134.024Z"
           fill="#0084b5"
           fill-rule="evenodd"
           style="fill:#58585f;fill-opacity:1" />
        <path
           id="Pfad_98"
           data-name="Pfad 98"
           d="M1448.134,145.732H1322.679c-8.082,0-12.622,4.5-12.622,12.51v60.317h170V158.242a80.523,80.523,0,0,0-1.139-15.013,19.487,19.487,0,0,0-5.165-10.378,19.736,19.736,0,0,0-10.471-5.112,83.061,83.061,0,0,0-15.152-1.127H1322.679a82.5,82.5,0,0,0-15.28,1.129,18.1,18.1,0,0,0-15.505,15.486,80.3,80.3,0,0,0-1.139,15.015v92.607a10.3,10.3,0,0,0-2.695,6.942,10.5,10.5,0,0,0,21,0,10.3,10.3,0,0,0-2.7-6.945v-92.6a62.92,62.92,0,0,1,.565-9.584,7.611,7.611,0,0,1,1.817-4.223,7.769,7.769,0,0,1,4.264-1.8,64.831,64.831,0,0,1,9.671-.561h125.455a64.9,64.9,0,0,1,9.674.561,7.784,7.784,0,0,1,4.267,1.8,7.65,7.65,0,0,1,1.812,4.225,62.631,62.631,0,0,1,.567,9.582V203.1h-138.8V167.807a39.579,39.579,0,0,1,.219-4.894,2.686,2.686,0,0,1,.362-1.149,2.773,2.773,0,0,1,1.159-.357,41.089,41.089,0,0,1,4.937-.215h106.15c1.111,0,4.863.066,6.071.6.535,1.2.6,4.916.6,6.017v16.11a10.3,10.3,0,0,0-2.7,6.949,10.5,10.5,0,0,0,21,0,10.3,10.3,0,0,0-2.7-6.947V158.242C1460.759,150.235,1456.213,145.732,1448.134,145.732Z"
           fill="#0084b5"
           fill-rule="evenodd"
           style="fill:#58585f;fill-opacity:1" />
      </g>
      <path
         id="Pfad_99"
         data-name="Pfad 99"
         d="M746.726,134.458c-1.409-5.968-3.977-11.626-8.392-16.006s-10.123-6.931-16.143-8.326c-7.818-1.813-16.434-2.231-24.44-2.231H521.073V286.081h34.9V142.516H697.751a64.3,64.3,0,0,1,9.671.561,7.782,7.782,0,0,1,4.265,1.8,7.651,7.651,0,0,1,1.818,4.229,62.918,62.918,0,0,1,.568,9.6v76.566a62.957,62.957,0,0,1-.568,9.6,7.66,7.66,0,0,1-1.817,4.23,7.8,7.8,0,0,1-4.266,1.8,64.576,64.576,0,0,1-9.671.564H575.279V161.654H688.1c1.111,0,4.864.067,6.07.6.537,1.2.6,4.922.6,6.023V225.7a39.887,39.887,0,0,1-.219,4.9,2.679,2.679,0,0,1-.359,1.148,2.787,2.787,0,0,1-1.158.351,40.91,40.91,0,0,1-4.939.216H594.638a10.415,10.415,0,1,0,0,15.476H697.751c8.087,0,12.627-4.5,12.627-12.524V158.7c0-8.014-4.547-12.523-12.627-12.523H559.672V266.937H697.751a82.649,82.649,0,0,0,15.155-1.132,19.816,19.816,0,0,0,10.47-5.119,19.383,19.383,0,0,0,5.16-10.25,80.238,80.238,0,0,0,1.139-15.168V158.7a80.7,80.7,0,0,0-1.136-15.03,19.537,19.537,0,0,0-5.163-10.389,19.782,19.782,0,0,0-10.473-5.117,82.972,82.972,0,0,0-15.152-1.127H540.37V270.6h-3.693V123.369H697.751a94.023,94.023,0,0,1,18.688,1.5,20.231,20.231,0,0,1,10.327,5.061,19.964,19.964,0,0,1,5.1,10.243,91.613,91.613,0,0,1,1.506,18.532v76.566a91.651,91.651,0,0,1-1.506,18.537,19.97,19.97,0,0,1-5.1,10.249,20.249,20.249,0,0,1-10.326,5.057,94.075,94.075,0,0,1-18.687,1.49H575.336a10.415,10.415,0,1,0,0,15.48H697.751c8,0,16.573-.392,24.4-2.1,6.042-1.323,11.756-3.831,16.179-8.217,4.442-4.408,7-10.132,8.4-16.136,1.817-7.806,2.249-16.363,2.249-24.355V158.7C748.978,150.76,748.556,142.214,746.726,134.458Z"
         fill="#0084b5"
         fill-rule="evenodd"
         style="fill:#58585f;fill-opacity:1" />
    </g>
    <path
       id="Pfad_100"
       data-name="Pfad 100"
       d="M1705.539,209.542a10.5,10.5,0,1,0-10.689,11.482l34.2,33.971-16.291,16.293-64.142-63.907h-36l-63.9,63.9-16.294-16.294,66.9-66.91-15.593.005-51.309-51.308,16.288-16.291,33.851,34.063a10.43,10.43,0,1,0,11.273-10.878l-45.118-45.12-38.228,38.226,59.111,59.1-59.111,59.11,38.228,38.224,70.232-70.227h23.586l70.232,70.227,36.864-36.861v-2.727Z"
       fill="#0084b5"
       fill-rule="evenodd"
       style="fill:#58585f;fill-opacity:1" />
  </g>
</svg>
