<svg xmlns="http://www.w3.org/2000/svg" width="154.02" height="26.157" viewBox="0 0 154.02 26.157"><path d="M-967.463,865.626v4.287h20.606c0,4.1.414,8.095-.206,11.922-.244,1.505-2.756,3.7-4.314,3.766-8.432.364-16.889.16-25.337.146a2.216,2.216,0,0,1-.5-.163v-5.417h20.773v-4.8h-20.918c0-4.034-.4-7.962.2-11.734.235-1.479,2.657-3.665,4.158-3.726,8.693-.356,17.409-.174,26.265-.174v5.9Z" transform="translate(977.494 -859.66)" fill="#58585f"/><path d="M-782.38,885.848V860h28.572v5.789h-20.339v4.471h19.095v5.221h-19.164v4.374h20.411v6Z" transform="translate(861.706 -859.846)" fill="#58585f"/><path d="M-665.855,872.829l13.078,12.9c-3.97,0-7.365.042-10.756-.048-.479-.013-.994-.622-1.4-1.041-2.11-2.167-4.19-4.362-5.95-6.2-2.369,2.109-4.621,4.2-6.986,6.164a4.729,4.729,0,0,1-2.586,1.1c-2.966.135-5.942.051-9.4.051l12.687-12.884-12.227-13.178c3.688,0,6.894-.043,10.1.045.488.013,1.037.56,1.426.98,2.1,2.265,4.162,4.568,6.37,7,2.006-2.215,4.011-4.281,5.831-6.5a4.015,4.015,0,0,1,3.641-1.581c2.624.114,5.256.031,8.509.031Z" transform="translate(806.797 -859.626)" fill="#58585f"/><path d="M-869.041,865.967h-11.307v-5.945h30.612v5.827h-11.049v19.987h-8.256Z" transform="translate(919.843 -859.861)" fill="#58585f"/></svg>