<svg xmlns="http://www.w3.org/2000/svg" width="113.774" height="142.464" viewBox="0 0 113.774 142.464"><g transform="translate(-2828.484 13898.273)"><path d="M209.962-61.4a38.181,38.181,0,0,0-38.138,38.138,37.826,37.826,0,0,0,6.137,20.73c9.907,17.541,12.009,29.032,12.457,32.981a5.2,5.2,0,0,0-2.969,4.679v3.248a5.118,5.118,0,0,0,1,3.049,5.173,5.173,0,0,0-.867,2.873v3.251a5.2,5.2,0,0,0,5.2,5.2h.741v3.55a4.37,4.37,0,0,0,4.317,4.414h2.165l4.706,5.227a2.24,2.24,0,0,0,1.664.741h7.173a2.24,2.24,0,0,0,1.664-.741l4.7-5.227h2.165a4.373,4.373,0,0,0,4.321-4.414v-3.55h.87a5.2,5.2,0,0,0,5.2-5.2V44.3a5.185,5.185,0,0,0-.993-3.055,5.175,5.175,0,0,0,.863-2.866V35.126a5.194,5.194,0,0,0-2.853-4.616c.412-3.866,2.438-15.283,12.394-32.918A37.986,37.986,0,0,0,248.1-23.264,38.18,38.18,0,0,0,209.962-61.4ZM222.081,56.231h-3.162a2.24,2.24,0,0,0-1.664.741l-4.7,5.227h-5.181l-4.706-5.227A2.24,2.24,0,0,0,201,56.231l-3,.063-.159-3.55h24.084ZM228,47.546a.721.721,0,0,1-.724.721H192.783a.721.721,0,0,1-.724-.721V44.3a.721.721,0,0,1,.724-.721,2.239,2.239,0,0,0,2.238-2.238A2.274,2.274,0,0,0,192.7,39.1a.747.747,0,0,1-.777-.724V35.126a.726.726,0,0,1,.724-.724h34.492a.726.726,0,0,1,.724.724v3.248a.726.726,0,0,1-.724.724,2.235,2.235,0,0,0-2.238,2.238,2.269,2.269,0,0,0,2.368,2.238A.721.721,0,0,1,228,44.3ZM238.065-4.736c-10.109,17.9-12.454,29.793-13,34.492H212.2V16.96l6.147-8.16a2.237,2.237,0,1,0-3.573-2.693l-4.812,6.386-4.815-6.386A2.237,2.237,0,1,0,201.573,8.8l6.15,8.16v12.8H194.855c-.548-4.706-2.906-16.625-13.071-34.618a33.513,33.513,0,0,1-5.483-18.4,33.7,33.7,0,0,1,33.662-33.662A33.7,33.7,0,0,1,243.62-23.264,33.681,33.681,0,0,1,238.065-4.736Z" transform="translate(2675.41 -13822.484)" fill="#09f"/><path d="M188.781-50.961a2.233,2.233,0,0,0-3.165,0l-7.143,7.14a2.239,2.239,0,0,0,0,3.165l7.143,7.14a2.223,2.223,0,0,0,1.581.658,2.23,2.23,0,0,0,1.584-.658,2.239,2.239,0,0,0,0-3.165l-5.559-5.559,5.559-5.556A2.239,2.239,0,0,0,188.781-50.961Z" transform="translate(2689.322 -13799.778)" fill="#09f"/><path d="M189.121-50.961a2.233,2.233,0,0,0-3.165,0,2.233,2.233,0,0,0,0,3.165l5.556,5.556-5.556,5.559a2.233,2.233,0,0,0,0,3.165,2.223,2.223,0,0,0,1.581.658,2.23,2.23,0,0,0,1.584-.658l7.14-7.14a2.239,2.239,0,0,0,0-3.165Z" transform="translate(2706.686 -13799.778)" fill="#09f"/><path d="M184.872-53.546a2.237,2.237,0,0,0,2.238-2.238V-63.5a2.239,2.239,0,0,0-2.238-2.238,2.237,2.237,0,0,0-2.238,2.238v7.711A2.235,2.235,0,0,0,184.872-53.546Z" transform="translate(2700.5 -13832.539)" fill="#09f"/><path d="M190.877-53.014a2.245,2.245,0,0,0,1.119.3,2.237,2.237,0,0,0,1.939-1.119l3.66-6.336a2.238,2.238,0,0,0-.82-3.059,2.235,2.235,0,0,0-3.055.82l-3.66,6.336A2.24,2.24,0,0,0,190.877-53.014Z" transform="translate(2717.039 -13827.422)" fill="#09f"/><path d="M197.189-49.315a2.234,2.234,0,0,0,1.116-.3l6.433-3.713a2.241,2.241,0,0,0,.817-3.059,2.239,2.239,0,0,0-3.059-.82l-6.429,3.713a2.238,2.238,0,0,0-.817,3.059A2.233,2.233,0,0,0,197.189-49.315Z" transform="translate(2729.082 -13813.442)" fill="#09f"/><path d="M207.81-49.278h-9.276A2.239,2.239,0,0,0,196.3-47.04a2.239,2.239,0,0,0,2.238,2.238h9.276a2.239,2.239,0,0,0,2.238-2.238A2.239,2.239,0,0,0,207.81-49.278Z" transform="translate(2732.21 -13794.345)" fill="#09f"/><path d="M206.732-37l-9.285-5.36a2.236,2.236,0,0,0-3.055.82,2.238,2.238,0,0,0,.817,3.059l9.282,5.36a2.245,2.245,0,0,0,1.119.3,2.237,2.237,0,0,0,1.939-1.119A2.24,2.24,0,0,0,206.732-37Z" transform="translate(2727.088 -13778.994)" fill="#09f"/><path d="M194.368-35.067a2.238,2.238,0,0,0-3.055-.82,2.239,2.239,0,0,0-.82,3.059l2.222,3.849a2.233,2.233,0,0,0,1.939,1.119,2.233,2.233,0,0,0,1.116-.3,2.239,2.239,0,0,0,.82-3.059Z" transform="translate(2718.044 -13763.958)" fill="#09f"/><path d="M178.366-53.834a2.241,2.241,0,0,0,1.939,1.119,2.236,2.236,0,0,0,1.119-.3,2.241,2.241,0,0,0,.82-3.059l-3.66-6.336a2.239,2.239,0,0,0-3.059-.82,2.239,2.239,0,0,0-.82,3.059Z" transform="translate(2681.402 -13827.422)" fill="#09f"/><path d="M169.5-53.327l6.429,3.713a2.236,2.236,0,0,0,1.119.3,2.241,2.241,0,0,0,1.939-1.119,2.241,2.241,0,0,0-.82-3.059l-6.429-3.713a2.238,2.238,0,0,0-3.059.82A2.239,2.239,0,0,0,169.5-53.327Z" transform="translate(2667.423 -13813.442)" fill="#09f"/><path d="M179.93-47.04a2.237,2.237,0,0,0-2.238-2.238h-9.276a2.239,2.239,0,0,0-2.238,2.238,2.239,2.239,0,0,0,2.238,2.238h9.276A2.237,2.237,0,0,0,179.93-47.04Z" transform="translate(2662.306 -13794.345)" fill="#09f"/><path d="M178.785-42.364,169.5-37a2.238,2.238,0,0,0-.82,3.059,2.237,2.237,0,0,0,1.939,1.119,2.236,2.236,0,0,0,1.119-.3l9.282-5.36a2.242,2.242,0,0,0,.82-3.059A2.239,2.239,0,0,0,178.785-42.364Z" transform="translate(2667.423 -13778.994)" fill="#09f"/><path d="M179.986-35.884a2.235,2.235,0,0,0-3.059.817l-2.222,3.849a2.235,2.235,0,0,0,.82,3.055,2.2,2.2,0,0,0,1.116.3,2.243,2.243,0,0,0,1.943-1.119l2.222-3.849A2.238,2.238,0,0,0,179.986-35.884Z" transform="translate(2681.402 -13763.959)" fill="#09f"/></g></svg>