<svg xmlns="http://www.w3.org/2000/svg" width="141.023" height="151.26" viewBox="0 0 141.023 151.26"><g transform="translate(-2579.159 13909.345)"><path d="M223.9-34.756V-56.092a12.562,12.562,0,0,0-12.545-12.545H158.406a2.572,2.572,0,0,0-2.571,2.571,2.569,2.569,0,0,0,2.571,2.571h52.948a7.413,7.413,0,0,1,7.4,7.4V-9.739a7.413,7.413,0,0,1-7.4,7.4H182.195a2.573,2.573,0,0,0-1.9.835l-8.978,9.814L162.342-1.5a2.587,2.587,0,0,0-1.9-.835H131.284a7.41,7.41,0,0,1-7.4-7.4V-56.092a7.41,7.41,0,0,1,7.4-7.4h11.553a2.569,2.569,0,0,0,2.571-2.571,2.572,2.572,0,0,0-2.571-2.571H131.284a12.558,12.558,0,0,0-12.541,12.545v21.336a70.241,70.241,0,0,0-17.934,46.876l.011.061a70.577,70.577,0,0,0,70.5,70.443h0a70.583,70.583,0,0,0,70.5-70.443l.011-.061A70.253,70.253,0,0,0,223.9-34.756ZM171.321,77.482h0c-10.824,0-20.52-13.281-25.8-32.607a138.2,138.2,0,0,0,25.8,2.38,138.153,138.153,0,0,0,25.8-2.38C191.841,64.2,182.141,77.482,171.321,77.482Zm0-35.368a128.92,128.92,0,0,1-27.176-2.853,127.9,127.9,0,0,1-2.792-24.571h59.935a128.2,128.2,0,0,1-2.8,24.571A128.883,128.883,0,0,1,171.321,42.114ZM136.25,14.69A137.006,137.006,0,0,0,138.561,37.9c-17.77-4.859-30.448-13.437-32.355-23.209Zm70.142,0h30.04c-1.907,9.772-14.585,18.35-32.355,23.209A136.993,136.993,0,0,0,206.391,14.69ZM234.566-4.19A47,47,0,0,0,223.9-12.371V-26.624A65.149,65.149,0,0,1,234.566-4.19Zm-11.1-2.46c7.453,4.775,11.946,10.382,12.972,16.2H207.906q-.069-3.324-.3-6.743h3.749A12.531,12.531,0,0,0,223.467-6.65Zm-40.14,9.455h19.124q.246,3.421.313,6.743H177.156ZM165.481,9.549h-25.6q.069-3.324.309-6.743h19.128Zm-34.2-6.743h3.753q-.235,3.421-.3,6.743H106.2c1.03-5.817,5.519-11.423,12.972-16.2A12.534,12.534,0,0,0,131.284,2.805ZM118.743-26.621v14.246a47.029,47.029,0,0,0-10.668,8.181A64.975,64.975,0,0,1,118.743-26.621ZM107.8,27.521c6.736,7.033,17.976,12.69,32.012,16.111C143.214,57.6,148.833,68.8,155.82,75.548A65.525,65.525,0,0,1,107.8,27.521Zm79.021,48.027C193.8,68.8,199.423,57.6,202.829,43.632c14.036-3.421,25.276-9.078,32.012-16.111A65.525,65.525,0,0,1,186.817,75.548Z" transform="translate(2478.35 -13840.708)" fill="#09f"/><path d="M111-62.017a2.572,2.572,0,0,0,2.571,2.571h4.112a2.572,2.572,0,0,0,2.571-2.571,2.569,2.569,0,0,0-2.571-2.571h-4.112A2.569,2.569,0,0,0,111-62.017Z" transform="translate(2507.017 -13829.313)" fill="#09f"/><path d="M119.883-59.447h9.989a2.572,2.572,0,0,0,2.571-2.571,2.569,2.569,0,0,0-2.571-2.571h-9.989a2.569,2.569,0,0,0-2.571,2.571A2.572,2.572,0,0,0,119.883-59.447Z" transform="translate(2524.791 -13829.313)" fill="#09f"/><path d="M127.74-59.447h4.115a2.572,2.572,0,0,0,2.571-2.571,2.569,2.569,0,0,0-2.571-2.571H127.74a2.569,2.569,0,0,0-2.571,2.571A2.572,2.572,0,0,0,127.74-59.447Z" transform="translate(2546.902 -13829.313)" fill="#09f"/><path d="M117.678-60.278h-4.112A2.572,2.572,0,0,0,111-57.707a2.572,2.572,0,0,0,2.571,2.571h4.112a2.572,2.572,0,0,0,2.571-2.571A2.572,2.572,0,0,0,117.678-60.278Z" transform="translate(2507.017 -13817.185)" fill="#09f"/><path d="M119.883-55.137h9.989a2.572,2.572,0,0,0,2.571-2.571,2.572,2.572,0,0,0-2.571-2.571h-9.989a2.572,2.572,0,0,0-2.571,2.571A2.572,2.572,0,0,0,119.883-55.137Z" transform="translate(2524.791 -13817.185)" fill="#09f"/><path d="M127.74-55.137h4.115a2.572,2.572,0,0,0,2.571-2.571,2.572,2.572,0,0,0-2.571-2.571H127.74a2.572,2.572,0,0,0-2.571,2.571A2.572,2.572,0,0,0,127.74-55.137Z" transform="translate(2546.902 -13817.185)" fill="#09f"/><path d="M115.826-64.645a2.564,2.564,0,0,0-3.635,0L109.1-61.552a2.568,2.568,0,0,0,0,3.635l3.1,3.1a2.551,2.551,0,0,0,1.819.751,2.555,2.555,0,0,0,1.816-.751,2.571,2.571,0,0,0,0-3.635l-1.278-1.278,1.278-1.278A2.571,2.571,0,0,0,115.826-64.645Z" transform="translate(2499.548 -13831.599)" fill="#09f"/><path d="M115.825-60.337a2.571,2.571,0,0,0-3.635,0L109.1-57.244a2.569,2.569,0,0,0,0,3.639l3.093,3.093a2.558,2.558,0,0,0,1.819.751,2.555,2.555,0,0,0,1.816-.751,2.571,2.571,0,0,0,0-3.635l-1.278-1.278,1.278-1.278A2.571,2.571,0,0,0,115.825-60.337Z" transform="translate(2499.549 -13819.468)" fill="#09f"/><path d="M128.762-54.82a2.555,2.555,0,0,0,1.816.751,2.551,2.551,0,0,0,1.819-.751l3.1-3.1a2.568,2.568,0,0,0,0-3.635L132.4-64.645a2.565,2.565,0,0,0-3.635,0,2.571,2.571,0,0,0,0,3.635l1.278,1.278-1.278,1.278A2.571,2.571,0,0,0,128.762-54.82Z" transform="translate(2554.896 -13831.599)" fill="#09f"/><path d="M128.762-50.512a2.555,2.555,0,0,0,1.816.751,2.558,2.558,0,0,0,1.819-.751L135.49-53.6a2.569,2.569,0,0,0,0-3.639L132.4-60.337a2.571,2.571,0,0,0-3.635,0,2.571,2.571,0,0,0,0,3.635l1.278,1.278-1.278,1.278A2.571,2.571,0,0,0,128.762-50.512Z" transform="translate(2554.896 -13819.468)" fill="#09f"/><path d="M117.678-55.964h-4.112A2.569,2.569,0,0,0,111-53.393a2.572,2.572,0,0,0,2.571,2.571h4.112a2.572,2.572,0,0,0,2.571-2.571A2.569,2.569,0,0,0,117.678-55.964Z" transform="translate(2507.017 -13805.045)" fill="#09f"/><path d="M119.883-50.823h9.989a2.572,2.572,0,0,0,2.571-2.571,2.569,2.569,0,0,0-2.571-2.571h-9.989a2.569,2.569,0,0,0-2.571,2.571A2.572,2.572,0,0,0,119.883-50.823Z" transform="translate(2524.791 -13805.045)" fill="#09f"/><path d="M127.74-50.823h4.115a2.572,2.572,0,0,0,2.571-2.571,2.569,2.569,0,0,0-2.571-2.571H127.74a2.569,2.569,0,0,0-2.571,2.571A2.572,2.572,0,0,0,127.74-50.823Z" transform="translate(2546.902 -13805.045)" fill="#09f"/><path d="M115.825-56.021a2.564,2.564,0,0,0-3.635,0L109.1-52.928a2.564,2.564,0,0,0,0,3.635l3.093,3.1a2.574,2.574,0,0,0,1.819.751,2.571,2.571,0,0,0,1.816-.751,2.571,2.571,0,0,0,0-3.635l-1.278-1.278,1.278-1.278A2.571,2.571,0,0,0,115.825-56.021Z" transform="translate(2499.549 -13807.33)" fill="#09f"/><path d="M128.762-46.2a2.571,2.571,0,0,0,1.816.751A2.574,2.574,0,0,0,132.4-46.2l3.093-3.1a2.564,2.564,0,0,0,0-3.635L132.4-56.021a2.565,2.565,0,0,0-3.635,0,2.571,2.571,0,0,0,0,3.635l1.278,1.278-1.278,1.278A2.571,2.571,0,0,0,128.762-46.2Z" transform="translate(2554.896 -13807.33)" fill="#09f"/></g></svg>