<svg xmlns="http://www.w3.org/2000/svg" width="155.856" height="115.312" viewBox="0 0 155.856 115.312"><g transform="translate(-2340.685 13897.765)"><path d="M185.247-65.6H47.18a8.906,8.906,0,0,0-8.895,8.895V40.817a8.9,8.9,0,0,0,8.895,8.895H185.247a8.9,8.9,0,0,0,8.895-8.895V-56.706A8.906,8.906,0,0,0,185.247-65.6ZM189,40.817a3.755,3.755,0,0,1-3.753,3.753H47.18a3.758,3.758,0,0,1-3.753-3.753v-79.8H172.584a2.572,2.572,0,0,0,2.571-2.571,2.572,2.572,0,0,0-2.571-2.571H43.426V-56.706a3.757,3.757,0,0,1,3.753-3.749H185.247A3.754,3.754,0,0,1,189-56.706Z" transform="translate(2302.4 -13832.164)" fill="#09f"/><path d="M87.33-62.808h-28.9a2.572,2.572,0,0,0-2.571,2.571,2.572,2.572,0,0,0,2.571,2.571h28.9A2.572,2.572,0,0,0,89.9-60.237,2.572,2.572,0,0,0,87.33-62.808Z" transform="translate(2351.869 -13824.305)" fill="#09f"/><path d="M45.171-63.01a3.343,3.343,0,0,0-3.341,3.341,3.343,3.343,0,0,0,3.341,3.341,3.34,3.34,0,0,0,3.341-3.341A3.34,3.34,0,0,0,45.171-63.01Z" transform="translate(2312.376 -13824.873)" fill="#09f"/><path d="M48.468-63.01a3.34,3.34,0,0,0-3.341,3.341,3.34,3.34,0,0,0,3.341,3.341,3.343,3.343,0,0,0,3.341-3.341A3.343,3.343,0,0,0,48.468-63.01Z" transform="translate(2321.654 -13824.873)" fill="#09f"/><path d="M51.764-63.01a3.34,3.34,0,0,0-3.341,3.341,3.34,3.34,0,0,0,3.341,3.341,3.34,3.34,0,0,0,3.341-3.341A3.34,3.34,0,0,0,51.764-63.01Z" transform="translate(2330.929 -13824.873)" fill="#09f"/><path d="M53.051-55.334a2.571,2.571,0,0,0-3.635,0L43-48.919a2.571,2.571,0,0,0,0,3.635l6.415,6.415a2.562,2.562,0,0,0,1.819.755,2.553,2.553,0,0,0,1.816-.755,2.564,2.564,0,0,0,0-3.635l-4.6-4.6,4.6-4.6A2.564,2.564,0,0,0,53.051-55.334Z" transform="translate(2313.554 -13805.389)" fill="#09f"/><path d="M75.408-55.334a2.571,2.571,0,0,0-3.635,0,2.571,2.571,0,0,0,0,3.635l4.6,4.6-4.6,4.6a2.571,2.571,0,0,0,0,3.635,2.562,2.562,0,0,0,1.819.755,2.559,2.559,0,0,0,1.816-.755l6.415-6.415a2.564,2.564,0,0,0,0-3.635Z" transform="translate(2394.522 -13805.389)" fill="#09f"/><path d="M77.179-54.4h-28.4a2.567,2.567,0,0,0-2.571,2.571,2.569,2.569,0,0,0,2.571,2.571h28.4a2.572,2.572,0,0,0,2.571-2.571A2.569,2.569,0,0,0,77.179-54.4Z" transform="translate(2324.688 -13800.654)" fill="#09f"/><path d="M61.671-49.263H72.06a2.572,2.572,0,0,0,2.571-2.571A2.569,2.569,0,0,0,72.06-54.4H61.671A2.567,2.567,0,0,0,59.1-51.833,2.569,2.569,0,0,0,61.671-49.263Z" transform="translate(2360.976 -13800.654)" fill="#09f"/><path d="M73.958-54.4H69.843a2.569,2.569,0,0,0-2.571,2.571,2.572,2.572,0,0,0,2.571,2.571h4.115a2.572,2.572,0,0,0,2.571-2.571A2.569,2.569,0,0,0,73.958-54.4Z" transform="translate(2383.973 -13800.654)" fill="#09f"/><path d="M52.853-49.138a2.571,2.571,0,0,0-3.635,0L42.8-42.723a2.571,2.571,0,0,0,0,3.635l6.415,6.415a2.559,2.559,0,0,0,1.816.755,2.562,2.562,0,0,0,1.819-.755,2.571,2.571,0,0,0,0-3.635l-4.6-4.6,4.6-4.6A2.571,2.571,0,0,0,52.853-49.138Z" transform="translate(2312.997 -13787.952)" fill="#09f"/><path d="M75.21-49.138a2.571,2.571,0,0,0-3.635,0,2.571,2.571,0,0,0,0,3.635l4.6,4.6-4.6,4.6a2.571,2.571,0,0,0,0,3.635,2.562,2.562,0,0,0,1.819.755,2.559,2.559,0,0,0,1.816-.755l6.415-6.415A2.56,2.56,0,0,0,82.38-40.9a2.563,2.563,0,0,0-.755-1.819Z" transform="translate(2393.965 -13787.952)" fill="#09f"/><path d="M90.749-48.208H63.608a2.572,2.572,0,0,0-2.571,2.571,2.572,2.572,0,0,0,2.571,2.571H90.749a2.572,2.572,0,0,0,2.571-2.571A2.572,2.572,0,0,0,90.749-48.208Z" transform="translate(2366.427 -13783.219)" fill="#09f"/><path d="M48.574-43.067h4.115a2.572,2.572,0,0,0,2.571-2.571,2.572,2.572,0,0,0-2.571-2.571H48.574a2.569,2.569,0,0,0-2.567,2.571A2.569,2.569,0,0,0,48.574-43.067Z" transform="translate(2324.131 -13783.219)" fill="#09f"/><path d="M65.028-48.208H58.376A2.572,2.572,0,0,0,55.8-45.637a2.572,2.572,0,0,0,2.571,2.571h6.652A2.572,2.572,0,0,0,67.6-45.637,2.572,2.572,0,0,0,65.028-48.208Z" transform="translate(2351.703 -13783.219)" fill="#09f"/><path d="M59.8-43.067a2.572,2.572,0,0,0,2.571-2.571A2.572,2.572,0,0,0,59.8-48.208H53.144a2.572,2.572,0,0,0-2.571,2.571,2.572,2.572,0,0,0,2.571,2.571Z" transform="translate(2336.98 -13783.219)" fill="#09f"/><path d="M52.657-42.942a2.571,2.571,0,0,0-3.635,0l-6.415,6.415a2.564,2.564,0,0,0,0,3.635l6.415,6.415a2.559,2.559,0,0,0,1.816.755,2.562,2.562,0,0,0,1.819-.755,2.571,2.571,0,0,0,0-3.635l-4.6-4.6,4.6-4.6A2.571,2.571,0,0,0,52.657-42.942Z" transform="translate(2312.438 -13770.516)" fill="#09f"/><path d="M75.012-42.942a2.571,2.571,0,0,0-3.635,0,2.571,2.571,0,0,0,0,3.635l4.6,4.6-4.6,4.6a2.571,2.571,0,0,0,0,3.635,2.562,2.562,0,0,0,1.819.755,2.553,2.553,0,0,0,1.816-.755l6.415-6.415a2.571,2.571,0,0,0,0-3.635Z" transform="translate(2393.408 -13770.516)" fill="#09f"/><path d="M78.294-42.012H48.376a2.566,2.566,0,0,0-2.567,2.571,2.569,2.569,0,0,0,2.567,2.571H78.294a2.572,2.572,0,0,0,2.571-2.571A2.569,2.569,0,0,0,78.294-42.012Z" transform="translate(2323.573 -13765.782)" fill="#09f"/><path d="M71.6-42.012H61.512a2.569,2.569,0,0,0-2.571,2.571,2.572,2.572,0,0,0,2.571,2.571H71.6a2.569,2.569,0,0,0,2.571-2.571A2.567,2.567,0,0,0,71.6-42.012Z" transform="translate(2360.528 -13765.782)" fill="#09f"/><path d="M73.558-42.012H69.447a2.569,2.569,0,0,0-2.571,2.571,2.572,2.572,0,0,0,2.571,2.571h4.112a2.569,2.569,0,0,0,2.571-2.571A2.567,2.567,0,0,0,73.558-42.012Z" transform="translate(2382.858 -13765.782)" fill="#09f"/></g></svg>