<svg xmlns="http://www.w3.org/2000/svg" width="101" height="93.347" viewBox="0 0 101 93.347"><g transform="translate(-136.676 161.991)"><path d="M154.957-122.028a1.308,1.308,0,0,1-1.308-1.308v-3.217a1.307,1.307,0,0,1-1.664-.26,1.307,1.307,0,0,1,.13-1.845l1.985-1.726a1.307,1.307,0,0,1,1.4-.2,1.311,1.311,0,0,1,.766,1.19v6.061A1.308,1.308,0,0,1,154.957-122.028Z" fill="#06f"/><path d="M156.942-122.028h-3.97a1.308,1.308,0,0,1-1.308-1.308,1.308,1.308,0,0,1,1.308-1.307h3.97a1.307,1.307,0,0,1,1.308,1.307A1.307,1.307,0,0,1,156.942-122.028Z" fill="#06f"/><path d="M164.2-122.028h-2.666a2.278,2.278,0,0,1-2.275-2.276v-4.125a2.277,2.277,0,0,1,2.275-2.275H164.2a2.277,2.277,0,0,1,2.275,2.275v4.125A2.278,2.278,0,0,1,164.2-122.028Zm-2.325-2.615h1.984v-3.446h-1.984Z" fill="#06f"/><path d="M148.379-112.394h-2.665a2.277,2.277,0,0,1-2.275-2.274v-4.126a2.277,2.277,0,0,1,2.275-2.275h2.665a2.277,2.277,0,0,1,2.275,2.275v4.126A2.277,2.277,0,0,1,148.379-112.394Zm-2.325-2.615h1.985v-3.444h-1.985Z" fill="#06f"/><path d="M154.957-112.394a1.308,1.308,0,0,1-1.308-1.308v-3.217a1.305,1.305,0,0,1-1.664-.261,1.306,1.306,0,0,1,.13-1.844l1.985-1.724a1.307,1.307,0,0,1,1.4-.2,1.309,1.309,0,0,1,.765,1.19v6.059A1.308,1.308,0,0,1,154.957-112.394Z" fill="#06f"/><path d="M156.942-112.394h-3.97a1.308,1.308,0,0,1-1.308-1.308,1.308,1.308,0,0,1,1.308-1.307h3.97a1.307,1.307,0,0,1,1.308,1.307A1.307,1.307,0,0,1,156.942-112.394Z" fill="#06f"/><path d="M164.2-112.394h-2.666a2.277,2.277,0,0,1-2.275-2.274v-4.126a2.278,2.278,0,0,1,2.275-2.275H164.2a2.277,2.277,0,0,1,2.275,2.275v4.126A2.277,2.277,0,0,1,164.2-112.394Zm-2.325-2.615h1.984v-3.444h-1.984Z" fill="#06f"/><path d="M170.779-112.394a1.307,1.307,0,0,1-1.308-1.308v-3.217a1.307,1.307,0,0,1-1.665-.261,1.307,1.307,0,0,1,.13-1.844l1.985-1.724a1.306,1.306,0,0,1,1.4-.2,1.309,1.309,0,0,1,.765,1.19v6.059A1.307,1.307,0,0,1,170.779-112.394Z" fill="#06f"/><path d="M172.764-112.394h-3.971a1.307,1.307,0,0,1-1.307-1.308,1.307,1.307,0,0,1,1.307-1.307h3.971a1.308,1.308,0,0,1,1.308,1.307A1.308,1.308,0,0,1,172.764-112.394Z" fill="#06f"/><path d="M148.379-102.759h-2.665a2.277,2.277,0,0,1-2.275-2.275v-4.125a2.277,2.277,0,0,1,2.275-2.276h2.665a2.277,2.277,0,0,1,2.275,2.276v4.125A2.277,2.277,0,0,1,148.379-102.759Zm-2.325-2.615h1.985v-3.446h-1.985Z" fill="#06f"/><path d="M154.957-102.759a1.307,1.307,0,0,1-1.308-1.307v-3.217a1.31,1.31,0,0,1-1.664-.261,1.307,1.307,0,0,1,.13-1.845l1.985-1.725a1.3,1.3,0,0,1,1.4-.2,1.31,1.31,0,0,1,.766,1.19v6.061A1.307,1.307,0,0,1,154.957-102.759Z" fill="#06f"/><path d="M156.942-102.759h-3.97a1.307,1.307,0,0,1-1.308-1.307,1.308,1.308,0,0,1,1.308-1.308h3.97a1.307,1.307,0,0,1,1.308,1.308A1.306,1.306,0,0,1,156.942-102.759Z" fill="#06f"/><path d="M170.779-102.759a1.306,1.306,0,0,1-1.308-1.307v-3.217a1.312,1.312,0,0,1-1.665-.261,1.308,1.308,0,0,1,.13-1.845l1.985-1.725a1.3,1.3,0,0,1,1.4-.2,1.309,1.309,0,0,1,.765,1.19v6.061A1.306,1.306,0,0,1,170.779-102.759Z" fill="#06f"/><path d="M172.764-102.759h-3.971a1.306,1.306,0,0,1-1.307-1.307,1.307,1.307,0,0,1,1.307-1.308h3.971a1.308,1.308,0,0,1,1.308,1.308A1.307,1.307,0,0,1,172.764-102.759Z" fill="#06f"/><path d="M198.843-126.977h16.666a1.575,1.575,0,0,0,1.667-1.667,1.574,1.574,0,0,0-1.667-1.666H198.843a1.574,1.574,0,0,0-1.667,1.666A1.575,1.575,0,0,0,198.843-126.977Z" fill="#06f"/><path d="M222.176-123.644H203.843a1.575,1.575,0,0,0-1.667,1.667,1.575,1.575,0,0,0,1.667,1.667h18.333a1.575,1.575,0,0,0,1.667-1.667A1.575,1.575,0,0,0,222.176-123.644Z" fill="#06f"/><path d="M215.51-116.977H198.843a1.575,1.575,0,0,0-1.667,1.667,1.574,1.574,0,0,0,1.667,1.666H215.51a1.574,1.574,0,0,0,1.666-1.666A1.574,1.574,0,0,0,215.51-116.977Z" fill="#06f"/><path d="M207.176-108.644a1.574,1.574,0,0,0-1.666-1.666h-6.667a1.574,1.574,0,0,0-1.667,1.666,1.575,1.575,0,0,0,1.667,1.667h6.667A1.574,1.574,0,0,0,207.176-108.644Z" fill="#06f"/><path d="M215.51-103.644H202.176a1.574,1.574,0,0,0-1.666,1.667,1.574,1.574,0,0,0,1.666,1.667H215.51a1.574,1.574,0,0,0,1.666-1.667A1.574,1.574,0,0,0,215.51-103.644Z" fill="#06f"/><path d="M184.343-96.977v-36.667a5.442,5.442,0,0,0-5.5-5.5H142.176a5.442,5.442,0,0,0-5.5,5.5v36.667a5.442,5.442,0,0,0,5.5,5.5h36.667A5.442,5.442,0,0,0,184.343-96.977Zm-5.5,1.166H142.175a1.171,1.171,0,0,1-.853-.311,1.176,1.176,0,0,1-.312-.855v-36.667a1.082,1.082,0,0,1,1.166-1.166h36.667a1.082,1.082,0,0,1,1.166,1.166v36.667A1.082,1.082,0,0,1,178.843-95.811Z" fill="#06f"/><path d="M232.176-139.144H195.51a5.442,5.442,0,0,0-5.5,5.5v36.667a5.442,5.442,0,0,0,5.5,5.5h36.666a5.442,5.442,0,0,0,5.5-5.5v-36.667A5.442,5.442,0,0,0,232.176-139.144Zm1.167,5.5v36.667a1.082,1.082,0,0,1-1.167,1.166H195.51a1.082,1.082,0,0,1-1.167-1.166v-36.667a1.082,1.082,0,0,1,1.167-1.166h36.666A1.082,1.082,0,0,1,233.343-133.644Z" fill="#06f"/><path d="M160.51-146.477a1.5,1.5,0,0,0,.945-.247c9.3-4.559,16.754-6.42,25.721-6.42a51.738,51.738,0,0,1,20.867,4.219l-6.052,1.984a2.022,2.022,0,0,0-1.3,2.585,2.094,2.094,0,0,0,1.985,1.545,1.122,1.122,0,0,0,.753-.223l10.641-3.494a2.037,2.037,0,0,0,1.72-1.225,1.781,1.781,0,0,0,.177-.794,2.236,2.236,0,0,0-.306-1.23l-3.52-10.719a2.32,2.32,0,0,0-2.65-1.445,2.3,2.3,0,0,0-1.2,1.146,2.05,2.05,0,0,0-.086,1.641l2.144,6.545a55.889,55.889,0,0,0-23.169-4.868c-9.622,0-17.6,2-27.519,6.869a2.155,2.155,0,0,0-1.1,2.855A2.1,2.1,0,0,0,160.51-146.477Z" fill="#06f"/><path d="M212.991-83.941l-.035.015c-9.325,4.581-16.794,6.449-25.78,6.449a51.657,51.657,0,0,1-20.719-4.158l6.238-2.044a2.247,2.247,0,0,0,1.279-2.818,2.242,2.242,0,0,0-2.787-1.289l-11.168,3.668a2.124,2.124,0,0,0-.569.281,1.977,1.977,0,0,0-.9,1.007,2.249,2.249,0,0,0,.146,1.987l3.5,10.654a2.1,2.1,0,0,0,1.985,1.545h.93l.089-.036a2.3,2.3,0,0,0,1.2-1.146,2.048,2.048,0,0,0,.086-1.64l-2.09-6.381a55.631,55.631,0,0,0,22.781,4.7c9.623,0,17.606-2,27.519-6.869a2,2,0,0,0,1.138-1.187,2.274,2.274,0,0,0-.026-1.63A2.145,2.145,0,0,0,212.991-83.941Z" fill="#06f"/></g></svg>