<svg xmlns="http://www.w3.org/2000/svg" width="78.74" height="101" viewBox="0 0 78.74 101"><g transform="translate(-163.102 201.521)"><path d="M194.794-139.394a2.06,2.06,0,0,0-2.057,2.057V-107.7a3.073,3.073,0,0,1-3.07,3.069,3.073,3.073,0,0,1-3.07-3.069v-33.713a2.059,2.059,0,0,0-2.056-2.057,2.06,2.06,0,0,0-2.058,2.057V-107.7a3.073,3.073,0,0,1-3.069,3.069,3.073,3.073,0,0,1-3.07-3.069v-53.052a2.058,2.058,0,0,0-2.056-2.057,2.059,2.059,0,0,0-2.058,2.057v19.478a7.106,7.106,0,0,1-5.015-6.767v-17.739a7.613,7.613,0,0,1,7.605-7.6,2.058,2.058,0,0,0,2.057-2.056,2.059,2.059,0,0,0-2.057-2.057A11.73,11.73,0,0,0,163.1-165.783v17.739a11.2,11.2,0,0,0,9.128,10.987V-107.7a7.191,7.191,0,0,0,7.184,7.182,7.159,7.159,0,0,0,5.126-2.16,7.161,7.161,0,0,0,5.127,2.16,7.191,7.191,0,0,0,7.184-7.182v-29.634A2.06,2.06,0,0,0,194.794-139.394Z" fill="#06f"/><path d="M184.541-179.973a10.787,10.787,0,0,0,10.773-10.775,10.786,10.786,0,0,0-10.773-10.773,10.786,10.786,0,0,0-10.774,10.773A10.787,10.787,0,0,0,184.541-179.973Zm-6.661-10.775a6.667,6.667,0,0,1,6.661-6.659,6.667,6.667,0,0,1,6.66,6.659,6.668,6.668,0,0,1-6.66,6.661A6.668,6.668,0,0,1,177.88-190.748Z" fill="#06f"/><path d="M230.124-177.5a2.06,2.06,0,0,0-2.057,2.057,2.059,2.059,0,0,0,2.057,2.056,7.613,7.613,0,0,1,7.605,7.6v17.739a7.106,7.106,0,0,1-5.016,6.767v-19.478a2.058,2.058,0,0,0-2.057-2.057,2.058,2.058,0,0,0-2.056,2.057V-107.7a3.073,3.073,0,0,1-3.07,3.069,3.074,3.074,0,0,1-3.071-3.069v-33.713a2.059,2.059,0,0,0-2.056-2.057,2.06,2.06,0,0,0-2.057,2.057V-107.7a3.073,3.073,0,0,1-3.069,3.069,3.073,3.073,0,0,1-3.07-3.069v-26.731a2.059,2.059,0,0,0-2.057-2.056,2.059,2.059,0,0,0-2.057,2.056V-107.7a7.191,7.191,0,0,0,7.184,7.182,7.159,7.159,0,0,0,5.126-2.16,7.161,7.161,0,0,0,5.127,2.16,7.191,7.191,0,0,0,7.183-7.182v-29.354a11.2,11.2,0,0,0,9.129-10.987v-17.739A11.731,11.731,0,0,0,230.124-177.5Z" fill="#06f"/><path d="M210.683-177.374H194.261a2.06,2.06,0,0,0-2.057,2.057,2.06,2.06,0,0,0,2.057,2.057h16.422a2.059,2.059,0,0,0,2.056-2.057A2.059,2.059,0,0,0,210.683-177.374Z" fill="#06f"/><path d="M220.4-179.973a10.787,10.787,0,0,0,10.774-10.775A10.786,10.786,0,0,0,220.4-201.521a10.786,10.786,0,0,0-10.774,10.773A10.787,10.787,0,0,0,220.4-179.973Zm-6.66-10.775a6.666,6.666,0,0,1,6.66-6.659,6.667,6.667,0,0,1,6.66,6.659,6.668,6.668,0,0,1-6.66,6.661A6.668,6.668,0,0,1,213.743-190.748Z" fill="#06f"/><path d="M211.6-148.061a2.042,2.042,0,0,0,.6-1.455,2.06,2.06,0,0,0-2.058-2.055l-16.957.01.817-.819a2.061,2.061,0,0,0-.005-2.91,2.062,2.062,0,0,0-2.909,0l-4.319,4.331a2.033,2.033,0,0,0-.2.24c-.019.025-.042.047-.06.073-.028.042-.046.089-.07.132a1.91,1.91,0,0,0-.119.223h0a2.057,2.057,0,0,0-.154.785h0a2.028,2.028,0,0,0,.041.4,1.991,1.991,0,0,0,.1.332c.006.017.009.035.016.052a2.056,2.056,0,0,0,.131.245c.021.037.037.077.061.112s.073.088.109.132a1.874,1.874,0,0,0,.144.176l4.319,4.306a2.04,2.04,0,0,0,1.452.6,2.043,2.043,0,0,0,1.457-.6,2.053,2.053,0,0,0,.6-1.456,2.036,2.036,0,0,0-.6-1.452l-.8-.8,16.944-.01A2.041,2.041,0,0,0,211.6-148.061Z" fill="#06f"/><path d="M211.917-160.908a1.95,1.95,0,0,0,.138-.264c.01-.024.014-.048.022-.072a2.1,2.1,0,0,0,.092-.311c0-.026,0-.053.007-.079a2.049,2.049,0,0,0,.031-.314c0-.039-.01-.077-.012-.116a2.276,2.276,0,0,0-.029-.285c-.013-.065-.038-.126-.057-.19a1.708,1.708,0,0,0-.061-.2c-.024-.058-.058-.11-.087-.165a2.079,2.079,0,0,0-.1-.191,1.857,1.857,0,0,0-.154-.188c-.035-.041-.062-.085-.1-.123l-4.319-4.308a2.06,2.06,0,0,0-2.909,0,2.059,2.059,0,0,0,0,2.908l.8.8-16.947.009a2.043,2.043,0,0,0-1.454.6,2.039,2.039,0,0,0-.6,1.455,2.058,2.058,0,0,0,2.056,2.055h0l16.957-.01-.816.819a2.061,2.061,0,0,0,0,2.909,2.046,2.046,0,0,0,1.453.6,2.039,2.039,0,0,0,1.456-.6l4.319-4.331c.028-.028.048-.061.074-.091a2.1,2.1,0,0,0,.186-.228C211.887-160.843,211.9-160.877,211.917-160.908Z" fill="#06f"/></g></svg>