<svg xmlns="http://www.w3.org/2000/svg" width="60.199" height="100" viewBox="0 0 60.199 100"><g transform="translate(-84.999 201.021)"><path d="M136.479-201.021H93.717A8.729,8.729,0,0,0,85-192.3v82.563a8.728,8.728,0,0,0,8.718,8.718h42.762a8.729,8.729,0,0,0,8.719-8.718V-192.3A8.73,8.73,0,0,0,136.479-201.021Zm-8.718,8.39a.493.493,0,0,1-.492.492H102.927a.492.492,0,0,1-.491-.492v-4.11h25.325Zm-38.483.329a4.444,4.444,0,0,1,4.439-4.439h4.439v4.11a4.776,4.776,0,0,0,4.771,4.771h24.342a4.776,4.776,0,0,0,4.771-4.771v-4.11h4.439a4.444,4.444,0,0,1,4.439,4.439v82.563a4.444,4.444,0,0,1-4.439,4.439H93.717a4.444,4.444,0,0,1-4.439-4.439Z" fill="#06f"/><path d="M91.6-155.986a23.6,23.6,0,0,0,21.727,21.723l.243.019c.506.032,1.015.055,1.529.055s1.024-.023,1.53-.055l.243-.019A23.6,23.6,0,0,0,138.6-155.991c.006-.081.013-.162.018-.243.033-.506.056-1.015.056-1.53s-.023-1.023-.056-1.529c-.005-.081-.012-.162-.018-.243a23.6,23.6,0,0,0-21.832-21.735l-.05,0c-.535-.037-1.074-.062-1.619-.062s-1.083.025-1.618.062l-.053,0A23.6,23.6,0,0,0,91.6-159.541c-.007.083-.014.166-.019.249-.033.506-.055,1.015-.055,1.528s.022,1.023.055,1.529C91.585-156.152,91.592-156.069,91.6-155.986Zm28.32,17.9c-.074.018-.146.04-.221.057-.29.068-.58.132-.871.188-.474.088-.951.165-1.435.219-.184.022-.368.035-.552.051-.539.046-1.081.08-1.631.083h-.222c-.549,0-1.091-.037-1.629-.083-.184-.016-.369-.029-.554-.051-.483-.054-.96-.131-1.433-.219-.291-.055-.583-.12-.874-.188-.074-.017-.146-.039-.219-.057a49.61,49.61,0,0,1-2.047-9.115c2.234.183,4.532.288,6.867.288s4.634-.105,6.867-.288A49.6,49.6,0,0,1,119.919-138.082Zm14.918-24.282c.068.29.132.581.188.873.089.477.166.959.221,1.447.02.171.032.342.048.512.05.584.089,1.172.089,1.768s-.039,1.185-.089,1.769c-.016.171-.028.341-.048.511-.055.489-.132.971-.222,1.45-.055.29-.119.58-.187.87-.017.075-.039.147-.057.221a49.592,49.592,0,0,1-9.115,2.047c.183-2.234.288-4.532.288-6.868s-.105-4.633-.288-6.866a49.615,49.615,0,0,1,9.115,2.046C134.8-162.51,134.82-162.438,134.837-162.364Zm-1.421-4.055a59.519,59.519,0,0,0-8.1-1.561,59.52,59.52,0,0,0-1.561-8.1A20.382,20.382,0,0,1,133.416-166.419Zm-8.1,18.872a59.338,59.338,0,0,0,8.1-1.561,20.377,20.377,0,0,1-9.662,9.662A59.49,59.49,0,0,0,125.315-147.547Zm-15.037-29.9c.078-.019.156-.042.235-.06.283-.067.567-.129.851-.183.475-.089.954-.165,1.44-.221.186-.021.371-.034.557-.051.532-.045,1.069-.078,1.612-.081q.126,0,.252,0c.542,0,1.077.036,1.608.081.187.017.374.03.561.052.485.055.963.131,1.437.22.285.054.569.116.853.183.079.018.156.041.235.06a49.614,49.614,0,0,1,2.046,9.115c-2.233-.183-4.532-.288-6.867-.288s-4.633.1-6.867.288A49.61,49.61,0,0,1,110.278-177.445ZM107.863-165c2.336-.211,4.762-.33,7.235-.33s4.9.119,7.236.33c.21,2.337.33,4.762.33,7.235s-.12,4.9-.33,7.236c-2.337.211-4.762.33-7.236.33s-4.9-.119-7.235-.33c-.211-2.337-.33-4.762-.33-7.236S107.652-162.662,107.863-165ZM96.781-149.108a59.368,59.368,0,0,0,8.1,1.561,59.382,59.382,0,0,0,1.561,8.1A20.384,20.384,0,0,1,96.781-149.108Zm9.662-26.973a59.367,59.367,0,0,0-1.561,8.1,59.519,59.519,0,0,0-8.1,1.561A20.377,20.377,0,0,1,106.443-176.081ZM94.9-159.536c.015-.168.027-.336.046-.5.056-.491.134-.975.223-1.456.055-.289.119-.579.187-.867.018-.074.039-.147.057-.221a49.615,49.615,0,0,1,9.115-2.046c-.184,2.233-.289,4.532-.289,6.866s.105,4.634.289,6.868a49.611,49.611,0,0,1-9.115-2.047c-.018-.074-.04-.147-.057-.222-.068-.288-.132-.577-.187-.866-.089-.48-.167-.965-.223-1.456-.019-.168-.031-.336-.046-.5-.051-.585-.09-1.174-.09-1.773S94.853-158.951,94.9-159.536Z" fill="#06f"/><path d="M131.1-114.712a1.614,1.614,0,0,0-.264-.448c-.01-.012-.013-.028-.023-.04l-2.385-2.76a1.646,1.646,0,0,0-2.32-.169,1.645,1.645,0,0,0-.169,2.32l.035.04H100.625a1.644,1.644,0,0,0-1.645,1.645,1.645,1.645,0,0,0,1.645,1.645h25.352l-.035.04a1.645,1.645,0,0,0,.169,2.319,1.638,1.638,0,0,0,1.075.4,1.639,1.639,0,0,0,1.245-.57l2.385-2.76c.01-.012.013-.027.023-.039a1.614,1.614,0,0,0,.264-.448c.009-.023.014-.046.022-.069a1.636,1.636,0,0,0,.091-.516v0a1.609,1.609,0,0,0-.092-.517C131.117-114.666,131.112-114.689,131.1-114.712Z" fill="#06f"/><path d="M129.571-127.611H104.22l.034-.04a1.645,1.645,0,0,0-.169-2.32,1.646,1.646,0,0,0-2.32.169l-2.384,2.761c-.011.012-.014.027-.024.039a1.644,1.644,0,0,0-.264.449c-.008.022-.013.045-.021.068a1.609,1.609,0,0,0-.091.517v.006a1.6,1.6,0,0,0,.091.515c.008.023.013.046.022.07a1.619,1.619,0,0,0,.263.447c.01.012.013.028.024.04l2.384,2.76a1.643,1.643,0,0,0,1.245.569,1.642,1.642,0,0,0,1.075-.4,1.644,1.644,0,0,0,.169-2.32l-.034-.04h25.351a1.644,1.644,0,0,0,1.645-1.645A1.645,1.645,0,0,0,129.571-127.611Z" fill="#06f"/></g></svg>