<svg xmlns="http://www.w3.org/2000/svg" width="77.366" height="100" viewBox="0 0 77.366 100"><g transform="translate(-181.622 196.195)"><path d="M210.163-158.53A10.154,10.154,0,0,0,220.3-148.388a10.154,10.154,0,0,0,10.143-10.142A10.153,10.153,0,0,0,220.3-168.671,10.153,10.153,0,0,0,210.163-158.53Zm10.142-6.135a6.143,6.143,0,0,1,6.137,6.135,6.144,6.144,0,0,1-6.137,6.136,6.143,6.143,0,0,1-6.135-6.136A6.142,6.142,0,0,1,220.3-164.665Z" fill="#06f"/><path d="M203.385-166a2,2,0,0,0,1,.271,2,2,0,0,0,1.734-1,16.49,16.49,0,0,1,10.088-7.664,2,2,0,0,0,1.441-2.439,2,2,0,0,0-2.44-1.44,20.518,20.518,0,0,0-12.555,9.533A2,2,0,0,0,203.385-166Z" fill="#06f"/><path d="M220.3-129.875a28.214,28.214,0,0,0,10.27-1.936l.742,3.606a6.594,6.594,0,0,0,3.382,4.511,6.6,6.6,0,0,0,3.1.772,6.624,6.624,0,0,0,2.535-.506,6.626,6.626,0,0,0,3.912-4.622,6.631,6.631,0,0,0-1.49-5.871l-3.1-3.509a28.459,28.459,0,0,0,9.309-21.1A28.686,28.686,0,0,0,220.3-187.185,28.687,28.687,0,0,0,191.65-158.53,28.687,28.687,0,0,0,220.3-129.875Zm20.034.924a2.581,2.581,0,0,1-1.543,1.823,2.61,2.61,0,0,1-2.222-.105,2.6,2.6,0,0,1-1.334-1.78l-1.973-9.587,2.036,2.3v0l4.446,5.029A2.58,2.58,0,0,1,240.339-128.951ZM220.3-183.179a24.677,24.677,0,0,1,24.649,24.649,24.481,24.481,0,0,1-7.952,18.1l-5.711-6.459a2.007,2.007,0,0,0-2.4-.465,2,2,0,0,0-1.066,2.2l1.928,9.365a24.288,24.288,0,0,1-9.452,1.907,24.677,24.677,0,0,1-24.649-24.649A24.677,24.677,0,0,1,220.3-183.179Z" fill="#06f"/><path d="M251.041-196.2H189.569a7.957,7.957,0,0,0-7.947,7.947v73.522a2,2,0,0,0,2,2h.44v3.376h-.44a2,2,0,0,0-2,2v3.2a7.956,7.956,0,0,0,7.947,7.946h61.472a7.956,7.956,0,0,0,7.947-7.946v-3.2a2,2,0,0,0-2-2h-.439v-3.376h.439a2,2,0,0,0,2-2v-73.522A7.957,7.957,0,0,0,251.041-196.2Zm-61.472,4.006h61.472a3.946,3.946,0,0,1,3.941,3.941v1.063h-2.638a2,2,0,0,0-2,2,2,2,0,0,0,2,2h2.638v66.45H185.628v-66.45h2.638a2,2,0,0,0,2-2,2,2,0,0,0-2-2h-2.638v-1.063A3.946,3.946,0,0,1,189.569-192.189Zm65.413,88.048a3.945,3.945,0,0,1-3.941,3.94H189.569a3.945,3.945,0,0,1-3.941-3.94v-1.2h69.354Zm-2.443-5.206H188.071v-3.376h64.468Z" fill="#06f"/><path d="M203.728-125.4h-8.012a2,2,0,0,0-2,2,2,2,0,0,0,2,2h8.012a2,2,0,0,0,2-2A2,2,0,0,0,203.728-125.4Z" fill="#06f"/><path d="M224.458-125.4h-8.012a2,2,0,0,0-2,2,2,2,0,0,0,2,2h8.012a2,2,0,0,0,2-2A2,2,0,0,0,224.458-125.4Z" fill="#06f"/></g></svg>