<svg xmlns="http://www.w3.org/2000/svg" width="62.174" height="59.145" viewBox="0 0 62.174 59.145"><path d="M198.794-141.748H159.968a1.231,1.231,0,0,1-1.23-1.23v-44.269a1.231,1.231,0,0,1,.512-1l9.219-6.635a1.23,1.23,0,0,1,.718-.231h29.606a1.23,1.23,0,0,1,1.23,1.23v50.9A1.231,1.231,0,0,1,198.794-141.748Zm-37.595-2.46h36.364v-48.443H169.584l-8.385,6.035Z" transform="translate(-153.096 195.112)" fill="#1874ff"/><path d="M169.187-186.016h-9.219a1.231,1.231,0,0,1-1.172-.855,1.23,1.23,0,0,1,.457-1.377c3.4-2.426,8.568-6.126,9.109-6.547a1.228,1.228,0,0,1,.825-.317,1.23,1.23,0,0,1,1.231,1.23v6.635A1.231,1.231,0,0,1,169.187-186.016Zm-5.38-2.46h4.15v-2.98c-.681.495-1.552,1.118-2.663,1.914Z" transform="translate(-153.096 195.112)" fill="#1874ff"/><path d="M177.231-176.455H175.59a1.231,1.231,0,0,1-1.23-1.23,1.231,1.231,0,0,1,1.23-1.231h1.641a1.23,1.23,0,0,1,1.23,1.231A1.23,1.23,0,0,1,177.231-176.455Z" transform="translate(-158.452 189.559)" fill="#1874ff"/><path d="M190.579-176.455H187.49a1.23,1.23,0,0,1-1.23-1.23,1.23,1.23,0,0,1,1.23-1.231h3.089a1.231,1.231,0,0,1,1.231,1.231A1.231,1.231,0,0,1,190.579-176.455Z" transform="translate(-162.532 189.559)" fill="#1874ff"/><path d="M203.235-176.455h-1.641a1.231,1.231,0,0,1-1.23-1.23,1.231,1.231,0,0,1,1.23-1.231h1.641a1.23,1.23,0,0,1,1.23,1.231A1.23,1.23,0,0,1,203.235-176.455Z" transform="translate(-167.367 189.559)" fill="#1874ff"/><path d="M170.505-168.944h-1.641a1.231,1.231,0,0,1-1.23-1.23,1.231,1.231,0,0,1,1.23-1.23h1.641a1.231,1.231,0,0,1,1.23,1.23A1.231,1.231,0,0,1,170.505-168.944Z" transform="translate(-156.146 186.984)" fill="#1874ff"/><path d="M192.745-168.944h-3.036a1.23,1.23,0,0,1-1.23-1.23,1.23,1.23,0,0,1,1.23-1.23h3.036a1.23,1.23,0,0,1,1.23,1.23A1.23,1.23,0,0,1,192.745-168.944Zm-9.109,0H180.6a1.231,1.231,0,0,1-1.23-1.23,1.231,1.231,0,0,1,1.23-1.23h3.036a1.23,1.23,0,0,1,1.23,1.23A1.23,1.23,0,0,1,183.636-168.944Z" transform="translate(-160.17 186.984)" fill="#1874ff"/><path d="M209.961-168.944h-1.64a1.231,1.231,0,0,1-1.231-1.23,1.231,1.231,0,0,1,1.231-1.23h1.64a1.23,1.23,0,0,1,1.23,1.23A1.23,1.23,0,0,1,209.961-168.944Z" transform="translate(-169.673 186.984)" fill="#1874ff"/><path d="M170.505-161.433h-1.641a1.231,1.231,0,0,1-1.23-1.23,1.231,1.231,0,0,1,1.23-1.23h1.641a1.231,1.231,0,0,1,1.23,1.23A1.231,1.231,0,0,1,170.505-161.433Z" transform="translate(-156.146 184.409)" fill="#1874ff"/><path d="M192.745-161.433h-3.036a1.23,1.23,0,0,1-1.23-1.23,1.23,1.23,0,0,1,1.23-1.23h3.036a1.23,1.23,0,0,1,1.23,1.23A1.23,1.23,0,0,1,192.745-161.433Zm-9.109,0H180.6a1.231,1.231,0,0,1-1.23-1.23,1.231,1.231,0,0,1,1.23-1.23h3.036a1.23,1.23,0,0,1,1.23,1.23A1.23,1.23,0,0,1,183.636-161.433Z" transform="translate(-160.17 184.409)" fill="#1874ff"/><path d="M209.961-161.433h-1.64a1.231,1.231,0,0,1-1.231-1.23,1.231,1.231,0,0,1,1.231-1.23h1.64a1.23,1.23,0,0,1,1.23,1.23A1.23,1.23,0,0,1,209.961-161.433Z" transform="translate(-169.673 184.409)" fill="#1874ff"/><path d="M170.505-153.921h-1.641a1.231,1.231,0,0,1-1.23-1.231,1.231,1.231,0,0,1,1.23-1.23h1.641a1.231,1.231,0,0,1,1.23,1.23A1.231,1.231,0,0,1,170.505-153.921Z" transform="translate(-156.146 181.834)" fill="#1874ff"/><path d="M192.745-153.921h-3.036a1.23,1.23,0,0,1-1.23-1.231,1.23,1.23,0,0,1,1.23-1.23h3.036a1.23,1.23,0,0,1,1.23,1.23A1.23,1.23,0,0,1,192.745-153.921Zm-9.109,0H180.6a1.231,1.231,0,0,1-1.23-1.231,1.231,1.231,0,0,1,1.23-1.23h3.036a1.23,1.23,0,0,1,1.23,1.23A1.23,1.23,0,0,1,183.636-153.921Z" transform="translate(-160.17 181.834)" fill="#1874ff"/><path d="M209.961-153.921h-1.64a1.231,1.231,0,0,1-1.231-1.231,1.231,1.231,0,0,1,1.231-1.23h1.64a1.23,1.23,0,0,1,1.23,1.23A1.23,1.23,0,0,1,209.961-153.921Z" transform="translate(-169.673 181.834)" fill="#1874ff"/><path d="M170.505-146.41h-1.641a1.231,1.231,0,0,1-1.23-1.231,1.231,1.231,0,0,1,1.23-1.23h1.641a1.231,1.231,0,0,1,1.23,1.23A1.231,1.231,0,0,1,170.505-146.41Z" transform="translate(-156.146 179.259)" fill="#1874ff"/><path d="M192.745-146.41h-3.036a1.23,1.23,0,0,1-1.23-1.231,1.23,1.23,0,0,1,1.23-1.23h3.036a1.23,1.23,0,0,1,1.23,1.23A1.23,1.23,0,0,1,192.745-146.41Zm-9.109,0H180.6a1.231,1.231,0,0,1-1.23-1.231,1.231,1.231,0,0,1,1.23-1.23h3.036a1.23,1.23,0,0,1,1.23,1.23A1.23,1.23,0,0,1,183.636-146.41Z" transform="translate(-160.17 179.259)" fill="#1874ff"/><path d="M209.961-146.41h-1.64a1.231,1.231,0,0,1-1.231-1.231,1.231,1.231,0,0,1,1.231-1.23h1.64a1.23,1.23,0,0,1,1.23,1.23A1.23,1.23,0,0,1,209.961-146.41Z" transform="translate(-169.673 179.259)" fill="#1874ff"/><path d="M170.505-138.9h-1.641a1.231,1.231,0,0,1-1.23-1.23,1.231,1.231,0,0,1,1.23-1.231h1.641a1.231,1.231,0,0,1,1.23,1.231A1.231,1.231,0,0,1,170.505-138.9Z" transform="translate(-156.146 176.684)" fill="#1874ff"/><path d="M192.745-138.9h-3.036a1.23,1.23,0,0,1-1.23-1.23,1.23,1.23,0,0,1,1.23-1.231h3.036a1.23,1.23,0,0,1,1.23,1.231A1.23,1.23,0,0,1,192.745-138.9Zm-9.109,0H180.6a1.231,1.231,0,0,1-1.23-1.23,1.231,1.231,0,0,1,1.23-1.231h3.036a1.23,1.23,0,0,1,1.23,1.231A1.23,1.23,0,0,1,183.636-138.9Z" transform="translate(-160.17 176.684)" fill="#1874ff"/><path d="M209.961-138.9h-1.64a1.231,1.231,0,0,1-1.231-1.23,1.231,1.231,0,0,1,1.231-1.231h1.64a1.23,1.23,0,0,1,1.23,1.231A1.23,1.23,0,0,1,209.961-138.9Z" transform="translate(-169.673 176.684)" fill="#1874ff"/><path d="M170.505-131.388h-1.641a1.231,1.231,0,0,1-1.23-1.23,1.231,1.231,0,0,1,1.23-1.231h1.641a1.231,1.231,0,0,1,1.23,1.231A1.231,1.231,0,0,1,170.505-131.388Z" transform="translate(-156.146 174.109)" fill="#1874ff"/><path d="M192.745-131.388h-3.036a1.23,1.23,0,0,1-1.23-1.23,1.23,1.23,0,0,1,1.23-1.231h3.036a1.23,1.23,0,0,1,1.23,1.231A1.23,1.23,0,0,1,192.745-131.388Zm-9.109,0H180.6a1.231,1.231,0,0,1-1.23-1.23,1.231,1.231,0,0,1,1.23-1.231h3.036a1.23,1.23,0,0,1,1.23,1.231A1.23,1.23,0,0,1,183.636-131.388Z" transform="translate(-160.17 174.109)" fill="#1874ff"/><path d="M209.961-131.388h-1.64a1.231,1.231,0,0,1-1.231-1.23,1.231,1.231,0,0,1,1.231-1.231h1.64a1.23,1.23,0,0,1,1.23,1.231A1.23,1.23,0,0,1,209.961-131.388Z" transform="translate(-169.673 174.109)" fill="#1874ff"/><path d="M170.505-123.877h-1.641a1.231,1.231,0,0,1-1.23-1.23,1.231,1.231,0,0,1,1.23-1.23h1.641a1.231,1.231,0,0,1,1.23,1.23A1.231,1.231,0,0,1,170.505-123.877Z" transform="translate(-156.146 171.533)" fill="#1874ff"/><path d="M192.745-123.877h-3.036a1.23,1.23,0,0,1-1.23-1.23,1.23,1.23,0,0,1,1.23-1.23h3.036a1.23,1.23,0,0,1,1.23,1.23A1.23,1.23,0,0,1,192.745-123.877Zm-9.109,0H180.6a1.231,1.231,0,0,1-1.23-1.23,1.231,1.231,0,0,1,1.23-1.23h3.036a1.23,1.23,0,0,1,1.23,1.23A1.23,1.23,0,0,1,183.636-123.877Z" transform="translate(-160.17 171.533)" fill="#1874ff"/><path d="M209.961-123.877h-1.64a1.231,1.231,0,0,1-1.231-1.23,1.231,1.231,0,0,1,1.231-1.23h1.64a1.23,1.23,0,0,1,1.23,1.23A1.23,1.23,0,0,1,209.961-123.877Z" transform="translate(-169.673 171.533)" fill="#1874ff"/><path d="M230.725-186.365a3.794,3.794,0,0,1-3.79-3.79,3.793,3.793,0,0,1,3.79-3.789,3.793,3.793,0,0,1,3.789,3.789A3.793,3.793,0,0,1,230.725-186.365Zm0-5.118a1.329,1.329,0,0,0-1.329,1.328,1.33,1.33,0,0,0,1.329,1.329,1.33,1.33,0,0,0,1.328-1.329A1.33,1.33,0,0,0,230.725-191.483Z" transform="translate(-176.477 194.712)" fill="#1874ff"/><path d="M237.019-169.592a3.793,3.793,0,0,1-3.789-3.789,3.794,3.794,0,0,1,3.789-3.79,3.794,3.794,0,0,1,3.79,3.79A3.794,3.794,0,0,1,237.019-169.592Zm0-5.119a1.33,1.33,0,0,0-1.329,1.329,1.33,1.33,0,0,0,1.329,1.329,1.33,1.33,0,0,0,1.329-1.329A1.331,1.331,0,0,0,237.019-174.711Z" transform="translate(-178.635 188.961)" fill="#1874ff"/><path d="M229.938-152.865a3.793,3.793,0,0,1-3.789-3.789,3.794,3.794,0,0,1,3.789-3.79,3.794,3.794,0,0,1,3.79,3.79A3.793,3.793,0,0,1,229.938-152.865Zm0-5.118a1.33,1.33,0,0,0-1.329,1.329,1.33,1.33,0,0,0,1.329,1.329,1.33,1.33,0,0,0,1.329-1.329A1.33,1.33,0,0,0,229.938-157.983Z" transform="translate(-176.208 183.227)" fill="#1874ff"/><path d="M224.523-154.088h-5.474a1.231,1.231,0,0,1-1.231-1.231,1.231,1.231,0,0,1,1.231-1.23h5.474a1.23,1.23,0,0,1,1.23,1.23A1.23,1.23,0,0,1,224.523-154.088Z" transform="translate(-173.351 181.891)" fill="#1874ff"/><path d="M223.44-167.807h-4.391a1.231,1.231,0,0,1-1.231-1.23,1.231,1.231,0,0,1,1.231-1.23h3.773l1.876-2.515a1.228,1.228,0,0,1,.986-.495h3.369a1.23,1.23,0,0,1,1.23,1.231,1.23,1.23,0,0,1-1.23,1.23H226.3l-1.876,2.514A1.228,1.228,0,0,1,223.44-167.807Z" transform="translate(-173.351 187.626)" fill="#1874ff"/><path d="M222.277-179.7h-3.228a1.231,1.231,0,0,1-1.231-1.231,1.231,1.231,0,0,1,1.231-1.23h2.564l3.079-4.687a1.231,1.231,0,0,1,1.7-.354,1.231,1.231,0,0,1,.353,1.7l-3.444,5.242A1.232,1.232,0,0,1,222.277-179.7Z" transform="translate(-173.351 192.47)" fill="#1874ff"/><path d="M230.725-119.364a3.794,3.794,0,0,1-3.79-3.789,3.794,3.794,0,0,1,3.79-3.79,3.793,3.793,0,0,1,3.789,3.79A3.793,3.793,0,0,1,230.725-119.364Zm0-5.119a1.33,1.33,0,0,0-1.329,1.329,1.33,1.33,0,0,0,1.329,1.328,1.33,1.33,0,0,0,1.328-1.328A1.33,1.33,0,0,0,230.725-124.483Z" transform="translate(-176.477 171.741)" fill="#1874ff"/><path d="M237.019-136.137a3.794,3.794,0,0,1-3.789-3.79,3.794,3.794,0,0,1,3.789-3.79,3.794,3.794,0,0,1,3.79,3.79A3.794,3.794,0,0,1,237.019-136.137Zm0-5.119a1.33,1.33,0,0,0-1.329,1.329,1.33,1.33,0,0,0,1.329,1.329,1.331,1.331,0,0,0,1.329-1.329A1.33,1.33,0,0,0,237.019-141.256Z" transform="translate(-178.635 177.492)" fill="#1874ff"/><path d="M229.053-138.931h-3.369a1.228,1.228,0,0,1-.986-.5l-1.876-2.514h-3.773a1.231,1.231,0,0,1-1.231-1.23,1.231,1.231,0,0,1,1.231-1.231h4.391a1.227,1.227,0,0,1,.986.5l1.876,2.514h2.752a1.23,1.23,0,0,1,1.23,1.23A1.23,1.23,0,0,1,229.053-138.931Z" transform="translate(-173.351 177.727)" fill="#1874ff"/><path d="M225.721-125.967a1.228,1.228,0,0,1-1.029-.555l-3.079-4.687h-2.564a1.231,1.231,0,0,1-1.231-1.231,1.231,1.231,0,0,1,1.231-1.23h3.228a1.232,1.232,0,0,1,1.028.555l3.444,5.242a1.231,1.231,0,0,1-.353,1.7A1.225,1.225,0,0,1,225.721-125.967Z" transform="translate(-173.351 174.047)" fill="#1874ff"/><path d="M190.209-131.609H151.383a1.231,1.231,0,0,1-1.23-1.231v-44.268a1.231,1.231,0,0,1,1.23-1.23,1.231,1.231,0,0,1,1.231,1.23v43.038h36.364v-3.319H157.025a1.231,1.231,0,0,1-1.23-1.23v-42.549a1.231,1.231,0,0,1,1.23-1.231,1.231,1.231,0,0,1,1.231,1.231v41.318h31.953a1.231,1.231,0,0,1,1.23,1.23v5.78A1.231,1.231,0,0,1,190.209-131.609Z" transform="translate(-150.153 190.754)" fill="#1874ff"/></svg>