<svg xmlns="http://www.w3.org/2000/svg" width="57.519" height="66.373" viewBox="0 0 57.519 66.373"><g transform="translate(0 0)"><path d="M31.181-148.823a19.727,19.727,0,0,0,5.637-13.851A19.929,19.929,0,0,0,16.911-182.58,19.929,19.929,0,0,0-2.995-162.674a19.719,19.719,0,0,0,5.631,13.844,19.565,19.565,0,0,0,3.6,2.941v4.923A2.326,2.326,0,0,0,4.393-138.7v6.082a2.323,2.323,0,0,0,2.32,2.32H8.087v1.883a2.853,2.853,0,0,0,2.849,2.849h11.95a2.853,2.853,0,0,0,2.849-2.849V-130.3h1.373a2.323,2.323,0,0,0,2.32-2.32V-138.7a2.326,2.326,0,0,0-1.847-2.263v-4.923A19.515,19.515,0,0,0,31.181-148.823ZM22.862-130.3v1.859l-11.9.024V-130.3Zm3.694-7.849v4.975H7.267v-4.975Zm-9.645-41.556a17.052,17.052,0,0,1,17.033,17.032,16.884,16.884,0,0,1-4.828,11.852,16.739,16.739,0,0,1-3.689,2.88,1.441,1.441,0,0,0-.718,1.244v5.675h-2.1v-8.149l4.162-5.974a1.27,1.27,0,0,0,.23-.731v-4.993a4.2,4.2,0,0,0,2.922-4,4.212,4.212,0,0,0-4.2-4.214,4.239,4.239,0,0,0-4.2,4.064v.15a4.2,4.2,0,0,0,2.922,4v4.592L20.278-150.3a1.272,1.272,0,0,0-.229.731v8.55H18.19v-25.7a4.19,4.19,0,0,0,2.948-4.006,4.213,4.213,0,0,0-4.2-4.215,4.24,4.24,0,0,0-4.2,4.065v.15a4.2,4.2,0,0,0,2.9,3.99v25.715H13.824v-14.726a1.285,1.285,0,0,0-.609-1.089L7.74-160.2v-2.169a4.194,4.194,0,0,0,2.923-4,4.213,4.213,0,0,0-4.2-4.215,4.241,4.241,0,0,0-4.2,4.064v.151a4.2,4.2,0,0,0,2.924,4v2.884a1.286,1.286,0,0,0,.609,1.089l5.475,3.365v14.011H9.114V-146.7a1.441,1.441,0,0,0-.718-1.243A16.766,16.766,0,0,1,4.7-150.828l0,0A16.87,16.87,0,0,1-.121-162.674,17.052,17.052,0,0,1,16.911-179.706ZM4.817-166.374v-.08a1.654,1.654,0,0,1,1.646-1.575,1.653,1.653,0,0,1,1.644,1.658,1.646,1.646,0,0,1-1.644,1.644A1.648,1.648,0,0,1,4.817-166.374Zm12.119-6.012a1.653,1.653,0,0,1,1.645,1.658,1.647,1.647,0,0,1-1.645,1.645,1.647,1.647,0,0,1-1.644-1.649l0-.079A1.655,1.655,0,0,1,16.936-172.386Zm8.783,5.86a1.652,1.652,0,0,1,1.644,1.657,1.646,1.646,0,0,1-1.644,1.645,1.647,1.647,0,0,1-1.644-1.649l0-.079A1.655,1.655,0,0,1,25.719-166.526Z" transform="translate(11.848 191.941)" fill="#06f"/><path d="M26.547-190.109a1.439,1.439,0,0,0,1.437-1.437v-3.842a1.439,1.439,0,0,0-1.437-1.437,1.439,1.439,0,0,0-1.437,1.437v3.842A1.439,1.439,0,0,0,26.547-190.109Z" transform="translate(2.213 196.825)" fill="#06f"/><path d="M-1.152-179.477h0a1.43,1.43,0,0,0,1.017.421,1.427,1.427,0,0,0,1.016-.421,1.44,1.44,0,0,0,0-2.033l-2.717-2.716a1.428,1.428,0,0,0-1.017-.421h0a1.425,1.425,0,0,0-1.015.421,1.428,1.428,0,0,0-.421,1.016,1.425,1.425,0,0,0,.421,1.015Z" transform="translate(12.292 192.65)" fill="#06f"/><path d="M-11.187-155.248H-15.03a1.439,1.439,0,0,0-1.437,1.437,1.439,1.439,0,0,0,1.437,1.437h3.842a1.439,1.439,0,0,0,1.437-1.437A1.438,1.438,0,0,0-11.187-155.248Z" transform="translate(16.467 182.571)" fill="#06f"/><path d="M-1.152-129.554l-2.717,2.717a1.427,1.427,0,0,0-.421,1.016,1.428,1.428,0,0,0,.421,1.016,1.425,1.425,0,0,0,1.016.421,1.426,1.426,0,0,0,1.016-.421l2.717-2.717a1.427,1.427,0,0,0,.421-1.016,1.427,1.427,0,0,0-.421-1.016A1.473,1.473,0,0,0-1.152-129.554Z" transform="translate(12.292 173.902)" fill="#06f"/><path d="M54.53-184.647h0a1.425,1.425,0,0,0-1.016.421L50.8-181.51a1.44,1.44,0,0,0,0,2.033,1.427,1.427,0,0,0,1.016.421,1.427,1.427,0,0,0,1.016-.421l2.717-2.717a1.424,1.424,0,0,0,.421-1.015,1.427,1.427,0,0,0-.421-1.016A1.425,1.425,0,0,0,54.53-184.647Z" transform="translate(-6.45 192.65)" fill="#06f"/><path d="M66.119-155.248H62.277a1.438,1.438,0,0,0-1.437,1.437,1.439,1.439,0,0,0,1.437,1.437h3.842a1.439,1.439,0,0,0,1.437-1.437A1.439,1.439,0,0,0,66.119-155.248Z" transform="translate(-10.037 182.571)" fill="#06f"/><path d="M52.828-129.554a1.472,1.472,0,0,0-2.032,0,1.427,1.427,0,0,0-.421,1.016,1.427,1.427,0,0,0,.421,1.016l2.717,2.717a1.427,1.427,0,0,0,1.017.421,1.426,1.426,0,0,0,1.016-.421,1.427,1.427,0,0,0,.421-1.016,1.426,1.426,0,0,0-.421-1.016Z" transform="translate(-6.449 173.902)" fill="#06f"/></g></svg>