<svg xmlns="http://www.w3.org/2000/svg" xmlns:xlink="http://www.w3.org/1999/xlink" width="242.168" height="258.828" viewBox="0 0 242.168 258.828"><defs><linearGradient id="a" x1="1.025" y1="-1.199" x2="1.68" y2="-1.199" gradientUnits="objectBoundingBox"><stop offset="0" stop-color="#c0bff6"/><stop offset="0.294" stop-color="#c4c3f6"/><stop offset="0.64" stop-color="#d2d2f9"/><stop offset="1" stop-color="#e9e9fd"/></linearGradient><linearGradient id="b" x1="5.039" y1="0.5" x2="5.556" y2="0.5" gradientUnits="objectBoundingBox"><stop offset="0.355" stop-color="#bcbeff"/><stop offset="0.444" stop-color="#b5b7fc"/><stop offset="0.569" stop-color="#a2a6f5"/><stop offset="0.718" stop-color="#848ae8"/><stop offset="0.881" stop-color="#5a63d8"/><stop offset="0.892" stop-color="#5761d7"/></linearGradient><linearGradient id="c" x1="0.916" y1="-1.149" x2="1.57" y2="-1.149" gradientUnits="objectBoundingBox"><stop offset="0" stop-color="#e9e9fd"/><stop offset="0.36" stop-color="#d2d2f9"/><stop offset="0.706" stop-color="#c4c3f6"/><stop offset="1" stop-color="#c0bff6"/></linearGradient><linearGradient id="d" x1="1.438" y1="-0.388" x2="-1.193" y2="0.074" gradientUnits="objectBoundingBox"><stop offset="0" stop-color="#bcbeff"/><stop offset="0.147" stop-color="#b5b7fc"/><stop offset="0.356" stop-color="#a2a6f5"/><stop offset="0.602" stop-color="#848ae8"/><stop offset="0.874" stop-color="#5a63d8"/><stop offset="0.892" stop-color="#5761d7"/></linearGradient><linearGradient id="e" x1="1.404" y1="-0.268" x2="-0.622" y2="-0.792" xlink:href="#c"/><linearGradient id="f" x1="5.29" y1="0.216" x2="6.496" y2="-0.833" gradientUnits="objectBoundingBox"><stop offset="0" stop-color="#e9e9fd"/><stop offset="0.536" stop-color="#d0d0f8"/><stop offset="1" stop-color="#c0bff6"/></linearGradient><clipPath id="g"><path d="M3992.985,672.552l-6.392,3.714c10.871-6.317,17.516-19.879,17.336-39.083l6.392-3.715C4010.5,652.672,4003.856,666.234,3992.985,672.552Z" transform="translate(-3986.593 -633.468)" fill="none"/></clipPath><clipPath id="h"><path d="M3799.834,399.551l6.392-3.714c10.492-6.1,24.914-5.462,40.946,3.357.278.154.559.309.84.472.312.175.625.352.935.532,32.284,18.637,58.676,63.56,59.3,101.2l-6.392,3.715c-.628-37.643-27.021-82.566-59.3-101.2-.311-.179-.624-.357-.935-.531-.281-.162-.562-.318-.84-.472C3824.748,394.089,3810.325,393.454,3799.834,399.551Z" transform="translate(-3799.834 -391.821)" fill="none"/></clipPath></defs><g transform="translate(-1244.13 -3600.603)"><g transform="translate(818.533 3455.873)"><path d="M527.256,164.153a7.874,7.874,0,0,1-3.859-.887L492.37,145.353a2.87,2.87,0,0,1-1.644-2.431,3.841,3.841,0,0,1,2.254-3.077l29.806-17.209c2.6-1.5,6.57-1.661,8.837-.352L562.649,140.2a2.867,2.867,0,0,1,1.645,2.431,3.847,3.847,0,0,1-2.254,3.077l-29.807,17.207A10.229,10.229,0,0,1,527.256,164.153Zm.508-42.066a9.517,9.517,0,0,0-4.63,1.157l-29.806,17.209a3.192,3.192,0,0,0-1.9,2.47,2.207,2.207,0,0,0,1.293,1.824l31.027,17.914c2.076,1.2,5.727,1.04,8.139-.352L561.691,145.1a3.192,3.192,0,0,0,1.9-2.47A2.205,2.205,0,0,0,562.3,140.8l-31.026-17.912A7.163,7.163,0,0,0,527.764,122.087Z" transform="translate(48.866 35.25)" fill="#6b5e9a" opacity="0.7"/><path d="M461.466,271.4a3.979,3.979,0,0,1-1.966-.46l-15.03-8.676a1.563,1.563,0,0,1-.887-1.335,2.03,2.03,0,0,1,1.181-1.645l14.44-8.337a4.874,4.874,0,0,1,4.461-.172l15.031,8.678a1.559,1.559,0,0,1,.886,1.334,2.027,2.027,0,0,1-1.181,1.645l-14.438,8.338A5.1,5.1,0,0,1,461.466,271.4Zm.245-20.38a4.459,4.459,0,0,0-2.158.532l-14.438,8.335c-.52.3-.833.691-.833,1.041a.917.917,0,0,0,.539.73l15.031,8.676a4.259,4.259,0,0,0,3.761-.17l14.438-8.337c.522-.3.833-.691.833-1.041a.919.919,0,0,0-.537-.728l-15.031-8.678A3.276,3.276,0,0,0,461.711,251.016Z" transform="translate(13.495 131.972)" fill="#6b5e9a" opacity="0.7"/><path d="M554.02,252.546a3.98,3.98,0,0,1-1.966-.46l-15.03-8.678a1.555,1.555,0,0,1-.887-1.334,2.026,2.026,0,0,1,1.183-1.645l14.44-8.337a4.874,4.874,0,0,1,4.46-.17l15.03,8.678a1.559,1.559,0,0,1,.887,1.334,2.023,2.023,0,0,1-1.181,1.645l-14.44,8.335A5.077,5.077,0,0,1,554.02,252.546ZM552.4,251.48a4.263,4.263,0,0,0,3.763-.17l14.44-8.337c.52-.3.832-.688.832-1.04a.919.919,0,0,0-.537-.73l-15.03-8.678a4.265,4.265,0,0,0-3.761.172l-14.442,8.337c-.52.3-.832.69-.832,1.04a.914.914,0,0,0,.536.728Z" transform="translate(82.937 117.83)" fill="#6b5e9a" opacity="0.7"/><g transform="translate(425.597 74.415)"><g transform="translate(0 153.783)"><path d="M533.188,318.129l122.137-70.516c1.964-1.134,1.717-3.114-.55-4.421l-95-54.851c-2.267-1.309-5.7-1.451-7.659-.319L429.976,258.538c-1.962,1.134-1.715,3.114.551,4.423l95,54.851C527.8,319.119,531.226,319.261,533.188,318.129Z" transform="translate(-423.305 -143.532)" fill="#0b0244" opacity="0.4"/><path d="M527.158,313.759a9.259,9.259,0,0,1-4.507-1.122l-95-54.851a3.5,3.5,0,0,1-2.051-2.806,2.618,2.618,0,0,1,1.5-2.223l122.137-70.516c2.057-1.187,5.65-1.043,8.008.317l95,54.851a3.5,3.5,0,0,1,2.051,2.806,2.62,2.62,0,0,1-1.5,2.223L530.658,312.953A7.132,7.132,0,0,1,527.158,313.759Zm25.575-131.632a6.405,6.405,0,0,0-3.149.723L427.445,253.365a1.957,1.957,0,0,0-1.15,1.615,2.849,2.849,0,0,0,1.7,2.2l95,54.852a8.157,8.157,0,0,0,7.311.317L652.447,241.83a1.955,1.955,0,0,0,1.148-1.616,2.843,2.843,0,0,0-1.7-2.2l-95.006-54.851A8.534,8.534,0,0,0,552.733,182.126Z" transform="translate(-425.597 -147.899)" fill="#6b5e9a" opacity="0.7"/><g transform="translate(3.669 21.213)"><path d="M529.182,301.45l118.575-68.459c1.906-1.1,1.668-3.023-.534-4.292L554.99,175.447a8.261,8.261,0,0,0-7.435-.308L428.979,243.6c-1.906,1.1-1.666,3.021.534,4.292l92.233,53.251A8.261,8.261,0,0,0,529.182,301.45Z" transform="translate(-427.693 -174.395)" fill="url(#a)"/></g><path d="M425.8,228l32.394-2.111,91.064-52.577c1.962-1.132,5.391-.991,7.658.319L628.236,214.8l25.556-1.665v17.832h-.025a2.246,2.246,0,0,1-1.3,1.927L530.33,303.415c-1.964,1.132-5.393.991-7.659-.317l-95-54.851a3.186,3.186,0,0,1-1.855-2.422l-.016,0Z" transform="translate(-425.448 -154.571)" fill="url(#b)"/><path d="M530.332,293.147l122.137-70.516c1.962-1.134,1.715-3.114-.551-4.423l-95-54.851c-2.267-1.307-5.7-1.451-7.657-.317L427.119,233.557c-1.964,1.132-1.717,3.114.55,4.421l95,54.851C524.939,294.138,528.368,294.28,530.332,293.147Z" transform="translate(-425.449 -162.276)" fill="url(#c)"/></g><path d="M652.459,196.506,530.322,267.022c-1.964,1.134-5.393.991-7.659-.317l-95-54.851a3.786,3.786,0,0,1-1.719-1.784c-.422,1.045.154,2.263,1.719,3.166l95,54.851c2.267,1.309,5.7,1.451,7.659.319l122.137-70.517a2.072,2.072,0,0,0,1.167-2.638A2.59,2.59,0,0,1,652.459,196.506Z" transform="translate(-425.44 16.248)" fill="#fff"/></g><g transform="translate(621.333 148.542)"><path d="M358.575,287.485l-23.216-13.4,23.215-13.4,23.216,13.4Z" transform="translate(-335.359 -220.468)" fill="#0b0244" opacity="0.4"/><path d="M358.575,285.54l-23.216-13.4V245.331l23.216,13.4Z" transform="translate(-335.359 -231.927)" fill="url(#d)"/><path d="M371.866,272.137l-23.216,13.4V258.734l23.216-13.4Z" transform="translate(-325.435 -231.927)" fill="url(#e)"/><path d="M358.575,264.464l-23.216-13.4,23.215-13.4,23.216,13.4Z" transform="translate(-335.359 -237.657)" fill="url(#f)"/><path d="M358.575,257.962,336.21,245.049l-.85.491,23.216,13.4,23.215-13.4-.85-.491Z" transform="translate(-335.359 -232.137)" fill="#fff"/></g></g><g transform="translate(-2473.421 3208.782)"><g transform="translate(3761.524 391.821)" style="isolation:isolate"><g transform="translate(102.061 109.579)" style="isolation:isolate"><g clip-path="url(#g)"><g style="isolation:isolate"><path d="M4024.824,637.183l6.392-3.715q.006.588,0,1.168l-6.392,3.714q0-.58,0-1.167" transform="translate(-4007.487 -633.468)" fill="#006eb8"/><path d="M4024.749,639.757l6.392-3.714q-.007,1.442-.067,2.841l-6.392,3.715q.059-1.4.067-2.841" transform="translate(-4007.41 -634.875)" fill="#006bb3"/><path d="M4024.471,646.023l6.392-3.715q-.06,1.437-.175,2.828l-6.392,3.715q.114-1.39.175-2.828" transform="translate(-4007.199 -638.299)" fill="#0068ad"/><path d="M4023.945,652.259l6.392-3.715q-.118,1.433-.292,2.815l-6.392,3.715q.173-1.382.292-2.815" transform="translate(-4006.848 -641.708)" fill="#0065a8"/><path d="M4023.135,658.467l6.392-3.715q-.183,1.467-.429,2.875l-6.392,3.715q.245-1.408.429-2.875" transform="translate(-4006.33 -645.1)" fill="#0062a3"/><path d="M4022.019,664.806l6.392-3.715q-.253,1.453-.57,2.843l-6.392,3.714q.317-1.39.57-2.843" transform="translate(-4005.643 -648.565)" fill="#005f9e"/><path d="M4020.489,671.075l6.392-3.714q-.359,1.573-.8,3.065l-6.392,3.714q.438-1.492.8-3.065" transform="translate(-4004.683 -651.992)" fill="#005c99"/><path d="M4018.421,677.835l6.392-3.714q-.481,1.637-1.055,3.175l-6.391,3.715q.573-1.537,1.055-3.175" transform="translate(-4003.412 -655.686)" fill="#005994"/><path d="M4015.616,684.837l6.391-3.715q-.665,1.783-1.451,3.428l-6.392,3.715q.786-1.645,1.452-3.428" transform="translate(-4001.662 -659.513)" fill="#00568f"/><path d="M4011.452,692.4l6.392-3.715a37.383,37.383,0,0,1-2.25,4.057l-6.392,3.715a37.381,37.381,0,0,0,2.25-4.057" transform="translate(-3998.95 -663.644)" fill="#00538a"/><path d="M3996.845,701.344l6.392-3.715a30.224,30.224,0,0,1-10.252,9.989l-6.392,3.714a30.221,30.221,0,0,0,10.252-9.989" transform="translate(-3986.593 -668.534)" fill="#005085"/></g></g></g><g transform="translate(0 3.715)"><path d="M3880.922,509.591c.352,37.655-25.532,53.617-58.066,35.81q-1.026-.552-2.044-1.141c-31.948-18.445-58.288-62.82-59.275-100.417-.671-38.22,25.434-54.541,58.306-36.459.278.154.559.309.84.472.312.174.625.352.935.531C3853.9,427.026,3880.293,471.949,3880.922,509.591Z" transform="translate(-3761.524 -400.012)" fill="#005289"/><path d="M3884.077,476.506c.9,1.481,1.746,2.831,2.554,4.21s1.526,2.737,2.265,4.07a4.543,4.543,0,0,1,4.228.081c1.579.912,3.033,2.966,4.665,6.356-.322.207-.645.438-.988.629q-4.845,2.731-9.7,5.442c-1.561.891-2.807,1.042-4.079.307a12.817,12.817,0,0,1-3.679-4.133l-4.978,2.617a23.818,23.818,0,0,0,8.588,9.4c2.722,1.571,5.457,2.046,7.657,1.071a4.3,4.3,0,0,0,.386-.194c5.408-2.956,10.761-6.02,16.138-9.04a4.757,4.757,0,0,0,.622-.494c-2.245-3.866-4.435-7.646-6.641-11.425a23.415,23.415,0,0,0-8.134-8.58c-2.95-1.7-5.9-2.112-8.16-.824a5.794,5.794,0,0,0-.744.507" transform="translate(-3823.195 -441.128)" fill="#fff"/><path d="M3802.247,474.051c-3.9,3.129-3.29,11.456,1.356,18.624l4.828-2.681c-2.586-5.511-2.184-8.176,1.5-8.97q6.061,10.422,12.135,20.888a5.546,5.546,0,0,1,.385,1.1c.845,2.733.284,5.033-1.37,5.623l4.729,8.255c4.735-1.7,5.458-9.292,1.617-16.944-.127-.25-.257-.5-.392-.746-4.778-8.63-9.844-17.119-14.775-25.672-.759-1.314-1.462-2.647-2.028-3.654a50.194,50.194,0,0,0-7.981,4.173" transform="translate(-3782.377 -438.196)" fill="#fff"/><path d="M3855.207,630.725c2.636,1.069,5.035.9,6.741-.477-1.5-2.556-2.9-4.965-4.312-7.364-.173-.293-.367-.575-.537-.844a5.479,5.479,0,0,1-4.175-.484c-1.679-.969-3.11-2.991-4.477-6.2,3.887-2.2,7.756-4.445,11.671-6.61a2.91,2.91,0,0,1,2.9.289,6.686,6.686,0,0,1,1.249.948,29.37,29.37,0,0,1,2.694,3.284l4.772-2.7a23.555,23.555,0,0,0-8.558-9.443c-2.632-1.52-5.279-2-7.431-1.1-.035.017-.073.031-.107.048-3.464,1.652-6.732,3.664-10.082,5.522-2.4,1.319-4.784,2.669-7.066,3.947,2.516,4.429,4.844,8.791,7.416,12.985a21.577,21.577,0,0,0,7.116,7.2,12.3,12.3,0,0,0,2.19,1.006" transform="translate(-3803.586 -509.076)" fill="#fff"/><path d="M3949.426,611.311c1.546-4.056.207-10.354-3.336-15.7l-4.732,2.693c2.611,5.733,2.339,7.635-1.417,8.969-3.985-6.846-8.009-13.682-11.913-20.574a7.262,7.262,0,0,1-.944-3.607,16.191,16.191,0,0,1,1.281-3.9l-4.6-7.916a3.364,3.364,0,0,0-.459.212c-4.473,2.573-4.479,10.906-.015,18.615.156.267.312.53.477.792q7.614,13.208,15.3,26.377c.262.455.586.895.8,1.23,2.527-1.354,5.067-2.523,7.386-4.05a6.45,6.45,0,0,0,2.169-3.139" transform="translate(-3848.109 -493.613)" fill="#fff"/><path d="M3961.127,581.094c3.638-2.625,3.638-9.723,0-16.523-2.339-4.34-4.973-8.522-7.31-12.488l-8.464,4.806,4.781,8.469,3.661-2.428c.438.833.8,1.581,1.218,2.306,1.987,2.883,2.368,6.366.854,7.784a2.138,2.138,0,0,1-.878.5c-1.081.629-2.178,1.228-3.27,1.827l-6.884,3.837c.248.48.39.788.551,1.081,1.389,2.43,2.753,4.858,4.012,7.087,4.073-2.131,8.147-3.8,11.727-6.257" transform="translate(-3861.711 -483.124)" fill="#fff"/><path d="M3847.141,450.148c-2.972.953-5.55,2.714-8.094,4.008l8.678,14.937,4.787-2.731c-.56-.91-1.195-1.993-1.879-3.031s-1.4-2.017-2.343-3.355c.915-.325,1.365-.425,1.765-.624.92-.784,2.269-.691,3.628.094a9.061,9.061,0,0,1,2.892,2.841,11.621,11.621,0,0,1,.756,1.323q1.683,2.887,3.353,5.778l6.583,11.375,4.883-2.722c-3.691-6.41-7.263-12.944-11.145-19.267a21.826,21.826,0,0,0-7.253-7.364c-2.319-1.339-4.646-1.836-6.61-1.26" transform="translate(-3803.893 -427.284)" fill="#fff"/><path d="M3898.938,657.786a53.333,53.333,0,0,0,8.674-4.109l-8.675-14.868-4.807,2.719,3.68,5.961c-1.672,1.561-3.321,1.836-4.98.878-1.48-.855-2.969-2.691-4.487-5.471-2.663-4.877-5.555-9.645-8.36-14.457-.294-.51-.635-1-.834-1.308l-4.5,2.467c3.757,6.728,7.339,13.654,11.406,20.268a20.735,20.735,0,0,0,6.706,6.663,8.4,8.4,0,0,0,6.176,1.258" transform="translate(-3823.351 -524.14)" fill="#fff"/><path d="M3801.488,535.756q3.681,7.314,7.893,14.384l8.6-4.826-4.822-8.273-3.449,2.377c-.516-.971-.816-1.607-1.171-2.219-2.074-2.89-2.56-6.486-1.079-8.027a2.209,2.209,0,0,1,1.086-.626q3.634-2.045,7.272-4.075c.907-.49,1.85-.915,2.559-1.262l-5.05-8.658c-3.332,1.885-6.8,3.84-10.268,5.815-3.958,1.96-4.63,8.507-1.575,15.389" transform="translate(-3782.322 -462.612)" fill="#fff"/><path d="M3911.055,622.094l-14.825,8.325,4.427,7.694,14.854-8.312-4.456-7.707" transform="translate(-3835.146 -521.387)" fill="#fff"/><path d="M3851.68,503.768l14.927-8.36-4.378-7.556-14.912,8.359,4.363,7.557" transform="translate(-3808.413 -448.02)" fill="#fff"/><path d="M3844.453,568.665,3829.96,543.69l-4.571,2.383,14.585,25.132,4.479-2.539" transform="translate(-3796.428 -478.537)" fill="#fff"/><path d="M3923.069,540.741l-4.5,2.542,14.531,25,4.47-2.534-14.5-25.005" transform="translate(-3847.353 -476.926)" fill="#fff"/></g><g transform="translate(17.372)" style="isolation:isolate"><g clip-path="url(#h)"><g transform="translate(0 0)" style="isolation:isolate"><path d="M3799.834,401.7l6.392-3.714a28.594,28.594,0,0,1,4.82-2.229l-6.392,3.715a28.59,28.59,0,0,0-4.819,2.228" transform="translate(-3799.834 -393.974)" fill="#005085"/><path d="M3810.462,398.088l6.392-3.715a30.232,30.232,0,0,1,4.2-1.151l-6.392,3.714a30.259,30.259,0,0,0-4.2,1.152" transform="translate(-3805.643 -392.587)" fill="#00538a"/><path d="M3819.715,396.347l6.392-3.714a32.487,32.487,0,0,1,3.388-.489l-6.392,3.714a32.719,32.719,0,0,0-3.388.489" transform="translate(-3810.7 -391.997)" fill="#00568f"/><path d="M3827.187,395.682l6.392-3.714q1.492-.137,3.039-.146l-6.392,3.714q-1.545.008-3.039.146" transform="translate(-3814.783 -391.821)" fill="#005994"/><path d="M3833.888,395.536l6.392-3.714q1.409-.007,2.86.093l-6.392,3.715q-1.451-.1-2.859-.094" transform="translate(-3818.446 -391.821)" fill="#005c99"/><path d="M3840.194,395.743l6.392-3.715q1.3.09,2.631.269l-6.392,3.715q-1.331-.179-2.631-.269" transform="translate(-3821.892 -391.934)" fill="#005f9e"/><path d="M3846,396.337l6.392-3.715q1.267.17,2.562.421l-6.392,3.715q-1.294-.251-2.562-.421" transform="translate(-3825.063 -392.259)" fill="#0062a3"/><path d="M3851.645,397.266l6.392-3.715q1.236.24,2.5.555l-6.392,3.714q-1.259-.314-2.5-.554" transform="translate(-3828.15 -392.766)" fill="#0065a8"/><path d="M3857.149,398.488l6.392-3.714q1.2.3,2.425.669l-6.392,3.714q-1.223-.369-2.425-.669" transform="translate(-3831.158 -393.435)" fill="#0068ad"/><path d="M3862.5,399.963l6.392-3.714q1.2.362,2.42.791l-6.392,3.714q-1.219-.429-2.42-.791" transform="translate(-3834.082 -394.241)" fill="#006bb3"/><path d="M3867.833,401.708l6.392-3.714q1.184.417,2.386.9l-6.392,3.715q-1.2-.481-2.386-.9" transform="translate(-3836.998 -395.195)" fill="#006eb8"/><path d="M3873.094,403.688l6.392-3.715q1.193.477,2.4,1.018l-6.392,3.714q-1.208-.541-2.4-1.018" transform="translate(-3839.873 -396.276)" fill="#0071bd"/><path d="M3878.389,405.933l6.392-3.714q1.2.537,2.417,1.139l-6.392,3.714q-1.217-.6-2.417-1.139" transform="translate(-3842.767 -397.504)" fill="#0074c2"/><path d="M3883.72,408.445l6.392-3.714q1.214.6,2.442,1.265l-6.392,3.714q-1.227-.664-2.441-1.265" transform="translate(-3845.681 -398.877)" fill="#0077c7"/><path d="M3889.1,411.234l6.392-3.714.465.254c.278.154.559.309.84.472.312.175.625.352.935.532q.293.168.584.34l-6.392,3.715-.583-.34c-.311-.179-.624-.357-.935-.531-.281-.162-.562-.318-.84-.472l-.465-.254" transform="translate(-3848.623 -400.401)" fill="#007acc"/><path d="M3895.33,414.756l6.392-3.715q1.262.743,2.512,1.539l-6.392,3.714q-1.25-.8-2.512-1.538" transform="translate(-3852.026 -402.325)" fill="#007dd1"/><path d="M3900.869,418.148l6.392-3.714q1.27.808,2.525,1.669l-6.392,3.714q-1.256-.86-2.526-1.669" transform="translate(-3855.053 -404.18)" fill="#0081d6"/><path d="M3906.438,421.828l6.392-3.714q1.3.89,2.58,1.834l-6.392,3.715q-1.281-.944-2.58-1.834" transform="translate(-3858.097 -406.191)" fill="#0084db"/><path d="M3912.127,425.873l6.392-3.715q1.316.969,2.614,1.993l-6.392,3.715q-1.3-1.024-2.613-1.993" transform="translate(-3861.206 -408.401)" fill="#0087e0"/><path d="M3917.89,430.268l6.392-3.715q1.332,1.051,2.642,2.157l-6.392,3.715q-1.31-1.106-2.642-2.157" transform="translate(-3864.356 -410.803)" fill="#008ae6"/><path d="M3923.716,435.025l6.392-3.715q1.337,1.128,2.651,2.312l-6.392,3.715q-1.314-1.184-2.651-2.312" transform="translate(-3867.54 -413.403)" fill="#008deb"/><path d="M3929.561,440.124l6.392-3.715q1.319,1.188,2.612,2.43l-6.392,3.714q-1.293-1.241-2.613-2.43" transform="translate(-3870.734 -416.19)" fill="#0090f0"/><path d="M3935.322,445.482l6.392-3.714q1.27,1.218,2.514,2.485l-6.392,3.715q-1.244-1.267-2.514-2.485" transform="translate(-3873.883 -419.119)" fill="#0093f5"/><path d="M3940.866,450.963l6.392-3.715q1.229,1.252,2.431,2.547l-6.392,3.715q-1.2-1.3-2.43-2.547" transform="translate(-3876.913 -422.114)" fill="#0096fa"/><path d="M3946.226,456.58l6.392-3.715q1.176,1.268,2.325,2.577l-6.392,3.715q-1.149-1.309-2.325-2.577" transform="translate(-3879.842 -425.184)" fill="#09f"/><path d="M3951.353,462.262l6.392-3.715q1.165,1.327,2.3,2.693l-6.392,3.715q-1.136-1.367-2.3-2.693" transform="translate(-3882.644 -428.289)" fill="#1fa5ff"/><path d="M3956.428,468.2l6.392-3.715q1.147,1.379,2.263,2.8L3958.691,471q-1.115-1.417-2.263-2.8" transform="translate(-3885.418 -431.535)" fill="#2baaff"/><path d="M3961.419,474.368l6.392-3.715q1.341,1.7,2.634,3.455l-6.392,3.714q-1.294-1.752-2.634-3.455" transform="translate(-3888.146 -434.905)" fill="#35aeff"/><path d="M3967.228,481.986l6.392-3.714q1.9,2.575,3.693,5.249l-6.392,3.715q-1.792-2.673-3.693-5.25" transform="translate(-3891.321 -439.069)" fill="#3db1ff"/><path d="M3975.372,493.563l6.392-3.715q2.512,3.747,4.8,7.661l-6.392,3.715q-2.281-3.908-4.8-7.661" transform="translate(-3895.771 -445.396)" fill="#44b4ff"/><path d="M3985.95,510.457l6.392-3.715q1.433,2.456,2.77,4.966l-6.392,3.715q-1.335-2.509-2.77-4.966" transform="translate(-3901.552 -454.629)" fill="#3db1ff"/><path d="M3992.058,521.409l6.392-3.715q.886,1.664,1.727,3.348l-6.392,3.715q-.84-1.684-1.727-3.348" transform="translate(-3904.891 -460.615)" fill="#35aeff"/><path d="M3995.867,528.793l6.392-3.715q.791,1.583,1.541,3.183l-6.392,3.714q-.749-1.6-1.541-3.182" transform="translate(-3906.973 -464.65)" fill="#2baaff"/><path d="M3999.265,535.811l6.392-3.714q.666,1.42,1.3,2.85l-6.392,3.715q-.633-1.43-1.3-2.85" transform="translate(-3908.83 -468.486)" fill="#1fa5ff"/><path d="M4002.127,542.1l6.392-3.715q.632,1.429,1.229,2.867l-6.392,3.715q-.6-1.438-1.229-2.867" transform="translate(-3910.394 -471.921)" fill="#09f"/><path d="M4004.837,548.418l6.392-3.715q.6,1.433,1.155,2.872l-6.392,3.715q-.56-1.439-1.155-2.872" transform="translate(-3911.875 -475.376)" fill="#0096fa"/><path d="M4007.385,554.752l6.392-3.715q.564,1.451,1.093,2.908l-6.392,3.715q-.528-1.456-1.093-2.908" transform="translate(-3913.267 -478.838)" fill="#0093f5"/><path d="M4009.794,561.164l6.392-3.715q.55,1.518,1.06,3.041l-6.392,3.715q-.509-1.522-1.06-3.04" transform="translate(-3914.584 -482.342)" fill="#0090f0"/><path d="M4012.131,567.869l6.392-3.715q.513,1.534.984,3.07l-6.392,3.715q-.471-1.537-.984-3.07" transform="translate(-3915.862 -486.007)" fill="#008deb"/><path d="M4014.3,574.64l6.392-3.715q.483,1.575.921,3.152l-6.392,3.714q-.437-1.576-.921-3.152" transform="translate(-3917.048 -489.707)" fill="#008ae6"/><path d="M4016.332,581.59l6.392-3.714q.437,1.573.827,3.146l-6.392,3.715q-.39-1.573-.827-3.147" transform="translate(-3918.157 -493.506)" fill="#0087e0"/><path d="M4018.155,588.529l6.392-3.715q.389,1.568.73,3.133l-6.392,3.714q-.342-1.564-.73-3.133" transform="translate(-3919.154 -497.298)" fill="#0084db"/><path d="M4019.765,595.438l6.392-3.714q.337,1.545.627,3.086l-6.392,3.715q-.29-1.541-.627-3.087" transform="translate(-3920.034 -501.075)" fill="#0081d6"/><path d="M4021.148,602.245l6.392-3.715q.286,1.52.524,3.034l-6.392,3.715q-.238-1.513-.524-3.034" transform="translate(-3920.79 -504.794)" fill="#007dd1"/><path d="M4022.3,608.935l6.392-3.715q.236,1.494.425,2.98l-6.392,3.715q-.189-1.486-.425-2.98" transform="translate(-3921.421 -508.451)" fill="#007acc"/><path d="M4023.24,615.507l6.392-3.715q.187,1.471.327,2.933l-6.392,3.714q-.14-1.461-.327-2.932" transform="translate(-3921.933 -512.042)" fill="#0077c7"/><path d="M4023.96,621.973l6.392-3.714q.139,1.459.231,2.908l-6.392,3.715q-.092-1.448-.231-2.908" transform="translate(-3922.326 -515.577)" fill="#0074c2"/><path d="M4024.47,628.386l6.392-3.715q.091,1.447.135,2.882l-6.392,3.714q-.043-1.434-.135-2.881" transform="translate(-3922.605 -519.081)" fill="#0071bd"/><path d="M4024.767,634.74l6.392-3.714q.016.554.026,1.107l-6.392,3.715q-.01-.553-.026-1.108" transform="translate(-3922.768 -522.555)" fill="#006eb8"/></g></g></g></g></g></g></svg>