<svg xmlns="http://www.w3.org/2000/svg" width="1451.258" height="833.984" viewBox="0 0 1451.258 833.984">
  <g id="Gruppe_8330" data-name="Gruppe 8330" transform="translate(186.865 567.422)">
    <g id="Gruppe_8289" data-name="Gruppe 8289" transform="translate(305.675 86.51)" opacity="0.2">
      <path id="Pfad_16358" data-name="Pfad 16358" d="M314.815-117.553l-12.188,7.082-26.476,0-31.35-18.1H158.322l-50.579-29.2-.022-3.888,25.2-14.645h80.127Z" transform="translate(-107.721 176.308)" fill="#fff"/>
    </g>
    <g id="Gruppe_8329" data-name="Gruppe 8329" transform="translate(-186.865 -567.422)" style="isolation: isolate">
      <g id="Gruppe_8290" data-name="Gruppe 8290" transform="translate(683.923 58.79)">
        <path id="Pfad_16359" data-name="Pfad 16359" d="M230.7-531.412c1.958,1.13,1.97,2.961.023,4.093a7.782,7.782,0,0,1-7.059,0c-1.958-1.13-1.97-2.961-.028-4.09A7.782,7.782,0,0,1,230.7-531.412Z" transform="translate(-222.187 532.26)" fill="#fff"/>
      </g>
      <g id="Gruppe_8291" data-name="Gruppe 8291" transform="translate(695.53 65.491)">
        <path id="Pfad_16360" data-name="Pfad 16360" d="M237.638-527.406c1.958,1.13,1.968,2.961.023,4.091a7.775,7.775,0,0,1-7.061,0c-1.953-1.127-1.963-2.958-.022-4.085A7.772,7.772,0,0,1,237.638-527.406Z" transform="translate(-229.129 528.252)" fill="#fff"/>
      </g>
      <g id="Gruppe_8292" data-name="Gruppe 8292" transform="translate(707.133 72.191)">
        <path id="Pfad_16361" data-name="Pfad 16361" d="M244.581-523.4c1.96,1.13,1.97,2.961.023,4.091a7.777,7.777,0,0,1-7.059,0c-1.958-1.13-1.968-2.961-.028-4.09A7.782,7.782,0,0,1,244.581-523.4Z" transform="translate(-236.069 524.245)" fill="#fff"/>
      </g>
      <g id="Gruppe_8293" data-name="Gruppe 8293" transform="translate(737.18 65.172)">
        <path id="Pfad_16362" data-name="Pfad 16362" d="M583.209-298.393,413.822-199.67l-54.6.2L254.6-259.587l-.562-38.231,131.134-76.493-.757-135.341L407.1-523.12c-1.528-1.334-1.287-3.148.727-4.319a9.241,9.241,0,0,1,8.38,0c2.316,1.336,2.332,3.514.027,4.854a9.394,9.394,0,0,1-7.459.433l-22,12.784.766,135.341L256.409-297.534l.206,37.18L359.7-200.839h52.791L580.85-298.678l-.49-86.045-92.338-53.312-4.126,2.4.055,9.836,61.99,35.789.881,95.072L419.834-220.856l-57.6.2-68.42-39.219-.44-36.805,115.756-67.556-.741-112.193,14.807-.685,159.185,91.621ZM481.94-425.035l-.408-10.883L486.347-439,422.71-475.743H410.759l.734,111.788L295.732-296.4l.1,35.75,66.887,38.617H418.5l125.956-73.2-.525-94.02-61.99-35.79M409.5-526.47c-1.381.8-1.374,2.11.022,2.914a5.546,5.546,0,0,0,5.026,0c1.386-.8,1.378-2.112-.01-2.914a5.551,5.551,0,0,0-5.038,0" transform="translate(-254.04 528.443)" fill="#fff"/>
      </g>
      <g id="Gruppe_8294" data-name="Gruppe 8294" transform="translate(909.364 136.76)" opacity="0.2">
        <path id="Pfad_16363" data-name="Pfad 16363" d="M384.346-475.8l.14,24.8,49.743,28.719.082,15.458L422.3-399.84H384.107l-26.7-15.415-.385-68.378,3.431-1.994,2.98,1.72,6.879,0Z" transform="translate(-357.023 485.626)" fill="#fff"/>
      </g>
      <g id="Gruppe_8295" data-name="Gruppe 8295" transform="translate(371.395 25.078)">
        <path id="Pfad_16364" data-name="Pfad 16364" d="M445.271-373.089,272.947-272.661l-111.494.2-125.7-72.289-.488-25.108,258.1-150.277,30.59-.2,90.569,52.007.859,91.365L262.946-288.093l-98.8.2L82.294-334.866l-.545-35.315L299.876-497.228l29.365-.2,62.553,35.83.843,88.185-76.57,44.782.04,5.956,1.508.871,95.4-55.443-.508-90.315-89.036-51.4H294.7L37.631-369.576l.135,24.058,124.166,71.687,109.685,0L442.9-373.373l-.569-101.8L321.1-545.163a10.94,10.94,0,0,1-8.846-.438c-2.7-1.558-2.714-4.093-.033-5.651a10.766,10.766,0,0,1,9.759,0c2.411,1.391,2.668,3.561.786,5.123l121.581,70.194ZM261.615-289.262l54.332-31.573-1.858-1.072-.381-7.009,76.563-44.78-.49-87.135-61.019-35.228H301.207L84.115-369.9l.2,34.262,80.323,46.374,96.979,0m52.309-257.311a7.067,7.067,0,0,0,6.405,0c1.766-1.027,1.752-2.692-.02-3.715a7.075,7.075,0,0,0-6.412,0c-1.761,1.023-1.746,2.688.027,3.712" transform="translate(-35.265 552.423)" fill="#fff"/>
      </g>
      <g id="Gruppe_8296" data-name="Gruppe 8296" transform="translate(440.453 156.19)">
        <path id="Pfad_16365" data-name="Pfad 16365" d="M171.108-471.341l-.078,12.828-13.723,7.975.07,12.468L125.12-419.324l.145,25.691,48.7,28.115-9.8,5.693-33.591,0-53.83-31.079-.174-30.841,89.923-52.257Z" transform="translate(-76.569 474.006)" fill="#fff" opacity="0.2"/>
      </g>
      <g id="Gruppe_8297" data-name="Gruppe 8297" transform="translate(389.421 266.416)">
        <path id="Pfad_16366" data-name="Pfad 16366" d="M54.562-407.231c1.953,1.127,1.963,2.958.017,4.088a7.787,7.787,0,0,1-7.059,0c-1.958-1.13-1.963-2.964-.023-4.091A7.776,7.776,0,0,1,54.562-407.231Z" transform="translate(-46.047 408.08)" fill="#fff"/>
      </g>
      <g id="Gruppe_8298" data-name="Gruppe 8298" transform="translate(401.028 273.118)">
        <path id="Pfad_16367" data-name="Pfad 16367" d="M61.5-403.227c1.958,1.13,1.968,2.961.023,4.093a7.788,7.788,0,0,1-7.064,0c-1.955-1.127-1.96-2.961-.018-4.088A7.782,7.782,0,0,1,61.5-403.227Z" transform="translate(-52.989 404.071)" fill="#fff"/>
      </g>
      <g id="Gruppe_8299" data-name="Gruppe 8299" transform="translate(412.632 279.816)">
        <path id="Pfad_16368" data-name="Pfad 16368" d="M68.444-399.217c1.953,1.129,1.968,2.963.022,4.093a7.8,7.8,0,0,1-7.064,0c-1.958-1.13-1.963-2.964-.023-4.093A7.786,7.786,0,0,1,68.444-399.217Z" transform="translate(-59.929 400.065)" fill="#fff"/>
      </g>
      <g id="Gruppe_8300" data-name="Gruppe 8300" transform="translate(794.093 262.088)" opacity="0.2">
        <path id="Pfad_16369" data-name="Pfad 16369" d="M358.117-408.634l.029,5.127L347.124-397.1l.04,7.143-36.212,21.044.084,14.961,41.342,23.869-11.437,6.647H319.105l-30.857-17.815-.169-30.89,66.514-38.525Z" transform="translate(-288.08 410.668)" fill="#fff"/>
      </g>
      <g id="Gruppe_8301" data-name="Gruppe 8301" transform="translate(715.366 378.853)">
        <path id="Pfad_16370" data-name="Pfad 16370" d="M249.5-339.985c1.958,1.13,1.968,2.961.023,4.091a7.786,7.786,0,0,1-7.061,0c-1.953-1.127-1.963-2.958-.022-4.086A7.777,7.777,0,0,1,249.5-339.985Z" transform="translate(-240.993 340.831)" fill="#fff"/>
      </g>
      <g id="Gruppe_8302" data-name="Gruppe 8302" transform="translate(726.97 385.553)">
        <path id="Pfad_16371" data-name="Pfad 16371" d="M256.445-335.976c1.958,1.13,1.97,2.961.023,4.091a7.772,7.772,0,0,1-7.059,0c-1.958-1.13-1.968-2.961-.028-4.088A7.782,7.782,0,0,1,256.445-335.976Z" transform="translate(-247.933 336.824)" fill="#fff"/>
      </g>
      <g id="Gruppe_8303" data-name="Gruppe 8303" transform="translate(738.577 392.254)">
        <path id="Pfad_16372" data-name="Pfad 16372" d="M263.388-331.968c1.953,1.129,1.963,2.959.018,4.09a7.785,7.785,0,0,1-7.056,0c-1.958-1.13-1.968-2.961-.027-4.09A7.782,7.782,0,0,1,263.388-331.968Z" transform="translate(-254.875 332.816)" fill="#fff"/>
      </g>
      <g id="Gruppe_8304" data-name="Gruppe 8304" transform="translate(158.629 288.352)" opacity="0.2">
        <path id="Pfad_16373" data-name="Pfad 16373" d="M86.562-357.287l.159,28.2L-43.095-253.644H-83.143l-8.809-5.086-.037-7.5,75.88-44.1H16.584l44.3-25.744-.068-11.1L33.3-363.055l-.081-14.467L18.531-386l-.041-7.237,2.82-1.72Z" transform="translate(91.989 394.96)" fill="#fff"/>
      </g>
      <g id="Gruppe_8305" data-name="Gruppe 8305" transform="translate(1103.873 426.349)">
        <path id="Pfad_16374" data-name="Pfad 16374" d="M481.869-311.576c1.953,1.127,1.965,2.958.023,4.086a7.777,7.777,0,0,1-7.059,0c-1.958-1.13-1.968-2.961-.023-4.091A7.782,7.782,0,0,1,481.869-311.576Z" transform="translate(-473.358 312.424)" fill="#fff"/>
      </g>
      <g id="Gruppe_8306" data-name="Gruppe 8306" transform="translate(1015.613 216.72)">
        <path id="Pfad_16375" data-name="Pfad 16375" d="M796.412-264.512,616.719-159.8l-44.056.2L421.108-246.814l-.538-35.061,113.906-66.481-.368-66.235L564.4-432.48c-1.533-1.331-1.292-3.145.729-4.319a9.243,9.243,0,0,1,8.373,0c2.321,1.339,2.328,3.516.027,4.854a9.361,9.361,0,0,1-7.452.436l-29.6,17.2.373,66.24-113.91,66.483.191,34L573.146-160.97h42.246L794.053-264.8l-.1-17.761L619.927-383.033l-69.1,0-6.086,3.536.207,36.8L444.611-284.1l.2,35.845,9.171,5.3,7.631-4.434-.12-22.446,134.094-78.213,53.294-.2L745.417-292.8l.54,35.207L605.851-175.889l-38.211.2L442.8-247.483l-.56-36.9,100.333-58.593-.2-36.808,7.114-4.421,70.918-.2,175.56,101.076Zm-332.558-5.038.132,22.445a.59.59,0,0,1-.348.482l-7.977,4.636,112.457,64.928,36.4,0,139.073-80.82-.192-34.153-95-54.849H596.921l-133.067,77.33M566.8-435.83c-1.384.8-1.378,2.112.012,2.914a5.552,5.552,0,0,0,5.036,0c1.381-.8,1.374-2.11-.02-2.914a5.55,5.55,0,0,0-5.028,0" transform="translate(-420.57 437.803)" fill="#fff"/>
      </g>
      <g id="Gruppe_8307" data-name="Gruppe 8307" transform="translate(1115.475 433.047)">
        <path id="Pfad_16376" data-name="Pfad 16376" d="M488.809-307.57c1.958,1.13,1.968,2.963.028,4.09a7.786,7.786,0,0,1-7.066,0c-1.958-1.13-1.968-2.961-.022-4.091A7.777,7.777,0,0,1,488.809-307.57Z" transform="translate(-480.297 308.418)" fill="#fff"/>
      </g>
      <g id="Gruppe_8308" data-name="Gruppe 8308" transform="translate(1127.083 439.748)">
        <path id="Pfad_16377" data-name="Pfad 16377" d="M495.75-303.561c1.955,1.127,1.965,2.958.023,4.086a7.777,7.777,0,0,1-7.059,0c-1.958-1.13-1.968-2.961-.023-4.091A7.772,7.772,0,0,1,495.75-303.561Z" transform="translate(-487.24 304.41)" fill="#fff"/>
      </g>
      <g id="Gruppe_8309" data-name="Gruppe 8309" transform="translate(34.785 250.363)">
        <path id="Pfad_16378" data-name="Pfad 16378" d="M197.234-323.7,12.784-216.224l-115.307.2-63.107-36.156-.43-15.121L48.77-392.429l25.738-.2,88.648,50.9.5,28.146L14.307-226.5l-96.076.2-46.374-26.491-.43-14.936L24.994-357.258l-.072-12.874-5.6-3.235L-163.691-267.013l.079,14.073,61.574,35.548H11.453l183.415-106.59-.139-24.837L88.412-410.2a11.278,11.278,0,0,1-9.164-.443c-2.784-1.607-2.794-4.225-.028-5.832a11.111,11.111,0,0,1,10.065,0c2.5,1.445,2.765,3.693.8,5.3l106.665,61.584ZM50.106-391.257,20.985-374.335l5.956,3.438a.6.6,0,0,1,.349.48l.075,13.444a.587.587,0,0,1-.344.485L-126.2-267.443l.079,13.881,44.841,25.887H12.971L161.29-313.869l-.147-27.094-87.118-50.3-23.919,0m30.813-20.356a7.421,7.421,0,0,0,6.728,0c1.846-1.073,1.836-2.822-.027-3.9a7.421,7.421,0,0,0-6.723,0c-1.851,1.075-1.836,2.822.022,3.894" transform="translate(166.06 417.681)" fill="#fff"/>
      </g>
      <g id="Gruppe_8310" data-name="Gruppe 8310" transform="translate(1188.788 316.619)" opacity="0.2">
        <path id="Pfad_16379" data-name="Pfad 16379" d="M658.906-330.1l.179,31.806L554.2-237.342H531.766l-7.621-4.4,76.47-44.44-.038-7.751,25.28-14.691-.112-19.861L568.557-361.5l-.489-12.032,7.777-4.519Z" transform="translate(-524.145 378.053)" fill="#fff"/>
      </g>
      <g id="Gruppe_8311" data-name="Gruppe 8311" transform="translate(977.705 200.143)">
        <path id="Pfad_16380" data-name="Pfad 16380" d="M859.592-269.669c2.316,1.336,2.329,3.516.028,4.852a9.382,9.382,0,0,1-7.459.435l-219,127.27-44.6.2L398.4-246.42l-.507-28.362,127.249-74.229-.438-77.865L550.921-442.4c-1.532-1.331-1.292-3.145.729-4.319a9.248,9.248,0,0,1,8.378,0c2.316,1.338,2.327,3.516.028,4.854a9.371,9.371,0,0,1-7.459.433L527.068-426.59l.443,77.86L400.268-274.5l.147,27.31L589.048-138.28h42.779L850.484-265.35c-1.531-1.331-1.286-3.148.729-4.319A9.238,9.238,0,0,1,859.592-269.669ZM553.325-445.746c-1.384.8-1.378,2.113.017,2.918a5.55,5.55,0,0,0,5.033,0c1.379-.8,1.373-2.108-.017-2.911a5.551,5.551,0,0,0-5.033,0m299.58,179.963a5.561,5.561,0,0,0,5.033,0c1.381-.8,1.373-2.11-.017-2.913a5.556,5.556,0,0,0-5.033,0c-1.384.806-1.378,2.113.017,2.919" transform="translate(-397.897 447.717)" fill="#fff"/>
      </g>
      <g id="Gruppe_8312" data-name="Gruppe 8312" transform="translate(334.587 420.765)" opacity="0.2">
        <path id="Pfad_16381" data-name="Pfad 16381" d="M357.7-261.192l.031,4.595-7.876,4.577-50.393-29.094h-40.8l-94.084,54.675H29.318l-16.007-9.242-.06-9.768,121-70.317,128.5,0Z" transform="translate(-13.251 315.764)" fill="#fff"/>
      </g>
      <g id="Gruppe_8313" data-name="Gruppe 8313" transform="translate(958.086 192.709)">
        <path id="Pfad_16382" data-name="Pfad 16382" d="M877.59-260.842c2.316,1.336,2.328,3.516.027,4.854a9.382,9.382,0,0,1-7.452.435L646.3-125.458l-56.028.2L386.686-242.514l-.523-32.16L518.1-351.635l-.435-78.494,28.263-16.711c-1.533-1.331-1.291-3.145.729-4.319a9.243,9.243,0,0,1,8.378,0c2.316,1.336,2.329,3.516.028,4.854a9.377,9.377,0,0,1-7.459.433l-27.581,16.027.441,78.491L388.529-274.392l.174,31.107L590.755-126.628h54.209l223.519-129.9c-1.528-1.329-1.287-3.148.727-4.319A9.251,9.251,0,0,1,877.59-260.842Zm-6.686,3.886a5.557,5.557,0,0,0,5.036,0c1.381-.8,1.373-2.112-.02-2.916a5.556,5.556,0,0,0-5.033,0c-1.386.8-1.378,2.112.017,2.918M548.334-450.192c-1.384.8-1.378,2.113.017,2.918a5.55,5.55,0,0,0,5.033,0c1.379-.8,1.373-2.11-.017-2.911a5.55,5.55,0,0,0-5.033,0" transform="translate(-386.163 452.163)" fill="#fff"/>
      </g>
      <g id="Gruppe_8314" data-name="Gruppe 8314" transform="translate(689.507)">
        <path id="Pfad_16383" data-name="Pfad 16383" d="M893.849-66.239c2.784,1.607,2.8,4.223.032,5.828a11.1,11.1,0,0,1-10.07,0c-2.5-1.443-2.76-3.7-.789-5.308l-14.738-8.509-36.564,0L759.65-32.341l-64.2.2-215.443-124.1h-116.2L242.554-225.97l-.582-40.734L383.655-349.32l-.716-126.237L236.4-560.161a10.933,10.933,0,0,1-8.843-.443c-2.7-1.557-2.714-4.091-.03-5.65a10.757,10.757,0,0,1,9.753,0c2.411,1.391,2.675,3.56.793,5.121l146.884,84.8,1.062,127.292L244.343-266.419l.226,39.681,119.725,69.123,116.2,0L695.934-33.51l62.378,0L830.383-75.4l38.387-.2L884.7-66.684A11.273,11.273,0,0,1,893.849-66.239Zm-8.368,4.862a7.424,7.424,0,0,0,6.725,0c1.843-1.072,1.834-2.822-.023-3.894a7.417,7.417,0,0,0-6.721,0c-1.851,1.075-1.843,2.819.02,3.894m-656.254-500.2a7.086,7.086,0,0,0,6.412,0c1.759-1.023,1.751-2.692-.022-3.715a7.08,7.08,0,0,0-6.412,0c-1.762,1.025-1.751,2.692.022,3.715" transform="translate(-225.527 567.422)" fill="#fff"/>
      </g>
      <g id="Gruppe_8315" data-name="Gruppe 8315" transform="translate(262.577 554.596)">
        <path id="Pfad_16384" data-name="Pfad 16384" d="M-21.306-234.872c1.958,1.13,1.968,2.961.022,4.093a7.782,7.782,0,0,1-7.059,0c-1.958-1.13-1.968-2.961-.028-4.09A7.786,7.786,0,0,1-21.306-234.872Z" transform="translate(29.819 235.72)" fill="#fff"/>
      </g>
      <g id="Gruppe_8316" data-name="Gruppe 8316" transform="translate(141.025 367.764)">
        <path id="Pfad_16385" data-name="Pfad 16385" d="M482.842-206.661l-117.727,68.7-219.341.2-21.655,12.585-93.557.2L-102.13-201.3l-.388-6.783,26.188-15.5,67.8-.2,206.36-119.924,145.594-.2a3.883,3.883,0,0,1,1.993-2.347,11.122,11.122,0,0,1,10.075,0c2.784,1.607,2.794,4.225.028,5.832a11.106,11.106,0,0,1-10.065,0,4.149,4.149,0,0,1-1.963-2.113H199.159L-7.2-222.613l-67.8.2-25.15,14.615.032,5.732L31.042-126.341l91.741,0,21.654-12.585,219.348-.2,116.694-67.815-.247-43.966-132.77-76.653H214.02L15.4-212.137l-62.843.2L-69.015-199.4l15.947,9.208,5.892-3.424,54.867-.2L204.16-307.987l143.891-.2,99.5,57.158.6,45.371-83.69,48.92-237.836.2L98.072-139.946l-66.618.2-84.883-48.723L-71.52-198.916a.509.509,0,0,1,0-.966l22.749-13.22,62.839-.2L212.689-328.73l135.256-.2,134.3,77.26ZM-45.84-192.443l-5.546,3.222,83.323,48.108,64.8,0,28.551-16.591,237.831-.2,82.656-48.036-.244-44.316L347.573-306.82l-142.082,0L9.024-192.645l-54.864.2M353.818-345.287a7.405,7.405,0,0,0-6.723,0c-1.846,1.072-1.841,2.817.022,3.894a7.434,7.434,0,0,0,6.725,0c1.849-1.075,1.834-2.822-.023-3.9" transform="translate(102.518 347.464)" fill="#fff"/>
      </g>
      <g id="Gruppe_8317" data-name="Gruppe 8317" transform="translate(239.366 541.195)">
        <path id="Pfad_16386" data-name="Pfad 16386" d="M-35.188-242.887c1.958,1.13,1.968,2.963.022,4.093a7.782,7.782,0,0,1-7.059,0c-1.958-1.13-1.968-2.961-.028-4.09A7.786,7.786,0,0,1-35.188-242.887Z" transform="translate(43.701 243.735)" fill="#fff"/>
      </g>
      <g id="Gruppe_8318" data-name="Gruppe 8318" transform="translate(250.973 547.896)">
        <path id="Pfad_16387" data-name="Pfad 16387" d="M-28.25-238.881c1.958,1.13,1.968,2.961.023,4.091a7.777,7.777,0,0,1-7.059,0c-1.955-1.129-1.965-2.959-.023-4.086A7.772,7.772,0,0,1-28.25-238.881Z" transform="translate(36.759 239.727)" fill="#fff"/>
      </g>
      <g id="Gruppe_8319" data-name="Gruppe 8319" transform="translate(619.773 480.266)">
        <path id="Pfad_16388" data-name="Pfad 16388" d="M569.352-187.774,405.134-92.056l-72.564.2-148.4-85.4a.514.514,0,0,1-.005-.971l168.918-98.165,117.511-.2a3.866,3.866,0,0,1,2-2.383,11.106,11.106,0,0,1,10.07,0c2.784,1.608,2.8,4.223.032,5.83a11.108,11.108,0,0,1-10.069,0,4.125,4.125,0,0,1-1.944-2.083l-116.267,0L186.674-177.734l146.374,84.51,70.749,0,163.183-94.831-.08-14.205-108.994-62.93-99.068,0-91.353,53.088,5.818,3.359,12.54,0L355-248.94l89.012-.2,70.661,40.512.513,29.652-90.917,53.12-114.565.2-96.882-55.657c-.463-.267-.47-.7-.01-.968l144.694-84.087,100.883-.2,110.522,63.533Zm-297.365-19.8-6.166-3.56-50.5,29.345,94.866,54.77,112.744,0,89.883-52.234-.157-28.6-69.128-39.912-87.2,0-69.159,40.191a1.7,1.7,0,0,1-.836.2H272.826a1.726,1.726,0,0,1-.839-.2M481-278a7.435,7.435,0,0,0-6.73,0c-1.849,1.075-1.834,2.822.028,3.9a7.41,7.41,0,0,0,6.723,0c1.846-1.072,1.836-2.821-.022-3.894" transform="translate(-183.82 280.176)" fill="#fff"/>
      </g>
      <g id="Gruppe_8320" data-name="Gruppe 8320" transform="translate(680.163 557.144)" opacity="0.2">
        <path id="Pfad_16389" data-name="Pfad 16389" d="M468.433-227.1l.07,11.616-74.72,43.422H287.335l-67.361-38.891-.035-7.147,4.721-2.744,7.762,4.481h31.91l26.15,15.1h70.524L417.682-234.2l38.458,0Z" transform="translate(-219.939 234.196)" fill="#fff"/>
      </g>
      <g id="Gruppe_8321" data-name="Gruppe 8321" transform="translate(673.023 9.58)">
        <path id="Pfad_16390" data-name="Pfad 16390" d="M645.251,82.739c2.786,1.607,2.8,4.222.03,5.832a11.111,11.111,0,0,1-10.065,0c-2.5-1.445-2.765-3.693-.793-5.305l-10.881-6.282-.555-37.82,47.994-28.176-.242-43.59L478.61-143.527l-112.4,0-139.82-80.443L225.75-275.8l141.693-82.629L366.8-473.459l-140.25-80.974a10.93,10.93,0,0,1-8.845-.443c-2.7-1.557-2.714-4.091-.032-5.65a10.771,10.771,0,0,1,9.754,0c2.413,1.393,2.67,3.563.786,5.125l140.6,81.174,1,116.083-141.7,82.627.289,50.778L366.692-144.9h112.4L672.753-33.371l.6,44.643-48,28.174.207,36.768L636.09,82.3A11.263,11.263,0,0,1,645.251,82.739ZM636.883,87.6a7.422,7.422,0,0,0,6.721,0c1.849-1.075,1.834-2.821-.022-3.892a7.407,7.407,0,0,0-6.721,0c-1.848,1.073-1.841,2.817.022,3.892M219.368-555.843a7.08,7.08,0,0,0,6.412,0c1.761-1.023,1.749-2.692-.023-3.715a7.083,7.083,0,0,0-6.409,0c-1.761,1.023-1.752,2.69.02,3.713" transform="translate(-215.668 561.692)" fill="#fff"/>
      </g>
      <g id="Gruppe_8322" data-name="Gruppe 8322" transform="translate(681.901 667.464)">
        <path id="Pfad_16391" data-name="Pfad 16391" d="M229.494-167.366c1.955,1.127,1.97,2.961.023,4.091a7.787,7.787,0,0,1-7.064,0c-1.958-1.13-1.968-2.961-.023-4.091A7.782,7.782,0,0,1,229.494-167.366Z" transform="translate(-220.978 168.214)" fill="#fff"/>
      </g>
      <g id="Gruppe_8323" data-name="Gruppe 8323" transform="translate(693.507 674.165)">
        <path id="Pfad_16392" data-name="Pfad 16392" d="M236.432-163.362c1.958,1.132,1.968,2.963.023,4.093a7.786,7.786,0,0,1-7.066,0c-1.953-1.129-1.963-2.959-.017-4.09A7.782,7.782,0,0,1,236.432-163.362Z" transform="translate(-227.919 164.206)" fill="#fff"/>
      </g>
      <g id="Gruppe_8324" data-name="Gruppe 8324" transform="translate(69.197 357.598)">
        <path id="Pfad_16393" data-name="Pfad 16393" d="M833.1-141.837,635.212-26.555l-94.839.2-153.32-88.235-174.5,0L138.088-71.315c1.894,1.6,1.625,3.812-.821,5.233a11.108,11.108,0,0,1-10.074,0c-2.782-1.607-2.8-4.222-.027-5.832a11.236,11.236,0,0,1,9.276-.386l74.779-43.458,176.314-.2L540.851-27.722l93.027-.005L830.727-142.122l-.1-17.88-136.4-78.751H575.551L378.61-352.173H216.52L11.554-233.058l-128.008.2-16.124,9.371c1.986,1.61,1.754,3.862-.732,5.307a11.113,11.113,0,0,1-10.069,0c-2.786-1.608-2.8-4.223-.035-5.83a11.251,11.251,0,0,1,9.161-.441l16.469-9.572,128.008-.2L215.191-353.342l163.9-.2L576.033-240.123H694.7L832.64-160.767Zm-968.088-77.314c1.851-1.075,1.844-2.822-.017-3.9a7.431,7.431,0,0,0-6.728,0c-1.844,1.072-1.837,2.822.022,3.894a7.42,7.42,0,0,0,6.723,0m270.578,152.1c1.846-1.073,1.841-2.819-.022-3.9a7.431,7.431,0,0,0-6.723,0c-1.851,1.077-1.836,2.822.022,3.9a7.41,7.41,0,0,0,6.723,0" transform="translate(145.478 353.544)" fill="#fff"/>
      </g>
      <g id="Gruppe_8325" data-name="Gruppe 8325" transform="translate(705.111 680.864)">
        <path id="Pfad_16394" data-name="Pfad 16394" d="M243.376-159.351c1.96,1.13,1.97,2.961.023,4.091a7.782,7.782,0,0,1-7.064,0c-1.958-1.13-1.968-2.961-.023-4.091A7.777,7.777,0,0,1,243.376-159.351Z" transform="translate(-234.86 160.199)" fill="#fff"/>
      </g>
      <g id="Gruppe_8326" data-name="Gruppe 8326" transform="translate(0 345.854)">
        <path id="Pfad_16395" data-name="Pfad 16395" d="M883.089-131.516,669.99-7.391l-101.407.2L413.625-96.373l-165.3,0L181.519-57.553c1.794,1.6,1.493,3.759-.913,5.156a11.115,11.115,0,0,1-10.072,0c-2.786-1.608-2.8-4.227-.028-5.835a11.233,11.233,0,0,1,9.407-.334l67.076-38.98,167.119-.2L569.07-8.563l99.591,0L880.727-131.8l-.149-26.82-149.926-86.56H609.963L411.98-359.2l-169.74,0L40.471-241.945l-137.13.2-78.927-45.285a11.27,11.27,0,0,1-9.181-.433c-2.784-1.607-2.8-4.223-.03-5.835a11.111,11.111,0,0,1,10.065,0c2.5,1.441,2.764,3.688.8,5.3l77.748,44.889H39.138L240.907-360.369l171.558-.2,197.98,114.022,120.69,0,151.459,87.16ZM-183.1-288.436a7.417,7.417,0,0,0,6.726,0c1.844-1.07,1.837-2.821-.025-3.9a7.426,7.426,0,0,0-6.723,0c-1.851,1.075-1.838,2.821.022,3.894M178.925-53.367c1.846-1.073,1.843-2.817-.018-3.892a7.424,7.424,0,0,0-6.725,0c-1.849,1.075-1.836,2.821.022,3.894a7.407,7.407,0,0,0,6.721,0" transform="translate(186.865 360.568)" fill="#fff"/>
      </g>
      <g id="Gruppe_8327" data-name="Gruppe 8327" transform="translate(300.886 237.062)">
        <path id="Pfad_16396" data-name="Pfad 16396" d="M592.256,109.166c2.787,1.61,2.8,4.227.037,5.834a11.115,11.115,0,0,1-10.077,0c-2.495-1.441-2.752-3.693-.786-5.3L557.324,95.778l-.59-43.714,232.322-135.3-.189-34.061L613.808-218.363l-117.407,0L299.6-331.7l-145.007,0L4.361-418.159a11.276,11.276,0,0,1-9.169-.438c-2.784-1.607-2.8-4.223-.033-5.832a11.108,11.108,0,0,1,10.069,0c2.5,1.445,2.767,3.693.8,5.305l149.051,86.055,145.01,0L496.875-219.734l117.416,0,176.59,101.671.545,35.116L559.1,52.349l.236,42.662L583.1,108.726A11.271,11.271,0,0,1,592.256,109.166ZM-3.144-419.565a7.429,7.429,0,0,0,6.73,0c1.851-1.075,1.836-2.821-.027-3.9a7.419,7.419,0,0,0-6.725,0c-1.846,1.072-1.836,2.824.022,3.9M583.89,114.028a7.41,7.41,0,0,0,6.723,0c1.846-1.073,1.839-2.821-.023-3.9a7.427,7.427,0,0,0-6.721,0c-1.851,1.075-1.836,2.821.022,3.894" transform="translate(6.906 425.636)" fill="#fff"/>
      </g>
      <g id="Gruppe_8328" data-name="Gruppe 8328" transform="translate(407.865 617.899)">
        <path id="Pfad_16397" data-name="Pfad 16397" d="M472.984-26.516,396.828,18.029l-45.177.2L57.483-151.328l-.4-11.379,53.314-31.269,131.577-.2a3.794,3.794,0,0,1,2.023-2.476,11.111,11.111,0,0,1,10.07,0c2.784,1.607,2.8,4.222.033,5.83a11.117,11.117,0,0,1-10.07,0,4.206,4.206,0,0,1-1.9-1.991l-130.4,0L59.437-162.424l.059,10.329L352.136,16.86h43.359L470.62-26.8l-.157-27.129L242.471-185.559l-118.815,0L79.83-160.093l.047,8.295L332.953-5.686H402.8L421.763-16.7l-12.247-7.071-82.214,0L117.21-144.786l-.385-7.031,35.81-21.1,94.791-.2L454.88-53.618l.458,19.059-51.2,30.042-71.662.2L77.866-151.032l-.4-9.343,44.857-26.354,120.631-.2L472.484-54.693Zm-62.145,1.57,12.595,7.271,29.54-17.168-.107-18.009L246.942-171.741l-92.975,0L119.19-151.534l.033,5.981L327.78-25.143l82.219,0a1.745,1.745,0,0,1,.839.2M252.4-195.684a7.426,7.426,0,0,0-6.728,0c-1.851,1.075-1.841,2.824.022,3.9a7.426,7.426,0,0,0,6.728,0c1.846-1.073,1.836-2.822-.022-3.9" transform="translate(-57.078 197.859)" fill="#fff"/>
      </g>
    </g>
  </g>
</svg>
