<svg xmlns="http://www.w3.org/2000/svg" width="75.57" height="78.404" viewBox="0 0 75.57 78.404"><g transform="translate(0 0)"><g transform="translate(0.055 30.526)"><path d="M-1189.695,1312.4l-37.611,21.857-37.86-21.859,37.611-21.857Z" transform="translate(1265.166 -1290.539)" fill="#09f"/></g><g transform="translate(0 55)" opacity="0.48"><g transform="translate(0 -55)" style="isolation:isolate"><g transform="translate(37.86 21.859)"><path d="M-1138.616,1270.172l-.1,34.688-37.612,21.858.1-34.688Z" transform="translate(1176.326 -1270.172)" fill="#78b3c1"/></g><g transform="translate(0 21.857)"><path d="M-1227.337,1292.028l-.1,34.688-37.86-21.859.1-34.688Z" transform="translate(1265.296 -1270.169)" fill="#86c8d8"/></g><g transform="translate(0.098)"><path d="M-1189.593,1240.664l-37.611,21.857-37.86-21.859,37.611-21.857Z" transform="translate(1265.065 -1218.805)" fill="#93dbeb"/></g></g></g><g transform="translate(37.904 52.384)"><path d="M-1138.6,1341.906l-.012,4.163-37.611,21.857.012-4.163Z" transform="translate(1176.224 -1341.906)" fill="#027ed1"/></g><g transform="translate(0.043 52.383)"><path d="M-1227.322,1363.762l-.012,4.163-37.86-21.859.012-4.163Z" transform="translate(1265.194 -1341.903)" fill="#008ded"/></g></g></svg>