<svg xmlns="http://www.w3.org/2000/svg" width="159.76" height="166.018" viewBox="0 0 159.76 166.018"><g transform="translate(-1608.125 -3389.347)"><g transform="translate(1692.318 3452.619)"><g transform="translate(0 0)" style="isolation:isolate"><g transform="translate(37.858 21.857)"><path d="M-425.837,1276.737l-.1,34.688-37.611,21.857.1-34.688Z" transform="translate(463.547 -1276.737)" fill="#07be69"/></g><g transform="translate(0 21.857)"><path d="M-514.555,1298.594l-.1,34.688-37.858-21.857.1-34.688Z" transform="translate(552.511 -1276.737)" fill="#00e67b"/></g><g transform="translate(0.098)"><path d="M-476.811,1247.23l-37.612,21.857-37.858-21.857,37.612-21.857Z" transform="translate(552.28 -1225.373)" fill="#00ca6c"/></g></g></g><g transform="translate(1608.125 3452.619)"><g transform="translate(0 0)" style="isolation:isolate"><g transform="translate(37.858 21.857)"><path d="M-623.684,1276.737l-.1,34.688-37.614,21.859.1-34.688Z" transform="translate(661.396 -1276.737)" fill="#0074c1"/></g><g transform="translate(0 21.859)"><path d="M-712.4,1298.6l-.1,34.688-37.857-21.857.1-34.688Z" transform="translate(750.36 -1276.741)" fill="#008ded"/></g><g transform="translate(0.098)"><path d="M-674.657,1247.23l-37.614,21.859-37.857-21.857,37.614-21.859Z" transform="translate(750.129 -1225.373)" fill="#2a84bf"/></g></g></g><g transform="translate(1650.276 3476.961)"><g transform="translate(0)" style="isolation:isolate"><g transform="translate(37.86 21.859)"><path d="M-524.627,1333.944l-.1,34.688-37.611,21.857.1-34.688Z" transform="translate(562.337 -1333.944)" fill="#07be69"/></g><g transform="translate(0 21.857)"><path d="M-613.349,1355.8l-.1,34.688-37.86-21.859.1-34.688Z" transform="translate(651.307 -1333.941)" fill="#00e67b"/></g><g transform="translate(0.098)"><path d="M-575.6,1304.436l-37.611,21.857-37.86-21.859,37.612-21.857Z" transform="translate(651.076 -1282.577)" fill="#00ca6c"/></g></g></g><g transform="translate(1650.106 3389.347)"><g transform="translate(0)" style="isolation:isolate"><g transform="translate(37.858 21.857)"><path d="M-525.033,1128.051l-.1,34.688-37.611,21.857.1-34.688Z" transform="translate(562.742 -1128.051)" fill="#07be69"/></g><g transform="translate(0 21.857)"><path d="M-613.75,1149.909l-.1,34.688-37.858-21.857.1-34.688Z" transform="translate(651.706 -1128.052)" fill="#00e67b"/></g><g transform="translate(0.098)"><path d="M-576.006,1098.545l-37.612,21.857-37.858-21.857,37.611-21.857Z" transform="translate(651.475 -1076.688)" fill="#0f8"/></g></g></g><g transform="translate(1608.238 3413.677)"><g transform="translate(0 0)" style="isolation:isolate"><g transform="translate(37.858 21.857)"><path d="M-623.421,1185.224l-.1,34.688-37.612,21.857.1-34.688Z" transform="translate(661.131 -1185.224)" fill="#07be69"/></g><g transform="translate(0 21.857)"><path d="M-712.138,1207.082l-.1,34.688-37.857-21.857.1-34.688Z" transform="translate(750.094 -1185.225)" fill="#00e67b"/></g><g transform="translate(0.098)"><path d="M-674.394,1155.718l-37.612,21.857-37.858-21.857,37.611-21.857Z" transform="translate(749.863 -1133.861)" fill="#0f8"/></g></g></g><g transform="translate(1692.318 3413.708)"><g style="isolation:isolate"><g transform="translate(37.858 21.857)"><path d="M-425.837,1185.3l-.1,34.688-37.611,21.858.1-34.688Z" transform="translate(463.547 -1185.299)" fill="#07be69"/></g><g transform="translate(0 21.857)"><path d="M-514.555,1207.156l-.1,34.688-37.858-21.857.1-34.688Z" transform="translate(552.511 -1185.3)" fill="#00e67b"/></g><g transform="translate(0.098)"><path d="M-476.811,1155.792l-37.612,21.857-37.858-21.857,37.612-21.858Z" transform="translate(552.28 -1133.935)" fill="#0f8"/></g></g></g><g transform="translate(1650.326 3438.019)"><g transform="translate(0)" style="isolation:isolate"><g transform="translate(37.858 21.857)"><path d="M-524.515,1242.428l-.1,34.688-37.612,21.858.1-34.688Z" transform="translate(562.225 -1242.428)" fill="#07be69"/></g><g transform="translate(0 21.857)"><path d="M-613.233,1264.286l-.1,34.688-37.857-21.857.1-34.688Z" transform="translate(651.189 -1242.429)" fill="#00e67b"/></g><g transform="translate(0.098)"><path d="M-575.488,1212.922l-37.612,21.857-37.857-21.857,37.612-21.858Z" transform="translate(650.958 -1191.064)" fill="#0f8"/></g></g></g></g></svg>