<svg xmlns="http://www.w3.org/2000/svg" xmlns:xlink="http://www.w3.org/1999/xlink" width="720" height="483" viewBox="0 0 720 483"><defs><filter id="a" x="0" y="0" width="720" height="483" filterUnits="userSpaceOnUse"><feOffset dy="20" input="SourceAlpha"/><feGaussianBlur stdDeviation="20" result="b"/><feFlood flood-color="#003e9c" flood-opacity="0.102"/><feComposite operator="in" in2="b"/><feComposite in="SourceGraphic"/></filter></defs><g transform="translate(-885 -883)"><g transform="translate(-1456 4008)"><g transform="matrix(1, 0, 0, 1, 2341, -3125)" filter="url(#a)"><rect width="600" height="363" rx="15" transform="translate(60 40)" fill="#f8fbfe"/></g><path d="M15,0H585a15,15,0,0,1,15,15v7a0,0,0,0,1,0,0H0a0,0,0,0,1,0,0V15A15,15,0,0,1,15,0Z" transform="translate(2401 -3085)" fill="#09f"/><ellipse cx="4" cy="4.5" rx="4" ry="4.5" transform="translate(2973 -3078)" fill="#0cf"/><ellipse cx="4.5" cy="5" rx="4.5" ry="5" transform="translate(2959 -3078)" fill="#0cf"/><circle cx="5.5" cy="5.5" r="5.5" transform="translate(2944 -3078)" fill="#0cf"/></g><g transform="translate(1205.836 1086.969)"><path d="M-453.95-604.789l2.892-2.892-12.628-12.628-2.892-2.892-2.892,2.892-24.194,24.194,2.892,2.892,24.194-24.194Z" transform="translate(499.446 634.766)" fill="#333"/><path d="M-507.172-701.5l2.892-2.892,2.892,2.892,2.892,2.892,12.628,12.628,2.854-2.854.037-.037-21.284-21.284h0l-.019-.019L-537.149-677.3l.019.019,2.873,2.873,24.194-24.194Z" transform="translate(537.149 710.172)" fill="#333"/><path d="M-308.848-611.391l-2.892,2.892,12.628,12.628,2.892,2.892,2.892-2.892,24.157-24.157-1.812-1.812-1.08-1.08-24.157,24.157Z" transform="translate(341.717 634.524)" fill="#333"/><path d="M-301.11-576.561l-2.526-2.526-.348-.348-24.157,24.157-2.892,2.892-2.892,2.892-2.892-2.892-2.892-2.892L-352.334-567.9l-2.892,2.892,1.08,1.08,10.1,10.1,1.446,1.446,2.892,2.892,2.892,2.892,2.873,2.873.019.019,32.832-32.832Z" transform="translate(379.42 596.821)" fill="#333"/></g><path d="M151.874,18.755a16.878,16.878,0,0,1,17.005,17.01v84.243a16.878,16.878,0,0,1-17.005,17.005H17.005a16.415,16.415,0,0,1-12.065-4.945A16.393,16.393,0,0,1,0,120.008V18.755A16.415,16.415,0,0,1,4.945,6.691,16.393,16.393,0,0,1,17.005,1.75H67.632L84.243,18.755Zm0,101.248V35.765H17.005v84.243H151.874Z" transform="translate(1160.56 1035.118)" fill="#333"/></g></svg>