<svg xmlns="http://www.w3.org/2000/svg" width="43.802" height="43.449" viewBox="0 0 43.802 43.449"><defs><style>.a{fill:#333;}</style></defs><g transform="translate(0 0)"><path class="a" d="M-69.589-685.617a21.8,21.8,0,0,1-21.229,22.1A21.838,21.838,0,0,1-113.38-684.6a21.837,21.837,0,0,1,21.624-22.353A21.836,21.836,0,0,1-69.589-685.617ZM-97.44-682.1a4.05,4.05,0,0,0,.431-5.864c-1.759-1.871-3.623-3.644-5.438-5.463-.279-.279-.542-.574-.746-.791a39.018,39.018,0,0,0-2.919,2.793,4.045,4.045,0,0,0,.516,5.686l1.765-1.743c-.953-1.281-.808-2.2.538-3.134q2.23,2.207,4.465,4.425a.921.921,0,0,1,.143.281,1.741,1.741,0,0,1-.5,2.048Zm17.763,2.236c-1.464-1.449-2.943-2.887-4.381-4.365a1.367,1.367,0,0,1-.35-.977,7.509,7.509,0,0,1,.464-1.48l-1.691-1.677c-.036.032-.106.088-.168.152a4.2,4.2,0,0,0,.188,6.1c1.868,1.873,3.753,3.729,5.632,5.59.1.1.211.177.293.246.925-.9,1.854-1.736,2.7-2.65a4.091,4.091,0,0,0,.791-1.4,3.942,3.942,0,0,0-1.239-4.389l-1.73,1.728C-78.2-681.637-78.3-680.98-79.678-679.864Zm-11.416-19.254c.333.306.648.58.943.872s.562.591.834.88c1.308-1.121,2.177-.995,3.264.415-.118.125-.236.258-.362.383q-1.772,1.761-3.546,3.52c-1.081,1.073-1.746,1.109-2.846.208l-1.82,1.75a4.221,4.221,0,0,0,6.1.21c1.977-1.941,3.935-3.9,5.9-5.851.074-.073.135-.16.228-.272-.827-.819-1.633-1.621-2.444-2.419A4.227,4.227,0,0,0-91.093-699.118Zm2.732,19.733a4.159,4.159,0,0,0-5.907-.383c-1.267,1.164-2.461,2.406-3.687,3.615-.876.864-1.749,1.731-2.585,2.559.926.949,1.783,1.91,2.73,2.774a3.961,3.961,0,0,0,3.416.9,3.97,3.97,0,0,0,2.468-1.393c-.553-.541-1.069-1.048-1.587-1.554-.063-.062-.134-.116-.2-.17-1.359.963-2.3.8-3.175-.54,1.421-1.419,2.836-2.845,4.268-4.255a1.5,1.5,0,0,1,1.52-.37,4.811,4.811,0,0,1,.989.551Zm2.335,5.806c-1.155,1.524-2.286,1.564-3.471.277-.98-1.065-2.047-2.051-3.077-3.07-.109-.108-.234-.2-.306-.263l-1.645,1.613c1.382,1.452,2.7,3,4.2,4.36a3.852,3.852,0,0,0,4.726.154,40.94,40.94,0,0,0,3.173-2.908l-3.193-3.142-1.758,1.751Zm-2.346-22c-1.358-1.364-2.674-2.788-4.1-4.09a4.01,4.01,0,0,0-5.085-.2c-1.088.85-2.03,1.885-2.961,2.767l3.2,3.164,1.751-1.751c-.207-.187-.441-.415-.692-.621s-.515-.385-.859-.638c.335-.271.5-.387.643-.523a1.7,1.7,0,0,1,2.669.018q.619.61,1.234,1.224l2.423,2.414Zm7.171,13.469c1.491-1.429,2.982-2.71,4.29-4.154a3.966,3.966,0,0,0-.016-5.266c-.857-.952-1.83-1.8-2.686-2.634l-3.094,3.089,1.759,1.819,1.338-1.448c.161.185.3.358.449.511a1.659,1.659,0,0,1,0,2.645c-.395.4-.8.792-1.2,1.187l-2.517,2.49c.091.11.143.18.2.243C-82.17-683.105-81.666-682.586-81.2-682.107Zm-22.11,2.355c-.19-.219-.3-.363-.427-.491a1.693,1.693,0,0,1-.006-2.76q1.328-1.32,2.66-2.637c.33-.324.676-.632.935-.873l-1.858-1.831c-1.218,1.214-2.487,2.477-3.754,3.742a4,4,0,0,0-.561,5.195,34.8,34.8,0,0,0,2.9,3.132l3.145-3.122-1.774-1.749Zm7.571.449-5.334-5.294-1.671,1.6,5.367,5.327Zm6.433,5.258,5.431-5.379-1.64-1.637-5.42,5.376ZM-93.671-696.4l-5.453,5.408,1.606,1.606,5.458-5.411Zm6.4,5.253,5.348,5.293,1.635-1.631-5.341-5.3Z" transform="translate(113.388 706.958)"/></g></svg>