<svg xmlns="http://www.w3.org/2000/svg" width="764.459" height="758.948" viewBox="0 0 764.459 758.948"><path d="M898.538,819.295A99.432,99.432,0,0,0,912.662,679.37c-1.151-1.392-2.32-2.765-3.545-4.1-43.2-45.949-88.984-89.5-133.615-134.172-6.848-6.866-13.306-14.1-18.316-19.43a962.51,962.51,0,0,0-71.669,68.664A99.35,99.35,0,0,0,698.19,729.976l43.351-42.813c-23.4-31.547-19.839-54.114,13.213-76.958q54.782,54.225,109.657,108.674a22.57,22.57,0,0,1,3.508,6.885,42.65,42.65,0,0,1-12.174,50.291Zm436.236,54.93c-35.946-35.594-72.374-70.891-107.634-107.189a33.6,33.6,0,0,1-8.593-23.976A185.026,185.026,0,0,1,1229.96,706.7l-41.531-41.179c-.872.779-2.6,2.153-4.139,3.712a103.128,103.128,0,0,0,.353,145.826c1.392,1.373,2.821,2.71,4.269,4.009,45.874,45.986,92.175,91.582,138.328,137.327,2.4,2.375,5.177,4.361,7.2,6.031,22.714-22.027,45.522-42.682,66.344-65.081A99.958,99.958,0,0,0,1420.2,863a96.8,96.8,0,0,0-30.435-107.782L1347.32,797.6c23.642,33.07,21.211,49.2-12.546,76.643ZM1054.423,401.357c8.184,7.535,15.9,14.235,23.159,21.416s13.79,14.531,20.415,21.62c32.122-27.521,53.464-24.422,80.15,10.169-2.9,3.081-5.79,6.347-8.889,9.409q-43.509,43.257-87.091,86.441c-26.555,26.334-42.868,27.225-69.906,5.1L967.555,598.5a103.665,103.665,0,0,0,146.364,8.425c1.188-1.058,2.358-2.153,3.489-3.267,48.548-47.656,96.649-95.757,144.917-143.692,1.856-1.856,3.3-3.934,5.568-6.681-20.3-20.1-40.1-39.825-60.016-59.385a103.828,103.828,0,0,0-146.809.13c-2.32,2.338-4.548,4.769-6.644,7.312Zm67.086,484.634a102.074,102.074,0,0,0-143.97-10.356l-1.094.946C945.323,905.161,916,935.67,885.9,965.362c-21.508,21.211-42.943,42.516-63.486,62.836,22.734,23.29,43.778,46.913,67.05,68.125a103.926,103.926,0,0,0,144.49-12.044c-13.566-13.287-26.26-25.74-38.972-38.154-1.559-1.522-3.3-2.858-4.861-4.195-33.405,23.643-56.51,19.635-77.943-13.25,34.889-34.852,69.664-69.87,104.813-104.5a36.8,36.8,0,0,1,37.338-9.074,118.755,118.755,0,0,1,24.292,13.528Zm57.344,142.578c-28.356,37.413-56.137,38.415-85.254,6.811-24.124-26.148-50.254-50.384-75.567-75.4-2.691-2.654-5.754-4.937-7.516-6.44l-40.4,39.6c33.942,35.65,66.362,73.711,103.088,107.078a94.623,94.623,0,0,0,116.059,3.711,999.452,999.452,0,0,0,77.943-71.41l-78.425-77.163-43.183,43ZM1121.23,488.374c-33.4-33.5-65.656-68.478-100.749-100.453a98.478,98.478,0,0,0-124.893-4.844c-26.723,20.878-49.846,46.394-72.726,67.94l78.461,77.7,43-43.016c-5.085-4.6-10.82-10.189-17-15.255s-12.657-9.446-21.1-15.681c8.222-6.662,12.267-9.5,15.793-12.86a41.777,41.777,0,0,1,58.7-6.514,41.3,41.3,0,0,1,6.866,6.96q15.2,14.976,30.286,30.063l59.514,59.292Zm176.113,330.771c36.614-35.092,73.228-66.548,105.352-102.067a97.37,97.37,0,0,0-.409-129.329c-21.063-23.382-44.946-44.259-65.972-64.692l-75.993,75.864,43.2,44.668,32.865-35.556c3.971,4.547,7.256,8.778,11.024,12.545a40.825,40.825,0,0,1,7.738,57.232,40.147,40.147,0,0,1-7.738,7.72c-9.688,9.817-19.561,19.467-29.359,29.173l-61.815,61.241c2.246,2.69,3.508,4.416,4.991,5.957,12.342,12.712,24.72,25.535,36.095,37.227Zm-543,57.844c-4.658-5.381-7.423-8.926-10.5-12.062C720.5,841.36,720.4,820.3,743.694,797.137q32.624-32.4,65.323-64.748c8.109-7.961,16.609-15.514,22.973-21.434l-45.633-44.966c-29.915,29.822-61.092,60.833-92.193,91.916a98.373,98.373,0,0,0-13.77,127.584,854.406,854.406,0,0,0,71.262,76.921l77.236-76.68L785.337,842.77Zm185.947,11.023-131-130-41.05,39.3L900.005,928.154Zm157.981,129.143,133.374-132.112-40.27-40.2L1058.265,976.886ZM991.012,468.128,857.1,600.945l39.435,39.435,134.042-132.873ZM1148.14,597.141l131.333,129.9L1319.612,687,1188.446,556.8Z" transform="translate(-662.605 -363.073)" fill="#e8f3ff"/></svg>