<svg xmlns="http://www.w3.org/2000/svg" width="175.624" height="44.751" viewBox="0 0 175.624 44.751"><g transform="translate(-59 -126.498)"><g transform="translate(59 126.498)"><g transform="translate(0 0)"><path d="M-849.193-236.974a22.451,22.451,0,0,1-21.864,22.761,22.493,22.493,0,0,1-23.238-21.713,22.492,22.492,0,0,1,21.954-23.018l.318,0A22.49,22.49,0,0,1-849.193-236.974Zm-28.685,3.623a4.171,4.171,0,0,0,.592-5.869c-.048-.058-.1-.116-.149-.171-1.812-1.927-3.732-3.754-5.6-5.627-.287-.288-.558-.591-.768-.815a40.079,40.079,0,0,0-3.006,2.88,4.167,4.167,0,0,0,.532,5.856l1.818-1.8c-.981-1.323-.832-2.269.554-3.227q2.3,2.273,4.6,4.557a.939.939,0,0,1,.147.289,1.789,1.789,0,0,1-.511,2.109Zm18.294,2.3c-1.507-1.493-3.035-2.973-4.514-4.5a1.411,1.411,0,0,1-.36-1.005,7.737,7.737,0,0,1,.479-1.525l-1.742-1.727c-.037.033-.109.09-.174.156a4.324,4.324,0,0,0,.015,6.115c.058.058.118.114.179.169,1.924,1.929,3.866,3.841,5.8,5.759.1.1.217.183.3.253.953-.924,1.909-1.79,2.782-2.729a4.2,4.2,0,0,0,.814-1.441,4.058,4.058,0,0,0-1.276-4.52l-1.78,1.778c.991,1.387.89,2.063-.526,3.214Zm-11.757-19.831c.343.316.667.6.971.9s.578.609.856.907c1.347-1.154,2.242-1.024,3.361.426-.121.129-.243.266-.373.395q-1.825,1.814-3.652,3.625c-1.114,1.1-1.8,1.142-2.932.214l-1.875,1.8a4.347,4.347,0,0,0,6.138.353c.05-.044.1-.089.146-.136,2.036-2,4.053-4.016,6.077-6.026.078-.078.138-.165.233-.28-.851-.843-1.682-1.67-2.517-2.49a4.354,4.354,0,0,0-6.157,0c-.1.1-.191.2-.279.307Zm2.813,20.324a4.28,4.28,0,0,0-6.038-.435l-.046.04c-1.305,1.2-2.535,2.478-3.8,3.723-.9.89-1.8,1.783-2.662,2.635.953.977,1.836,1.967,2.812,2.857a4.08,4.08,0,0,0,3.518.929,4.087,4.087,0,0,0,2.542-1.434c-.569-.557-1.1-1.079-1.634-1.6-.065-.064-.139-.12-.2-.177-1.4.992-2.37.823-3.269-.555,1.463-1.462,2.922-2.931,4.4-4.382a1.54,1.54,0,0,1,1.566-.381,4.909,4.909,0,0,1,1.019.567Zm2.4,5.979c-1.189,1.569-2.354,1.611-3.575.286-1.012-1.1-2.107-2.113-3.169-3.162-.113-.111-.241-.207-.315-.27l-1.694,1.661c1.423,1.5,2.783,3.091,4.323,4.491a3.969,3.969,0,0,0,4.867.156,42.242,42.242,0,0,0,3.269-2.995l-3.289-3.236-1.811,1.8Zm-2.416-22.654c-1.4-1.4-2.753-2.872-4.225-4.213a4.128,4.128,0,0,0-5.238-.2c-1.121.876-2.09,1.946-3.05,2.849l3.29,3.259,1.8-1.8c-.213-.193-.454-.427-.713-.64s-.531-.4-.885-.658c.345-.279.514-.4.662-.539a1.751,1.751,0,0,1,2.462-.274,1.707,1.707,0,0,1,.288.293q.637.628,1.27,1.261l2.5,2.487Zm7.386,13.872c1.535-1.472,3.071-2.791,4.418-4.28a4.083,4.083,0,0,0-.017-5.424c-.883-.981-1.885-1.856-2.767-2.713l-3.187,3.182,1.812,1.873,1.378-1.491c.167.191.3.368.462.526a1.711,1.711,0,0,1,.325,2.4,1.706,1.706,0,0,1-.325.325c-.406.412-.82.816-1.231,1.223l-2.592,2.568c.094.113.147.185.209.25.518.533,1.037,1.071,1.514,1.561Zm-22.772,2.426c-.2-.226-.311-.374-.44-.506a1.744,1.744,0,0,1-.006-2.843q1.368-1.36,2.74-2.715c.34-.335.7-.651.963-.9l-1.914-1.886c-1.255,1.251-2.562,2.552-3.866,3.855a4.125,4.125,0,0,0-.577,5.35,35.939,35.939,0,0,0,2.989,3.226l3.239-3.216-1.827-1.8Zm7.8.462-5.494-5.452-1.721,1.648,5.526,5.487Zm6.625,5.416,5.593-5.54-1.689-1.686-5.582,5.537Zm-4.5-23.025-5.616,5.57,1.654,1.654,5.621-5.572Zm6.59,5.41,5.508,5.448,1.683-1.679-5.5-5.46Z" transform="translate(894.301 258.951)" fill="#333"/></g><g transform="translate(56.926 8.74)" style="isolation:isolate"><g style="isolation:isolate"><path d="M-817.183-222.263a12.011,12.011,0,0,1-3.973-1.866l1.755-3.893a11.892,11.892,0,0,0,3.414,1.691,12.839,12.839,0,0,0,3.957.638,6.316,6.316,0,0,0,3.255-.655,1.976,1.976,0,0,0,1.053-1.739,1.662,1.662,0,0,0-.622-1.324,4.7,4.7,0,0,0-1.6-.846q-.974-.319-2.633-.7a36.365,36.365,0,0,1-4.18-1.213,6.784,6.784,0,0,1-2.792-1.946,5.256,5.256,0,0,1-1.165-3.574,6.214,6.214,0,0,1,1.053-3.525,7.08,7.08,0,0,1,3.175-2.505,12.946,12.946,0,0,1,5.185-.926,17.182,17.182,0,0,1,4.18.511,12.366,12.366,0,0,1,3.574,1.467l-1.6,3.925a12.457,12.457,0,0,0-6.19-1.755,5.8,5.8,0,0,0-3.206.7,2.14,2.14,0,0,0-1.037,1.851,1.808,1.808,0,0,0,1.2,1.707,18.752,18.752,0,0,0,3.653,1.1,36.533,36.533,0,0,1,4.18,1.213,6.928,6.928,0,0,1,2.792,1.915,5.135,5.135,0,0,1,1.164,3.541,6.106,6.106,0,0,1-1.069,3.5,7.18,7.18,0,0,1-3.207,2.5,13.067,13.067,0,0,1-5.2.926A18.27,18.27,0,0,1-817.183-222.263Z" transform="translate(821.156 247.039)" fill="#333"/><path d="M-795.162-242.967a2.589,2.589,0,0,1-.861-1.978,2.589,2.589,0,0,1,.861-1.978,3.161,3.161,0,0,1,2.234-.8,3.234,3.234,0,0,1,2.234.766,2.455,2.455,0,0,1,.862,1.915,2.709,2.709,0,0,1-.862,2.058,3.122,3.122,0,0,1-2.234.814A3.161,3.161,0,0,1-795.162-242.967Zm-.255,3.191h4.978v17.167h-4.978Z" transform="translate(815.583 247.721)" fill="#333"/><path d="M-767.609-237.585v14.294q0,4.722-2.457,7.021t-7.179,2.3a18,18,0,0,1-4.722-.606,10.328,10.328,0,0,1-3.7-1.755l1.978-3.574a8.146,8.146,0,0,0,2.744,1.42,10.92,10.92,0,0,0,3.318.527,5.383,5.383,0,0,0,3.813-1.165,4.645,4.645,0,0,0,1.228-3.525v-.735a6.963,6.963,0,0,1-5.424,2.138,9.1,9.1,0,0,1-4.323-1.037,7.89,7.89,0,0,1-3.111-2.92,8.159,8.159,0,0,1-1.149-4.339,8.165,8.165,0,0,1,1.149-4.34,7.912,7.912,0,0,1,3.111-2.92,9.11,9.11,0,0,1,4.323-1.037,6.814,6.814,0,0,1,5.68,2.457v-2.2Zm-6.174,11.088a3.956,3.956,0,0,0,1.26-3.047,3.958,3.958,0,0,0-1.26-3.048,4.587,4.587,0,0,0-3.239-1.164,4.644,4.644,0,0,0-3.255,1.164,3.933,3.933,0,0,0-1.276,3.048,3.932,3.932,0,0,0,1.276,3.047,4.64,4.64,0,0,0,3.255,1.164A4.584,4.584,0,0,0-773.782-226.5Z" transform="translate(813.492 245.53)" fill="#333"/><path d="M-742.716-235.926a7.592,7.592,0,0,1,1.962,5.68v9.828h-4.978v-9.062a4.479,4.479,0,0,0-.893-3.048,3.276,3.276,0,0,0-2.585-1,3.962,3.962,0,0,0-3,1.164,4.823,4.823,0,0,0-1.117,3.462v8.488H-758.3v-17.167h4.754v2.01a6.609,6.609,0,0,1,2.457-1.676,8.571,8.571,0,0,1,3.223-.59A7.064,7.064,0,0,1-742.716-235.926Z" transform="translate(807.219 245.53)" fill="#333"/><path d="M-714.756-237.512v17.167h-4.722v-2.042a6.6,6.6,0,0,1-2.361,1.707,7.427,7.427,0,0,1-2.968.591,7.311,7.311,0,0,1-5.361-1.946q-1.979-1.946-1.978-5.775v-9.7h4.978v8.966q0,4.148,3.478,4.148a3.739,3.739,0,0,0,2.872-1.164,4.917,4.917,0,0,0,1.085-3.463v-8.487Z" transform="translate(801.418 245.457)" fill="#333"/><path d="M-678.8-235.942q1.9,1.9,1.9,5.7v9.828h-4.978v-9.062a4.655,4.655,0,0,0-.846-3.048,2.972,2.972,0,0,0-2.409-1,3.554,3.554,0,0,0-2.776,1.132,4.883,4.883,0,0,0-1.021,3.366v8.616h-4.978v-9.062q0-4.052-3.255-4.052a3.515,3.515,0,0,0-2.744,1.132,4.883,4.883,0,0,0-1.021,3.366v8.616h-4.978v-17.167h4.754v1.978a6.289,6.289,0,0,1,2.346-1.66,7.9,7.9,0,0,1,3.047-.574,7.389,7.389,0,0,1,3.287.718,5.826,5.826,0,0,1,2.361,2.09,7.061,7.061,0,0,1,2.664-2.074,8.414,8.414,0,0,1,3.526-.733A6.923,6.923,0,0,1-678.8-235.942Z" transform="translate(795.6 245.53)" fill="#333"/></g></g></g></g></svg>