<svg xmlns="http://www.w3.org/2000/svg" xmlns:xlink="http://www.w3.org/1999/xlink" width="589.838" height="488.683" viewBox="0 0 589.838 488.683"><defs><radialGradient id="a" cx="0.5" cy="0.5" r="0.707" gradientTransform="matrix(0.408, 0.707, -0.408, 0.707, -7.706, 4.142)" gradientUnits="objectBoundingBox"><stop offset="0" stop-color="#0cf"/><stop offset="0.088" stop-color="#01aee3"/><stop offset="0.258" stop-color="#037ab3"/><stop offset="0.425" stop-color="#044f8b"/><stop offset="0.586" stop-color="#062e6c"/><stop offset="0.739" stop-color="#071656"/><stop offset="0.88" stop-color="#070748"/><stop offset="1" stop-color="#080344"/></radialGradient><linearGradient id="b" x1="0.5" x2="0.5" y2="1" gradientUnits="objectBoundingBox"><stop offset="0" stop-color="#0cf"/><stop offset="0.172" stop-color="#04c7fd"/><stop offset="0.375" stop-color="#0fb8f7"/><stop offset="0.594" stop-color="#22a1ee"/><stop offset="0.821" stop-color="#3d80e2"/><stop offset="1" stop-color="#5761d7"/></linearGradient><linearGradient id="o" x1="0.975" y1="-0.192" x2="0.319" y2="0.822" xlink:href="#b"/><linearGradient id="q" x1="-2.514" y1="0.033" x2="-1.748" y2="0.033" xlink:href="#b"/><linearGradient id="r" x1="-21.814" y1="0.5" x2="-20.814" y2="0.5" gradientUnits="objectBoundingBox"><stop offset="0" stop-color="#c0bff6"/><stop offset="0.294" stop-color="#c4c3f6"/><stop offset="0.64" stop-color="#d2d2f9"/><stop offset="1" stop-color="#e9e9fd"/></linearGradient><linearGradient id="s" x1="-131.866" y1="0.5" x2="-130.866" y2="0.5" gradientUnits="objectBoundingBox"><stop offset="0" stop-color="#5761d7"/><stop offset="0.178" stop-color="#5b65d8"/><stop offset="0.388" stop-color="#6a72de"/><stop offset="0.613" stop-color="#8188e8"/><stop offset="0.849" stop-color="#a2a6f5"/><stop offset="1" stop-color="#bcbeff"/></linearGradient><linearGradient id="t" x1="1" y1="0.5" x2="0" y2="0.5" xlink:href="#b"/><linearGradient id="u" x1="-14.964" y1="0.5" x2="-13.964" y2="0.5" xlink:href="#s"/><linearGradient id="v" x1="-0.008" y1="0.377" x2="0.986" y2="0.639" xlink:href="#r"/><linearGradient id="w" x1="-57.386" y1="0.5" x2="-56.386" y2="0.5" xlink:href="#r"/><clipPath id="x"><path d="M965.3,246.279l194.935,112.546-24.174,142.511-194.8-112.47Z" transform="translate(-941.255 -246.279)" fill="none"/></clipPath><linearGradient id="y" x1="-15.384" y1="0.5" x2="-14.384" y2="0.5" xlink:href="#r"/><linearGradient id="z" x1="-62.209" y1="0.5" x2="-61.209" y2="0.5" xlink:href="#r"/><linearGradient id="aa" x1="-0.247" y1="0.5" x2="1.034" y2="0.5" gradientUnits="objectBoundingBox"><stop offset="0" stop-color="#5761d7"/><stop offset="0.164" stop-color="#5e67d9"/><stop offset="0.405" stop-color="#7179e1"/><stop offset="0.692" stop-color="#9197ee"/><stop offset="1" stop-color="#bcbeff"/></linearGradient><linearGradient id="ab" x1="0" y1="0.5" x2="1" y2="0.5" xlink:href="#b"/></defs><g transform="translate(-791.785 -194.948)"><ellipse cx="194.461" cy="112.272" rx="194.461" ry="112.272" transform="translate(979.227 431.714)" opacity="0" fill="url(#a)" style="mix-blend-mode:lighten;isolation:isolate"/><path d="M1195.832,500.349l-53.763-31.04,53.761-31.039,53.763,31.04Z" transform="translate(132.029 91.713)" fill="#0b0244" opacity="0.05"/><path d="M1147.949,529.38l-53.763-31.04,53.761-31.039,53.763,31.04Z" transform="translate(113.981 102.656)" fill="#0b0244" opacity="0.05"/><path d="M1100.066,558.411l-53.763-31.04,53.761-31.039,53.763,31.04Z" transform="translate(95.933 113.598)" fill="#0b0244" opacity="0.05"/><path d="M1025.078,364.9a6.081,6.081,0,0,0-4.686-1.013,32.818,32.818,0,0,0-22.126,17.892c-6.924,14.824,3.873,25.014,6.129,26.924a83.666,83.666,0,0,1-5.913,7.524c-3.265-1.774-6.723-3.687-10.336-5.732-5.853-3.284-12.056-6.942-18.558-10.852l-4.889-3-2.491-1.531-2.481-1.572-5.044-3.2-4.931-3.221c1.605-1.57,4.723-4.7,8.522-8.9,3.495.161,22.089.357,29.532-13.024,6.308-11.339-.005-19.15-3.3-22.184a5.311,5.311,0,0,0-4.007-1.2c-4.676.625-15.583,3.138-23.343,13.2-9.155,11.875-1.314,21.216.277,22.9-3.709,4.1-6.761,7.17-8.377,8.753-3.229-2.1-6.4-4.284-9.652-6.478-1.734-1.155-3.393-2.36-5.1-3.551-1.694-1.2-3.417-2.393-5.111-3.609-5.519-4.016-11.051-8.118-16.4-12.312.834-.611,2.229-1.644,4.036-3.035,1.98-1.523,4.463-3.482,7.229-5.76,2.919.317,20.5,1.694,29.447-9.845,7.486-9.66,2.725-16.91.088-19.771a4.724,4.724,0,0,0-3.557-1.285,37.85,37.85,0,0,0-23.607,10.357c-9.994,9.758-4.5,18.28-3.1,20.121-5.191,4.278-9.356,7.4-11.165,8.721-.953-.75-1.914-1.5-2.854-2.254-8.931-7.115-17.385-14.419-25.094-21.663a83.083,83.083,0,0,0,9.56-6.418c1.024-.788,2.1-1.669,3.2-2.591,2.8.172,17.1.533,23.317-9.527,5.3-8.564.684-14.613-1.762-16.975a4.061,4.061,0,0,0-3.062-.973,28.724,28.724,0,0,0-18.569,9.747c-7.332,8.706-2.064,15.8-.706,17.367a87.071,87.071,0,0,1-12.534,8.848c-3.228-3.046-6.335-6.081-9.267-9.084q-3.059-3.121-5.878-6.185c.022-.029.048-.054.048-.091,0-.145-.2-.295-.438-.336q-.983-1.072-1.939-2.134c.592-1.064,3.175-5.732,6.292-11.581,2.923-.138,16.186-1.362,19.336-12.242,2.717-9.384-3.24-15.146-6.174-17.327a4.08,4.08,0,0,0-3.145-.687,22.119,22.119,0,0,0-14.913,11.982c-4.665,9.879,2.448,16.7,4.015,18.046-2.8,5.264-5.173,9.561-6.034,11.116a232.4,232.4,0,0,1-15.6-19.4l-2.283-3.159c-.739-1.031-1.345-2.05-2-3.037l-.509-.788c1.3-.927,5.882-5.027.833-14.042a33.384,33.384,0,0,0-14.012-13.349,3,3,0,0,0-2.528-.142c-2.152,1.153-6.342,4.6-2.83,13.027,4.129,9.908,15.594,13.906,17.828,14.6l.478.764c.638.993,1.226,2.017,1.946,3.053s1.468,2.1,2.227,3.177A231.793,231.793,0,0,0,866.41,319.8c-3.59-.58-12.461-2-22.648-3.572-1.4-1.369-8.648-7.635-25.914-10.089-14.887-2.116-22.55.028-25.32,1.146a.992.992,0,0,0-.392,1.724c2.006,2.317,8.135,7.635,23.834,10.745,18.185,3.6,26.185-1.749,27.756-3,10.763,1.655,20.074,3.154,23.238,3.668q2.92,3.263,6.1,6.6c3.555,3.731,7.361,7.512,11.36,11.309-2.3.373-8.67,1.359-17.473,2.3-1.886-1.139-12.022-6.671-29.558-5.721-14.956.812-20.9,4.816-22.86,6.644-.58.54-.341,1.367.57,2,3.121,2.144,11.693,6.743,27.943,6.861,18.834.138,23.34-7.5,24.115-9.219,9.052-.969,15.572-1.983,17.8-2.348,7.008,6.624,14.623,13.287,22.621,19.8q2.611,2.15,5.3,4.264c-2.078.471-8.383,1.873-17.143,3.574-2.481-1.181-14.908-6.456-33.374-3.46-15.87,2.575-21.151,7.9-22.752,10.255-.472.693.014,1.634,1.169,2.269,3.956,2.167,14.463,6.613,31.984,4.984,20.679-1.922,23.125-11.664,23.4-13.513,9.008-1.75,15.428-3.183,17.342-3.619,4.533,3.568,9.173,7.072,13.808,10.517,1.683,1.235,3.4,2.447,5.079,3.663s3.347,2.433,5.071,3.606c3.42,2.36,6.759,4.715,10.17,6.96l1.26.84c-1.429.643-5.484,2.407-11.945,4.76-2.973-1.106-18.336-6.144-38.044-.412-16.843,4.9-21.151,11.919-22.246,14.933-.322.891.49,1.97,1.955,2.6,5.012,2.166,17.944,6.335,36.892,2.389,22.65-4.716,22.244-16.98,22.016-19.013,6.568-2.392,10.659-4.179,12.052-4.807,1.035.69,2.075,1.382,3.1,2.065l5.023,3.25,2.471,1.6,2.483,1.557q2.468,1.547,4.873,3.058c6.483,3.979,12.672,7.707,18.517,11.054,3.934,2.276,7.683,4.388,11.205,6.335-1.36.677-5.541,2.7-12.008,5.362-2.465-.9-20.008-6.747-41.937.332-18.135,5.855-22.427,13.777-23.443,17.162-.3,1,.654,2.184,2.3,2.854,5.614,2.3,20.015,6.638,40.51,1.8,24.055-5.683,23.351-18.952,22.966-21.57,6.777-2.783,11.1-4.887,12.37-5.521,6.586,3.628,12.336,6.652,16.891,8.99,3.572,1.831,6.415,3.243,8.373,4.2s3.037,1.461,3.037,1.461l1.936-2.063s-1.014-.461-2.949-1.388-4.756-2.291-8.314-4.077c-4.738-2.379-10.788-5.5-17.742-9.262a83.439,83.439,0,0,0,5.984-7.61c3.205-.106,24.343-1.444,29.149-18.312C1038.358,376.719,1029.459,368.145,1025.078,364.9Z" transform="translate(0 25.693)" fill="#0b0244" opacity="0.05"/><g transform="translate(876.068 194.948)"><g transform="translate(26.965 259.514)" opacity="0.7"><path d="M953.5,394.346s-8.646,23.742-40.663,26.557c-24.529,2.156-35.581-7.577-39.407-12.248a3.723,3.723,0,0,1-.034-4.693c3.727-4.676,14.382-15.164,37.341-19.354C940.7,379.14,953.5,394.346,953.5,394.346Z" transform="translate(-872.58 -383.422)" fill="url(#b)"/></g><g transform="translate(138.389 191.618)" opacity="0.7"><path d="M954.227,396s24.614,5.713,44.446-19.578c15.194-19.377,13.07-33.951,11.244-39.706a3.724,3.724,0,0,0-3.913-2.59c-5.952.571-20.555,3.776-36.6,20.727C948.47,376.981,954.227,396,954.227,396Z" transform="translate(-953.503 -334.111)" fill="url(#b)"/></g><g transform="translate(116.146 150.046)" opacity="0.7"><path d="M937.469,351.361s20.61,7.829,40.728-11.709c15.413-14.97,15.288-27.821,14.386-33.012a3.252,3.252,0,0,0-3.08-2.7c-5.214-.205-18.217.851-34.077,13.623C934.725,334.237,937.469,351.361,937.469,351.361Z" transform="translate(-937.348 -303.92)" fill="url(#b)"/></g><g transform="translate(102.918 112.372)" opacity="0.7"><path d="M927.75,315.336s18.018,8.87,37.94-7.121c15.263-12.25,16.252-23.914,15.88-28.7a2.962,2.962,0,0,0-2.561-2.711c-4.71-.633-16.592-.793-32.071,9.428C926.733,299.572,927.75,315.336,927.75,315.336Z" transform="translate(-927.742 -276.558)" fill="url(#b)"/></g><g transform="translate(95.168 73.542)" opacity="0.7"><path d="M922.167,283.753s15.682,6.469,31.578-8.124c12.179-11.181,12.359-21.067,11.778-25.079a2.5,2.5,0,0,0-2.31-2.143c-4.005-.27-14.028.26-26.5,9.742C920.426,270.524,922.167,283.753,922.167,283.753Z" transform="translate(-922.113 -248.358)" fill="url(#b)"/></g><g transform="translate(86.618 31.301)" opacity="0.7"><path d="M916.379,259.149s16.515,3.876,29.871-13.072c10.233-12.984,8.83-22.773,7.614-26.641a2.5,2.5,0,0,0-2.624-1.745c-4,.375-13.805,2.5-24.6,13.856C912.544,246.368,916.379,259.149,916.379,259.149Z" transform="translate(-915.903 -217.68)" fill="url(#b)"/></g><g transform="translate(9.736 204.782)" opacity="0.7"><path d="M933.626,354.481S925.1,375.7,896.054,377.3c-22.255,1.223-31.964-7.91-35.288-12.249a3.373,3.373,0,0,1,.109-4.246c3.51-4.12,13.459-13.291,34.354-16.4C922.5,340.345,933.626,354.481,933.626,354.481Z" transform="translate(-860.067 -343.672)" fill="url(#b)"/></g><g transform="translate(0.135 152.786)" opacity="0.7"><path d="M916.388,319.323s-9.911,16.849-34.667,14.5c-18.967-1.8-26.009-10.761-28.265-14.853a2.88,2.88,0,0,1,.633-3.574c3.492-3.035,13.071-9.519,31.128-9.483C908.786,305.955,916.388,319.323,916.388,319.323Z" transform="translate(-853.094 -305.91)" fill="url(#b)"/></g><g transform="translate(0 105.323)" opacity="0.7"><path d="M907.939,287.865s-10.828,13.392-32.089,8.121c-16.289-4.038-21.258-12.759-22.693-16.617a2.538,2.538,0,0,1,1.018-3.032c3.437-2.189,12.626-6.593,28.354-4.212C903.055,275.232,907.939,287.865,907.939,287.865Z" transform="translate(-852.996 -271.439)" fill="url(#b)"/></g><g transform="translate(4.585 54.411)" opacity="0.7"><path d="M902.665,260.891s-13.468,8.825-30.887-1.947c-13.346-8.253-15.276-17.436-15.449-21.28a2.372,2.372,0,0,1,1.772-2.408c3.686-.967,13.125-2.258,26.444,4.357C901.929,248.248,902.665,260.891,902.665,260.891Z" transform="translate(-856.326 -234.464)" fill="url(#b)"/></g><g transform="translate(64.48)" opacity="0.7"><path d="M907.392,239.041s-10.773-8.643-6.61-25.711c3.188-13.077,10.167-17.089,13.257-18.251a2.035,2.035,0,0,1,2.434.807c1.767,2.75,5.326,10.105,3.466,22.726C917.51,235.085,907.392,239.041,907.392,239.041Z" transform="translate(-899.825 -194.948)" fill="url(#b)"/></g><path d="M896.728,473.724a.437.437,0,0,1,.4-.474,334.783,334.783,0,0,0,76.035-15.461c-2-3.665-4.089-7.627-6.239-11.868-3.219-6.254-6.482-13.141-9.839-20.465q-1.221-2.763-2.472-5.6-.626-1.417-1.258-2.853-.6-1.448-1.214-2.912-1.223-2.927-2.469-5.915c-.486-1.235-.98-2.49-1.472-3.737-4.7,1.432-31.472,9.168-70.465,12.026a.44.44,0,1,1-.066-.878c38.72-2.839,65.356-10.495,70.206-11.97-.2-.509-.4-1.009-.6-1.52-1.647-4.074-3.131-8.289-4.7-12.53-.8-2.115-1.487-4.285-2.233-6.445-.727-2.167-1.486-4.336-2.2-6.529-1.922-6.107-3.8-12.3-5.523-18.562-5.159.4-37.7,2.741-68.915.808a.44.44,0,0,1,.055-.878c30.809,1.908,62.936-.358,68.617-.794-.673-2.476-1.325-4.958-1.935-7.455-2.864-11.362-5.22-22.853-6.995-34.144-5.367,0-32.341-.343-59.053-6.612a.44.44,0,0,1,.2-.856c26.43,6.2,53.117,6.58,58.722,6.587-1-6.465-1.818-12.863-2.422-19.128q-.551-5.6-.883-11.037c-6.1-3.285-38.19-20.491-53.46-27.136a.44.44,0,0,1,.351-.807c14.937,6.5,45.9,23.066,53.046,26.909a299.213,299.213,0,0,1,0-35.859q.149-2.629.293-5.146c.1-1.676.325-3.3.475-4.9.335-3.181.651-6.2.949-9.034.434-2.819.84-5.455,1.216-7.894.4-2.434.682-4.684,1.089-6.69l2.635-12.589.295.069s-.894,4.584-2.459,12.6c-.38,2.008-.629,4.259-1,6.692-.341,2.439-.71,5.074-1.1,7.891-.259,2.832-.533,5.846-.822,9.023-.128,1.589-.331,3.215-.408,4.887s-.146,3.386-.222,5.133a296.043,296.043,0,0,0,.231,31.9c4.92-4.789,29.964-29.246,43.635-44.034a.44.44,0,0,1,.647.6c-14.3,15.472-41.03,41.5-44.206,44.592q.114,1.77.249,3.562a.441.441,0,0,1,.172.592.43.43,0,0,1-.12.12q.4,5.12.986,10.385c.559,5.059,1.268,10.207,2.09,15.4a179.264,179.264,0,0,0,52.353-34.149.432.432,0,0,1,.621.021.437.437,0,0,1-.019.621,185.558,185.558,0,0,1-38.048,27.35,142.252,142.252,0,0,1-14.763,7.048,381.005,381.005,0,0,0,8,37.44c.343,1.323.715,2.637,1.077,3.955,6.651-3.453,33.52-17.744,58.074-35.588a.441.441,0,1,1,.518.713A489.307,489.307,0,0,1,940.54,350.5c-2.933,1.59-5.163,2.761-6.493,3.449,2.047,7.365,4.348,14.641,6.706,21.787.737,2.171,1.52,4.317,2.272,6.459.771,2.137,1.48,4.284,2.306,6.374,1.523,3.96,2.978,7.89,4.559,11.707,7.657-5.068,33.7-22.81,57.138-44.651a.44.44,0,1,1,.6.644C984,378.287,957.72,396.15,950.228,401.1l2.4,5.852,2.533,5.842q.626,1.446,1.245,2.875l1.289,2.817q1.283,2.8,2.531,5.527c3.433,7.226,6.765,14.017,10.045,20.179,2.009,3.832,3.967,7.433,5.844,10.787,4.94-3.585,30.181-22.638,55.786-55.344a.44.44,0,0,1,.694.543c-25.788,32.94-51.239,52.092-56.045,55.574,4,7.123,7.614,13.092,10.491,17.676,2.16,3.441,3.912,6.107,5.125,7.9s1.866,2.718,1.866,2.718l-3.6,2.535s-.7-1-1.9-2.843-2.953-4.576-5.091-8.087c-2.726-4.48-6.108-10.24-9.85-17.079a335.244,335.244,0,0,1-76.39,15.555A.44.44,0,0,1,896.728,473.724Z" transform="translate(-849.111 -192.525)" opacity="0.7" fill="url(#b)"/></g><path d="M1228.763,406.18c9.276-13.1,13.005-23.288,12.675-30.606,0-.065-.007-.128-.011-.191h-.006c-.449-8.132-5.948-12.672-14.382-13.695l.008-.012c-.19-.023-.386-.041-.58-.061l0,0a40.9,40.9,0,0,0-11.164.576c-11.152,1.98-18.554,7.452-19.683,13.775a11.455,11.455,0,0,1-5.249,7.825l-.182.113a20.089,20.089,0,0,1-8.441,2.455c-9,.85-16.728,3.738-20.9,8.043q-3.4,3.507-6.659,7.386c-36.143,43.08-76.319,65.082-89.749,74.379-1.88,1.3-1.807,2.87-.562,4.116l-.01,0c.094.094.194.184.3.275h.007c1.6,1.347,4.625,2.224,8.014,1.765a361.047,361.047,0,0,0,37.32-7.179h.005l.205-.05.4-.1.081-.021h0c21.418-5.327,47.438-13.867,70.994-27.289.311-.178.61-.361.9-.545l.033,0c.146-.085.293-.169.439-.253l-.073-.01c4.935-3.245,7.159-7.471,6.517-11.778-.268-1.8.419-3.866,2.517-6.22,4.8-5.392,13.6-8.58,22.553-11.445,5.286-1.692,9.44-4.227,11.773-7.295l.037-.05c.938-1.235,1.822-2.443,2.667-3.631.067-.094.138-.19.205-.285Z" transform="translate(102.22 62.76)" fill="#0b0244" opacity="0.05"/><g transform="translate(1150.514 259.831)"><path d="M1229.315,347.944l.034-.113c25.715-84.061,7.408-116.252-21.064-102.813-12.61,5.95-20.219,18.959-20.377,32.9a36.7,36.7,0,0,1-2.579,13.95,17.783,17.783,0,0,1-11.657,10.73,35.82,35.82,0,0,0-22.836,20.588q-3.311,8.142-6.4,17.068c-34.172,99.166-76.882,153-90.8,175.223a8.385,8.385,0,0,0,10.135,12.279c20.467-7.93,76.339-33.634,120.453-91.465a37.007,37.007,0,0,0,6.8-28.56c-.641-3.887-.217-8.485,1.792-13.922,4.6-12.453,14.252-20.688,24.141-28.245A35.231,35.231,0,0,0,1229.315,347.944Z" transform="translate(-1052.315 -242.069)" opacity="0.7" fill="url(#b)"/><path d="M1186.848,344.587l44.542-5.024c.066-.231.135-.467.2-.7l-44.451,5.013q13.869-34.137,25.966-73.28l27.662-.022c-.023-.226-.052-.445-.077-.669l-27.38.021q4.192-13.6,8.157-27.777c-.227-.022-.457-.033-.686-.048-7.528,26.847-15.388,51.146-23.4,73.1l-14.375-19.713c-.132.2-.269.391-.406.581l14.5,19.888a729.841,729.841,0,0,1-32.1,75.223L1140.321,350.8c-.1.27-.2.537-.293.805l24.625,40.278c-18.026,35.994-35.453,61.778-50.1,79.879-.873,1.078-1.739,2.13-2.6,3.168l-11.411-35.1c-.147.271-.295.538-.442.81l11.346,34.9c-28.983,34.686-51.932,46.3-58.11,48.981.125.191.259.376.4.556,4.5-1.974,17.017-8.292,33.974-23.654l17.775,5.206.229-.139.452-.277.091-.057-17.966-5.263a260.563,260.563,0,0,0,26.729-28.64,386.844,386.844,0,0,0,29.6-42.439l40.212,5.148q.233-.308.464-.617L1145,429.189a553.406,553.406,0,0,0,28.1-53.04Q1180.174,360.978,1186.848,344.587Z" transform="translate(-1051.93 -242.056)" fill="url(#o)"/></g><g transform="translate(1129.455 257.951)"><path d="M1129.412,314.544v-.087c1.889-64.693-17.378-83.984-34.978-68.9-7.793,6.681-10.663,17.4-8.061,27.328a27,27,0,0,1,.886,10.407,13.1,13.1,0,0,1-6.187,9.889,26.366,26.366,0,0,0-12.205,19.065q-.766,6.425-1.217,13.364c-4.953,77.065-24.794,123.6-30.352,142.1a6.174,6.174,0,0,0,9.587,6.746c12.987-9.616,47.654-38.748,67.713-88.4a27.245,27.245,0,0,0-.734-21.6,20.013,20.013,0,0,1-1.439-10.235c.843-9.738,6.09-17.464,11.641-24.756A25.95,25.95,0,0,0,1129.412,314.544Z" transform="translate(-1037.021 -240.704)" opacity="0.7" fill="url(#b)"/><path d="M1098.306,320.312l30.647-12.241c0-.176.005-.357.005-.533l-30.586,12.216c2.134-17.959,3.524-37.024,4.167-57.087l19.638-5.4c-.061-.156-.124-.306-.186-.46l-19.437,5.347q.33-10.473.383-21.311c-.165.029-.33.065-.5.1-.117,20.527-.967,39.311-2.377,56.454l-14.046-11.2c-.057.167-.114.33-.175.492l14.17,11.3a536.891,536.891,0,0,1-8.144,59.661l-25.391-23.862c-.016.211-.034.419-.051.629l25.327,23.8c-5.789,29.067-13.141,50.767-20.014,66.472-.41.935-.821,1.851-1.23,2.755l-14.938-22.7c-.051.222-.1.439-.155.661l14.853,22.57c-13.824,30.272-27.858,42.986-31.721,46.094.127.11.256.216.391.317,2.813-2.277,10.469-9.2,19.516-23.412l13.634.237.135-.143.267-.285.054-.058-13.781-.238a191.863,191.863,0,0,0,13.4-25.54,284.974,284.974,0,0,0,12.75-35.9l29.554-4.176c.07-.176.141-.351.209-.527l-29.612,4.184A407.36,407.36,0,0,0,1094.7,345.4Q1096.758,333.251,1098.306,320.312Z" transform="translate(-1036.444 -240.653)" opacity="0.7" fill="url(#q)"/></g><g transform="translate(865.023 253.715)"><g transform="translate(125.249)"><path d="M938.285,390.616l25.3-150.127-2.035-.856,3.058-1.753-.006.018a2.2,2.2,0,0,1,2.356.162l202.233,116.759a5.709,5.709,0,0,1,2.626,5.137l-25.506,151.319a1.893,1.893,0,0,1-1.066,1.539h0l-2.992,1.728-.514-2.792.171.052L940.91,395.752A5.708,5.708,0,0,1,938.285,390.616Z" transform="translate(-935.07 -237.628)" fill="url(#r)"/><path d="M1115.1,326.124l3.325-1.472a4.577,4.577,0,0,1,.428,2.5l-25.506,151.319a1.9,1.9,0,0,1-1.066,1.539h0l-2.992,1.728-.514-2.792.171.052-10.171-5.873Z" transform="translate(-882.1 -204.826)" fill="url(#s)"/><path d="M938.606,397.076l202.231,116.759c1.561.9,2.9.381,3.172-1.235l25.5-151.319a5.709,5.709,0,0,0-2.626-5.137L964.658,239.384c-1.562-.9-2.9-.38-3.173,1.236l-25.5,151.32A5.705,5.705,0,0,0,938.606,397.076Z" transform="translate(-935.938 -237.131)" fill="#24126a"/><g transform="translate(7.32 11.912)" opacity="0.51"><path d="M965.3,246.279l194.935,112.546-24.174,142.511-194.8-112.47Z" transform="translate(-941.255 -246.279)" fill="#453c9e"/></g></g><g transform="translate(0 159.421)"><path d="M1051.831,564.742a9.267,9.267,0,0,1-4.526-1.143L847.131,448.029a3.706,3.706,0,0,1-2.156-3.014,2.867,2.867,0,0,1,1.625-2.452L966.052,373.6a8.864,8.864,0,0,1,8.091.306l200.175,115.573a3.71,3.71,0,0,1,2.158,3.013,2.867,2.867,0,0,1-1.626,2.452L1055.4,563.907A7.244,7.244,0,0,1,1051.831,564.742ZM847.82,446.838l200.174,115.569a7.611,7.611,0,0,0,6.715.308l119.452-68.966a1.6,1.6,0,0,0,.938-1.261c0-.609-.551-1.292-1.469-1.822L973.454,375.095a7.6,7.6,0,0,0-6.714-.306L847.288,443.754a1.6,1.6,0,0,0-.936,1.261c0,.61.548,1.292,1.468,1.823Z" transform="translate(-844.975 -346.114)" opacity="0.7" fill="url(#t)"/><path d="M845.552,421.929l11.036,5.764L967.254,363.8a8.032,8.032,0,0,1,7.223.3l190.867,110.2c1.827-1.022,10.155-5.026,10.155-5.026l-4.04,10.525-.016-.012a2.4,2.4,0,0,1-1.129,1.253L1053.76,548.328a8.027,8.027,0,0,1-7.223-.3L851.219,435.262a3.486,3.486,0,0,1-1.638-1.742l-.015.01Z" transform="translate(-844.758 -349.764)" fill="url(#u)"/><path d="M847.287,427.387l200.174,115.572a8.232,8.232,0,0,0,7.4.307L1174.317,474.3c1.9-1.1,1.659-3.009-.531-4.274L973.61,354.454a8.228,8.228,0,0,0-7.4-.306L846.756,423.113C844.858,424.209,845.1,426.123,847.287,427.387Z" transform="translate(-844.787 -353.409)" fill="url(#v)"/><path d="M847.283,407.026,1047.458,522.6a8.236,8.236,0,0,0,7.4.307l119.452-68.966a2.412,2.412,0,0,0,1.2-1.4,2.044,2.044,0,0,1-1.2,2.3L1054.861,523.8a8.231,8.231,0,0,1-7.4-.307L847.283,407.923c-1.42-.819-2-1.908-1.735-2.874A3.382,3.382,0,0,0,847.283,407.026Z" transform="translate(-844.783 -333.944)" fill="#fff"/><path d="M1038.294,473.584v-2.2c0-.208-.127-.3-.284-.213l-7.742,4.469a.679.679,0,0,0-.282.541v2.195c0,.208.127.3.282.213l7.742-4.469A.676.676,0,0,0,1038.294,473.584Z" transform="translate(-775.24 -309.033)" fill="#2842a2"/><path d="M1029.885,478.438v-2.195c0-.208-.127-.3-.282-.213l-7.744,4.469a.679.679,0,0,0-.282.54v2.2c0,.208.127.3.282.213l7.744-4.469A.679.679,0,0,0,1029.885,478.438Z" transform="translate(-778.41 -307.203)" fill="#2842a2"/><path d="M1124.589,462.937,958.243,366.9a3.584,3.584,0,0,0-3.584,0L895.423,401.17a1.278,1.278,0,0,0,0,2.213l166.267,95.995a3.583,3.583,0,0,0,3.58,0l59.315-34.228A1.277,1.277,0,0,0,1124.589,462.937Z" transform="translate(-826.2 -348.505)" fill="#adb1f2"/><path d="M1124.587,465.15l-.595.343-165.75-95.7a3.581,3.581,0,0,0-3.584,0L896.02,403.726l-.595-.343a1.278,1.278,0,0,1,0-2.213L954.659,366.9a3.584,3.584,0,0,1,3.584,0l166.346,96.04A1.277,1.277,0,0,1,1124.587,465.15Z" transform="translate(-826.2 -348.505)" fill="#9198db"/><g transform="translate(77.46 23.365)"><path d="M935.022,374.087l144.494,83.424,6.425-3.709L941.447,370.377Z" transform="translate(-888.495 -370.377)" fill="#24126a"/><path d="M923.583,380.691l135.53,78.249,6.425-3.709-135.53-78.249Z" transform="translate(-892.806 -367.888)" fill="#24126a"/><path d="M916.132,384.993,1075.7,477.122l6.425-3.709L922.557,381.283Z" transform="translate(-895.615 -366.267)" fill="#24126a"/><path d="M908.682,389.294l159.573,92.129,6.424-3.709L915.107,385.585Z" transform="translate(-898.423 -364.645)" fill="#24126a"/><path d="M901.231,393.6,1060.8,485.725l6.424-3.709L907.656,389.887Z" transform="translate(-901.231 -363.024)" fill="#24126a"/><path d="M1046.3,438.335l6.425,3.709,6.425-3.709-6.425-3.709Z" transform="translate(-846.55 -346.161)" fill="#24126a"/><path d="M1029.845,442.042l13.335,7.7,6.425-3.709-13.335-7.7Z" transform="translate(-852.754 -344.764)" fill="#24126a"/></g><path d="M948.858,466.542,904,440.647c-1.753-1.012-1.753-2.653,0-3.665l30.672-17.709a7.015,7.015,0,0,1,6.348,0l44.853,25.9c1.753,1.012,1.753,2.653,0,3.665l-30.671,17.709A7.018,7.018,0,0,1,948.858,466.542Z" transform="translate(-823.221 -328.869)" fill="url(#w)"/><path d="M985.873,446.669l-44.853-25.9a7.011,7.011,0,0,0-6.348,0L904,438.481a2.756,2.756,0,0,0-1.1,1.084c-.464-.885-.11-1.884,1.1-2.583l30.672-17.709a7.015,7.015,0,0,1,6.348,0l44.853,25.9c1.212.7,1.565,1.7,1.1,2.583A2.736,2.736,0,0,0,985.873,446.669Z" transform="translate(-823.216 -328.869)" fill="#9198db"/></g><g transform="translate(132.57 11.912)" opacity="0.11"><g clip-path="url(#x)"><g transform="translate(-5.756 74.338)"><path d="M938.887,374.247l200.175,115.57a8.224,8.224,0,0,0,7.4.307l119.452-68.966c1.9-1.1,1.659-3.009-.532-4.274L1065.21,301.315a8.224,8.224,0,0,0-7.4-.307L938.356,369.973C936.458,371.068,936.7,372.982,938.887,374.247Z" transform="translate(-937.075 -300.268)" fill="url(#y)"/><path d="M1096.84,382.191l-44.852-25.9c-1.755-1.012-1.755-2.653,0-3.665l30.671-17.709a7.018,7.018,0,0,1,6.349,0l44.852,25.9c1.753,1.012,1.753,2.653,0,3.665l-30.671,17.709A7.018,7.018,0,0,1,1096.84,382.191Z" transform="translate(-894.257 -287.492)" fill="url(#z)"/><path d="M1133.855,362.317,1089,336.421a7.018,7.018,0,0,0-6.349,0l-30.671,17.709a2.756,2.756,0,0,0-1.1,1.082c-.463-.884-.11-1.882,1.1-2.582l30.671-17.709a7.018,7.018,0,0,1,6.349,0l44.852,25.9c1.212.7,1.566,1.7,1.1,2.583A2.744,2.744,0,0,0,1133.855,362.317Z" transform="translate(-894.253 -287.492)" fill="#9198db"/><g transform="translate(29.518 38.649)"><path d="M1188.314,424.856l-166.346-96.04a3.584,3.584,0,0,0-3.584,0l-59.235,34.273a1.277,1.277,0,0,0,0,2.211L1125.418,461.3a3.585,3.585,0,0,0,3.581,0l59.315-34.228A1.278,1.278,0,0,0,1188.314,424.856Z" transform="translate(-958.512 -328.337)" fill="#adb1f2"/><path d="M1188.314,427.069l-.6.343-165.75-95.7a3.581,3.581,0,0,0-3.584,0l-58.639,33.926-.595-.343a1.277,1.277,0,0,1,0-2.211l59.235-34.273a3.584,3.584,0,0,1,3.584,0l166.346,96.04A1.278,1.278,0,0,1,1188.314,427.069Z" transform="translate(-958.512 -328.337)" fill="#9198db"/><g transform="translate(10.399 7.029)"><path d="M971.805,351.879l144.916,83.667-5.74,3.314L966.065,355.193Z" transform="translate(-966.065 -326.492)" fill="#24126a"/><path d="M982.894,345.477,1120.635,425l-5.741,3.314-137.74-79.524Z" transform="translate(-961.885 -328.905)" fill="#24126a"/><path d="M1090.4,407.544l12.865,7.427-5.74,3.314-12.865-7.427Z" transform="translate(-921.364 -305.511)" fill="#24126a"/><path d="M1082.147,415.585l8.958,5.172-5.741,3.314-8.958-5.172Z" transform="translate(-924.474 -302.48)" fill="#24126a"/><path d="M989.843,341.465l160.89,92.89-5.741,3.314L984.1,344.779Z" transform="translate(-959.266 -330.418)" fill="#24126a"/><path d="M996.791,337.453l160.89,92.89-5.74,3.314-160.89-92.89Z" transform="translate(-956.647 -331.93)" fill="#24126a"/><path d="M1003.74,333.442l160.89,92.89-5.74,3.314L998,336.756Z" transform="translate(-954.028 -333.442)" fill="#24126a"/></g></g></g></g></g></g><g transform="translate(1233.877 519.897)"><path d="M1166.748,508.965a4.574,4.574,0,0,1-2.253-.527l-50.624-29.228a1.782,1.782,0,0,1-1.013-1.524,2.317,2.317,0,0,1,1.352-1.88l49.945-28.837a5.6,5.6,0,0,1,5.113-.2L1219.891,476a1.78,1.78,0,0,1,1.013,1.524,2.318,2.318,0,0,1-1.351,1.879l-49.947,28.838A5.859,5.859,0,0,1,1166.748,508.965Zm-1.86-1.206a4.893,4.893,0,0,0,4.329-.2l49.945-28.837c.6-.347.958-.8.958-1.2a1.06,1.06,0,0,0-.62-.845l-50.625-29.227a4.907,4.907,0,0,0-4.329.194L1114.6,476.485c-.6.347-.958.8-.958,1.2a1.06,1.06,0,0,0,.62.844Z" transform="translate(-1112.858 -425.177)" fill="#8686f2" style="mix-blend-mode:lighten;isolation:isolate"/><g transform="translate(0.131)"><path d="M1220.477,453.488V459.7l-53.761,31.039-53.763-31.04v-6.213Z" transform="translate(-1112.953 -422.448)" fill="url(#aa)"/><path d="M1166.716,493.023l-53.763-31.04,53.761-31.039,53.763,31.04Z" transform="translate(-1112.953 -430.944)" fill="#bcbeff"/><path d="M1166.716,483.9l-53.134-30.677-.629.363,53.763,31.04,53.761-31.039-.628-.363Z" transform="translate(-1112.953 -422.547)" fill="#fff"/><g transform="translate(12.411 1.152)"><path d="M1163.318,483.9l-41.351-23.874,41.35-23.873,41.351,23.874Z" transform="translate(-1121.966 -430.133)" fill="#0f054c"/><g transform="translate(0)"><path d="M1163.318,483.9l-41.352-23.874,41.35-23.874,41.352,23.874Z" transform="translate(-1121.967 -430.133)" opacity="0.5" fill="url(#ab)"/><path d="M1152,431.781l41.352,23.874v6.02L1152,437.8Z" transform="translate(-1110.647 -431.781)" opacity="0.5" fill="url(#ab)"/><path d="M1163.318,437.8l-41.352,23.874v-6.02l41.35-23.874Z" transform="translate(-1121.967 -431.781)" opacity="0.5" fill="url(#ab)"/><path d="M1163.318,479.53l-41.352-23.874,41.35-23.874,41.352,23.874Z" transform="translate(-1121.967 -431.781)" opacity="0.5" fill="url(#ab)"/><path d="M1156.521,461.271,1140,451.731l16.523-9.539,16.523,9.54Z" transform="translate(-1115.17 -427.857)" fill="#0cf" opacity="0.5"/><path d="M1156.521,443.07l15.763,9.1.76-.439-16.523-9.54L1140,451.731l.76.439Z" transform="translate(-1115.17 -427.857)" fill="#0cf" opacity="0.5"/><path d="M1152,472.994v6.02l41.35-23.874v-6.02Z" transform="translate(-1110.647 -425.246)" opacity="0.5" fill="url(#ab)"/><path d="M1121.967,449.12v6.02l41.352,23.874v-6.02Z" transform="translate(-1121.967 -425.246)" opacity="0.5" fill="url(#ab)"/></g><path d="M1163.318,472.427l-40.783-23.546-.569.329,41.352,23.874,41.35-23.874-.569-.329Z" transform="translate(-1121.966 -425.336)" fill="#0cf" opacity="0.8"/></g></g></g><g transform="translate(1167.947 559.87)"><path d="M1118.865,538a4.564,4.564,0,0,1-2.251-.527l-50.625-29.228a1.778,1.778,0,0,1-1.012-1.524,2.315,2.315,0,0,1,1.351-1.879L1116.272,476a5.6,5.6,0,0,1,5.113-.2l50.625,29.228a1.781,1.781,0,0,1,1.012,1.524,2.318,2.318,0,0,1-1.351,1.88l-49.947,28.838A5.853,5.853,0,0,1,1118.865,538ZM1117,536.79a4.893,4.893,0,0,0,4.329-.2l49.945-28.837c.6-.347.96-.8.96-1.2a1.064,1.064,0,0,0-.621-.845l-50.624-29.227a4.906,4.906,0,0,0-4.329.194l-49.947,28.837c-.6.347-.958.8-.958,1.2a1.06,1.06,0,0,0,.62.844Z" transform="translate(-1064.976 -454.208)" fill="#8686f2" style="mix-blend-mode:lighten;isolation:isolate"/><g transform="translate(0.13)"><path d="M1172.595,482.519v6.213l-53.761,31.039-53.763-31.04v-6.213Z" transform="translate(-1065.07 -451.479)" fill="url(#aa)"/><path d="M1118.833,522.055l-53.763-31.04,53.761-31.039,53.763,31.04Z" transform="translate(-1065.07 -459.975)" fill="#bcbeff"/><path d="M1118.833,512.931,1065.7,482.254l-.629.363,53.763,31.04,53.761-31.039-.629-.363Z" transform="translate(-1065.07 -451.578)" fill="#fff"/><g transform="translate(12.411 1.152)"><path d="M1115.435,512.932l-41.351-23.874,41.35-23.873,41.351,23.874Z" transform="translate(-1074.084 -459.164)" fill="#0f054c"/><path d="M1115.436,512.933l-41.352-23.874,41.35-23.874,41.352,23.874Z" transform="translate(-1074.084 -459.164)" opacity="0.5" fill="url(#ab)"/><path d="M1104.115,460.812l41.352,23.874v6.02l-41.352-23.874Z" transform="translate(-1062.765 -460.812)" opacity="0.5" fill="url(#ab)"/><path d="M1115.436,466.832l-41.352,23.874v-6.02l41.35-23.874Z" transform="translate(-1074.084 -460.812)" opacity="0.5" fill="url(#ab)"/><path d="M1115.436,508.561l-41.352-23.874,41.35-23.874,41.352,23.874Z" transform="translate(-1074.084 -460.812)" opacity="0.5" fill="url(#ab)"/><path d="M1108.639,490.3l-16.523-9.54,16.523-9.539,16.523,9.54Z" transform="translate(-1067.287 -456.888)" fill="#0cf" opacity="0.5"/><path d="M1108.638,472.1l15.763,9.1.76-.439-16.523-9.54-16.523,9.539.76.439Z" transform="translate(-1067.287 -456.888)" fill="#0cf" opacity="0.5"/><path d="M1104.116,502.025v6.02l41.35-23.874v-6.02Z" transform="translate(-1062.764 -454.277)" opacity="0.5" fill="url(#ab)"/><path d="M1074.084,478.151v6.02l41.352,23.874v-6.02Z" transform="translate(-1074.084 -454.277)" opacity="0.5" fill="url(#ab)"/><path d="M1115.436,501.458l-40.783-23.546-.569.329,41.352,23.874,41.35-23.874-.569-.329Z" transform="translate(-1074.084 -454.367)" fill="#0cf" opacity="0.8"/></g></g></g><g transform="translate(1102.016 599.843)"><path d="M1070.981,567.027a4.565,4.565,0,0,1-2.251-.527L1018.1,537.272a1.778,1.778,0,0,1-1.012-1.524,2.315,2.315,0,0,1,1.351-1.88l49.946-28.837a5.594,5.594,0,0,1,5.111-.2l50.625,29.228a1.779,1.779,0,0,1,1.012,1.524,2.315,2.315,0,0,1-1.351,1.879l-49.945,28.838A5.861,5.861,0,0,1,1070.981,567.027Zm-1.86-1.206a4.894,4.894,0,0,0,4.329-.2l49.946-28.837c.6-.347.958-.8.958-1.2a1.059,1.059,0,0,0-.62-.846l-50.625-29.227a4.906,4.906,0,0,0-4.329.194l-49.947,28.837c-.6.347-.958.8-.958,1.2a1.062,1.062,0,0,0,.621.844Z" transform="translate(-1017.093 -483.239)" fill="#8686f2" style="mix-blend-mode:lighten;isolation:isolate"/><g transform="translate(0.13)"><path d="M1124.712,511.55v6.213L1070.95,548.8l-53.763-31.04v-6.213Z" transform="translate(-1017.187 -480.51)" fill="url(#aa)"/><path d="M1070.95,551.086l-53.763-31.04,53.761-31.039,53.763,31.04Z" transform="translate(-1017.187 -489.006)" fill="#bcbeff"/><path d="M1070.95,541.963l-53.134-30.677-.628.363,53.763,31.04,53.761-31.039-.629-.363Z" transform="translate(-1017.187 -480.609)" fill="#fff"/><g transform="translate(12.411 1.152)"><path d="M1067.552,541.963,1026.2,518.089l41.35-23.873L1108.9,518.09Z" transform="translate(-1026.201 -488.195)" fill="#0f054c"/><path d="M1067.553,541.964,1026.2,518.089l41.35-23.874L1108.9,518.09Z" transform="translate(-1026.201 -488.195)" opacity="0.5" fill="url(#ab)"/><path d="M1056.232,489.843l41.352,23.874v6.02l-41.352-23.874Z" transform="translate(-1014.882 -489.843)" opacity="0.5" fill="url(#ab)"/><path d="M1067.553,495.863,1026.2,519.737v-6.02l41.35-23.874Z" transform="translate(-1026.201 -489.843)" opacity="0.5" fill="url(#ab)"/><path d="M1067.553,537.592,1026.2,513.717l41.35-23.874,41.352,23.874Z" transform="translate(-1026.201 -489.843)" opacity="0.5" fill="url(#ab)"/><path d="M1060.756,519.333l-16.523-9.54,16.523-9.539,16.523,9.54Z" transform="translate(-1019.405 -485.919)" fill="#0cf" opacity="0.5"/><path d="M1060.755,501.132l15.763,9.1.76-.439-16.523-9.54-16.523,9.539.76.439Z" transform="translate(-1019.404 -485.919)" fill="#0cf" opacity="0.5"/><path d="M1056.233,531.056v6.02l41.35-23.874v-6.02Z" transform="translate(-1014.881 -483.308)" opacity="0.5" fill="url(#ab)"/><path d="M1026.2,507.182v6.02l41.352,23.874v-6.02Z" transform="translate(-1026.201 -483.308)" opacity="0.5" fill="url(#ab)"/><path d="M1067.553,530.489l-40.782-23.546-.569.329,41.352,23.874,41.351-23.874-.569-.329Z" transform="translate(-1026.201 -483.398)" fill="#0cf" opacity="0.8"/></g></g></g><g transform="translate(66.774 27.518)"><g transform="translate(1020.712 313.314)"><path d="M1020.212,329.236l-5.372,2.906-5.767-14.188c2.827-1.373,5.766-3.237,8.957-4.316a7.912,7.912,0,0,1,6.4.905,14.961,14.961,0,0,1,5.855,6.856c2.651,5.989,4.948,12.2,7.395,18.3l-5.475,2.9-4.363-10.815c-.737-1.831-1.477-3.645-2.226-5.481a7.421,7.421,0,0,0-.5-1.255,6.2,6.2,0,0,0-2.35-2.633,3.2,3.2,0,0,0-3.632.078c-.436.221-.916.352-1.9.715.673,1.255,1.21,2.17,1.693,3.166S1019.832,328.38,1020.212,329.236Z" transform="translate(-1009.072 -313.314)" fill="#f8fbfe"/></g><g transform="translate(994.777 323.022)" style="isolation:isolate"><g transform="translate(11.593 32.479)"><path d="M1001.167,339.121l5.079-2.554,9.633,23.718L1010.845,363Z" transform="translate(-1001.167 -336.567)" fill="#f8fbfe"/></g><g transform="translate(0 19.681)"><path d="M1006.887,351.515l3.2,7.858-9.623,5.154c-1.889-4.47-3.589-9.044-5.082-13.678-1.7-6.582.277-13.016,4.659-15.14,3.882-2.1,7.774-4.182,11.5-6.2l3.373,8.215c-.78.385-1.822.844-2.838,1.368q-4.063,2.161-8.146,4.343c-2.9,1.557-3.433,4.189-1.725,8.474.219.568.408,1.165.733,2.1Z" transform="translate(-994.777 -329.513)" fill="#f8fbfe"/></g><g transform="translate(4.491)"><path d="M999.141,341.282c-3.253-6.776-2.2-14.9,2.353-18.154a69.936,69.936,0,0,1,8.87-4.463c.363.943.813,2.215,1.317,3.471,3.262,8.121,6.678,16.183,9.779,24.391.08.241.163.47.243.711,2.342,7.3.1,14.754-5.011,16.651l-3.124-7.845c1.792-.646,2.81-2.932,2.5-5.577a3.925,3.925,0,0,0-.171-1.061q-4.036-9.922-8.061-19.839c-3.87.967-4.8,3.581-3.3,8.857Z" transform="translate(-997.252 -318.665)" fill="#f8fbfe"/></g><g transform="translate(10.998 56.218)"><path d="M1017.109,371.692c.114.261.254.523.366.8.942,2.275,1.883,4.567,2.885,6.99a7.977,7.977,0,0,1-8.7-.022,15.455,15.455,0,0,1-5.929-6.742c-1.76-3.971-3.237-8.123-4.895-12.33,2.564-1.361,5.234-2.807,7.912-4.216,3.754-1.979,7.449-4.109,11.268-5.9l.129-.056a8.08,8.08,0,0,1,7.261.718,16.124,16.124,0,0,1,6.742,8.819l-5.352,2.87a19.043,19.043,0,0,0-2.059-3.082,4.667,4.667,0,0,0-1.063-.86,2.858,2.858,0,0,0-2.867-.136c-4.38,2.3-8.734,4.674-13.086,7.043.733,3.066,1.771,4.971,3.269,5.836A5.3,5.3,0,0,0,1017.109,371.692Z" transform="translate(-1000.839 -349.652)" fill="#f8fbfe"/></g><g transform="translate(26.545 68.395)"><path d="M1026.662,369.68l5.4-2.894,5.78,14.13a73.6,73.6,0,0,1-9.568,4.454,7.709,7.709,0,0,1-5.98-.934,14.155,14.155,0,0,1-5.427-6.174c-2.787-6.279-5.015-12.872-7.455-19.26l5.018-2.638c.134.288.39.747.588,1.236,1.856,4.567,3.826,9.084,5.537,13.73.978,2.645,2.114,4.369,3.436,5.134,1.482.855,3.2.508,5.194-1.1Z" transform="translate(-1009.408 -356.363)" fill="#f8fbfe"/></g><g transform="translate(35.698 65.18)"><path d="M1017.377,370.763l-2.925-7.305,16.6-8.867L1034,361.91Z" transform="translate(-1014.453 -354.591)" fill="#f8fbfe"/></g><g transform="translate(54.401 29.054)"><path d="M1029.8,334.679l9.638,23.754-5.019,2.7-9.658-23.717Z" transform="translate(-1024.762 -334.679)" fill="#f8fbfe"/></g><g transform="translate(50.929 42.628)"><path d="M1046.187,364.872c2.507,5.056,2.6,11.151.232,15.189a8.851,8.851,0,0,1-2.808,3.179c-2.641,1.611-5.43,2.874-8.248,4.334-.167-.325-.381-.728-.562-1.174-3.4-8.346-6.807-16.682-10.16-25.052-.118-.249-.223-.488-.327-.744-2.959-7.326-1.3-15.479,3.729-18.226a4.805,4.805,0,0,1,.5-.218l3.063,7.515a20.852,20.852,0,0,0-2.072,3.883,6.15,6.15,0,0,0,.238,3.485c2.549,6.549,5.252,13.043,7.905,19.536,4.04-1.488,4.7-3.36,3.213-8.839Z" transform="translate(-1022.848 -342.161)" fill="#f8fbfe"/></g><g transform="translate(36.471 0.557)"><path d="M1031.781,328.274c-.477-1.272-.934-2.565-1.469-3.87s-1.123-2.591-1.742-3.993a7.517,7.517,0,0,1,.851-.537,8.06,8.06,0,0,1,8.066.4,15.984,15.984,0,0,1,6.484,7.985c1.466,3.574,2.927,7.176,4.412,10.842a8.044,8.044,0,0,1-.716.517c-6.02,3.219-12.036,6.473-18.07,9.636-.145.08-.289.143-.432.207a8.161,8.161,0,0,1-7.511-.662,16.3,16.3,0,0,1-6.774-8.761l5.535-2.812c.992,2.028,1.878,3.284,2.881,3.863,1.136.655,2.42.446,4.175-.492,3.627-1.923,7.245-3.868,10.873-5.806.379-.205.753-.446,1.121-.659-.974-3.238-2.03-5.178-3.44-5.991C1034.887,327.483,1033.521,327.557,1031.781,328.274Z" transform="translate(-1014.879 -318.972)" fill="#f8fbfe"/></g><g transform="translate(60.506 33.312)"><path d="M1036.219,350.187l-3.122-8.039,9.487-5.122c1.557,3.757,3.384,7.718,4.866,11.84,2.3,6.473.9,13.417-3.291,16.174-4.1,2.6-8.54,4.427-13.081,6.7-.822-2.108-1.718-4.421-2.618-6.72-.1-.27-.182-.562-.332-1.025l7.707-4.106c1.212-.657,2.444-1.284,3.658-1.954a2.928,2.928,0,0,0,.965-.523c1.818-1.464,2.132-4.859.711-7.589-.274-.68-.5-1.4-.776-2.2Z" transform="translate(-1028.127 -337.026)" fill="#f8fbfe"/></g></g><g transform="translate(1020.239 329.716)"><path d="M1025.5,322.355l2.911,7.183-16.711,8.9-2.888-7.17Z" transform="translate(-1008.811 -322.355)" fill="#f8fbfe"/></g></g></g></svg>