<svg xmlns="http://www.w3.org/2000/svg" width="506.273" height="502.624" viewBox="0 0 506.273 502.624"><path d="M818.855,665.212a65.85,65.85,0,0,0,9.353-92.667c-.763-.922-1.536-1.831-2.348-2.716-28.612-30.43-58.931-59.275-88.488-88.857-4.535-4.547-8.812-9.34-12.13-12.868a637.39,637.39,0,0,0-47.464,45.474,65.8,65.8,0,0,0,8.393,92.483l28.71-28.353c-15.5-20.893-13.138-35.838,8.75-50.967q36.28,35.912,72.622,71.971a14.946,14.946,0,0,1,2.323,4.56,28.246,28.246,0,0,1-8.062,33.306Zm288.9,36.379c-23.806-23.572-47.931-46.948-71.282-70.987a22.25,22.25,0,0,1-5.691-15.879,122.526,122.526,0,0,1,7.558-24.077l-27.5-27.272c-.578.516-1.721,1.426-2.741,2.458a68.3,68.3,0,0,0,.234,96.575c.922.909,1.868,1.795,2.827,2.655,30.38,30.455,61.044,60.651,91.609,90.947,1.586,1.573,3.429,2.888,4.769,3.994,15.043-14.588,30.147-28.267,43.937-43.1a66.2,66.2,0,0,0,12.856-22.749,64.1,64.1,0,0,0-20.156-71.38l-28.107,28.07c15.657,21.9,14.047,32.581-8.309,50.758ZM922.092,388.427c5.42,4.99,10.533,9.427,15.338,14.183s9.132,9.623,13.52,14.318c21.273-18.226,35.407-16.174,53.08,6.735-1.917,2.04-3.835,4.2-5.887,6.231q-28.814,28.648-57.677,57.247c-17.587,17.44-28.39,18.03-46.3,3.38l-29.607,28.464a68.653,68.653,0,0,0,96.931,5.58c.787-.7,1.561-1.426,2.311-2.163,32.152-31.561,64.007-63.417,95.973-95.162,1.229-1.229,2.188-2.606,3.687-4.425-13.445-13.31-26.559-26.375-39.746-39.328a68.762,68.762,0,0,0-97.226.086c-1.536,1.549-3.012,3.159-4.4,4.843Zm44.428,320.956a67.6,67.6,0,0,0-95.346-6.858l-.725.627c-20.61,18.927-40.029,39.132-59.964,58.8-14.244,14.047-28.44,28.156-42.044,41.614,15.056,15.424,28.992,31.069,44.4,45.117a68.826,68.826,0,0,0,95.69-7.976c-8.984-8.8-17.391-17.046-25.81-25.268-1.032-1.008-2.187-1.893-3.219-2.778-22.123,15.658-37.424,13-51.619-8.775,23.106-23.081,46.136-46.272,69.414-69.206a24.373,24.373,0,0,1,24.728-6.009,78.642,78.642,0,0,1,16.088,8.959Zm37.977,94.424c-18.779,24.777-37.178,25.441-56.46,4.511C932.06,791,914.755,774.95,897.992,758.383c-1.782-1.758-3.81-3.269-4.977-4.265l-26.755,26.227c22.478,23.609,43.949,48.816,68.271,70.914a62.665,62.665,0,0,0,76.862,2.458,661.914,661.914,0,0,0,51.618-47.292l-51.938-51.1-28.6,28.476ZM966.336,446.055c-22.122-22.184-43.482-45.35-66.722-66.526a65.219,65.219,0,0,0-82.712-3.208c-17.7,13.826-33.011,30.725-48.164,44.994L820.7,472.774l28.477-28.488c-3.368-3.048-7.166-6.747-11.258-10.1s-8.382-6.256-13.974-10.385c5.445-4.412,8.124-6.292,10.459-8.517a27.667,27.667,0,0,1,38.874-4.314,27.348,27.348,0,0,1,4.547,4.609q10.066,9.918,20.058,19.91l39.414,39.267Zm116.633,219.058c24.248-23.24,48.5-44.072,69.771-67.6a64.484,64.484,0,0,0-.271-85.65c-13.949-15.485-29.766-29.311-43.691-42.843l-50.327,50.242,28.611,29.582,21.765-23.548c2.63,3.011,4.806,5.813,7.3,8.308a27.037,27.037,0,0,1,5.124,37.9,26.581,26.581,0,0,1-5.124,5.113c-6.416,6.5-12.954,12.892-19.443,19.32L1055.747,636.5c1.487,1.782,2.323,2.925,3.305,3.945,8.174,8.419,16.371,16.911,23.9,24.654ZM723.362,703.422c-3.085-3.564-4.916-5.911-6.957-7.988-15.46-15.608-15.522-29.558-.1-44.9q21.606-21.458,43.261-42.88c5.371-5.272,11-10.274,15.214-14.195l-30.221-29.779c-19.811,19.75-40.459,40.287-61.056,60.873a65.149,65.149,0,0,0-9.12,84.494,565.841,565.841,0,0,0,47.194,50.942l51.151-50.783-28.845-28.452Zm123.146,7.3L759.753,624.63l-27.186,26.03,87.26,86.646Zm104.625,85.527,88.329-87.493-26.669-26.62-88.156,87.444ZM880.1,432.647l-88.685,87.96,26.116,26.116,88.771-88Zm104.06,85.44,86.977,86.031,26.583-26.522-86.867-86.228Z" transform="translate(-662.605 -363.073)" fill="#e8f3ff"/></svg>