<svg xmlns="http://www.w3.org/2000/svg" width="385.912" height="167.208" viewBox="0 0 385.912 167.208"><g transform="translate(-4242.192 840.341)"><g opacity="0.2"><rect width="166.208" height="384.912" transform="translate(4627.604 -839.841) rotate(90)" fill="none" stroke="#17181c" stroke-miterlimit="10" stroke-width="1"/><rect width="78.993" height="297.074" transform="translate(4583.685 -796.234) rotate(90)" fill="none" stroke="#17181c" stroke-miterlimit="10" stroke-width="1"/><path d="M4627.6-796.234h-43.919v-43.607" fill="none" stroke="#17181c" stroke-miterlimit="10" stroke-width="1"/><path d="M4286.608-839.841v43.607h-43.917" fill="none" stroke="#17181c" stroke-miterlimit="10" stroke-width="1"/><path d="M4583.685-673.634v-43.607H4627.6" fill="none" stroke="#17181c" stroke-miterlimit="10" stroke-width="1"/><path d="M4242.692-717.241h43.917v43.607" fill="none" stroke="#17181c" stroke-miterlimit="10" stroke-width="1"/></g><path d="M4296.554-734.215a30.049,30.049,0,0,1-9.943-4.671l4.392-9.743a29.731,29.731,0,0,0,8.545,4.233,32.085,32.085,0,0,0,9.9,1.6q5.509,0,8.146-1.638a4.944,4.944,0,0,0,2.635-4.351,4.161,4.161,0,0,0-1.556-3.313,11.807,11.807,0,0,0-3.993-2.117q-2.437-.8-6.589-1.757a90.8,90.8,0,0,1-10.462-3.035,16.969,16.969,0,0,1-6.987-4.871,13.154,13.154,0,0,1-2.916-8.944,15.554,15.554,0,0,1,2.635-8.823,17.726,17.726,0,0,1,7.947-6.27,32.424,32.424,0,0,1,12.976-2.318,43,43,0,0,1,10.462,1.28,30.962,30.962,0,0,1,8.944,3.672l-3.993,9.823a31.181,31.181,0,0,0-15.493-4.392q-5.432,0-8.025,1.759a5.356,5.356,0,0,0-2.594,4.632,4.523,4.523,0,0,0,2.994,4.271,46.844,46.844,0,0,0,9.143,2.756,91.6,91.6,0,0,1,10.462,3.035,17.347,17.347,0,0,1,6.989,4.792q2.914,3.276,2.914,8.862a15.282,15.282,0,0,1-2.674,8.747,17.969,17.969,0,0,1-8.027,6.266,32.7,32.7,0,0,1-13.017,2.318A45.689,45.689,0,0,1,4296.554-734.215Z" fill="#333"/><path d="M4337.719-784.325a6.476,6.476,0,0,1-2.154-4.951,6.478,6.478,0,0,1,2.154-4.951,7.911,7.911,0,0,1,5.592-2,8.1,8.1,0,0,1,5.59,1.917,6.147,6.147,0,0,1,2.156,4.792,6.78,6.78,0,0,1-2.156,5.15,7.811,7.811,0,0,1-5.59,2.037A7.9,7.9,0,0,1,4337.719-784.325Zm-.637,7.986h12.458v42.964h-12.458Z" fill="#333"/><path d="M4401.446-776.338v35.775q0,11.818-6.149,17.571t-17.968,5.75a45.036,45.036,0,0,1-11.819-1.517,25.837,25.837,0,0,1-9.264-4.392l4.951-8.944a20.376,20.376,0,0,0,6.868,3.553,27.3,27.3,0,0,0,8.305,1.319q6.469,0,9.544-2.916t3.074-8.823V-740.8q-4.87,5.354-13.576,5.351a22.766,22.766,0,0,1-10.82-2.594,19.739,19.739,0,0,1-7.787-7.308,20.408,20.408,0,0,1-2.875-10.859,20.44,20.44,0,0,1,2.875-10.861,19.8,19.8,0,0,1,7.787-7.308,22.8,22.8,0,0,1,10.82-2.594q9.344,0,14.215,6.149v-5.51Zm-15.452,27.75a9.9,9.9,0,0,0,3.153-7.626,9.906,9.906,0,0,0-3.153-7.628,11.489,11.489,0,0,0-8.107-2.914,11.624,11.624,0,0,0-8.146,2.914,9.843,9.843,0,0,0-3.194,7.628,9.836,9.836,0,0,0,3.194,7.626,11.606,11.606,0,0,0,8.146,2.914,11.47,11.47,0,0,0,8.107-2.915Z" fill="#333"/><path d="M4448.045-772.186q4.912,4.792,4.911,14.215v24.6H4440.5v-22.68q0-5.109-2.236-7.628a8.206,8.206,0,0,0-6.469-2.515,9.917,9.917,0,0,0-7.507,2.914q-2.8,2.916-2.795,8.666v21.243h-12.453v-42.967h11.9v5.031a16.54,16.54,0,0,1,6.149-4.194,21.456,21.456,0,0,1,8.066-1.476Q4443.132-776.977,4448.045-772.186Z" fill="#333"/><path d="M4503.506-776.339v42.964h-11.819v-5.111a16.492,16.492,0,0,1-5.91,4.271,18.573,18.573,0,0,1-7.427,1.478q-8.468,0-13.416-4.871t-4.951-14.455V-776.34h12.458v22.44q0,10.382,8.7,10.382a9.354,9.354,0,0,0,7.188-2.909q2.714-2.916,2.715-8.668v-21.241Z" fill="#333"/><path d="M4578.934-772.227q4.748,4.752,4.751,14.256v24.6h-12.458v-22.68q0-5.109-2.117-7.628a7.439,7.439,0,0,0-6.028-2.515,8.9,8.9,0,0,0-6.948,2.834q-2.555,2.838-2.555,8.424v21.564h-12.458v-22.68q0-10.14-8.146-10.142a8.8,8.8,0,0,0-6.868,2.834q-2.556,2.838-2.555,8.424v21.564h-12.458v-42.966h11.9v4.951a15.745,15.745,0,0,1,5.871-4.155,19.8,19.8,0,0,1,7.626-1.435,18.505,18.505,0,0,1,8.225,1.8,14.589,14.589,0,0,1,5.91,5.23,17.672,17.672,0,0,1,6.667-5.191,21.072,21.072,0,0,1,8.825-1.835Q4574.184-776.978,4578.934-772.227Z" fill="#333"/><path d="M4281.7-835.049q4.912,4.793,4.911,14.215v24.6h-12.459v-22.68q0-5.11-2.236-7.628a8.2,8.2,0,0,0-6.469-2.515,9.914,9.914,0,0,0-7.507,2.914q-2.8,2.916-2.795,8.666v21.243h-12.453V-839.2h11.9v5.031a16.538,16.538,0,0,1,6.149-4.194,21.457,21.457,0,0,1,8.066-1.476Q4276.787-839.841,4281.7-835.049Z" fill="#333" opacity="0.2"/><path d="M4622.693-835.049q4.912,4.793,4.911,14.215v24.6h-12.459v-22.68q0-5.11-2.236-7.628a8.2,8.2,0,0,0-6.469-2.515,9.915,9.915,0,0,0-7.507,2.914q-2.8,2.916-2.795,8.666v21.243h-12.453V-839.2h11.9v5.031a16.556,16.556,0,0,1,6.149-4.194,21.464,21.464,0,0,1,8.066-1.476Q4617.78-839.841,4622.693-835.049Z" fill="#333" opacity="0.2"/><path d="M4281.7-712.449q4.912,4.792,4.911,14.215v24.6h-12.459v-22.68q0-5.109-2.236-7.628a8.2,8.2,0,0,0-6.469-2.515,9.917,9.917,0,0,0-7.507,2.914q-2.8,2.916-2.795,8.666v21.243h-12.453V-716.6h11.9v5.031a16.538,16.538,0,0,1,6.149-4.194,21.454,21.454,0,0,1,8.066-1.476Q4276.787-717.24,4281.7-712.449Z" fill="#333" opacity="0.2"/><path d="M4622.693-712.449q4.912,4.792,4.911,14.215v24.6h-12.459v-22.68q0-5.109-2.236-7.628a8.2,8.2,0,0,0-6.469-2.515,9.919,9.919,0,0,0-7.507,2.914q-2.8,2.916-2.795,8.666v21.243h-12.453V-716.6h11.9v5.031a16.556,16.556,0,0,1,6.149-4.194,21.461,21.461,0,0,1,8.066-1.476Q4617.78-717.24,4622.693-712.449Z" fill="#333" opacity="0.2"/></g></svg>