<svg xmlns="http://www.w3.org/2000/svg" width="923.901" height="917.24" viewBox="0 0 923.901 917.24">
  <path id="Pfad_8" data-name="Pfad 8" d="M947.746,914.448a120.171,120.171,0,0,0,17.069-169.109c-1.392-1.682-2.8-3.342-4.285-4.957C908.317,684.85,852.988,632.211,799.048,578.226c-8.276-8.3-16.082-17.045-22.136-23.482A1163.279,1163.279,0,0,0,690.3,637.729,120.071,120.071,0,0,0,705.612,806.5L758,754.758c-28.282-38.127-23.976-65.4,15.968-93.009q66.208,65.535,132.528,131.34a27.276,27.276,0,0,1,4.24,8.321,51.546,51.546,0,0,1-14.713,60.78Zm527.22,66.387c-43.443-43.017-87.469-85.676-130.084-129.545a40.6,40.6,0,0,1-10.385-28.977,223.593,223.593,0,0,1,13.793-43.937L1298.1,728.607c-1.054.942-3.141,2.6-5,4.486a124.637,124.637,0,0,0,.427,176.24c1.682,1.66,3.409,3.275,5.159,4.845,55.441,55.577,111.4,110.683,167.179,165.969,2.894,2.87,6.257,5.27,8.7,7.289,27.452-26.622,55.016-51.584,80.181-78.655a120.8,120.8,0,0,0,23.46-41.515A116.985,116.985,0,0,0,1541.422,837l-51.293,51.226c28.573,39.967,25.635,59.458-15.162,92.629ZM1136.144,409.342c9.891,9.106,19.221,17.2,27.99,25.883s16.666,17.562,24.672,26.129c38.822-33.261,64.615-29.515,96.866,12.29-3.5,3.724-7,7.671-10.743,11.372q-52.583,52.279-105.255,104.47c-32.094,31.826-51.808,32.9-84.486,6.168l-54.03,51.944a125.286,125.286,0,0,0,176.891,10.183c1.435-1.279,2.849-2.6,4.216-3.948,58.673-57.6,116.807-115.729,175.142-173.661,2.243-2.243,3.993-4.755,6.729-8.074-24.536-24.289-48.468-48.131-72.533-71.77a125.483,125.483,0,0,0-177.428.157c-2.8,2.826-5.5,5.764-8.03,8.837Zm81.078,585.713a123.363,123.363,0,0,0-174-12.515l-1.323,1.143c-37.612,34.54-73.048,71.412-109.428,107.3-25.994,25.635-51.9,51.383-76.727,75.941,27.475,28.147,52.909,56.7,81.034,82.334a125.6,125.6,0,0,0,174.626-14.556c-16.395-16.058-31.737-31.108-47.1-46.112-1.884-1.839-3.991-3.454-5.875-5.069-40.373,28.574-68.3,23.729-94.2-16.013,42.166-42.12,84.194-84.443,126.674-126.294a44.478,44.478,0,0,1,45.126-10.966,143.524,143.524,0,0,1,29.359,16.35Zm69.3,172.315c-34.271,45.215-67.845,46.427-103.035,8.232-29.156-31.6-60.736-60.893-91.328-91.126-3.253-3.207-6.953-5.966-9.083-7.783l-48.826,47.862c41.021,43.085,80.2,89.085,124.589,129.411a114.357,114.357,0,0,0,140.265,4.485,1207.908,1207.908,0,0,0,94.2-86.3l-94.782-93.256-52.19,51.966Zm-69.64-652.862c-40.37-40.483-79.35-82.76-121.762-121.4a119.018,119.018,0,0,0-150.942-5.854c-32.3,25.232-60.242,56.071-87.9,82.11l94.825,93.906,51.967-51.988c-6.146-5.562-13.078-12.313-20.545-18.436s-15.3-11.416-25.5-18.952c9.937-8.052,14.825-11.483,19.087-15.542a50.49,50.49,0,0,1,70.941-7.873,49.9,49.9,0,0,1,8.3,8.411q18.37,18.1,36.6,36.333l71.926,71.658Zm212.845,399.76c44.25-42.411,88.5-80.427,127.325-123.355a117.678,117.678,0,0,0-.495-156.3c-25.456-28.259-54.321-53.49-79.732-78.185l-91.842,91.687L1437.2,702.1l39.719-42.973c4.8,5.5,8.77,10.608,13.324,15.162a49.34,49.34,0,0,1,9.351,69.168,48.523,48.523,0,0,1-9.351,9.33c-11.709,11.865-23.641,23.527-35.483,35.257l-74.708,74.014c2.714,3.252,4.24,5.337,6.032,7.2,14.916,15.363,29.876,30.861,43.623,44.991ZM773.48,984.177c-5.63-6.5-8.971-10.787-12.7-14.578-28.214-28.484-28.327-53.94-.179-81.93q39.429-39.159,78.948-78.252c9.8-9.621,20.073-18.75,27.765-25.9l-55.15-54.344c-36.154,36.042-73.834,73.52-111.422,111.088A118.89,118.89,0,0,0,684.1,994.449a1032.57,1032.57,0,0,0,86.124,92.965l93.345-92.673-52.639-51.922ZM998.21,997.5,839.889,840.39l-49.612,47.5,159.242,158.12Zm190.931,156.078,161.192-159.666-48.669-48.58-160.877,159.577ZM1059.506,490.039,897.665,650.557l47.659,47.66,162-160.586Zm189.9,155.92,158.724,157,48.512-48.4L1298.119,597.2Z" transform="translate(-662.605 -363.073)" fill="#fff" opacity="0.05"/>
</svg>
