<svg xmlns="http://www.w3.org/2000/svg" width="44.881" height="65.36" viewBox="0 0 44.881 65.36"><path d="M351,233.129a5.6,5.6,0,0,0,5.593-5.593V221.26a9.568,9.568,0,0,0-9.557-9.557H321.27a9.568,9.568,0,0,0-9.557,9.557v19.158a9.568,9.568,0,0,0,9.557,9.558h.088a5.542,5.542,0,0,1,1.262-1.97l.824-.824H321.27a6.772,6.772,0,0,1-6.763-6.764V221.26a6.771,6.771,0,0,1,6.763-6.763h25.767a6.771,6.771,0,0,1,6.763,6.763v6.276a2.8,2.8,0,0,1-5.6,0v-6.044a1.4,1.4,0,0,0-1.4-1.4H321.5a1.4,1.4,0,0,0-1.4,1.4v18.694a1.4,1.4,0,0,0,1.4,1.4h7.541l2.794-2.794H322.9v-15.9h22.509v4.647A5.6,5.6,0,0,0,351,233.129Z" transform="translate(-311.713 -211.703)" fill="#09f"/><path d="M344.863,251.795h2.174a6.771,6.771,0,0,1,6.763,6.763v19.158a6.771,6.771,0,0,1-6.763,6.764H321.27a6.771,6.771,0,0,1-6.763-6.764V271.44a2.8,2.8,0,0,1,5.6,0v6.045a1.4,1.4,0,0,0,1.4,1.4h25.3a1.4,1.4,0,0,0,1.4-1.4V258.79a1.4,1.4,0,0,0-1.4-1.4h-7.541l-2.794,2.794h8.938v15.9H322.9V271.44a5.593,5.593,0,0,0-11.186,0v6.277a9.568,9.568,0,0,0,9.557,9.558h25.767a9.568,9.568,0,0,0,9.557-9.558V258.558A9.568,9.568,0,0,0,347.037,249h-.088a5.542,5.542,0,0,1-1.262,1.97Z" transform="translate(-311.713 -221.915)" fill="#09f"/><path d="M345.571,245.467h0l-.548.548c-.241-.251-.483-.5-.739-.759a.275.275,0,0,0-.019-.022l-.111-.111a10.247,10.247,0,0,0-1.184-1.007l-3.548,3.548h3.951Z" transform="translate(-319.3 -220.577)" fill="#09f"/><path d="M332.052,268.37a2.8,2.8,0,0,1-3.959-3.959l.007-.006h-3.244a5.586,5.586,0,0,0,9.171,5.94l5.941-5.94h-3.95Z" transform="translate(-315.211 -226.132)" fill="#09f"/><path d="M346.194,260.558h-3.037l-2.794,2.794h3.95l2.794-2.794Z" transform="translate(-319.557 -225.079)" fill="#09f"/><path d="M339.528,251.8,342.321,249H338.37l-2.794,2.794Z" transform="translate(-318.246 -221.915)" fill="#09f"/><path d="M331.031,260.558H327.08l-.824.824a5.543,5.543,0,0,0-1.262,1.969h3.244Z" transform="translate(-315.349 -225.079)" fill="#09f"/><path d="M353.026,252.663c-.206-.163-.419-.322-.616-.49l-.49.49Z" transform="translate(-322.721 -222.783)" fill="#09f"/><path d="M348.8,242.18a2.8,2.8,0,0,1,3.959,3.959l-.006.006h3.243a5.586,5.586,0,0,0-9.171-5.94l-2.076,2.076a17.546,17.546,0,0,1,2.283,1.667Z" transform="translate(-320.757 -219.059)" fill="#09f"/><path d="M352.594,251.305h0l.548-.548c.24.251.483.5.739.759.007.007.012.015.019.023l.111.111c.054.054.116.094.171.145h1.874l.824-.824a5.542,5.542,0,0,0,1.262-1.97H354.9Z" transform="translate(-322.905 -221.915)" fill="#09f"/><path d="M345.6,245.114a.268.268,0,0,1,.019.022c.256.257.5.508.739.759l.548-.548a17.553,17.553,0,0,0-2.283-1.667l-.317.317A10.242,10.242,0,0,1,345.493,245Z" transform="translate(-320.637 -220.458)" fill="#09f"/><path d="M354.182,252.457c-.055-.052-.117-.092-.171-.145l-.111-.111c-.007-.007-.012-.015-.019-.022-.256-.257-.5-.508-.739-.759l-.548.548c.2.168.41.327.616.49Z" transform="translate(-322.906 -222.577)" fill="#09f"/></svg>