<svg xmlns="http://www.w3.org/2000/svg" width="230.275" height="228.449" viewBox="0 0 230.275 228.449"><g transform="translate(-4228.174 589.29)"><g opacity="0.2"><rect width="227.449" height="229.275" transform="translate(4457.949 -588.79) rotate(90)" fill="none" stroke="#17181c" stroke-miterlimit="10" stroke-width="1"/><rect width="153.073" height="154.302" transform="translate(4420.462 -551.602) rotate(90)" fill="none" stroke="#17181c" stroke-miterlimit="10" stroke-width="1"/><path d="M4457.949-551.6h-37.486V-588.79" fill="none" stroke="#17181c" stroke-miterlimit="10" stroke-width="1"/><path d="M4266.158-588.79V-551.6h-37.484" fill="none" stroke="#17181c" stroke-miterlimit="10" stroke-width="1"/><path d="M4420.463-361.341v-37.188h37.486" fill="none" stroke="#17181c" stroke-miterlimit="10" stroke-width="1"/><path d="M4228.674-398.529h37.484v37.188" fill="none" stroke="#17181c" stroke-miterlimit="10" stroke-width="1"/></g><path d="M4420.455-476.428a76.8,76.8,0,0,1-74.787,77.854,76.937,76.937,0,0,1-79.485-74.271,76.935,76.935,0,0,1,75.093-78.732q.543-.012,1.086-.016A76.928,76.928,0,0,1,4420.455-476.428Zm-98.117,12.392a14.268,14.268,0,0,0,2.024-20.075h0c-.165-.2-.333-.4-.509-.586-6.2-6.591-12.764-12.839-19.167-19.247-.982-.985-1.909-2.023-2.627-2.787a137.189,137.189,0,0,0-10.281,9.849,14.252,14.252,0,0,0,1.818,20.032l6.219-6.141c-3.357-4.525-2.846-7.763,1.9-11.039q7.857,7.775,15.73,15.589a3.193,3.193,0,0,1,.5.988,6.12,6.12,0,0,1-1.746,7.214Zm62.576,7.88c-5.156-5.106-10.382-10.169-15.44-15.376a4.819,4.819,0,0,1-1.232-3.439,26.44,26.44,0,0,1,1.637-5.215l-5.958-5.907c-.125.112-.372.309-.593.532a14.789,14.789,0,0,0,.05,20.916c.2.2.4.391.612.578,6.581,6.6,13.222,13.137,19.843,19.7.343.341.743.626,1.033.865,3.258-3.16,6.53-6.123,9.517-9.336a14.359,14.359,0,0,0,2.784-4.927,13.88,13.88,0,0,0-4.366-15.461l-6.088,6.08c3.391,4.744,3.043,7.057-1.8,10.994ZM4344.7-523.987c1.174,1.081,2.281,2.042,3.322,3.072s1.978,2.084,2.928,3.1c4.608-3.948,7.67-3.5,11.5,1.459-.415.442-.831.91-1.275,1.35q-6.241,6.205-12.493,12.4c-3.81,3.777-6.149,3.9-10.028.732l-6.413,6.165a14.869,14.869,0,0,0,20.994,1.211l.006-.005c.17-.152.338-.306.5-.466,6.964-6.836,13.864-13.736,20.788-20.612.266-.266.474-.564.8-.958-2.912-2.883-5.753-5.713-8.609-8.519a14.892,14.892,0,0,0-21.059.016c-.333.335-.652.684-.953,1.052Zm9.623,69.519a14.64,14.64,0,0,0-20.651-1.489h0l-.157.138c-4.464,4.1-8.67,8.476-12.988,12.735-3.085,3.043-6.16,6.1-9.107,9.014,3.261,3.341,6.28,6.73,9.618,9.772a13.956,13.956,0,0,0,12.032,3.178,13.977,13.977,0,0,0,8.694-4.906c-1.946-1.906-3.767-3.692-5.59-5.473-.224-.218-.474-.41-.7-.6-4.792,3.391-8.106,2.816-11.18-1.9,5-5,9.993-10.025,15.035-14.99a5.269,5.269,0,0,1,5.356-1.3,16.791,16.791,0,0,1,3.484,1.941Zm8.226,20.452c-4.068,5.367-8.053,5.51-12.229.977-3.461-3.751-7.209-7.227-10.84-10.816-.386-.381-.825-.708-1.078-.924l-5.8,5.681c4.869,5.114,9.52,10.574,14.787,15.36a13.577,13.577,0,0,0,16.649.532,144.669,144.669,0,0,0,11.185-10.245l-11.25-11.069-6.2,6.168Zm-8.266-77.489c-4.792-4.8-9.418-9.823-14.452-14.41a14.119,14.119,0,0,0-17.915-.7c-3.833,2.995-7.151,6.655-10.433,9.746l11.255,11.146,6.168-6.171c-.729-.66-1.552-1.461-2.438-2.188s-1.815-1.355-3.027-2.249c1.179-.956,1.759-1.363,2.265-1.845a5.992,5.992,0,0,1,8.42-.937,5.839,5.839,0,0,1,.985,1q2.181,2.148,4.345,4.313l8.537,8.5Zm25.263,47.448c5.252-5.034,10.5-9.546,15.112-14.641a13.968,13.968,0,0,0-.059-18.552c-3.021-3.354-6.447-6.349-9.463-9.28l-10.9,10.879,6.2,6.408,4.714-5.1c.57.652,1.041,1.259,1.581,1.8a5.854,5.854,0,0,1,1.115,8.2l-.005.006a5.83,5.83,0,0,1-1.11,1.11c-1.389,1.408-2.806,2.792-4.211,4.185l-8.867,8.785c.322.386.5.634.716.854,1.77,1.824,3.546,3.663,5.178,5.34Zm-77.891,8.3c-.668-.772-1.065-1.28-1.507-1.73-3.349-3.381-3.362-6.4-.021-9.724q4.68-4.652,9.37-9.288c1.163-1.145,2.382-2.225,3.3-3.077l-6.546-6.45c-4.291,4.278-8.763,8.729-13.225,13.188a14.111,14.111,0,0,0-1.975,18.3,122.939,122.939,0,0,0,10.222,11.034l11.079-11-6.248-6.165Zm26.673,1.581-18.791-18.647-5.888,5.638,18.9,18.767Zm22.663,18.525,19.132-18.951-5.777-5.769-19.1,18.94ZM4335.6-514.407l-19.209,19.052,5.657,5.657,19.228-19.06Zm22.54,18.506,18.839,18.634,5.758-5.745-18.815-18.677Z" fill="#333"/><g opacity="0.2"><path d="M4457.947-380.266a18.657,18.657,0,0,1-18.169,18.914,18.691,18.691,0,0,1-19.31-18.044,18.691,18.691,0,0,1,18.243-19.127l.264,0A18.689,18.689,0,0,1,4457.947-380.266Zm-23.837,3.011a3.467,3.467,0,0,0,.492-4.878h0c-.04-.048-.081-.1-.124-.142-1.506-1.6-3.1-3.119-4.656-4.676-.239-.239-.464-.491-.638-.677a33.194,33.194,0,0,0-2.5,2.393,3.461,3.461,0,0,0,.442,4.866l1.511-1.492c-.816-1.1-.692-1.885.461-2.681q1.909,1.889,3.822,3.787a.758.758,0,0,1,.121.24,1.486,1.486,0,0,1-.424,1.753Zm15.2,1.914c-1.253-1.241-2.522-2.471-3.751-3.736a1.164,1.164,0,0,1-.3-.835,6.356,6.356,0,0,1,.4-1.267l-1.447-1.435c-.031.027-.091.075-.144.129a3.593,3.593,0,0,0,.012,5.082c.048.048.1.1.149.14,1.6,1.6,3.212,3.192,4.82,4.786.084.083.181.152.251.21.792-.768,1.587-1.487,2.312-2.268a3.482,3.482,0,0,0,.677-1.2,3.372,3.372,0,0,0-1.061-3.756l-1.479,1.477c.824,1.152.739,1.714-.437,2.671Zm-9.77-16.479c.285.262.554.5.807.746s.48.506.711.753c1.12-.959,1.864-.85,2.794.355-.1.107-.2.221-.31.328q-1.515,1.508-3.035,3.012c-.925.918-1.494.949-2.436.178l-1.558,1.5a3.613,3.613,0,0,0,5.1.294h0c.041-.037.082-.075.121-.114,1.692-1.66,3.369-3.337,5.051-5.007.064-.065.115-.137.194-.233-.707-.7-1.4-1.388-2.091-2.069a3.619,3.619,0,0,0-5.117,0c-.081.082-.158.167-.231.256Zm2.338,16.889a3.558,3.558,0,0,0-5.017-.362h0l-.038.033c-1.084,1-2.106,2.059-3.155,3.094-.75.739-1.5,1.482-2.213,2.19.793.812,1.526,1.635,2.337,2.374a3.393,3.393,0,0,0,2.923.772,3.4,3.4,0,0,0,2.112-1.192l-1.358-1.33c-.054-.053-.115-.1-.17-.145-1.164.824-1.969.684-2.716-.462,1.215-1.215,2.428-2.435,3.653-3.642a1.277,1.277,0,0,1,1.3-.315,4.068,4.068,0,0,1,.846.471Zm2,4.969c-.988,1.3-1.956,1.338-2.971.237-.841-.911-1.751-1.756-2.633-2.628-.094-.092-.2-.172-.262-.224l-1.409,1.38c1.183,1.243,2.313,2.569,3.592,3.732a3.3,3.3,0,0,0,4.045.129,34.991,34.991,0,0,0,2.717-2.489l-2.733-2.689-1.5,1.5Zm-2.008-18.826c-1.164-1.166-2.288-2.386-3.511-3.5a3.43,3.43,0,0,0-4.352-.169c-.932.728-1.738,1.617-2.535,2.368l2.734,2.708,1.5-1.5c-.177-.16-.377-.355-.592-.532s-.441-.329-.736-.546c.287-.232.427-.331.55-.448a1.456,1.456,0,0,1,2.046-.228,1.408,1.408,0,0,1,.239.243q.531.522,1.056,1.048l2.074,2.066Zm6.138,11.527c1.275-1.223,2.55-2.319,3.671-3.557a3.393,3.393,0,0,0-.014-4.507c-.734-.815-1.567-1.542-2.3-2.254l-2.648,2.643,1.506,1.557,1.145-1.239c.138.158.253.305.384.437a1.422,1.422,0,0,1,.271,1.992v0a1.435,1.435,0,0,1-.27.269c-.337.342-.682.679-1.023,1.017l-2.154,2.134c.078.094.121.154.174.208.43.443.861.89,1.258,1.3Zm-18.924,2.017c-.162-.188-.258-.311-.366-.42a1.45,1.45,0,0,1-.005-2.363q1.137-1.129,2.276-2.256c.283-.278.579-.541.8-.748l-1.59-1.567c-1.043,1.039-2.129,2.121-3.213,3.2a3.428,3.428,0,0,0-.48,4.446,29.932,29.932,0,0,0,2.483,2.681l2.692-2.673-1.518-1.5Zm6.48.384L4431-379.39l-1.43,1.369,4.591,4.56Zm5.506,4.5,4.648-4.6-1.4-1.4-4.639,4.6Zm-3.738-19.134-4.667,4.629,1.375,1.374,4.671-4.63Zm5.476,4.5,4.577,4.527,1.4-1.4-4.571-4.537Z" fill="#333"/></g><g opacity="0.2"><path d="M4457.947-570.527a18.657,18.657,0,0,1-18.169,18.914,18.692,18.692,0,0,1-19.31-18.044,18.691,18.691,0,0,1,18.243-19.127l.264,0A18.689,18.689,0,0,1,4457.947-570.527Zm-23.837,3.01a3.466,3.466,0,0,0,.492-4.877h0c-.04-.048-.081-.1-.124-.142-1.506-1.6-3.1-3.119-4.656-4.676-.239-.239-.464-.492-.638-.677a33.188,33.188,0,0,0-2.5,2.393,3.462,3.462,0,0,0,.442,4.866l1.511-1.492c-.816-1.1-.692-1.886.461-2.681q1.909,1.888,3.822,3.787a.758.758,0,0,1,.121.24,1.485,1.485,0,0,1-.424,1.752Zm15.2,1.915c-1.253-1.241-2.522-2.471-3.751-3.736a1.164,1.164,0,0,1-.3-.835,6.356,6.356,0,0,1,.4-1.267l-1.447-1.435c-.031.027-.091.075-.144.129a3.592,3.592,0,0,0,.012,5.081c.048.049.1.095.149.141,1.6,1.6,3.212,3.191,4.82,4.786.084.083.181.152.251.21.792-.768,1.587-1.488,2.312-2.268a3.482,3.482,0,0,0,.677-1.2,3.372,3.372,0,0,0-1.061-3.756l-1.479,1.477c.824,1.152.739,1.714-.437,2.671Zm-9.77-16.479c.285.262.554.5.807.746s.48.506.711.753c1.12-.959,1.864-.85,2.794.355-.1.107-.2.221-.31.328q-1.515,1.506-3.035,3.012c-.925.918-1.494.949-2.436.178l-1.558,1.5a3.613,3.613,0,0,0,5.1.294h0c.041-.037.082-.075.121-.114,1.692-1.66,3.369-3.337,5.051-5.007.064-.065.115-.137.194-.233-.707-.7-1.4-1.388-2.091-2.07a3.619,3.619,0,0,0-5.117,0c-.081.082-.158.166-.231.256Zm2.338,16.889a3.558,3.558,0,0,0-5.017-.362h0l-.038.034c-1.084,1-2.106,2.059-3.155,3.094-.75.739-1.5,1.482-2.213,2.19.793.811,1.526,1.635,2.337,2.374a3.393,3.393,0,0,0,2.923.772,3.4,3.4,0,0,0,2.112-1.192l-1.358-1.33c-.054-.053-.115-.1-.17-.145-1.164.823-1.969.684-2.716-.462,1.215-1.215,2.428-2.436,3.653-3.642a1.28,1.28,0,0,1,1.3-.316,4.071,4.071,0,0,1,.846.472Zm2,4.969c-.988,1.3-1.956,1.338-2.971.237-.841-.911-1.751-1.756-2.633-2.628-.094-.092-.2-.172-.262-.224l-1.409,1.38c1.183,1.242,2.313,2.569,3.592,3.732a3.3,3.3,0,0,0,4.045.129,35,35,0,0,0,2.717-2.489l-2.733-2.689-1.5,1.5Zm-2.008-18.826c-1.164-1.166-2.288-2.386-3.511-3.5a3.43,3.43,0,0,0-4.352-.169c-.932.728-1.738,1.617-2.535,2.368l2.734,2.708,1.5-1.5c-.177-.161-.377-.355-.592-.532s-.441-.329-.736-.546c.287-.232.427-.331.55-.448a1.456,1.456,0,0,1,2.046-.228,1.408,1.408,0,0,1,.239.243q.531.522,1.056,1.048l2.074,2.066Zm6.138,11.527c1.275-1.223,2.55-2.319,3.671-3.557a3.393,3.393,0,0,0-.014-4.507c-.734-.815-1.567-1.542-2.3-2.254l-2.648,2.643,1.506,1.556,1.145-1.239c.138.159.253.306.384.438a1.422,1.422,0,0,1,.271,1.992v0a1.434,1.434,0,0,1-.27.269c-.337.342-.682.679-1.023,1.017l-2.154,2.134c.078.094.121.154.174.208.43.443.861.89,1.258,1.3Zm-18.924,2.017c-.162-.188-.258-.311-.366-.421a1.449,1.449,0,0,1-.005-2.362q1.137-1.129,2.276-2.256c.283-.279.579-.541.8-.748l-1.59-1.567c-1.043,1.039-2.129,2.121-3.213,3.2a3.428,3.428,0,0,0-.48,4.446,29.928,29.928,0,0,0,2.483,2.681l2.692-2.673-1.518-1.5Zm6.48.384-4.565-4.53-1.43,1.369,4.591,4.56Zm5.506,4.5,4.648-4.6-1.4-1.4-4.639,4.6Zm-3.738-19.133-4.667,4.629,1.375,1.374,4.671-4.631Zm5.476,4.5,4.577,4.527,1.4-1.4-4.571-4.537Z" fill="#333"/></g><g opacity="0.2"><path d="M4266.159-570.527a18.658,18.658,0,0,1-18.169,18.914,18.692,18.692,0,0,1-19.311-18.044,18.691,18.691,0,0,1,18.244-19.127l.264,0A18.69,18.69,0,0,1,4266.159-570.527Zm-23.837,3.01a3.466,3.466,0,0,0,.492-4.877h0c-.04-.048-.081-.1-.124-.142-1.506-1.6-3.1-3.119-4.657-4.676-.238-.239-.463-.492-.638-.677a33.175,33.175,0,0,0-2.5,2.393,3.462,3.462,0,0,0,.441,4.866l1.511-1.492c-.816-1.1-.691-1.886.462-2.681q1.908,1.888,3.821,3.787a.782.782,0,0,1,.122.24,1.487,1.487,0,0,1-.425,1.752Zm15.2,1.915c-1.252-1.241-2.522-2.471-3.751-3.736a1.173,1.173,0,0,1-.3-.835,6.423,6.423,0,0,1,.4-1.267l-1.448-1.435c-.03.027-.09.075-.144.129a3.593,3.593,0,0,0,.012,5.081c.049.049.1.095.149.141,1.6,1.6,3.212,3.191,4.821,4.786a3.062,3.062,0,0,0,.251.21c.791-.768,1.586-1.488,2.312-2.268a3.486,3.486,0,0,0,.676-1.2,3.372,3.372,0,0,0-1.06-3.756l-1.48,1.477c.824,1.152.74,1.714-.437,2.671Zm-9.77-16.479c.286.262.555.5.807.746s.481.506.712.753c1.119-.959,1.863-.85,2.794.355-.1.107-.2.221-.31.328q-1.516,1.506-3.035,3.012c-.926.918-1.494.949-2.436.178l-1.558,1.5a3.613,3.613,0,0,0,5.1.294h0c.042-.037.082-.075.122-.114,1.692-1.66,3.368-3.337,5.05-5.007.065-.065.115-.137.195-.233-.708-.7-1.4-1.388-2.092-2.07a3.618,3.618,0,0,0-5.116,0c-.081.082-.159.166-.232.256Zm2.338,16.889a3.557,3.557,0,0,0-5.017-.362h0l-.038.034c-1.085,1-2.107,2.059-3.156,3.094-.749.739-1.5,1.482-2.212,2.19.792.811,1.526,1.635,2.337,2.374a3.393,3.393,0,0,0,2.923.772,3.4,3.4,0,0,0,2.112-1.192l-1.358-1.33c-.055-.053-.115-.1-.17-.145-1.164.823-1.97.684-2.716-.462,1.214-1.215,2.427-2.436,3.652-3.642a1.28,1.28,0,0,1,1.3-.316,4.094,4.094,0,0,1,.847.472Zm2,4.969c-.989,1.3-1.957,1.338-2.971.237-.841-.911-1.752-1.756-2.634-2.628-.094-.092-.2-.172-.262-.224l-1.409,1.38c1.183,1.242,2.313,2.569,3.593,3.732a3.3,3.3,0,0,0,4.044.129,35.19,35.19,0,0,0,2.718-2.489l-2.733-2.689-1.5,1.5Zm-2.008-18.826c-1.165-1.166-2.289-2.386-3.512-3.5a3.43,3.43,0,0,0-4.352-.169c-.931.728-1.737,1.617-2.535,2.368l2.735,2.708,1.5-1.5c-.177-.161-.377-.355-.592-.532s-.441-.329-.735-.546c.286-.232.427-.331.55-.448a1.454,1.454,0,0,1,2.045-.228,1.413,1.413,0,0,1,.24.243q.53.522,1.055,1.048l2.074,2.066Zm6.137,11.527c1.276-1.223,2.551-2.319,3.671-3.557a3.393,3.393,0,0,0-.014-4.507c-.734-.815-1.566-1.542-2.3-2.254l-2.648,2.643,1.506,1.556,1.146-1.239c.138.159.252.306.384.438a1.421,1.421,0,0,1,.27,1.992v0a1.414,1.414,0,0,1-.269.269c-.338.342-.682.679-1.023,1.017l-2.155,2.134c.079.094.122.154.174.208.43.443.862.89,1.258,1.3Zm-18.923,2.017c-.162-.188-.259-.311-.366-.421a1.449,1.449,0,0,1-.005-2.362q1.137-1.129,2.276-2.256c.283-.279.579-.541.8-.748l-1.591-1.567c-1.042,1.039-2.129,2.121-3.213,3.2a3.427,3.427,0,0,0-.479,4.446,29.779,29.779,0,0,0,2.483,2.681l2.692-2.673-1.518-1.5Zm6.48.384-4.565-4.53-1.431,1.369,4.592,4.56Zm5.506,4.5,4.648-4.6-1.4-1.4-4.639,4.6Zm-3.738-19.133-4.667,4.629,1.374,1.374,4.672-4.631Zm5.476,4.5,4.576,4.527,1.4-1.4-4.571-4.537Z" fill="#333"/></g><g opacity="0.2"><path d="M4266.159-380.266a18.658,18.658,0,0,1-18.169,18.914,18.691,18.691,0,0,1-19.311-18.044,18.691,18.691,0,0,1,18.244-19.127l.264,0A18.69,18.69,0,0,1,4266.159-380.266Zm-23.837,3.011a3.467,3.467,0,0,0,.492-4.878h0c-.04-.048-.081-.1-.124-.142-1.506-1.6-3.1-3.119-4.657-4.676-.238-.239-.463-.491-.638-.677a33.181,33.181,0,0,0-2.5,2.393,3.462,3.462,0,0,0,.441,4.866l1.511-1.492c-.816-1.1-.691-1.885.462-2.681q1.908,1.889,3.821,3.787a.781.781,0,0,1,.122.24,1.488,1.488,0,0,1-.425,1.753Zm15.2,1.914c-1.252-1.241-2.522-2.471-3.751-3.736a1.173,1.173,0,0,1-.3-.835,6.422,6.422,0,0,1,.4-1.267l-1.448-1.435c-.03.027-.09.075-.144.129a3.594,3.594,0,0,0,.012,5.082c.049.048.1.1.149.14,1.6,1.6,3.212,3.192,4.821,4.786a3.062,3.062,0,0,0,.251.21c.791-.768,1.586-1.487,2.312-2.268a3.487,3.487,0,0,0,.676-1.2,3.372,3.372,0,0,0-1.06-3.756l-1.48,1.477c.824,1.152.74,1.714-.437,2.671Zm-9.77-16.479c.286.262.555.5.807.746s.481.506.712.753c1.119-.959,1.863-.85,2.794.355-.1.107-.2.221-.31.328q-1.516,1.508-3.035,3.012c-.926.918-1.494.949-2.436.178l-1.558,1.5a3.613,3.613,0,0,0,5.1.294h0c.042-.037.082-.075.122-.114,1.692-1.66,3.368-3.337,5.05-5.007.065-.065.115-.137.195-.233-.708-.7-1.4-1.388-2.092-2.069a3.618,3.618,0,0,0-5.116,0c-.081.082-.159.167-.232.256Zm2.338,16.889a3.557,3.557,0,0,0-5.017-.362h0l-.038.033c-1.085,1-2.107,2.059-3.156,3.094-.749.739-1.5,1.482-2.212,2.19.792.812,1.526,1.635,2.337,2.374a3.393,3.393,0,0,0,2.923.772,3.4,3.4,0,0,0,2.112-1.192l-1.358-1.33c-.055-.053-.115-.1-.17-.145-1.164.824-1.97.684-2.716-.462,1.214-1.215,2.427-2.435,3.652-3.642a1.277,1.277,0,0,1,1.3-.315,4.091,4.091,0,0,1,.847.471Zm2,4.969c-.989,1.3-1.957,1.338-2.971.237-.841-.911-1.752-1.756-2.634-2.628-.094-.092-.2-.172-.262-.224l-1.409,1.38c1.183,1.243,2.313,2.569,3.593,3.732a3.3,3.3,0,0,0,4.044.129,35.184,35.184,0,0,0,2.718-2.489l-2.733-2.689-1.5,1.5Zm-2.008-18.826c-1.165-1.166-2.289-2.386-3.512-3.5a3.43,3.43,0,0,0-4.352-.169c-.931.728-1.737,1.617-2.535,2.368l2.735,2.708,1.5-1.5c-.177-.16-.377-.355-.592-.532s-.441-.329-.735-.546c.286-.232.427-.331.55-.448a1.454,1.454,0,0,1,2.045-.228,1.413,1.413,0,0,1,.24.243q.53.522,1.055,1.048l2.074,2.066Zm6.137,11.527c1.276-1.223,2.551-2.319,3.671-3.557a3.393,3.393,0,0,0-.014-4.507c-.734-.815-1.566-1.542-2.3-2.254l-2.648,2.643,1.506,1.557,1.146-1.239c.138.158.252.305.384.437a1.421,1.421,0,0,1,.27,1.992v0a1.415,1.415,0,0,1-.269.269c-.338.342-.682.679-1.023,1.017l-2.155,2.134c.079.094.122.154.174.208.43.443.862.89,1.258,1.3Zm-18.923,2.017c-.162-.188-.259-.311-.366-.42a1.45,1.45,0,0,1-.005-2.363q1.137-1.129,2.276-2.256c.283-.278.579-.541.8-.748l-1.591-1.567c-1.042,1.039-2.129,2.121-3.213,3.2a3.427,3.427,0,0,0-.479,4.446,29.784,29.784,0,0,0,2.483,2.681l2.692-2.673-1.518-1.5Zm6.48.384-4.565-4.53-1.431,1.369,4.592,4.56Zm5.506,4.5,4.648-4.6-1.4-1.4-4.639,4.6Zm-3.738-19.134-4.667,4.629,1.374,1.374,4.672-4.63Zm5.476,4.5,4.576,4.527,1.4-1.4-4.571-4.537Z" fill="#333"/></g></g></svg>