<svg xmlns="http://www.w3.org/2000/svg" width="70" height="70" viewBox="0 0 70 70"><g transform="translate(0 0)"><path d="M225.1,215.9a28.562,28.562,0,1,0,28.562,28.562A28.594,28.594,0,0,0,225.1,215.9Zm0,54.8a26.233,26.233,0,1,1,26.234-26.233A26.262,26.262,0,0,1,225.1,270.7Z" transform="translate(-190.097 -209.463)" fill="#09f"/><path d="M264.259,238.7a1.164,1.164,0,0,0-1.961,1.255,20.8,20.8,0,0,1,0,22.366,1.165,1.165,0,0,0,.353,1.609,1.164,1.164,0,0,0,1.608-.353,23.135,23.135,0,0,0,0-24.877Z" transform="translate(-209.771 -216.142)" fill="#09f"/><path d="M209.551,238.351a1.163,1.163,0,0,0-1.608.353,23.135,23.135,0,0,0,0,24.877,1.165,1.165,0,0,0,1.962-1.255,20.8,20.8,0,0,1,0-22.366A1.164,1.164,0,0,0,209.551,238.351Z" transform="translate(-192.431 -216.142)" fill="#09f"/><path d="M222.338,206.7a35,35,0,1,0,35,35A35.04,35.04,0,0,0,222.338,206.7Zm0,67.672A32.672,32.672,0,1,1,255.01,241.7,32.708,32.708,0,0,1,222.338,274.375Z" transform="translate(-187.338 -206.703)" fill="#09f"/><path d="M239.863,230.65H225.388a5.667,5.667,0,0,0-5.66,5.661v10.761a5.656,5.656,0,0,0,5.3,5.621l-.015.041h.032a3.427,3.427,0,0,0,5.75,3.251l3.252-3.251h4.608v8.347H226.6v-2.319a3.434,3.434,0,0,0-6.868,0v3.526a5.667,5.667,0,0,0,5.66,5.662h14.475a5.668,5.668,0,0,0,5.661-5.662V251.527a5.657,5.657,0,0,0-5.3-5.621l.015-.041h-.031a3.427,3.427,0,0,0-5.75-3.251l-1.166,1.165h0l-.377.377-.041.041h0l-1.667,1.667H226.6v-8.347h12.06v2.318a3.434,3.434,0,0,0,6.868,0v-3.525A5.667,5.667,0,0,0,239.863,230.65Zm3.507,9.186a1.28,1.28,0,0,1-2.561,0v-3.395a1.078,1.078,0,0,0-1.077-1.077H225.519a1.078,1.078,0,0,0-1.077,1.077v10.5a1.078,1.078,0,0,0,1.077,1.078H232.1l2.154-2.155h0l.216-.217h0l.609-.611.9-.9a1.313,1.313,0,0,1,1.81,0,1.282,1.282,0,0,1,0,1.813l-.5.5h0l-.277.277h0l-.381.383-.911.911h4.146a3.511,3.511,0,0,1,3.507,3.507v10.761a3.511,3.511,0,0,1-3.507,3.508H225.388a3.511,3.511,0,0,1-3.506-3.508v-3.526a1.28,1.28,0,0,1,2.561,0v3.4a1.078,1.078,0,0,0,1.077,1.077h14.213a1.078,1.078,0,0,0,1.077-1.077v-10.5a1.078,1.078,0,0,0-1.077-1.077h-6.577l-1.569,1.569h0l-.3.3-.282.281h0l-1.728,1.729a1.281,1.281,0,1,1-1.807-1.814l2.069-2.068h-4.147a3.511,3.511,0,0,1-3.506-3.508V236.311a3.511,3.511,0,0,1,3.506-3.508h14.475a3.511,3.511,0,0,1,3.507,3.508Z" transform="translate(-197.055 -213.887)" fill="#09f"/></g></svg>