<svg xmlns="http://www.w3.org/2000/svg" width="109.888" height="100.5" viewBox="0 0 109.888 100.5"><path d="M243.579,248.411H232.4a9.186,9.186,0,0,0-1.908-4l7.184-6.852a1.789,1.789,0,1,0-2.47-2.588l-7.473,7.13a9.15,9.15,0,0,0-4.186-1.154l-2.339-11.784a6.985,6.985,0,0,0,2.136-2.147l9.882,3.694a1.789,1.789,0,0,0,1.253-3.351l-10.074-3.766c.005-.091.029-.179.029-.273a6.923,6.923,0,0,0-3.841-6.175,2.045,2.045,0,0,0,.037-.217l-.254-7.9a7.458,7.458,0,1,0-9.143-3.421L205,209.331a7.344,7.344,0,0,0-12.491-1l-7.641-5a1.709,1.709,0,0,0-.372-.147c.005-.1.032-.2.032-.305a5.892,5.892,0,0,0-2.433-4.756l3.57-8.38a1.789,1.789,0,1,0-3.292-1.4l-3.68,8.637a.775.775,0,0,0-.078-.008,5.856,5.856,0,0,0-3.19.95l-6.573-3.932a1.79,1.79,0,1,0-1.836,3.073l6.113,3.656a5.121,5.121,0,0,0-.343,2.952l-5.468,2.808a6.875,6.875,0,0,0-3.969-1.263,6.928,6.928,0,0,0-3.715,12.783L157.3,229.777a9.281,9.281,0,0,0-8.856,7.467H137.27a1.789,1.789,0,1,0,0,3.578h11.172a9.21,9.21,0,0,0,2.144,4.288l-6.606,9.983a1.789,1.789,0,0,0,2.984,1.975l6.458-9.764a9.157,9.157,0,0,0,3.983,1l3.067,9.523a6.632,6.632,0,0,0-2.511,3.6h-8.84a1.789,1.789,0,1,0,0,3.578h8.84a6.661,6.661,0,0,0,2.548,3.637l-3.9,13.479a1.79,1.79,0,0,0,1.223,2.216,1.754,1.754,0,0,0,.5.07,1.786,1.786,0,0,0,1.718-1.293l3.843-13.283c.153.011.3.046.455.046a6.625,6.625,0,0,0,2.227-.409l5.278,6.108a8.9,8.9,0,1,0,15.593-1.783l9.708-6.905a7.322,7.322,0,0,0,6.956-.578l6.563,4.925a6.575,6.575,0,0,0-.827,3.15,6.643,6.643,0,0,0,13.045,1.788h8.84a1.788,1.788,0,0,0,0-3.576h-8.84a6.657,6.657,0,0,0-2.51-3.605l3.065-9.523a9.156,9.156,0,0,0,3.983-1l6.458,9.764a1.789,1.789,0,1,0,2.984-1.975l-6.6-9.983a9.231,9.231,0,0,0,2.141-4.288h11.174a1.789,1.789,0,0,0,0-3.578ZM223.3,255.9a5.7,5.7,0,1,1,5.706-5.706A5.712,5.712,0,0,1,223.3,255.9Zm-21.495-3a1.692,1.692,0,0,0,.078-.388v-9.908a1.738,1.738,0,0,0-.174-.744,7.593,7.593,0,0,0,3.15-2.13l10.411,5.891a8.2,8.2,0,0,0-1.13,5.792l-8.535,3.774A7.377,7.377,0,0,0,201.807,252.907Zm-19.9,17.207V256.322a7.583,7.583,0,0,0,4.665-3.4l6.523,4.858a7.264,7.264,0,0,0-.41,2.32,7.35,7.35,0,0,0,1.544,4.475l-9.443,6.718A8.845,8.845,0,0,0,181.908,270.114Zm-8,2.363-4.405-5.1a6.461,6.461,0,0,0,.677-7.315l6.11-4.585a7.486,7.486,0,0,0,2.042.84v13.792A8.92,8.92,0,0,0,173.905,272.477Zm-12.641-9.261a3.082,3.082,0,1,1,3.081,3.081A3.083,3.083,0,0,1,161.264,263.217Zm4.309-28.756,9.317-5.27a7.335,7.335,0,0,0,2.939,1.477l.439,10.952a7.573,7.573,0,0,0-3.651,2.133l-7.914-3.5a8.2,8.2,0,0,0-1.129-5.792Zm10.9-30.672h0l0,0a2.332,2.332,0,1,1,2.147,1.424A2.343,2.343,0,0,1,176.472,203.786Zm3.083,15.866a3.82,3.82,0,0,1,3.123,6.033,1.742,1.742,0,0,0-.476.554,3.827,3.827,0,1,1-2.647-6.587Zm17.844.364v7.352a7.6,7.6,0,0,0-3.712,2.152L186.4,226.3a6.956,6.956,0,0,0,.436-4.079l5.706-5.08A7.393,7.393,0,0,0,197.4,220.018Zm6.849-2.751c.046.027.072.072.12.1l6.678,3.423a6.547,6.547,0,0,0-.284,4.149l-6.453,4.226a7.566,7.566,0,0,0-3.332-1.791v-7.722A7.369,7.369,0,0,0,204.251,217.267Zm-5.061,21.484a4.019,4.019,0,1,1,4.02-4.02A4.023,4.023,0,0,1,199.19,238.751Zm-17.344,2.832-.439-10.952a7.337,7.337,0,0,0,2.77-1.4l7.743,3.426a7.4,7.4,0,0,0-.327,2.077,7.533,7.533,0,0,0,1.164,4l-6.967,5.23A7.57,7.57,0,0,0,181.846,241.583Zm-1.729,11.4a4.017,4.017,0,1,1,4.02-4.017A4.022,4.022,0,0,1,180.117,252.979Zm14.643,2-7.117-5.3c.021-.238.072-.468.072-.712a7.527,7.527,0,0,0-.26-1.866,1.736,1.736,0,0,0,.388-.2l7.516-5.639a7.466,7.466,0,0,0,3.022.993,1.656,1.656,0,0,0-.075.364v9.908a1.691,1.691,0,0,0,.078.388A7.371,7.371,0,0,0,194.76,254.979Zm25.261-13.433a9.338,9.338,0,0,0-2.353,1.328l-11.1-6.282-.032-.011a7.031,7.031,0,0,0-.233-4.446l6.18-4.047a6.9,6.9,0,0,0,5.016,2.168c.094,0,.185-.024.278-.027ZM217.5,226.678a3.362,3.362,0,1,1,3.362-3.362A3.366,3.366,0,0,1,217.5,226.678Zm.241-28.384a3.83,3.83,0,1,1-3.833,3.827A3.832,3.832,0,0,1,217.738,198.294Zm-4.055,10.018a7.381,7.381,0,0,0,3.129,1.127l.225,6.983a6.889,6.889,0,0,0-3.809,1.461l-7.224-3.7a1.546,1.546,0,0,0-.284-.08,7.213,7.213,0,0,0,.12-1.21,1.665,1.665,0,0,0,.343-.094Zm-15.232.573a3.823,3.823,0,0,1,.937,7.532,1.529,1.529,0,0,0-.2-.04,1.759,1.759,0,0,0-.739.169h0a3.83,3.83,0,1,1,0-7.66Zm-7.893,2.444a1.749,1.749,0,0,0,.6.238,7.383,7.383,0,0,0-.118,1.148,6.665,6.665,0,0,0,.072.7l-5.944,5.291a7.37,7.37,0,0,0-3.9-2.406l-.407-7.954a5.906,5.906,0,0,0,2.369-1.812Zm-13.265-2.7.393,7.719a7.326,7.326,0,0,0-2.2.964l-5.4-3.538a6.629,6.629,0,0,0-.423-4.475l4.657-2.39A5.885,5.885,0,0,0,177.294,208.625Zm-13.942.163a3.362,3.362,0,1,1-3.362,3.362A3.364,3.364,0,0,1,163.352,208.788Zm0,10.3a6.9,6.9,0,0,0,5.016-2.168L173.059,220a7.208,7.208,0,0,0-.345,6.314l-9.536,5.4a9.294,9.294,0,0,0-2.353-1.328l2.246-11.319C163.167,219.066,163.255,219.09,163.352,219.09Zm-5.808,14.239a5.7,5.7,0,1,1-5.7,5.7A5.71,5.71,0,0,1,157.544,233.329Zm3.41,14.319a9.3,9.3,0,0,0,4.593-3.993l7.3,3.228a7.442,7.442,0,0,0-.327,2.08,7.531,7.531,0,0,0,1.164,4l-6.019,4.521a6.588,6.588,0,0,0-3.321-.921c-.174,0-.335.037-.506.051Zm19.164,36.523a5.329,5.329,0,1,1,5.332-5.329A5.336,5.336,0,0,1,180.117,284.171Zm19.977-20.245a3.83,3.83,0,1,1,3.833-3.83A3.835,3.835,0,0,1,200.094,263.926Zm16.407,13.54a3.082,3.082,0,1,1,3.081-3.083A3.085,3.085,0,0,1,216.5,277.466Zm0-9.742a6.586,6.586,0,0,0-3.319.921l-6.635-4.981a7,7,0,0,0,.733-5.3l8.019-3.546a9.313,9.313,0,0,0,4.593,3.993l-2.885,8.961C216.838,267.761,216.675,267.724,216.5,267.724Z" transform="translate(-135.479 -187.25)" fill="#09f"/></svg>