<svg xmlns="http://www.w3.org/2000/svg" xmlns:xlink="http://www.w3.org/1999/xlink" viewBox="0 0 2030.17 1049.73"><defs><style>.cls-1{fill:none;}.cls-2{clip-path:url(#clip-path);}.cls-3{fill:#4271e8;}.cls-4{opacity:0.2;}.cls-5{opacity:0.1;fill:url(#Unbenannter_Verlauf_16);}.cls-12,.cls-13,.cls-14,.cls-15,.cls-16,.cls-17,.cls-18,.cls-19,.cls-20,.cls-21,.cls-24,.cls-5,.cls-7{isolation:isolate;}.cls-16,.cls-19,.cls-21,.cls-6{fill:#42e8e0;}.cls-19,.cls-7{opacity:0.8;}.cls-7{fill:url(#Unbenannter_Verlauf_3);}.cls-8{fill:url(#Unbenannter_Verlauf_27);}.cls-9{fill:#bcbeff;}.cls-10{fill:#fff;}.cls-11,.cls-24{fill:#0f054c;}.cls-12,.cls-13,.cls-14,.cls-15,.cls-16,.cls-17,.cls-18,.cls-20{opacity:0.5;}.cls-12{fill:url(#Unbenannter_Verlauf_11);}.cls-13{fill:url(#Unbenannter_Verlauf_11-2);}.cls-14{fill:url(#Unbenannter_Verlauf_11-3);}.cls-15{fill:url(#Unbenannter_Verlauf_11-4);}.cls-17{fill:url(#Unbenannter_Verlauf_11-5);}.cls-18{fill:url(#Unbenannter_Verlauf_11-6);}.cls-20{fill:url(#Unbenannter_Verlauf_11-7);}.cls-21{opacity:0.7;}.cls-22{fill:url(#Unbenannter_Verlauf_26);}.cls-23{fill:url(#Unbenannter_Verlauf_27-2);}.cls-24{opacity:0.6;}.cls-25{fill:url(#Unbenannter_Verlauf_26-2);}.cls-26{fill:url(#Unbenannter_Verlauf_27-3);}.cls-27{fill:#251c72;}.cls-28{fill:url(#Unbenannter_Verlauf_26-3);}.cls-29{fill:url(#Unbenannter_Verlauf_27-4);}.cls-30{fill:url(#Unbenannter_Verlauf_26-4);}.cls-31{fill:url(#Unbenannter_Verlauf_27-5);}.cls-32{fill:url(#Unbenannter_Verlauf_26-5);}.cls-33{fill:url(#Unbenannter_Verlauf_27-6);}.cls-34{fill:url(#Unbenannter_Verlauf_26-6);}.cls-35{fill:url(#Unbenannter_Verlauf_27-7);}.cls-36{fill:url(#Unbenannter_Verlauf_26-7);}.cls-37{fill:url(#Unbenannter_Verlauf_27-8);}.cls-38{fill:url(#Unbenannter_Verlauf_26-8);}.cls-39{fill:url(#Unbenannter_Verlauf_27-9);}.cls-40{fill:#706ec4;}</style><clipPath id="clip-path" transform="translate(-34.38 -49.43)"><rect class="cls-1" width="1662.33" height="1107.32"/></clipPath><radialGradient id="Unbenannter_Verlauf_16" cx="2691.47" cy="1993.51" r="0.5" gradientTransform="matrix(882.76, 0, 0, -882.76, -2374912.69, 1760299.43)" gradientUnits="userSpaceOnUse"><stop offset="0" stop-color="#42e8e0"/><stop offset="1" stop-color="#3fdcd8" stop-opacity="0"/></radialGradient><radialGradient id="Unbenannter_Verlauf_3" cx="2678.67" cy="2002.69" r="0.81" gradientTransform="matrix(155.45, 0, 0, -155.55, -415344.44, 312077.12)" gradientUnits="userSpaceOnUse"><stop offset="0" stop-color="#03002d"/><stop offset="0.16" stop-color="#403e60"/><stop offset="0.33" stop-color="#797890"/><stop offset="0.49" stop-color="#a9a8b7"/><stop offset="0.64" stop-color="#ceced6"/><stop offset="0.78" stop-color="#e9e8ec"/><stop offset="0.9" stop-color="#f9f9fa"/><stop offset="1" stop-color="#fff"/></radialGradient><linearGradient id="Unbenannter_Verlauf_27" x1="2684.49" y1="2009.79" x2="2685.77" y2="2009.79" gradientTransform="matrix(269.41, 0, 0, -93.34, -722375.66, 188202.31)" gradientUnits="userSpaceOnUse"><stop offset="0" stop-color="#706ec4"/><stop offset="0.02" stop-color="#6d6bc1"/><stop offset="0.25" stop-color="#5651ac"/><stop offset="0.49" stop-color="#463e9d"/><stop offset="0.73" stop-color="#3c3393"/><stop offset="1" stop-color="#393091"/></linearGradient><linearGradient id="Unbenannter_Verlauf_11" x1="2682.05" y1="2005.79" x2="2683.05" y2="2005.79" gradientTransform="matrix(207.22, 0, 0, -119.64, -554823.19, 240528.28)" gradientUnits="userSpaceOnUse"><stop offset="0" stop-color="#42e8e0"/><stop offset="0.15" stop-color="#42e3df"/><stop offset="0.33" stop-color="#44d4de"/><stop offset="0.52" stop-color="#48bddd"/><stop offset="0.72" stop-color="#4d9bda"/><stop offset="0.93" stop-color="#5471d8"/><stop offset="1" stop-color="#5761d7"/></linearGradient><linearGradient id="Unbenannter_Verlauf_11-2" x1="2670.4" y1="2014.27" x2="2671.4" y2="2014.27" gradientTransform="matrix(103.61, 0, 0, -74.9, -275630.43, 151401.1)" xlink:href="#Unbenannter_Verlauf_11"/><linearGradient id="Unbenannter_Verlauf_11-3" x1="2670.4" y1="2014.27" x2="2671.4" y2="2014.27" gradientTransform="matrix(103.61, 0, 0, -74.9, -275734.04, 151397.2)" xlink:href="#Unbenannter_Verlauf_11"/><linearGradient id="Unbenannter_Verlauf_11-4" x1="2682.05" y1="2005.79" x2="2683.05" y2="2005.79" gradientTransform="matrix(207.22, 0, 0, -119.64, -554823.19, 240515.14)" xlink:href="#Unbenannter_Verlauf_11"/><linearGradient id="Unbenannter_Verlauf_11-5" x1="2670.4" y1="2014.27" x2="2671.4" y2="2014.27" gradientTransform="matrix(103.61, 0, 0, -74.9, -275622.37, 151457.02)" xlink:href="#Unbenannter_Verlauf_11"/><linearGradient id="Unbenannter_Verlauf_11-6" x1="2670.4" y1="2014.27" x2="2671.4" y2="2014.27" gradientTransform="matrix(103.61, 0, 0, -74.9, -275734.04, 151458.97)" xlink:href="#Unbenannter_Verlauf_11"/><linearGradient id="Unbenannter_Verlauf_11-7" x1="2682.05" y1="2007.21" x2="2683.05" y2="2007.21" gradientTransform="matrix(207.22, 0, 0, -108.71, -554823.19, 218706.3)" xlink:href="#Unbenannter_Verlauf_11"/><linearGradient id="Unbenannter_Verlauf_26" x1="2681.75" y1="2003.62" x2="2682.21" y2="2003.62" gradientTransform="matrix(218.63, 0, 0, -141.18, -585552.64, 283366.89)" gradientUnits="userSpaceOnUse"><stop offset="0" stop-color="#bcbeff"/><stop offset="0.17" stop-color="#b5b8fc"/><stop offset="0.4" stop-color="#a3a7f5"/><stop offset="0.66" stop-color="#868ce9"/><stop offset="0.95" stop-color="#5d67d9"/><stop offset="1" stop-color="#5761d7"/></linearGradient><linearGradient id="Unbenannter_Verlauf_27-2" x1="2681.75" y1="2003.62" x2="2682.21" y2="2003.62" gradientTransform="matrix(218.63, 0, 0, -141.18, -585552.64, 283366.89)" xlink:href="#Unbenannter_Verlauf_27"/><linearGradient id="Unbenannter_Verlauf_26-2" x1="2681.62" y1="2005.06" x2="2682.13" y2="2005.06" gradientTransform="matrix(218.62, 0, 0, -126.06, -585551.89, 253238.25)" xlink:href="#Unbenannter_Verlauf_26"/><linearGradient id="Unbenannter_Verlauf_27-3" x1="2681.55" y1="2005.06" x2="2682.48" y2="2005.06" gradientTransform="matrix(218.62, 0, 0, -126.06, -585551.89, 253238.25)" xlink:href="#Unbenannter_Verlauf_27"/><linearGradient id="Unbenannter_Verlauf_26-3" x1="2681.62" y1="2003.62" x2="2682.09" y2="2003.62" gradientTransform="matrix(218.63, 0, 0, -141.18, -585552.64, 283335.21)" xlink:href="#Unbenannter_Verlauf_26"/><linearGradient id="Unbenannter_Verlauf_27-4" x1="2681.62" y1="2003.62" x2="2682.09" y2="2003.62" gradientTransform="matrix(218.63, 0, 0, -141.18, -585552.64, 283335.21)" xlink:href="#Unbenannter_Verlauf_27"/><linearGradient id="Unbenannter_Verlauf_26-4" x1="2681.5" y1="2005.06" x2="2682.01" y2="2005.06" gradientTransform="matrix(218.62, 0, 0, -126.06, -585551.89, 253211.68)" xlink:href="#Unbenannter_Verlauf_26"/><linearGradient id="Unbenannter_Verlauf_27-5" x1="2681.43" y1="2005.06" x2="2682.35" y2="2005.06" gradientTransform="matrix(218.62, 0, 0, -126.06, -585551.89, 253211.68)" xlink:href="#Unbenannter_Verlauf_27"/><linearGradient id="Unbenannter_Verlauf_26-5" x1="2681.5" y1="2003.62" x2="2681.96" y2="2003.62" gradientTransform="matrix(218.62, 0, 0, -141.19, -585536.52, 283309.37)" xlink:href="#Unbenannter_Verlauf_26"/><linearGradient id="Unbenannter_Verlauf_27-6" x1="2681.5" y1="2003.62" x2="2681.96" y2="2003.62" gradientTransform="matrix(218.62, 0, 0, -141.19, -585536.52, 283309.37)" xlink:href="#Unbenannter_Verlauf_27"/><linearGradient id="Unbenannter_Verlauf_26-6" x1="2681.38" y1="2005.06" x2="2681.89" y2="2005.06" gradientTransform="matrix(218.62, 0, 0, -126.07, -585551.89, 253193.5)" xlink:href="#Unbenannter_Verlauf_26"/><linearGradient id="Unbenannter_Verlauf_27-7" x1="2681.3" y1="2005.06" x2="2682.23" y2="2005.06" gradientTransform="matrix(218.62, 0, 0, -126.07, -585551.89, 253193.5)" xlink:href="#Unbenannter_Verlauf_27"/><linearGradient id="Unbenannter_Verlauf_26-7" x1="2681.38" y1="2003.62" x2="2681.84" y2="2003.62" gradientTransform="matrix(218.62, 0, 0, -141.19, -585536.52, 283285.72)" xlink:href="#Unbenannter_Verlauf_26"/><linearGradient id="Unbenannter_Verlauf_27-8" x1="2681.38" y1="2003.62" x2="2681.84" y2="2003.62" gradientTransform="matrix(218.62, 0, 0, -141.19, -585536.52, 283285.72)" xlink:href="#Unbenannter_Verlauf_27"/><linearGradient id="Unbenannter_Verlauf_26-8" x1="2681.25" y1="2005.06" x2="2681.76" y2="2005.06" gradientTransform="matrix(218.62, 0, 0, -126.06, -585551.89, 253144.69)" xlink:href="#Unbenannter_Verlauf_26"/><linearGradient id="Unbenannter_Verlauf_27-9" x1="2681.18" y1="2005.06" x2="2682.1" y2="2005.06" gradientTransform="matrix(218.62, 0, 0, -126.06, -585551.89, 253144.69)" xlink:href="#Unbenannter_Verlauf_27"/></defs><g id="Ebene_2" data-name="Ebene 2"><g id="Ebene_1-2" data-name="Ebene 1"><g class="cls-2"><g id="Gruppe_494" data-name="Gruppe 494"><g id="Gruppe_493" data-name="Gruppe 493"><path id="Pfad_1229" data-name="Pfad 1229" class="cls-3" d="M462,944.66a11.67,11.67,0,0,1-10.55,0c-2.91-1.68-2.91-4.41,0-6.09a11.67,11.67,0,0,1,10.55,0C464.9,940.25,464.9,943,462,944.66Z" transform="translate(-34.38 -49.43)"/><path id="Pfad_1230" data-name="Pfad 1230" class="cls-3" d="M674.57,930.94a11.67,11.67,0,0,1-10.55,0c-2.92-1.68-2.92-4.4,0-6.09a11.67,11.67,0,0,1,10.55,0C677.48,926.53,677.48,929.26,674.57,930.94Z" transform="translate(-34.38 -49.43)"/><path id="Pfad_1231" data-name="Pfad 1231" class="cls-3" d="M769.66,983.23a11.67,11.67,0,0,1-10.55,0c-2.92-1.68-2.92-4.41,0-6.09a11.67,11.67,0,0,1,10.55,0C772.57,978.82,772.57,981.55,769.66,983.23Z" transform="translate(-34.38 -49.43)"/><path id="Pfad_1232" data-name="Pfad 1232" class="cls-3" d="M342.3,761.52a11.67,11.67,0,0,1-10.55,0c-2.92-1.68-2.92-4.4,0-6.09a11.67,11.67,0,0,1,10.55,0C345.21,757.12,345.21,759.84,342.3,761.52Z" transform="translate(-34.38 -49.43)"/><g id="Gruppe_492" data-name="Gruppe 492"><path id="Pfad_1233" data-name="Pfad 1233" class="cls-3" d="M1049.45,687.29l-.42-.24L850.28,572.4l1.26-.73L1049.45,457.5l.41.24L1248.61,572.4l-1.25.72ZM853.62,572.39l195.83,113,195.82-113-195.82-113Z" transform="translate(-34.38 -49.43)"/><path id="Pfad_1234" data-name="Pfad 1234" class="cls-3" d="M976.08,501.27,838.49,421.9V292.5L444.54,65.24l.84-1.45L840.16,291.54v129.4l136.75,78.89Z" transform="translate(-34.38 -49.43)"/><path id="Pfad_1235" data-name="Pfad 1235" class="cls-3" d="M798.69,269.06V150.57L630.87,53.76l.83-1.44,168.66,97.29V269.06Z" transform="translate(-34.38 -49.43)"/><path id="Pfad_1236" data-name="Pfad 1236" class="cls-3" d="M950.28,516.16,816.92,439.22H584.31l-.19-.11-203.7-117.5H345.53l-144,83.08-.84-1.44,144.41-83.31h35.79l.2.11,203.69,117.5H817.37l.19.12,133.56,77Z" transform="translate(-34.38 -49.43)"/><path id="Pfad_1237" data-name="Pfad 1237" class="cls-3" d="M1148.61,516.16l-.83-1.45,269.13-155.26h160.26l100.16-57.78V207.93H1679v94.7l-.42.24-101,58.25H1417.36Z" transform="translate(-34.38 -49.43)"/><path id="Pfad_1238" data-name="Pfad 1238" class="cls-3" d="M1116.44,497.6l-.83-1.44,272.14-157V245.62l.42-.24,98-56.55.83,1.45-97.6,56.3v93.53l-.42.24Z" transform="translate(-34.38 -49.43)"/><path id="Pfad_1239" data-name="Pfad 1239" class="cls-3" d="M1082.74,478.15l-.83-1.44,160-92.29V306.07L963.72,145.6l.84-1.45,279,161v80.27l-.42.24Z" transform="translate(-34.38 -49.43)"/><path id="Pfad_1240" data-name="Pfad 1240" class="cls-3" d="M1948.47,834.82H1701.39l-.19-.11L1523.5,732.2H1376.38l-.19-.11L1173.58,615.21l.83-1.44,202.42,116.76h147.11l.2.11,177.7,102.51H1948l108.65-62.68.83,1.45Z" transform="translate(-34.38 -49.43)"/><path id="Pfad_1241" data-name="Pfad 1241" class="cls-3" d="M1645.13,763.4l-87.85-50.68H1388.44l-.19-.11L1196.49,602l.83-1.45,191.57,110.51h168.84l.19.11L1646,762Z" transform="translate(-34.38 -49.43)"/><path id="Pfad_1242" data-name="Pfad 1242" class="cls-3" d="M1285.06,652.6l-.83-1.45,141-81.33h101.15l.19.11,65.12,37.57-.83,1.45-64.93-37.46H1425.67Z" transform="translate(-34.38 -49.43)"/><path id="Pfad_1243" data-name="Pfad 1243" class="cls-3" d="M1667.13,855.06,1588,809.42V769.64h1.67v38.82L1668,853.61Z" transform="translate(-34.38 -49.43)"/><path id="Pfad_1244" data-name="Pfad 1244" class="cls-3" d="M1172.63,266h-64l-.19-.11L994.25,200l.83-1.44,114,65.76h63.55Z" transform="translate(-34.38 -49.43)"/><path id="Pfad_1245" data-name="Pfad 1245" class="cls-3" d="M1113.77,459.77h-1.67V417.55l.42-.24,78.72-45.41V328.29h1.67v44.57l-.41.24-78.73,45.42Z" transform="translate(-34.38 -49.43)"/><path id="Pfad_1246" data-name="Pfad 1246" class="cls-3" d="M669.71,928.62l-.83-1.45L805.94,848.1V718.7l.42-.24L956.18,632l.83,1.44-149.4,86.19v129.4l-.42.24Z" transform="translate(-34.38 -49.43)"/><path id="Pfad_1247" data-name="Pfad 1247" class="cls-3" d="M762.57,982.19l-.83-1.45,53.85-31.06v-57l.42-.24L868.65,862V710.35l.42-.24L980.3,646l.83,1.44-110.8,63.93V863l-.42.24-52.64,30.37v57l-.42.24Z" transform="translate(-34.38 -49.43)"/><path id="Pfad_1248" data-name="Pfad 1248" class="cls-3" d="M337.44,759.2l-.83-1.44,43.47-25.09H472l165.7-95.59H783.39l90.77-52.36.83,1.44-91.15,52.59H638.15l-165.7,95.6H380.53Z" transform="translate(-34.38 -49.43)"/><path id="Pfad_1249" data-name="Pfad 1249" class="cls-3" d="M431.37,693.73l-.83-1.45,58.08-33.5H600.33v1.67H489.07Z" transform="translate(-34.38 -49.43)"/><path id="Pfad_1250" data-name="Pfad 1250" class="cls-3" d="M457.12,942.34l-.83-1.45L669,818.19V753.8l.42-.24L918.12,610.09l.83,1.44L670.66,754.76v64.39l-.41.24Z" transform="translate(-34.38 -49.43)"/><path id="Pfad_1251" data-name="Pfad 1251" class="cls-3" d="M923.62,531.54l-96-55.38H558.11l-.19-.11L363.15,363.69l.84-1.44L558.56,474.49H828.08l.19.11,96.18,55.49Z" transform="translate(-34.38 -49.43)"/><path id="Pfad_1252" data-name="Pfad 1252" class="cls-3" d="M705.69,508H556.89v-1.67H705.24l54.93-31.69.83,1.45Z" transform="translate(-34.38 -49.43)"/><path id="Pfad_1253" data-name="Pfad 1253" class="cls-3" d="M1104.35,1078.17V986.86l.42-.24L1319.09,863V765.24l-202.79-117,.83-1.44,203.63,117.47v99.66l-.42.24L1106,987.82v90.35Z" transform="translate(-34.38 -49.43)"/><path id="Pfad_1254" data-name="Pfad 1254" class="cls-3" d="M1062.26,962.36l-.83-1.44,74.36-42.9h87.85v1.67h-87.4Z" transform="translate(-34.38 -49.43)"/><rect id="Rechteck_12" data-name="Rechteck 12" class="cls-3" x="1161.66" y="621.05" width="1.73" height="172.3" transform="translate(-65.57 1310.94) rotate(-60)"/><path id="Pfad_1255" data-name="Pfad 1255" class="cls-3" d="M926.54,967.21V713.83l.42-.24,85.3-49.2.84,1.45-84.88,49V967.21Z" transform="translate(-34.38 -49.43)"/><path id="Pfad_1256" data-name="Pfad 1256" class="cls-3" d="M972.23,930.68h-1.67V843.21L927,818.06l.83-1.44,44.44,25.63Z" transform="translate(-34.38 -49.43)"/><path id="Pfad_1257" data-name="Pfad 1257" class="cls-3" d="M374.12,613.39l-.84-1.45,134.17-77.4H714.06L782.57,495h33.77l.19.11,84.26,48.61-.84,1.45-84.06-48.5H783l-68.51,39.53H507.89Z" transform="translate(-34.38 -49.43)"/><path id="Pfad_1258" data-name="Pfad 1258" class="cls-3" d="M1286.89,780.72h-54.32l-.2-.11L1059.62,681l.83-1.45L1233,779.05h53.87Z" transform="translate(-34.38 -49.43)"/><path id="Pfad_1259" data-name="Pfad 1259" class="cls-3" d="M1140.57,822.09l-142-81.9V705.31l.42-.24,41.88-24.16.84,1.45-41.47,23.92v33l141.14,81.42Z" transform="translate(-34.38 -49.43)"/><path id="Pfad_1260" data-name="Pfad 1260" class="cls-3" d="M1149.92,796.7l-63-36.33h-52.76V758.7h53.21l.19.11,63.17,36.44Z" transform="translate(-34.38 -49.43)"/><path id="Pfad_1261" data-name="Pfad 1261" class="cls-3" d="M1148.78,874.75l-65.84-38V806.63L1009,764V745.69h1.67V763l74,42.68V835.8l65,37.5Z" transform="translate(-34.38 -49.43)"/><path id="Pfad_1262" data-name="Pfad 1262" class="cls-3" d="M1155.61,799a11.67,11.67,0,0,1-10.55,0c-2.92-1.68-2.92-4.41,0-6.09a11.67,11.67,0,0,1,10.55,0C1158.52,794.61,1158.52,797.34,1155.61,799Z" transform="translate(-34.38 -49.43)"/><path id="Pfad_1263" data-name="Pfad 1263" class="cls-3" d="M1146.45,824.3a11.61,11.61,0,0,1-10.55,0c-2.92-1.68-2.92-4.4,0-6.08a11.61,11.61,0,0,1,10.55,0C1149.36,819.9,1149.36,822.62,1146.45,824.3Z" transform="translate(-34.38 -49.43)"/><path id="Pfad_1264" data-name="Pfad 1264" class="cls-3" d="M995.4,809.69a11.67,11.67,0,0,1-10.55,0c-2.92-1.68-2.92-4.4,0-6.08a11.61,11.61,0,0,1,10.55,0C998.31,805.29,998.31,808,995.4,809.69Z" transform="translate(-34.38 -49.43)"/><path id="Pfad_1265" data-name="Pfad 1265" class="cls-3" d="M678.64,582.12a11.63,11.63,0,0,1-10.56,0c-2.91-1.68-2.91-4.4,0-6.08a11.69,11.69,0,0,1,10.56,0C681.55,577.72,681.55,580.44,678.64,582.12Z" transform="translate(-34.38 -49.43)"/><path id="Pfad_1266" data-name="Pfad 1266" class="cls-3" d="M474.37,627.68a11.67,11.67,0,0,1-10.55,0c-2.92-1.69-2.92-4.41,0-6.09a11.67,11.67,0,0,1,10.55,0C477.28,623.27,477.28,626,474.37,627.68Z" transform="translate(-34.38 -49.43)"/><path id="Pfad_1267" data-name="Pfad 1267" class="cls-3" d="M743.36,550.87a11.67,11.67,0,0,1-10.55,0c-2.91-1.68-2.91-4.4,0-6.09a11.67,11.67,0,0,1,10.55,0C746.28,546.47,746.28,549.19,743.36,550.87Z" transform="translate(-34.38 -49.43)"/><path id="Pfad_1268" data-name="Pfad 1268" class="cls-3" d="M766.44,601.47a11.67,11.67,0,0,1-10.55,0c-2.91-1.68-2.91-4.41,0-6.09a11.67,11.67,0,0,1,10.55,0C769.36,597.06,769.36,599.79,766.44,601.47Z" transform="translate(-34.38 -49.43)"/><path id="Pfad_1269" data-name="Pfad 1269" class="cls-3" d="M1110.47,1081.22a11.69,11.69,0,0,1-10.56,0c-2.91-1.68-2.91-4.41,0-6.09a11.67,11.67,0,0,1,10.55,0C1113.38,1076.81,1113.38,1079.54,1110.47,1081.22Z" transform="translate(-34.38 -49.43)"/><path id="Pfad_1270" data-name="Pfad 1270" class="cls-3" d="M1067.12,964.69a11.67,11.67,0,0,1-10.55,0c-2.91-1.69-2.91-4.41,0-6.09a11.67,11.67,0,0,1,10.55,0C1070,960.28,1070,963,1067.12,964.69Z" transform="translate(-34.38 -49.43)"/><path id="Pfad_1271" data-name="Pfad 1271" class="cls-3" d="M1771,1070.71a11.67,11.67,0,0,1-10.55,0c-2.91-1.68-2.91-4.41,0-6.09a11.67,11.67,0,0,1,10.55,0C1773.86,1066.3,1773.86,1069,1771,1070.71Z" transform="translate(-34.38 -49.43)"/><path id="Pfad_1272" data-name="Pfad 1272" class="cls-3" d="M1513.11,1076.13a11.67,11.67,0,0,1-10.55,0c-2.91-1.68-2.91-4.4,0-6.08a11.67,11.67,0,0,1,10.55,0C1516,1071.72,1516,1074.45,1513.11,1076.13Z" transform="translate(-34.38 -49.43)"/><path id="Pfad_1273" data-name="Pfad 1273" class="cls-3" d="M1435.85,900.51a11.67,11.67,0,0,1-10.55,0c-2.92-1.68-2.92-4.41,0-6.09a11.67,11.67,0,0,1,10.55,0C1438.76,896.1,1438.76,898.83,1435.85,900.51Z" transform="translate(-34.38 -49.43)"/><path id="Pfad_1274" data-name="Pfad 1274" class="cls-3" d="M562.17,510.17a11.69,11.69,0,0,1-10.56,0c-2.91-1.68-2.91-4.41,0-6.09a11.69,11.69,0,0,1,10.56,0C565.08,505.76,565.08,508.49,562.17,510.17Z" transform="translate(-34.38 -49.43)"/><path id="Pfad_1275" data-name="Pfad 1275" class="cls-3" d="M368.85,366a11.63,11.63,0,0,1-10.56,0c-2.91-1.68-2.91-4.4,0-6.08a11.63,11.63,0,0,1,10.56,0C371.76,361.61,371.76,364.33,368.85,366Z" transform="translate(-34.38 -49.43)"/><path id="Pfad_1276" data-name="Pfad 1276" class="cls-3" d="M206.37,407a11.69,11.69,0,0,1-10.56,0c-2.91-1.68-2.91-4.4,0-6.08a11.67,11.67,0,0,1,10.55,0C209.28,402.6,209.28,405.32,206.37,407Z" transform="translate(-34.38 -49.43)"/><path id="Pfad_1277" data-name="Pfad 1277" class="cls-3" d="M635.35,56.78a11.67,11.67,0,0,1-10.55,0c-2.91-1.68-2.91-4.41,0-6.09a11.67,11.67,0,0,1,10.55,0C638.27,52.37,638.27,55.1,635.35,56.78Z" transform="translate(-34.38 -49.43)"/><path id="Pfad_1278" data-name="Pfad 1278" class="cls-3" d="M1154.48,877.07a11.67,11.67,0,0,1-10.55,0c-2.92-1.68-2.92-4.41,0-6.09a11.67,11.67,0,0,1,10.55,0C1157.39,872.66,1157.39,875.39,1154.48,877.07Z" transform="translate(-34.38 -49.43)"/><path id="Pfad_1279" data-name="Pfad 1279" class="cls-3" d="M976.67,933.72a11.61,11.61,0,0,1-10.55,0c-2.92-1.68-2.92-4.4,0-6.08a11.67,11.67,0,0,1,10.55,0C979.58,929.32,979.58,932,976.67,933.72Z" transform="translate(-34.38 -49.43)"/><path id="Pfad_1280" data-name="Pfad 1280" class="cls-3" d="M932.65,971.82a11.67,11.67,0,0,1-10.55,0c-2.92-1.69-2.92-4.41,0-6.09a11.67,11.67,0,0,1,10.55,0C935.56,967.41,935.56,970.14,932.65,971.82Z" transform="translate(-34.38 -49.43)"/><path id="Pfad_1281" data-name="Pfad 1281" class="cls-3" d="M436.23,696a11.67,11.67,0,0,1-10.55,0c-2.91-1.68-2.91-4.4,0-6.08a11.67,11.67,0,0,1,10.55,0C439.15,691.64,439.15,694.37,436.23,696Z" transform="translate(-34.38 -49.43)"/><path id="Pfad_1282" data-name="Pfad 1282" class="cls-3" d="M569.76,752.56a11.67,11.67,0,0,1-10.55,0c-2.91-1.68-2.91-4.41,0-6.09a11.67,11.67,0,0,1,10.55,0C572.68,748.15,572.68,750.88,569.76,752.56Z" transform="translate(-34.38 -49.43)"/><path id="Pfad_1283" data-name="Pfad 1283" class="cls-3" d="M379.1,615.78a11.69,11.69,0,0,1-10.56,0c-2.91-1.68-2.91-4.41,0-6.09a11.69,11.69,0,0,1,10.56,0C382,611.37,382,614.1,379.1,615.78Z" transform="translate(-34.38 -49.43)"/><path id="Pfad_1284" data-name="Pfad 1284" class="cls-3" d="M1292.17,782.93a11.67,11.67,0,0,1-10.55,0c-2.92-1.68-2.92-4.4,0-6.08a11.67,11.67,0,0,1,10.55,0C1295.08,778.53,1295.08,781.25,1292.17,782.93Z" transform="translate(-34.38 -49.43)"/><path id="Pfad_1285" data-name="Pfad 1285" class="cls-3" d="M1593.14,609.31a11.67,11.67,0,0,1-10.55,0c-2.91-1.69-2.91-4.41,0-6.09a11.67,11.67,0,0,1,10.55,0C1596.06,604.9,1596.06,607.63,1593.14,609.31Z" transform="translate(-34.38 -49.43)"/><path id="Pfad_1286" data-name="Pfad 1286" class="cls-3" d="M1465.74,501.66a11.63,11.63,0,0,1-10.56,0c-2.91-1.68-2.91-4.4,0-6.08a11.69,11.69,0,0,1,10.56,0C1468.65,497.26,1468.65,500,1465.74,501.66Z" transform="translate(-34.38 -49.43)"/><path id="Pfad_1287" data-name="Pfad 1287" class="cls-3" d="M1393.71,539a11.67,11.67,0,0,1-10.55,0c-2.92-1.69-2.92-4.41,0-6.09a11.67,11.67,0,0,1,10.55,0C1396.62,534.55,1396.62,537.27,1393.71,539Z" transform="translate(-34.38 -49.43)"/><path id="Pfad_1288" data-name="Pfad 1288" class="cls-3" d="M1324.51,480.6a11.67,11.67,0,0,1-10.55,0c-2.91-1.68-2.92-4.4,0-6.09a11.67,11.67,0,0,1,10.55,0C1327.43,476.2,1327.43,478.92,1324.51,480.6Z" transform="translate(-34.38 -49.43)"/><path id="Pfad_1289" data-name="Pfad 1289" class="cls-3" d="M1197.35,331.33a11.67,11.67,0,0,1-10.55,0c-2.91-1.68-2.91-4.41,0-6.09a11.67,11.67,0,0,1,10.55,0C1200.27,326.92,1200.27,329.65,1197.35,331.33Z" transform="translate(-34.38 -49.43)"/><path id="Pfad_1290" data-name="Pfad 1290" class="cls-3" d="M1685,211.86a11.67,11.67,0,0,1-10.55,0c-2.92-1.68-2.92-4.41,0-6.09a11.67,11.67,0,0,1,10.55,0C1687.89,207.45,1687.89,210.18,1685,211.86Z" transform="translate(-34.38 -49.43)"/><path id="Pfad_1291" data-name="Pfad 1291" class="cls-3" d="M1491.88,192.6a11.61,11.61,0,0,1-10.55,0c-2.92-1.68-2.92-4.4,0-6.08a11.67,11.67,0,0,1,10.55,0C1494.79,188.2,1494.79,190.92,1491.88,192.6Z" transform="translate(-34.38 -49.43)"/><path id="Pfad_1292" data-name="Pfad 1292" class="cls-3" d="M1108.55,341.59a11.67,11.67,0,0,1-10.55,0c-2.91-1.69-2.91-4.41,0-6.09a11.67,11.67,0,0,1,10.55,0C1111.47,337.18,1111.47,339.9,1108.55,341.59Z" transform="translate(-34.38 -49.43)"/><path id="Pfad_1293" data-name="Pfad 1293" class="cls-3" d="M1098.76,287.23a11.61,11.61,0,0,1-10.55,0c-2.92-1.68-2.92-4.4,0-6.08a11.61,11.61,0,0,1,10.55,0C1101.67,282.83,1101.67,285.55,1098.76,287.23Z" transform="translate(-34.38 -49.43)"/><path id="Pfad_1294" data-name="Pfad 1294" class="cls-3" d="M945.88,223.07a11.69,11.69,0,0,1-10.56,0c-2.91-1.68-2.91-4.41,0-6.09a11.69,11.69,0,0,1,10.56,0C948.79,218.66,948.79,221.39,945.88,223.07Z" transform="translate(-34.38 -49.43)"/><path id="Pfad_1295" data-name="Pfad 1295" class="cls-3" d="M999.94,202.31a11.61,11.61,0,0,1-10.55,0c-2.91-1.68-2.91-4.4,0-6.08a11.69,11.69,0,0,1,10.56,0C1002.86,197.91,1002.86,200.63,999.94,202.31Z" transform="translate(-34.38 -49.43)"/><path id="Pfad_1296" data-name="Pfad 1296" class="cls-3" d="M450.24,67.56a11.69,11.69,0,0,1-10.56,0c-2.91-1.68-2.91-4.41,0-6.09a11.69,11.69,0,0,1,10.56,0C453.15,63.15,453.15,65.88,450.24,67.56Z" transform="translate(-34.38 -49.43)"/><path id="Pfad_1297" data-name="Pfad 1297" class="cls-3" d="M969.41,147.92a11.67,11.67,0,0,1-10.55,0c-2.91-1.68-2.91-4.41,0-6.09a11.67,11.67,0,0,1,10.55,0C972.33,143.51,972.33,146.24,969.41,147.92Z" transform="translate(-34.38 -49.43)"/><path id="Pfad_1298" data-name="Pfad 1298" class="cls-3" d="M1294.18,600.75a11.67,11.67,0,0,1-10.55,0c-2.91-1.68-2.91-4.41,0-6.09a11.67,11.67,0,0,1,10.55,0C1297.1,596.34,1297.1,599.07,1294.18,600.75Z" transform="translate(-34.38 -49.43)"/><path id="Pfad_1299" data-name="Pfad 1299" class="cls-3" d="M938.22,420.55a11.67,11.67,0,0,1-10.55,0c-2.92-1.68-2.92-4.41,0-6.09a11.67,11.67,0,0,1,10.55,0C941.13,416.14,941.13,418.87,938.22,420.55Z" transform="translate(-34.38 -49.43)"/><path id="Pfad_1300" data-name="Pfad 1300" class="cls-3" d="M631.44,314.37a11.67,11.67,0,0,1-10.55,0c-2.92-1.69-2.92-4.41,0-6.09a11.67,11.67,0,0,1,10.55,0C634.36,310,634.36,312.69,631.44,314.37Z" transform="translate(-34.38 -49.43)"/><path id="Pfad_1301" data-name="Pfad 1301" class="cls-3" d="M407.07,198.56a11.67,11.67,0,0,1-10.55,0c-2.92-1.68-2.92-4.41,0-6.09a11.67,11.67,0,0,1,10.55,0C410,194.15,410,196.87,407.07,198.56Z" transform="translate(-34.38 -49.43)"/><path id="Pfad_1302" data-name="Pfad 1302" class="cls-3" d="M477.22,179.83a11.67,11.67,0,0,1-10.55,0c-2.91-1.68-2.91-4.41,0-6.09a11.67,11.67,0,0,1,10.55,0C480.14,175.43,480.14,178.15,477.22,179.83Z" transform="translate(-34.38 -49.43)"/><path id="Pfad_1303" data-name="Pfad 1303" class="cls-3" d="M1420.32,608.4a11.69,11.69,0,0,1-10.56,0c-2.91-1.68-2.91-4.41,0-6.09a11.69,11.69,0,0,1,10.56,0C1423.23,604,1423.23,606.72,1420.32,608.4Z" transform="translate(-34.38 -49.43)"/><path id="Pfad_1304" data-name="Pfad 1304" class="cls-3" d="M1672.82,857.38a11.67,11.67,0,0,1-10.55,0c-2.92-1.68-2.92-4.41,0-6.09a11.67,11.67,0,0,1,10.55,0C1675.73,853,1675.73,855.7,1672.82,857.38Z" transform="translate(-34.38 -49.43)"/><path id="Pfad_1305" data-name="Pfad 1305" class="cls-3" d="M1774.27,591.36a11.67,11.67,0,0,1-10.55,0c-2.92-1.68-2.92-4.41,0-6.09a11.67,11.67,0,0,1,10.55,0C1777.18,587,1777.18,589.68,1774.27,591.36Z" transform="translate(-34.38 -49.43)"/><path id="Pfad_1306" data-name="Pfad 1306" class="cls-3" d="M1650.82,764.23a11.69,11.69,0,0,1-10.56,0c-2.91-1.68-2.91-4.41,0-6.09a11.69,11.69,0,0,1,10.56,0C1653.73,759.82,1653.73,762.55,1650.82,764.23Z" transform="translate(-34.38 -49.43)"/><path id="Pfad_1307" data-name="Pfad 1307" class="cls-3" d="M2062.36,774.24a11.61,11.61,0,0,1-10.55,0c-2.91-1.68-2.91-4.4,0-6.08a11.67,11.67,0,0,1,10.55,0C2065.28,769.84,2065.28,772.56,2062.36,774.24Z" transform="translate(-34.38 -49.43)"/><path id="Pfad_1308" data-name="Pfad 1308" class="cls-3" d="M1242.42,753.29a11.67,11.67,0,0,1-10.55,0c-2.92-1.69-2.92-4.41,0-6.09a11.67,11.67,0,0,1,10.55,0C1245.34,748.88,1245.34,751.6,1242.42,753.29Z" transform="translate(-34.38 -49.43)"/><rect id="Rechteck_13" data-name="Rechteck 13" class="cls-3" x="957.81" y="752.6" width="1.69" height="72.22" transform="translate(-238.11 1175.12) rotate(-60)"/><path id="Pfad_1309" data-name="Pfad 1309" class="cls-3" d="M1257.89,616.45h-36.1v-1.67h35.65l31.9-18.4.84,1.44Z" transform="translate(-34.38 -49.43)"/><path id="Pfad_1310" data-name="Pfad 1310" class="cls-3" d="M1460,499.34,1372.75,449H1314l-77.43,44.66H1187.4V492h48.74l77.43-44.66h59.63l.19.11,87.49,50.47Z" transform="translate(-34.38 -49.43)"/><path id="Pfad_1311" data-name="Pfad 1311" class="cls-3" d="M1231.68,564.08l-.83-1.44,87.94-50.74h29.69l.19.12,38.7,22.32-.83,1.44L1348,513.57h-28.8Z" transform="translate(-34.38 -49.43)"/><path id="Pfad_1312" data-name="Pfad 1312" class="cls-3" d="M1254.41,549.52V514l.42-.24,64-36.91.84,1.44L1256.08,515v34.57Z" transform="translate(-34.38 -49.43)"/><path id="Pfad_1313" data-name="Pfad 1313" class="cls-3" d="M811.9,622.44H746.84l-.19-.11L672.94,579.8l.83-1.44,73.53,42.41h64.6Z" transform="translate(-34.38 -49.43)"/><path id="Pfad_1314" data-name="Pfad 1314" class="cls-3" d="M1765.26,1068.39,1540.52,938.74V856.65L1147.78,630.09l.83-1.45,393.58,227.05v82.09L1766.09,1067Z" transform="translate(-34.38 -49.43)"/><path id="Pfad_1315" data-name="Pfad 1315" class="cls-3" d="M738.35,548.46l-.83-1.44,56.05-32.34h23.06l.19.12,29.5,17h33.56v1.67h-34l-.2-.11-29.5-17H794Z" transform="translate(-34.38 -49.43)"/><path id="Pfad_1316" data-name="Pfad 1316" class="cls-3" d="M999,488.05,892.61,426.69V355.75l.42-.24,119.53-69V262.5l-72.37-41.75.83-1.45,73.21,42.24v26l-.42.24L894.28,356.71v69l105.54,60.89Z" transform="translate(-34.38 -49.43)"/><path id="Pfad_1317" data-name="Pfad 1317" class="cls-3" d="M975.39,473h-1.68V442l-41.18-23.76.83-1.45,42,24.25Z" transform="translate(-34.38 -49.43)"/><path id="Pfad_1318" data-name="Pfad 1318" class="cls-3" d="M756.9,439.11,505.4,294V256.24L401.68,196.41l.83-1.44,104.56,60.31v37.78L757.74,437.67Z" transform="translate(-34.38 -49.43)"/><path id="Pfad_1319" data-name="Pfad 1319" class="cls-3" d="M666.5,334.11h-1.67V289L471.53,177.51l.83-1.44,194.14,112Z" transform="translate(-34.38 -49.43)"/><path id="Pfad_1320" data-name="Pfad 1320" class="cls-3" d="M817.57,438.63,690.45,365.3V349.37L625.75,312l.84-1.44,65.54,37.81v15.93L818.4,437.18Z" transform="translate(-34.38 -49.43)"/><path id="Pfad_1321" data-name="Pfad 1321" class="cls-3" d="M1430.16,898.19,1355,854.81v-48l-35.46-20.46.83-1.44,36.3,20.94v48l74.35,42.9Z" transform="translate(-34.38 -49.43)"/><path id="Pfad_1322" data-name="Pfad 1322" class="cls-3" d="M1364.1,635.7h-49.91V634h49.46l51-29.4.84,1.44Z" transform="translate(-34.38 -49.43)"/><path id="Pfad_1323" data-name="Pfad 1323" class="cls-3" d="M1586.22,694.72H1357.46V693h228.31l181-104.41.84,1.45Z" transform="translate(-34.38 -49.43)"/><path id="Pfad_1324" data-name="Pfad 1324" class="cls-3" d="M1029.49,470.46h-1.67V381.11l.42-.24,73.42-42.35.83,1.44-73,42.11Z" transform="translate(-34.38 -49.43)"/><path id="Pfad_1325" data-name="Pfad 1325" class="cls-3" d="M1028.24,418.75l-54-31.15V352l.41-.24,118.41-68.31.84,1.44L975.9,353v33.66l53.17,30.67Z" transform="translate(-34.38 -49.43)"/><path id="Pfad_1326" data-name="Pfad 1326" class="cls-3" d="M564.9,750.24l-.83-1.45L697.71,671.7H811.53v1.67H698.15Z" transform="translate(-34.38 -49.43)"/><path id="Pfad_1327" data-name="Pfad 1327" class="cls-3" d="M549.63,625.47H469.09v-1.68h80.09l36.52-21.06H715.81v1.67H586.15Z" transform="translate(-34.38 -49.43)"/><path id="Pfad_1328" data-name="Pfad 1328" class="cls-3" d="M762,598.89l-.83-1.44,60.87-35.12H868V564H822.52Z" transform="translate(-34.38 -49.43)"/><path id="Pfad_1329" data-name="Pfad 1329" class="cls-3" d="M1507.42,1073.81,1417.53,1022V945l-119-68.68.84-1.44L1419.2,944v77l89,51.38Z" transform="translate(-34.38 -49.43)"/></g></g></g></g><g id="Gruppe_499" data-name="Gruppe 499"><g class="cls-4"><g class="cls-2"><g id="Gruppe_498" data-name="Gruppe 498"><g id="Gruppe_497" data-name="Gruppe 497"><path id="Pfad_1330" data-name="Pfad 1330" class="cls-3" d="M1637,203.92a11.67,11.67,0,0,1,10.55,0c2.91,1.69,2.91,4.41,0,6.09a11.67,11.67,0,0,1-10.55,0C1634,208.33,1634,205.6,1637,203.92Z" transform="translate(-34.38 -49.43)"/><path id="Pfad_1331" data-name="Pfad 1331" class="cls-3" d="M1424.36,217.65a11.61,11.61,0,0,1,10.55,0c2.92,1.68,2.92,4.4,0,6.08a11.67,11.67,0,0,1-10.55,0C1421.44,222.05,1421.44,219.33,1424.36,217.65Z" transform="translate(-34.38 -49.43)"/><path id="Pfad_1332" data-name="Pfad 1332" class="cls-3" d="M1329.27,165.36a11.69,11.69,0,0,1,10.56,0c2.91,1.68,2.91,4.4,0,6.08a11.63,11.63,0,0,1-10.56,0C1326.36,169.76,1326.36,167,1329.27,165.36Z" transform="translate(-34.38 -49.43)"/><path id="Pfad_1333" data-name="Pfad 1333" class="cls-3" d="M1756.63,387.06a11.67,11.67,0,0,1,10.55,0c2.92,1.68,2.92,4.41,0,6.09a11.67,11.67,0,0,1-10.55,0C1753.72,391.47,1753.72,388.74,1756.63,387.06Z" transform="translate(-34.38 -49.43)"/><g id="Gruppe_496" data-name="Gruppe 496"><path id="Pfad_1334" data-name="Pfad 1334" class="cls-3" d="M1049.48,691.08l-.41-.24L850.32,576.18l1.25-.72,197.91-114.17.42.24,198.75,114.66-1.26.72ZM853.66,576.18l195.82,113,195.82-113-195.82-113Z" transform="translate(-34.38 -49.43)"/><path id="Pfad_1335" data-name="Pfad 1335" class="cls-3" d="M1653.56,1084.79,1258.77,857.05V727.65L1122,648.76l.83-1.44,137.59,79.37v129.4l394,227.26Z" transform="translate(-34.38 -49.43)"/><path id="Pfad_1336" data-name="Pfad 1336" class="cls-3" d="M1467.23,1096.27,1298.57,999V879.53h1.67V998l167.82,96.82Z" transform="translate(-34.38 -49.43)"/><path id="Pfad_1337" data-name="Pfad 1337" class="cls-3" d="M1753.85,828.65h-35.79l-.19-.11L1514.17,711H1281.56l-.2-.11-133.54-77,.83-1.44L1282,709.36h232.61l.19.12L1718.51,827h34.89l144-83.08.83,1.45Z" transform="translate(-34.38 -49.43)"/><path id="Pfad_1338" data-name="Pfad 1338" class="cls-3" d="M419.94,940.66V846l.42-.24,101-58.24H681.57l268.75-155,.84,1.44L682,789.14H521.76L421.61,846.91v93.75Z" transform="translate(-34.38 -49.43)"/><path id="Pfad_1339" data-name="Pfad 1339" class="cls-3" d="M612.74,959.75l-.83-1.45,97.6-56.3V808.46l.42-.24L982.49,651l.83,1.44-272.14,157V903l-.42.24Z" transform="translate(-34.38 -49.43)"/><path id="Pfad_1340" data-name="Pfad 1340" class="cls-3" d="M1134.37,1004.43l-279-160.95V763.21l.42-.24,160.4-92.54.84,1.45L857,764.17v78.35L1135.21,1003Z" transform="translate(-34.38 -49.43)"/><path id="Pfad_1341" data-name="Pfad 1341" class="cls-3" d="M924.52,534.82,722.1,418.06H575l-.19-.12L397.09,315.43H150.91L42.26,378.1l-.84-1.44,109-62.9H397.54l.19.11,177.7,102.51H722.55l.19.12L925.36,533.38Z" transform="translate(-34.38 -49.43)"/><path id="Pfad_1342" data-name="Pfad 1342" class="cls-3" d="M901.61,548,710,437.54H541.2l-.19-.11-88-50.79.84-1.44,87.84,50.67H710.49l.19.12L902.44,546.6Z" transform="translate(-34.38 -49.43)"/><path id="Pfad_1343" data-name="Pfad 1343" class="cls-3" d="M673.71,578.76H572.57l-.2-.11-65.12-37.57.83-1.44L573,577.09H673.26L813.87,496l.83,1.44Z" transform="translate(-34.38 -49.43)"/><path id="Pfad_1344" data-name="Pfad 1344" class="cls-3" d="M510.92,379h-1.67V340.13L431,295l.83-1.44,79.12,45.64Z" transform="translate(-34.38 -49.43)"/><path id="Pfad_1345" data-name="Pfad 1345" class="cls-3" d="M1103.85,950l-114-65.76H926.31V882.6h64l.19.12,114.19,65.87Z" transform="translate(-34.38 -49.43)"/><path id="Pfad_1346" data-name="Pfad 1346" class="cls-3" d="M906,820.3V775.73l.42-.24,78.72-45.42V688.81h1.67V731l-.42.24-78.72,45.41V820.3Z" transform="translate(-34.38 -49.43)"/><path id="Pfad_1347" data-name="Pfad 1347" class="cls-3" d="M1142.76,516.55l-.83-1.44,149.4-86.19V299.52l.42-.24L1429.23,220l.83,1.44L1293,300.48v129.4l-.42.24Z" transform="translate(-34.38 -49.43)"/><path id="Pfad_1348" data-name="Pfad 1348" class="cls-3" d="M1118.64,502.63l-.83-1.44,110.8-63.92V285.6l.42-.24L1281.68,255V197.94l.41-.24,54.27-31.3.84,1.44-53.85,31.07v57l-.42.25-52.65,30.37V438.23l-.41.24Z" transform="translate(-34.38 -49.43)"/><path id="Pfad_1349" data-name="Pfad 1349" class="cls-3" d="M1224.77,563.86l-.83-1.45,91.15-52.58h145.68l165.7-95.59h91.93l43.09-24.85.83,1.44-43.47,25.08h-91.92l-165.7,95.59h-145.7Z" transform="translate(-34.38 -49.43)"/><path id="Pfad_1350" data-name="Pfad 1350" class="cls-3" d="M1610.31,489.81H1498.6v-1.67h111.27l57.69-33.28.83,1.44Z" transform="translate(-34.38 -49.43)"/><path id="Pfad_1351" data-name="Pfad 1351" class="cls-3" d="M1180.81,538.5l-.83-1.44,248.28-143.23V329.44l.42-.25,213.13-122.94.83,1.44L1429.94,330.4v64.39l-.42.24Z" transform="translate(-34.38 -49.43)"/><path id="Pfad_1352" data-name="Pfad 1352" class="cls-3" d="M1734.94,786.34,1540.37,674.1H1270.85l-.19-.12-96.18-55.48.83-1.45,96,55.38h269.52l.19.11L1735.78,784.9Z" transform="translate(-34.38 -49.43)"/><path id="Pfad_1353" data-name="Pfad 1353" class="cls-3" d="M1338.76,674l-.83-1.44,55.31-31.92H1542v1.67H1393.69Z" transform="translate(-34.38 -49.43)"/><path id="Pfad_1354" data-name="Pfad 1354" class="cls-3" d="M981.8,501.78,778.17,384.31V284.64l.42-.24L992.91,160.76V70.41h1.67v91.32l-.42.24L779.84,285.61v97.74l202.8,117Z" transform="translate(-34.38 -49.43)"/><path id="Pfad_1355" data-name="Pfad 1355" class="cls-3" d="M963.14,230.57H875.29v-1.68h87.4l74-42.67.83,1.45Z" transform="translate(-34.38 -49.43)"/><rect id="Rechteck_15" data-name="Rechteck 15" class="cls-3" x="935.54" y="355.24" width="1.73" height="172.3" transform="translate(51.57 982.22) rotate(-60)"/><path id="Pfad_1356" data-name="Pfad 1356" class="cls-3" d="M1086.68,484.2l-.83-1.45,84.87-49V181.38h1.67V434.75l-.42.24Z" transform="translate(-34.38 -49.43)"/><path id="Pfad_1357" data-name="Pfad 1357" class="cls-3" d="M1171.14,332l-44.44-25.64V217.9h1.67v87.47l43.6,25.15Z" transform="translate(-34.38 -49.43)"/><path id="Pfad_1358" data-name="Pfad 1358" class="cls-3" d="M1316.36,653.56h-33.77l-.19-.11-84.25-48.6.83-1.45L1283,651.89h32.87l68.51-39.52H1591l133.77-77.17.84,1.44L1591.48,614H1384.87Z" transform="translate(-34.38 -49.43)"/><path id="Pfad_1359" data-name="Pfad 1359" class="cls-3" d="M1038.48,469.08,865.92,369.53H812v-1.67h54.32l.2.12,172.76,99.66Z" transform="translate(-34.38 -49.43)"/><path id="Pfad_1360" data-name="Pfad 1360" class="cls-3" d="M1058,467.67l-.84-1.44,41.47-23.92V409.36L957.53,327.94l.83-1.45,142,81.9v34.88l-.42.24Z" transform="translate(-34.38 -49.43)"/><path id="Pfad_1361" data-name="Pfad 1361" class="cls-3" d="M1064.75,389.88h-53.21l-.19-.11-63.17-36.44.84-1.44,63,36.32h52.76Z" transform="translate(-34.38 -49.43)"/><path id="Pfad_1362" data-name="Pfad 1362" class="cls-3" d="M1090,402.9h-1.67V385.6l-74-42.68V312.79l-65-37.5.84-1.45,65.84,38V342l74,42.68Z" transform="translate(-34.38 -49.43)"/><path id="Pfad_1363" data-name="Pfad 1363" class="cls-3" d="M943.32,349.57a11.63,11.63,0,0,1,10.56,0c2.91,1.68,2.91,4.4,0,6.08a11.69,11.69,0,0,1-10.56,0C940.41,354,940.41,351.25,943.32,349.57Z" transform="translate(-34.38 -49.43)"/><path id="Pfad_1364" data-name="Pfad 1364" class="cls-3" d="M952.48,324.28a11.67,11.67,0,0,1,10.55,0c2.92,1.68,2.92,4.41,0,6.09a11.67,11.67,0,0,1-10.55,0C949.57,328.69,949.57,326,952.48,324.28Z" transform="translate(-34.38 -49.43)"/><path id="Pfad_1365" data-name="Pfad 1365" class="cls-3" d="M1103.53,338.89a11.67,11.67,0,0,1,10.55,0c2.92,1.68,2.92,4.41,0,6.09a11.67,11.67,0,0,1-10.55,0C1100.62,343.3,1100.62,340.58,1103.53,338.89Z" transform="translate(-34.38 -49.43)"/><path id="Pfad_1366" data-name="Pfad 1366" class="cls-3" d="M1420.29,566.46a11.69,11.69,0,0,1,10.56,0c2.91,1.68,2.91,4.41,0,6.09a11.69,11.69,0,0,1-10.56,0C1417.38,570.87,1417.38,568.14,1420.29,566.46Z" transform="translate(-34.38 -49.43)"/><path id="Pfad_1367" data-name="Pfad 1367" class="cls-3" d="M1624.56,520.91a11.67,11.67,0,0,1,10.55,0c2.92,1.68,2.92,4.4,0,6.09a11.67,11.67,0,0,1-10.55,0C1621.65,525.31,1621.65,522.59,1624.56,520.91Z" transform="translate(-34.38 -49.43)"/><path id="Pfad_1368" data-name="Pfad 1368" class="cls-3" d="M1355.56,597.71a11.69,11.69,0,0,1,10.56,0c2.91,1.68,2.91,4.41,0,6.09a11.69,11.69,0,0,1-10.56,0C1352.65,602.12,1352.65,599.39,1355.56,597.71Z" transform="translate(-34.38 -49.43)"/><path id="Pfad_1369" data-name="Pfad 1369" class="cls-3" d="M1332.49,547.12a11.61,11.61,0,0,1,10.55,0c2.91,1.68,2.91,4.4,0,6.08a11.61,11.61,0,0,1-10.55,0C1329.57,551.52,1329.57,548.8,1332.49,547.12Z" transform="translate(-34.38 -49.43)"/><path id="Pfad_1370" data-name="Pfad 1370" class="cls-3" d="M988.46,67.37a11.69,11.69,0,0,1,10.56,0c2.91,1.68,2.91,4.4,0,6.09a11.69,11.69,0,0,1-10.56,0C985.55,71.77,985.55,69.05,988.46,67.37Z" transform="translate(-34.38 -49.43)"/><path id="Pfad_1371" data-name="Pfad 1371" class="cls-3" d="M1031.81,183.9a11.67,11.67,0,0,1,10.55,0c2.91,1.68,2.92,4.41,0,6.09a11.67,11.67,0,0,1-10.55,0C1028.89,188.31,1028.89,185.58,1031.81,183.9Z" transform="translate(-34.38 -49.43)"/><path id="Pfad_1372" data-name="Pfad 1372" class="cls-3" d="M328,77.87a11.67,11.67,0,0,1,10.55,0c2.91,1.69,2.91,4.41,0,6.09A11.67,11.67,0,0,1,328,84C325.06,82.28,325.06,79.56,328,77.87Z" transform="translate(-34.38 -49.43)"/><path id="Pfad_1373" data-name="Pfad 1373" class="cls-3" d="M585.81,72.45a11.69,11.69,0,0,1,10.56,0c2.91,1.68,2.91,4.41,0,6.09a11.69,11.69,0,0,1-10.56,0C582.9,76.86,582.9,74.13,585.81,72.45Z" transform="translate(-34.38 -49.43)"/><path id="Pfad_1374" data-name="Pfad 1374" class="cls-3" d="M663.08,248.07a11.67,11.67,0,0,1,10.55,0c2.92,1.69,2.92,4.41,0,6.09a11.67,11.67,0,0,1-10.55,0C660.17,252.48,660.17,249.76,663.08,248.07Z" transform="translate(-34.38 -49.43)"/><path id="Pfad_1375" data-name="Pfad 1375" class="cls-3" d="M1536.76,638.41a11.69,11.69,0,0,1,10.56,0c2.91,1.69,2.91,4.41,0,6.09a11.69,11.69,0,0,1-10.56,0C1533.85,642.82,1533.85,640.1,1536.76,638.41Z" transform="translate(-34.38 -49.43)"/><path id="Pfad_1376" data-name="Pfad 1376" class="cls-3" d="M1730.09,782.57a11.67,11.67,0,0,1,10.55,0c2.91,1.68,2.91,4.41,0,6.09a11.67,11.67,0,0,1-10.55,0C1727.17,787,1727.17,784.25,1730.09,782.57Z" transform="translate(-34.38 -49.43)"/><path id="Pfad_1377" data-name="Pfad 1377" class="cls-3" d="M1892.56,741.58a11.69,11.69,0,0,1,10.56,0c2.91,1.68,2.91,4.41,0,6.09a11.69,11.69,0,0,1-10.56,0C1889.65,746,1889.65,743.26,1892.56,741.58Z" transform="translate(-34.38 -49.43)"/><path id="Pfad_1378" data-name="Pfad 1378" class="cls-3" d="M1463.58,1091.81a11.67,11.67,0,0,1,10.55,0c2.91,1.68,2.91,4.4,0,6.09a11.67,11.67,0,0,1-10.55,0C1460.66,1096.21,1460.66,1093.49,1463.58,1091.81Z" transform="translate(-34.38 -49.43)"/><path id="Pfad_1379" data-name="Pfad 1379" class="cls-3" d="M944.45,271.52a11.61,11.61,0,0,1,10.55,0c2.92,1.68,2.92,4.4,0,6.08a11.67,11.67,0,0,1-10.55,0C941.54,275.92,941.54,273.2,944.45,271.52Z" transform="translate(-34.38 -49.43)"/><path id="Pfad_1380" data-name="Pfad 1380" class="cls-3" d="M1122.26,214.86a11.67,11.67,0,0,1,10.55,0c2.91,1.68,2.91,4.41,0,6.09a11.67,11.67,0,0,1-10.55,0C1119.34,219.27,1119.34,216.54,1122.26,214.86Z" transform="translate(-34.38 -49.43)"/><path id="Pfad_1381" data-name="Pfad 1381" class="cls-3" d="M1166.28,176.77a11.69,11.69,0,0,1,10.56,0c2.91,1.68,2.91,4.4,0,6.09a11.69,11.69,0,0,1-10.56,0C1163.37,181.17,1163.37,178.45,1166.28,176.77Z" transform="translate(-34.38 -49.43)"/><path id="Pfad_1382" data-name="Pfad 1382" class="cls-3" d="M1662.7,452.54a11.61,11.61,0,0,1,10.55,0c2.92,1.68,2.92,4.4,0,6.08a11.61,11.61,0,0,1-10.55,0C1659.79,456.94,1659.79,454.22,1662.7,452.54Z" transform="translate(-34.38 -49.43)"/><path id="Pfad_1383" data-name="Pfad 1383" class="cls-3" d="M1529.17,396a11.67,11.67,0,0,1,10.55,0c2.92,1.68,2.92,4.41,0,6.09a11.67,11.67,0,0,1-10.55,0C1526.25,400.43,1526.25,397.71,1529.17,396Z" transform="translate(-34.38 -49.43)"/><path id="Pfad_1384" data-name="Pfad 1384" class="cls-3" d="M1719.84,532.8a11.67,11.67,0,0,1,10.55,0c2.91,1.68,2.91,4.41,0,6.09a11.67,11.67,0,0,1-10.55,0C1716.92,537.21,1716.92,534.49,1719.84,532.8Z" transform="translate(-34.38 -49.43)"/><path id="Pfad_1385" data-name="Pfad 1385" class="cls-3" d="M806.76,365.65a11.67,11.67,0,0,1,10.55,0c2.92,1.68,2.92,4.41,0,6.09a11.67,11.67,0,0,1-10.55,0C803.85,370.06,803.85,367.33,806.76,365.65Z" transform="translate(-34.38 -49.43)"/><path id="Pfad_1386" data-name="Pfad 1386" class="cls-3" d="M505.79,539.28a11.67,11.67,0,0,1,10.55,0c2.91,1.68,2.91,4.4,0,6.09a11.67,11.67,0,0,1-10.55,0C502.87,543.68,502.87,541,505.79,539.28Z" transform="translate(-34.38 -49.43)"/><path id="Pfad_1387" data-name="Pfad 1387" class="cls-3" d="M633.19,646.92a11.69,11.69,0,0,1,10.56,0c2.91,1.68,2.91,4.41,0,6.09a11.69,11.69,0,0,1-10.56,0C630.28,651.33,630.28,648.6,633.19,646.92Z" transform="translate(-34.38 -49.43)"/><path id="Pfad_1388" data-name="Pfad 1388" class="cls-3" d="M705.22,609.63a11.67,11.67,0,0,1,10.55,0c2.92,1.68,2.92,4.4,0,6.09a11.67,11.67,0,0,1-10.55,0C702.3,614,702.3,611.31,705.22,609.63Z" transform="translate(-34.38 -49.43)"/><path id="Pfad_1389" data-name="Pfad 1389" class="cls-3" d="M774.42,668A11.67,11.67,0,0,1,785,668c2.91,1.68,2.91,4.41,0,6.09a11.67,11.67,0,0,1-10.55,0C771.5,672.39,771.5,669.66,774.42,668Z" transform="translate(-34.38 -49.43)"/><path id="Pfad_1390" data-name="Pfad 1390" class="cls-3" d="M901.58,817.26a11.67,11.67,0,0,1,10.55,0c2.91,1.68,2.91,4.4,0,6.09a11.73,11.73,0,0,1-10.55,0C898.66,821.66,898.66,818.94,901.58,817.26Z" transform="translate(-34.38 -49.43)"/><path id="Pfad_1391" data-name="Pfad 1391" class="cls-3" d="M414,936.72a11.67,11.67,0,0,1,10.55,0c2.92,1.69,2.92,4.41,0,6.09a11.67,11.67,0,0,1-10.55,0C411,941.13,411,938.41,414,936.72Z" transform="translate(-34.38 -49.43)"/><path id="Pfad_1392" data-name="Pfad 1392" class="cls-3" d="M607.05,956a11.67,11.67,0,0,1,10.55,0c2.92,1.68,2.92,4.41,0,6.09a11.67,11.67,0,0,1-10.55,0C604.14,960.39,604.14,957.66,607.05,956Z" transform="translate(-34.38 -49.43)"/><path id="Pfad_1393" data-name="Pfad 1393" class="cls-3" d="M990.37,807a11.69,11.69,0,0,1,10.56,0c2.91,1.68,2.91,4.41,0,6.09a11.69,11.69,0,0,1-10.56,0C987.46,811.41,987.46,808.68,990.37,807Z" transform="translate(-34.38 -49.43)"/><path id="Pfad_1394" data-name="Pfad 1394" class="cls-3" d="M1000.17,861.35a11.67,11.67,0,0,1,10.55,0c2.92,1.68,2.92,4.41,0,6.09a11.67,11.67,0,0,1-10.55,0C997.26,865.76,997.26,863,1000.17,861.35Z" transform="translate(-34.38 -49.43)"/><path id="Pfad_1395" data-name="Pfad 1395" class="cls-3" d="M1153.05,925.51a11.73,11.73,0,0,1,10.55,0c2.92,1.69,2.92,4.41,0,6.09a11.67,11.67,0,0,1-10.55,0C1150.14,929.92,1150.14,927.2,1153.05,925.51Z" transform="translate(-34.38 -49.43)"/><path id="Pfad_1396" data-name="Pfad 1396" class="cls-3" d="M1099,946.27a11.67,11.67,0,0,1,10.55,0c2.91,1.68,2.91,4.41,0,6.09a11.67,11.67,0,0,1-10.55,0C1096.07,950.68,1096.07,948,1099,946.27Z" transform="translate(-34.38 -49.43)"/><path id="Pfad_1397" data-name="Pfad 1397" class="cls-3" d="M1648.7,1081a11.61,11.61,0,0,1,10.55,0c2.91,1.68,2.91,4.4,0,6.08a11.67,11.67,0,0,1-10.55,0C1645.78,1085.43,1645.78,1082.71,1648.7,1081Z" transform="translate(-34.38 -49.43)"/><path id="Pfad_1398" data-name="Pfad 1398" class="cls-3" d="M1129.51,1000.67a11.63,11.63,0,0,1,10.56,0c2.91,1.68,2.91,4.4,0,6.08a11.69,11.69,0,0,1-10.56,0C1126.6,1005.07,1126.6,1002.35,1129.51,1000.67Z" transform="translate(-34.38 -49.43)"/><path id="Pfad_1399" data-name="Pfad 1399" class="cls-3" d="M804.75,547.83a11.67,11.67,0,0,1,10.55,0c2.91,1.68,2.91,4.41,0,6.09a11.67,11.67,0,0,1-10.55,0C801.83,552.24,801.83,549.52,804.75,547.83Z" transform="translate(-34.38 -49.43)"/><path id="Pfad_1400" data-name="Pfad 1400" class="cls-3" d="M1160.71,728a11.69,11.69,0,0,1,10.56,0c2.91,1.69,2.91,4.41,0,6.09a11.69,11.69,0,0,1-10.56,0C1157.8,732.44,1157.8,729.72,1160.71,728Z" transform="translate(-34.38 -49.43)"/><path id="Pfad_1401" data-name="Pfad 1401" class="cls-3" d="M1467.49,834.22a11.67,11.67,0,0,1,10.55,0c2.92,1.68,2.92,4.41,0,6.09a11.67,11.67,0,0,1-10.55,0C1464.58,838.63,1464.58,835.9,1467.49,834.22Z" transform="translate(-34.38 -49.43)"/><path id="Pfad_1402" data-name="Pfad 1402" class="cls-3" d="M1691.86,950a11.67,11.67,0,0,1,10.55,0c2.91,1.68,2.91,4.4,0,6.08a11.61,11.61,0,0,1-10.55,0C1689,954.43,1689,951.71,1691.86,950Z" transform="translate(-34.38 -49.43)"/><path id="Pfad_1403" data-name="Pfad 1403" class="cls-3" d="M1621.71,968.75a11.67,11.67,0,0,1,10.55,0c2.91,1.69,2.91,4.41,0,6.09a11.67,11.67,0,0,1-10.55,0C1618.79,973.16,1618.79,970.44,1621.71,968.75Z" transform="translate(-34.38 -49.43)"/><path id="Pfad_1404" data-name="Pfad 1404" class="cls-3" d="M678.61,540.19a11.67,11.67,0,0,1,10.55,0c2.92,1.68,2.92,4.4,0,6.09a11.67,11.67,0,0,1-10.55,0C675.7,544.59,675.7,541.87,678.61,540.19Z" transform="translate(-34.38 -49.43)"/><path id="Pfad_1405" data-name="Pfad 1405" class="cls-3" d="M426.11,291.2a11.67,11.67,0,0,1,10.55,0c2.92,1.69,2.92,4.41,0,6.09a11.67,11.67,0,0,1-10.55,0C423.19,295.61,423.19,292.89,426.11,291.2Z" transform="translate(-34.38 -49.43)"/><path id="Pfad_1406" data-name="Pfad 1406" class="cls-3" d="M324.66,557.23a11.61,11.61,0,0,1,10.55,0c2.92,1.68,2.92,4.4,0,6.08a11.67,11.67,0,0,1-10.55,0C321.75,561.63,321.75,558.91,324.66,557.23Z" transform="translate(-34.38 -49.43)"/><path id="Pfad_1407" data-name="Pfad 1407" class="cls-3" d="M448.11,384.36a11.63,11.63,0,0,1,10.56,0c2.91,1.68,2.91,4.4,0,6.08a11.69,11.69,0,0,1-10.56,0C445.2,388.76,445.2,386,448.11,384.36Z" transform="translate(-34.38 -49.43)"/><path id="Pfad_1408" data-name="Pfad 1408" class="cls-3" d="M36.57,374.34a11.67,11.67,0,0,1,10.55,0c2.91,1.68,2.91,4.41,0,6.09a11.67,11.67,0,0,1-10.55,0C33.65,378.75,33.65,376,36.57,374.34Z" transform="translate(-34.38 -49.43)"/><path id="Pfad_1409" data-name="Pfad 1409" class="cls-3" d="M856.51,395.3a11.67,11.67,0,0,1,10.55,0c2.92,1.68,2.92,4.41,0,6.09a11.67,11.67,0,0,1-10.55,0C853.6,399.71,853.6,397,856.51,395.3Z" transform="translate(-34.38 -49.43)"/><rect id="Rechteck_16" data-name="Rechteck 16" class="cls-3" x="1139.43" y="323.76" width="1.69" height="72.22" transform="translate(224.09 1118) rotate(-60)"/><path id="Pfad_1410" data-name="Pfad 1410" class="cls-3" d="M809.59,552.21l-.83-1.45,32.29-18.62h36.1v1.67H841.5Z" transform="translate(-34.38 -49.43)"/><path id="Pfad_1411" data-name="Pfad 1411" class="cls-3" d="M785.36,701.27H725.73l-.19-.12-87.49-50.46.84-1.45,87.29,50.36h58.74l77.42-44.67h49.19v1.67H862.79Z" transform="translate(-34.38 -49.43)"/><path id="Pfad_1412" data-name="Pfad 1412" class="cls-3" d="M780.14,636.68H750.45l-.19-.11-38.7-22.32.83-1.44,38.5,22.2h28.8l87.56-50.5.83,1.44Z" transform="translate(-34.38 -49.43)"/><path id="Pfad_1413" data-name="Pfad 1413" class="cls-3" d="M780.11,671.74l-.83-1.44,63.57-36.68V599.06h1.67v35.53l-.42.24Z" transform="translate(-34.38 -49.43)"/><path id="Pfad_1414" data-name="Pfad 1414" class="cls-3" d="M1425.15,570.23l-73.52-42.42H1287v-1.67h65.06l.19.12L1426,568.78Z" transform="translate(-34.38 -49.43)"/><path id="Pfad_1415" data-name="Pfad 1415" class="cls-3" d="M950.32,519.94l-393.58-227V210.8L332.84,81.64l.83-1.44L558.41,209.84v82.09L951.15,518.5Z" transform="translate(-34.38 -49.43)"/><path id="Pfad_1416" data-name="Pfad 1416" class="cls-3" d="M1305.35,633.9h-23l-.2-.11-29.5-17h-33.55V615.1h34l.19.12,29.5,17h22.16l55.67-32.11.84,1.44Z" transform="translate(-34.38 -49.43)"/><path id="Pfad_1417" data-name="Pfad 1417" class="cls-3" d="M1157.91,929.28l-73.21-42.23v-26l.42-.24,119.53-69v-69L1099.11,662l.83-1.45,106.38,61.37v70.94l-.41.24L1086.38,862v24.06l72.37,41.75Z" transform="translate(-34.38 -49.43)"/><path id="Pfad_1418" data-name="Pfad 1418" class="cls-3" d="M1165.57,731.8l-42-24.25v-32h1.67v31l41.19,23.76Z" transform="translate(-34.38 -49.43)"/><path id="Pfad_1419" data-name="Pfad 1419" class="cls-3" d="M1696.42,953.62l-104.56-60.31V855.53L1341.19,710.92l.84-1.44,251.5,145.09v37.78l103.71,59.83Z" transform="translate(-34.38 -49.43)"/><path id="Pfad_1420" data-name="Pfad 1420" class="cls-3" d="M1626.57,972.52l-194.14-112v-46h1.67v45.09l193.3,111.51Z" transform="translate(-34.38 -49.43)"/><path id="Pfad_1421" data-name="Pfad 1421" class="cls-3" d="M1472.35,838l-65.54-37.81V784.25L1280.53,711.4l.83-1.44,127.12,73.33v15.92l64.7,37.33Z" transform="translate(-34.38 -49.43)"/><path id="Pfad_1422" data-name="Pfad 1422" class="cls-3" d="M778.59,363.68l-36.3-20.94v-48l-74.35-42.9.83-1.44L744,293.77v48l35.46,20.46Z" transform="translate(-34.38 -49.43)"/><path id="Pfad_1423" data-name="Pfad 1423" class="cls-3" d="M684.31,544l-.84-1.44,51.36-29.63h49.91v1.67H735.28Z" transform="translate(-34.38 -49.43)"/><path id="Pfad_1424" data-name="Pfad 1424" class="cls-3" d="M332.16,560l-.84-1.44L512.71,453.86H741.47v1.67H513.16Z" transform="translate(-34.38 -49.43)"/><path id="Pfad_1425" data-name="Pfad 1425" class="cls-3" d="M997.27,810.07l-.83-1.44,73-42.12V678.12h1.67v89.35l-.42.24Z" transform="translate(-34.38 -49.43)"/><path id="Pfad_1426" data-name="Pfad 1426" class="cls-3" d="M1005.86,865.12l-.83-1.45,118-68.07V762l-53.17-30.67.83-1.45,54,31.16v35.57l-.42.24Z" transform="translate(-34.38 -49.43)"/><path id="Pfad_1427" data-name="Pfad 1427" class="cls-3" d="M1401.22,476.89H1287.4v-1.67h113.37L1534,398.35l.83,1.45Z" transform="translate(-34.38 -49.43)"/><path id="Pfad_1428" data-name="Pfad 1428" class="cls-3" d="M1513.23,545.85H1383.12v-1.67h129.66l36.52-21.06h80.54v1.67h-80.09Z" transform="translate(-34.38 -49.43)"/><path id="Pfad_1429" data-name="Pfad 1429" class="cls-3" d="M1276.86,586.26H1231v-1.67h45.44l60.49-34.9.83,1.45Z" transform="translate(-34.38 -49.43)"/><path id="Pfad_1430" data-name="Pfad 1430" class="cls-3" d="M799.62,273.71,679.73,204.55v-77L590.68,76.22l.83-1.45,89.89,51.86v77l119.05,68.68Z" transform="translate(-34.38 -49.43)"/></g></g></g></g></g></g><circle id="Ellipse_5" data-name="Ellipse 5" class="cls-5" cx="1019.88" cy="501.94" r="441.45"/><g id="Gruppe_509" data-name="Gruppe 509"><g id="Gruppe_500" data-name="Gruppe 500"><path id="Pfad_1431" data-name="Pfad 1431" class="cls-6" d="M1038.27,495.34a5.65,5.65,0,0,1-2.8-.84l-17.53-10.12.83-1.45,17.53,10.12a2.44,2.44,0,0,0,4.07-2.35v-4.23a4.06,4.06,0,0,1,6.58-3.8l3.67,2.11-.84,1.45-3.66-2.11a2.44,2.44,0,0,0-4.07,2.35v4.23a4.55,4.55,0,0,1-2,4.17A3.66,3.66,0,0,1,1038.27,495.34Z" transform="translate(-34.38 -49.43)"/><path id="Pfad_1432" data-name="Pfad 1432" class="cls-6" d="M1031.45,499.26a5.65,5.65,0,0,1-2.8-.84l-17.53-10.12.83-1.45L1029.48,497a2.44,2.44,0,0,0,3.45,0,2.48,2.48,0,0,0,.63-2.33V490.4a4.06,4.06,0,0,1,6.58-3.8l3.66,2.11-.84,1.44L1039.3,488a2.44,2.44,0,0,0-4.07,2.35v4.23a4.53,4.53,0,0,1-2,4.17A3.46,3.46,0,0,1,1031.45,499.26Z" transform="translate(-34.38 -49.43)"/><path id="Pfad_1433" data-name="Pfad 1433" class="cls-6" d="M1024.63,503.19a5.65,5.65,0,0,1-2.8-.84l-17.53-10.13.83-1.44,17.53,10.12a2.45,2.45,0,0,0,3.46,0,2.47,2.47,0,0,0,.62-2.32v-4.22a4.06,4.06,0,0,1,6.58-3.8l3.66,2.12-.84,1.44-3.66-2.11a2.44,2.44,0,0,0-4.07,2.35v4.23a4.55,4.55,0,0,1-2,4.17A3.66,3.66,0,0,1,1024.63,503.19Z" transform="translate(-34.38 -49.43)"/><path id="Pfad_1434" data-name="Pfad 1434" class="cls-6" d="M1017.82,507.11a5.54,5.54,0,0,1-2.8-.85l-17.53-10.11.83-1.45,17.53,10.12a2.44,2.44,0,0,0,4.07-2.35v-4.23a4.06,4.06,0,0,1,6.58-3.8l3.66,2.11-.83,1.45-3.66-2.12a2.45,2.45,0,0,0-4.08,2.35v4.23a4.53,4.53,0,0,1-2,4.18A3.66,3.66,0,0,1,1017.82,507.11Z" transform="translate(-34.38 -49.43)"/><path id="Pfad_1435" data-name="Pfad 1435" class="cls-6" d="M1011,511a5.65,5.65,0,0,1-2.8-.84l-17.53-10.12.83-1.45L1009,508.74a2.44,2.44,0,0,0,4.07-2.35v-4.23a4.06,4.06,0,0,1,6.58-3.8l3.66,2.12-.83,1.44-3.66-2.11a2.44,2.44,0,0,0-3.45,0,2.48,2.48,0,0,0-.63,2.33v4.23a4.5,4.5,0,0,1-2,4.17A3.56,3.56,0,0,1,1011,511Z" transform="translate(-34.38 -49.43)"/><path id="Pfad_1436" data-name="Pfad 1436" class="cls-6" d="M1004.18,515a5.77,5.77,0,0,1-2.8-.85L983.85,504l.83-1.45,17.53,10.13a2.44,2.44,0,0,0,4.07-2.36v-4.22a4.06,4.06,0,0,1,6.58-3.8l3.66,2.11-.83,1.45-3.67-2.12a2.44,2.44,0,0,0-4.07,2.36v4.22a4.52,4.52,0,0,1-2,4.17A3.57,3.57,0,0,1,1004.18,515Z" transform="translate(-34.38 -49.43)"/><path id="Pfad_1437" data-name="Pfad 1437" class="cls-6" d="M997.36,518.88a5.67,5.67,0,0,1-2.8-.85L977,507.91l.83-1.45,17.53,10.13a2.45,2.45,0,0,0,4.08-2.35V510a4.05,4.05,0,0,1,6.57-3.8l3.67,2.11-.84,1.45-3.66-2.12a2.44,2.44,0,0,0-4.07,2.35v4.23a4.53,4.53,0,0,1-2,4.17A3.57,3.57,0,0,1,997.36,518.88Z" transform="translate(-34.38 -49.43)"/><path id="Pfad_1438" data-name="Pfad 1438" class="cls-6" d="M990.54,522.8a5.69,5.69,0,0,1-2.8-.84l-17.53-10.13.84-1.44,17.53,10.12a2.44,2.44,0,0,0,4.07-2.35v-4.23a4.06,4.06,0,0,1,6.58-3.8l3.66,2.11-.83,1.45-3.67-2.12a2.44,2.44,0,0,0-4.07,2.35v4.23a4.53,4.53,0,0,1-2,4.17A3.54,3.54,0,0,1,990.54,522.8Z" transform="translate(-34.38 -49.43)"/><path id="Pfad_1439" data-name="Pfad 1439" class="cls-6" d="M983.72,526.72a5.62,5.62,0,0,1-2.79-.84L963.4,515.76l.83-1.45,17.53,10.12a2.44,2.44,0,0,0,4.07-2.35v-4.23a4.07,4.07,0,0,1,6.58-3.8l3.66,2.12-.83,1.45-3.66-2.12a2.44,2.44,0,0,0-4.07,2.36v4.22a4.53,4.53,0,0,1-2,4.17A3.5,3.5,0,0,1,983.72,526.72Z" transform="translate(-34.38 -49.43)"/><path id="Pfad_1440" data-name="Pfad 1440" class="cls-6" d="M976.91,530.64a5.62,5.62,0,0,1-2.8-.84l-17.53-10.12.83-1.45,17.53,10.12A2.44,2.44,0,0,0,979,526v-4.23a4.06,4.06,0,0,1,6.58-3.8l3.66,2.11-.83,1.45-3.67-2.11a2.44,2.44,0,0,0-4.07,2.35V526a4.55,4.55,0,0,1-2,4.17A3.5,3.5,0,0,1,976.91,530.64Z" transform="translate(-34.38 -49.43)"/><path id="Pfad_1441" data-name="Pfad 1441" class="cls-6" d="M970.09,534.56a5.65,5.65,0,0,1-2.8-.84L949.76,523.6l.83-1.45,17.53,10.13a2.44,2.44,0,0,0,4.07-2.36v-4.23a4.06,4.06,0,0,1,6.58-3.8l3.66,2.12-.83,1.44-3.66-2.11a2.44,2.44,0,0,0-4.07,2.35v4.23a4.55,4.55,0,0,1-2,4.17A3.56,3.56,0,0,1,970.09,534.56Z" transform="translate(-34.38 -49.43)"/><path id="Pfad_1442" data-name="Pfad 1442" class="cls-6" d="M963.27,538.49a5.67,5.67,0,0,1-2.8-.85l-17.53-10.12.83-1.44L961.3,536.2a2.45,2.45,0,0,0,4.08-2.35v-4.23a4.06,4.06,0,0,1,6.57-3.8l3.67,2.12-.84,1.44-3.66-2.11a2.44,2.44,0,0,0-4.07,2.35v4.23a4.54,4.54,0,0,1-2,4.17A3.66,3.66,0,0,1,963.27,538.49Z" transform="translate(-34.38 -49.43)"/><path id="Pfad_1443" data-name="Pfad 1443" class="cls-6" d="M956.45,542.41a5.57,5.57,0,0,1-2.8-.85l-17.53-10.12L937,530l17.53,10.12a2.45,2.45,0,0,0,4.08-2.35v-4.23a4.05,4.05,0,0,1,6.57-3.8l3.66,2.11L968,533.3l-3.66-2.12a2.44,2.44,0,0,0-4.07,2.36v4.22a4.53,4.53,0,0,1-2,4.17A3.57,3.57,0,0,1,956.45,542.41Z" transform="translate(-34.38 -49.43)"/><path id="Pfad_1444" data-name="Pfad 1444" class="cls-6" d="M949.63,546.33a5.65,5.65,0,0,1-2.8-.84L929.3,535.37l.84-1.45L947.67,544a2.44,2.44,0,0,0,4.07-2.35v-4.23a4.06,4.06,0,0,1,6.58-3.8l3.66,2.12-.83,1.44-3.66-2.11a2.44,2.44,0,0,0-4.08,2.35v4.23a4.54,4.54,0,0,1-2,4.17A3.6,3.6,0,0,1,949.63,546.33Z" transform="translate(-34.38 -49.43)"/><path id="Pfad_1445" data-name="Pfad 1445" class="cls-6" d="M942.81,550.25a5.65,5.65,0,0,1-2.8-.84l-17.53-10.12.84-1.45L940.85,548a2.44,2.44,0,0,0,4.07-2.35v-4.22a4.06,4.06,0,0,1,6.58-3.8l3.66,2.11-.84,1.45L950.66,539a2.44,2.44,0,0,0-4.07,2.36v4.22a4.55,4.55,0,0,1-2,4.18A3.59,3.59,0,0,1,942.81,550.25Z" transform="translate(-34.38 -49.43)"/><path id="Pfad_1446" data-name="Pfad 1446" class="cls-6" d="M936,554.18a5.54,5.54,0,0,1-2.8-.85l-17.53-10.12.83-1.44L934,551.89a2.44,2.44,0,0,0,4.07-2.35V545.3a4.06,4.06,0,0,1,6.58-3.8l3.66,2.12-.83,1.44L943.85,543a2.45,2.45,0,0,0-4.08,2.35v4.23a4.52,4.52,0,0,1-2,4.17A3.57,3.57,0,0,1,936,554.18Z" transform="translate(-34.38 -49.43)"/><path id="Pfad_1447" data-name="Pfad 1447" class="cls-6" d="M929.18,558.1a5.65,5.65,0,0,1-2.8-.84l-17.53-10.13.83-1.44,17.53,10.12a2.44,2.44,0,0,0,4.07-2.35v-4.23a4.06,4.06,0,0,1,6.58-3.8l3.66,2.11-.83,1.45L937,546.87a2.44,2.44,0,0,0-4.07,2.36v4.22a4.53,4.53,0,0,1-2,4.17A3.57,3.57,0,0,1,929.18,558.1Z" transform="translate(-34.38 -49.43)"/><path id="Pfad_1448" data-name="Pfad 1448" class="cls-6" d="M922.36,562a5.65,5.65,0,0,1-2.8-.84L902,551.06l.83-1.45,17.53,10.12a2.45,2.45,0,0,0,4.08-2.35v-4.23a4.06,4.06,0,0,1,6.57-3.8l3.66,2.12-.83,1.45-3.66-2.12a2.44,2.44,0,0,0-4.07,2.36v4.22a4.53,4.53,0,0,1-2,4.17A3.46,3.46,0,0,1,922.36,562Z" transform="translate(-34.38 -49.43)"/><path id="Pfad_1449" data-name="Pfad 1449" class="cls-6" d="M915.54,565.94a5.65,5.65,0,0,1-2.8-.84L895.21,555l.83-1.45,17.53,10.12a2.43,2.43,0,0,0,3.45,0,2.45,2.45,0,0,0,.63-2.32v-4.23a4.06,4.06,0,0,1,6.58-3.8l3.66,2.12-.84,1.44-3.66-2.11a2.44,2.44,0,0,0-4.07,2.35v4.23a4.54,4.54,0,0,1-2,4.17A3.56,3.56,0,0,1,915.54,565.94Z" transform="translate(-34.38 -49.43)"/><path id="Pfad_1450" data-name="Pfad 1450" class="cls-6" d="M908.72,569.86a5.69,5.69,0,0,1-2.8-.84L888.39,558.9l.84-1.45,17.53,10.13a2.44,2.44,0,0,0,4.07-2.36V561a4.06,4.06,0,0,1,6.58-3.8l3.66,2.12-.84,1.44-3.66-2.11A2.44,2.44,0,0,0,912.5,561v4.23a4.53,4.53,0,0,1-2,4.17A3.46,3.46,0,0,1,908.72,569.86Z" transform="translate(-34.38 -49.43)"/></g><g id="Gruppe_501" data-name="Gruppe 501"><path id="Pfad_1451" data-name="Pfad 1451" class="cls-6" d="M1066.21,495.66a3.5,3.5,0,0,1-1.81-.47,4.5,4.5,0,0,1-2-4.17v-4.23a2.45,2.45,0,0,0-4.08-2.35l-3.66,2.12-.84-1.45,3.67-2.11a4.06,4.06,0,0,1,6.58,3.8V491a2.44,2.44,0,0,0,4.07,2.35l17.53-10.11.83,1.44L1069,494.82A5.62,5.62,0,0,1,1066.21,495.66Z" transform="translate(-34.38 -49.43)"/><path id="Pfad_1452" data-name="Pfad 1452" class="cls-6" d="M1073,499.58a3.46,3.46,0,0,1-1.8-.47,4.52,4.52,0,0,1-2-4.17v-4.23a2.44,2.44,0,0,0-1.75-3,2.47,2.47,0,0,0-2.33.62l-3.66,2.12-.83-1.45,3.66-2.11a4.06,4.06,0,0,1,6.58,3.8v4.22a2.44,2.44,0,0,0,4.07,2.36l17.53-10.12.83,1.44-17.53,10.12A5.65,5.65,0,0,1,1073,499.58Z" transform="translate(-34.38 -49.43)"/><path id="Pfad_1453" data-name="Pfad 1453" class="cls-6" d="M1079.84,503.51a3.66,3.66,0,0,1-1.8-.47,4.55,4.55,0,0,1-2-4.17v-4.23a2.44,2.44,0,0,0-4.07-2.35l-3.66,2.11-.84-1.44,3.67-2.12a4.05,4.05,0,0,1,6.57,3.8v4.23a2.45,2.45,0,0,0,4.08,2.35l17.53-10.12.83,1.44-17.53,10.12A5.57,5.57,0,0,1,1079.84,503.51Z" transform="translate(-34.38 -49.43)"/><path id="Pfad_1454" data-name="Pfad 1454" class="cls-6" d="M1086.66,507.43a3.56,3.56,0,0,1-1.8-.47,4.54,4.54,0,0,1-2-4.17v-4.23a2.44,2.44,0,0,0-4.07-2.35l-3.66,2.11-.83-1.44,3.66-2.12a4.07,4.07,0,0,1,6.58,3.8v4.23a2.44,2.44,0,0,0,4.07,2.35L1106.16,495l.83,1.45-17.53,10.12A5.65,5.65,0,0,1,1086.66,507.43Z" transform="translate(-34.38 -49.43)"/><path id="Pfad_1455" data-name="Pfad 1455" class="cls-6" d="M1093.48,511.35a3.46,3.46,0,0,1-1.8-.47,4.53,4.53,0,0,1-2-4.17v-4.23a2.44,2.44,0,0,0-4.07-2.35l-3.66,2.12-.84-1.45,3.67-2.11a4.05,4.05,0,0,1,6.57,3.8v4.23a2.44,2.44,0,0,0,4.07,2.35L1113,499l.83,1.44-17.53,10.12A5.62,5.62,0,0,1,1093.48,511.35Z" transform="translate(-34.38 -49.43)"/><path id="Pfad_1456" data-name="Pfad 1456" class="cls-6" d="M1100.3,515.27a3.52,3.52,0,0,1-1.8-.46,4.56,4.56,0,0,1-2-4.18v-4.22a2.44,2.44,0,0,0-4.07-2.35l-3.66,2.11-.84-1.45,3.66-2.11a4.06,4.06,0,0,1,6.58,3.8v4.23a2.44,2.44,0,0,0,4.07,2.35l17.53-10.12.84,1.44-17.53,10.13A5.57,5.57,0,0,1,1100.3,515.27Z" transform="translate(-34.38 -49.43)"/><path id="Pfad_1457" data-name="Pfad 1457" class="cls-6" d="M1107.12,519.2a3.61,3.61,0,0,1-1.8-.47,4.53,4.53,0,0,1-2-4.18v-4.22a3,3,0,0,0-1.14-2.73,3,3,0,0,0-2.93.38l-3.66,2.11-.84-1.44,3.66-2.12a4.06,4.06,0,0,1,6.58,3.8v4.23a2.44,2.44,0,0,0,4.07,2.35l17.53-10.12.84,1.44-17.53,10.13A5.69,5.69,0,0,1,1107.12,519.2Z" transform="translate(-34.38 -49.43)"/><path id="Pfad_1458" data-name="Pfad 1458" class="cls-6" d="M1113.93,523.12a3.66,3.66,0,0,1-1.8-.47,4.52,4.52,0,0,1-2-4.17v-4.23a2.45,2.45,0,0,0-1.75-3,2.43,2.43,0,0,0-2.32.63l-3.67,2.11-.83-1.45,3.66-2.11a4.06,4.06,0,0,1,6.58,3.8v4.23a2.44,2.44,0,0,0,4.07,2.35l17.53-10.12.84,1.45-17.53,10.12A5.69,5.69,0,0,1,1113.93,523.12Z" transform="translate(-34.38 -49.43)"/><path id="Pfad_1459" data-name="Pfad 1459" class="cls-6" d="M1120.75,527a3.56,3.56,0,0,1-1.8-.47,4.54,4.54,0,0,1-2-4.17v-4.23a2.44,2.44,0,0,0-4.07-2.35l-3.66,2.11-.83-1.44,3.66-2.11a4.05,4.05,0,0,1,6.57,3.8v4.23a2.44,2.44,0,0,0,4.08,2.35l17.53-10.13.83,1.45-17.53,10.12A5.65,5.65,0,0,1,1120.75,527Z" transform="translate(-34.38 -49.43)"/><path id="Pfad_1460" data-name="Pfad 1460" class="cls-6" d="M1127.57,531a3.46,3.46,0,0,1-1.8-.47,4.53,4.53,0,0,1-2-4.17v-4.23a2.44,2.44,0,0,0-4.07-2.35l-3.66,2.12-.84-1.45,3.66-2.11a4.06,4.06,0,0,1,6.58,3.8v4.22a2.45,2.45,0,0,0,1.75,3,2.48,2.48,0,0,0,2.33-.63l17.52-10.11.84,1.44-17.53,10.12A5.65,5.65,0,0,1,1127.57,531Z" transform="translate(-34.38 -49.43)"/><path id="Pfad_1461" data-name="Pfad 1461" class="cls-6" d="M1134.39,534.89a3.66,3.66,0,0,1-1.8-.47,4.55,4.55,0,0,1-2-4.17V526a2.44,2.44,0,0,0-4.07-2.35l-3.66,2.11-.84-1.45,3.67-2.11a4.05,4.05,0,0,1,6.57,3.8v4.23a2.44,2.44,0,0,0,4.08,2.35l17.53-10.12.83,1.45-17.53,10.12A5.65,5.65,0,0,1,1134.39,534.89Z" transform="translate(-34.38 -49.43)"/><path id="Pfad_1462" data-name="Pfad 1462" class="cls-6" d="M1141.21,538.81a3.64,3.64,0,0,1-1.8-.47,4.55,4.55,0,0,1-2-4.17v-4.23a2.44,2.44,0,0,0-4.07-2.35l-3.66,2.11-.84-1.44,3.66-2.12a4.06,4.06,0,0,1,6.58,3.8v4.23a2.45,2.45,0,0,0,4.08,2.35l17.53-10.12.83,1.45L1144,538A5.69,5.69,0,0,1,1141.21,538.81Z" transform="translate(-34.38 -49.43)"/><path id="Pfad_1463" data-name="Pfad 1463" class="cls-6" d="M1148,542.73a3.47,3.47,0,0,1-1.81-.47,4.53,4.53,0,0,1-2-4.17v-4.22a2.44,2.44,0,0,0-4.07-2.36l-3.66,2.12-.84-1.45,3.66-2.11a4.06,4.06,0,0,1,6.58,3.8v4.22a2.44,2.44,0,0,0,4.08,2.35l17.53-10.11.83,1.44-17.53,10.12A5.62,5.62,0,0,1,1148,542.73Z" transform="translate(-34.38 -49.43)"/><path id="Pfad_1464" data-name="Pfad 1464" class="cls-6" d="M1154.84,546.65a3.46,3.46,0,0,1-1.8-.47,4.5,4.5,0,0,1-2-4.17v-4.23a2.45,2.45,0,0,0-4.08-2.35l-3.66,2.11-.83-1.44,3.66-2.11a4.06,4.06,0,0,1,6.58,3.8V542a2.44,2.44,0,0,0,4.07,2.36l17.53-10.13.84,1.45-17.53,10.12A5.69,5.69,0,0,1,1154.84,546.65Z" transform="translate(-34.38 -49.43)"/><path id="Pfad_1465" data-name="Pfad 1465" class="cls-6" d="M1161.66,550.57a3.46,3.46,0,0,1-1.8-.47,4.53,4.53,0,0,1-2-4.17v-4.22a2.44,2.44,0,0,0-4.07-2.36l-3.66,2.12-.84-1.45,3.67-2.11a4.06,4.06,0,0,1,6.58,3.8v4.23a2.44,2.44,0,0,0,4.07,2.35l17.53-10.12.83,1.44-17.53,10.13A5.64,5.64,0,0,1,1161.66,550.57Z" transform="translate(-34.38 -49.43)"/><path id="Pfad_1466" data-name="Pfad 1466" class="cls-6" d="M1168.48,554.49a3.55,3.55,0,0,1-1.8-.46,4.56,4.56,0,0,1-2-4.18v-4.22a2.44,2.44,0,0,0-4.07-2.35l-3.66,2.11-.84-1.44,3.66-2.12a4.06,4.06,0,0,1,6.58,3.8v4.23a2.44,2.44,0,0,0,4.08,2.35L1188,542.09l.83,1.44-17.53,10.12A5.55,5.55,0,0,1,1168.48,554.49Z" transform="translate(-34.38 -49.43)"/><path id="Pfad_1467" data-name="Pfad 1467" class="cls-6" d="M1175.3,558.42a3.66,3.66,0,0,1-1.8-.47,4.54,4.54,0,0,1-2-4.17v-4.23a2.44,2.44,0,0,0-4.07-2.35l-3.66,2.11-.84-1.44,3.66-2.12a4.06,4.06,0,0,1,6.58,3.8v4.23a2.44,2.44,0,0,0,4.08,2.35L1194.8,546l.83,1.45-17.53,10.12A5.65,5.65,0,0,1,1175.3,558.42Z" transform="translate(-34.38 -49.43)"/><path id="Pfad_1468" data-name="Pfad 1468" class="cls-6" d="M1182.12,562.34a3.53,3.53,0,0,1-1.8-.47,4.54,4.54,0,0,1-2-4.17v-4.23a2.44,2.44,0,0,0-4.07-2.35l-3.67,2.11-.83-1.44,3.66-2.11a4.05,4.05,0,0,1,6.58,3.8v4.22a2.44,2.44,0,0,0,4.08,2.35l17.53-10.11.83,1.44-17.53,10.12A5.69,5.69,0,0,1,1182.12,562.34Z" transform="translate(-34.38 -49.43)"/><path id="Pfad_1469" data-name="Pfad 1469" class="cls-6" d="M1188.93,566.26a3.46,3.46,0,0,1-1.8-.47,4.5,4.5,0,0,1-2-4.17v-4.23a2.44,2.44,0,0,0-4.08-2.35l-3.66,2.12-.83-1.45,3.65-2.11a4.07,4.07,0,0,1,6.59,3.8v4.22a2.44,2.44,0,0,0,4.07,2.35l17.53-10.12.83,1.45-17.53,10.12A5.62,5.62,0,0,1,1188.93,566.26Z" transform="translate(-34.38 -49.43)"/><path id="Pfad_1470" data-name="Pfad 1470" class="cls-6" d="M1195.75,570.19a3.66,3.66,0,0,1-1.8-.47,4.56,4.56,0,0,1-2-4.18v-4.22a2.44,2.44,0,0,0-4.07-2.35l-3.66,2.11-.83-1.45,3.66-2.11a4.06,4.06,0,0,1,6.58,3.8v4.23a2.43,2.43,0,0,0,1.74,3,2.47,2.47,0,0,0,2.33-.62l17.53-10.12.83,1.44-17.53,10.12A5.67,5.67,0,0,1,1195.75,570.19Z" transform="translate(-34.38 -49.43)"/></g><g id="Gruppe_506" data-name="Gruppe 506"><g id="Gruppe_502" data-name="Gruppe 502"><path id="Pfad_1471" data-name="Pfad 1471" class="cls-7" d="M1052.3,672.91,917.59,595.14l134.7-77.77L1187,595.14Z" transform="translate(-34.38 -49.43)"/><path id="Pfad_1472" data-name="Pfad 1472" class="cls-8" d="M1187,561.87v15.57l-134.7,77.77L917.59,577.44V561.87Z" transform="translate(-34.38 -49.43)"/><path id="Pfad_1473" data-name="Pfad 1473" class="cls-9" d="M1052.3,639.65,917.59,561.87l134.7-77.77L1187,561.87Z" transform="translate(-34.38 -49.43)"/><path id="Pfad_1474" data-name="Pfad 1474" class="cls-10" d="M1052.3,637.83,919.16,561l-1.57.91,134.71,77.78L1187,561.87l-1.57-.91Z" transform="translate(-34.38 -49.43)"/></g><g id="Gruppe_505" data-name="Gruppe 505"><path id="Pfad_1475" data-name="Pfad 1475" class="cls-11" d="M1052.3,621.71,948.69,561.89l103.6-59.82,103.61,59.82Z" transform="translate(-34.38 -49.43)"/><g id="Gruppe_504" data-name="Gruppe 504"><path id="Pfad_1476" data-name="Pfad 1476" class="cls-12" d="M1052.3,621.71,948.68,561.89l103.61-59.82,103.61,59.82Z" transform="translate(-34.38 -49.43)"/><g id="Gruppe_503" data-name="Gruppe 503"><path id="Pfad_1477" data-name="Pfad 1477" class="cls-13" d="M1052.29,487l103.61,59.82v15.08l-103.61-59.82Z" transform="translate(-34.38 -49.43)"/><path id="Pfad_1478" data-name="Pfad 1478" class="cls-14" d="M1052.3,502.07,948.68,561.89V546.81L1052.29,487Z" transform="translate(-34.38 -49.43)"/><path id="Pfad_1479" data-name="Pfad 1479" class="cls-15" d="M1052.3,606.63,948.68,546.81,1052.29,487l103.61,59.82Z" transform="translate(-34.38 -49.43)"/><path id="Pfad_1480" data-name="Pfad 1480" class="cls-16" d="M1052.29,570.71l-41.4-23.9,41.4-23.9,41.4,23.9Z" transform="translate(-34.38 -49.43)"/><path id="Pfad_1481" data-name="Pfad 1481" class="cls-16" d="M1052.29,525.1l39.5,22.8,1.9-1.1-41.4-23.9-41.4,23.9,1.9,1.1Z" transform="translate(-34.38 -49.43)"/><path id="Pfad_1482" data-name="Pfad 1482" class="cls-17" d="M1052.3,606.63v15.08l103.6-59.82V546.81Z" transform="translate(-34.38 -49.43)"/></g><path id="Pfad_1483" data-name="Pfad 1483" class="cls-18" d="M948.68,546.81v15.08l103.62,59.82V606.63Z" transform="translate(-34.38 -49.43)"/></g><path id="Pfad_1484" data-name="Pfad 1484" class="cls-19" d="M1052.3,605,950.11,546l-1.43.83,103.62,59.81,103.6-59.81-1.42-.83Z" transform="translate(-34.38 -49.43)"/></g></g><g id="Gruppe_507" data-name="Gruppe 507"><path id="Pfad_1485" data-name="Pfad 1485" class="cls-6" d="M1085.7,674l-17.53-10.12a12.51,12.51,0,0,1-5.74-9.94V649.7a10.86,10.86,0,0,0-4.91-8.5l-3.66-2.12.83-1.44,3.67,2.11a12.53,12.53,0,0,1,5.74,10v4.22a11,11,0,0,0,4.9,8.5l17.53,10.13Z" transform="translate(-34.38 -49.43)"/><path id="Pfad_1486" data-name="Pfad 1486" class="cls-6" d="M1092.52,670.07,1075,659.94a12.49,12.49,0,0,1-5.75-9.94v-4.23a10.87,10.87,0,0,0-4.9-8.5l-3.66-2.11.83-1.45,3.66,2.11a12.56,12.56,0,0,1,5.75,9.95V650a11,11,0,0,0,4.9,8.5l17.53,10.12Z" transform="translate(-34.38 -49.43)"/><path id="Pfad_1487" data-name="Pfad 1487" class="cls-6" d="M1099.34,666.14,1081.81,656a12.51,12.51,0,0,1-5.75-9.95v-4.23a11.06,11.06,0,0,0-4.9-8.5l-3.67-2.11.84-1.45,3.66,2.11a12.53,12.53,0,0,1,5.74,10v4.23a11,11,0,0,0,4.91,8.5l17.53,10.12Z" transform="translate(-34.38 -49.43)"/><path id="Pfad_1488" data-name="Pfad 1488" class="cls-6" d="M1106.15,662.2l-17.53-10.12a12.51,12.51,0,0,1-5.74-9.94v-4.23a11,11,0,0,0-4.9-8.5l-3.66-2.11.83-1.45,3.66,2.11a12.56,12.56,0,0,1,5.75,9.95v4.23a11,11,0,0,0,4.9,8.5L1107,660.76Z" transform="translate(-34.38 -49.43)"/><path id="Pfad_1489" data-name="Pfad 1489" class="cls-6" d="M1113,658.28l-17.53-10.12a12.53,12.53,0,0,1-5.74-9.95V634a11,11,0,0,0-4.9-8.5l-3.67-2.12.84-1.45,3.66,2.12a12.51,12.51,0,0,1,5.74,9.94v4.23a10.87,10.87,0,0,0,4.9,8.5l17.53,10.12Z" transform="translate(-34.38 -49.43)"/><path id="Pfad_1490" data-name="Pfad 1490" class="cls-6" d="M1119.79,654.35l-17.53-10.12a12.53,12.53,0,0,1-5.74-10v-4.22a11,11,0,0,0-4.91-8.5l-3.66-2.12.84-1.45,3.66,2.12a12.51,12.51,0,0,1,5.74,9.94v4.23a11,11,0,0,0,4.91,8.5l17.52,10.12Z" transform="translate(-34.38 -49.43)"/><path id="Pfad_1491" data-name="Pfad 1491" class="cls-6" d="M1126.61,650.42l-17.53-10.12a12.53,12.53,0,0,1-5.74-9.95v-4.22a10.9,10.9,0,0,0-4.91-8.5l-3.66-2.12.83-1.44,3.66,2.11a12.51,12.51,0,0,1,5.75,10v4.23a11,11,0,0,0,4.9,8.5L1127.45,649Z" transform="translate(-34.38 -49.43)"/><path id="Pfad_1492" data-name="Pfad 1492" class="cls-6" d="M1133.43,646.49l-17.53-10.12a12.54,12.54,0,0,1-5.75-10V622.2a11,11,0,0,0-4.9-8.5l-3.66-2.12.83-1.44,3.67,2.11a12.53,12.53,0,0,1,5.74,10v4.22a10.84,10.84,0,0,0,4.91,8.5l17.53,10.13Z" transform="translate(-34.38 -49.43)"/><path id="Pfad_1493" data-name="Pfad 1493" class="cls-6" d="M1140.25,642.56l-17.53-10.12a12.49,12.49,0,0,1-5.75-9.94v-4.23a11,11,0,0,0-4.9-8.5l-3.67-2.11.84-1.45,3.66,2.11a12.53,12.53,0,0,1,5.74,9.95v4.23a10.86,10.86,0,0,0,4.91,8.5l17.53,10.12Z" transform="translate(-34.38 -49.43)"/><path id="Pfad_1494" data-name="Pfad 1494" class="cls-6" d="M1147.07,638.63l-17.53-10.12a12.49,12.49,0,0,1-5.75-10v-4.22a11,11,0,0,0-4.91-8.5l-3.66-2.12.84-1.44,3.66,2.11a12.53,12.53,0,0,1,5.74,10v4.23a10.9,10.9,0,0,0,4.91,8.5l17.53,10.12Z" transform="translate(-34.38 -49.43)"/><path id="Pfad_1495" data-name="Pfad 1495" class="cls-6" d="M1153.88,634.7l-17.53-10.12a12.51,12.51,0,0,1-5.74-10v-4.22a11,11,0,0,0-4.91-8.5l-3.66-2.12.84-1.44,3.66,2.11a12.53,12.53,0,0,1,5.74,9.95v4.22a11,11,0,0,0,4.91,8.5l17.53,10.13Z" transform="translate(-34.38 -49.43)"/><path id="Pfad_1496" data-name="Pfad 1496" class="cls-6" d="M1160.7,630.77l-17.53-10.12a12.56,12.56,0,0,1-5.75-9.95v-4.22a10.85,10.85,0,0,0-4.9-8.5l-3.66-2.12.84-1.44,3.66,2.11a12.53,12.53,0,0,1,5.74,10v4.23a11,11,0,0,0,4.91,8.5l17.53,10.12Z" transform="translate(-34.38 -49.43)"/><path id="Pfad_1497" data-name="Pfad 1497" class="cls-6" d="M1167.52,626.85,1150,616.72a12.54,12.54,0,0,1-5.75-9.94v-4.23a11,11,0,0,0-4.9-8.5l-3.66-2.11.83-1.45,3.66,2.12a12.49,12.49,0,0,1,5.74,9.94v4.23a11.07,11.07,0,0,0,4.91,8.5l17.53,10.12Z" transform="translate(-34.38 -49.43)"/><path id="Pfad_1498" data-name="Pfad 1498" class="cls-6" d="M1174.34,622.92l-17.53-10.12a12.54,12.54,0,0,1-5.75-9.95v-4.23a11,11,0,0,0-4.9-8.5L1142.5,588l.83-1.45,3.66,2.12a12.53,12.53,0,0,1,5.75,9.94v4.23a11,11,0,0,0,4.9,8.5l17.53,10.12Z" transform="translate(-34.38 -49.43)"/><path id="Pfad_1499" data-name="Pfad 1499" class="cls-6" d="M1181.16,619l-17.53-10.12a12.51,12.51,0,0,1-5.75-10v-4.23a11,11,0,0,0-4.91-8.5l-3.66-2.11.84-1.44,3.66,2.11a12.54,12.54,0,0,1,5.75,9.94v4.23a11,11,0,0,0,4.9,8.5L1182,617.54Z" transform="translate(-34.38 -49.43)"/><path id="Pfad_1500" data-name="Pfad 1500" class="cls-6" d="M1188,615.06l-17.53-10.12a12.53,12.53,0,0,1-5.74-10v-4.22a11,11,0,0,0-4.91-8.5l-3.66-2.12.84-1.45,3.66,2.12a12.51,12.51,0,0,1,5.74,9.94V595a10.87,10.87,0,0,0,4.9,8.5l17.53,10.12Z" transform="translate(-34.38 -49.43)"/><path id="Pfad_1501" data-name="Pfad 1501" class="cls-6" d="M1194.79,611.13,1177.26,601a12.53,12.53,0,0,1-5.74-10v-4.23a10.87,10.87,0,0,0-4.91-8.5l-3.66-2.11.83-1.44,3.66,2.11a12.51,12.51,0,0,1,5.75,10v4.22a11,11,0,0,0,4.91,8.5l17.53,10.13Z" transform="translate(-34.38 -49.43)"/><path id="Pfad_1502" data-name="Pfad 1502" class="cls-6" d="M1201.61,607.2l-17.53-10.12a12.53,12.53,0,0,1-5.74-10V582.9a11.07,11.07,0,0,0-4.91-8.5l-3.66-2.11.83-1.44,3.66,2.11a12.51,12.51,0,0,1,5.75,9.95v4.23a11,11,0,0,0,4.91,8.5l17.52,10.12Z" transform="translate(-34.38 -49.43)"/><path id="Pfad_1503" data-name="Pfad 1503" class="cls-6" d="M1208.43,603.27l-17.53-10.12a12.56,12.56,0,0,1-5.75-9.95V579a10.86,10.86,0,0,0-4.9-8.5l-3.66-2.12.83-1.44,3.66,2.11a12.56,12.56,0,0,1,5.75,10v4.23a11,11,0,0,0,4.9,8.5l17.53,10.12Z" transform="translate(-34.38 -49.43)"/><path id="Pfad_1504" data-name="Pfad 1504" class="cls-6" d="M1215.25,599.34l-17.53-10.12a12.49,12.49,0,0,1-5.75-10v-4.22a11,11,0,0,0-4.9-8.5l-3.66-2.11.83-1.45,3.67,2.11a12.53,12.53,0,0,1,5.74,9.95v4.23a11.08,11.08,0,0,0,4.9,8.5l17.53,10.11Z" transform="translate(-34.38 -49.43)"/></g><g id="Gruppe_508" data-name="Gruppe 508"><path id="Pfad_1505" data-name="Pfad 1505" class="cls-6" d="M1018.42,674l-.84-1.44,17.53-10.12a11,11,0,0,0,4.91-8.5V649.7a12.53,12.53,0,0,1,5.74-10l3.66-2.11.84,1.45-3.66,2.11a11,11,0,0,0-4.91,8.5v4.23a12.51,12.51,0,0,1-5.75,10Z" transform="translate(-34.38 -49.43)"/><path id="Pfad_1506" data-name="Pfad 1506" class="cls-6" d="M1011.59,670.07l-.83-1.45,17.53-10.12a11.07,11.07,0,0,0,4.91-8.5v-4.23a12.53,12.53,0,0,1,5.74-9.95l3.66-2.11.83,1.45-3.66,2.11a10.87,10.87,0,0,0-4.9,8.5V650a12.54,12.54,0,0,1-5.75,10Z" transform="translate(-34.38 -49.43)"/><path id="Pfad_1507" data-name="Pfad 1507" class="cls-6" d="M1004.78,666.14l-.84-1.45,17.53-10.12a11,11,0,0,0,4.91-8.5v-4.23a12.51,12.51,0,0,1,5.75-10l3.66-2.11.83,1.45-3.66,2.11a11,11,0,0,0-4.9,8.5v4.23a12.52,12.52,0,0,1-5.75,9.94Z" transform="translate(-34.38 -49.43)"/><path id="Pfad_1508" data-name="Pfad 1508" class="cls-6" d="M998,662.21l-.84-1.45,17.53-10.12a11,11,0,0,0,4.9-8.5v-4.23a12.54,12.54,0,0,1,5.75-9.95l3.66-2.11.83,1.45-3.66,2.11a11.05,11.05,0,0,0-4.91,8.5v4.23a12.51,12.51,0,0,1-5.74,9.94Z" transform="translate(-34.38 -49.43)"/><path id="Pfad_1509" data-name="Pfad 1509" class="cls-6" d="M991.14,658.28l-.84-1.45,17.53-10.12a10.84,10.84,0,0,0,4.91-8.5V634a12.49,12.49,0,0,1,5.75-10l3.66-2.12.83,1.45-3.66,2.12a11,11,0,0,0-4.91,8.5v4.22a12.53,12.53,0,0,1-5.74,9.95Z" transform="translate(-34.38 -49.43)"/><path id="Pfad_1510" data-name="Pfad 1510" class="cls-6" d="M984.32,654.35l-.83-1.45L1001,642.78a11,11,0,0,0,4.9-8.5v-4.22a12.51,12.51,0,0,1,5.75-9.95l3.66-2.12.84,1.45-3.67,2.11a11.07,11.07,0,0,0-4.91,8.5v4.23a12.49,12.49,0,0,1-5.74,9.94Z" transform="translate(-34.38 -49.43)"/><path id="Pfad_1511" data-name="Pfad 1511" class="cls-6" d="M977.5,650.42l-.83-1.44,17.53-10.13a11,11,0,0,0,4.9-8.5v-4.22a12.51,12.51,0,0,1,5.75-10l3.66-2.11.83,1.44-3.66,2.11a10.87,10.87,0,0,0-4.91,8.5v4.23A12.53,12.53,0,0,1,995,640.3Z" transform="translate(-34.38 -49.43)"/><path id="Pfad_1512" data-name="Pfad 1512" class="cls-6" d="M970.68,646.49l-.83-1.44,17.53-10.12a11.07,11.07,0,0,0,4.91-8.5V622.2a12.53,12.53,0,0,1,5.74-10l3.66-2.11.84,1.44-3.66,2.12a10.84,10.84,0,0,0-4.91,8.5v4.23a12.51,12.51,0,0,1-5.75,9.94Z" transform="translate(-34.38 -49.43)"/><path id="Pfad_1513" data-name="Pfad 1513" class="cls-6" d="M963.86,642.56l-.83-1.44L980.56,631a11,11,0,0,0,4.91-8.5v-4.23a12.53,12.53,0,0,1,5.74-9.95l3.66-2.12.84,1.45L992,609.76a11,11,0,0,0-4.9,8.5v4.23a12.51,12.51,0,0,1-5.75,10Z" transform="translate(-34.38 -49.43)"/><path id="Pfad_1514" data-name="Pfad 1514" class="cls-6" d="M957.05,638.63l-.84-1.44,17.53-10.12a10.86,10.86,0,0,0,4.91-8.5v-4.23a12.51,12.51,0,0,1,5.75-10l3.66-2.12.83,1.45-3.66,2.12a11,11,0,0,0-4.91,8.5v4.22a12.53,12.53,0,0,1-5.74,10Z" transform="translate(-34.38 -49.43)"/><path id="Pfad_1515" data-name="Pfad 1515" class="cls-6" d="M950.23,634.7l-.84-1.44,17.53-10.12a11,11,0,0,0,4.9-8.5v-4.23a12.54,12.54,0,0,1,5.75-9.95l3.66-2.11.83,1.44-3.66,2.12a11,11,0,0,0-4.9,8.5v4.23a12.54,12.54,0,0,1-5.74,10Z" transform="translate(-34.38 -49.43)"/><path id="Pfad_1516" data-name="Pfad 1516" class="cls-6" d="M943.41,630.78l-.83-1.45,17.53-10.12a11,11,0,0,0,4.9-8.5v-4.23a12.51,12.51,0,0,1,5.75-10l3.66-2.11.83,1.45L971.59,598a10.86,10.86,0,0,0-4.91,8.5v4.23a12.54,12.54,0,0,1-5.74,9.95Z" transform="translate(-34.38 -49.43)"/><path id="Pfad_1517" data-name="Pfad 1517" class="cls-6" d="M936.59,626.85l-.84-1.45,17.53-10.12a11,11,0,0,0,4.91-8.5v-4.23a12.53,12.53,0,0,1,5.74-9.95l3.67-2.11.83,1.45-3.66,2.11a11,11,0,0,0-4.91,8.5v4.23a12.51,12.51,0,0,1-5.74,9.94Z" transform="translate(-34.38 -49.43)"/><path id="Pfad_1518" data-name="Pfad 1518" class="cls-6" d="M929.77,622.92l-.83-1.45,17.53-10.12a11.05,11.05,0,0,0,4.91-8.5v-4.23a12.51,12.51,0,0,1,5.74-9.94l3.66-2.12.83,1.45L958,590.12a11.06,11.06,0,0,0-4.9,8.5v4.23a12.53,12.53,0,0,1-5.74,9.95Z" transform="translate(-34.38 -49.43)"/><path id="Pfad_1519" data-name="Pfad 1519" class="cls-6" d="M923,619l-.83-1.45,17.53-10.12a10.87,10.87,0,0,0,4.9-8.5v-4.23a12.51,12.51,0,0,1,5.75-10l3.66-2.11.83,1.45-3.66,2.11a11,11,0,0,0-4.9,8.5v4.23a12.48,12.48,0,0,1-5.75,9.94Z" transform="translate(-34.38 -49.43)"/><path id="Pfad_1520" data-name="Pfad 1520" class="cls-6" d="M916.14,615.06l-.84-1.45,17.53-10.12a10.84,10.84,0,0,0,4.91-8.5v-4.22a12.53,12.53,0,0,1,5.74-9.95l3.66-2.11.84,1.44-3.66,2.12a11,11,0,0,0-4.91,8.5V595a12.51,12.51,0,0,1-5.75,10Z" transform="translate(-34.38 -49.43)"/><path id="Pfad_1521" data-name="Pfad 1521" class="cls-6" d="M909.32,611.13l-.84-1.45L926,599.56a11,11,0,0,0,4.91-8.5v-4.22a12.53,12.53,0,0,1,5.74-10l3.66-2.12.84,1.45-3.66,2.11a10.86,10.86,0,0,0-4.91,8.5v4.23a12.51,12.51,0,0,1-5.75,10Z" transform="translate(-34.38 -49.43)"/><path id="Pfad_1522" data-name="Pfad 1522" class="cls-6" d="M902.5,607.2l-.83-1.44,17.53-10.13a11,11,0,0,0,4.9-8.5v-4.22a12.51,12.51,0,0,1,5.75-9.95l3.66-2.11.83,1.44-3.66,2.11a11,11,0,0,0-4.9,8.5v4.23a12.56,12.56,0,0,1-5.75,10Z" transform="translate(-34.38 -49.43)"/><path id="Pfad_1523" data-name="Pfad 1523" class="cls-6" d="M895.68,603.27l-.83-1.44,17.53-10.12a11,11,0,0,0,4.9-8.5V579A12.56,12.56,0,0,1,923,569l3.66-2.11.83,1.44-3.66,2.12A11,11,0,0,0,919,579v4.22a12.56,12.56,0,0,1-5.75,9.95Z" transform="translate(-34.38 -49.43)"/><path id="Pfad_1524" data-name="Pfad 1524" class="cls-6" d="M888.86,599.34,888,597.9l17.53-10.12a11.07,11.07,0,0,0,4.91-8.5v-4.23a12.53,12.53,0,0,1,5.74-9.95l3.66-2.11.83,1.44L917,566.55a11,11,0,0,0-4.9,8.5v4.23a12.52,12.52,0,0,1-5.75,9.94Z" transform="translate(-34.38 -49.43)"/></g></g><path id="Pfad_1525" data-name="Pfad 1525" class="cls-20" d="M1052.3,552.63,948.68,492.81V446.36l103.09,57.23,104.13-59.67v48.89Z" transform="translate(-34.38 -49.43)"/><path id="Pfad_1526" data-name="Pfad 1526" class="cls-21" d="M1155.9,455.66V443.94L1051.78,503.6l-103.1-57.22v9.72l96.9,55.92c3.43,2,9.44,1.75,13.41-.54Z" transform="translate(-34.38 -49.43)"/><g id="Gruppe_526" data-name="Gruppe 526"><g id="Gruppe_522" data-name="Gruppe 522"><g id="Gruppe_512" data-name="Gruppe 512"><g id="Gruppe_511" data-name="Gruppe 511"><path id="Pfad_1527" data-name="Pfad 1527" class="cls-22" d="M1059,558.53l100-57.6c2.2-1.26,3.3-2.88,3.29-4.42h0v-18l-3.43,3.06-2.94-1.71c.32-.37.54-.7.48-.8l-1.47-2.54-70.55-41.65L1062,421.77l-8.76-2.53-102.67,59,.3,2.37-2.74,1.58-4.4-2v17.95h0a3.92,3.92,0,0,0,2.3,3.44l99.6,57.48C1049,561.06,1055,560.82,1059,558.53Zm40.6-44.5-45.29,24.73-3.9-.19-75.63-42.31-20.95-10.83,98.69-56.84a3.39,3.39,0,0,1,3.07-.12l96,55.43Z" transform="translate(-34.38 -49.43)"/><path id="Pfad_1528" data-name="Pfad 1528" class="cls-23" d="M1059,558.53l100-57.6c2.2-1.26,3.3-2.88,3.29-4.42h0v-18l-3.43,3.06-2.94-1.71c.32-.37.54-.7.48-.8l-1.47-2.54-70.55-41.65L1062,421.77l-8.76-2.53-102.67,59,.3,2.37-2.74,1.58-4.4-2v17.95h0a3.92,3.92,0,0,0,2.3,3.44l99.6,57.48C1049,561.06,1055,560.82,1059,558.53Zm40.6-44.5-45.29,24.73-3.9-.19-75.63-42.31-20.95-10.83,98.69-56.84a3.39,3.39,0,0,1,3.07-.12l96,55.43Z" transform="translate(-34.38 -49.43)"/><path id="Pfad_1529" data-name="Pfad 1529" class="cls-24" d="M1051.77,560.41l0-21.76,2.51.12L1099.59,514l52-30.14-1.73-1c1.61-.93,10.73-3.47,12.4-4.43v18h0c0,1.53-1.09,3.16-3.28,4.42l-100,57.6A15.44,15.44,0,0,1,1051.77,560.41Z" transform="translate(-34.38 -49.43)"/><path id="Pfad_1530" data-name="Pfad 1530" class="cls-25" d="M1059,540.28l100-57.6c4-2.29,4.41-5.76,1-7.75l-99.59-57.48c-3.44-2-9.44-1.75-13.41.54l-100,57.6c-4,2.29-4.4,5.75-1,7.74l99.6,57.49C1049,542.8,1055,542.56,1059,540.28Zm-5.55-3.37a3.4,3.4,0,0,1-3.06.12l-97.83-56.46c-.78-.46-.68-1.25.23-1.77l99.73-57.44a3.37,3.37,0,0,1,3.06-.13l97.83,56.47c.79.45.69,1.24-.22,1.76Z" transform="translate(-34.38 -49.43)"/><path id="Pfad_1531" data-name="Pfad 1531" class="cls-26" d="M1059,540.28l100-57.6c4-2.29,4.41-5.76,1-7.75l-99.59-57.48c-3.44-2-9.44-1.75-13.41.54l-100,57.6c-4,2.29-4.4,5.75-1,7.74l99.6,57.49C1049,542.8,1055,542.56,1059,540.28Zm-5.55-3.37a3.4,3.4,0,0,1-3.06.12l-97.83-56.46c-.78-.46-.68-1.25.23-1.77l99.73-57.44a3.37,3.37,0,0,1,3.06-.13l97.83,56.47c.79.45.69,1.24-.22,1.76Z" transform="translate(-34.38 -49.43)"/><g id="Gruppe_510" data-name="Gruppe 510"><path id="Pfad_1532" data-name="Pfad 1532" class="cls-6" d="M1153.41,476.71l-97.83-56.46a3.4,3.4,0,0,0-3.06.12l-99.73,57.45c-.74.42-.93,1-.57,1.47a1.79,1.79,0,0,1,.57-.49l99.73-57.45a3.4,3.4,0,0,1,3.06-.12l97.83,56.46a1.43,1.43,0,0,1,.35.3.83.83,0,0,0-.14-1.16A.72.72,0,0,0,1153.41,476.71Z" transform="translate(-34.38 -49.43)"/><path id="Pfad_1533" data-name="Pfad 1533" class="cls-6" d="M1159,481.69l-100,57.6c-4,2.28-10,2.53-13.41.54L946,482.34a4.2,4.2,0,0,1-2.27-2.88c-.23,1.44.51,2.85,2.27,3.86l99.6,57.49c3.43,2,9.44,1.75,13.41-.54l100-57.6c2.4-1.39,3.5-3.2,3.24-4.86C1162,479.18,1160.94,480.57,1159,481.69Z" transform="translate(-34.38 -49.43)"/></g><path id="Pfad_1534" data-name="Pfad 1534" class="cls-27" d="M1055.57,428.47a3.4,3.4,0,0,0-3.06.12l-95.1,54.78-4.84-2.8c-.79-.46-.69-1.25.22-1.77l99.73-57.44a3.42,3.42,0,0,1,3.07-.13l97.83,56.47c.78.45.68,1.24-.22,1.77l-4.63,2.66Z" transform="translate(-34.38 -49.43)"/><path id="Pfad_1535" data-name="Pfad 1535" class="cls-21" d="M1153.19,479.46c.91-.52,1-1.31.22-1.76l-97.83-56.47a3.4,3.4,0,0,0-3.06.12l-99.73,57.44c-.91.53-1,1.32-.23,1.77L1050.39,537a3.4,3.4,0,0,0,3.06-.13Z" transform="translate(-34.38 -49.43)"/></g></g><g id="Gruppe_515" data-name="Gruppe 515"><g id="Gruppe_514" data-name="Gruppe 514"><path id="Pfad_1536" data-name="Pfad 1536" class="cls-28" d="M1059,527.35l100-57.6c2.2-1.27,3.3-2.89,3.29-4.42h0v-18l-3.43,3-2.94-1.7c.32-.38.54-.7.48-.8l-1.47-2.54-70.55-41.66L1062,390.58l-8.76-2.53-102.67,59,.3,2.38L948.08,451l-4.4-2V467h0a3.91,3.91,0,0,0,2.3,3.44l99.6,57.49C1049,529.88,1055,529.63,1059,527.35Zm40.6-44.5-45.29,24.73-3.9-.19-75.63-42.32-20.95-10.82,98.69-56.85a3.4,3.4,0,0,1,3.06-.12l96,55.43Z" transform="translate(-34.38 -49.43)"/><path id="Pfad_1537" data-name="Pfad 1537" class="cls-29" d="M1059,527.35l100-57.6c2.2-1.27,3.3-2.89,3.29-4.42h0v-18l-3.43,3-2.94-1.7c.32-.38.54-.7.48-.8l-1.47-2.54-70.55-41.66L1062,390.58l-8.76-2.53-102.67,59,.3,2.38L948.08,451l-4.4-2V467h0a3.91,3.91,0,0,0,2.3,3.44l99.6,57.49C1049,529.88,1055,529.63,1059,527.35Zm40.6-44.5-45.29,24.73-3.9-.19-75.63-42.32-20.95-10.82,98.69-56.85a3.4,3.4,0,0,1,3.06-.12l96,55.43Z" transform="translate(-34.38 -49.43)"/><path id="Pfad_1538" data-name="Pfad 1538" class="cls-24" d="M1051.77,529.22l0-21.76,2.51.12,45.29-24.73,52-30.14-1.73-1c1.61-.93,10.73-3.47,12.4-4.43v18.05h0c0,1.54-1.09,3.16-3.28,4.42l-100,57.6A15.44,15.44,0,0,1,1051.77,529.22Z" transform="translate(-34.38 -49.43)"/><path id="Pfad_1539" data-name="Pfad 1539" class="cls-30" d="M1059,509.08l100-57.6c4-2.28,4.41-5.75,1-7.74l-99.59-57.48c-3.44-2-9.44-1.75-13.41.54L947,444.4c-4,2.29-4.4,5.75-1,7.74l99.6,57.49C1049,511.62,1055,511.38,1059,509.08Zm-5.55-3.36a3.4,3.4,0,0,1-3.06.12l-97.83-56.46c-.78-.46-.68-1.25.23-1.77l99.73-57.44a3.37,3.37,0,0,1,3.06-.13l97.83,56.47c.79.45.69,1.24-.22,1.76Z" transform="translate(-34.38 -49.43)"/><path id="Pfad_1540" data-name="Pfad 1540" class="cls-31" d="M1059,509.08l100-57.6c4-2.28,4.41-5.75,1-7.74l-99.59-57.48c-3.44-2-9.44-1.75-13.41.54L947,444.4c-4,2.29-4.4,5.75-1,7.74l99.6,57.49C1049,511.62,1055,511.38,1059,509.08Zm-5.55-3.36a3.4,3.4,0,0,1-3.06.12l-97.83-56.46c-.78-.46-.68-1.25.23-1.77l99.73-57.44a3.37,3.37,0,0,1,3.06-.13l97.83,56.47c.79.45.69,1.24-.22,1.76Z" transform="translate(-34.38 -49.43)"/><g id="Gruppe_513" data-name="Gruppe 513"><path id="Pfad_1541" data-name="Pfad 1541" class="cls-6" d="M1153.41,445.53l-97.83-56.47a3.4,3.4,0,0,0-3.06.13l-99.73,57.44c-.74.42-.93,1-.57,1.47a1.79,1.79,0,0,1,.57-.49l99.73-57.44a3.37,3.37,0,0,1,3.06-.12l97.83,56.46a1.27,1.27,0,0,1,.35.3.83.83,0,0,0-.13-1.16A.78.78,0,0,0,1153.41,445.53Z" transform="translate(-34.38 -49.43)"/><path id="Pfad_1542" data-name="Pfad 1542" class="cls-6" d="M1159,450.5l-100,57.6c-4,2.29-10,2.53-13.41.55L946,451.16a4.2,4.2,0,0,1-2.27-2.88c-.23,1.44.51,2.84,2.27,3.86l99.6,57.49c3.43,2,9.44,1.74,13.41-.54l100-57.6c2.4-1.39,3.5-3.2,3.24-4.86C1162,448,1160.94,449.39,1159,450.5Z" transform="translate(-34.38 -49.43)"/></g><path id="Pfad_1543" data-name="Pfad 1543" class="cls-27" d="M1055.57,397.28a3.4,3.4,0,0,0-3.06.13l-95.1,54.77-4.84-2.8c-.79-.45-.69-1.24.22-1.76l99.73-57.45a3.42,3.42,0,0,1,3.07-.12l97.83,56.46c.78.46.68,1.25-.22,1.77l-4.63,2.67Z" transform="translate(-34.38 -49.43)"/><path id="Pfad_1544" data-name="Pfad 1544" class="cls-21" d="M1153.19,448.28c.91-.53,1-1.32.22-1.77L1055.58,390a3.4,3.4,0,0,0-3.06.13l-99.73,57.44c-.91.52-1,1.31-.23,1.77l97.83,56.46a3.4,3.4,0,0,0,3.06-.12Z" transform="translate(-34.38 -49.43)"/></g></g><g id="Gruppe_518" data-name="Gruppe 518"><g id="Gruppe_517" data-name="Gruppe 517"><path id="Pfad_1545" data-name="Pfad 1545" class="cls-32" d="M1059,496.16l100-57.6c2.2-1.26,3.3-2.88,3.29-4.42h0v-18l-3.43,3.06-2.94-1.71c.32-.37.54-.7.48-.8l-1.46-2.54-70.56-41.66L1062,359.39l-8.76-2.53-102.67,59,.3,2.38-2.74,1.57-4.39-2,0,17.94h0a4,4,0,0,0,2.31,3.44l99.59,57.49C1049,498.69,1055,498.45,1059,496.16Zm40.6-44.5-45.29,24.73-3.9-.19-75.63-42.32-20.95-10.82,98.69-56.84a3.37,3.37,0,0,1,3.06-.13l96,55.43Z" transform="translate(-34.38 -49.43)"/><path id="Pfad_1546" data-name="Pfad 1546" class="cls-33" d="M1059,496.16l100-57.6c2.2-1.26,3.3-2.88,3.29-4.42h0v-18l-3.43,3.06-2.94-1.71c.32-.37.54-.7.48-.8l-1.46-2.54-70.56-41.66L1062,359.39l-8.76-2.53-102.67,59,.3,2.38-2.74,1.57-4.39-2,0,17.94h0a4,4,0,0,0,2.31,3.44l99.59,57.49C1049,498.69,1055,498.45,1059,496.16Zm40.6-44.5-45.29,24.73-3.9-.19-75.63-42.32-20.95-10.82,98.69-56.84a3.37,3.37,0,0,1,3.06-.13l96,55.43Z" transform="translate(-34.38 -49.43)"/><path id="Pfad_1547" data-name="Pfad 1547" class="cls-24" d="M1051.77,498l0-21.77,2.51.12,45.29-24.73,52-30.13-1.73-1c1.61-.93,10.73-3.47,12.4-4.43v18h0c0,1.53-1.09,3.15-3.28,4.42l-100,57.6A15.56,15.56,0,0,1,1051.77,498Z" transform="translate(-34.38 -49.43)"/><path id="Pfad_1548" data-name="Pfad 1548" class="cls-34" d="M1059,477.9l100-57.61c4-2.28,4.41-5.75,1-7.74l-99.59-57.49c-3.44-2-9.44-1.74-13.41.55l-100,57.6c-4,2.28-4.4,5.75-1,7.74l99.6,57.48C1049,480.43,1055,480.19,1059,477.9Zm-5.55-3.37a3.37,3.37,0,0,1-3.06.12l-97.83-56.46c-.78-.45-.68-1.24.23-1.77L1052.52,359a3.4,3.4,0,0,1,3.06-.12l97.83,56.46c.79.46.69,1.25-.22,1.77Z" transform="translate(-34.38 -49.43)"/><path id="Pfad_1549" data-name="Pfad 1549" class="cls-35" d="M1059,477.9l100-57.61c4-2.28,4.41-5.75,1-7.74l-99.59-57.49c-3.44-2-9.44-1.74-13.41.55l-100,57.6c-4,2.28-4.4,5.75-1,7.74l99.6,57.48C1049,480.43,1055,480.19,1059,477.9Zm-5.55-3.37a3.37,3.37,0,0,1-3.06.12l-97.83-56.46c-.78-.45-.68-1.24.23-1.77L1052.52,359a3.4,3.4,0,0,1,3.06-.12l97.83,56.46c.79.46.69,1.25-.22,1.77Z" transform="translate(-34.38 -49.43)"/><g id="Gruppe_516" data-name="Gruppe 516"><path id="Pfad_1550" data-name="Pfad 1550" class="cls-6" d="M1153.41,414.34l-97.83-56.46a3.37,3.37,0,0,0-3.06.12l-99.73,57.44c-.74.43-.93,1-.57,1.48a1.7,1.7,0,0,1,.57-.5L1052.52,359a3.4,3.4,0,0,1,3.06-.12l97.83,56.46a1.64,1.64,0,0,1,.35.29.82.82,0,0,0-.14-1.15A.72.72,0,0,0,1153.41,414.34Z" transform="translate(-34.38 -49.43)"/><path id="Pfad_1551" data-name="Pfad 1551" class="cls-6" d="M1159,419.32l-100,57.6c-4,2.28-10,2.53-13.41.54L946,420a4.2,4.2,0,0,1-2.27-2.88c-.23,1.44.51,2.84,2.27,3.86l99.6,57.49c3.43,2,9.44,1.75,13.41-.54l100-57.6c2.4-1.39,3.5-3.2,3.24-4.86C1162,416.8,1160.94,418.2,1159,419.32Z" transform="translate(-34.38 -49.43)"/></g><path id="Pfad_1552" data-name="Pfad 1552" class="cls-27" d="M1055.57,366.09a3.4,3.4,0,0,0-3.06.13L957.41,421l-4.84-2.8c-.79-.46-.69-1.25.22-1.77L1052.52,359a3.42,3.42,0,0,1,3.07-.12l97.82,56.46c.79.46.69,1.25-.22,1.77l-4.63,2.67Z" transform="translate(-34.38 -49.43)"/><path id="Pfad_1553" data-name="Pfad 1553" class="cls-21" d="M1153.19,417.09c.91-.52,1-1.32.22-1.77l-97.83-56.46a3.37,3.37,0,0,0-3.06.12l-99.73,57.44c-.91.53-1,1.32-.23,1.77l97.83,56.47a3.4,3.4,0,0,0,3.06-.13Z" transform="translate(-34.38 -49.43)"/></g></g><g id="Gruppe_521" data-name="Gruppe 521"><g id="Gruppe_520" data-name="Gruppe 520"><path id="Pfad_1554" data-name="Pfad 1554" class="cls-36" d="M1059,465l100-57.6c2.2-1.26,3.3-2.88,3.29-4.42h0v-18l-3.43,3.06-2.94-1.71c.32-.37.54-.7.48-.8l-1.46-2.54-70.56-41.66L1062,328.2l-8.76-2.53-102.67,59,.3,2.38-2.74,1.57-4.39-2,0,17.94h0A4,4,0,0,0,946,408l99.59,57.49C1049,467.5,1055,467.26,1059,465Zm40.6-44.5L1054.3,445.2l-3.9-.19L974.77,402.7l-20.95-10.83L1052.51,335a3.37,3.37,0,0,1,3.06-.12l96,55.43Z" transform="translate(-34.38 -49.43)"/><path id="Pfad_1555" data-name="Pfad 1555" class="cls-37" d="M1059,465l100-57.6c2.2-1.26,3.3-2.88,3.29-4.42h0v-18l-3.43,3.06-2.94-1.71c.32-.37.54-.7.48-.8l-1.46-2.54-70.56-41.66L1062,328.2l-8.76-2.53-102.67,59,.3,2.38-2.74,1.57-4.39-2,0,17.94h0A4,4,0,0,0,946,408l99.59,57.49C1049,467.5,1055,467.26,1059,465Zm40.6-44.5L1054.3,445.2l-3.9-.19L974.77,402.7l-20.95-10.83L1052.51,335a3.37,3.37,0,0,1,3.06-.12l96,55.43Z" transform="translate(-34.38 -49.43)"/><path id="Pfad_1556" data-name="Pfad 1556" class="cls-24" d="M1051.77,466.85l0-21.77,2.51.13,45.29-24.73,52-30.14-1.73-1c1.61-.93,10.73-3.47,12.4-4.43v18h0c0,1.53-1.09,3.15-3.28,4.42L1059,465A15.44,15.44,0,0,1,1051.77,466.85Z" transform="translate(-34.38 -49.43)"/><path id="Pfad_1557" data-name="Pfad 1557" class="cls-38" d="M1059,446.71l100-57.6c4-2.28,4.41-5.75,1-7.74l-99.59-57.48c-3.44-2-9.44-1.75-13.41.54L947,382c-4,2.29-4.4,5.75-1,7.74l99.6,57.49C1049,449.25,1055,449,1059,446.71Zm-5.55-3.36a3.4,3.4,0,0,1-3.06.12L952.56,387c-.78-.45-.68-1.24.23-1.77l99.73-57.44a3.4,3.4,0,0,1,3.06-.12l97.83,56.46c.79.46.69,1.25-.22,1.77Z" transform="translate(-34.38 -49.43)"/><path id="Pfad_1558" data-name="Pfad 1558" class="cls-39" d="M1059,446.71l100-57.6c4-2.28,4.41-5.75,1-7.74l-99.59-57.48c-3.44-2-9.44-1.75-13.41.54L947,382c-4,2.29-4.4,5.75-1,7.74l99.6,57.49C1049,449.25,1055,449,1059,446.71Zm-5.55-3.36a3.4,3.4,0,0,1-3.06.12L952.56,387c-.78-.45-.68-1.24.23-1.77l99.73-57.44a3.4,3.4,0,0,1,3.06-.12l97.83,56.46c.79.46.69,1.25-.22,1.77Z" transform="translate(-34.38 -49.43)"/><g id="Gruppe_519" data-name="Gruppe 519"><path id="Pfad_1559" data-name="Pfad 1559" class="cls-6" d="M1153.41,383.15l-97.83-56.46a3.4,3.4,0,0,0-3.06.12l-99.73,57.45c-.74.42-.93,1-.57,1.47a1.79,1.79,0,0,1,.57-.49l99.73-57.44a3.4,3.4,0,0,1,3.06-.12l97.83,56.45a1.27,1.27,0,0,1,.35.3.82.82,0,0,0-.13-1.15A.8.8,0,0,0,1153.41,383.15Z" transform="translate(-34.38 -49.43)"/><path id="Pfad_1560" data-name="Pfad 1560" class="cls-6" d="M1159,388.13l-100,57.6c-4,2.29-10,2.53-13.41.54L946,388.79a4.24,4.24,0,0,1-2.27-2.89c-.23,1.44.51,2.85,2.27,3.87l99.6,57.48c3.43,2,9.44,1.75,13.41-.54l100-57.6c2.4-1.38,3.5-3.2,3.24-4.86C1162,385.62,1160.94,387,1159,388.13Z" transform="translate(-34.38 -49.43)"/></g><path id="Pfad_1561" data-name="Pfad 1561" class="cls-27" d="M1055.57,334.91a3.4,3.4,0,0,0-3.06.12l-95.1,54.78-4.84-2.8c-.79-.46-.69-1.25.22-1.77l99.73-57.44a3.42,3.42,0,0,1,3.07-.13l97.82,56.46c.79.46.69,1.25-.22,1.77l-4.63,2.67Z" transform="translate(-34.38 -49.43)"/><path id="Pfad_1562" data-name="Pfad 1562" class="cls-21" d="M1153.19,385.9c.91-.52,1-1.31.22-1.77l-97.83-56.46a3.4,3.4,0,0,0-3.06.12l-99.73,57.45c-.91.52-1,1.31-.23,1.77l97.83,56.46a3.4,3.4,0,0,0,3.06-.12Z" transform="translate(-34.38 -49.43)"/></g></g></g><g id="Gruppe_523" data-name="Gruppe 523"><path id="Pfad_1563" data-name="Pfad 1563" class="cls-6" d="M1140.34,409.47a3.58,3.58,0,0,1-1.63,2.82c-.9.52-1.63.1-1.63-.94a3.57,3.57,0,0,1,1.63-2.82C1139.61,408,1140.34,408.43,1140.34,409.47Z" transform="translate(-34.38 -49.43)"/><path id="Pfad_1564" data-name="Pfad 1564" class="cls-6" d="M1146,406.19a3.6,3.6,0,0,1-1.63,2.82c-.9.52-1.63.1-1.63-.94a3.58,3.58,0,0,1,1.63-2.82C1145.29,404.73,1146,405.15,1146,406.19Z" transform="translate(-34.38 -49.43)"/><path id="Pfad_1565" data-name="Pfad 1565" class="cls-6" d="M1151.7,402.91a3.59,3.59,0,0,1-1.63,2.82c-.9.52-1.63.1-1.63-.94a3.61,3.61,0,0,1,1.63-2.82C1151,401.45,1151.7,401.87,1151.7,402.91Z" transform="translate(-34.38 -49.43)"/></g><g id="Gruppe_524" data-name="Gruppe 524"><path id="Pfad_1566" data-name="Pfad 1566" class="cls-6" d="M1140.34,441.32a3.61,3.61,0,0,1-1.63,2.82c-.9.52-1.63.1-1.63-.94a3.59,3.59,0,0,1,1.63-2.83C1139.61,439.85,1140.34,440.27,1140.34,441.32Z" transform="translate(-34.38 -49.43)"/><path id="Pfad_1567" data-name="Pfad 1567" class="cls-6" d="M1146,438a3.62,3.62,0,0,1-1.63,2.83c-.9.52-1.63.1-1.63-.95a3.61,3.61,0,0,1,1.63-2.82C1145.29,436.57,1146,437,1146,438Z" transform="translate(-34.38 -49.43)"/><path id="Pfad_1568" data-name="Pfad 1568" class="cls-6" d="M1151.7,434.75a3.56,3.56,0,0,1-1.63,2.82c-.9.52-1.63.1-1.63-.94a3.61,3.61,0,0,1,1.63-2.82C1151,433.29,1151.7,433.71,1151.7,434.75Z" transform="translate(-34.38 -49.43)"/></g><g id="Gruppe_525" data-name="Gruppe 525"><path id="Pfad_1569" data-name="Pfad 1569" class="cls-40" d="M1140.34,502.74a3.62,3.62,0,0,1-1.63,2.83c-.9.52-1.63.1-1.63-.94a3.59,3.59,0,0,1,1.63-2.83C1139.61,501.28,1140.34,501.7,1140.34,502.74Z" transform="translate(-34.38 -49.43)"/><path id="Pfad_1570" data-name="Pfad 1570" class="cls-40" d="M1146,499.46a3.62,3.62,0,0,1-1.63,2.83c-.9.52-1.63.1-1.63-1a3.61,3.61,0,0,1,1.63-2.82C1145.29,498,1146,498.42,1146,499.46Z" transform="translate(-34.38 -49.43)"/><path id="Pfad_1571" data-name="Pfad 1571" class="cls-40" d="M1151.7,496.18a3.56,3.56,0,0,1-1.63,2.82c-.9.52-1.63.1-1.63-.94a3.58,3.58,0,0,1,1.63-2.82C1151,494.72,1151.7,495.14,1151.7,496.18Z" transform="translate(-34.38 -49.43)"/></g></g></g></g></svg>