<svg xmlns="http://www.w3.org/2000/svg" width="155.682" height="155.682" viewBox="0 0 155.682 155.682"><g transform="translate(0 0)"><path d="M554.845-60.446H478.7a2.477,2.477,0,0,1-1.751-.725L455.829-82.295a2.479,2.479,0,0,1-.728-1.754v-76.138a2.469,2.469,0,0,1,.728-1.754l21.139-21.142a2.489,2.489,0,0,1,1.754-.725h76.138a2.477,2.477,0,0,1,1.751.725l21.124,21.127a2.467,2.467,0,0,1,.728,1.751v76.141a2.467,2.467,0,0,1-.728,1.751L556.6-61.171A2.477,2.477,0,0,1,554.845-60.446ZM479.729-65.4h74.087L573.5-85.089v-74.09l-19.67-19.671H479.747l-19.688,19.688v74.087Z" transform="translate(-438.941 199.967)" fill="#fff"/><path d="M513.576-158.931h-16.16a2.477,2.477,0,0,1-2.479-2.479,2.477,2.477,0,0,1,2.479-2.479h16.16a2.477,2.477,0,0,1,2.479,2.479A2.477,2.477,0,0,1,513.576-158.931Z" transform="translate(-360.373 239.251)" fill="#fff"/><path d="M513.576-163.426h-16.16a2.477,2.477,0,0,1-2.479-2.479,2.477,2.477,0,0,1,2.479-2.476h16.16a2.477,2.477,0,0,1,2.479,2.476A2.477,2.477,0,0,1,513.576-163.426Z" transform="translate(-360.373 230.392)" fill="#fff"/><path d="M513.576-167.916h-16.16a2.477,2.477,0,0,1-2.479-2.479,2.479,2.479,0,0,1,2.479-2.479h16.16a2.479,2.479,0,0,1,2.479,2.479A2.477,2.477,0,0,1,513.576-167.916Z" transform="translate(-360.373 221.53)" fill="#fff"/><path d="M513.576-154.441h-16.16a2.477,2.477,0,0,1-2.479-2.476,2.477,2.477,0,0,1,2.479-2.479h16.16a2.477,2.477,0,0,1,2.479,2.479A2.477,2.477,0,0,1,513.576-154.441Z" transform="translate(-360.373 248.113)" fill="#fff"/><path d="M513.576-149.949h-16.16a2.477,2.477,0,0,1-2.479-2.476,2.477,2.477,0,0,1,2.479-2.479h16.16a2.477,2.477,0,0,1,2.479,2.479A2.477,2.477,0,0,1,513.576-149.949Z" transform="translate(-360.373 256.972)" fill="#fff"/><path d="M468.3-158.931h-16.16a2.479,2.479,0,0,1-2.479-2.479,2.479,2.479,0,0,1,2.479-2.479H468.3a2.477,2.477,0,0,1,2.479,2.479A2.477,2.477,0,0,1,468.3-158.931Z" transform="translate(-449.664 239.251)" fill="#fff"/><path d="M468.3-163.426h-16.16a2.479,2.479,0,0,1-2.479-2.479,2.479,2.479,0,0,1,2.479-2.476H468.3a2.477,2.477,0,0,1,2.479,2.476A2.477,2.477,0,0,1,468.3-163.426Z" transform="translate(-449.664 230.392)" fill="#fff"/><path d="M468.3-167.916h-16.16a2.479,2.479,0,0,1-2.479-2.479,2.481,2.481,0,0,1,2.479-2.479H468.3a2.479,2.479,0,0,1,2.479,2.479A2.477,2.477,0,0,1,468.3-167.916Z" transform="translate(-449.664 221.53)" fill="#fff"/><path d="M468.3-154.441h-16.16a2.479,2.479,0,0,1-2.479-2.476,2.479,2.479,0,0,1,2.479-2.479H468.3a2.477,2.477,0,0,1,2.479,2.479A2.477,2.477,0,0,1,468.3-154.441Z" transform="translate(-449.664 248.113)" fill="#fff"/><path d="M468.3-149.949h-16.16a2.479,2.479,0,0,1-2.479-2.476,2.479,2.479,0,0,1,2.479-2.479H468.3a2.477,2.477,0,0,1,2.479,2.479A2.477,2.477,0,0,1,468.3-149.949Z" transform="translate(-449.664 256.972)" fill="#fff"/><path d="M477.5-122.853a2.481,2.481,0,0,1-2.479-2.479v-16.16a2.479,2.479,0,0,1,2.479-2.479,2.477,2.477,0,0,1,2.479,2.479v16.16A2.479,2.479,0,0,1,477.5-122.853Z" transform="translate(-399.657 278.535)" fill="#fff"/><path d="M481.991-122.853a2.479,2.479,0,0,1-2.479-2.479v-16.16a2.477,2.477,0,0,1,2.479-2.479,2.477,2.477,0,0,1,2.476,2.479v16.16A2.479,2.479,0,0,1,481.991-122.853Z" transform="translate(-390.795 278.535)" fill="#fff"/><path d="M486.483-122.853A2.479,2.479,0,0,1,484-125.332v-16.16a2.477,2.477,0,0,1,2.479-2.479,2.479,2.479,0,0,1,2.479,2.479v16.16A2.481,2.481,0,0,1,486.483-122.853Z" transform="translate(-381.936 278.535)" fill="#fff"/><path d="M473-122.853a2.479,2.479,0,0,1-2.476-2.479v-16.16A2.477,2.477,0,0,1,473-143.971a2.477,2.477,0,0,1,2.479,2.479v16.16A2.479,2.479,0,0,1,473-122.853Z" transform="translate(-408.516 278.535)" fill="#fff"/><path d="M468.513-122.853a2.481,2.481,0,0,1-2.479-2.479v-16.16a2.479,2.479,0,0,1,2.479-2.479,2.477,2.477,0,0,1,2.479,2.479v16.16A2.479,2.479,0,0,1,468.513-122.853Z" transform="translate(-417.378 278.535)" fill="#fff"/><path d="M477.5-168.126a2.479,2.479,0,0,1-2.479-2.479v-16.16a2.481,2.481,0,0,1,2.479-2.479,2.479,2.479,0,0,1,2.479,2.479v16.16A2.477,2.477,0,0,1,477.5-168.126Z" transform="translate(-399.657 189.244)" fill="#fff"/><path d="M481.991-168.126a2.477,2.477,0,0,1-2.479-2.479v-16.16a2.479,2.479,0,0,1,2.479-2.479,2.479,2.479,0,0,1,2.476,2.479v16.16A2.477,2.477,0,0,1,481.991-168.126Z" transform="translate(-390.795 189.244)" fill="#fff"/><path d="M486.483-168.126A2.477,2.477,0,0,1,484-170.6v-16.16a2.479,2.479,0,0,1,2.479-2.479,2.481,2.481,0,0,1,2.479,2.479v16.16A2.479,2.479,0,0,1,486.483-168.126Z" transform="translate(-381.936 189.244)" fill="#fff"/><path d="M473.006-168.126a2.477,2.477,0,0,1-2.479-2.479v-16.16a2.479,2.479,0,0,1,2.479-2.479,2.481,2.481,0,0,1,2.479,2.479v16.16A2.479,2.479,0,0,1,473.006-168.126Z" transform="translate(-408.516 189.244)" fill="#fff"/><path d="M468.513-168.126a2.479,2.479,0,0,1-2.479-2.479v-16.16a2.481,2.481,0,0,1,2.479-2.479,2.479,2.479,0,0,1,2.479,2.479v16.16A2.477,2.477,0,0,1,468.513-168.126Z" transform="translate(-417.378 189.244)" fill="#fff"/><path d="M500.51-100.734a37.2,37.2,0,0,1-37.159-37.159,37.2,37.2,0,0,1,37.159-37.159,37.2,37.2,0,0,1,37.159,37.159A37.2,37.2,0,0,1,500.51-100.734Zm0-69.364a32.24,32.24,0,0,0-32.2,32.2,32.238,32.238,0,0,0,32.2,32.2,32.24,32.24,0,0,0,32.2-32.2A32.243,32.243,0,0,0,500.51-170.1Z" transform="translate(-422.669 217.233)" fill="#fff"/><path d="M507.68-82.761a48.018,48.018,0,0,1-47.964-47.964,48.018,48.018,0,0,1,47.964-47.964,48.018,48.018,0,0,1,47.964,47.964A48.018,48.018,0,0,1,507.68-82.761Zm0-90.972a43.056,43.056,0,0,0-43.006,43.009A43.058,43.058,0,0,0,507.68-87.716a43.059,43.059,0,0,0,43.009-43.009A43.057,43.057,0,0,0,507.68-173.733Z" transform="translate(-429.839 210.064)" fill="#fff"/><path d="M494.61-157.78a2.568,2.568,0,0,0,2.568-2.565v-3.828a5.012,5.012,0,0,0-4.982-4.976H476.505a5,5,0,0,0-4.985,4.984V-152.5a5,5,0,0,0,4.985,4.982h1.647l-.238.238a2.558,2.558,0,0,0-.7,1.84,2.536,2.536,0,0,0,.806,1.792,2.568,2.568,0,0,0,3.534-.009l3.855-3.864,6.637-.009.012,11.366-15.4.012v-3.683a2.569,2.569,0,0,0-2.565-2.565,2.571,2.571,0,0,0-2.571,2.565v3.825a5,5,0,0,0,4.985,4.982H492.2a5.006,5.006,0,0,0,4.982-4.985v-11.666a5,5,0,0,0-4.982-4.982h-1.65l.392-.4a2.573,2.573,0,0,0-.142-3.409,2.579,2.579,0,0,0-1.819-.788,2.769,2.769,0,0,0-1.831.731l-3.858,3.861-6.631.012-.012-11.372,15.4-.009v3.683A2.567,2.567,0,0,0,494.61-157.78Z" transform="translate(-406.556 228.877)" fill="#fff"/></g></svg>