<svg xmlns="http://www.w3.org/2000/svg" width="153.384" height="143.284" viewBox="0 0 153.384 143.284"><path d="M436.175-32.141A35.6,35.6,0,0,1,400.609-67.7a35.608,35.608,0,0,1,35.566-35.569A35.608,35.608,0,0,1,471.742-67.7,35.6,35.6,0,0,1,436.175-32.141Zm0-65.889A30.357,30.357,0,0,0,405.853-67.7a30.354,30.354,0,0,0,30.322,30.32A30.356,30.356,0,0,0,466.5-67.7,30.358,30.358,0,0,0,436.175-98.029Z" transform="translate(-354.247 139.348)" fill="#fff"/><path d="M394.826-72.771a2.6,2.6,0,0,1-.9-.161,2.622,2.622,0,0,1-1.557-3.366,61.591,61.591,0,0,1,31.576-34.347,2.625,2.625,0,0,1,3.484,1.269,2.624,2.624,0,0,1-1.269,3.484,56.3,56.3,0,0,0-28.869,31.4A2.624,2.624,0,0,1,394.826-72.771Z" transform="translate(-367.978 126.903)" fill="#fff"/><path d="M464.747,19.758a68.953,68.953,0,0,1-67.448-54.4h-11.67a2.619,2.619,0,0,1-2.452-1.7,2.618,2.618,0,0,1,.714-2.892L402.756-55.9a2.622,2.622,0,0,1,3.474,0L425.1-39.233a2.619,2.619,0,0,1,.716,2.892,2.621,2.621,0,0,1-2.452,1.7h-9.771a53.527,53.527,0,0,0,51.158,38.59,55.892,55.892,0,0,0,55.83-55.828,55.892,55.892,0,0,0-55.83-55.83,2.621,2.621,0,0,1-2.621-2.623,2.619,2.619,0,0,1,2.621-2.621,61.142,61.142,0,0,1,61.074,61.074A61.141,61.141,0,0,1,464.747,9.189a58.765,58.765,0,0,1-57.081-45.9,2.616,2.616,0,0,1,.519-2.2,2.621,2.621,0,0,1,2.041-.98h6.208L404.495-50.442,392.556-39.891h6.9a2.626,2.626,0,0,1,2.581,2.152,63.7,63.7,0,0,0,62.715,52.254,66.472,66.472,0,0,0,66.4-66.4A66.338,66.338,0,0,0,527.852-72.6a2.626,2.626,0,0,1,1.675-3.311,2.63,2.63,0,0,1,3.311,1.675,71.642,71.642,0,0,1,3.553,22.35A71.721,71.721,0,0,1,464.747,19.758Z" transform="translate(-383.006 123.526)" fill="#fff"/><path d="M390.421-61.261a2.6,2.6,0,0,1-.7-.1,2.62,2.62,0,0,1-1.823-3.229,71.845,71.845,0,0,1,69.023-52.383,71.32,71.32,0,0,1,56.139,27.125,2.622,2.622,0,0,1-.424,3.685,2.625,2.625,0,0,1-3.685-.424,66.092,66.092,0,0,0-52.03-25.142,66.586,66.586,0,0,0-63.971,48.545A2.627,2.627,0,0,1,390.421-61.261Z" transform="translate(-375.177 116.97)" fill="#fff"/><path d="M433.813-98.777H413.894a5.869,5.869,0,0,0-5.855,5.855v14.81a5.867,5.867,0,0,0,5.855,5.855h3.229l-1.1,1.1a2.791,2.791,0,0,0,.116,3.943,2.791,2.791,0,0,0,3.832,0l5.033-5.041h8.631a.456.456,0,0,1,.458.456v14.449a.456.456,0,0,1-.456.456H414.073a.46.46,0,0,1-.458-.456v-4.675a2.788,2.788,0,0,0-2.787-2.787,2.786,2.786,0,0,0-2.786,2.787h0v4.854a5.865,5.865,0,0,0,5.852,5.855h19.919a5.871,5.871,0,0,0,5.855-5.855V-71.989a5.864,5.864,0,0,0-5.855-5.855h-3.229l.969-.974.3-.3a2.791,2.791,0,0,0-.155-3.7,2.76,2.76,0,0,0-1.965-.853,3.029,3.029,0,0,0-1.991.788L422.7-77.844H414.07a.46.46,0,0,1-.458-.458V-92.748a.464.464,0,0,1,.458-.461h19.558a.465.465,0,0,1,.464.461v4.672a2.786,2.786,0,0,0,2.787,2.789,2.786,2.786,0,0,0,2.786-2.789V-92.93A5.867,5.867,0,0,0,433.813-98.777Z" transform="translate(-342.109 146.693)" fill="#fff"/></svg>