<svg xmlns="http://www.w3.org/2000/svg" width="155.701" height="144.527" viewBox="0 0 155.701 144.527"><path d="M602.561-59A2.62,2.62,0,0,1,600-61.057a64.651,64.651,0,0,0-62.8-50.492,64.319,64.319,0,0,0-62.054,47.726,2.633,2.633,0,0,1-3.208,1.859,2.625,2.625,0,0,1-1.859-3.211A69.572,69.572,0,0,1,537.2-116.793a69.931,69.931,0,0,1,67.924,54.611,2.625,2.625,0,0,1-2,3.124A2.581,2.581,0,0,1,602.561-59Z" transform="translate(-459.318 116.793)" fill="#fff"/><path d="M534.323-79.462a2.612,2.612,0,0,1-1.151-.269l-19.945-9.782a2.618,2.618,0,0,1-1.2-3.508,2.618,2.618,0,0,1,3.505-1.2l17.615,8.639,8.668-17.246a2.63,2.63,0,0,1,3.521-1.164,2.623,2.623,0,0,1,1.164,3.521L536.67-80.905A2.626,2.626,0,0,1,534.323-79.462Z" transform="translate(-391.081 137.257)" fill="#fff"/><path d="M537.655-26.067a69.923,69.923,0,0,1-67.922-54.611,2.62,2.62,0,0,1,2-3.121,2.614,2.614,0,0,1,3.124,2,64.646,64.646,0,0,0,62.8,50.489,64.316,64.316,0,0,0,62.054-47.724,2.63,2.63,0,0,1,3.211-1.857,2.625,2.625,0,0,1,1.859,3.211A69.573,69.573,0,0,1,537.655-26.067Z" transform="translate(-459.84 170.594)" fill="#fff"/><path d="M468.557-59.053a2.609,2.609,0,0,1-1.175-.279,2.623,2.623,0,0,1-1.164-3.521l9.832-19.564a2.622,2.622,0,0,1,3.5-1.175l19.943,9.782a2.62,2.62,0,0,1,1.2,3.508,2.619,2.619,0,0,1-3.508,1.2l-17.615-8.639L470.9-60.5A2.617,2.617,0,0,1,468.557-59.053Z" transform="translate(-465.939 170.596)" fill="#fff"/><path d="M476.689-46.932a2.623,2.623,0,0,1-2.61-2.407c-.129-1.562-.192-3.147-.192-4.717a56.969,56.969,0,0,1,56.9-56.9,57.063,57.063,0,0,1,41.966,18.473,2.623,2.623,0,0,1-.161,3.706,2.625,2.625,0,0,1-3.706-.161,51.8,51.8,0,0,0-38.1-16.774,51.718,51.718,0,0,0-51.658,51.661c0,1.427.058,2.868.174,4.285a2.624,2.624,0,0,1-2.4,2.831C476.834-46.934,476.76-46.932,476.689-46.932Z" transform="translate(-452.953 126.321)" fill="#fff"/><path d="M521.561-26.431A56.386,56.386,0,0,1,480.254-44.2a2.621,2.621,0,0,1,.1-3.706,2.619,2.619,0,0,1,3.706.1,51.2,51.2,0,0,0,37.5,16.129,51.718,51.718,0,0,0,51.661-51.658,52.193,52.193,0,0,0-.437-6.74,2.626,2.626,0,0,1,2.262-2.939,2.614,2.614,0,0,1,2.939,2.26,57.551,57.551,0,0,1,.479,7.419A56.968,56.968,0,0,1,521.561-26.431Z" transform="translate(-443.725 155.601)" fill="#fff"/><g transform="translate(42.283 36.699)"><path d="M517.559-31.727a35.607,35.607,0,0,1-35.566-35.566,35.607,35.607,0,0,1,35.566-35.566,35.607,35.607,0,0,1,35.566,35.566A35.607,35.607,0,0,1,517.559-31.727Zm0-65.889a30.358,30.358,0,0,0-30.322,30.322A30.358,30.358,0,0,0,517.559-36.97a30.358,30.358,0,0,0,30.322-30.322A30.358,30.358,0,0,0,517.559-97.615Z" transform="translate(-481.993 102.859)" fill="#fff"/><path d="M515.2-98.364H495.278a5.871,5.871,0,0,0-5.855,5.855V-77.7a5.871,5.871,0,0,0,5.855,5.855h3.229l-1.1,1.1a2.794,2.794,0,0,0,.116,3.945,2.794,2.794,0,0,0,3.832,0l5.033-5.041h8.633a.455.455,0,0,1,.456.453v14.449a.458.458,0,0,1-.456.458H495.457a.46.46,0,0,1-.456-.458v-4.672a2.789,2.789,0,0,0-2.789-2.789,2.788,2.788,0,0,0-2.786,2.789h0v4.851a5.864,5.864,0,0,0,5.855,5.855H515.2a5.868,5.868,0,0,0,5.855-5.855V-71.576a5.864,5.864,0,0,0-5.855-5.852h-3.229l.969-.977.3-.3a2.788,2.788,0,0,0-.155-3.7,2.753,2.753,0,0,0-1.962-.853,3.016,3.016,0,0,0-1.991.787l-5.038,5.041h-8.633a.46.46,0,0,1-.456-.458V-92.333a.464.464,0,0,1,.456-.464h19.561a.467.467,0,0,1,.461.464v4.672a2.788,2.788,0,0,0,2.786,2.787,2.788,2.788,0,0,0,2.789-2.787v-4.854A5.875,5.875,0,0,0,515.2-98.364Z" transform="translate(-469.854 110.203)" fill="#fff"/></g></svg>