<svg xmlns="http://www.w3.org/2000/svg" xmlns:xlink="http://www.w3.org/1999/xlink" width="712.772" height="483.897" viewBox="0 0 712.772 483.897"><defs><radialGradient id="a" cx="0.46" cy="0.524" r="0.918" gradientTransform="translate(0.167) scale(0.667 1)" gradientUnits="objectBoundingBox"><stop offset="0" stop-color="#0159a1"/><stop offset="1" stop-color="#030d42"/></radialGradient><linearGradient id="b" x1="-0.034" y1="0.5" x2="0.5" y2="1" gradientUnits="objectBoundingBox"><stop offset="0" stop-color="#2eecff"/><stop offset="1" stop-color="#267fd0" stop-opacity="0"/></linearGradient><radialGradient id="l" cx="0.5" cy="0.5" r="0.5" gradientUnits="objectBoundingBox"><stop offset="0" stop-color="#267fd0" stop-opacity="0"/><stop offset="1" stop-color="#2eecff"/></radialGradient><pattern id="o" preserveAspectRatio="none" width="100%" height="100%" viewBox="0 0 0 0"><image/></pattern><linearGradient id="aj" x1="0.208" y1="0.13" x2="0.867" y2="0.859" xlink:href="#l"/><linearGradient id="ak" x1="-0.019" y1="-0.233" x2="1.223" y2="1.204" xlink:href="#l"/><radialGradient id="an" cx="0.5" cy="0.5" r="0.5" gradientUnits="objectBoundingBox"><stop offset="0" stop-color="#0d86ff"/><stop offset="1" stop-color="#17cdff"/></radialGradient><linearGradient id="bl" x1="0.203" y1="0.079" x2="0.623" y2="0.654" gradientUnits="objectBoundingBox"><stop offset="0" stop-color="#2eecff"/><stop offset="1" stop-color="#177680" stop-opacity="0"/></linearGradient><linearGradient id="bm" x1="0.052" y1="-0.475" x2="0.889" y2="0.369" xlink:href="#b"/><clipPath id="bp"><path d="M744.647-130.737l.044-15.667c0-1.389.133-2.763.18-3.81l-.045,15.667C744.78-133.5,744.651-132.127,744.647-130.737Z" transform="translate(-744.647 150.214)" fill="none"/></clipPath><clipPath id="bq"><path d="M791.295-140.846l-.044,15.667c-1.26-.014-2.527-.145-5.248-.312l.044-15.666C788.768-140.991,790.035-140.859,791.295-140.846Z" transform="translate(-786.002 141.157)" fill="none"/></clipPath><clipPath id="br"><path d="M803.544-134.573l-.044,15.666a3.623,3.623,0,0,0-.074-.731,5.909,5.909,0,0,0-3.114-3.73,16.113,16.113,0,0,0-8.847-1.8l.044-15.667a16.121,16.121,0,0,1,8.847,1.8,5.906,5.906,0,0,1,3.114,3.729A3.557,3.557,0,0,1,803.544-134.573Z" transform="translate(-791.464 140.873)" fill="none"/></clipPath><clipPath id="bs"><path d="M693.919-119.546l.044-15.667a8.86,8.86,0,0,0,.11,1.409l-.044,15.666A8.765,8.765,0,0,1,693.919-119.546Z" transform="translate(-693.919 135.213)" fill="none"/></clipPath><clipPath id="bt"><path d="M726.946-140.725,726.9-125.06c-10.231-1.084-15,.928-16.461,6.751l.044-15.666C711.944-139.8,716.715-141.809,726.946-140.725Z" transform="translate(-710.44 141.006)" fill="none"/></clipPath><clipPath id="bu"><path d="M804.025-127.155l-.045,15.666q-.017-3.2-.072-6.4l.044-15.666Q804.007-130.354,804.025-127.155Z" transform="translate(-803.908 133.552)" fill="none"/></clipPath><clipPath id="bv"><path d="M824.845-125.605l-.044,15.666q0-.183,0-.369c-.021-1.53-.213-3.061-.345-4.725L824.5-130.7c.132,1.664.324,3.2.345,4.725C824.844-125.851,824.845-125.728,824.845-125.605Z" transform="translate(-824.454 130.699)" fill="none"/></clipPath><clipPath id="bw"><path d="M727.928-117.577l-.044,15.666q-.147-11.587-.313-23.137l.044-15.666Q727.781-129.169,727.928-117.577Z" transform="translate(-727.571 140.714)" fill="none"/></clipPath><clipPath id="bx"><path d="M744.94-125.274l-.044,15.666c-.008,2.807-.061,5.613-.194,8.418-.017.273-.052.542-.093.807l.044-15.666c.041-.265.077-.535.093-.807C744.879-119.661,744.932-122.467,744.94-125.274Z" transform="translate(-744.608 125.274)" fill="none"/></clipPath><clipPath id="by"><path d="M820.886-126.411l-.044,15.666c-.011,3.728-.133,7.457-.143,11.176l.044-15.666C820.754-118.955,820.876-122.683,820.886-126.411Z" transform="translate(-820.699 126.411)" fill="none"/></clipPath><clipPath id="bz"><path d="M837.817-114.085l-.044,15.666a5.28,5.28,0,0,0-2.815-4.99c-2.106-1.217-5.473-1.853-10.348-2.07l.044-15.666c4.876.217,8.242.853,10.348,2.07A5.28,5.28,0,0,1,837.817-114.085Z" transform="translate(-824.61 121.145)" fill="none"/></clipPath><clipPath id="ca"><path d="M721.434-121.1l-.044,15.666c-2.245-.045-5.187-.141-8.128-.16q-11.9-.036-23.794-.06c-8.5-.014-12.322,2.228-12.336,7.2-.009.659-.146,1.329-.274,2.392l.044-15.667c.129-1.063.265-1.732.274-2.391.015-4.97,3.836-7.212,12.336-7.2q11.888.02,23.8.06C716.248-121.239,719.189-121.144,721.434-121.1Z" transform="translate(-676.857 121.317)" fill="none"/></clipPath><clipPath id="cb"><path d="M660.053-90.289l.044-15.666q0,1.8.077,3.6l-.045,15.667Q660.048-88.49,660.053-90.289Z" transform="translate(-660.053 105.955)" fill="none"/></clipPath><clipPath id="cc"><path d="M770.4-102l.044-15.666c-.013,4.282,3,8.205,7.923,11.046a37.935,37.935,0,0,0,17.447,4.524c.416.014.832.021,1.236.021,17.606.1,35.205.1,52.805.131.685,0,1.326-.067,2.244-.116L852.054-86.4c-.917.05-1.559.117-2.243.117-17.6-.036-35.2-.036-52.806-.131-.4,0-.819-.008-1.235-.022a37.924,37.924,0,0,1-17.447-4.524C773.4-93.8,770.388-97.719,770.4-102Z" transform="translate(-770.4 117.667)" fill="none"/></clipPath><clipPath id="cd"><path d="M743.509-115.674l-.044,15.666c-1.385,8.2-13.974,14.162-28.11,13.337l.044-15.666C729.536-101.512,742.124-107.477,743.509-115.674Z" transform="translate(-715.355 115.674)" fill="none"/></clipPath><clipPath id="ce"><path d="M799.724-77.662,799.68-62a65.356,65.356,0,0,0-8.73,2.643l.044-15.666A65.4,65.4,0,0,1,799.724-77.662Z" transform="translate(-790.95 77.662)" fill="none"/></clipPath><clipPath id="cf"><path d="M838.817-58.631l.044-15.666v.086l-.044,15.666Z" transform="translate(-838.817 74.297)" fill="none"/></clipPath><clipPath id="cg"><path d="M677.631-58.7l.044-15.666a8.565,8.565,0,0,1,.566-2.836L678.2-61.531A8.566,8.566,0,0,0,677.631-58.7Z" transform="translate(-677.631 77.197)" fill="none"/></clipPath><clipPath id="ch"><path d="M725.068-74.168,725.024-58.5a7.041,7.041,0,0,0-1.746-1.383,13.8,13.8,0,0,0-6.759-1.614c-12.769-.057-25.537-.028-38.3-.032l.044-15.666c12.762,0,25.531-.025,38.3.032a13.791,13.791,0,0,1,6.759,1.614A7,7,0,0,1,725.068-74.168Z" transform="translate(-678.22 77.201)" fill="none"/></clipPath><clipPath id="ci"><path d="M838.963-73.348l-.044,15.666a3.637,3.637,0,0,0-.1-.86l.044-15.666A3.629,3.629,0,0,1,838.963-73.348Z" transform="translate(-838.817 74.208)" fill="none"/></clipPath><clipPath id="cj"><path d="M660.869-61.251l.044-15.666c0,1.5.037,3,.164,4.491l-.044,15.667C660.906-58.253,660.864-59.749,660.869-61.251Z" transform="translate(-660.869 76.917)" fill="none"/></clipPath><clipPath id="ck"><path d="M790.881-74.912l-.044,15.666c-1.677.9-2.678,2.132-2.788,3.454l.045-15.666C788.2-72.78,789.205-74.015,790.881-74.912Z" transform="translate(-788.049 74.912)" fill="none"/></clipPath><clipPath id="cl"><path d="M770.911-69.831l-.044,15.666c-.033-.294-.046-.584-.054-.878l.044-15.667C770.865-70.416,770.879-70.125,770.911-69.831Z" transform="translate(-770.813 70.71)" fill="none"/></clipPath><clipPath id="cm"><path d="M745.4-70.93l-.044,15.667a8.991,8.991,0,0,1-.063,1.037l.044-15.667A8.951,8.951,0,0,0,745.4-70.93Z" transform="translate(-745.292 70.93)" fill="none"/></clipPath><clipPath id="cn"><path d="M728.97-70.039l-.044,15.666a13.081,13.081,0,0,0-2-4.006l.044-15.666A13.045,13.045,0,0,1,728.97-70.039Z" transform="translate(-726.928 74.045)" fill="none"/></clipPath><clipPath id="co"><path d="M788-51.436l.045-15.666q.006-2.109.045-4.216l-.045,15.666Q788.007-53.545,788-51.436Z" transform="translate(-788.002 71.318)" fill="none"/></clipPath><clipPath id="cp"><path d="M853.213-75.283l-.044,15.667c0,1.121-.043,2.247-.138,3.37-.675,7.386-10.774,13.29-23.516,13.751-12.369.357-24.835-.187-37.947-.351l.044-15.666c13.113.162,25.578.708,37.947.351,12.741-.461,22.841-6.366,23.515-13.751C853.169-73.035,853.21-74.161,853.213-75.283Z" transform="translate(-791.568 75.283)" fill="none"/></clipPath><clipPath id="cq"><path d="M689.807-58.209l-.045,15.666c-8.072.329-15.589-1.445-20.928-4.527-4.271-2.467-7.148-5.772-7.794-9.506l.044-15.667c.646,3.735,3.523,7.041,7.795,9.507C674.217-59.654,681.734-57.88,689.807-58.209Z" transform="translate(-661.04 72.243)" fill="none"/></clipPath><clipPath id="cr"><path d="M711.788-61.124l-.044,15.667c0,1.5-.043,2.993-.137,4.489-.015.228-.023.452-.023.67l.044-15.666q0-.329.023-.67C711.745-58.13,711.783-59.627,711.788-61.124Z" transform="translate(-711.583 61.124)" fill="none"/></clipPath><clipPath id="cs"><path d="M695.175-41.727l.045-15.666c-.006,1.874.056,3.747.222,5.617L695.4-36.111C695.232-37.981,695.17-39.853,695.175-41.727Z" transform="translate(-695.175 57.393)" fill="none"/></clipPath><clipPath id="ct"><path d="M820.975-52.993l-.044,15.666c-.015,5.52-5.476,10.609-14.221,13.024l.045-15.667C815.5-42.384,820.959-47.473,820.975-52.993Z" transform="translate(-806.709 52.993)" fill="none"/></clipPath><clipPath id="cu"><path d="M716.075-38.857l-.044,15.666a33.391,33.391,0,0,1-13.511-3.977c-3.946-2.278-6.552-5.326-7.113-8.714l.044-15.666c.561,3.387,3.166,6.435,7.113,8.714A33.391,33.391,0,0,0,716.075-38.857Z" transform="translate(-695.407 51.548)" fill="none"/></clipPath><clipPath id="cv"><path d="M771.477-39.177l-.044,15.666a8.059,8.059,0,0,1-.216-1.4c-.128-9.741-.318-19.482-.348-29.216l.044-15.666c.031,9.733.22,19.474.348,29.215A8.057,8.057,0,0,0,771.477-39.177Z" transform="translate(-770.869 69.795)" fill="none"/></clipPath><clipPath id="cw"><path d="M806.354-39.44l-.045,15.667a41.432,41.432,0,0,1-9.83,1.583l.044-15.666A41.4,41.4,0,0,0,806.354-39.44Z" transform="translate(-796.479 39.44)" fill="none"/></clipPath><clipPath id="cx"><path d="M795.545-37.8,795.5-22.132c-7.905.167-15.857-.06-24.045-.135l.044-15.666C779.689-37.858,787.64-37.631,795.545-37.8Z" transform="translate(-771.456 37.932)" fill="none"/></clipPath><clipPath id="cy"><path d="M744.241-37.646,744.2-21.98c-9.117.046-18.243-.181-27.326-.695l.044-15.666C726-37.827,735.124-37.6,744.241-37.646Z" transform="translate(-716.87 38.341)" fill="none"/></clipPath></defs><g transform="translate(0.341 0.341)"><g transform="translate(0.021 468.293)"><path d="M712.41,429.521h0Z" transform="translate(0 -429.521)" fill="url(#a)"/></g><g transform="translate(168.482 87.854)"><path d="M982.426-128.39a3.707,3.707,0,0,1,3.354,0L1110-56.2a1.029,1.029,0,0,1-.011,1.947,3.7,3.7,0,0,1-3.362,0L982.409-126.446C981.487-126.982,981.491-127.85,982.426-128.39Z" transform="translate(-629.591 250.265)" fill="url(#b)" style="mix-blend-mode:overlay;isolation:isolate"/><path d="M506.665,20.49a2.656,2.656,0,0,1,2.408,0l89.206,51.84a.739.739,0,0,1-.009,1.4,2.651,2.651,0,0,1-2.414,0L506.652,21.886C505.991,21.5,505.994,20.878,506.665,20.49Z" transform="translate(-441.672 321.683)" fill="url(#b)" style="mix-blend-mode:overlay;isolation:isolate"/><path d="M759.764-350.534a2.653,2.653,0,0,1,2.408,0l89.206,51.84a.739.739,0,0,1-.008,1.4,2.651,2.651,0,0,1-2.414,0l-89.205-51.841C759.09-349.524,759.093-350.147,759.764-350.534Z" transform="translate(-594.219 381.311)" fill="url(#b)" style="mix-blend-mode:overlay;isolation:isolate"/><path d="M934.513-201.7a2.659,2.659,0,0,1,2.408,0l89.207,51.84a.74.74,0,0,1-.009,1.4,2.656,2.656,0,0,1-2.414,0L934.5-200.308C933.839-200.693,933.842-201.317,934.513-201.7Z" transform="translate(-676.35 250.026)" fill="url(#b)" style="mix-blend-mode:overlay;isolation:isolate"/><path d="M1005.358-45.41a3.7,3.7,0,0,1,3.354,0l124.223,72.189a1.03,1.03,0,0,1-.01,1.948,3.7,3.7,0,0,1-3.362,0L1005.34-43.466C1004.418-44,1004.422-44.871,1005.358-45.41Z" transform="translate(-788.791 366.574)" fill="url(#b)" style="mix-blend-mode:overlay;isolation:isolate"/><path d="M846.661-158.253a3.706,3.706,0,0,1,3.354,0L974.237-86.066a1.03,1.03,0,0,1-.011,1.948,3.7,3.7,0,0,1-3.362,0L846.643-156.309C845.721-156.845,845.725-157.713,846.661-158.253Z" transform="translate(-583.786 274.762)" fill="url(#b)"/><path d="M516.359-336.088a3.706,3.706,0,0,1,3.354,0L643.935-263.9a1.03,1.03,0,0,1-.01,1.948,3.705,3.705,0,0,1-3.362,0L516.341-334.144C515.419-334.68,515.423-335.548,516.359-336.088Z" transform="translate(-487.618 336.49)" fill="url(#b)"/><path d="M570.659-84.315a3.7,3.7,0,0,1,3.354,0L698.235-12.128a1.03,1.03,0,0,1-.011,1.948,3.7,3.7,0,0,1-3.362,0L570.641-82.371C569.719-82.908,569.723-83.776,570.659-84.315Z" transform="translate(-569.953 271.056)" fill="url(#b)" style="mix-blend-mode:overlay;isolation:isolate"/><path d="M690.214,17.753a3.707,3.707,0,0,1,3.354,0L817.791,89.94a1.03,1.03,0,0,1-.011,1.948,3.7,3.7,0,0,1-3.362,0L690.2,19.7C689.275,19.161,689.279,18.292,690.214,17.753Z" transform="translate(-571.793 276.502)" fill="url(#b)"/><path d="M417.359-103.267a3.7,3.7,0,0,1,3.354,0L544.935-31.08a1.029,1.029,0,0,1-.01,1.947,3.7,3.7,0,0,1-3.362,0L417.341-101.324C416.419-101.86,416.423-102.728,417.359-103.267Z" transform="translate(-405.997 364.948)" opacity="0.4" fill="url(#b)"/></g><g transform="translate(0)"><g transform="translate(58.872 82.238)"><g transform="translate(83.893 86.629)"><g transform="translate(34.266 34.284)"><path d="M599.768-152.47l-.008,1.652-5.836-.005-.021,3.385h-2.85l.036-5.032Z" transform="translate(-579.561 159.155)" fill="url(#l)"/><path d="M578.983-159.507l8.687.005-.018,1.647h-5.83l-.027,3.38-2.841.005Z" transform="translate(-578.954 159.507)" fill="url(#l)"/><path d="M593.719-155.986l-.008,1.652-5.837-.005-.02,3.387-2.851,0,.029-5.037Z" transform="translate(-579.258 159.331)" fill="url(#l)"/></g><rect width="88.681" height="80.246" fill="url(#o)"/></g><g transform="translate(39.439)"><g transform="translate(34.228 34.209)"><path d="M552.927-243.748l-.009,1.651-5.835-.005-.021,3.386h-2.85l.036-5.032Z" transform="translate(-532.72 250.433)" fill="url(#l)"/><path d="M532.141-250.786l8.688.005-.018,1.647h-5.83l-.027,3.38-2.841.005Z" transform="translate(-532.114 250.786)" fill="url(#l)"/><path d="M546.878-247.265l-.009,1.652-5.836-.006-.019,3.388-2.851,0,.029-5.037Z" transform="translate(-532.417 250.61)" fill="url(#l)"/></g><rect width="88.681" height="80.246" fill="url(#o)"/></g><g transform="translate(130.172 53.573)"><g transform="translate(34.212 34.363)"><path d="M648.431-187.186l-.008,1.652-5.836-.005-.02,3.384h-2.85l.037-5.031Z" transform="translate(-628.224 193.871)" fill="url(#l)"/><path d="M627.646-194.224l8.687.006-.018,1.646h-5.83l-.026,3.379-2.842.006Z" transform="translate(-627.617 194.224)" fill="url(#l)"/><path d="M642.382-190.7l-.009,1.652-5.837-.005-.019,3.386-2.85,0,.028-5.036Z" transform="translate(-627.921 194.048)" fill="url(#l)"/></g><rect width="88.681" height="80.474" fill="url(#o)"/></g><g transform="translate(150.233 94.836)"><g transform="translate(34.358 34.234)"><path d="M669.7-143.882l-.008,1.652-5.836-.006-.02,3.385h-2.851l.037-5.031Z" transform="translate(-649.497 150.567)" fill="url(#l)"/><path d="M648.92-150.92l8.687.005-.018,1.647h-5.83l-.026,3.379-2.842.006Z" transform="translate(-648.891 150.92)" fill="url(#l)"/><path d="M663.656-147.4l-.009,1.652-5.837-.006-.019,3.387-2.85,0,.028-5.036Z" transform="translate(-649.194 150.744)" fill="url(#l)"/></g><rect width="88.909" height="80.246" fill="url(#o)"/></g><g transform="translate(0 40.123)"><g transform="translate(34.327 34.237)"><path d="M511.512-201.478l-.008,1.652-5.836-.006-.02,3.386H502.8l.037-5.032Z" transform="translate(-491.305 208.163)" fill="url(#l)"/><path d="M490.727-208.516l8.687.005-.019,1.647h-5.829l-.027,3.38-2.841.005Z" transform="translate(-490.698 208.516)" fill="url(#l)"/><path d="M505.463-204.995l-.008,1.652-5.837-.006-.02,3.388-2.85,0,.029-5.037Z" transform="translate(-491.002 208.34)" fill="url(#l)"/></g><rect width="88.909" height="80.246" fill="url(#o)"/></g><g transform="translate(78.194 54.485)"><g transform="translate(34.22 34.272)"><path d="M593.718-186.322l-.008,1.652-5.836-.005-.02,3.385H585l.036-5.032Z" transform="translate(-573.512 193.007)" fill="url(#l)"/><path d="M572.933-193.36l8.687.006-.018,1.647h-5.83l-.027,3.379-2.84.005Z" transform="translate(-572.906 193.36)" fill="url(#l)"/><path d="M587.669-189.838l-.009,1.652-5.837-.006L581.8-184.8l-2.85,0,.028-5.037Z" transform="translate(-573.209 193.184)" fill="url(#l)"/></g><rect width="88.681" height="80.246" fill="url(#o)"/></g><path d="M466.118-210.482l72.869-42.069c5.269-3.042,13.784-3.046,19.026,0l167.662,97.435c5.241,3.044,5.215,7.98-.056,11.024l-72.87,42.069c-5.269,3.044-13.79,3.042-19.031,0L466.056-199.461C460.816-202.507,460.848-207.439,466.118-210.482Z" transform="translate(-454.94 285.198)" fill="url(#aj)" style="mix-blend-mode:overlay;isolation:isolate"/><path d="M568.125-217.825l16.032-9.255,107.509,63.91-16.032,9.256Z" transform="translate(-460.252 283.807)" fill="url(#ak)" style="mix-blend-mode:overlay;isolation:isolate"/><path d="M523.616-213.651l10.895-6.29L619.424-169.3l-10.895,6.289Z" transform="translate(-458.021 283.449)" fill="url(#ak)" style="mix-blend-mode:overlay;isolation:isolate"/><path d="M530.386-182.15l10.895-6.29L626.193-137.8l-10.9,6.289Z" transform="translate(-458.36 281.87)" fill="url(#ak)" style="mix-blend-mode:overlay;isolation:isolate"/></g><line x1="544.592" y1="314.421" transform="translate(0.021 153.872)" fill="none" stroke="#01fcfe" stroke-linecap="round" stroke-linejoin="round" stroke-width="0.5" stroke-dasharray="1 9"/><line x1="620.932" y1="352.074" fill="none" stroke="#01fcfe" stroke-linecap="round" stroke-linejoin="round" stroke-width="0.5" stroke-dasharray="1 9"/><g transform="translate(356.655 284.263)"><g transform="translate(51.697 7.937)"><g transform="translate(83.893 86.629)"><g transform="translate(34.209 34.301)"><path d="M967.627,68.588l-.008,1.651-5.836,0-.021,3.385h-2.85l.036-5.031Z" transform="translate(-947.42 -61.904)" fill="url(#an)"/><path d="M946.842,61.551l8.686,0-.017,1.647h-5.83l-.027,3.38-2.841.006Z" transform="translate(-946.814 -61.551)" fill="url(#an)"/><path d="M961.578,65.073l-.009,1.651-5.837-.006-.019,3.388-2.851,0,.029-5.037Z" transform="translate(-947.117 -61.728)" fill="url(#an)"/></g><g transform="translate(0 0)"><rect width="88.681" height="80.246" fill="url(#o)"/></g></g><g transform="translate(39.211)"><g transform="translate(34.398 34.226)"><path d="M920.787-22.691l-.009,1.652-5.835-.006-.021,3.386h-2.85l.036-5.032Z" transform="translate(-900.579 29.375)" fill="url(#an)"/><path d="M900-29.728l8.688.006-.018,1.646h-5.83l-.027,3.38-2.841.006Z" transform="translate(-899.973 29.728)" fill="url(#an)"/><path d="M914.738-26.207l-.009,1.651-5.837,0-.02,3.387-2.85,0,.028-5.037Z" transform="translate(-900.276 29.552)" fill="url(#an)"/></g><rect width="88.909" height="80.246" fill="url(#o)"/></g><g transform="translate(129.944 53.573)"><g transform="translate(34.383 34.38)"><path d="M1016.29,33.872l-.009,1.651-5.835,0-.021,3.385h-2.849l.037-5.031Z" transform="translate(-996.083 -27.187)" fill="url(#an)"/><path d="M995.5,26.835l8.688,0-.018,1.647h-5.83l-.026,3.379-2.842.006Z" transform="translate(-995.477 -26.835)" fill="url(#an)"/><path d="M1010.242,30.356l-.009,1.651L1004.4,32l-.02,3.387-2.85,0,.028-5.036Z" transform="translate(-995.78 -27.011)" fill="url(#an)"/></g><g transform="translate(0 0)"><rect width="88.909" height="80.474" fill="url(#o)"/></g></g><g transform="translate(150.233 94.836)"><g transform="translate(34.3 34.251)"><path d="M1037.564,77.176l-.009,1.651-5.835-.006-.021,3.385h-2.85l.037-5.03Z" transform="translate(-1017.357 -70.491)" fill="url(#an)"/><path d="M1016.778,70.138l8.688.006-.018,1.646h-5.83l-.026,3.379-2.842.007Z" transform="translate(-1016.75 -70.138)" fill="url(#an)"/><path d="M1031.515,73.659l-.009,1.651-5.837,0-.02,3.386-2.85,0,.028-5.036Z" transform="translate(-1017.053 -70.314)" fill="url(#an)"/></g><g transform="translate(0 0)"><rect width="88.909" height="80.246" fill="url(#o)"/></g></g><g transform="translate(0 40.123)"><g transform="translate(34.27 34.254)"><path d="M879.371,19.58l-.008,1.651-5.836,0-.021,3.385h-2.851l.037-5.031Z" transform="translate(-859.164 -12.894)" fill="url(#an)"/><path d="M858.587,12.542l8.687.006-.018,1.647h-5.829l-.027,3.38-2.841,0Z" transform="translate(-858.558 -12.542)" fill="url(#an)"/><path d="M873.323,16.064l-.008,1.651-5.838-.006-.02,3.388-2.85,0,.029-5.037Z" transform="translate(-858.861 -12.718)" fill="url(#an)"/></g><g transform="translate(0 0)"><rect width="88.681" height="80.246" fill="url(#o)"/></g></g><g transform="translate(77.966 54.485)"><g transform="translate(34.39 34.29)"><path d="M961.578,34.736l-.009,1.651-5.835,0-.021,3.386h-2.85l.036-5.032Z" transform="translate(-941.371 -28.052)" fill="url(#an)"/><path d="M940.792,27.7l8.688.006-.018,1.647h-5.83l-.027,3.379-2.84.006Z" transform="translate(-940.765 -27.699)" fill="url(#an)"/><path d="M955.529,31.221l-.009,1.651-5.836-.006-.02,3.388-2.85,0,.027-5.037Z" transform="translate(-941.068 -27.875)" fill="url(#an)"/></g><g transform="translate(0 0)"><rect width="88.909" height="80.246" fill="url(#o)"/></g></g></g><path d="M772.028-29.763,844.9-71.832c5.269-3.042,13.784-3.046,19.026,0L1031.584,25.6c5.24,3.045,5.215,7.98-.056,11.024L958.658,78.7c-5.269,3.043-13.79,3.043-19.031,0L771.965-18.743C766.726-21.788,766.758-26.72,772.028-29.763Z" transform="translate(-768.88 74.116)" fill="url(#bl)" style="mix-blend-mode:overlay;isolation:isolate"/><path d="M907.964-16.716,924-25.971l107.509,63.91-16.032,9.255Z" transform="translate(-775.068 71.703)" fill="url(#bm)" style="mix-blend-mode:overlay;isolation:isolate"/><path d="M851.528-22.743l10.895-6.29L947.335,21.61,936.44,27.9Z" transform="translate(-772.239 71.856)" fill="url(#bm)" style="mix-blend-mode:overlay;isolation:isolate"/><path d="M881.9,28.369l10.895-6.29L977.7,72.723l-10.895,6.288Z" transform="translate(-773.761 69.295)" fill="url(#bm)" style="mix-blend-mode:overlay;isolation:isolate"/></g></g><g transform="matrix(1, 0.017, -0.017, 1, 253.043, 209.334)"><g transform="translate(0 0)"><path d="M742.056-70.009l.012-4.036c0,.026,0,.052,0,.078.049-4.24-2.917-8.137-7.8-10.955a33.712,33.712,0,0,0-10.672-3.743l.336-.062.462-.093.111-.024.082-.017.265-.056.459-.1.344-.083.071-.016.075-.018c.162-.04.324-.081.484-.123s.32-.085.479-.128l.048-.014.059-.016q.221-.061.438-.124.3-.088.6-.181l.036-.012.011,0c.214-.067.426-.135.636-.206.064-.022.127-.046.192-.068.218-.075.432-.152.647-.23.1-.038.214-.074.318-.113.041-.015.08-.033.12-.048q.624-.238,1.225-.495l.143-.064q.528-.232,1.034-.479c.05-.024.1-.046.154-.071s.118-.063.179-.094q.477-.241.933-.493c.057-.032.117-.06.173-.091l.065-.039c.326-.186.645-.376.953-.572l.011-.006.045-.031c.334-.213.655-.434.969-.659.042-.03.089-.059.131-.089s.06-.05.093-.075q.676-.5,1.28-1.034c.028-.025.06-.047.088-.071s.068-.069.106-.1c.305-.279.6-.562.874-.854l.026-.03c.265-.284.51-.577.744-.873.031-.038.067-.075.1-.113s.062-.089.1-.133c.1-.135.2-.272.293-.409.07-.1.141-.2.208-.307.091-.141.177-.285.261-.43.043-.075.093-.148.135-.223.012-.02.018-.041.03-.061a10.487,10.487,0,0,0,.479-1c.013-.03.031-.058.042-.088.022-.054.036-.11.058-.163q.122-.319.222-.641c.017-.058.042-.112.059-.17.011-.037.016-.075.026-.111.048-.173.086-.348.124-.522.015-.077.039-.152.054-.228l.026-.148c.031-.2.058-.395.077-.6.006-.07.012-.14.016-.211.06-1.285.1-2.569.132-3.854.01-.4.015-.806.022-1.209.01-.506.023-1.013.029-1.518q.009-.918.012-1.836l.044-15.666c0,.173,0,.345-.006.518.017-3.574-.038-7.149-.1-10.725l.039-13.758c-.013.263-.029.547-.048.847l0,.08c.021-.329.039-.64.053-.926-8.54-.361-17.113-.467-25.674-.318-13.531.727-23.6,7.407-23.235,15.161-.007-.143-.016-.286-.016-.429l-.011,3.946-5.711,0c-12.593-.237-23.553,4.888-25.8,12.064a74.814,74.814,0,0,0-.945,15.7q-.082-1.8-.077-3.6l-.044,15.666q-.006,1.8.076,3.6l1.009,0c-.081,3.031-.258,6.011-.252,8.967,0-.11,0-.219,0-.33l-.044,15.666c0,1.5.037,3,.164,4.492.016.1.034.189.054.284.043.213.117.42.175.63.052.188.093.379.157.564.091.267.209.528.322.789.074.17.135.342.218.509.012.022.018.046.03.068a11.652,11.652,0,0,0,.6,1.041c.045.07.09.14.137.21s.1.153.149.229c.119.17.262.332.391.5s.266.355.413.527c.037.043.066.089.1.133.21.241.444.475.675.708.079.08.149.162.23.24.013.013.023.026.037.038q.463.448.975.875c.037.032.081.062.119.093.1.081.2.158.3.237.2.155.386.311.591.461.122.089.255.174.381.261s.253.176.381.262c.1.067.2.138.3.2q.51.33,1.05.642l.062.035c.38.218.772.43,1.173.635.22.112.452.217.679.326.106.05.209.1.316.151.085.04.167.083.253.122q.657.3,1.345.569c.124.049.255.093.38.14.143.056.289.108.434.161.217.08.43.164.651.24.353.122.723.228,1.086.34.214.066.423.137.641.2.078.023.152.05.232.073.651.184,1.319.347,2,.5.163.037.329.071.493.106.743.159,1.5.3,2.268.424.07.011.137.025.208.036q.917.138,1.854.242c.189.021.383.03.574.048.267.026.535.047.805.068s.524.05.79.066q.758.046,1.528.066l.119,0,.134,0c.337.007.675.013,1.017.013q.556,0,1.117-.014.388-.009.776-.025l.044-15.666c-.024-1.067-.047-2.1-.071-3.131h4.229c-.043,1.128-.075,2.256-.078,3.384V-61h0L693.8-45.371c0,1.874.057,3.747.223,5.617.017.106.036.212.059.317.036.179.1.352.146.528s.088.352.146.525c.08.234.181.464.279.694.07.162.13.327.209.487.014.029.023.059.037.086.156.309.336.612.527.912.041.064.083.129.126.193.054.081.1.164.159.244.1.146.227.285.337.43.125.162.246.327.383.486.039.047.07.1.111.142.174.2.367.39.556.583.086.087.162.178.251.264.018.018.034.037.052.055.281.272.579.538.891.8.029.024.061.046.09.07.082.067.17.132.255.2.191.152.379.306.58.453.107.079.223.152.333.229s.229.16.347.238c.1.064.187.133.285.2q.464.3.956.584l.055.032q.518.3,1.065.576c.053.027.109.051.162.077.125.063.255.123.383.184.2.094.386.191.587.282.126.057.258.109.386.163.16.069.319.137.482.2.117.049.23.1.349.148.211.084.431.16.648.24.164.061.327.124.494.183.063.022.123.047.186.069.189.064.39.119.582.182.326.106.651.211.986.308.072.021.14.046.213.067.3.084.607.159.913.236.157.039.309.083.468.121q.83.2,1.69.364c.1.019.207.034.309.053.475.086.954.166,1.441.237.2.029.413.053.621.08.267.034.53.073.8.1.229.025.459.047.69.068q3.348.19,6.7.327c.729.03,1.461.047,2.191.074,1.421.051,2.842.107,4.265.144l.264,0c.606.016,1.213.023,1.82.036,1.557.034,3.114.065,4.672.083.816.01,1.631.01,2.447.014.994.006,1.988.019,2.982.018l1.983-.006.044-15.666-.073-3.79,20.4.055.044-15.666-.054-8.526ZM677.18-78.775c.015-.073.035-.147.053-.221C677.215-78.922,677.2-78.848,677.18-78.775Zm-.168,1.059c0-.019,0-.037,0-.057C677.013-77.754,677.014-77.735,677.012-77.716Zm11.322-26.327-.046-2.745c.176,0,.341-.008.522-.008l4.474.012-.008,2.61.176,14.62c-1.72,0-3.439,0-5.159,0Zm24.863,14.6c-1.612-.027-3.224-.061-4.836-.075l.008-2.48-.18-14.751,4.416.011.643.007-.01,3.027Zm-3.451,26.523c0,.06,0,.119,0,.179,0-.087,0-.175.006-.262Zm.026-1.462c1.343,0,2.686,0,4.029.007l-.028,9.965v1.363c-.283-.128-.566-.256-.819-.4a6.239,6.239,0,0,1-3.2-4.441Zm14.906-52.483a8.5,8.5,0,0,1-3.924,2.908l.023-8.288-.063-3.459c.18,0,.352,0,.536.006.152,0,.312.014.467.021.387.016.778.036,1.185.064.126.008.253.017.38.028.535.04,1.081.087,1.65.148.038,2.684.072,5.38.108,8.069A2.9,2.9,0,0,1,724.678-116.863Zm16.766-31.306,0,.054c0-.1.01-.21.015-.313C741.452-148.343,741.448-148.254,741.444-148.168Zm-.044,1.046,0,.077c0-.116,0-.233.008-.348C741.4-147.3,741.4-147.212,741.4-147.122Zm.2,24.211q0,.228-.009.455c0-.213.007-.426.011-.638C741.6-123.033,741.6-122.971,741.6-122.911Zm-48.845-11.5c-.039-.246-.066-.492-.085-.736C692.684-134.9,692.711-134.652,692.75-134.406ZM660.907-78.019c.006.218.01.435.017.652C660.917-77.584,660.913-77.8,660.907-78.019Zm32.97,18.807c.008.331,0,.663.017.994C693.882-58.549,693.885-58.881,693.877-59.212Z" transform="translate(-660.053 150.757)" fill="#06f"/><path d="M851.132-87.685l.081,0,.045-15.666c-.062-4.279-.1-8.473-.187-12.656-.031-4.29-3.058-8.174-7.927-10.986s-11.615-4.56-19.043-4.557c-.856,0-1.707.025-2.556.071l-.044,15.666c.052.662.113,1.3.17,1.929l0,1.192-3.628-.008.041-14.659c0,.164-.006.33-.007.494.017-3.213-.037-6.427-.311-9.637-.4-3.719-3.169-7.082-7.473-9.567a35.046,35.046,0,0,0-14.57-4.184c-8.711-.616-17.607-.365-25.741-.506l-.044,15.666.055,3.9-21.065-.048-.044,15.666.047,8.359,20.644.051-.011,3.872c0,.3.015.589.043.88.009.1.025.188.036.283.025.2.054.395.091.59.008.042.011.086.019.128s.027.086.038.131a9.62,9.62,0,0,0,.316,1.131l.012.027a10.258,10.258,0,0,0,.466,1.086c.02.041.033.085.054.126s.046.081.067.121c.066.128.138.255.211.382s.134.235.206.353.16.25.243.374c.054.08.1.161.158.241.017.024.038.047.056.071.242.341.507.676.789,1.005.024.028.042.058.066.085.037.043.082.084.12.126q.347.391.731.768c.033.033.061.066.093.1.013.012.026.022.037.034.276.264.566.524.868.777.025.021.046.043.071.063.057.048.121.092.179.14.221.18.447.357.68.53.055.041.1.085.16.125s.1.067.149.1c.233.167.473.332.717.493.066.044.128.09.2.134l.069.042c.319.2.645.406.982.6l.061.036q.568.326,1.17.633c.113.058.234.11.349.167.137.067.278.134.418.2.159.076.314.156.478.23.326.147.663.285,1,.423.084.035.164.072.249.106.03.012.057.025.087.036q.711.283,1.454.538c.076.026.157.047.232.073.275.092.559.175.84.262.3.091.582.191.884.277.128.036.26.065.389.1.191.051.384.1.578.149q.768.2,1.562.364c.175.037.346.077.523.111.07.014.137.031.208.044-10.506,2.085-18.03,7.861-17.962,14.66l-.044,15.667c.008.294.021.584.054.878.031,9.734.22,19.475.348,29.216a4.021,4.021,0,0,0,.077.692c.015.083.027.155.043.234l0,.023.013.06c.028.135.059.277.08.393q3.024.029,6.009.075,2.29.033,4.563.062c.668.009,1.339.017,2,.024q2.646.029,5.276.033h.324q2.942,0,5.869-.06l.162-.007q.431-.02.861-.048.388-.026.774-.058c.236-.02.474-.041.709-.065l.039,0,.022,0q.3-.03.59-.064t.605-.074q.283-.036.565-.077t.535-.081l.167-.027.053-.009c.1-.015.2-.031.293-.048q.248-.042.493-.086c.161-.029.32-.059.48-.09s.315-.062.472-.094l.466-.1.179-.04.045-.011.24-.054c.158-.037.315-.075.473-.113s.321-.08.48-.121.338-.088.506-.135.36-.1.539-.153l.082-.023q.255-.071.505-.144c.192-.056.382-.113.57-.172.152-.046.3-.1.45-.144l.123-.04c.042-.014.087-.027.128-.041.3-.1.6-.2.887-.311.078-.029.149-.061.227-.09.248-.094.489-.192.731-.291s.483-.2.718-.3.461-.21.689-.318c.157-.074.321-.143.474-.219.073-.037.14-.076.212-.112.185-.093.362-.19.541-.286.145-.078.3-.153.439-.233.094-.053.181-.11.273-.163q.212-.124.418-.25c.1-.064.214-.125.317-.19s.212-.147.321-.219c.184-.12.364-.242.539-.366.08-.057.165-.109.243-.165s.127-.107.2-.158q.558-.418,1.061-.858c.057-.049.124-.1.18-.145.023-.02.042-.042.065-.063.224-.2.431-.414.639-.625.091-.093.19-.184.279-.278q.43-.461.8-.939l.006-.007c.214-.277.41-.558.595-.844.057-.087.108-.177.161-.265.082-.135.169-.267.244-.4.03-.054.05-.109.078-.162.115-.217.217-.437.315-.657.042-.1.1-.19.137-.287.015-.04.026-.082.041-.121.054-.138.1-.279.145-.418s.1-.259.134-.39c.016-.059.026-.117.041-.175.029-.109.053-.217.077-.325s.056-.213.076-.321.031-.223.047-.335c.013-.087.027-.175.037-.262.006-.052.016-.1.021-.155q.035-.352.037-.707v-.068l.012-4.179h.239l.295,0c.192,0,.383-.007.576-.007q3.021-.007,6.028-.071c.29-.007.582,0,.872-.011l1.155-.031c.2-.008.4-.015.592-.026.163-.008.325-.018.486-.028l.157-.009.086-.006c.238-.015.475-.034.71-.053l.236-.021.179-.016.242-.022q.327-.033.651-.069l.115-.014.137-.017c.116-.013.234-.027.349-.042.178-.023.354-.047.529-.072l.126-.018.106-.016.293-.043.52-.085.191-.034.092-.016.181-.032.458-.086.383-.077.035-.007.036-.007c.152-.032.3-.063.453-.1s.309-.068.462-.1l.078-.018.071-.017.308-.074.453-.114.179-.048.121-.033.2-.053q.278-.076.552-.157l.145-.043.138-.042.261-.079c.177-.055.35-.112.525-.17.053-.017.108-.034.161-.052l.047-.015c.262-.087.52-.18.776-.273l.112-.039.007,0,.022-.009c.427-.158.841-.326,1.249-.5l.289-.123c.407-.177.805-.358,1.193-.549l.033-.015c.036-.017.07-.037.107-.056.333-.166.657-.338.975-.514.05-.028.1-.054.154-.082s.081-.049.122-.073c.286-.164.566-.331.838-.5l.091-.054.015-.012c.341-.216.667-.441.984-.67.038-.028.08-.053.116-.08s.049-.041.076-.061q.677-.5,1.278-1.034c.025-.022.054-.041.078-.063s.04-.04.061-.06q.44-.4.835-.818l.15-.161c.265-.289.52-.582.752-.883l.007-.008c.019-.026.037-.053.056-.079.147-.193.288-.389.421-.587.051-.076.1-.152.146-.229.1-.155.194-.309.284-.466.021-.038.047-.076.069-.114s.029-.065.046-.1a10.325,10.325,0,0,0,.474-.987c.006-.012.013-.025.018-.037.016-.04.027-.083.042-.123.089-.226.168-.455.237-.684.013-.044.033-.086.046-.131s.016-.078.027-.115c.05-.184.093-.369.132-.554.012-.057.029-.111.039-.168,0-.018,0-.037.008-.056.036-.2.061-.394.083-.593,0-.043.015-.086.018-.129l0-.029c.045-.534.076-1.069.1-1.6.007-.179.009-.356.014-.535.008-.283.019-.567.022-.85q0-.19,0-.381l.044-15.667c0,.347-.012.694-.021,1.042C851.61-80.764,851.28-84.315,851.132-87.685Zm.374,11.168v.051c-.022.534-.054,1.069-.1,1.6C851.453-75.414,851.483-75.966,851.505-76.517ZM806.7-44.493c.288-.1.575-.2.855-.312-.061.023-.117.048-.177.07C807.161-44.651,806.932-44.572,806.7-44.493Zm1.656-.635q.352-.147.694-.3h0c-.076.034-.148.07-.224.1C808.678-45.257,808.517-45.193,808.361-45.128Zm-6.481-89.829ZM823.091-79.41l-.026,9.1c-1.648,0-3.3,0-4.949-.008l.008-2.783-.172-14.525c1.777,0,3.553.013,5.329.016ZM786.753-59.7c.018-.042.041-.085.06-.127.045-.1.094-.192.149-.286.064-.111.138-.219.215-.326.037-.053.071-.107.111-.158a5.046,5.046,0,0,1,.545-.582c.063-.059.129-.115.2-.172.086-.073.174-.144.266-.214.111-.086.227-.169.348-.25.032-.02.061-.042.091-.062.181-.116.37-.228.57-.335.215-.083.439-.158.656-.237-.006.329-.012.664-.018.986l-.028,9.935c-.979-.022-2.012-.062-3.145-.131-.039-2.56-.09-5.123-.137-7.685A3.2,3.2,0,0,1,786.753-59.7ZM803-87.681,803-85.136l.22,14.776-5.166-.014.029-10.145-.1-7.178C799.658-87.689,801.331-87.688,803-87.681Zm31.78-28.576c-.007-.05-.015-.1-.022-.148.011.071.024.142.033.214C834.792-116.212,834.788-116.234,834.785-116.257Zm-.231-1.043c.017.051.027.106.042.158C834.581-117.194,834.571-117.248,834.554-117.3Zm-.368-.85c.008.012.012.027.018.039C834.2-118.123,834.194-118.137,834.186-118.15Zm-1.28-1.493.039.031Zm-14.953,1.416q.02-1.771.055-3.544Q817.976-120,817.953-118.227Zm-.006.487c0-.046,0-.093,0-.14C817.948-117.833,817.948-117.785,817.948-117.739Zm-18.769-5.683c.053.035.1.071.156.107.128.088.25.18.369.273.046.036.093.071.138.108.158.129.309.26.451.4l0,0c.144.139.277.283.4.429.059.068.11.139.164.209.067.086.137.171.2.259a4.848,4.848,0,0,1,.332.552,4.262,4.262,0,0,1,.22.514c.017.047.025.1.04.143a3.951,3.951,0,0,1,.11.4v0l0,1.464q.049,2.909.066,5.818l-2.372,0c-.584,0-1.138-.011-1.675-.024l.029-9.994-.014-1.434.035.016c.285.135.561.275.821.425C798.831-123.649,799.007-123.537,799.178-123.422Zm34.5,4.534c-.015-.019-.029-.038-.045-.058C833.646-118.927,833.659-118.908,833.675-118.889ZM806.173-44.3l-.032.012-.122.039c-.5.162-1,.317-1.525.46Q805.356-44.029,806.173-44.3Z" transform="translate(-663.525 150.763)" fill="#06f"/></g><g style="mix-blend-mode:screen;isolation:isolate"><g style="isolation:isolate"><g transform="translate(81.288 0.528)" style="isolation:isolate"><g clip-path="url(#bp)"><g style="isolation:isolate"><path d="M744.871-150.214l-.045,15.666c-.044,1-.164,2.3-.178,3.624l.044-15.666c.014-1.324.134-2.623.179-3.624" transform="translate(-744.647 150.214)" fill="#e0e0e0"/><path d="M744.692-146.443l-.044,15.666c0,.062,0,.125,0,.187l.044-15.667c0-.062,0-.124,0-.186" transform="translate(-744.647 150.067)" fill="#dbdbdb"/></g></g></g><g transform="translate(121.026 9.231)" style="isolation:isolate"><g clip-path="url(#bq)"><g style="isolation:isolate"><path d="M791.495-140.833l-.044,15.667-.328-.007.044-15.666.328.006" transform="translate(-786.202 141.145)" fill="#a3a3a3"/><path d="M791.123-140.841l-.044,15.666c-.342-.009-.693-.026-1.081-.049l.044-15.666c.388.023.739.04,1.081.049" transform="translate(-786.158 141.147)" fill="#9e9e9e"/><path d="M789.886-140.9l-.044,15.666c-.934-.056-2.084-.149-3.84-.257l.044-15.666c1.756.108,2.906.2,3.84.257" transform="translate(-786.002 141.157)" fill="#999"/></g></g></g><g transform="translate(126.275 9.504)" style="isolation:isolate"><g clip-path="url(#br)"><g transform="translate(0 0)" style="isolation:isolate"><path d="M804.03-134.348l-.044,15.666a3.627,3.627,0,0,0-.074-.731l-.006-.03.044-15.667.006.03a3.57,3.57,0,0,1,.074.732" transform="translate(-791.95 140.648)" fill="#dbdbdb"/><path d="M803.935-135.152l-.044,15.667a4.076,4.076,0,0,0-.363-1.027l.045-15.667a4.147,4.147,0,0,1,.362,1.027" transform="translate(-791.936 140.69)" fill="#d6d6d6"/><path d="M803.559-136.2l-.045,15.667a4.663,4.663,0,0,0-.357-.593L803.2-136.8a4.94,4.94,0,0,1,.357.593" transform="translate(-791.921 140.714)" fill="#d1d1d1"/><path d="M803.186-136.815l-.044,15.667a5.419,5.419,0,0,0-.364-.464l.044-15.667a5.744,5.744,0,0,1,.364.464" transform="translate(-791.906 140.733)" fill="#ccc"/><path d="M802.807-137.3l-.044,15.667c-.118-.135-.244-.267-.378-.4l.045-15.666c.134.129.258.261.377.4" transform="translate(-791.891 140.749)" fill="#c7c7c7"/><path d="M802.414-137.705l-.045,15.666c-.124-.119-.254-.236-.391-.351l.044-15.666q.206.172.392.351" transform="translate(-791.875 140.763)" fill="#c2c2c2"/><path d="M802.006-138.069l-.044,15.666c-.13-.109-.266-.214-.407-.318l.044-15.666c.141.1.278.209.407.318" transform="translate(-791.858 140.776)" fill="#bdbdbd"/><path d="M801.581-138.4l-.044,15.666c-.137-.1-.279-.2-.426-.292l.044-15.667q.221.143.426.293" transform="translate(-791.841 140.788)" fill="#b8b8b8"/><path d="M801.137-138.7l-.044,15.667q-.2-.133-.423-.258l-.024-.013.044-15.667.024.014c.145.084.286.17.423.258" transform="translate(-791.823 140.799)" fill="#b3b3b3"/><path d="M800.671-138.985l-.044,15.667c-.153-.088-.31-.173-.472-.256l.044-15.666q.242.124.472.255" transform="translate(-791.804 140.809)" fill="#adadad"/><path d="M800.179-139.25l-.044,15.666q-.245-.124-.5-.241l.045-15.666c.171.078.338.158.5.241" transform="translate(-791.783 140.819)" fill="#a8a8a8"/><path d="M799.655-139.5l-.045,15.666c-.176-.079-.357-.156-.541-.229l.045-15.666c.184.073.364.149.541.229" transform="translate(-791.761 140.828)" fill="#a3a3a3"/><path d="M799.09-139.738l-.045,15.666q-.29-.115-.594-.22l.044-15.666q.3.105.595.22" transform="translate(-791.737 140.837)" fill="#9e9e9e"/><path d="M798.463-139.968l-.044,15.666c-.259-.088-.525-.172-.8-.248l.044-15.666c.272.076.537.16.8.248" transform="translate(-791.705 140.847)" fill="#999"/><path d="M797.556-140.237l-.044,15.666a16.766,16.766,0,0,0-2.726-.523l.044-15.667a16.761,16.761,0,0,1,2.726.524" transform="translate(-791.594 140.869)" fill="#949494"/><path d="M794.795-140.764l-.044,15.667c-.286-.032-.577-.056-.87-.074l.044-15.666c.293.017.583.042.87.073" transform="translate(-791.558 140.872)" fill="#999"/><path d="M793.9-140.838l-.044,15.666c-.206-.012-.413-.021-.622-.027l.045-15.666c.208,0,.415.014.621.027" transform="translate(-791.533 140.873)" fill="#9e9e9e"/><path d="M793.259-140.865l-.045,15.666c-.168,0-.338-.007-.508-.007l.045-15.667c.17,0,.339,0,.508.008" transform="translate(-791.513 140.873)" fill="#a3a3a3"/><path d="M792.732-140.873l-.045,15.667c-.148,0-.3,0-.446,0l.044-15.666c.149,0,.3,0,.447-.006" transform="translate(-791.495 140.873)" fill="#a8a8a8"/><path d="M792.269-140.867l-.044,15.666-.4.014.044-15.666c.135-.007.27-.011.4-.014" transform="translate(-791.478 140.873)" fill="#adadad"/><path d="M791.85-140.852l-.044,15.666c-.114.006-.228.012-.342.019l.044-15.667c.114-.007.229-.013.342-.018" transform="translate(-791.464 140.872)" fill="#b3b3b3"/></g></g></g><g transform="translate(106.642 16.549)"><path d="M786.811-133.541l-.044,15.666-15.734,0,.044-15.666Z" transform="translate(-771.032 133.541)" fill="#a7a7a7"/></g><g transform="translate(106.408)"><path d="M771.067-134.211l-.044,15.666-.234-16.552.044-15.666Z" transform="translate(-770.789 150.763)" fill="#d7d7d7"/></g><g transform="translate(32.543 14.942)" style="isolation:isolate"><g clip-path="url(#bs)"><g style="isolation:isolate"><path d="M694.074-133.8l-.044,15.666a8.765,8.765,0,0,1-.11-1.408l.044-15.667a8.86,8.86,0,0,0,.11,1.409" transform="translate(-693.919 135.213)" fill="#dbdbdb"/></g></g></g><g transform="translate(48.418 9.376)" style="isolation:isolate"><g clip-path="url(#bt)"><g transform="translate(0 -0.001)" style="isolation:isolate"><path d="M727.518-140.722l-.044,15.666q-1.254-.133-2.4-.2l.044-15.666q1.147.071,2.4.2" transform="translate(-711.012 141.004)" fill="#999"/><path d="M725.06-140.929l-.044,15.666q-.726-.045-1.411-.063l.044-15.666q.685.019,1.411.063" transform="translate(-710.955 141.006)" fill="#9e9e9e"/><path d="M723.61-140.993l-.044,15.666q-.492-.013-.961-.013l.044-15.667c.313,0,.633,0,.961.014" transform="translate(-710.916 141.007)" fill="#a3a3a3"/><path d="M722.618-141.007l-.044,15.667c-.265,0-.525,0-.78.009L721.837-141c.256-.007.515-.01.78-.01" transform="translate(-710.884 141.007)" fill="#a8a8a8"/><path d="M721.815-141l-.044,15.666c-.189,0-.376.011-.559.019l.044-15.666c.183-.009.37-.015.559-.019" transform="translate(-710.861 141.007)" fill="#adadad"/><path d="M721.233-140.977l-.044,15.666c-.185.008-.365.018-.544.03l.044-15.666q.268-.019.544-.03" transform="translate(-710.839 141.006)" fill="#b3b3b3"/><path d="M720.674-140.946l-.044,15.666c-.127.008-.253.017-.378.028l.044-15.667c.125-.01.251-.019.378-.027" transform="translate(-710.824 141.005)" fill="#b8b8b8"/><path d="M720.281-140.918l-.044,15.667c-.121.01-.242.02-.361.032l.044-15.666.361-.033" transform="translate(-710.809 141.004)" fill="#bdbdbd"/><path d="M719.906-140.884l-.044,15.666c-.119.012-.236.024-.354.037l.045-15.666c.116-.013.234-.026.353-.037" transform="translate(-710.795 141.002)" fill="#c2c2c2"/><path d="M719.543-140.845l-.045,15.666-.257.032.044-15.666c.085-.012.171-.021.258-.032" transform="translate(-710.784 141.001)" fill="#c7c7c7"/><path d="M719.274-140.812l-.044,15.666-.241.033.044-15.666.241-.033" transform="translate(-710.774 140.999)" fill="#ccc"/><path d="M719.024-140.778l-.044,15.666-.238.035.045-15.666c.078-.012.158-.024.237-.035" transform="translate(-710.764 140.998)" fill="#d1d1d1"/><path d="M718.777-140.742l-.045,15.666-.234.038.044-15.666.234-.038" transform="translate(-710.755 140.997)" fill="#d6d6d6"/><path d="M718.534-140.7l-.044,15.666-.208.037.044-15.667.208-.036" transform="translate(-710.746 140.995)" fill="#dbdbdb"/><path d="M718.319-140.665,718.274-125q-.094.016-.184.035l.044-15.667.185-.035" transform="translate(-710.739 140.994)" fill="#e0e0e0"/><path d="M718.127-140.629l-.044,15.667-.183.037.044-15.667.182-.036" transform="translate(-710.732 140.992)" fill="#e6e6e6"/><path d="M717.937-140.591l-.044,15.667-.18.037.044-15.666.18-.038" transform="translate(-710.724 140.991)" fill="#ebebeb"/><path d="M717.75-140.551l-.044,15.666-.177.04.044-15.666.177-.04" transform="translate(-710.717 140.989)" fill="#f0f0f0"/><path d="M717.566-140.509l-.044,15.666-.18.042.045-15.666.179-.042" transform="translate(-710.71 140.988)" fill="#f5f5f5"/><path d="M717.379-140.465l-.045,15.666-.2.05.045-15.666.2-.05" transform="translate(-710.702 140.986)" fill="#fafafa"/><path d="M717.176-140.413l-.045,15.666c-.064.016-.128.034-.191.052l.044-15.667.192-.051" transform="translate(-710.694 140.984)" fill="#fff"/><path d="M716.977-140.36l-.044,15.667-.189.054.044-15.666c.062-.019.126-.037.189-.055" transform="translate(-710.686 140.982)" fill="#fff"/><path d="M716.78-140.3l-.044,15.666-.185.056.044-15.666.185-.056" transform="translate(-710.679 140.979)" fill="#fff"/><path d="M716.582-140.245l-.044,15.666c-.1.031-.2.063-.293.1l.044-15.667c.1-.033.194-.064.293-.1" transform="translate(-710.667 140.977)" fill="#fff"/><path d="M716.272-140.146l-.044,15.667c-.14.047-.278.1-.413.149L715.859-140q.2-.078.413-.15" transform="translate(-710.65 140.973)" fill="#fff"/><path d="M715.83-139.99l-.044,15.666q-.37.144-.715.308l.044-15.666c.23-.11.468-.212.715-.308" transform="translate(-710.621 140.967)" fill="#fff"/><path d="M715.094-139.669,715.049-124c-.183.087-.361.181-.533.278l.044-15.666q.258-.147.533-.278" transform="translate(-710.599 140.955)" fill="#fff"/><path d="M714.545-139.38l-.044,15.666c-.126.071-.25.145-.37.222l.044-15.667c.12-.076.244-.15.37-.221" transform="translate(-710.584 140.943)" fill="#fff"/><path d="M714.157-139.15l-.044,15.667q-.235.148-.456.311l.044-15.667q.221-.161.455-.311" transform="translate(-710.566 140.934)" fill="#fff"/><path d="M713.677-138.826l-.044,15.667a7.345,7.345,0,0,0-.6.494l.044-15.667c.191-.173.392-.338.6-.494" transform="translate(-710.541 140.922)" fill="#fff"/><path d="M713.039-138.312l-.044,15.667a7.407,7.407,0,0,0-.87.942l.044-15.667a7.47,7.47,0,0,1,.87-.942" transform="translate(-710.506 140.902)" fill="#fff"/><path d="M712.142-137.332l-.044,15.667a7.866,7.866,0,0,0-.672,1.025l.044-15.667a7.978,7.978,0,0,1,.672-1.025" transform="translate(-710.479 140.863)" fill="#fafafa"/><path d="M711.451-136.265l-.044,15.667a8.984,8.984,0,0,0-.472,1l.044-15.667a9.165,9.165,0,0,1,.472-1" transform="translate(-710.46 140.822)" fill="#f5f5f5"/><path d="M710.964-135.227l-.044,15.667a10.888,10.888,0,0,0-.371,1.088l.044-15.666a11.085,11.085,0,0,1,.371-1.089" transform="translate(-710.444 140.781)" fill="#f0f0f0"/><path d="M710.589-134.094l-.044,15.666c-.036.128-.071.258-.1.39l.044-15.666c.034-.133.068-.262.1-.39" transform="translate(-710.44 140.737)" fill="#ebebeb"/></g></g></g><g transform="translate(32.653 16.357)"><rect width="15.666" height="15.765" transform="matrix(0.003, -1, 1, 0.003, 0, 15.666)" fill="#a7a7a7"/></g><g transform="translate(138.233 16.538)" style="isolation:isolate"><g clip-path="url(#bu)"><g style="isolation:isolate"><path d="M804.025-127.155l-.045,15.666q-.017-3.2-.072-6.4l.044-15.666q.055,3.2.073,6.4" transform="translate(-803.908 133.552)" fill="#dbdbdb"/></g></g></g><g transform="translate(157.975 19.28)" style="isolation:isolate"><g clip-path="url(#bv)"><g style="isolation:isolate"><path d="M824.845-125.605l-.044,15.666q0-.183,0-.369c-.021-1.53-.213-3.061-.345-4.725L824.5-130.7c.132,1.664.324,3.2.345,4.725,0,.123,0,.246,0,.369" transform="translate(-824.454 130.699)" fill="#dbdbdb"/></g></g></g><g transform="translate(85.4 27.871)"><rect width="15.666" height="48.836" transform="matrix(0.003, -1, 1, 0.003, 0, 15.666)" fill="#a7a7a7"/></g><g transform="translate(85.398 19.521)"><path d="M797.724-130.335l.084,8.367-48.836-.12-.047-8.359Z" transform="translate(-748.924 130.448)" fill="#fff"/></g><g transform="translate(85.353 19.521)"><path d="M748.969-122.089l-.044,15.666-.047-8.359.044-15.666Z" transform="translate(-748.878 130.448)" fill="#d7d7d7"/></g><g transform="translate(64.879 9.656)" style="isolation:isolate"><g clip-path="url(#bw)"><g style="isolation:isolate"><path d="M727.928-117.577l-.044,15.666q-.147-11.587-.313-23.137l.044-15.666q.166,11.545.313,23.137" transform="translate(-727.571 140.714)" fill="#dbdbdb"/></g></g></g><g transform="translate(81.25 24.493)" style="isolation:isolate"><g clip-path="url(#bx)"><g style="isolation:isolate"><path d="M744.951-125.274l-.044,15.666q0,.918-.011,1.836l.044-15.667q.009-.917.012-1.835" transform="translate(-744.619 125.274)" fill="#dbdbdb"/><path d="M744.931-123.364l-.044,15.667c-.023,2.194-.079,4.388-.183,6.581,0,.071-.011.141-.016.211l.044-15.666c.007-.07.013-.141.016-.211.1-2.194.16-4.388.183-6.582" transform="translate(-744.611 125.199)" fill="#e0e0e0"/><path d="M744.729-116.294l-.044,15.666c-.019.2-.046.4-.077.6l.044-15.666c.031-.2.058-.395.077-.6" transform="translate(-744.608 124.923)" fill="#e6e6e6"/></g></g></g><g transform="translate(154.367 23.4)" style="isolation:isolate"><g clip-path="url(#by)"><g style="isolation:isolate"><path d="M820.892-126.411l-.044,15.666q0,.868-.013,1.733l.044-15.666q.01-.866.012-1.733" transform="translate(-820.704 126.411)" fill="#dbdbdb"/><path d="M820.874-124.607l-.044,15.666c-.027,2.569-.091,5.138-.118,7.7l.044-15.666c.028-2.566.091-5.133.118-7.7" transform="translate(-820.7 126.34)" fill="#e0e0e0"/><path d="M820.756-116.591l-.044,15.666q-.01.871-.013,1.74l.044-15.666q0-.871.013-1.74" transform="translate(-820.699 126.027)" fill="#dbdbdb"/></g></g></g><g transform="translate(158.125 28.46)" style="isolation:isolate"><g clip-path="url(#bz)"><g style="isolation:isolate"><path d="M838.347-113.856,838.3-98.19a7.059,7.059,0,0,0-.133-1.424l.045-15.666a7.141,7.141,0,0,1,.132,1.424" transform="translate(-825.14 120.916)" fill="#dbdbdb"/><path d="M838.2-115.334l-.045,15.666a5.159,5.159,0,0,0-.452-1.32l.045-15.666a5.22,5.22,0,0,1,.452,1.32" transform="translate(-825.122 120.969)" fill="#d6d6d6"/><path d="M837.731-116.678l-.045,15.666a4.832,4.832,0,0,0-.348-.582l.044-15.666a4.808,4.808,0,0,1,.349.582" transform="translate(-825.107 120.993)" fill="#d1d1d1"/><path d="M837.369-117.277l-.044,15.666a4.8,4.8,0,0,0-.321-.409l.045-15.666a4.976,4.976,0,0,1,.32.409" transform="translate(-825.094 121.01)" fill="#ccc"/><path d="M837.037-117.7l-.045,15.666q-.144-.166-.306-.322l.044-15.667q.161.157.307.323" transform="translate(-825.082 121.023)" fill="#c7c7c7"/><path d="M836.718-118.033l-.044,15.667q-.145-.141-.305-.274l.044-15.667q.16.134.306.274" transform="translate(-825.07 121.034)" fill="#c2c2c2"/><path d="M836.4-118.317l-.044,15.667c-.1-.084-.2-.164-.31-.242l.045-15.667q.161.118.309.242" transform="translate(-825.057 121.044)" fill="#bdbdbd"/><path d="M836.077-118.568l-.045,15.667c-.1-.076-.209-.149-.32-.221l.044-15.666c.11.071.217.145.321.22" transform="translate(-825.044 121.053)" fill="#b8b8b8"/><path d="M835.742-118.8l-.044,15.666c-.1-.066-.209-.132-.32-.2l-.018-.011L835.4-119l.018.011c.11.063.217.129.32.2" transform="translate(-825.03 121.061)" fill="#b3b3b3"/><path d="M835.389-119.01l-.044,15.666c-.118-.067-.239-.134-.364-.2l.044-15.666c.125.063.247.13.364.2" transform="translate(-825.015 121.069)" fill="#adadad"/><path d="M835.009-119.215l-.044,15.666c-.131-.066-.264-.131-.4-.193l.044-15.666q.208.094.4.193" transform="translate(-824.999 121.077)" fill="#a8a8a8"/><path d="M834.588-119.416l-.044,15.666q-.222-.1-.457-.193l.044-15.666c.157.062.31.127.456.193" transform="translate(-824.98 121.085)" fill="#a3a3a3"/><path d="M834.109-119.617l-.044,15.666c-.172-.067-.35-.134-.533-.2l.044-15.666q.275.1.533.2" transform="translate(-824.959 121.093)" fill="#9e9e9e"/><path d="M833.544-119.824l-.044,15.666c-.257-.087-.524-.171-.8-.25l.044-15.666c.28.079.548.161.8.25" transform="translate(-824.926 121.103)" fill="#999"/><path d="M832.566-120.105l-.044,15.666a26.33,26.33,0,0,0-4.288-.774l.045-15.666a26.344,26.344,0,0,1,4.288.774" transform="translate(-824.752 121.135)" fill="#949494"/><path d="M828.179-120.887l-.045,15.666q-1.14-.124-2.432-.2l.044-15.666q1.293.078,2.433.2" transform="translate(-824.653 121.143)" fill="#999"/><path d="M825.7-121.09l-.044,15.666q-.513-.03-1.049-.055l.044-15.666c.357.016.708.035,1.049.055" transform="translate(-824.61 121.145)" fill="#9e9e9e"/></g></g></g><g transform="translate(138.305 22.935)"><path d="M804.142-114.3,804.1-98.637l-.114-12.592.044-15.666Z" transform="translate(-803.983 126.895)" fill="#d7d7d7"/></g><g transform="translate(106.452 0)"><path d="M786.8-134.214l-15.735,0-.233-16.553c8.134.141,17.03-.11,25.741.506a35.047,35.047,0,0,1,14.57,4.184c4.3,2.485,7.074,5.848,7.473,9.567.609,7.109.154,14.232.175,21.326l-15.948-.057-.113-12.592q-.019-3.2-.073-6.4a3.594,3.594,0,0,0,0-1.467,5.906,5.906,0,0,0-3.114-3.729,16.121,16.121,0,0,0-8.847-1.8c-1.26-.013-2.526-.145-5.249-.311.412,1.559.81,2.706,1.018,3.9S786.711-135.241,786.8-134.214Z" transform="translate(-770.835 150.763)" fill="#fff"/></g><g transform="translate(138.419 35.533)"><rect width="15.666" height="15.949" transform="matrix(0.003, -1, 1, 0.003, 0, 15.666)" fill="#a7a7a7"/></g><g transform="translate(16.148 28.295)" style="isolation:isolate"><g clip-path="url(#ca)"><g transform="translate(0 0)" style="isolation:isolate"><path d="M721.943-121.1l-.044,15.666c-2.245-.045-5.187-.141-8.128-.16q-11.9-.036-23.794-.06h-.1l.045-15.666h.1q11.888.02,23.8.06c2.941.018,5.883.113,8.127.16" transform="translate(-677.366 121.317)" fill="#a3a3a3"/><path d="M689.877-121.317l-.045,15.666c-.358,0-.709,0-1.05.012l.044-15.666c.342-.009.692-.012,1.051-.012" transform="translate(-677.323 121.317)" fill="#a8a8a8"/><path d="M688.793-121.3l-.044,15.666c-.271.007-.536.015-.8.028L688-121.277q.391-.017.8-.027" transform="translate(-677.291 121.317)" fill="#adadad"/><path d="M687.969-121.276l-.044,15.667q-.343.014-.675.036l.044-15.666q.331-.022.675-.037" transform="translate(-677.263 121.315)" fill="#b3b3b3"/><path d="M687.272-121.237l-.044,15.666c-.182.012-.362.025-.54.039l.044-15.666c.178-.014.357-.028.54-.039" transform="translate(-677.241 121.314)" fill="#b8b8b8"/><path d="M686.713-121.2l-.044,15.666c-.161.013-.32.028-.478.043l.045-15.666c.157-.015.316-.03.477-.043" transform="translate(-677.222 121.312)" fill="#bdbdbd"/><path d="M686.221-121.151l-.045,15.666q-.189.019-.375.04l.044-15.666c.124-.014.249-.028.376-.04" transform="translate(-677.207 121.311)" fill="#c2c2c2"/><path d="M685.83-121.109l-.044,15.666-.367.044.045-15.666c.12-.015.242-.031.366-.044" transform="translate(-677.192 121.309)" fill="#c7c7c7"/><path d="M685.452-121.063l-.045,15.666-.309.042.044-15.666.31-.042" transform="translate(-677.179 121.307)" fill="#ccc"/><path d="M685.13-121.019l-.044,15.666-.264.039.045-15.666.263-.039" transform="translate(-677.168 121.305)" fill="#d1d1d1"/><path d="M684.857-120.978l-.045,15.666-.258.042.044-15.667.259-.041" transform="translate(-677.158 121.304)" fill="#d6d6d6"/><path d="M684.587-120.935l-.044,15.667-.255.044.044-15.666.255-.045" transform="translate(-677.148 121.302)" fill="#dbdbdb"/><path d="M684.323-120.888l-.044,15.666-.217.04.044-15.666c.072-.013.144-.028.217-.04" transform="translate(-677.139 121.3)" fill="#e0e0e0"/><path d="M684.1-120.846l-.044,15.666-.207.041.044-15.666.207-.041" transform="translate(-677.13 121.299)" fill="#e6e6e6"/><path d="M683.883-120.8l-.044,15.666-.2.043.044-15.666.2-.043" transform="translate(-677.122 121.297)" fill="#ebebeb"/><path d="M683.671-120.758l-.044,15.666-.2.045.044-15.666.2-.045" transform="translate(-677.114 121.295)" fill="#f0f0f0"/><path d="M683.463-120.711l-.044,15.666-.2.048.045-15.666.2-.048" transform="translate(-677.106 121.293)" fill="#f5f5f5"/><path d="M683.254-120.661,683.209-105c-.068.017-.135.034-.2.052l.044-15.667.2-.051" transform="translate(-677.098 121.291)" fill="#fafafa"/><path d="M683.042-120.608,683-104.941l-.2.053.044-15.666.2-.054" transform="translate(-677.089 121.289)" fill="#fff"/><path d="M682.834-120.552l-.044,15.666-.2.056.044-15.666.2-.056" transform="translate(-677.081 121.287)" fill="#fff"/><path d="M682.629-120.494l-.044,15.666c-.075.022-.15.044-.223.067l.044-15.666.223-.067" transform="translate(-677.072 121.285)" fill="#fff"/><path d="M682.394-120.424l-.044,15.666c-.1.033-.208.066-.31.1l.045-15.666c.1-.035.2-.068.31-.1" transform="translate(-677.06 121.282)" fill="#fff"/><path d="M682.072-120.319l-.045,15.666c-.1.035-.2.07-.3.107l.044-15.666q.147-.055.3-.107" transform="translate(-677.047 121.278)" fill="#fff"/><path d="M681.735-120.208l-.044,15.666q-.483.18-.911.39l.045-15.666a9.55,9.55,0,0,1,.91-.39" transform="translate(-677.01 121.274)" fill="#fff"/><path d="M680.809-119.8l-.045,15.666q-.206.1-.4.211l.044-15.667c.13-.072.262-.142.4-.21" transform="translate(-676.994 121.258)" fill="#fff"/><path d="M680.393-119.583l-.044,15.667q-.187.105-.363.217l.044-15.666c.117-.075.238-.147.363-.218" transform="translate(-676.979 121.249)" fill="#fff"/><path d="M680.016-119.356l-.044,15.666c-.118.076-.234.154-.344.234l.044-15.666c.111-.081.226-.159.344-.234" transform="translate(-676.965 121.24)" fill="#fff"/><path d="M679.652-119.112l-.044,15.666q-.262.192-.5.4l.044-15.666q.233-.209.5-.4" transform="translate(-676.945 121.231)" fill="#fff"/><path d="M679.128-118.695l-.044,15.666a5.514,5.514,0,0,0-.68.729l.044-15.667a5.57,5.57,0,0,1,.68-.728" transform="translate(-676.917 121.215)" fill="#fff"/><path d="M678.43-117.937l-.044,15.667a5.231,5.231,0,0,0-.456.693l.044-15.666a5.333,5.333,0,0,1,.456-.694" transform="translate(-676.899 121.185)" fill="#fafafa"/><path d="M677.962-117.215l-.044,15.666a5.45,5.45,0,0,0-.285.6l.045-15.666a5.452,5.452,0,0,1,.284-.6" transform="translate(-676.887 121.157)" fill="#f5f5f5"/><path d="M677.669-116.59l-.045,15.666a5.987,5.987,0,0,0-.2.586L677.468-116a5.839,5.839,0,0,1,.2-.585" transform="translate(-676.879 121.132)" fill="#f0f0f0"/><path d="M677.462-115.981l-.044,15.667c-.057.2-.1.4-.142.609l.044-15.667q.058-.313.142-.609" transform="translate(-676.873 121.108)" fill="#ebebeb"/><path d="M677.317-115.347l-.044,15.667c-.039.212-.07.432-.091.658l.044-15.666q.032-.339.091-.659" transform="translate(-676.87 121.084)" fill="#e6e6e6"/><path d="M677.224-114.661,677.18-99q-.033.355-.037.731l.044-15.666q0-.376.037-.731" transform="translate(-676.868 121.057)" fill="#e0e0e0"/><path d="M677.186-113.9l-.044,15.666v.1l.044-15.667v-.1" transform="translate(-676.868 121.027)" fill="#dbdbdb"/><path d="M677.184-113.8l-.044,15.667c0,.16-.013.32-.029.486l.044-15.666c.016-.167.026-.328.029-.487" transform="translate(-676.867 121.023)" fill="#e0e0e0"/><path d="M677.145-113.293,677.1-97.627c-.048.513-.149,1.087-.244,1.879l.044-15.667c.1-.791.2-1.365.244-1.878" transform="translate(-676.857 121.003)" fill="#e6e6e6"/></g></g></g><g transform="translate(0.045 18.879)"><path d="M688.181-112.451l.156,9.17-28.16-.061a74.814,74.814,0,0,1,.945-15.7c2.247-7.176,13.208-12.3,25.8-12.064,11.374,0,22.754.017,33.683.029l.176,9.6c-2.245-.046-5.186-.141-8.128-.16q-11.9-.036-23.8-.06c-8.5-.014-12.322,2.227-12.336,7.2-.009.659-.145,1.328-.274,2.391Z" transform="translate(-660.099 131.116)" fill="#fff"/></g><g transform="translate(0.077 46.644)"><rect width="15.666" height="28.161" transform="matrix(0.003, -1, 1, 0.003, 0, 15.666)" fill="#a7a7a7"/></g><g transform="translate(0 43.057)" style="isolation:isolate"><g clip-path="url(#cb)"><g style="isolation:isolate"><path d="M660.174-102.358l-.045,15.667q-.081-1.8-.076-3.6l.044-15.666q0,1.8.077,3.6" transform="translate(-660.053 105.955)" fill="#dbdbdb"/></g></g></g><g transform="translate(106.034 31.803)" style="isolation:isolate"><g clip-path="url(#cc)"><g style="isolation:isolate"><path d="M855.4-101.427l-.045,15.666-.575.035.044-15.666c.181-.012.371-.024.576-.035" transform="translate(-773.698 117.032)" fill="#b3b3b3"/><path d="M854.8-101.391l-.044,15.666-.537.037.045-15.667.536-.036" transform="translate(-773.676 117.031)" fill="#b8b8b8"/><path d="M854.241-101.354,854.2-85.687c-.188.012-.368.023-.544.031l.044-15.666c.177-.008.357-.019.545-.032" transform="translate(-773.654 117.029)" fill="#b3b3b3"/><path d="M853.684-101.321l-.044,15.666-.31.012.044-15.666.31-.012" transform="translate(-773.641 117.028)" fill="#adadad"/><path d="M853.363-101.309l-.044,15.666-.254,0,.044-15.667.254,0" transform="translate(-773.631 117.028)" fill="#a8a8a8"/><path d="M850.922-101.312l-.044,15.667h-.023c-17.6-.036-35.2-.036-52.806-.131-.312,0-.631,0-.952-.013l.044-15.666c.321.009.641.012.953.012,17.606.1,35.205.1,52.805.131h.023" transform="translate(-771.443 117.033)" fill="#a3a3a3"/><path d="M797.078-101.458l-.044,15.666-.282-.009q-.63-.02-1.25-.059l.044-15.666q.621.037,1.25.059l.282.009" transform="translate(-771.381 117.036)" fill="#9e9e9e"/><path d="M795.456-101.533l-.044,15.666q-1.108-.066-2.186-.184l.044-15.667q1.078.118,2.186.185" transform="translate(-771.292 117.044)" fill="#999"/><path d="M792.994-101.77,792.95-86.1a41.6,41.6,0,0,1-6.791-1.3l.044-15.667a41.5,41.5,0,0,0,6.791,1.3" transform="translate(-771.016 117.097)" fill="#949494"/><path d="M786.124-103.1l-.044,15.667q-1-.284-1.955-.612l.044-15.666q.953.329,1.956.611" transform="translate(-770.936 117.121)" fill="#999"/><path d="M784.109-103.729l-.044,15.666q-.742-.255-1.454-.538l.044-15.666q.711.283,1.454.538" transform="translate(-770.877 117.143)" fill="#9e9e9e"/><path d="M782.6-104.29l-.044,15.666q-.683-.271-1.336-.565l.044-15.666q.653.294,1.336.565" transform="translate(-770.823 117.166)" fill="#a3a3a3"/><path d="M781.215-104.879l-.044,15.666q-.637-.288-1.244-.6l.045-15.667q.605.31,1.243.6" transform="translate(-770.772 117.191)" fill="#a8a8a8"/><path d="M779.924-105.5l-.045,15.667q-.6-.307-1.17-.633l.044-15.667q.569.327,1.171.633" transform="translate(-770.725 117.216)" fill="#adadad"/><path d="M778.707-106.164,778.663-90.5l-.061-.036q-.542-.311-1.051-.642l.044-15.666q.51.33,1.051.642l.061.035" transform="translate(-770.68 117.244)" fill="#b3b3b3"/><path d="M777.552-106.87,777.508-91.2q-.549-.355-1.061-.728l.045-15.666q.51.373,1.06.728" transform="translate(-770.636 117.273)" fill="#b8b8b8"/><path d="M776.451-107.63l-.045,15.666q-.53-.388-1.018-.8l.044-15.666q.489.406,1.02.8" transform="translate(-770.595 117.306)" fill="#bdbdbd"/><path d="M775.391-108.462,775.347-92.8q-.513-.427-.976-.874l.045-15.667q.463.448.975.875" transform="translate(-770.555 117.341)" fill="#c2c2c2"/><path d="M774.378-109.377l-.045,15.667q-.5-.486-.944-.993l.044-15.666q.443.506.946.992" transform="translate(-770.517 117.382)" fill="#c7c7c7"/><path d="M773.4-110.416l-.044,15.666a14.068,14.068,0,0,1-.911-1.161l.044-15.666a14.025,14.025,0,0,0,.911,1.161" transform="translate(-770.48 117.429)" fill="#ccc"/><path d="M772.448-111.637,772.4-95.971a11.932,11.932,0,0,1-.885-1.471l.044-15.666a12.129,12.129,0,0,0,.885,1.471" transform="translate(-770.444 117.489)" fill="#d1d1d1"/><path d="M771.527-113.21l-.044,15.666a10.1,10.1,0,0,1-.885-2.5l.045-15.666a10.041,10.041,0,0,0,.884,2.5" transform="translate(-770.408 117.59)" fill="#d6d6d6"/><path d="M770.635-115.786l-.045,15.666A9.108,9.108,0,0,1,770.4-102l.044-15.666a9.068,9.068,0,0,0,.191,1.881" transform="translate(-770.4 117.667)" fill="#dbdbdb"/></g></g></g><g transform="translate(106.078 19.209)"><path d="M822.537-121.521c.071-1.456.215-2.925.2-4.456s-.213-3.061-.345-4.725c.849-.046,1.7-.071,2.556-.071,7.428,0,14.161,1.737,19.043,4.557s7.9,6.7,7.927,10.986c.09,4.183.126,8.377.187,12.656-.918.049-1.559.116-2.244.116-17.6-.035-35.2-.035-52.805-.131-.4,0-.82-.007-1.236-.021a37.935,37.935,0,0,1-17.447-4.524c-5.237-3.024-8.317-7.275-7.882-11.88l16.042.181c.435,2.444,1.361,4.1,3.219,5.174,2.105,1.215,5.407,1.682,10.548,1.7q15.87.042,31.75.07c1.125,0,2.256-.038,3.351-.057.778-3.595.1-5.993-2.511-7.5C830.779-120.668,827.413-121.3,822.537-121.521Z" transform="translate(-770.446 130.773)" fill="#fff"/></g><g transform="translate(53.141 33.718)" style="isolation:isolate"><g clip-path="url(#cd)"><g style="isolation:isolate"><path d="M744.651-115.674l-.044,15.666c-.009.05-.017.1-.026.148l.044-15.666.026-.148" transform="translate(-716.497 115.674)" fill="#e6e6e6"/><path d="M744.617-115.52l-.044,15.666q-.082.435-.2.861l.044-15.666q.123-.427.2-.861" transform="translate(-716.489 115.668)" fill="#ebebeb"/><path d="M744.4-114.624l-.044,15.666a9.664,9.664,0,0,1-.338.974l.045-15.666a9.759,9.759,0,0,0,.337-.974" transform="translate(-716.475 115.633)" fill="#f0f0f0"/><path d="M744.04-113.61l-.045,15.666a10.418,10.418,0,0,1-.551,1.147l.044-15.666a10.435,10.435,0,0,0,.552-1.147" transform="translate(-716.453 115.593)" fill="#f5f5f5"/><path d="M743.448-112.416,743.4-96.75a12.111,12.111,0,0,1-.994,1.5l.044-15.667a11.937,11.937,0,0,0,.994-1.5" transform="translate(-716.412 115.547)" fill="#fafafa"/><path d="M742.379-110.854l-.044,15.667a15,15,0,0,1-1.848,1.974l.044-15.666a15.01,15.01,0,0,0,1.848-1.975" transform="translate(-716.337 115.486)" fill="#fff"/><path d="M740.472-108.8l-.044,15.666a18.3,18.3,0,0,1-1.462,1.18l.045-15.666q.777-.568,1.461-1.18" transform="translate(-716.278 115.405)" fill="#fff"/><path d="M738.965-107.571l-.045,15.666q-.549.4-1.144.779l.045-15.667q.594-.376,1.144-.778" transform="translate(-716.231 115.357)" fill="#fff"/><path d="M737.778-106.761l-.045,15.667c-.332.211-.677.417-1.029.617l.044-15.666q.529-.3,1.03-.618" transform="translate(-716.189 115.326)" fill="#fff"/><path d="M736.7-106.118l-.044,15.666q-.623.352-1.285.678l.045-15.666q.66-.327,1.284-.678" transform="translate(-716.137 115.301)" fill="#fff"/><path d="M735.3-105.412l-.045,15.666c-.846.419-1.741.805-2.676,1.157l.045-15.666c.934-.352,1.829-.739,2.676-1.157" transform="translate(-716.028 115.273)" fill="#fff"/><path d="M732.58-104.208l-.045,15.666q-.568.215-1.157.411l.044-15.666q.588-.2,1.158-.411" transform="translate(-715.981 115.226)" fill="#fff"/><path d="M731.4-103.78l-.044,15.666c-.211.07-.422.138-.636.206l.044-15.666c.214-.067.426-.135.636-.206" transform="translate(-715.955 115.209)" fill="#fff"/><path d="M730.734-103.566,730.69-87.9q-.32.1-.646.2l.044-15.666q.326-.1.646-.2" transform="translate(-715.929 115.201)" fill="#fff"/><path d="M730.066-103.363,730.022-87.7c-.181.053-.362.1-.545.155l.044-15.667q.274-.075.545-.154" transform="translate(-715.907 115.193)" fill="#fff"/><path d="M729.5-103.2l-.044,15.667c-.159.043-.319.086-.479.128l.044-15.666c.16-.042.321-.085.479-.129" transform="translate(-715.887 115.187)" fill="#fff"/><path d="M729-103.069,728.958-87.4c-.161.042-.322.083-.484.123l.044-15.666.484-.123" transform="translate(-715.868 115.181)" fill="#fafafa"/><path d="M728.5-102.941l-.044,15.666-.49.117.045-15.667c.163-.037.327-.077.489-.116" transform="translate(-715.848 115.176)" fill="#f5f5f5"/><path d="M727.991-102.82l-.045,15.667c-.152.035-.306.07-.459.1l.044-15.667c.154-.034.307-.068.46-.1" transform="translate(-715.829 115.172)" fill="#f0f0f0"/><path d="M727.512-102.712l-.044,15.667-.458.1.044-15.666q.231-.048.458-.1" transform="translate(-715.811 115.167)" fill="#ebebeb"/><path d="M727.034-102.61l-.044,15.666-.462.093.044-15.667c.155-.03.308-.061.462-.092" transform="translate(-715.792 115.163)" fill="#e6e6e6"/><path d="M726.553-102.514l-.044,15.667-.466.087.044-15.667c.157-.028.311-.057.466-.087" transform="translate(-715.773 115.16)" fill="#e0e0e0"/><path d="M726.067-102.423l-.044,15.667c-.166.03-.334.06-.5.087l.044-15.666c.168-.028.336-.058.5-.088" transform="translate(-715.752 115.156)" fill="#dbdbdb"/><path d="M725.543-102.331,725.5-86.665c-.171.03-.344.058-.517.085l.044-15.666.517-.085" transform="translate(-715.731 115.152)" fill="#d6d6d6"/><path d="M725.005-102.243l-.044,15.666c-.173.027-.346.053-.521.078l.044-15.667c.175-.024.348-.05.521-.077" transform="translate(-715.71 115.149)" fill="#d1d1d1"/><path d="M724.463-102.163,724.419-86.5q-.262.037-.528.071l.044-15.666q.265-.035.528-.072" transform="translate(-715.689 115.146)" fill="#ccc"/><path d="M723.909-102.088l-.044,15.666q-.318.042-.64.079l.044-15.667q.322-.036.64-.078" transform="translate(-715.663 115.143)" fill="#c7c7c7"/><path d="M723.243-102.007,723.2-86.34q-.321.036-.646.068l.044-15.666q.324-.032.646-.069" transform="translate(-715.636 115.14)" fill="#c2c2c2"/><path d="M722.571-101.935l-.044,15.666q-.324.032-.651.06l.044-15.666c.218-.018.434-.038.651-.06" transform="translate(-715.61 115.137)" fill="#bdbdbd"/><path d="M721.887-101.873l-.044,15.666q-.408.033-.819.061l.044-15.666q.411-.027.819-.061" transform="translate(-715.577 115.135)" fill="#b8b8b8"/><path d="M721.034-101.81l-.044,15.666c-.278.017-.557.033-.837.045l.044-15.666q.421-.019.837-.045" transform="translate(-715.543 115.132)" fill="#b3b3b3"/><path d="M720.159-101.763,720.115-86.1c-.314.014-.629.026-.946.033l.044-15.666q.476-.012.946-.033" transform="translate(-715.504 115.13)" fill="#adadad"/><path d="M719.169-101.729l-.044,15.666q-.528.013-1.06.012l.044-15.666q.532,0,1.06-.012" transform="translate(-715.461 115.129)" fill="#a8a8a8"/><path d="M718.058-101.717l-.044,15.666q-.621,0-1.248-.017l.044-15.666q.627.017,1.248.017" transform="translate(-715.41 115.129)" fill="#a3a3a3"/><path d="M716.755-101.736l-.044,15.666q-.675-.019-1.356-.059l.044-15.666q.68.039,1.356.059" transform="translate(-715.355 115.132)" fill="#9e9e9e"/></g></g></g><g transform="translate(32.587 0.144)"><path d="M694.076-134.406c-1.3-8.165,9.043-15.384,23.141-16.141,8.561-.149,17.134-.043,25.674.318-.049,1.094-.187,2.547-.18,4,.047,9.468.5,18.933.056,28.383-.016.272-.052.542-.093.807-1.385,8.2-13.973,14.162-28.11,13.337l.028-9.121c4.949.3,9.618-1.353,11.413-4.039a2.594,2.594,0,0,0,.611-1.1q-.147-11.589-.313-23.137c-10.231-1.084-15,.928-16.461,6.751Z" transform="translate(-693.965 150.613)" fill="#fff"/></g><g transform="translate(33.269 30.916)"><path d="M694.674-118.589l14.708.181.339,27.664-14.713-.014Z" transform="translate(-694.674 118.589)" fill="#fff"/></g><g transform="translate(33.224 30.916)"><path d="M695.007-90.759l-.044,15.666-.334-27.831.044-15.666Z" transform="translate(-694.628 118.589)" fill="#d7d7d7"/></g><g transform="translate(33.558 58.747)"><path d="M709.733-89.613l-.044,15.666-14.713-.014.044-15.666Z" transform="translate(-694.976 89.627)" fill="#a7a7a7"/></g><g transform="translate(159.522 71.066)"><path d="M838.624-76.807l-.044,15.666-12.516.287.044-15.666Z" transform="translate(-826.063 76.807)" fill="#a9a9a9"/></g><g transform="translate(125.781 70.244)" style="isolation:isolate"><g clip-path="url(#ce)"><g style="isolation:isolate"><path d="M800.075-77.662,800.031-62l-.1.023.044-15.666.1-.023" transform="translate(-791.301 77.662)" fill="#f0f0f0"/><path d="M799.941-77.638,799.9-61.972q-.438.1-.875.209l.044-15.666c.29-.071.582-.141.874-.209" transform="translate(-791.265 77.661)" fill="#f5f5f5"/><path d="M799.031-77.421l-.044,15.666q-.441.108-.878.221l.044-15.666c.292-.075.584-.149.878-.221" transform="translate(-791.23 77.653)" fill="#fafafa"/><path d="M798.114-77.191l-.044,15.666c-.313.082-.626.164-.935.25l.044-15.667q.465-.127.935-.249" transform="translate(-791.192 77.644)" fill="#fff"/><path d="M797.139-76.932l-.044,15.667q-.5.137-.994.28l.044-15.666q.494-.143.994-.281" transform="translate(-791.151 77.633)" fill="#fff"/><path d="M796.1-76.64l-.044,15.666q-.539.157-1.071.322l.044-15.667q.532-.164,1.071-.321" transform="translate(-791.108 77.622)" fill="#fff"/><path d="M794.978-76.306l-.044,15.667q-.65.2-1.289.413l.044-15.667q.639-.212,1.289-.413" transform="translate(-791.055 77.609)" fill="#fff"/><path d="M793.619-75.876l-.044,15.667q-.871.288-1.72.6l.045-15.666q.848-.311,1.719-.6" transform="translate(-790.985 77.592)" fill="#fff"/><path d="M791.865-75.251l-.045,15.666c-.292.107-.581.215-.87.326l.044-15.666q.433-.166.871-.326" transform="translate(-790.95 77.568)" fill="#fff"/></g></g></g><g transform="translate(171.777 73.477)" style="isolation:isolate"><g clip-path="url(#cf)"><g style="isolation:isolate"><path d="M838.861-74.211l-.044,15.666v-.086l.044-15.666v.086" transform="translate(-838.817 74.297)" fill="#dbdbdb"/></g></g></g><g transform="translate(16.891 70.691)" style="isolation:isolate"><g clip-path="url(#cg)"><g style="isolation:isolate"><path d="M678.255-77.2l-.044,15.666q-.135.376-.238.737l.044-15.666c.069-.24.148-.486.238-.737" transform="translate(-677.644 77.197)" fill="#f0f0f0"/><path d="M678.008-76.43l-.044,15.666q-.128.444-.206.864l.044-15.666c.052-.28.121-.568.206-.864" transform="translate(-677.636 77.167)" fill="#ebebeb"/><path d="M677.8-75.531l-.044,15.666c-.041.225-.073.445-.093.659l.044-15.666c.02-.214.052-.434.093-.659" transform="translate(-677.632 77.132)" fill="#e6e6e6"/><path d="M677.7-74.845l-.044,15.666q-.026.27-.029.528l.045-15.666c0-.172.011-.348.028-.528" transform="translate(-677.631 77.105)" fill="#e0e0e0"/><path d="M677.676-74.3l-.045,15.666v.048l.044-15.666V-74.3" transform="translate(-677.631 77.084)" fill="#dbdbdb"/></g></g></g><g transform="translate(17.457 70.687)" style="isolation:isolate"><g clip-path="url(#ch)"><g style="isolation:isolate"><path d="M726.96-74.058l-.044,15.666q-.143-.16-.3-.311l.044-15.667q.157.153.3.312" transform="translate(-680.112 77.09)" fill="#c7c7c7"/><path d="M726.646-74.383,726.6-58.716c-.109-.107-.225-.209-.346-.31l.044-15.666q.182.151.346.309" transform="translate(-680.097 77.103)" fill="#c2c2c2"/><path d="M726.286-74.7l-.044,15.666c-.114-.1-.234-.189-.358-.28l.044-15.666c.124.09.244.184.358.28" transform="translate(-680.083 77.114)" fill="#bdbdbd"/><path d="M725.912-74.993l-.044,15.666q-.18-.131-.373-.256l.044-15.667c.129.084.253.168.373.257" transform="translate(-680.068 77.125)" fill="#b8b8b8"/><path d="M725.523-75.26l-.044,15.667q-.179-.117-.369-.226l-.021-.013.044-15.666.021.012q.19.11.369.225" transform="translate(-680.052 77.135)" fill="#b3b3b3"/><path d="M725.117-75.506l-.044,15.666q-.2-.115-.412-.223l.044-15.666q.212.108.412.223" transform="translate(-680.035 77.144)" fill="#adadad"/><path d="M724.686-75.738l-.044,15.666c-.142-.072-.289-.142-.438-.21l.044-15.666q.225.1.438.21" transform="translate(-680.017 77.152)" fill="#a8a8a8"/><path d="M724.229-75.956l-.044,15.666c-.155-.069-.312-.136-.474-.2l.045-15.666c.16.063.318.131.473.2" transform="translate(-679.998 77.16)" fill="#a3a3a3"/><path d="M723.735-76.164,723.69-60.5q-.255-.1-.521-.193l.044-15.666q.265.091.522.193" transform="translate(-679.977 77.168)" fill="#9e9e9e"/><path d="M723.185-76.366,723.141-60.7q-.34-.117-.7-.217l.044-15.666c.237.066.469.139.7.217" transform="translate(-679.949 77.177)" fill="#999"/><path d="M722.391-76.6l-.044,15.666a14.867,14.867,0,0,0-2.419-.463l.044-15.666a14.727,14.727,0,0,1,2.419.463" transform="translate(-679.85 77.196)" fill="#949494"/><path d="M719.941-77.068,719.9-61.4c-.254-.028-.51-.049-.769-.065l.044-15.666c.259.015.515.037.769.065" transform="translate(-679.819 77.198)" fill="#999"/><path d="M719.15-77.134l-.044,15.666q-.275-.016-.554-.024l.045-15.666c.185,0,.37.013.552.024" transform="translate(-679.796 77.199)" fill="#9e9e9e"/><path d="M717.021-77.16l-.045,15.666c-.151,0-.3-.006-.456-.006-12.769-.057-25.537-.028-38.3-.032l.044-15.666c12.762,0,25.531-.025,38.3.032.153,0,.306,0,.457.006" transform="translate(-678.22 77.201)" fill="#a3a3a3"/></g></g></g><g transform="translate(171.777 73.563)" style="isolation:isolate"><g clip-path="url(#ci)"><g style="isolation:isolate"><path d="M838.964-73.342l-.044,15.666a3.725,3.725,0,0,0-.067-.7l.044-15.666a3.577,3.577,0,0,1,.067.7" transform="translate(-838.818 74.202)" fill="#dbdbdb"/><path d="M838.9-74.05l-.044,15.666c-.011-.052-.022-.1-.035-.158l.044-15.666c.013.053.024.1.035.158" transform="translate(-838.817 74.208)" fill="#d6d6d6"/></g></g></g><g transform="translate(0.784 70.96)" style="isolation:isolate"><g clip-path="url(#cj)"><g style="isolation:isolate"><path d="M661.078-72.426l-.044,15.667c-.127-1.494-.169-2.99-.164-4.492l.044-15.666c0,1.5.037,3,.164,4.491" transform="translate(-660.869 76.917)" fill="#dbdbdb"/></g></g></g><g transform="translate(122.993 72.886)" style="isolation:isolate"><g clip-path="url(#ck)"><g style="isolation:isolate"><path d="M790.987-74.912l-.044,15.666c-.059.032-.117.063-.174.1l.044-15.666.174-.1" transform="translate(-788.155 74.912)" fill="#fff"/><path d="M790.8-74.812l-.044,15.666c-.123.069-.241.14-.356.213l.044-15.667c.115-.072.234-.143.356-.212" transform="translate(-788.141 74.908)" fill="#fff"/><path d="M790.427-74.591l-.044,15.667c-.13.083-.256.167-.376.255l.045-15.666c.119-.087.245-.172.375-.256" transform="translate(-788.126 74.899)" fill="#fff"/><path d="M790.031-74.325l-.045,15.666a6.37,6.37,0,0,0-.511.412l.045-15.666a6.052,6.052,0,0,1,.511-.412" transform="translate(-788.105 74.889)" fill="#fff"/><path d="M789.495-73.9,789.45-58.23a5.087,5.087,0,0,0-.624.667l.044-15.666a5.1,5.1,0,0,1,.625-.667" transform="translate(-788.08 74.872)" fill="#fff"/><path d="M788.856-73.2l-.044,15.666a4.053,4.053,0,0,0-.345.523l.044-15.666a3.993,3.993,0,0,1,.345-.523" transform="translate(-788.065 74.845)" fill="#fafafa"/><path d="M788.5-72.658l-.044,15.666a3.427,3.427,0,0,0-.183.384l.044-15.666a3.311,3.311,0,0,1,.184-.384" transform="translate(-788.058 74.824)" fill="#f5f5f5"/><path d="M788.316-72.258l-.044,15.666a3.139,3.139,0,0,0-.111.323l.044-15.666a3.41,3.41,0,0,1,.112-.323" transform="translate(-788.053 74.808)" fill="#f0f0f0"/><path d="M788.2-71.922l-.044,15.666c-.027.094-.049.188-.066.283l.044-15.667a2.886,2.886,0,0,1,.066-.283" transform="translate(-788.051 74.795)" fill="#ebebeb"/><path d="M788.134-71.628l-.044,15.667c-.016.086-.029.174-.037.261l.044-15.666a2.648,2.648,0,0,1,.037-.262" transform="translate(-788.049 74.784)" fill="#e6e6e6"/><path d="M788.1-71.355l-.044,15.666,0,.036.045-15.666,0-.036" transform="translate(-788.049 74.773)" fill="#e0e0e0"/></g></g></g><g transform="translate(139.517 49.958)"><path d="M820-98.773l.327,27.7-14.67-.011-.413-27.685Z" transform="translate(-805.245 98.773)" fill="#fff"/></g><g transform="translate(139.885 77.647)"><path d="M820.343-69.947,820.3-54.281l-14.67-.011.044-15.666Z" transform="translate(-805.628 69.958)" fill="#a7a7a7"/></g><g transform="translate(139.472 49.962)"><path d="M805.655-71.084l-.044,15.666L805.2-83.1l.044-15.666Z" transform="translate(-805.198 98.769)" fill="#d7d7d7"/></g><g transform="translate(106.431 76.924)" style="isolation:isolate"><g clip-path="url(#cl)"><g style="isolation:isolate"><path d="M770.911-69.831l-.044,15.666c-.033-.294-.046-.584-.054-.878l.044-15.667c.008.294.022.585.054.879" transform="translate(-770.813 70.71)" fill="#dbdbdb"/></g></g></g><g transform="translate(81.908 76.713)" style="isolation:isolate"><g clip-path="url(#cm)"><g style="isolation:isolate"><path d="M745.4-70.93l-.044,15.667v.072l.044-15.666v-.073" transform="translate(-745.294 70.93)" fill="#dbdbdb"/><path d="M745.4-70.854l-.044,15.666c0,.25-.015.5-.039.752L745.36-70.1q.036-.378.039-.752" transform="translate(-745.293 70.927)" fill="#e0e0e0"/><path d="M745.359-70.071l-.044,15.666c-.007.071-.014.141-.023.212l.044-15.667c.009-.07.016-.14.023-.211" transform="translate(-745.292 70.896)" fill="#e6e6e6"/></g></g></g><g transform="translate(66.259 77.725)"><path d="M744.7-69.852l-.044,15.666-15.649-.025.044-15.666Z" transform="translate(-729.007 69.876)" fill="#a7a7a7"/></g><g transform="translate(64.261 73.719)" style="isolation:isolate"><g clip-path="url(#cn)"><g style="isolation:isolate"><path d="M729.017-69.962,728.973-54.3a12.189,12.189,0,0,0-.838-2.111l.045-15.666a12.261,12.261,0,0,1,.837,2.111" transform="translate(-726.975 73.968)" fill="#d6d6d6"/><path d="M728.138-72.143l-.045,15.666a13.855,13.855,0,0,0-1.031-1.713l.045-15.666a14.034,14.034,0,0,1,1.031,1.713" transform="translate(-726.933 74.038)" fill="#d1d1d1"/><path d="M727.1-73.863,727.057-58.2l-.129-.182.044-15.666q.065.089.13.182" transform="translate(-726.928 74.045)" fill="#ccc"/></g></g></g><g transform="translate(122.948 76.34)" style="isolation:isolate"><g clip-path="url(#co)"><g style="isolation:isolate"><path d="M788.093-71.318l-.045,15.666q-.02,1.054-.031,2.107l.044-15.667q.012-1.054.032-2.106" transform="translate(-788.003 71.318)" fill="#e0e0e0"/><path d="M788.061-69.126l-.044,15.667Q788-52.406,788-51.35l.045-15.666q0-1.055.013-2.11" transform="translate(-788.002 71.232)" fill="#dbdbdb"/></g></g></g><g transform="translate(53.72 89.188)"><rect width="15.666" height="48.574" transform="matrix(0.003, -1, 1, 0.003, 0, 15.666)" fill="#a7a7a7"/></g><g transform="translate(53.72 80.683)"><path d="M716-58.29l-.044,15.666v-8.508L716-66.8Z" transform="translate(-715.958 66.798)" fill="#d7d7d7"/></g><g transform="translate(53.764 80.683)"><path d="M716-58.29V-66.8l48.518.113.054,8.526Z" transform="translate(-716.004 66.798)" fill="#fff"/></g><g transform="translate(126.375 72.53)" style="isolation:isolate"><g clip-path="url(#cp)"><g style="isolation:isolate"><path d="M855.718-75.283l-.044,15.667q0,.19,0,.381l.045-15.666c0-.127,0-.254,0-.381" transform="translate(-794.074 75.283)" fill="#dbdbdb"/><path d="M855.711-74.886l-.045,15.666c-.011,1-.051,1.993-.135,2.989l0,.029.044-15.667,0-.028c.085-1,.126-1.994.136-2.989" transform="translate(-794.068 75.267)" fill="#e0e0e0"/><path d="M855.567-71.746l-.044,15.667q-.037.391-.109.777l.045-15.666q.07-.386.109-.778" transform="translate(-794.064 75.145)" fill="#e6e6e6"/><path d="M855.45-70.936l-.045,15.666q-.078.422-.2.838l.044-15.666q.12-.415.2-.838" transform="translate(-794.055 75.113)" fill="#ebebeb"/><path d="M855.238-70.064,855.194-54.4a9.421,9.421,0,0,1-.326.938l.044-15.667a9.322,9.322,0,0,0,.326-.937" transform="translate(-794.042 75.079)" fill="#f0f0f0"/><path d="M854.89-69.089l-.044,15.667a10.238,10.238,0,0,1-.538,1.121l.044-15.666a10.045,10.045,0,0,0,.538-1.122" transform="translate(-794.02 75.041)" fill="#f5f5f5"/><path d="M854.313-67.921l-.044,15.666a11.856,11.856,0,0,1-.976,1.475l.044-15.666a11.756,11.756,0,0,0,.976-1.475" transform="translate(-793.981 74.995)" fill="#fafafa"/><path d="M853.263-66.386l-.044,15.666a14.635,14.635,0,0,1-1.806,1.93l.045-15.666a14.69,14.69,0,0,0,1.8-1.93" transform="translate(-793.907 74.935)" fill="#fff"/><path d="M851.4-64.378l-.045,15.666a17.972,17.972,0,0,1-1.432,1.159l.045-15.666q.762-.558,1.432-1.159" transform="translate(-793.849 74.857)" fill="#fff"/><path d="M849.923-63.172l-.045,15.666q-.535.392-1.116.761l.044-15.666q.579-.369,1.117-.761" transform="translate(-793.804 74.81)" fill="#fff"/><path d="M848.763-62.38l-.044,15.666q-.51.324-1.051.629l.044-15.666q.542-.306,1.051-.629" transform="translate(-793.761 74.779)" fill="#fff"/><path d="M847.662-61.725l-.044,15.666q-.6.337-1.236.651l.045-15.666q.636-.314,1.235-.651" transform="translate(-793.711 74.753)" fill="#fff"/><path d="M846.314-61.047l-.045,15.666a28.883,28.883,0,0,1-2.786,1.193l.045-15.666a29.229,29.229,0,0,0,2.786-1.193" transform="translate(-793.597 74.727)" fill="#fff"/><path d="M843.492-59.805l-.045,15.666q-.441.163-.895.315L842.6-59.49q.453-.153.895-.315" transform="translate(-793.561 74.678)" fill="#fff"/><path d="M842.567-59.477l-.045,15.666c-.241.082-.486.16-.732.237l.044-15.666q.371-.115.733-.237" transform="translate(-793.531 74.665)" fill="#fff"/><path d="M841.812-59.23l-.044,15.666q-.271.084-.545.164l.044-15.666c.184-.054.364-.109.545-.164" transform="translate(-793.509 74.656)" fill="#fff"/><path d="M841.245-59.059,841.2-43.393q-.274.081-.552.157l.044-15.666c.185-.051.369-.1.552-.157" transform="translate(-793.486 74.649)" fill="#fff"/><path d="M840.673-58.9l-.044,15.666c-.166.045-.333.09-.5.134l.044-15.666.5-.134" transform="translate(-793.466 74.642)" fill="#fff"/><path d="M840.155-58.757l-.044,15.666c-.15.039-.3.077-.453.114l.044-15.666.453-.114" transform="translate(-793.448 74.637)" fill="#fafafa"/><path d="M839.684-58.638l-.044,15.666c-.152.037-.3.074-.457.11l.044-15.666c.154-.037.305-.072.457-.11" transform="translate(-793.429 74.632)" fill="#f5f5f5"/><path d="M839.207-58.524l-.044,15.666c-.153.036-.308.07-.462.1l.045-15.666q.232-.05.461-.1" transform="translate(-793.41 74.628)" fill="#f0f0f0"/><path d="M838.728-58.416l-.045,15.666c-.15.034-.3.065-.453.1l.045-15.667c.151-.031.3-.063.453-.1" transform="translate(-793.392 74.624)" fill="#ebebeb"/><path d="M838.257-58.316l-.045,15.667c-.151.031-.3.061-.454.09l.045-15.666c.152-.03.3-.06.455-.091" transform="translate(-793.373 74.62)" fill="#e6e6e6"/><path d="M837.784-58.221l-.045,15.666c-.152.03-.3.059-.457.086l.044-15.666.458-.086" transform="translate(-793.355 74.616)" fill="#e0e0e0"/><path d="M837.306-58.131l-.044,15.666-.464.082.044-15.667q.233-.039.464-.081" transform="translate(-793.336 74.613)" fill="#dbdbdb"/><path d="M836.821-58.047l-.044,15.667c-.173.029-.346.058-.52.085l.044-15.666c.174-.028.347-.056.52-.086" transform="translate(-793.315 74.609)" fill="#d6d6d6"/><path d="M836.28-57.958l-.044,15.666q-.261.04-.525.078l.044-15.666q.264-.037.525-.078" transform="translate(-793.293 74.606)" fill="#d1d1d1"/><path d="M835.734-57.877l-.044,15.666c-.176.025-.352.049-.529.072l.045-15.666c.177-.023.352-.047.528-.072" transform="translate(-793.272 74.603)" fill="#ccc"/><path d="M835.181-57.8l-.045,15.666c-.2.026-.4.051-.6.074l.044-15.667q.3-.035.6-.073" transform="translate(-793.247 74.6)" fill="#c7c7c7"/><path d="M834.552-57.726l-.044,15.667q-.324.036-.651.069l.044-15.666q.327-.033.651-.07" transform="translate(-793.221 74.597)" fill="#c2c2c2"/><path d="M833.874-57.653l-.044,15.666q-.327.032-.657.06l.044-15.666q.33-.027.657-.06" transform="translate(-793.194 74.594)" fill="#bdbdbd"/><path d="M833.187-57.591l-.044,15.666c-.235.019-.472.037-.71.053l.044-15.666c.238-.015.475-.034.71-.053" transform="translate(-793.165 74.591)" fill="#b8b8b8"/><path d="M832.448-57.536,832.4-41.87q-.363.024-.729.042l.044-15.666q.366-.017.729-.042" transform="translate(-793.136 74.589)" fill="#b3b3b3"/><path d="M831.647-57.492,831.6-41.826c-.2.011-.394.018-.592.026l-1.155.031.045-15.666,1.155-.031c.2-.008.395-.016.591-.026" transform="translate(-793.065 74.588)" fill="#adadad"/><path d="M829.6-57.433l-.045,15.666q-3.727.091-7.475.088l.044-15.666q3.749,0,7.476-.088" transform="translate(-792.761 74.585)" fill="#a8a8a8"/><path d="M820.929-57.36l-.044,15.666c-9.557.006-19.246-.345-29.317-.47l.044-15.666c10.07.125,19.759.476,29.316.47" transform="translate(-791.568 74.601)" fill="#a3a3a3"/></g></g></g><g transform="translate(126.419 62.037)"><path d="M824.762-76.887l.216-9.316,27.782.017c.135,4.392.718,9.135.316,13.847C852.4-64.954,842.3-59.05,829.561-58.588c-12.37.357-24.835-.188-37.947-.351.041-2.447.106-5.115.159-7.775a11.088,11.088,0,0,1,.17-1.159l22.517.064c3.571.007,7.143.028,10.708.017a18.447,18.447,0,0,0,2.832,0c5.789-.456,9.819-3.538,9.017-6.889a21.449,21.449,0,0,1,.261-2.5Z" transform="translate(-791.614 86.203)" fill="#fff"/></g><g transform="translate(0.949 75.451)" style="isolation:isolate"><g clip-path="url(#cq)"><g style="isolation:isolate"><path d="M690.944-57.638,690.9-41.972q-.388.016-.775.026l.044-15.667q.388-.009.776-.025" transform="translate(-662.177 71.672)" fill="#adadad"/><path d="M690.122-57.612l-.044,15.667q-.561.013-1.118.013L689-57.6c.371,0,.744,0,1.118-.014" transform="translate(-662.131 71.671)" fill="#a8a8a8"/><path d="M688.953-57.6l-.044,15.666q-.639,0-1.269-.017l.044-15.666q.631.017,1.269.017" transform="translate(-662.08 71.671)" fill="#a3a3a3"/><path d="M687.621-57.618l-.044,15.666q-.77-.02-1.528-.066l.044-15.666q.758.046,1.528.066" transform="translate(-662.018 71.674)" fill="#9e9e9e"/><path d="M686-57.691l-.044,15.666q-1.1-.066-2.169-.183l.045-15.666q1.071.117,2.168.183" transform="translate(-661.929 71.681)" fill="#999"/><path d="M683.56-57.927l-.045,15.666a41.644,41.644,0,0,1-6.819-1.308l.044-15.667a41.631,41.631,0,0,0,6.819,1.309" transform="translate(-661.652 71.735)" fill="#949494"/><path d="M676.661-59.261l-.044,15.667q-1-.284-1.958-.613l.044-15.666q.956.329,1.958.612" transform="translate(-661.572 71.76)" fill="#999"/><path d="M674.643-59.9,674.6-44.229q-.748-.257-1.465-.542l.045-15.666c.477.189.966.37,1.463.542" transform="translate(-661.513 71.782)" fill="#9e9e9e"/><path d="M673.124-60.46l-.045,15.666q-.688-.272-1.345-.569l.045-15.667q.657.3,1.345.57" transform="translate(-661.458 71.805)" fill="#a3a3a3"/><path d="M671.728-61.054l-.045,15.667q-.638-.288-1.247-.6l.044-15.667q.608.311,1.248.6" transform="translate(-661.407 71.829)" fill="#a8a8a8"/><path d="M670.433-61.679l-.044,15.667c-.4-.2-.794-.417-1.173-.635l.044-15.666q.571.327,1.173.634" transform="translate(-661.359 71.855)" fill="#adadad"/><path d="M669.214-62.341l-.044,15.666-.062-.035q-.541-.313-1.05-.642l.044-15.666q.51.329,1.051.642l.061.035" transform="translate(-661.314 71.882)" fill="#b3b3b3"/><path d="M668.059-63.047l-.044,15.666q-.548-.355-1.06-.728L667-63.775q.512.373,1.06.728" transform="translate(-661.271 71.912)" fill="#b8b8b8"/><path d="M666.958-63.807l-.044,15.666q-.528-.386-1.015-.792l.044-15.667q.486.406,1.015.793" transform="translate(-661.23 71.944)" fill="#bdbdbd"/><path d="M665.9-64.636l-.044,15.667q-.512-.427-.975-.874l.044-15.667q.463.448.975.874" transform="translate(-661.19 71.98)" fill="#c2c2c2"/><path d="M664.89-65.55l-.044,15.667q-.5-.483-.941-.988l.044-15.667q.441.506.941.988" transform="translate(-661.152 72.02)" fill="#c7c7c7"/><path d="M663.912-66.585l-.044,15.667a13.986,13.986,0,0,1-.908-1.157L663-67.742a13.849,13.849,0,0,0,.908,1.157" transform="translate(-661.115 72.067)" fill="#ccc"/><path d="M662.968-67.8l-.044,15.667a12.039,12.039,0,0,1-.89-1.48l.044-15.666a11.948,11.948,0,0,0,.89,1.479" transform="translate(-661.079 72.127)" fill="#d1d1d1"/><path d="M662.042-69.385,662-53.719a10.15,10.15,0,0,1-.9-2.561l.044-15.666a10.2,10.2,0,0,0,.9,2.561" transform="translate(-661.042 72.231)" fill="#d6d6d6"/><path d="M661.138-71.958l-.044,15.666c-.02-.1-.037-.189-.054-.284l.044-15.667c.016.1.035.19.054.285" transform="translate(-661.04 72.243)" fill="#dbdbdb"/></g></g></g><g transform="translate(0.828 61.124)"><path d="M689.481-67.923a7.05,7.05,0,0,1,.122.96c.076,2.664.134,5.331.2,8.172-8.073.329-15.59-1.445-20.928-4.527-4.272-2.467-7.149-5.772-7.795-9.507-.4-4.714.044-9.45.121-14.327,7.479.024,15.294.038,23.116.07,10.934.042,21.879-.085,32.808.187l.367.014A37.178,37.178,0,0,1,734.3-82.442c5.247,3.03,8.285,7.306,7.739,11.914l-15.648-.024a13.048,13.048,0,0,0-2-4.006,7,7,0,0,0-1.746-1.383,13.792,13.792,0,0,0-6.759-1.614c-12.769-.057-25.537-.028-38.3-.032-1.191,3.318-.53,5.677,2.246,7.279C681.873-69.129,685.054-68.361,689.481-67.923Z" transform="translate(-660.915 87.153)" fill="#fff"/></g><g transform="translate(49.516 86.135)" style="isolation:isolate"><g transform="translate(0 0)" clip-path="url(#cr)"><g style="isolation:isolate"><path d="M711.794-61.124l-.044,15.666c0,.239,0,.479,0,.717l.044-15.666q0-.357,0-.717" transform="translate(-711.589 61.124)" fill="#dbdbdb"/><path d="M711.783-60.378l-.044,15.666c-.013,1.259-.053,2.517-.133,3.774q-.02.3-.023.588l.044-15.666c0-.192.01-.389.023-.588.08-1.257.119-2.515.133-3.774" transform="translate(-711.583 61.095)" fill="#e0e0e0"/><path d="M711.627-55.839l-.044,15.666v.082l.044-15.666v-.082" transform="translate(-711.583 60.917)" fill="#dbdbdb"/></g></g></g><g transform="translate(33.749 89.721)" style="isolation:isolate"><g clip-path="url(#cs)"><g style="isolation:isolate"><path d="M695.442-51.776,695.4-36.111c-.166-1.87-.228-3.743-.223-5.617l.045-15.666c-.006,1.874.056,3.747.222,5.617" transform="translate(-695.175 57.393)" fill="#dbdbdb"/></g></g></g><g transform="translate(65.839 92.212)"><path d="M729.209-48.073l-.044,15.666-.594-6.726.044-15.666Z" transform="translate(-728.57 54.8)" fill="#d9d9d9"/></g><g transform="translate(140.924 93.949)" style="isolation:isolate"><g transform="translate(0 0)" clip-path="url(#ct)"><g style="isolation:isolate"><path d="M821.553-52.993l-.044,15.666v.069l.044-15.667v-.068" transform="translate(-807.288 52.993)" fill="#dbdbdb"/><path d="M821.552-52.922l-.044,15.667q0,.355-.038.706l.045-15.666c.022-.234.035-.471.037-.707" transform="translate(-807.286 52.99)" fill="#e0e0e0"/><path d="M821.51-52.186l-.045,15.666q-.036.379-.106.752l.044-15.666c.047-.25.082-.5.107-.752" transform="translate(-807.282 52.961)" fill="#e6e6e6"/><path d="M821.4-51.4l-.044,15.666c-.051.276-.116.549-.194.821l.044-15.667c.079-.271.143-.545.194-.82" transform="translate(-807.274 52.931)" fill="#ebebeb"/><path d="M821.188-50.55l-.044,15.667a9.374,9.374,0,0,1-.321.929l.044-15.666a9.381,9.381,0,0,0,.321-.93" transform="translate(-807.261 52.898)" fill="#f0f0f0"/><path d="M820.846-49.582,820.8-33.916a10.2,10.2,0,0,1-.53,1.107l.044-15.666a10.21,10.21,0,0,0,.53-1.107" transform="translate(-807.239 52.86)" fill="#f5f5f5"/><path d="M820.275-48.43l-.044,15.666a11.707,11.707,0,0,1-1,1.512l.044-15.666a11.721,11.721,0,0,0,1-1.512" transform="translate(-807.198 52.815)" fill="#fafafa"/><path d="M819.2-46.857l-.044,15.666a14.733,14.733,0,0,1-1.791,1.911l.044-15.666a14.6,14.6,0,0,0,1.791-1.911" transform="translate(-807.126 52.753)" fill="#fff"/><path d="M817.352-44.868,817.308-29.2a18.184,18.184,0,0,1-1.436,1.161l.044-15.667a17.819,17.819,0,0,0,1.435-1.16" transform="translate(-807.067 52.675)" fill="#fff"/><path d="M815.871-43.661l-.044,15.667q-.529.385-1.1.75l.044-15.666q.575-.365,1.1-.751" transform="translate(-807.022 52.628)" fill="#fff"/><path d="M814.727-42.879l-.044,15.666q-.489.31-1.008.6l.045-15.666q.519-.294,1.007-.6" transform="translate(-806.981 52.598)" fill="#fff"/><path d="M813.672-42.251l-.045,15.666q-.577.326-1.192.631l.045-15.666q.615-.306,1.192-.631" transform="translate(-806.933 52.573)" fill="#fff"/><path d="M812.364-41.594l-.045,15.666a28.566,28.566,0,0,1-2.839,1.217l.044-15.667a28.686,28.686,0,0,0,2.84-1.217" transform="translate(-806.817 52.547)" fill="#fff"/><path d="M809.488-40.328l-.044,15.667c-.291.107-.586.21-.887.311l.045-15.666q.45-.151.886-.312" transform="translate(-806.781 52.498)" fill="#fff"/><path d="M808.574-40l-.045,15.666q-.346.117-.7.226l.044-15.666c.236-.073.47-.149.7-.226" transform="translate(-806.753 52.485)" fill="#fff"/><path d="M807.849-39.768,807.8-24.1c-.188.059-.378.116-.57.172l.044-15.666c.192-.056.381-.113.57-.172" transform="translate(-806.73 52.476)" fill="#fff"/><path d="M807.259-39.589l-.044,15.666q-.251.074-.505.144l.045-15.667q.254-.069.5-.143" transform="translate(-806.709 52.469)" fill="#fff"/></g></g></g><g transform="translate(33.972 95.337)" style="isolation:isolate"><g transform="translate(0 0)" clip-path="url(#cu)"><g style="isolation:isolate"><path d="M716.886-38.344l-.044,15.666c-.232-.02-.461-.043-.69-.068l.044-15.666c.229.024.459.047.69.068" transform="translate(-696.218 51.035)" fill="#999"/><path d="M715.942-38.461,715.9-22.795a38.144,38.144,0,0,1-6.244-1.194l.044-15.667a38.056,38.056,0,0,0,6.244,1.2" transform="translate(-695.964 51.083)" fill="#949494"/><path d="M709.626-39.679l-.044,15.667q-.912-.258-1.781-.557l.044-15.667q.868.3,1.781.557" transform="translate(-695.891 51.106)" fill="#999"/><path d="M707.79-40.256l-.044,15.667q-.679-.235-1.328-.492l.044-15.666q.649.258,1.328.491" transform="translate(-695.837 51.126)" fill="#9e9e9e"/><path d="M706.413-40.768,706.369-25.1q-.623-.246-1.216-.515l.044-15.666q.594.268,1.216.515" transform="translate(-695.788 51.147)" fill="#a3a3a3"/><path d="M705.15-41.305l-.044,15.666q-.581-.262-1.132-.543l.044-15.666q.552.281,1.132.543" transform="translate(-695.742 51.169)" fill="#a8a8a8"/><path d="M703.975-41.871l-.044,15.666q-.546-.278-1.065-.576l.044-15.666q.517.3,1.065.576" transform="translate(-695.699 51.192)" fill="#adadad"/><path d="M702.869-42.472l-.044,15.666-.055-.032q-.493-.284-.956-.584l.044-15.666q.464.3.956.584l.055.032" transform="translate(-695.657 51.217)" fill="#b3b3b3"/><path d="M701.819-43.115l-.044,15.666q-.5-.323-.965-.663l.044-15.666q.465.34.965.663" transform="translate(-695.618 51.244)" fill="#b8b8b8"/><path d="M700.817-43.807l-.044,15.666c-.321-.234-.63-.476-.925-.722l.044-15.667q.444.37.925.723" transform="translate(-695.581 51.274)" fill="#bdbdbd"/><path d="M699.855-44.562,699.811-28.9q-.468-.391-.891-.8l.044-15.666q.424.408.891.8" transform="translate(-695.544 51.306)" fill="#c2c2c2"/><path d="M698.929-45.4l-.044,15.666q-.457-.441-.859-.9l.045-15.666c.267.307.554.608.858.9" transform="translate(-695.509 51.343)" fill="#c7c7c7"/><path d="M698.037-46.342l-.045,15.666a12.918,12.918,0,0,1-.83-1.058l.045-15.666a12.555,12.555,0,0,0,.83,1.058" transform="translate(-695.476 51.386)" fill="#ccc"/><path d="M697.174-47.455l-.045,15.666a10.992,10.992,0,0,1-.811-1.349l.044-15.666a10.966,10.966,0,0,0,.812,1.349" transform="translate(-695.443 51.441)" fill="#d1d1d1"/><path d="M696.329-48.9l-.044,15.666a9.259,9.259,0,0,1-.817-2.32l.044-15.666a9.25,9.25,0,0,0,.817,2.32" transform="translate(-695.409 51.535)" fill="#d6d6d6"/><path d="M695.51-51.231l-.044,15.666c-.022-.1-.041-.211-.059-.317l.044-15.666c.017.106.037.211.059.317" transform="translate(-695.407 51.548)" fill="#dbdbdb"/></g></g></g><g transform="translate(106.485 77.803)" style="isolation:isolate"><g clip-path="url(#cv)"><g style="isolation:isolate"><path d="M771.5-37.941l-.044,15.666c-.013-.07-.028-.145-.044-.223l.044-15.666c.016.078.032.152.044.223" transform="translate(-770.89 68.559)" fill="#dbdbdb"/><path d="M771.452-38.173l-.044,15.666-.048-.23L771.4-38.4l.048.23" transform="translate(-770.888 68.568)" fill="#d6d6d6"/><path d="M771.385-39.63l-.044,15.666a4.886,4.886,0,0,1-.124-.949c-.128-9.741-.318-19.482-.348-29.216l.044-15.666c.031,9.733.22,19.474.348,29.215a4.867,4.867,0,0,0,.124.95" transform="translate(-770.869 69.795)" fill="#dbdbdb"/></g></g></g><g transform="translate(131.094 106.972)" style="isolation:isolate"><g transform="translate(0 0)" clip-path="url(#cw)"><g style="isolation:isolate"><path d="M806.751-39.44l-.045,15.667-.082.023.044-15.666.083-.024" transform="translate(-796.875 39.44)" fill="#fff"/><path d="M806.646-39.415,806.6-23.749q-.268.078-.539.153l.045-15.667q.27-.073.538-.152" transform="translate(-796.854 39.439)" fill="#fff"/><path d="M806.088-39.257l-.045,15.667c-.168.046-.336.09-.506.135l.044-15.666q.255-.066.507-.135" transform="translate(-796.833 39.433)" fill="#fff"/><path d="M805.561-39.116l-.044,15.666q-.239.062-.48.121l.044-15.666q.241-.059.481-.121" transform="translate(-796.814 39.427)" fill="#fafafa"/><path d="M805.061-38.99l-.044,15.666c-.158.038-.314.077-.473.113l.044-15.667q.238-.055.473-.112" transform="translate(-796.794 39.422)" fill="#f5f5f5"/><path d="M804.569-38.873l-.044,15.667-.464.1.044-15.667c.156-.034.31-.068.464-.1" transform="translate(-796.775 39.418)" fill="#f0f0f0"/><path d="M804.086-38.764,804.042-23.1l-.466.1.045-15.666c.156-.033.31-.065.465-.1" transform="translate(-796.756 39.414)" fill="#ebebeb"/><path d="M803.6-38.66l-.045,15.666c-.157.033-.314.064-.472.094l.044-15.666.473-.094" transform="translate(-796.737 39.41)" fill="#e6e6e6"/><path d="M803.11-38.562,803.066-22.9c-.16.032-.319.062-.48.09l.044-15.666c.16-.029.32-.06.479-.09" transform="translate(-796.718 39.406)" fill="#e0e0e0"/><path d="M802.61-38.468,802.566-22.8q-.245.045-.493.086l.044-15.666q.248-.042.493-.086" transform="translate(-796.698 39.402)" fill="#dbdbdb"/><path d="M802.1-38.378l-.044,15.666q-.255.043-.513.084l.044-15.666q.258-.04.513-.084" transform="translate(-796.677 39.398)" fill="#d6d6d6"/><path d="M801.562-38.291l-.044,15.666q-.267.042-.535.081l.044-15.666c.18-.026.357-.053.535-.081" transform="translate(-796.655 39.395)" fill="#d1d1d1"/><path d="M801-38.207l-.044,15.666q-.283.04-.565.077l.044-15.666q.284-.036.565-.077" transform="translate(-796.632 39.392)" fill="#ccc"/><path d="M800.414-38.127l-.044,15.666q-.3.039-.605.074l.044-15.666q.3-.035.605-.074" transform="translate(-796.608 39.389)" fill="#c7c7c7"/><path d="M799.782-38.05l-.044,15.666c-.216.025-.433.049-.65.07l.044-15.666q.326-.033.651-.07" transform="translate(-796.581 39.386)" fill="#c2c2c2"/><path d="M799.1-37.977l-.044,15.666c-.235.024-.473.045-.709.065l.044-15.666c.237-.02.474-.041.709-.065" transform="translate(-796.552 39.383)" fill="#bdbdbd"/><path d="M798.362-37.909l-.044,15.666q-.386.032-.774.058l.044-15.666q.388-.026.773-.058" transform="translate(-796.521 39.38)" fill="#b8b8b8"/><path d="M797.553-37.849l-.044,15.666q-.43.027-.861.048l.044-15.666c.288-.013.575-.03.861-.048" transform="translate(-796.486 39.378)" fill="#b3b3b3"/><path d="M796.686-37.8l-.044,15.666-.162.007.044-15.666.162-.007" transform="translate(-796.479 39.376)" fill="#adadad"/></g></g></g><g transform="translate(107.049 108.421)" style="isolation:isolate"><g transform="translate(0 0)" clip-path="url(#cx)"><g style="isolation:isolate"><path d="M796.285-37.792l-.044,15.666q-2.929.062-5.869.06l.044-15.666q2.942,0,5.869-.06" transform="translate(-772.195 37.927)" fill="#a8a8a8"/><path d="M789.676-37.738l-.044,15.666c-5.979,0-12.01-.137-18.176-.194l.044-15.666c6.166.056,12.2.2,18.176.194" transform="translate(-771.456 37.932)" fill="#a3a3a3"/></g></g></g><g transform="translate(106.475 61.431)"><path d="M819.421-55.943c1.172,6.128-4.47,12-14.068,14.65a41.4,41.4,0,0,1-9.831,1.584c-7.905.166-15.856-.061-24.045-.135a8.056,8.056,0,0,1-.216-1.4c-.128-9.741-.317-19.482-.348-29.215-.032-.294-.046-.585-.054-.879-.085-8.536,11.8-15.468,26.526-15.493.563,0,1.132.038,1.438.046l.116,8.766a65.391,65.391,0,0,0-8.73,2.642c-1.676.9-2.678,2.132-2.787,3.454-.147,7.584.091,15.185.208,22.765,11.194.674,14.586-.779,16.27-6.79Z" transform="translate(-770.859 86.833)" fill="#fff"/></g><g transform="translate(33.794 73.064)"><path d="M727.311-55.579l15.765.021.319,16.489c-9.117.046-18.242-.181-27.326-.695a33.39,33.39,0,0,1-13.511-3.977c-3.947-2.278-6.552-5.326-7.113-8.714-.66-7.428.332-14.9.6-22.273l14.646.081a12.422,12.422,0,0,1,.2,1.481c.079,5.335.458,10.673.12,16-.2,3.036.871,5.271,3.319,6.684,2.742,1.584,7.217,2.136,13.576,1.629Z" transform="translate(-695.221 74.727)" fill="#fff"/></g><g transform="translate(54.597 108.028)" style="isolation:isolate"><g clip-path="url(#cy)"><g style="isolation:isolate"><path d="M745.271-37.618l-.044,15.666-1.983.006.044-15.666,1.983-.006" transform="translate(-717.901 38.313)" fill="#a8a8a8"/><path d="M742.793-37.618l-.044,15.666q-6.093,0-12.184-.156l.045-15.666q6.088.16,12.183.156" transform="translate(-717.405 38.319)" fill="#a3a3a3"/><path d="M730.074-37.8l-.045,15.666q-6.589-.174-13.159-.545l.044-15.666q6.568.372,13.16.545" transform="translate(-716.87 38.341)" fill="#9e9e9e"/></g></g></g></g></g></g></g></svg>