<svg xmlns="http://www.w3.org/2000/svg" width="149.131" height="136.033" viewBox="0 0 149.131 136.033"><path d="M659.606,461.627h-64.88a10,10,0,0,1-9.992-9.992V335.586a10,10,0,0,1,9.992-9.992h64.88a10,10,0,0,1,9.992,9.992v15.8a2.36,2.36,0,1,1-4.72,0v-15.8a5.277,5.277,0,0,0-5.272-5.271h-64.88a5.277,5.277,0,0,0-5.272,5.271V451.635a5.277,5.277,0,0,0,5.272,5.272h64.88a5.277,5.277,0,0,0,5.272-5.272V436.542a2.36,2.36,0,0,1,4.72,0v15.094A10,10,0,0,1,659.606,461.627Z" transform="translate(-584.734 -325.594)" fill="#333"/><path d="M672.054,461.627H620.309a2.36,2.36,0,0,1,0-4.72h51.4a7.192,7.192,0,0,0,2.616-5.272V335.586a5.279,5.279,0,0,0-5.274-5.271H620.815a2.36,2.36,0,1,1,0-4.72h48.238a10,10,0,0,1,9.994,9.992V451.635C679.048,456.687,675.043,461.627,672.054,461.627Z" transform="translate(-529.917 -325.594)" fill="#333"/><path d="M650.208,336.688H591.056a2.36,2.36,0,1,1,0-4.72h59.152a2.36,2.36,0,1,1,0,4.72Z" transform="translate(-578.199 -315.075)" fill="#333"/><path d="M616.9,333.6H598.8a2.36,2.36,0,0,1,0-4.72H616.9a2.36,2.36,0,1,1,0,4.72Z" transform="translate(-565.419 -320.174)" fill="#333"/><path d="M666.273,336.688H621.326a2.36,2.36,0,0,1,0-4.72h44.947a2.36,2.36,0,1,1,0,4.72Z" transform="translate(-528.239 -315.075)" fill="#333"/><path d="M641.818,333.6H623.711a2.36,2.36,0,1,1,0-4.72h18.107a2.36,2.36,0,1,1,0,4.72Z" transform="translate(-524.308 -320.174)" fill="#333"/><path d="M634.272,406.522a34.115,34.115,0,1,1,34.115-34.115A34.154,34.154,0,0,1,634.272,406.522Zm0-63.51a29.395,29.395,0,1,0,29.395,29.395A29.43,29.43,0,0,0,634.272,343.012Z" transform="translate(-559.281 -304.638)" fill="#333"/><path d="M650.208,374.577H591.056a2.36,2.36,0,1,1,0-4.72h59.152a2.36,2.36,0,1,1,0,4.72Z" transform="translate(-578.199 -252.546)" fill="#333"/><path d="M666.17,374.577H620.309a2.36,2.36,0,0,1,0-4.72H666.17a2.36,2.36,0,0,1,0,4.72Z" transform="translate(-529.917 -252.546)" fill="#333"/><path d="M605.671,372.108a2.363,2.363,0,0,1-1.6-.62l-14.288-13.124a2.361,2.361,0,0,1,0-3.477l14.288-13.124a2.362,2.362,0,0,1,3.957,1.739v6.12h7.28a2.36,2.36,0,0,1,0,4.72h-9.642a2.359,2.359,0,0,1-2.359-2.361v-3.106l-8.439,7.752,8.439,7.75v-3.106a2.357,2.357,0,0,1,2.359-2.359h6.613a2.36,2.36,0,1,1,0,4.72h-4.251v6.12a2.361,2.361,0,0,1-2.362,2.359Z" transform="translate(-577.654 -299.94)" fill="#333"/><path d="M638.226,380.407a2.358,2.358,0,0,1-2.359-2.359v-6.122h-7.28a2.36,2.36,0,1,1,0-4.72h9.642a2.361,2.361,0,0,1,2.359,2.361v3.109l8.436-7.752-8.436-7.752v3.106a2.361,2.361,0,0,1-2.359,2.361h-6.615a2.36,2.36,0,0,1,0-4.72h4.254V351.8a2.362,2.362,0,0,1,3.957-1.739l14.285,13.127a2.361,2.361,0,0,1,0,3.477l-14.285,13.124A2.362,2.362,0,0,1,638.226,380.407Z" transform="translate(-516.261 -286.246)" fill="#333"/><path d="M735.812,58.144H718.12a5.213,5.213,0,0,0-5.2,5.2V76.5a5.212,5.212,0,0,0,5.2,5.2h2.868l-.975.975a2.478,2.478,0,0,0,3.506,3.5l4.47-4.477,7.668,0a.405.405,0,0,1,.406.406V94.935a.405.405,0,0,1-.406.406H718.279a.408.408,0,0,1-.406-.406V90.784a2.476,2.476,0,1,0-4.952,0v4.311a5.21,5.21,0,0,0,5.2,5.2h17.692a5.213,5.213,0,0,0,5.2-5.2V81.938a5.21,5.21,0,0,0-5.2-5.2h-2.868l.86-.866.265-.265a2.478,2.478,0,0,0-.138-3.288,2.453,2.453,0,0,0-1.744-.758,2.689,2.689,0,0,0-1.769.7l-4.474,4.477h-7.668a.407.407,0,0,1-.406-.406V63.5a.411.411,0,0,1,.406-.41h17.373a.412.412,0,0,1,.41.41V67.65a2.476,2.476,0,1,0,4.952,0V63.339A5.214,5.214,0,0,0,735.812,58.144Z" transform="translate(-651.975 -11.45)" fill="#333"/></svg>