<svg xmlns="http://www.w3.org/2000/svg" width="149.345" height="100.733" viewBox="0 0 149.345 100.733"><path d="M652.753,209.424a2.363,2.363,0,0,1-2.038-1.163,45.85,45.85,0,0,0-39.4-22.581,2.36,2.36,0,1,1,0-4.72,50.6,50.6,0,0,1,43.468,24.91,2.358,2.358,0,0,1-2.033,3.554Z" transform="translate(-536.52 -180.96)" fill="#333"/><path d="M629.929,205.365a2.362,2.362,0,0,1-2.343-2.1,45.872,45.872,0,0,0-.93-5.444,2.359,2.359,0,1,1,4.593-1.076,50.294,50.294,0,0,1,1.031,6.006,2.362,2.362,0,0,1-2.091,2.6C630.1,205.36,630.016,205.365,629.929,205.365Z" transform="translate(-507.415 -157.919)" fill="#333"/><path d="M635.7,213.97c-15.213,0-29.874-3.027-40.224-8.306a2.36,2.36,0,0,1-.851-3.469,50.343,50.343,0,0,1,82.149,0,2.36,2.36,0,0,1-.851,3.469C665.57,210.943,650.908,213.97,635.7,213.97Zm-35.519-11.3c9.509,4.2,22.257,6.575,35.519,6.575s26.01-2.377,35.517-6.575a45.615,45.615,0,0,0-71.036,0Z" transform="translate(-560.898 -180.96)" fill="#333"/><path d="M611.317,233.688a2.362,2.362,0,0,1-2.361-2.361V183.319a2.36,2.36,0,0,1,4.72,0v48.008A2.36,2.36,0,0,1,611.317,233.688Z" transform="translate(-536.52 -180.96)" fill="#333"/><path d="M653.065,203.794H624.772a2.36,2.36,0,1,1,0-4.72h28.292a2.36,2.36,0,0,1,0,4.72Z" transform="translate(-514.315 -151.066)" fill="#333"/><path d="M622.9,206.146a2.359,2.359,0,0,1-1-4.495l22.578-10.6a2.36,2.36,0,0,1,2.006,4.272L623.9,205.92A2.335,2.335,0,0,1,622.9,206.146Z" transform="translate(-517.407 -164.679)" fill="#333"/><path d="M639.566,210.477a6.479,6.479,0,1,1,6.477-6.48A6.488,6.488,0,0,1,639.566,210.477Zm0-8.237A1.758,1.758,0,1,0,641.323,204,1.76,1.76,0,0,0,639.566,202.24Z" transform="translate(-496.698 -153.631)" fill="#333"/><path d="M635.47,201.483a6.479,6.479,0,1,1,6.477-6.477A6.483,6.483,0,0,1,635.47,201.483Zm0-8.237a1.758,1.758,0,1,0,1.76,1.76A1.76,1.76,0,0,0,635.47,193.246Z" transform="translate(-503.453 -168.474)" fill="#333"/><path d="M611.317,237.291a2.36,2.36,0,1,1,0-4.72,45.711,45.711,0,0,0,39.919-23.492,2.361,2.361,0,0,1,4.126,2.3A50.438,50.438,0,0,1,611.317,237.291Z" transform="translate(-536.52 -136.558)" fill="#333"/><path d="M628.953,211.511a2.247,2.247,0,0,1-.541-.064,2.356,2.356,0,0,1-1.757-2.836,45.921,45.921,0,0,0,.93-5.441,2.361,2.361,0,0,1,4.694.514,50.57,50.57,0,0,1-1.031,6.006A2.36,2.36,0,0,1,628.953,211.511Z" transform="translate(-507.415 -147.778)" fill="#333"/><path d="M626.626,281.69a50.529,50.529,0,0,1-12.292-1.516,2.365,2.365,0,0,1-1.222-.755c-8.285-9.695-13.432-28.125-13.432-48.1s5.147-38.4,13.432-48.093a2.349,2.349,0,0,1,1.222-.755,50.7,50.7,0,0,1,24.584,0,2.351,2.351,0,0,1,1.219.755c8.285,9.692,13.432,28.123,13.432,48.093s-5.147,38.4-13.432,48.1a2.368,2.368,0,0,1-1.219.755A50.542,50.542,0,0,1,626.626,281.69Zm-10.4-5.916a45.972,45.972,0,0,0,20.807,0c7.307-9.035,11.82-25.957,11.82-44.451s-4.513-35.416-11.82-44.449a45.974,45.974,0,0,0-20.807,0c-7.3,9.032-11.821,25.952-11.821,44.449S608.916,266.739,616.221,275.774Z" transform="translate(-551.829 -180.956)" fill="#333"/><path d="M635.7,239.523a50.483,50.483,0,0,1-41.075-21.234,2.357,2.357,0,0,1,.851-3.467c10.35-5.282,25.011-8.309,40.224-8.309s29.875,3.027,40.224,8.309a2.356,2.356,0,0,1,.851,3.467A50.486,50.486,0,0,1,635.7,239.523Zm-35.519-21.714a45.615,45.615,0,0,0,71.036,0c-9.507-4.2-22.257-6.575-35.517-6.575S609.686,213.611,600.176,217.809Z" transform="translate(-560.898 -138.79)" fill="#333"/><path d="M611.317,251.8a2.36,2.36,0,0,1-2.361-2.359V201.433a2.36,2.36,0,0,1,4.72,0v48.008A2.357,2.357,0,0,1,611.317,251.8Z" transform="translate(-536.52 -151.066)" fill="#333"/><path d="M640.9,203.794h-29.58a2.36,2.36,0,1,1,0-4.72H640.9a2.36,2.36,0,0,1,0,4.72Z" transform="translate(-536.52 -151.066)" fill="#333"/><path d="M653.065,203.794H624.772a2.36,2.36,0,1,1,0-4.72h28.292a2.36,2.36,0,0,1,0,4.72Z" transform="translate(-514.315 -151.066)" fill="#333"/><path d="M645.476,218.644a2.367,2.367,0,0,1-1-.225L621.9,207.82a2.36,2.36,0,1,1,2.006-4.272l22.578,10.6a2.361,2.361,0,0,1-1,4.5Z" transform="translate(-517.407 -144.056)" fill="#333"/><path d="M639.566,210.477a6.479,6.479,0,1,1,6.477-6.48A6.488,6.488,0,0,1,639.566,210.477Zm0-8.237A1.758,1.758,0,1,0,641.323,204,1.76,1.76,0,0,0,639.566,202.24Z" transform="translate(-496.698 -153.631)" fill="#333"/><path d="M635.47,219.47a6.479,6.479,0,1,1,6.477-6.48A6.486,6.486,0,0,1,635.47,219.47Zm0-8.237a1.758,1.758,0,1,0,1.76,1.757A1.759,1.759,0,0,0,635.47,211.233Z" transform="translate(-503.453 -138.79)" fill="#333"/><path d="M595.588,209.424a2.36,2.36,0,0,1-2.035-3.554,50.6,50.6,0,0,1,43.471-24.91,2.36,2.36,0,1,1,0,4.72,45.854,45.854,0,0,0-39.4,22.578A2.36,2.36,0,0,1,595.588,209.424Z" transform="translate(-562.475 -180.96)" fill="#333"/><path d="M593.222,205.366c-.088,0-.172-.005-.26-.013a2.363,2.363,0,0,1-2.091-2.6,50.821,50.821,0,0,1,1.028-6.006,2.36,2.36,0,0,1,4.6,1.076,45.873,45.873,0,0,0-.93,5.444A2.362,2.362,0,0,1,593.222,205.366Z" transform="translate(-566.39 -157.92)" fill="#333"/><path d="M615.384,203.794H587.092a2.36,2.36,0,0,1,0-4.72h28.292a2.36,2.36,0,1,1,0,4.72Z" transform="translate(-576.496 -151.066)" fill="#333"/><path d="M613.7,206.146a2.326,2.326,0,0,1-1-.225l-22.578-10.6a2.36,2.36,0,0,1,2.006-4.272l22.578,10.6a2.36,2.36,0,0,1-1,4.495Z" transform="translate(-569.846 -164.679)" fill="#333"/><path d="M588.1,210.477a6.479,6.479,0,1,1,6.48-6.48A6.486,6.486,0,0,1,588.1,210.477Zm0-8.237a1.758,1.758,0,1,0,1.76,1.757A1.758,1.758,0,0,0,588.1,202.24Z" transform="translate(-581.625 -153.631)" fill="#333"/><path d="M592.2,201.483a6.479,6.479,0,1,1,6.477-6.477A6.486,6.486,0,0,1,592.2,201.483Zm0-8.237a1.758,1.758,0,1,0,1.757,1.76A1.762,1.762,0,0,0,592.2,193.246Z" transform="translate(-574.87 -168.474)" fill="#333"/><path d="M637.365,237.291a50.436,50.436,0,0,1-44.046-25.92,2.359,2.359,0,0,1,4.124-2.293,45.714,45.714,0,0,0,39.922,23.492,2.36,2.36,0,1,1,0,4.72Z" transform="translate(-562.817 -136.558)" fill="#333"/><path d="M594.2,211.51a2.361,2.361,0,0,1-2.3-1.821,50.563,50.563,0,0,1-1.028-6.006,2.361,2.361,0,0,1,4.694-.514,45.921,45.921,0,0,0,.93,5.441,2.366,2.366,0,0,1-2.3,2.9Z" transform="translate(-566.39 -147.778)" fill="#333"/><path d="M629.641,203.794h-29.58a2.36,2.36,0,0,1,0-4.72h29.58a2.36,2.36,0,1,1,0,4.72Z" transform="translate(-555.093 -151.066)" fill="#333"/><path d="M615.384,203.794H587.092a2.36,2.36,0,0,1,0-4.72h28.292a2.36,2.36,0,1,1,0,4.72Z" transform="translate(-576.496 -151.066)" fill="#333"/><path d="M591.123,218.644a2.361,2.361,0,0,1-1-4.5l22.578-10.6a2.36,2.36,0,0,1,2.006,4.272l-22.578,10.6A2.366,2.366,0,0,1,591.123,218.644Z" transform="translate(-569.846 -144.056)" fill="#333"/><path d="M588.1,210.477a6.479,6.479,0,1,1,6.48-6.48A6.486,6.486,0,0,1,588.1,210.477Zm0-8.237a1.758,1.758,0,1,0,1.76,1.757A1.758,1.758,0,0,0,588.1,202.24Z" transform="translate(-581.625 -153.631)" fill="#333"/><path d="M592.2,219.47a6.479,6.479,0,1,1,6.477-6.48A6.488,6.488,0,0,1,592.2,219.47Zm0-8.237a1.758,1.758,0,1,0,1.757,1.757A1.762,1.762,0,0,0,592.2,211.233Z" transform="translate(-574.87 -138.79)" fill="#333"/></svg>