<svg xmlns="http://www.w3.org/2000/svg" width="122.254" height="147.692" viewBox="0 0 122.254 147.692"><path d="M630.107,322.06a31.2,31.2,0,0,1-23.776-10.98,2.359,2.359,0,0,1,3.591-3.061,26.5,26.5,0,1,0,10.858-42,2.359,2.359,0,1,1-1.664-4.415,31.229,31.229,0,1,1,10.991,60.462Z" transform="translate(-550.022 -216.988)" fill="#333"/><path d="M668.14,254.647h-65.6a2.36,2.36,0,1,1,0-4.72h65.6a2.36,2.36,0,1,1,0,4.72Z" transform="translate(-559.247 -232.965)" fill="#333"/><path d="M668.14,296.545h-65.6a2.36,2.36,0,1,1,0-4.72h65.6a2.36,2.36,0,1,1,0,4.72Z" transform="translate(-559.247 -163.82)" fill="#333"/><path d="M676.012,391.219H608.365a12.352,12.352,0,0,1-12.337-12.337v-15.2a2.359,2.359,0,0,1,4.718,0v15.2a7.627,7.627,0,0,0,7.62,7.617h67.647a7.625,7.625,0,0,0,7.617-7.617V255.864a7.625,7.625,0,0,0-7.617-7.617H608.365a7.627,7.627,0,0,0-7.62,7.617v8.7a2.359,2.359,0,0,1-4.718,0v-8.7a12.352,12.352,0,0,1,12.337-12.337h67.647a12.352,12.352,0,0,1,12.337,12.337V378.881A12.352,12.352,0,0,1,676.012,391.219Z" transform="translate(-566.095 -243.527)" fill="#333"/><path d="M617.026,339.371a2.359,2.359,0,0,1-1.423-.477,78.3,78.3,0,0,1-30.868-62.089v-8.637a2.359,2.359,0,0,1,2.316-2.361c20.93-.395,27.709-10.458,27.988-10.885a2.368,2.368,0,0,1,3.978,0c.3.464,7.1,10.487,27.987,10.882a2.359,2.359,0,0,1,2.314,2.361v8.637a78.284,78.284,0,0,1-30.866,62.086A2.364,2.364,0,0,1,617.026,339.371Zm-27.571-68.927v6.361a73.564,73.564,0,0,0,27.571,57.218A73.567,73.567,0,0,0,644.6,276.805v-6.361c-15.889-.843-24.131-7.055-27.574-10.583C613.583,263.389,605.34,269.6,589.454,270.444Z" transform="translate(-584.734 -226.507)" fill="#333"/><path d="M611.227,319.86a2.351,2.351,0,0,1-1.447-.5A56.425,56.425,0,0,1,588.248,275v-6.1a2.364,2.364,0,0,1,2.314-2.359c13.954-.27,18.481-7.058,18.666-7.347a2.371,2.371,0,0,1,4,0c.2.315,4.741,7.076,18.666,7.347a2.362,2.362,0,0,1,2.314,2.359V275a56.421,56.421,0,0,1-21.531,44.361A2.351,2.351,0,0,1,611.227,319.86Zm-18.258-48.694V275a51.758,51.758,0,0,0,18.258,39.466A51.758,51.758,0,0,0,629.484,275v-3.838c-9.978-.7-15.579-4.543-18.258-7.116C608.547,266.624,602.949,270.466,592.968,271.166Z" transform="translate(-578.935 -219.464)" fill="#333"/><path d="M627.731,251.342h-15.8a2.36,2.36,0,1,1,0-4.72h15.8a2.36,2.36,0,1,1,0,4.72Z" transform="translate(-543.74 -238.419)" fill="#333"/><path d="M664.819,302.192H587.093a2.36,2.36,0,0,1,0-4.72h77.726a2.36,2.36,0,0,1,0,4.72Z" transform="translate(-584.734 -154.501)" fill="#333"/><path d="M733.9,58.144H717.685a4.777,4.777,0,0,0-4.764,4.764V74.966a4.776,4.776,0,0,0,4.764,4.761h2.628l-.894.894a2.271,2.271,0,0,0,3.213,3.209l4.1-4.1,7.027,0a.371.371,0,0,1,.372.372V91.86a.371.371,0,0,1-.372.372H717.832a.374.374,0,0,1-.372-.372v-3.8a2.269,2.269,0,1,0-4.538,0v3.95a4.775,4.775,0,0,0,4.764,4.764H733.9a4.777,4.777,0,0,0,4.764-4.764V79.949a4.774,4.774,0,0,0-4.764-4.761h-2.628l.788-.794.242-.243a2.271,2.271,0,0,0-.126-3.013,2.248,2.248,0,0,0-1.6-.694,2.465,2.465,0,0,0-1.621.641l-4.1,4.1h-7.027a.373.373,0,0,1-.372-.372V63.055a.376.376,0,0,1,.372-.375h15.921a.377.377,0,0,1,.376.375v3.8a2.269,2.269,0,1,0,4.538,0v-3.95A4.779,4.779,0,0,0,733.9,58.144Z" transform="translate(-645.709 -3.611)" fill="#333"/></svg>