<svg xmlns="http://www.w3.org/2000/svg" width="164.026" height="164.027" viewBox="0 0 164.026 164.027"><path d="M632.55,356.114a33.954,33.954,0,1,1,33.956-33.956A33.993,33.993,0,0,1,632.55,356.114Zm0-62.625a28.67,28.67,0,1,0,28.672,28.669A28.7,28.7,0,0,0,632.55,293.489Z" transform="translate(-587.433 -277.041)" fill="#333"/><path d="M651.075,357.293H635.8a5.231,5.231,0,0,1-5.225-5.225v-4.3a2.642,2.642,0,1,1,5.284,0v4.3l15.214-.059-.059-11.844-15.214.062A5.231,5.231,0,0,1,630.577,335V323.1a5.231,5.231,0,0,1,5.225-5.225h15.273A5.231,5.231,0,0,1,656.3,323.1v4.3a2.642,2.642,0,1,1-5.284,0v-4.3l-15.214.059L635.861,335l15.214-.059a5.23,5.23,0,0,1,5.225,5.222v11.9A5.231,5.231,0,0,1,651.075,357.293Z" transform="translate(-524.532 -218.678)" fill="#333"/><path d="M636.663,363.929a2.641,2.641,0,0,1-2.641-2.643V319.174a2.642,2.642,0,0,1,5.284,0v42.112A2.644,2.644,0,0,1,636.663,363.929Z" transform="translate(-517.756 -221.323)" fill="#333"/><path d="M657.421,380.985a33.954,33.954,0,1,1,33.956-33.956A33.993,33.993,0,0,1,657.421,380.985Zm0-62.625a28.67,28.67,0,1,0,28.672,28.669A28.7,28.7,0,0,0,657.421,318.36Z" transform="translate(-538.515 -228.123)" fill="#333"/><path d="M664.822,399.55a45.119,45.119,0,1,1,45.12-45.12A45.17,45.17,0,0,1,664.822,399.55Zm0-84.953a39.835,39.835,0,1,0,39.836,39.833A39.879,39.879,0,0,0,664.822,314.6Z" transform="translate(-545.916 -235.524)" fill="#333"/><path d="M639.951,374.679a45.119,45.119,0,1,1,45.12-45.12A45.17,45.17,0,0,1,639.951,374.679Zm0-84.953a39.835,39.835,0,1,0,39.836,39.833A39.879,39.879,0,0,0,639.951,289.726Z" transform="translate(-594.834 -284.442)" fill="#333"/><path d="M669.036,342.56a2.641,2.641,0,0,1-2.641-2.643v-25.04a19.127,19.127,0,0,0-19.1-19.1H628.384a2.642,2.642,0,0,1,0-5.284h18.908a24.415,24.415,0,0,1,24.385,24.388v25.04A2.641,2.641,0,0,1,669.036,342.56Z" transform="translate(-534.04 -272.55)" fill="#333"/><path d="M649.484,319.451a2.647,2.647,0,0,1-1.929-.837l-11.161-11.93a2.643,2.643,0,1,1,3.86-3.611l9.23,9.868,9.23-9.868a2.643,2.643,0,1,1,3.86,3.611l-11.161,11.93A2.646,2.646,0,0,1,649.484,319.451Z" transform="translate(-514.488 -249.442)" fill="#333"/><path d="M647.021,368.2h-18.9a24.413,24.413,0,0,1-24.388-24.388v-25.04a2.642,2.642,0,0,1,5.284,0v25.04a19.124,19.124,0,0,0,19.1,19.1h18.9a2.642,2.642,0,1,1,0,5.284Z" transform="translate(-577.341 -222.114)" fill="#333"/><path d="M624.928,333.321a2.64,2.64,0,0,1-1.931-.837l-9.23-9.868-9.227,9.868a2.643,2.643,0,0,1-3.86-3.611l11.159-11.93a2.725,2.725,0,0,1,3.86,0l11.159,11.93a2.642,2.642,0,0,1-1.929,4.447Z" transform="translate(-584.738 -222.09)" fill="#333"/><path d="M628.359,292.482H610.511a5.261,5.261,0,0,0-5.245,5.248V311a5.259,5.259,0,0,0,5.245,5.248h2.9l-.988.985a2.5,2.5,0,0,0,3.539,3.534l4.51-4.519H628.2a.412.412,0,0,1,.412.406V329.6a.41.41,0,0,1-.409.409H610.671a.415.415,0,0,1-.41-.409v-4.189a2.5,2.5,0,1,0-4.993,0h0v4.349a5.256,5.256,0,0,0,5.243,5.246h17.849a5.257,5.257,0,0,0,5.245-5.246V316.487a5.255,5.255,0,0,0-5.245-5.248h-2.893l.869-.872.267-.267a2.5,2.5,0,0,0-.139-3.317,2.467,2.467,0,0,0-1.759-.763,2.7,2.7,0,0,0-1.783.706l-4.519,4.513h-7.732a.413.413,0,0,1-.412-.409V297.885a.417.417,0,0,1,.412-.412h17.522a.414.414,0,0,1,.415.412v4.186a2.5,2.5,0,0,0,2.5,2.5h0a2.5,2.5,0,0,0,2.5-2.5v-4.353A5.261,5.261,0,0,0,628.359,292.482Z" transform="translate(-574.318 -268.628)" fill="#333"/></svg>