<svg xmlns="http://www.w3.org/2000/svg" width="167.186" height="112.768" viewBox="0 0 167.186 112.768"><path d="M673.372,459.777a2.636,2.636,0,0,1-2.279-1.305,51.342,51.342,0,0,0-44.105-25.278,2.642,2.642,0,0,1,0-5.284A56.642,56.642,0,0,1,675.65,455.8a2.639,2.639,0,0,1-2.279,3.979Z" transform="translate(-543.257 -427.91)" fill="#333"/><path d="M645.72,453.564a2.647,2.647,0,0,1-2.626-2.356,50.8,50.8,0,0,0-1.041-6.091,2.642,2.642,0,0,1,5.145-1.208,57.063,57.063,0,0,1,1.151,6.723,2.647,2.647,0,0,1-2.338,2.916C645.913,453.558,645.814,453.564,645.72,453.564Z" transform="translate(-508.57 -400.448)" fill="#333"/><path d="M656.044,464.865c-17.03,0-33.443-3.388-45.028-9.3a2.642,2.642,0,0,1-.952-3.884,56.352,56.352,0,0,1,91.961,0,2.642,2.642,0,0,1-.952,3.884C689.486,461.477,673.073,464.865,656.044,464.865ZM616.285,452.22c10.642,4.7,24.913,7.361,39.759,7.361s29.117-2.661,39.762-7.361a51.058,51.058,0,0,0-79.521,0Z" transform="translate(-572.313 -427.91)" fill="#333"/><path d="M626.988,486.936a2.639,2.639,0,0,1-2.641-2.641V430.553a2.642,2.642,0,1,1,5.284,0V484.3A2.641,2.641,0,0,1,626.988,486.936Z" transform="translate(-543.257 -427.91)" fill="#333"/><path d="M672.116,451.308H640.444a2.642,2.642,0,1,1,0-5.284h31.671a2.642,2.642,0,1,1,0,5.284Z" transform="translate(-516.794 -392.282)" fill="#333"/><path d="M638.571,454.928a2.643,2.643,0,0,1-1.124-5.035l25.275-11.865a2.642,2.642,0,1,1,2.246,4.783l-25.275,11.865A2.607,2.607,0,0,1,638.571,454.928Z" transform="translate(-520.478 -408.505)" fill="#333"/><path d="M655.728,458.975a7.253,7.253,0,1,1,7.254-7.251A7.258,7.258,0,0,1,655.728,458.975Zm0-9.221a1.969,1.969,0,1,0,1.97,1.97A1.97,1.97,0,0,0,655.728,449.754Z" transform="translate(-495.796 -395.339)" fill="#333"/><path d="M651.634,449.982a7.253,7.253,0,1,1,7.254-7.251A7.258,7.258,0,0,1,651.634,449.982Zm0-9.221a1.969,1.969,0,1,0,1.97,1.97A1.97,1.97,0,0,0,651.634,440.761Z" transform="translate(-503.848 -413.027)" fill="#333"/><path d="M626.988,487.756a2.642,2.642,0,0,1,0-5.284,51.181,51.181,0,0,0,44.69-26.3,2.641,2.641,0,0,1,4.616,2.566A56.459,56.459,0,0,1,626.988,487.756Z" transform="translate(-543.257 -374.989)" fill="#333"/><path d="M644.628,459.711a2.648,2.648,0,0,1-2.575-3.246,50.853,50.853,0,0,0,1.041-6.094,2.643,2.643,0,1,1,5.254.579,56.437,56.437,0,0,1-1.151,6.72A2.642,2.642,0,0,1,644.628,459.711Z" transform="translate(-508.57 -388.363)" fill="#333"/><path d="M645.232,540.672a56.58,56.58,0,0,1-13.76-1.7,2.613,2.613,0,0,1-1.365-.846c-9.274-10.85-15.036-31.481-15.036-53.837s5.762-42.987,15.036-53.837a2.637,2.637,0,0,1,1.365-.849,56.829,56.829,0,0,1,27.521,0,2.634,2.634,0,0,1,1.368.849c9.274,10.85,15.033,31.478,15.033,53.837s-5.759,42.984-15.033,53.837a2.61,2.61,0,0,1-1.368.846A56.562,56.562,0,0,1,645.232,540.672Zm-11.645-6.622a51.549,51.549,0,0,0,23.293,0c8.177-10.114,13.229-29.058,13.229-49.76s-5.053-39.646-13.229-49.76a51.548,51.548,0,0,0-23.293,0c-8.18,10.111-13.232,29.055-13.232,49.76S625.407,523.936,633.587,534.05Z" transform="translate(-561.501 -427.904)" fill="#333"/><path d="M656.044,490.416a56.516,56.516,0,0,1-45.981-23.771,2.642,2.642,0,0,1,.952-3.884c11.589-5.91,28-9.3,45.028-9.3s33.442,3.388,45.028,9.3a2.642,2.642,0,0,1,.952,3.884A56.513,56.513,0,0,1,656.044,490.416Zm-39.759-24.307a51.063,51.063,0,0,0,79.521,0c-10.645-4.7-24.916-7.364-39.762-7.364S626.927,461.409,616.285,466.109Z" transform="translate(-572.313 -377.649)" fill="#333"/><path d="M626.988,505.05a2.641,2.641,0,0,1-2.641-2.641V448.668a2.642,2.642,0,1,1,5.284,0v53.742A2.643,2.643,0,0,1,626.988,505.05Z" transform="translate(-543.257 -392.282)" fill="#333"/><path d="M660.1,451.308H626.988a2.642,2.642,0,0,1,0-5.284H660.1a2.642,2.642,0,1,1,0,5.284Z" transform="translate(-543.257 -392.282)" fill="#333"/><path d="M672.116,451.308H640.444a2.642,2.642,0,1,1,0-5.284h31.671a2.642,2.642,0,1,1,0,5.284Z" transform="translate(-516.794 -392.282)" fill="#333"/><path d="M663.843,467.425a2.658,2.658,0,0,1-1.121-.252l-25.275-11.867a2.642,2.642,0,0,1,2.246-4.783l25.275,11.867a2.643,2.643,0,0,1-1.125,5.035Z" transform="translate(-520.478 -383.926)" fill="#333"/><path d="M655.728,458.975a7.253,7.253,0,1,1,7.254-7.251A7.258,7.258,0,0,1,655.728,458.975Zm0-9.221a1.969,1.969,0,1,0,1.97,1.97A1.97,1.97,0,0,0,655.728,449.754Z" transform="translate(-495.796 -395.339)" fill="#333"/><path d="M651.634,467.969a7.253,7.253,0,1,1,7.254-7.254A7.26,7.26,0,0,1,651.634,467.969Zm0-9.224a1.97,1.97,0,1,0,1.97,1.97A1.97,1.97,0,0,0,651.634,458.745Z" transform="translate(-503.848 -377.649)" fill="#333"/><path d="M611.259,459.777a2.644,2.644,0,0,1-2.275-3.982,56.644,56.644,0,0,1,48.66-27.886,2.642,2.642,0,1,1,0,5.284,51.337,51.337,0,0,0-44.1,25.278A2.641,2.641,0,0,1,611.259,459.777Z" transform="translate(-574.191 -427.91)" fill="#333"/><path d="M608.892,453.564c-.095,0-.193-.006-.291-.015a2.643,2.643,0,0,1-2.338-2.916,56.526,56.526,0,0,1,1.151-6.723,2.641,2.641,0,0,1,5.142,1.208,52.013,52.013,0,0,0-1.041,6.091A2.644,2.644,0,0,1,608.892,453.564Z" transform="translate(-578.856 -400.449)" fill="#333"/><path d="M634.438,451.308H602.764a2.642,2.642,0,0,1,0-5.284h31.674a2.642,2.642,0,0,1,0,5.284Z" transform="translate(-590.902 -392.282)" fill="#333"/><path d="M632.067,454.928a2.615,2.615,0,0,1-1.121-.252l-25.275-11.865a2.642,2.642,0,0,1,2.246-4.783l25.275,11.865a2.642,2.642,0,0,1-1.125,5.035Z" transform="translate(-582.977 -408.505)" fill="#333"/><path d="M604.269,458.975a7.253,7.253,0,1,1,7.251-7.251A7.26,7.26,0,0,1,604.269,458.975Zm0-9.221a1.969,1.969,0,1,0,1.967,1.97A1.973,1.973,0,0,0,604.269,449.754Z" transform="translate(-597.015 -395.339)" fill="#333"/><path d="M608.36,449.982a7.253,7.253,0,1,1,7.254-7.251A7.258,7.258,0,0,1,608.36,449.982Zm0-9.221a1.969,1.969,0,1,0,1.97,1.97A1.97,1.97,0,0,0,608.36,440.761Z" transform="translate(-588.963 -413.027)" fill="#333"/><path d="M658.051,487.757a56.459,56.459,0,0,1-49.306-29.016,2.642,2.642,0,1,1,4.619-2.566,51.173,51.173,0,0,0,44.687,26.3,2.642,2.642,0,1,1,0,5.284Z" transform="translate(-574.599 -374.989)" fill="#333"/><path d="M609.984,459.711a2.642,2.642,0,0,1-2.57-2.041,56.474,56.474,0,0,1-1.151-6.72,2.642,2.642,0,1,1,5.251-.579,52.062,52.062,0,0,0,1.041,6.094,2.646,2.646,0,0,1-2.572,3.246Z" transform="translate(-578.856 -388.363)" fill="#333"/><path d="M648.846,451.308H615.732a2.642,2.642,0,0,1,0-5.284h33.113a2.642,2.642,0,1,1,0,5.284Z" transform="translate(-565.394 -392.282)" fill="#333"/><path d="M634.438,451.308H602.764a2.642,2.642,0,0,1,0-5.284h31.674a2.642,2.642,0,0,1,0,5.284Z" transform="translate(-590.902 -392.282)" fill="#333"/><path d="M606.8,467.425a2.644,2.644,0,0,1-1.127-5.035l25.275-11.867a2.642,2.642,0,1,1,2.246,4.783l-25.275,11.867A2.647,2.647,0,0,1,606.8,467.425Z" transform="translate(-582.977 -383.926)" fill="#333"/><path d="M604.269,458.975a7.253,7.253,0,1,1,7.251-7.251A7.26,7.26,0,0,1,604.269,458.975Zm0-9.221a1.969,1.969,0,1,0,1.967,1.97A1.973,1.973,0,0,0,604.269,449.754Z" transform="translate(-597.015 -395.339)" fill="#333"/><path d="M608.36,467.966a7.251,7.251,0,1,1,7.254-7.251A7.258,7.258,0,0,1,608.36,467.966Zm0-9.221a1.969,1.969,0,1,0,1.97,1.97A1.97,1.97,0,0,0,608.36,458.745Z" transform="translate(-588.963 -377.649)" fill="#333"/></svg>