<svg xmlns="http://www.w3.org/2000/svg" xmlns:xlink="http://www.w3.org/1999/xlink" width="585" height="512.569" viewBox="0 0 585 512.569"><defs><radialGradient id="a" cx="0.5" cy="0.5" r="0.707" gradientTransform="matrix(-0.408, 0.707, 0.408, 0.707, -6.059, 2.873)" gradientUnits="objectBoundingBox"><stop offset="0" stop-color="#42e8e0"/><stop offset="1" stop-color="#42e8e0" stop-opacity="0"/></radialGradient><linearGradient id="b" x1="0.5" x2="0.5" y2="1" gradientUnits="objectBoundingBox"><stop offset="0" stop-color="#42e8e0"/><stop offset="0.151" stop-color="#42e3df"/><stop offset="0.328" stop-color="#44d4de"/><stop offset="0.52" stop-color="#48bddd"/><stop offset="0.721" stop-color="#4d9bda"/><stop offset="0.927" stop-color="#5471d8"/><stop offset="1" stop-color="#5761d7"/></linearGradient><linearGradient id="n" x1="-0.105" y1="0.133" x2="1.024" y2="0.305" xlink:href="#b"/><linearGradient id="p" x1="0.207" y1="0.175" x2="1.016" y2="0.348" xlink:href="#b"/><linearGradient id="r" x1="1.549" y1="1.821" x2="0.431" y2="0.397" gradientUnits="objectBoundingBox"><stop offset="0" stop-color="#5761d7"/><stop offset="0.178" stop-color="#5b65d8"/><stop offset="0.388" stop-color="#6a72de"/><stop offset="0.613" stop-color="#8188e8"/><stop offset="0.849" stop-color="#a2a6f5"/><stop offset="1" stop-color="#bcbeff"/></linearGradient><linearGradient id="s" x1="-0.758" y1="0.5" x2="0.88" y2="0.5" gradientUnits="objectBoundingBox"><stop offset="0" stop-color="#c0bff6"/><stop offset="0.294" stop-color="#c4c3f6"/><stop offset="0.64" stop-color="#d2d2f9"/><stop offset="1" stop-color="#e9e9fd"/></linearGradient><linearGradient id="t" x1="-19.728" y1="17.74" x2="-17.545" y2="17.041" xlink:href="#s"/><linearGradient id="u" x1="107.705" y1="296.422" x2="107.705" y2="295.421" xlink:href="#s"/><linearGradient id="v" x1="23.175" y1="23.835" x2="23.175" y2="23.31" xlink:href="#s"/><linearGradient id="w" x1="0.135" y1="-0.027" x2="0.903" y2="1.281" gradientUnits="objectBoundingBox"><stop offset="0" stop-color="#080545"/><stop offset="0.075" stop-color="#163c6b"/><stop offset="0.154" stop-color="#23708e"/><stop offset="0.232" stop-color="#2e9bab"/><stop offset="0.307" stop-color="#36bcc2"/><stop offset="0.378" stop-color="#3dd4d2"/><stop offset="0.444" stop-color="#40e3dc"/><stop offset="0.5" stop-color="#42e8e0"/><stop offset="0.553" stop-color="#40e2dc"/><stop offset="0.619" stop-color="#3cd3d1"/><stop offset="0.692" stop-color="#36b9c0"/><stop offset="0.77" stop-color="#2d95a7"/><stop offset="0.853" stop-color="#216788"/><stop offset="0.938" stop-color="#133062"/><stop offset="1" stop-color="#080344"/></linearGradient></defs><g transform="translate(-64.382 -46.594)"><ellipse cx="292.5" cy="168.875" rx="292.5" ry="168.875" transform="translate(64.382 221.413)" opacity="0.25" fill="url(#a)" style="mix-blend-mode:lighten;isolation:isolate"/><path d="M308.091,260.853a5.514,5.514,0,0,0-4.165-1.241A29.744,29.744,0,0,0,282.7,274.251c-7.281,12.919,1.772,22.871,3.679,24.752a75.614,75.614,0,0,1-5.862,6.39c-2.828-1.828-5.821-3.8-8.945-5.893-5.062-3.371-10.415-7.105-16.02-11.086q-2.077-1.508-4.211-3.053l-2.144-1.554-2.133-1.593-4.337-3.236-4.232-3.25c1.558-1.307,4.592-3.922,8.314-7.456,3.146.386,19.935,1.847,27.584-9.731,6.482-9.809,1.317-17.3-1.453-20.273a4.811,4.811,0,0,0-3.538-1.361,32.306,32.306,0,0,0-22,10.318c-9.092,10.1-2.652,19.08-1.33,20.712-3.635,3.45-6.6,6.011-8.174,7.331-2.773-2.119-5.491-4.314-8.275-6.52-1.487-1.163-2.9-2.368-4.364-3.562s-2.924-2.4-4.369-3.613c-4.71-4.01-9.425-8.1-13.972-12.257.8-.495,2.127-1.333,3.856-2.465,1.9-1.24,4.273-2.837,6.929-4.7,2.617.488,18.41,2.947,27.287-6.863,7.432-8.211,3.631-15.091,1.446-17.859a4.287,4.287,0,0,0-3.126-1.405,34.3,34.3,0,0,0-22.046,7.728c-9.7,8.128-5.329,16.208-4.188,17.968-4.986,3.507-8.965,6.035-10.691,7.11-.81-.745-1.627-1.486-2.424-2.236-7.579-7.044-14.714-14.228-21.179-21.305a75.556,75.556,0,0,0,9.081-5.14c.981-.641,2.016-1.361,3.071-2.121,2.516.35,15.411,1.662,21.727-7,5.377-7.372,1.626-13.157-.422-15.46a3.685,3.685,0,0,0-2.7-1.091A26.025,26.025,0,0,0,196.085,202c-7.228,7.36-2.957,14.135-1.838,15.644a79.053,79.053,0,0,1-11.936,7.13c-2.706-2.975-5.3-5.932-7.748-8.847q-2.547-3.031-4.884-5.995c.021-.025.047-.045.049-.078.008-.132-.158-.28-.373-.334q-.814-1.038-1.6-2.064c.608-.921,3.263-4.96,6.483-10.03,2.652.078,14.719-.113,18.318-9.727,3.1-8.292-1.882-13.908-4.382-16.083a3.707,3.707,0,0,0-2.8-.837,20.045,20.045,0,0,0-14.3,9.8c-4.9,8.605,1.058,15.263,2.382,16.583-2.9,4.562-5.334,8.281-6.219,9.629a210.864,210.864,0,0,1-12.758-18.612l-1.845-3.012c-.6-.983-1.075-1.946-1.6-2.882-.139-.257-.269-.5-.407-.747,1.24-.747,5.663-4.136,1.723-12.63a30.25,30.25,0,0,0-11.739-13.03,2.716,2.716,0,0,0-2.275-.3c-2.023.893-6.048,3.719-3.456,11.575,3.047,9.237,13.13,13.64,15.1,14.424.128.244.25.475.38.724.506.939.968,1.906,1.548,2.891s1.181,1.995,1.791,3.025a210.325,210.325,0,0,0,14.129,20.938c-3.2-.773-11.121-2.674-20.216-4.792-1.174-1.333-7.288-7.5-22.72-10.906-13.306-2.939-20.378-1.531-22.958-.711a.9.9,0,0,0-.474,1.53c1.653,2.232,6.823,7.461,20.795,11.354,16.183,4.51,23.78.228,25.288-.794,9.61,2.238,17.919,4.236,20.744,4.919q2.413,3.15,5.057,6.382c2.956,3.617,6.134,7.3,9.485,11-2.1.18-7.928.63-15.947.878-1.626-1.159-10.4-6.859-26.314-7.21-13.57-.3-19.216,2.908-21.115,4.425-.56.447-.4,1.211.378,1.841,2.672,2.153,10.1,6.9,24.775,8.13,17.008,1.424,21.608-5.167,22.426-6.665,8.246-.251,14.208-.718,16.248-.894,5.876,6.47,12.3,13.016,19.073,19.453q2.211,2.122,4.492,4.218c-1.909.282-7.7,1.114-15.736,2.047-2.161-1.238-13.025-6.863-29.918-5.43-14.519,1.232-19.657,5.681-21.266,7.7-.475.593-.1,1.478.9,2.131,3.425,2.232,12.61,6.974,28.555,6.713,18.819-.31,21.7-8.945,22.081-10.6,8.259-.959,14.16-1.811,15.919-2.071,3.85,3.536,7.8,7.024,11.75,10.455,1.435,1.233,2.9,2.446,4.338,3.661s2.856,2.43,4.333,3.609c2.928,2.368,5.781,4.727,8.709,6.991l1.08.846c-1.337.482-5.122,1.8-11.122,3.477-2.61-1.2-16.144-6.818-34.347-3C176.571,281.1,172.194,287.146,171,289.8c-.354.781.306,1.814,1.586,2.486,4.38,2.3,15.778,6.964,33.171,4.706,20.793-2.7,21.271-13.807,21.205-15.66,6.1-1.709,9.92-3.04,11.223-3.512l2.656,2.08,4.314,3.282,2.123,1.617,2.135,1.579,4.193,3.1c5.582,4.044,10.917,7.838,15.967,11.267,3.4,2.328,6.64,4.495,9.689,6.5-1.277.518-5.193,2.057-11.221,4.017-2.166-.983-17.615-7.478-37.917-2.6-16.792,4.039-21.216,10.9-22.367,13.889-.341.882.439,2.018,1.876,2.738,4.915,2.461,17.627,7.38,36.482,4.42,22.128-3.474,22.407-15.513,22.239-17.9,6.316-2.047,10.368-3.65,11.56-4.136,5.7,3.735,10.687,6.863,14.642,9.29,3.1,1.9,5.573,3.373,7.276,4.369s2.644,1.529,2.644,1.529l1.891-1.731s-.885-.486-2.569-1.457-4.14-2.4-7.231-4.258c-4.117-2.477-9.368-5.711-15.392-9.594a75.993,75.993,0,0,0,5.933-6.464c2.9.126,22.094.376,27.6-14.534C319.276,272.449,311.826,264.087,308.091,260.853Z" transform="translate(10.876 32.149)" fill="#0b0244" opacity="0.05"/><g transform="translate(173.783 46.594)"><g transform="translate(19.004 276.461)" opacity="0.7"><path d="M250.8,274.326s-11.156,24.619-45.534,25.012c-26.339.3-37.333-10.981-41.034-16.275a3.982,3.982,0,0,1,.346-5.008c4.356-4.683,16.574-15,41.4-17.6C238.39,257.065,250.8,274.326,250.8,274.326Z" transform="translate(-163.507 -260.015)" fill="url(#b)"/></g><g transform="translate(140.636 213.485)" opacity="0.7"><path d="M257.754,273.175s25.786,8.1,49-17.261c17.785-19.429,16.705-35.146,15.228-41.434a3.984,3.984,0,0,0-3.964-3.08c-6.4.124-22.23,2.351-40.721,19.124C253.163,252.417,257.754,273.175,257.754,273.175Z" transform="translate(-257.405 -211.399)" fill="url(#b)"/></g><g transform="translate(121.159 167.097)" opacity="0.7"><path d="M242.39,222.137s21.345,10.031,44.4-9.17c17.66-14.71,18.572-28.427,18.033-34.037a3.478,3.478,0,0,0-3.065-3.13c-5.544-.643-19.5-.576-37.456,11.754C240.859,203.649,242.39,222.137,242.39,222.137Z" transform="translate(-242.369 -175.589)" fill="url(#b)"/></g><g transform="translate(110.729 125.528)" opacity="0.7"><path d="M234.317,181.106s18.5,10.929,41.047-4.5c17.278-11.823,19.283-24.183,19.275-29.317a3.166,3.166,0,0,0-2.51-3.1c-4.973-1.06-17.631-2.2-34.975,7.443C234.516,164.21,234.317,181.106,234.317,181.106Z" transform="translate(-234.317 -143.499)" fill="url(#b)"/></g><g transform="translate(105.945 82.873)" opacity="0.7"><path d="M230.629,145.182s16.2,8.176,34.343-6.093c13.9-10.932,14.9-21.462,14.605-25.788a2.674,2.674,0,0,0-2.289-2.473c-4.25-.615-14.985-.865-29.063,8.23C229.851,130.929,230.629,145.182,230.629,145.182Z" transform="translate(-230.624 -110.57)" fill="url(#b)"/></g><g transform="translate(100 36.869)" opacity="0.7"><path d="M226.262,116.434s17.3,5.479,32.926-11.509c11.973-13.016,11.274-23.569,10.292-27.794a2.677,2.677,0,0,0-2.656-2.075c-4.294.074-14.929,1.543-27.371,12.775C223.214,102.49,226.262,116.434,226.262,116.434Z" transform="translate(-226.035 -75.056)" fill="url(#b)"/></g><g transform="translate(5.376 216.201)" opacity="0.7"><path d="M232.149,227.564s-10.822,21.94-41.934,21.277c-23.835-.508-33.447-11.041-36.638-15.94a3.605,3.605,0,0,1,.462-4.52c4.079-4.108,15.438-13.079,37.978-14.693C221.435,211.58,232.149,227.564,232.149,227.564Z" transform="translate(-152.987 -213.496)" fill="url(#b)"/></g><g transform="translate(0 158.888)" opacity="0.7"><path d="M216.211,186.333s-11.945,17.164-38.157,12.638c-20.082-3.468-26.863-13.6-28.937-18.144a3.082,3.082,0,0,1,.968-3.76c3.972-2.952,14.717-9.087,33.973-7.579C209.191,171.457,216.211,186.333,216.211,186.333Z" transform="translate(-148.837 -169.252)" fill="url(#b)"/></g><g transform="translate(4.101 107.408)" opacity="0.7"><path d="M209.847,149.972s-12.64,13.4-34.888,6.046c-17.045-5.635-21.634-15.341-22.849-19.572a2.715,2.715,0,0,1,1.332-3.152c3.845-2.054,14-6,30.585-2.181C205.667,136.1,209.847,149.972,209.847,149.972Z" transform="translate(-152.003 -129.51)" fill="url(#b)"/></g><g transform="translate(13.455 52.535)" opacity="0.7"><path d="M206.76,118.52s-15.083,8.314-32.785-4.593c-13.563-9.89-14.873-19.843-14.744-23.957a2.54,2.54,0,0,1,2.086-2.425c4.01-.729,14.183-1.338,27.851,6.8C207.007,104.974,206.76,118.52,206.76,118.52Z" transform="translate(-159.224 -87.15)" fill="url(#b)"/></g><g transform="translate(79.831)" opacity="0.7"><path d="M217.149,93.029s-10.787-10.1-4.956-27.962c4.466-13.687,12.236-17.4,15.627-18.385a2.177,2.177,0,0,1,2.531,1.058c1.659,3.077,4.856,11.213,1.843,24.521C228.264,89.634,217.149,93.029,217.149,93.029Z" transform="translate(-210.464 -46.594)" fill="url(#b)"/></g><path d="M186.582,341.814a.468.468,0,0,1,.469-.473,358.223,358.223,0,0,0,82.357-10.294c-1.832-4.074-3.741-8.469-5.688-13.168-2.924-6.933-5.843-14.544-8.827-22.629q-1.076-3.047-2.18-6.176-.552-1.562-1.11-3.145-.525-1.593-1.058-3.2-1.063-3.222-2.15-6.511c-.418-1.356-.843-2.735-1.266-4.106-5.126,1.145-34.314,7.214-76.137,7.086a.471.471,0,1,1,0-.942c41.53.127,70.562-5.869,75.857-7.047-.172-.56-.342-1.109-.516-1.67-1.424-4.479-2.663-9.1-3.986-13.748-.683-2.32-1.237-4.691-1.858-7.056-.6-2.371-1.231-4.745-1.81-7.144-1.552-6.669-3.052-13.43-4.377-20.248-5.536.006-40.439-.148-73.57-4.753a.471.471,0,0,1,.128-.933c32.706,4.545,67.157,4.746,73.252,4.744-.516-2.694-1.009-5.4-1.456-8.108-2.13-12.353-3.7-24.8-4.679-36.988-5.723-.439-34.466-3-62.446-11.863a.471.471,0,1,1,.284-.9c27.686,8.768,56.118,11.346,62.1,11.811-.54-6.977-.891-13.868-1.026-20.6q-.132-6.016-.041-11.844c-6.239-4-39.063-24.968-54.809-33.3a.471.471,0,0,1,.44-.832c15.4,8.149,47.079,28.343,54.384,33.023a319.942,319.942,0,0,1,2.925-38.246q.373-2.792.732-5.464c.242-1.78.617-3.5.906-5.184.615-3.365,1.2-6.558,1.747-9.559.693-2.97,1.341-5.75,1.94-8.32.626-2.564,1.108-4.941,1.707-7.047,2.441-8.408,3.836-13.213,3.836-13.213l.31.1s-1.328,4.816-3.649,13.244c-.57,2.109-1.019,4.491-1.608,7.056q-.845,3.859-1.821,8.327c-.506,3-1.044,6.192-1.613,9.557-.266,1.684-.614,3.4-.832,5.179s-.433,3.6-.655,5.456a316.887,316.887,0,0,0-2.352,34.045c5.636-4.707,34.343-28.752,50.128-43.411a.471.471,0,0,1,.641.69c-16.515,15.337-47.144,40.924-50.784,43.959q-.023,1.9-.025,3.819a.471.471,0,0,1,.136.646.479.479,0,0,1-.137.118q.01,5.495.2,11.157c.184,5.441.521,10.99.974,16.6,5.2-1.632,31.886-10.682,58.622-32.156a.464.464,0,0,1,.662.071.471.471,0,0,1-.071.662,198.516,198.516,0,0,1-42.811,26.069,152.462,152.462,0,0,1-16.32,6.315,407.107,407.107,0,0,0,5.481,40.584c.258,1.439.548,2.872.826,4.307,7.375-3.143,37.2-16.195,64.841-33.226a.472.472,0,0,1,.495.8c-22.108,13.62-45.6,24.7-57.947,30.22-3.257,1.456-5.732,2.522-7.206,3.149,1.583,8.022,3.444,15.969,5.376,23.784.609,2.376,1.269,4.727,1.9,7.074.649,2.342,1.231,4.689,1.942,6.986,1.3,4.347,2.532,8.658,3.908,12.857,8.581-4.781,37.8-21.582,64.581-42.968a.471.471,0,1,1,.587.737c-27,21.563-56.481,38.474-64.874,43.145q1.049,3.245,2.082,6.437,1.123,3.251,2.225,6.438.55,1.593,1.095,3.167.575,1.564,1.144,3.109,1.139,3.091,2.249,6.1c3.073,7.987,6.074,15.5,9.069,22.341,1.83,4.25,3.627,8.252,5.354,11.981,5.562-3.422,34.036-21.686,64.011-54.485a.471.471,0,1,1,.7.636c-30.189,33.032-58.9,51.386-64.3,54.708,3.69,7.924,7.055,14.585,9.749,19.708,2.023,3.846,3.675,6.83,4.823,8.845s1.768,3.051,1.768,3.051l-4.045,2.411s-.661-1.118-1.791-3.187-2.776-5.122-4.77-9.042c-2.543-5-5.68-11.42-9.114-19.017a358.751,358.751,0,0,1-82.745,10.366A.47.47,0,0,1,186.582,341.814Z" transform="translate(-145.442 -44.475)" opacity="0.7" fill="url(#b)"/></g><g transform="translate(384.024 149.392)"><path d="M409.969,204.938l0-.092c2.021-69.2-18.59-89.838-37.416-73.7-8.337,7.145-11.406,18.611-8.623,29.233a28.892,28.892,0,0,1,.948,11.132,14.009,14.009,0,0,1-6.619,10.578,28.208,28.208,0,0,0-13.055,20.393q-.82,6.875-1.3,14.3c-5.3,82.436-26.522,132.218-32.466,152a6.6,6.6,0,0,0,10.257,7.215c13.892-10.287,50.974-41.448,72.432-94.56a29.149,29.149,0,0,0-.786-23.108,21.428,21.428,0,0,1-1.539-10.947c.9-10.416,6.514-18.682,12.451-26.48A27.745,27.745,0,0,0,409.969,204.938Z" transform="translate(-311.138 -125.952)" opacity="0.7" fill="url(#n)"/><path d="M376.8,211.117l32.783-13.094c0-.189.005-.383.007-.571L376.87,210.52c2.282-19.21,3.77-39.6,4.457-61.065l21.006-5.779c-.066-.168-.133-.329-.2-.494l-20.791,5.72q.352-11.206.409-22.8c-.177.03-.354.069-.531.106-.124,21.959-1.034,42.05-2.542,60.389l-15.025-11.977c-.06.177-.122.352-.188.525l15.158,12.086a574.83,574.83,0,0,1-8.711,63.819l-27.16-25.525q-.027.336-.056.672l27.093,25.462c-6.192,31.092-14.057,54.306-21.409,71.1-.438,1-.877,1.981-1.316,2.947l-15.977-24.282c-.056.238-.111.472-.167.707l15.888,24.143c-14.788,32.383-29.8,45.982-33.932,49.307.135.118.275.232.418.339,3.009-2.438,11.2-9.842,20.876-25.043l14.585.253.145-.154c.095-.1.19-.2.285-.3l.057-.061-14.741-.255a205.444,205.444,0,0,0,14.336-27.321,304.952,304.952,0,0,0,13.639-38.4l31.614-4.468c.074-.188.15-.376.224-.564l-31.676,4.476a436.205,436.205,0,0,0,10.3-46.139Q375.142,224.959,376.8,211.117Z" transform="translate(-310.624 -125.906)" opacity="0.7" fill="url(#n)"/></g><path d="M503.248,294.076c6.666-12.929,8.72-22.545,7.5-29.071-.012-.057-.023-.113-.034-.168h-.005c-1.433-7.24-6.942-10.617-14.64-10.467l.006-.013c-.174,0-.351.012-.527.018l0,0a37.084,37.084,0,0,0-9.945,1.93c-9.757,3.189-15.705,9.037-15.918,14.853a10.385,10.385,0,0,1-3.719,7.685l-.15.126a18.213,18.213,0,0,1-7.262,3.272c-7.965,1.9-14.538,5.472-17.734,9.862q-2.606,3.579-5.04,7.47c-26.976,43.234-60.241,68.064-71.115,78.107-1.522,1.405-1.258,2.8.017,3.766l-.008,0c.1.073.2.141.3.209h.006a9.7,9.7,0,0,0,7.415.569,326.978,326.978,0,0,0,32.579-11.166h.005l.177-.071.35-.14.07-.03h0c18.545-7.492,40.812-18.45,60.249-33.478.258-.2.5-.4.742-.6h.03l.361-.282h-.066c4.017-3.536,5.477-7.609,4.356-11.393-.47-1.583-.114-3.522,1.47-5.9,3.627-5.447,11.118-9.421,18.788-13.126,4.53-2.187,7.935-4.988,9.64-8.036l.027-.049c.685-1.227,1.324-2.421,1.933-3.593.049-.095.1-.19.149-.284Z" transform="translate(88.387 61.368)" fill="#0b0244" opacity="0.05"/><g transform="translate(427.675 132)"><path d="M499.129,218.291l.02-.119c13.987-88.543-9.086-118.437-35.919-100.813-11.884,7.806-17.713,22.025-15.888,36.125a37.422,37.422,0,0,1-.615,14.452,18.136,18.136,0,0,1-10.241,12.5,36.526,36.526,0,0,0-20.125,24.042q-2.184,8.693-4.026,18.146c-20.374,105-55.828,165.44-66.72,189.867A8.55,8.55,0,0,0,357.6,423.441c19.534-10.923,72.288-44.839,108.591-109.518a37.741,37.741,0,0,0,2.794-29.807c-1.2-3.834-1.429-8.537-.175-14.313,2.873-13.23,11.443-22.92,20.352-31.96A35.921,35.921,0,0,0,499.129,218.291Z" transform="translate(-344.836 -112.525)" opacity="0.7" fill="url(#p)"/><path d="M455.671,220.905l44.259-11.42c.034-.242.07-.491.1-.732l-44.17,11.4Q465,183.7,471.639,142.456l27.93-3.963c-.057-.225-.117-.443-.174-.666l-27.643,3.922q2.295-14.33,4.277-29.208c-.232.009-.465.031-.7.049-3.773,28.181-8.25,53.836-13.206,77.14L444.8,171.874c-.106.219-.216.433-.328.644l17.479,18.016a744.218,744.218,0,0,1-21.7,80.528l-30.678-37.254c-.061.286-.122.57-.181.855L440,271.825c-13.072,38.912-26.994,67.429-39.2,87.794-.727,1.214-1.452,2.4-2.175,3.569L382.1,329.372c-.11.3-.22.587-.33.881L398.2,363.876c-24.323,39.154-45.841,54.149-51.7,57.739q.231.26.482.5c4.266-2.635,16-10.8,30.935-28.726l18.69,2.725.211-.174.417-.345.083-.07-18.89-2.754a265.84,265.84,0,0,0,22.909-32.726,394.881,394.881,0,0,0,23.839-47.07l41.335-.532c.127-.229.255-.457.381-.688l-41.417.534a564.464,564.464,0,0,0,20.821-57.56Q451.266,238.409,455.671,220.905Z" transform="translate(-344.344 -112.52)" opacity="0.7" fill="url(#p)"/></g><g transform="translate(153.648 134.137)"><g transform="translate(0 144.989)"><path d="M318.872,452.683a12.585,12.585,0,0,1-6.174-1.42h0L135.886,349.181a4.515,4.515,0,0,1-2.593-3.819c0-1.776,1.3-3.547,3.578-4.86L311.709,239.561c4.172-2.408,10.524-2.663,14.155-.569L502.676,341.076a4.512,4.512,0,0,1,2.593,3.817c0,1.775-1.3,3.547-3.578,4.859L326.856,450.694A16.413,16.413,0,0,1,318.872,452.683Zm-5.737-2.176c3.391,1.956,9.347,1.7,13.283-.569L501.255,349c1.995-1.153,3.14-2.648,3.14-4.1a3.685,3.685,0,0,0-2.156-3.061L325.427,239.749c-3.391-1.957-9.349-1.7-13.281.569L137.309,341.258c-2,1.154-3.141,2.649-3.141,4.1a3.688,3.688,0,0,0,2.156,3.062L313.136,450.506Z" transform="translate(-133.293 -222.715)" fill="#42e8e0"/><path d="M504.731,331.3l-10.665.006-168.521-97.3c-3.517-2.03-9.66-1.776-13.719.569l-167.834,96.9-10.36.005v8.508h.008A4.058,4.058,0,0,0,136,343.441L312.817,445.525c3.516,2.03,9.658,1.776,13.718-.569L501.372,344.014c2.277-1.315,3.415-3.008,3.356-4.6h0Z" transform="translate(-133.193 -224.173)" fill="url(#r)"/><path d="M312.818,438.989,136,336.905c-3.516-2.03-3.075-5.577.986-7.921L311.827,228.042c4.06-2.343,10.2-2.6,13.719-.569L502.358,329.557c3.516,2.03,3.075,5.577-.986,7.921L326.536,438.42C322.476,440.763,316.333,441.019,312.818,438.989Z" transform="translate(-133.193 -226.103)" fill="url(#s)"/><path d="M310.334,430l-164.6-95.031c-3.273-1.89-2.863-5.192.917-7.373l162.76-93.97c3.78-2.181,9.5-2.418,12.771-.529l164.6,95.031c3.273,1.89,2.863,5.191-.917,7.373l-162.76,93.97C319.326,431.648,313.608,431.885,310.334,430Z" transform="translate(-130.271 -224.416)" fill="#180d5b" opacity="0.1"/><path d="M501.371,312.233,326.534,413.175c-4.06,2.345-10.2,2.6-13.718.569L136,311.662a4.284,4.284,0,0,1-2.328-2.966c-.228,1.469.529,2.906,2.328,3.944L312.816,414.723c3.516,2.03,9.658,1.775,13.718-.57L501.371,313.212c2.448-1.415,3.571-3.264,3.314-4.956C504.467,309.658,503.354,311.089,501.371,312.233Z" transform="translate(-133.192 -201.837)" fill="#fff"/></g><path d="M302.167,338.041H470.213l3.479-14.171-166.962-96.4c-3.517-2.03-9.66-1.775-13.719.569l-95.68,55.241,83.841,49.066A41.574,41.574,0,0,0,302.167,338.041Z" transform="translate(-114.378 -81.114)" fill="#180d5b" opacity="0.1"/><g transform="translate(178.754 0)"><path d="M272.253,116.645l4.014-2.31v.023a2,2,0,0,1,1.973.179l172.3,99.643a7.473,7.473,0,0,1,3.115,5.964l-.189,146.029a2.719,2.719,0,0,1-1.105,2.513l.019.01L448.377,371l-.284-14.5-160.75-92.964a7.471,7.471,0,0,1-3.115-5.964L284.41,123.5c-.269.846-.473,1.461-.5,1.482C283.809,125.042,272.253,116.645,272.253,116.645Z" transform="translate(-271.002 -114.175)" fill="url(#t)"/><path d="M419.2,196.291l-25.344,9.863-5.228-3.023,28.093-11.447A7.759,7.759,0,0,1,419.2,196.291Z" transform="translate(-236.627 -91.281)" fill="url(#u)"/><path d="M274.4,270.637,446.7,370.28c1.723,1,3.121-.06,3.122-2.358l.189-146.028a7.475,7.475,0,0,0-3.117-5.965L274.6,116.287c-1.723-1-3.121.06-3.122,2.358l-.189,146.028A7.475,7.475,0,0,0,274.4,270.637Z" transform="translate(-271.287 -113.662)" fill="url(#v)"/><path d="M446.712,215.928l-172.3-99.643a1.824,1.824,0,0,0-2.495.244,2.18,2.18,0,0,1,1.665.31l172.3,99.643A7.472,7.472,0,0,1,449,222.445l-.189,146.029a3.279,3.279,0,0,1-.627,2.114c.873-.234,1.456-1.188,1.457-2.667l.189-146.028A7.475,7.475,0,0,0,446.712,215.928Z" transform="translate(-271.101 -113.661)" fill="#fff"/><path d="M273.3,266.293l173.259,100.2.218-146.374-173.259-100.2Z" transform="translate(-270.693 -112.478)" fill="#24126a"/><path d="M351.725,245.353a6.136,6.136,0,0,1-3.023-.918l-15.4-8.893a14.377,14.377,0,0,1-6.494-11.249v-4.461a13.408,13.408,0,0,0-6.06-10.493L305.777,200.7c-1.536-.889-2.956-1.044-4-.44s-1.621,1.912-1.621,3.685v28.434c0,2.1-.729,3.676-2.057,4.442s-3.057.61-4.874-.439l-17.642-10.186.437-.757,17.642,10.186c1.535.886,2.956,1.044,4,.439s1.62-1.912,1.62-3.685V203.941c0-2.1.731-3.676,2.057-4.442s3.057-.61,4.875.44l14.971,8.643a14.375,14.375,0,0,1,6.5,11.249v4.461a13.412,13.412,0,0,0,6.057,10.493l15.4,8.893c1.536.885,2.957,1.04,4,.439s1.621-1.912,1.621-3.685V208.1c0-2.1.731-3.676,2.057-4.442s3.058-.61,4.874.44l17.129,9.889c1.536.886,2.956,1.041,4,.44s1.621-1.913,1.621-3.687V194.012c0-2.1.731-3.676,2.057-4.443s3.058-.61,4.874.44L409.2,200.3a14.379,14.379,0,0,1,6.5,11.25,13.41,13.41,0,0,0,6.059,10.493l19.659,11.351-.437.757L421.317,222.8a14.375,14.375,0,0,1-6.5-11.249,13.416,13.416,0,0,0-6.058-10.494l-17.824-10.29c-1.538-.886-2.957-1.041-4-.44s-1.621,1.913-1.621,3.687v16.725c0,2.1-.729,3.676-2.056,4.443s-3.058.609-4.876-.44l-17.129-9.889c-1.536-.889-2.956-1.044-4-.44s-1.621,1.912-1.621,3.685v32.336c0,2.1-.729,3.676-2.056,4.442A3.664,3.664,0,0,1,351.725,245.353Z" transform="translate(-270.018 -92.047)" fill="url(#w)" style="mix-blend-mode:lighten;isolation:isolate"/></g><g transform="translate(174.067 120.399)"><path d="M295.708,296.288a17.219,17.219,0,0,0-.842,3.447,14.927,14.927,0,0,0,2.128,3.38,16.138,16.138,0,0,0,3.567,3.137,9.942,9.942,0,0,1,2.127,1.507.906.906,0,0,0,.439-.153,4.27,4.27,0,0,0-.531-2.824c-.8-.921.4-2.289.4-2.289l-2.061-5.375Z" transform="translate(-259.637 -180.782)" fill="#fcd1c5"/><path d="M314.821,342.19a38.006,38.006,0,0,1-6.338.858c-3.114.106-11.608,1.712-11.443,4.755s4.513,7.442,10.03,8.1,12.642-.85,16.241-.746a4.97,4.97,0,0,0,4.8-6.824C326.783,344.954,314.821,342.19,314.821,342.19Z" transform="translate(-258.994 -167.223)" fill="#160a5b"/><path d="M331.328,338.591s1.14,1.849.535,2.973-2.214,3.929-7.2,1.19c-4.974-2.729-14.638-6.657-14.638-6.657s-5.543-2.905-5.178-6.3c.363-3.382,5.51-2.85,5.51-2.85Z" transform="translate(-256.693 -171.736)" fill="#160a5b"/><path d="M286.769,242.487a15.543,15.543,0,0,1-4.742-.613c-1.45-.654-5.663-2.038-5.924-2.176s-2.584-.291-3.646-.974a.9.9,0,0,0-.25,1.54,5.825,5.825,0,0,0,2.712,1.275l1.668.973s-3.38,1.735-3.685,1.864-3.136,2.284-3.422,2.417-1.548,1.117-1.058,1.988c0,0,.049.2.68.332,0,0-1.808.823-1.363,1.712s1.593.505,1.593.505.435,1.6,2.619.359c0,0,.254,1.981,5.1-.088a12.917,12.917,0,0,1,3.389-.416,15.7,15.7,0,0,0,7.423-2.38C289.947,247.338,286.769,242.487,286.769,242.487Z" transform="translate(-267.668 -197.785)" fill="#fcd1c5"/><path d="M279.448,250.237a15.7,15.7,0,0,0,7.422-2.38c1.4-.988.42-3.51-.37-5.052-.987-.479-1.856-.872-1.856-.872s.146,4.8.039,5.521-4.444,1.578-7.224,1.986a56.761,56.761,0,0,0-6.434,1.486c.215.438,1.145,1.389,5.035-.273A12.916,12.916,0,0,1,279.448,250.237Z" transform="translate(-266.677 -196.837)" fill="#e2b1a6"/><path d="M320.8,234.43s-6.85,1.2-9.182,1.943c-2.262.72-21.894,4.605-29.084,6.365a1.257,1.257,0,0,0-.915.948,2.689,2.689,0,0,0-.049,1.2c.2.812.891,8.942,4.88,7.613a55.912,55.912,0,0,1,7.53-1.505c2.81-.37,14.811-1.292,14.811-1.292l20.3-11.619Z" transform="translate(-263.576 -199.053)" fill="#4846a5"/><path d="M300.5,299.137s1.814,22.4,6.276,30.862c4.516,8.556,5.512,24.1,6.425,27.06s3.836,7.236,8.543,8.152,5.545-2.178,5.354-4.04-1.439-4.871-1.413-6.89a20.682,20.682,0,0,1,.624-3.881s5.385,1.566,6.3-2.492a11.054,11.054,0,0,1-.47-1.792c-.058-.606.816-15.372.99-17.168a73.921,73.921,0,0,0-2.008-16.335c-1.4-4.785-.671-14.971-.671-14.971l-15.585-2.273Z" transform="translate(-257.972 -181.053)" fill="#24126a"/><path d="M320.771,298.623a17.058,17.058,0,0,1-1.693,6.429s-.219,11.868-1.591,17.848c0,0,1.758,11.99,2.94,15.757,1.189,3.788.86,11.138.86,11.138a5.364,5.364,0,0,0,1.5.258c.883.035,1.269-14.542-.036-17.131s-2.087-14.042-1.5-17.541c.586-3.479.626-13.484,1.342-15.247a2.2,2.2,0,0,0-.793-2.711Z" transform="translate(-252.953 -180.447)" fill="#160a5b"/><path d="M312.081,234.574s-4.684,3.247-4.551,8.982l3.444-.68S310.07,236.516,312.081,234.574Z" transform="translate(-255.895 -199.011)" fill="#160a5b"/><path d="M314.311,304.018c10.342.4,16.017-4.031,16.017-4.031.053-1.418.119-2.343.119-2.343l-15.585-2.273L300.5,299.137s.36,4.435,1.153,10.105c2.539.288,5.139-5.779,5.139-5.779l7.1.5S303.954,303.62,314.311,304.018Z" transform="translate(-257.972 -181.053)" fill="#160a5b"/><path d="M302.971,319.653s22.354,9.16,33.6-7.762a2.986,2.986,0,0,0,.472-1.675L337,306.229a4.127,4.127,0,0,1,.253-1.477h0a6.264,6.264,0,0,0,.3-3.187c-.74-4.478-2.747-16.7-3.207-20.105-.562-4.157,2.053-20.806,6-28.009,3.9-7.117-5.307-23.488-5.307-23.488a6.215,6.215,0,0,0-6.926-2.619s4.342,3.149,1.86,6.35c-2.5,3.22-9.788,5.7-9.788,5.7s-13.524,6.688-18.247,15a34.581,34.581,0,0,0-1.867,9.8c-.227,5.531.187,18.769-.075,20.6s-1.162,14.344-1.1,14.927S302.971,319.653,302.971,319.653Z" transform="translate(-258.447 -201.217)" fill="#453c9e"/><path d="M308.85,311.555s13.99-35.1,13.621-48.023c-.363-12.669-19.992,25.235-19.992,25.235l-.439,20.892A41.133,41.133,0,0,0,308.85,311.555Z" transform="translate(-257.516 -191.222)" fill="#24126a"/><path d="M304.324,272.506a57.376,57.376,0,0,0,.946-8.748c.142-5.093,1.736-13.546,11.064-11.938,13.147,2.266,7.14,20.393,5.636,23.541-1.51,3.163-7.518,17.39-7.836,18.2-.3.756-9.651,18.39-12.945,22.6a.81.81,0,0,1-1.18.135c-1.292-1.1-4.2-3.713-4.557-5.356-.464-2.115,1.54-9.768,1.54-9.768s5.413-19.213,5.859-20.109C303.185,280.384,303.46,277.206,304.324,272.506Z" transform="translate(-259.483 -193.975)" fill="#4846a5"/><path d="M313.787,242.78a4.664,4.664,0,0,0-3.443-2.688c-2.434-.286-3.806-.983-4.036-1.885a17.088,17.088,0,0,0-.791-3.337,24.657,24.657,0,0,1-1-4.72c.01-.08-1.837-.668-1.915-1.485s.934-3.707.832-3.934a7.331,7.331,0,0,1-.915-3.417,17.032,17.032,0,0,1,1.143-5.086c.768-1.687,6.145-11.965,19.558-6.354,13.5,5.645,2.912,16.855,4.1,24.243,0,0,1.172,1.569-1.093,4.159S317.517,241.346,313.787,242.78Z" transform="translate(-257.381 -206.796)" fill="#fcd1c5"/><path d="M325.185,233.924c2.266-2.591,1.093-4.159,1.093-4.159a10.145,10.145,0,0,1,.1-3.276l-5.334.918s-7.724-7.11-7.236-3.363c.491,3.77-1.429,4.384-1.429,4.384l1.574,2.07c.4.531.146,1.144-.2,1.714-2.311,3.8-7.733,2.554-7.746,2.554a7.779,7.779,0,0,0,3.306.973,4.664,4.664,0,0,1,3.443,2.688C316.481,236.992,322.91,236.527,325.185,233.924Z" transform="translate(-256.345 -202.443)" fill="#e2b1a6"/><g transform="translate(45.438)"><path d="M303.064,212.6s-.99,2.755.521,3.948,2.881,2.323,2.881,2.323l-.066,3.507a2.6,2.6,0,0,0,.394,1.429l1.872,2.988a3.568,3.568,0,0,1,.543,1.935l-.017,1.428a.822.822,0,0,0,.707.829l.5.065a.814.814,0,0,0,.906-.716l.245-1.981s1.036-1.576,3.215.363l1.969.847a2.129,2.129,0,0,1,1.175,1.271c.526,1.534,1.655,4.561,2.534,5.074,1.187.7,5.878-1.617,6.521-2.665s2.359-8.086,3.4-11.443c1.04-3.339.655-11.676-9.349-14C311.035,205.478,304.5,209.607,303.064,212.6Z" transform="translate(-302.745 -207.12)" fill="#aa8383"/><path d="M326.133,230.354c.641-1.045,2.359-8.086,3.4-11.443a24.628,24.628,0,0,1-8.972,3.184c-5.055.677-14.951-5.178-14.951-5.178l-.049,2.57a2.61,2.61,0,0,0,.4,1.429l1.872,2.988a3.568,3.568,0,0,1,.543,1.935l-.017,1.428a.822.822,0,0,0,.707.829l.5.065a.814.814,0,0,0,.905-.716l.245-1.981s1.036-1.576,3.215.363l2.849,1.225s1.644,5.272,2.829,5.967S325.491,231.4,326.133,230.354Z" transform="translate(-301.912 -204.226)" fill="#936d6d"/></g><path d="M325.044,227.551s3.832,2.451,1.823,5.8c-2.019,3.365-16.206,9.166-16.919,10.046,0,0-.464-5.065,1.434-6.745,0,0,10.824-1.913,12.555-4.624S325.044,227.551,325.044,227.551Z" transform="translate(-255.195 -201.085)" fill="#f0f6ff"/><path d="M324.332,227.551s.615,1.773-1.108,4.473c-1.308,2.052-7.82,3.645-10.916,4.3h0s1.133.665,2.987,3.937c4.371-2.161,9.68-4.948,10.859-6.912C328.163,230,324.332,227.551,324.332,227.551Z" transform="translate(-254.483 -201.085)" fill="#c4ccd6"/><path d="M321.239,254.057c3.429,11.042-6.033,27.924-7.435,32.849-1.415,4.966-15.626,27.768-15.629,27.773.382.348.733.655,1.009.89a.81.81,0,0,0,1.18-.135c3.294-4.2,12.647-21.839,12.945-22.6.317-.807,6.325-15.034,7.836-18.2C322.351,272.116,326.463,259.907,321.239,254.057Z" transform="translate(-258.658 -193.256)" fill="#24126a"/><path d="M330.268,235.927s-6.336,3.468-9.419,5.029-6.472,3.659-6.472,3.659l-1.15-1.179-1.462,3.045a41.994,41.994,0,0,0-7.152,5.14,24.336,24.336,0,0,0-4.31,6.165s6.132-7.7,10.9-9.948l1.285-.618.764-2.416,1.139,1.237S328.314,238.02,330.268,235.927Z" transform="translate(-258.029 -198.611)" fill="#24126a"/></g><g transform="translate(86.097 60.599)"><path d="M245.963,236.6s2.359.4,3.223-.039a8.171,8.171,0,0,1,5.733.2c2.617.934,2.4.791,3.433.894a11.233,11.233,0,0,1,3.254.552c.545.346,1.583,1,.622,2.373s-4.555.083-5.14-.026-1.225.929-.935,1.86,5.71,6.859,6.56,7.45,4.512,3.038,4.671,4-.045,1.1-.045,1.1,1.067.966.69,1.861-2.04-.477-2.347-.271c0,0,.269,1-.136,1.18a7.3,7.3,0,0,1-3.067-1.027s-.276.767-1.633-.026-6.552-3.745-7.161-4.3a36.627,36.627,0,0,0-3.5-2.956,28.577,28.577,0,0,1-3.018-2.9,18.092,18.092,0,0,0-5.181-2.548C240.754,243.743,245.963,236.6,245.963,236.6Z" transform="translate(-187.341 -138.747)" fill="#fcd1c5"/><path d="M250.1,247.21c-1.193-2.18-5.2-3.869-5.2-3.869.271-1.775,2.823-6.675,2.823-6.675h0a13.727,13.727,0,0,1-1.766-.166s-5.209,7.139-3.977,7.376a18.091,18.091,0,0,1,5.181,2.548,28.58,28.58,0,0,0,3.018,2.9,36.632,36.632,0,0,1,3.5,2.956c.609.557,5.806,3.512,7.161,4.3s1.633.026,1.633.026a7.274,7.274,0,0,0,3.067,1.026c.405-.183.136-1.179.136-1.179a24.254,24.254,0,0,0-3.389-1.552C260.575,254.3,251.3,249.4,250.1,247.21Z" transform="translate(-187.341 -138.642)" fill="#e2b1a6"/><path d="M242.935,230.433a21.111,21.111,0,0,1,.325,4.832c-.185,2.174-4.543-.668-4.38-1.044s2.069-3.65,2.069-3.65Z" transform="translate(-188.204 -140.434)" fill="#fcd1c5"/><path d="M227.336,179.853s2.416-.11,5.358,4.719c2.833,4.65,7.815,21.293,10.426,27.676a8.372,8.372,0,0,1,.507,1.76c.848,4.979,4.828,28.406,5.009,31.224a22.4,22.4,0,0,1-4.982,2.516l-4.282-1.42-4.216-42.469-6.833-22.426Z" transform="translate(-191.612 -155.375)" fill="#24126a"/><path d="M216.879,287.728s-.819,3.929-.372,4.691,5.557,6.534,6.1,7.31,3.174,5.5,8.013,6.654,8.143.855,8.8-1.421-2.189-6.039-3.507-7.255-6.845-7.8-7.856-8.752a4.732,4.732,0,0,0-2.473-1.1l-6.311,1.1Z" transform="translate(-194.85 -123.511)" fill="#160a5b"/><path d="M234.237,278.653s4.829,1.872,7.354,2.508,8.548,5.136,8.482,7.4-3.031,3.829-6.043,3.606a16.957,16.957,0,0,1-7.171-2.657,17.706,17.706,0,0,0-5.114-2.409c-2.464-.767-6.434-1.144-7.09-2.459a13.054,13.054,0,0,1-.749-4.023Z" transform="translate(-192.626 -126.191)" fill="#160a5b"/><path d="M227,290c.036-.232.2-.622.232-.784a55.23,55.23,0,0,0,.013-6.052l-1.065,1.456s.749,4.863,2.2,12.467c.368,1.929,1.378,3.919,1.527,5.012.442,3.255-1.491,3.891-1.491,3.891-3.925,2.953-7.277,1.17-8.483.22s-1.614-2.474-3.286-7.955c-1.659-5.442-3.1-16.941-2.745-19.674a115.677,115.677,0,0,0,1.15-13.775c-.044-4.6-3.582-19.305-3.582-19.305l14.634-2.841,9.989-5.172,7.622,1.149s.965-3.22,1.972,6.8c1.019,10.167-5.141,28.159-5.141,28.159-1.623,8.908-2.039,19.152-2.961,20.541s-4.568,4.669-7.939,2.119a8.857,8.857,0,0,1-1.7-1.46Z" transform="translate(-196.298 -138.352)" fill="#24126a"/><path d="M222.826,283.508a178.349,178.349,0,0,0,7.095-25.8c2.241-12.476,6.127-14.231,7.741-16.471a21.427,21.427,0,0,0,3.72,1.334,2.083,2.083,0,0,0,.413.036c1.073-.034-5.38,8-6.539,10.06s-7.834,19.747-8.3,22.186-.94,19.5-.4,20.479-1.846-.737-1.846-.737S223.24,290.827,222.826,283.508Z" transform="translate(-192.944 -137.242)" fill="#160a5b"/><path d="M238.669,237.872l-2.574-.387-9.989,5.172L211.473,245.5s3.538,14.7,3.582,19.305a115.4,115.4,0,0,1-1.15,13.775c-.356,2.709,1.086,14.232,2.745,19.674.725,2.374,1.212,4.007,1.631,5.172a4.351,4.351,0,0,0,3,3.592s-5.737-17.77-5.233-28.163c.5-10.248,1.966-18.776,1.7-20.76,0,0,16.665-5.123,19.788-15.879C238.023,240.538,238.392,239.1,238.669,237.872Z" transform="translate(-196.298 -138.352)" fill="#160a5b"/><path d="M213.162,182.167a4.95,4.95,0,0,0-1.442,2.012c-.255,1.018-1.72,4.63-1.72,4.63s-6.968,9.246-8.222,12.078a25.484,25.484,0,0,0-1.666,4.969l18.451,22.721s-6.459,22.274-4.657,30.4c1.823,8.218,4.2,11.279,7.1,12.166s18.428-5.5,19.5-13.633c1.06-8.043.628-9.065.628-9.065s7.246,1.935,7.7.087-.912-15.121-1.285-17.02-1.487-22.841-1.487-22.841-4.416-19.322-4.669-20.274-2.994-8.211-6.522-8.619-7.923,5.2-7.923,5.2Z" transform="translate(-199.654 -155.404)" fill="#453c9e"/><path d="M211.089,181.078a2.257,2.257,0,0,0-.883,1.293,4.287,4.287,0,0,0,.554,4.055c1.316,1.665,11.941,10.336,16.243,17.626,4.347,7.369,9.727,15.586,10.18,17.288,0,0,1.96-11.664.188-17.033-1.758-5.325-7.391-16.178-8.582-16.985s-8.5-1.5-8.5-1.5Z" transform="translate(-196.753 -155.013)" fill="#f0f6ff"/><path d="M220.466,190.239a7.28,7.28,0,0,0-.746,1.684s-3.087-1.575-4.377-2.156l4.738,3.293a8.42,8.42,0,0,1,.516-1.982s2.7,2.066,3.086,2.985,5.377,13.474,5.377,13.474l2.626,4.288.676-1.038-4.3-11.7s-2.42-3.684-2.453-3.771-1.67-4.04-1.67-4.04Z" transform="translate(-195.155 -152.446)" fill="#c4ccd6"/><path d="M219.3,190.776s1.573-2.937,4.614-2.824c0,0,.874,3.626,1.12,5.1,0,0-1.964.845-2.754.159S219.3,190.776,219.3,190.776Z" transform="translate(-193.987 -152.983)" fill="#160a5b"/><path d="M224.007,191.587s7.823,9.644,10.552,21.286l-.569,6-4.115-7.333s-6.74-16.841-8.307-19.925S224.007,191.587,224.007,191.587Z" transform="translate(-193.423 -152.305)" fill="#160a5b"/><path d="M213.756,221.144c-.523,2.06-1.14,4.621-1.719,7.367.005.006,11.581,15.116,22.881,21.271a9.426,9.426,0,0,0,2.066-4.5,69.151,69.151,0,0,0,.715-7.749l-13.143-9.964Z" transform="translate(-196.131 -143.178)" fill="#24126a"/><path d="M212.757,204.007s3.346,4.566,4.237,4.979,8.13,13.107,9.6,15.5,5.371,5.759,5.371,5.759l-3.685.359-14.427-19.346Z" transform="translate(-195.919 -148.24)" fill="#24126a"/><path d="M218.643,210.152a23.333,23.333,0,0,0-6.653-9.311c-3.329-2.785-7.695-5.5-10.005-3.057-4.064,4.3-2.334,12.384,3.314,19.957,5.71,7.656,14.709,18.554,16.835,20.387,2.04,1.759,19.5,14.892,29.5,19.8a1.578,1.578,0,0,0,2.058-.645c1.381-2.28,4.241-7.031,5.264-8.985a.88.88,0,0,0-.286-1.14c-3.657-2.35-21.924-14.095-27.332-17.743a6,6,0,0,1-1.97-2.238c-1.582-3.084-5.645-10.675-9.222-14.552a7.7,7.7,0,0,1-1.478-2.4Z" transform="translate(-199.758 -150.359)" fill="#4846a5"/><path d="M224.707,182.951l6.39,6.46-1.65.573,2.106,1.224a61.119,61.119,0,0,1,4,25.751s2.538-10.756-2.96-26l-1.7-.863,1.148-.364Z" transform="translate(-192.389 -154.46)" fill="#24126a"/><path d="M211.661,185.693a1.581,1.581,0,0,1,.157.8,13.2,13.2,0,0,0-.062,1.951c.076.6,4.082,7.353,12.269,7.412,0,0,.982-1.462,1.177-1.75,0,0,3.312-.153,4.692-1.361s.529-3.317.529-3.317l.2-2.529a1.236,1.236,0,0,1,.382-.8,2.69,2.69,0,0,0,.745-.982,2.374,2.374,0,0,0-.281-1.184,1.465,1.465,0,0,1-.123-.772,10.187,10.187,0,0,0-.315-3.7,2.962,2.962,0,0,1-.01-1.494,23.794,23.794,0,0,0,.526-2.42c.052-.663-1.073-2.426-1.122-3.121a19.517,19.517,0,0,0-1.017-3.045s-6.086-11.3-15.912-6.408c-9.9,4.929-4.738,15.506-3.516,18.5,0,0,1.181,2.439,1.39,2.983C211.542,184.918,211.416,185.166,211.661,185.693Z" transform="translate(-197.459 -160.722)" fill="#fcd1c5"/><path d="M230.473,170.81a2.471,2.471,0,0,1-.82,2.121,12.985,12.985,0,0,1-6.694,3.2c-2.2.293-3.408.4-4.064.439a.871.871,0,0,0-.816.828c-.045.821-.127,2.071-.243,2.911a3.315,3.315,0,0,1-.291.972l-.7,1.481a.974.974,0,0,1-.949.561l-.162-.013a.944.944,0,0,1-.86-.824l-.008-.063A3.427,3.427,0,0,0,213,179.735a2.077,2.077,0,0,0-1.71-.114,1.739,1.739,0,0,0-.992,2.342,17.463,17.463,0,0,1-2.983-5.755c-.922-3.271-.709-9.187,3.569-12.28,4.258-3.078,9.818-4.325,14.563-.99A11.065,11.065,0,0,1,230.473,170.81Z" transform="translate(-197.658 -160.956)" fill="#aa8383"/><path d="M213.123,179.263c-.215-.259.058,2-2.262,2.064a13.2,13.2,0,0,0-.062,1.951c.076.6,4.082,7.353,12.269,7.412,0,0,.982-1.462,1.177-1.75,0,0-7.513-3.648-8.846-5.306A21.954,21.954,0,0,1,213.123,179.263Z" transform="translate(-196.503 -155.555)" fill="#e2b1a6"/><path d="M222.86,188.314a12.323,12.323,0,0,1,3.27.812,3.862,3.862,0,0,0-.3-2.4s.666.536.659,3.2c0,0-3.271-1.063-3.517-1.133Z" transform="translate(-192.934 -153.346)" fill="#c4ccd6"/><path d="M254.253,252.356s-18.954-10.9-25.378-15.24c-6.382-4.316-24.341-22.637-28.016-29.687a32.248,32.248,0,0,0,4.114,7.182c5.71,7.656,14.709,18.554,16.835,20.387,2.04,1.759,19.5,14.892,29.5,19.8a1.578,1.578,0,0,0,2.058-.645c.268-.443.592-.979.947-1.569C254.278,252.442,254.253,252.356,254.253,252.356Z" transform="translate(-199.433 -147.229)" fill="#24126a"/><path d="M208.425,187.185l8.66,12.315,2.228-.791.122,2.35s10.363,7.72,18.113,23.757c0,0-10.257-16.519-18.425-22.015l-.742-2.36-1.737.4Z" transform="translate(-197.198 -153.209)" fill="#24126a"/><path d="M207.887,174.05c-.095-.032-.183-.056-.271-.079a17.822,17.822,0,0,0,2.46,4.244,1.739,1.739,0,0,1,.992-2.342,2.077,2.077,0,0,1,1.71.114,3.427,3.427,0,0,1,1.869,2.681l.008.063a.944.944,0,0,0,.86.824l.162.013a.974.974,0,0,0,.949-.561l.7-1.481a3.315,3.315,0,0,0,.291-.972c.117-.839.2-2.089.243-2.911C217.859,173.645,212.081,175.516,207.887,174.05Z" transform="translate(-197.437 -157.208)" fill="#936d6d"/></g><g transform="translate(195.905 59.09)"><path d="M288.778,162.245l-4.251-2.454v8.181l4.251,2.454Z" transform="translate(-284.527 -159.791)" fill="#42e8e0" opacity="0.4" style="mix-blend-mode:lighten;isolation:isolate"/><path d="M294.638,178.722l-4.251-2.454v-6.778l4.251,2.454Z" transform="translate(-282.796 -156.926)" fill="#42e8e0" opacity="0.6" style="mix-blend-mode:lighten;isolation:isolate"/><path d="M300.5,170.7l-4.251-2.454v6l4.251,2.454Z" transform="translate(-281.066 -157.295)" fill="#42e8e0" opacity="0.8" style="mix-blend-mode:lighten;isolation:isolate"/><path d="M306.358,169.387l-4.251-2.454v12.076l4.251,2.454Z" transform="translate(-279.335 -157.681)" fill="#42e8e0" style="mix-blend-mode:lighten;isolation:isolate"/><path d="M312.218,168.681l-4.251-2.454V183.6l4.251,2.454Z" transform="translate(-277.604 -157.89)" fill="#42e8e0" style="mix-blend-mode:lighten;isolation:isolate"/><path d="M318.078,176.154l-4.251-2.454v12.076l4.251,2.454Z" transform="translate(-275.873 -155.682)" fill="#42e8e0" opacity="0.8" style="mix-blend-mode:lighten;isolation:isolate"/><path d="M323.938,177.131l-4.251-2.454V189.87l4.251,2.454Z" transform="translate(-274.142 -155.394)" fill="#42e8e0" opacity="0.6" style="mix-blend-mode:lighten;isolation:isolate"/><path d="M329.8,175.463l-4.251-2.454v21.737L329.8,197.2Z" transform="translate(-272.411 -155.887)" fill="#42e8e0" opacity="0.4" style="mix-blend-mode:lighten;isolation:isolate"/></g><g transform="translate(279.344 155.935)"><path d="M386.292,283.749h0c1.016.588,1.841.24,1.841-.776l.021-43.54a3.814,3.814,0,0,0-1.838-2.9h0c-1.017-.588-1.841-.24-1.842.777l-.021,43.54A3.816,3.816,0,0,0,386.292,283.749Z" transform="translate(-338.45 -234.053)" fill="#42e8e0" opacity="0.4"/><path d="M381.219,277.38h0c1.016.588,1.839.24,1.841-.777l.013-28.462a3.812,3.812,0,0,0-1.839-2.9h0c-1.016-.588-1.839-.24-1.841.777l-.013,28.462A3.812,3.812,0,0,0,381.219,277.38Z" transform="translate(-339.949 -231.482)" fill="#42e8e0" opacity="0.6"/><path d="M376.145,276.653h0c1.017.587,1.841.24,1.841-.777l.019-38.133a3.822,3.822,0,0,0-1.839-2.9h0c-1.017-.587-1.841-.24-1.841.777l-.019,38.133A3.822,3.822,0,0,0,376.145,276.653Z" transform="translate(-341.448 -234.553)" fill="#42e8e0" opacity="0.8"/><path d="M371.072,270.424h0c1.016.588,1.841.24,1.841-.776l.012-23.679a3.816,3.816,0,0,0-1.839-2.9h0c-1.016-.588-1.841-.24-1.841.777l-.012,23.678A3.816,3.816,0,0,0,371.072,270.424Z" transform="translate(-342.946 -232.123)" fill="#42e8e0"/><path d="M366,268.014h0c1.016.588,1.839.24,1.841-.777l.013-25.967a3.824,3.824,0,0,0-1.839-2.9h0c-1.017-.587-1.841-.24-1.842.777l-.012,25.967A3.813,3.813,0,0,0,366,268.014Z" transform="translate(-344.444 -233.511)" fill="#42e8e0"/><path d="M360.925,263.089h0c1.017.587,1.841.24,1.841-.777l.009-17.226a3.816,3.816,0,0,0-1.839-2.9h0c-1.016-.588-1.841-.24-1.841.777l-.009,17.226A3.821,3.821,0,0,0,360.925,263.089Z" transform="translate(-345.943 -232.384)" fill="#42e8e0" opacity="0.8"/><path d="M355.852,261.01h0c1.017.588,1.841.24,1.841-.776l.01-20.976a3.816,3.816,0,0,0-1.839-2.9h0c-1.016-.588-1.841-.24-1.841.777l-.01,20.975A3.816,3.816,0,0,0,355.852,261.01Z" transform="translate(-347.442 -234.105)" fill="#42e8e0" opacity="0.6"/><path d="M350.779,255.044h0c1.016.587,1.841.24,1.841-.777l0-7.666a3.822,3.822,0,0,0-1.839-2.9h0c-1.017-.587-1.841-.24-1.841.777l0,7.666A3.813,3.813,0,0,0,350.779,255.044Z" transform="translate(-348.94 -231.936)" fill="#42e8e0" opacity="0.4"/></g></g></g></svg>