<svg xmlns="http://www.w3.org/2000/svg" width="163.012" height="141.499" viewBox="0 0 163.012 141.499"><path d="M661.365,383.557H613.859a9.215,9.215,0,1,1,0-18.43h47.506a9.215,9.215,0,0,1,0,18.43Zm-47.506-13.146a3.931,3.931,0,0,0,0,7.862h47.506a3.931,3.931,0,0,0,0-7.862Z" transform="translate(-584.271 -336.776)" fill="#333"/><path d="M651.118,469.639a53.338,53.338,0,0,1-26.236-99.779,2.651,2.651,0,0,1,1.771-.3,4,4,0,0,0,.712.077h47.506a4,4,0,0,0,.709-.077,2.631,2.631,0,0,1,1.771.3,53.6,53.6,0,0,1,11.826,9.082,2.641,2.641,0,1,1-3.768,3.7A48.378,48.378,0,0,0,675.5,374.9c-.213.018-.424.027-.632.027H627.366c-.211,0-.418-.009-.635-.027a48.057,48.057,0,1,0,49.621,82.31,2.642,2.642,0,0,1,2.777,4.495A53.229,53.229,0,0,1,651.118,469.639Z" transform="translate(-597.777 -328.14)" fill="#333"/><path d="M659.509,389.206H616.134a2.636,2.636,0,0,1-1.569-.513c-12.58-9.28-9.808-29.977-9.684-30.852a2.64,2.64,0,0,1,2.617-2.27,18.552,18.552,0,0,1,9.96,2.925,14.534,14.534,0,0,0,11.416,2.026,33.988,33.988,0,0,1,17.893,0,14.529,14.529,0,0,0,11.417-2.026,18.56,18.56,0,0,1,9.963-2.925,2.64,2.64,0,0,1,2.617,2.27c.124.875,2.893,21.572-9.684,30.852A2.643,2.643,0,0,1,659.509,389.206Zm-42.468-5.284H658.6c7.177-5.961,7.42-17.709,7.141-22.845a13.769,13.769,0,0,0-4.756,1.9,19.763,19.763,0,0,1-15.55,2.661,28.7,28.7,0,0,0-15.235,0,19.78,19.78,0,0,1-15.549-2.661,13.794,13.794,0,0,0-4.75-1.9C609.636,366.219,609.891,377.98,617.042,383.922Z" transform="translate(-584.48 -355.571)" fill="#333"/><path d="M636.554,437.424a31.37,31.37,0,1,1,31.369-31.372A31.405,31.405,0,0,1,636.554,437.424Zm0-57.456a26.086,26.086,0,1,0,26.085,26.085A26.117,26.117,0,0,0,636.554,379.968Z" transform="translate(-583.212 -317.978)" fill="#333"/><path d="M679.653,418.4H631.02a2.644,2.644,0,0,1-2.643-2.643V398.211a2.641,2.641,0,0,1,2.643-2.641h48.633a2.639,2.639,0,0,1,2.641,2.641v17.543A2.641,2.641,0,0,1,679.653,418.4Zm-45.992-5.284H677.01V400.854H633.661Z" transform="translate(-537.591 -276.898)" fill="#333"/><path d="M682.025,412.484H633.392a2.641,2.641,0,0,1-2.641-2.643V392.3a2.639,2.639,0,0,1,2.641-2.64h48.633a2.639,2.639,0,0,1,2.64,2.64v17.543A2.641,2.641,0,0,1,682.025,412.484ZM636.032,407.2h43.352V394.938H636.032Z" transform="translate(-532.921 -288.528)" fill="#333"/><path d="M679.653,406.57H631.02a2.641,2.641,0,0,1-2.643-2.641V386.386a2.644,2.644,0,0,1,2.643-2.643h48.633a2.641,2.641,0,0,1,2.641,2.643V403.93A2.639,2.639,0,0,1,679.653,406.57Zm-45.992-5.281H677.01V389.027H633.661Z" transform="translate(-537.591 -300.16)" fill="#333"/><path d="M681.835,394.581H633.2a2.639,2.639,0,0,1-2.64-2.641V374.4a2.641,2.641,0,0,1,2.64-2.643h48.633a2.644,2.644,0,0,1,2.643,2.643v17.543A2.641,2.641,0,0,1,681.835,394.581Zm-45.99-5.284h43.349V377.038H635.845Z" transform="translate(-533.295 -323.741)" fill="#333"/><path d="M641.4,368.123a2.641,2.641,0,0,1-2.64-2.643v-3.753a2.642,2.642,0,1,1,5.284,0v3.753A2.644,2.644,0,0,1,641.4,368.123Z" transform="translate(-517.174 -348.663)" fill="#333"/><path d="M641.4,380.544a2.639,2.639,0,0,1-2.64-2.64V365.8a2.642,2.642,0,1,1,5.284,0v12.1A2.641,2.641,0,0,1,641.4,380.544Z" transform="translate(-517.174 -340.642)" fill="#333"/><path d="M646.555,387.645a2.641,2.641,0,0,1-2.64-2.64V363.622a2.642,2.642,0,0,1,5.284,0V385A2.641,2.641,0,0,1,646.555,387.645Z" transform="translate(-507.029 -344.928)" fill="#333"/><path d="M636.24,387.645A2.639,2.639,0,0,1,633.6,385V363.622a2.642,2.642,0,0,1,5.284,0V385A2.641,2.641,0,0,1,636.24,387.645Z" transform="translate(-527.32 -344.928)" fill="#333"/><path d="M751.609,406.767H603.74a2.642,2.642,0,0,1,0-5.284H751.609a2.642,2.642,0,1,1,0,5.284Z" transform="translate(-591.241 -265.268)" fill="#333"/><path d="M634.073,378.09H616.227a5.263,5.263,0,0,0-5.248,5.248v13.268a5.26,5.26,0,0,0,5.248,5.248h2.893l-.985.985a2.5,2.5,0,0,0,3.537,3.533l4.51-4.518h7.735a.408.408,0,0,1,.409.406v12.95a.408.408,0,0,1-.409.407H616.388a.412.412,0,0,1-.412-.407v-4.189a2.5,2.5,0,1,0-4.993,0h0v4.349a5.257,5.257,0,0,0,5.245,5.245h17.846a5.263,5.263,0,0,0,5.248-5.245V402.1a5.26,5.26,0,0,0-5.248-5.248H631.18l.869-.872.267-.267a2.5,2.5,0,0,0-.136-3.317,2.469,2.469,0,0,0-1.762-.762,2.713,2.713,0,0,0-1.783.7l-4.519,4.515h-7.732a.41.41,0,0,1-.41-.409V383.493a.413.413,0,0,1,.41-.412H633.91a.416.416,0,0,1,.415.412v4.186a2.491,2.491,0,0,0,2.492,2.5h0a2.5,2.5,0,0,0,2.5-2.5V383.33A5.261,5.261,0,0,0,634.073,378.09Z" transform="translate(-571.81 -311.279)" fill="#333"/></svg>