<svg xmlns="http://www.w3.org/2000/svg" width="144.225" height="143.162" viewBox="0 0 144.225 143.162"><path d="M726.941,311.312H608.807a13.061,13.061,0,0,1-13.046-13.048V221.283a13.06,13.06,0,0,1,13.046-13.046H726.941a13.06,13.06,0,0,1,13.046,13.046v76.981A13.061,13.061,0,0,1,726.941,311.312ZM608.807,213.044a8.247,8.247,0,0,0-8.238,8.238v76.981a8.248,8.248,0,0,0,8.238,8.241H726.941a8.248,8.248,0,0,0,8.238-8.241V221.283a8.247,8.247,0,0,0-8.238-8.238Z" transform="translate(-595.761 -208.237)" fill="#333"/><path d="M666.512,270.38H614.322a2.4,2.4,0,0,1-2.378-2.745l3.01-20.933a2.4,2.4,0,0,1,2.381-2.06H663.5a2.4,2.4,0,0,1,2.381,2.06l3.01,20.933a2.4,2.4,0,0,1-2.378,2.745ZM617.1,265.572h46.641l-2.319-16.123h-42Z" transform="translate(-568.304 -146.375)" fill="#333"/><path d="M707.815,276.36H604.934a2.4,2.4,0,0,1-2.405-2.4V261.185a8.8,8.8,0,0,1,8.789-8.789h90.11a8.8,8.8,0,0,1,8.789,8.789v12.773A2.4,2.4,0,0,1,707.815,276.36Zm-100.478-4.807h98.073V261.185a3.985,3.985,0,0,0-3.981-3.981h-90.11a3.987,3.987,0,0,0-3.981,3.981Z" transform="translate(-584.26 -133.198)" fill="#333"/><path d="M737.584,243.4H598.163a2.4,2.4,0,0,1,0-4.807H737.584a2.4,2.4,0,0,1,0,4.807Z" transform="translate(-595.761 -156.648)" fill="#333"/><path d="M727.291,264.3H600.506a2.4,2.4,0,1,1,0-4.807H727.291a2.4,2.4,0,0,1,0,4.807Z" transform="translate(-591.785 -121.138)" fill="#333"/><path d="M639.11,269.254a27.7,27.7,0,1,1,27.7-27.7A27.73,27.73,0,0,1,639.11,269.254Zm0-50.59A22.891,22.891,0,1,0,662,241.554,22.916,22.916,0,0,0,639.11,218.664Z" transform="translate(-569.169 -198.687)" fill="#333"/><path d="M623.534,228.035h-20.99a2.4,2.4,0,0,1,0-4.807h20.99a2.4,2.4,0,1,1,0,4.807Z" transform="translate(-588.317 -182.763)" fill="#333"/><path d="M623.88,230.254H608.458a2.407,2.407,0,0,1-2.181-1.39l-5.015-10.776a2.4,2.4,0,1,1,4.357-2.027l4.37,9.385H623.88a2.4,2.4,0,0,1,0,4.807Z" transform="translate(-586.797 -197.306)" fill="#333"/><path d="M607.37,221.248a2.4,2.4,0,0,1-1.7-4.1l2.586-2.583a2.4,2.4,0,0,1,1.7-.7h14.808a2.4,2.4,0,1,1,0,4.807H610.949l-1.879,1.879A2.4,2.4,0,0,1,607.37,221.248Z" transform="translate(-580.118 -198.687)" fill="#333"/><path d="M658.649,228.035h-20.99a2.4,2.4,0,1,1,0-4.807h20.99a2.4,2.4,0,0,1,0,4.807Z" transform="translate(-528.651 -182.763)" fill="#333"/><path d="M652.39,230.254H636.969a2.4,2.4,0,1,1,0-4.807h13.888l4.37-9.385a2.4,2.4,0,0,1,4.359,2.027l-5.018,10.776A2.4,2.4,0,0,1,652.39,230.254Z" transform="translate(-529.824 -197.306)" fill="#333"/><path d="M651.557,221.248a2.391,2.391,0,0,1-1.7-.7l-1.881-1.879H634.165a2.4,2.4,0,0,1,0-4.807h14.808a2.407,2.407,0,0,1,1.7.7l2.583,2.583a2.4,2.4,0,0,1-1.7,4.1Z" transform="translate(-534.583 -198.687)" fill="#333"/><path d="M623.534,228.035h-20.99a2.4,2.4,0,0,1,0-4.807h20.99a2.4,2.4,0,1,1,0,4.807Z" transform="translate(-588.317 -182.763)" fill="#333"/><path d="M603.438,243.377a2.4,2.4,0,0,1-2.176-3.417l5.015-10.776a2.4,2.4,0,0,1,2.181-1.39H623.88a2.4,2.4,0,0,1,0,4.807H609.989l-4.37,9.385A2.4,2.4,0,0,1,603.438,243.377Z" transform="translate(-586.797 -175.004)" fill="#333"/><path d="M624.761,239.033H609.953a2.4,2.4,0,0,1-1.7-.7l-2.586-2.583a2.4,2.4,0,0,1,3.4-3.4l1.879,1.879h13.812a2.4,2.4,0,1,1,0,4.807Z" transform="translate(-580.118 -168.465)" fill="#333"/><path d="M658.649,228.035h-20.99a2.4,2.4,0,1,1,0-4.807h20.99a2.4,2.4,0,0,1,0,4.807Z" transform="translate(-528.651 -182.763)" fill="#333"/><path d="M657.408,243.377a2.4,2.4,0,0,1-2.181-1.39l-4.37-9.385H636.969a2.4,2.4,0,1,1,0-4.807H652.39a2.4,2.4,0,0,1,2.178,1.39l5.018,10.776a2.4,2.4,0,0,1-2.178,3.417Z" transform="translate(-529.824 -175.004)" fill="#333"/><path d="M648.974,239.033H634.165a2.4,2.4,0,0,1,0-4.807h13.812l1.881-1.879a2.4,2.4,0,0,1,3.4,3.4l-2.583,2.583A2.407,2.407,0,0,1,648.974,239.033Z" transform="translate(-534.583 -168.465)" fill="#333"/><path d="M636.182,217.713H621.668a4.274,4.274,0,0,0-4.265,4.265V232.77a4.27,4.27,0,0,0,4.265,4.265h2.354l-.8.8a2.034,2.034,0,0,0,2.875,2.875l3.668-3.674h6.289a.33.33,0,0,1,.332.329V247.9a.332.332,0,0,1-.332.332H621.8a.332.332,0,0,1-.332-.332V244.49a2.031,2.031,0,0,0-4.062,0h0v3.536a4.276,4.276,0,0,0,4.265,4.268h14.514a4.276,4.276,0,0,0,4.265-4.268V237.232a4.273,4.273,0,0,0-4.265-4.268h-2.354l.707-.71.219-.219a2.035,2.035,0,0,0-1.547-3.317,2.216,2.216,0,0,0-1.45.575l-3.674,3.671H621.8a.333.333,0,0,1-.335-.332V222.1a.337.337,0,0,1,.335-.335h14.249a.337.337,0,0,1,.337.335v3.4a2.029,2.029,0,0,0,2.027,2.033h0a2.027,2.027,0,0,0,2.03-2.03v-3.539A4.272,4.272,0,0,0,636.182,217.713Z" transform="translate(-558.985 -192.135)" fill="#333"/></svg>