<svg xmlns="http://www.w3.org/2000/svg" width="142.255" height="142.251" viewBox="0 0 142.255 142.251"><path d="M686.991,187.76H676.417a2.544,2.544,0,0,0-2.544,2.544v1.626a2.562,2.562,0,0,1-5.124,0V190.3a2.544,2.544,0,0,0-2.544-2.544H655.63a7.394,7.394,0,0,1-7.385-7.388v-7.636a2.562,2.562,0,1,1,5.124,0v7.357a2.545,2.545,0,0,0,2.545,2.548h30.794a2.545,2.545,0,0,0,2.544-2.548v-.142l-5.092-5.092v2.69h-25.7v-4.812a7.654,7.654,0,0,0-15.308,0v7.636a12.494,12.494,0,0,0,12.477,12.481h8.083a7.653,7.653,0,0,0,15.195,0h8.083a12.439,12.439,0,0,0,10.032-5.131l-3.668-3.668A7.362,7.362,0,0,1,686.991,187.76Z" transform="translate(-600.183 -81.108)" fill="#333"/><path d="M665.256,159.3H651.7l5.092,5.092h8.466a7.391,7.391,0,0,1,7.382,7.385v8.466l5.092,5.089V171.775A12.49,12.49,0,0,0,665.256,159.3Z" transform="translate(-578.448 -95.825)" fill="#333"/><path d="M655.63,182.3h13.561l-5.092-5.092H655.63a7.394,7.394,0,0,1-7.385-7.385v-8.466l-5.092-5.092v13.558A12.493,12.493,0,0,0,655.63,182.3Z" transform="translate(-600.183 -103.527)" fill="#333"/><path d="M682.4,170.133v4.812a7.652,7.652,0,1,0,15.3,0V167.3a12.49,12.49,0,0,0-12.474-12.477h-8.083a7.653,7.653,0,0,0-15.195,0h-8.083a12.434,12.434,0,0,0-10.032,5.131l3.668,3.668a7.362,7.362,0,0,1,6.364-3.707h10.574a2.544,2.544,0,0,0,2.544-2.544v-1.627a2.562,2.562,0,0,1,5.124,0v1.627a2.544,2.544,0,0,0,2.544,2.544h10.574a7.391,7.391,0,0,1,7.382,7.385v7.64a2.56,2.56,0,1,1-5.121,0v-7.357a2.542,2.542,0,0,0-2.544-2.544H654.159a2.542,2.542,0,0,0-2.544,2.544v.142l5.092,5.092v-2.69Z" transform="translate(-598.428 -124.321)" fill="#333"/><path d="M657.642,162.18H654.58l5.606,5.606v-3.058A2.545,2.545,0,0,0,657.642,162.18Z" transform="translate(-571.117 -88.494)" fill="#333"/><path d="M648.581,164.759h3.062l-5.606-5.606v3.062A2.542,2.542,0,0,0,648.581,164.759Z" transform="translate(-592.85 -96.194)" fill="#333"/><path d="M702.154,141.386a71.126,71.126,0,1,0,71.128,71.127A71.207,71.207,0,0,0,702.154,141.386Zm0,137.6a66.473,66.473,0,1,1,66.475-66.471A66.548,66.548,0,0,1,702.154,278.985Z" transform="translate(-631.027 -141.386)" fill="#333"/><path d="M713.513,212.109l-5.092-5.092-8.391-8.395-5.092-5.092-5.12-5.12-5.092-5.092-2-2-5.092-5.092-5.124-5.121-5.092-5.092-15.468-15.471a2.26,2.26,0,0,0-1.733-.68,2.342,2.342,0,0,0-1.68.812A61.939,61.939,0,0,0,735.87,238.01,2.326,2.326,0,0,0,736,234.6l-12.633-12.637-4.734-4.731ZM730.9,236.071a57.285,57.285,0,0,1-80.426-80.426l16.942,16.942,5.092,5.092,5.124,5.124,5.606,5.606,5.124,5.12,5.092,5.092,14.968,14.972,5.092,5.092,4.1,4.1,3.667,3.668Z" transform="translate(-624.444 -119.844)" fill="#333"/><path d="M680.609,143.974a61.934,61.934,0,0,0-40.3,14.919,2.326,2.326,0,0,0-.131,3.413l12.633,12.633,4.731,4.731,5.124,5.124,5.092,5.089,8.391,8.395,5.092,5.092,5.124,5.12,5.092,5.092,2,2,5.092,5.092,5.121,5.12,5.092,5.092,15.471,15.471a2.334,2.334,0,0,0,1.648.68h.089a2.327,2.327,0,0,0,1.676-.812,61.94,61.94,0,0,0-47.038-102.255Zm45.1,97.279-16.946-16.946-5.092-5.089L698.55,214.1l-5.606-5.606-5.121-5.12-5.092-5.092L667.76,183.3l-5.092-5.092-4.1-4.1-3.667-3.668-9.614-9.61a57.283,57.283,0,0,1,80.426,80.422Z" transform="translate(-609.481 -134.803)" fill="#333"/></svg>