<svg xmlns="http://www.w3.org/2000/svg" width="135.589" height="149.774" viewBox="0 0 135.589 149.774"><path d="M828.278,340.6H731.686a2.482,2.482,0,0,1-2.48-2.484V210.318a14.534,14.534,0,1,0-29.068,0v32.853H716.1a2.482,2.482,0,1,1,0,4.965H697.654a2.482,2.482,0,0,1-2.481-2.484V210.318a19.518,19.518,0,0,1,19.5-19.5h91.854a24.265,24.265,0,0,1,24.238,24.235V338.111A2.485,2.485,0,0,1,828.278,340.6Zm-94.111-4.965H825.8V215.056a19.3,19.3,0,0,0-19.274-19.274h-78.87a19.457,19.457,0,0,1,6.513,14.536Z" transform="translate(-695.173 -190.821)" fill="#333"/><path d="M773.445,232.11H712.485a2.482,2.482,0,0,1,0-4.965h60.961a2.482,2.482,0,0,1,0,4.965Z" transform="translate(-657.449 -98.427)" fill="#333"/><path d="M773.445,227.758H712.485a2.481,2.481,0,0,1,0-4.961h60.961a2.481,2.481,0,1,1,0,4.961Z" transform="translate(-657.449 -109.486)" fill="#333"/><path d="M773.445,223.409H712.485a2.481,2.481,0,0,1,0-4.961h60.961a2.481,2.481,0,1,1,0,4.961Z" transform="translate(-657.449 -120.549)" fill="#333"/><path d="M773.445,219.064H712.485a2.482,2.482,0,0,1,0-4.965h60.961a2.482,2.482,0,0,1,0,4.965Z" transform="translate(-657.449 -131.611)" fill="#333"/><path d="M741.548,196.707h-20.73a6.1,6.1,0,0,0-6.091,6.091v15.415a6.107,6.107,0,0,0,6.091,6.091h3.363l-1.145,1.141a2.9,2.9,0,0,0,.117,4.1l0,0a2.9,2.9,0,0,0,3.986,0l5.237-5.245h8.987a.472.472,0,0,1,.475.471v15.039a.474.474,0,0,1-.471.475H721a.475.475,0,0,1-.475-.475V234.95a2.9,2.9,0,0,0-5.8,0h0V240a6.1,6.1,0,0,0,6.095,6.091h20.73A6.1,6.1,0,0,0,747.633,240V224.585a6.1,6.1,0,0,0-6.084-6.092h-3.363l1.006-1.013.312-.312a2.906,2.906,0,0,0-2.2-4.741,3.156,3.156,0,0,0-2.073.819l-5.245,5.248H721a.475.475,0,0,1-.475-.475V202.983A.478.478,0,0,1,721,202.5H741.36a.483.483,0,0,1,.478.478v4.862a2.9,2.9,0,0,0,2.9,2.906h0a2.907,2.907,0,0,0,2.9-2.906V202.8A6.107,6.107,0,0,0,741.548,196.707Z" transform="translate(-645.445 -175.849)" fill="#333"/></svg>