<svg xmlns="http://www.w3.org/2000/svg" width="157.563" height="150.203" viewBox="0 0 157.563 150.203"><path d="M642.387,284.368a2.464,2.464,0,0,1-2.364-3.171l4.727-15.844A18.268,18.268,0,0,1,629.736,247.4V208.939A18.257,18.257,0,0,1,647.971,190.7h67.035a18.26,18.26,0,0,1,18.239,18.239V247.4a18.259,18.259,0,0,1-18.239,18.235h-41L643.662,284.01A2.44,2.44,0,0,1,642.387,284.368Zm5.585-88.739a13.322,13.322,0,0,0-13.306,13.31V247.4a13.321,13.321,0,0,0,13.306,13.306,2.465,2.465,0,0,1,2.364,3.168l-3.763,12.612,25.471-15.422a2.473,2.473,0,0,1,1.279-.358h41.683a13.324,13.324,0,0,0,13.31-13.306V208.939a13.325,13.325,0,0,0-13.31-13.31Z" transform="translate(-629.736 -190.7)" fill="#333"/><path d="M650.947,217.267a9.2,9.2,0,1,1,9.2-9.2A9.212,9.212,0,0,1,650.947,217.267Zm0-13.473a4.272,4.272,0,1,0,4.27,4.274A4.278,4.278,0,0,0,650.947,203.794Z" transform="translate(-599.192 -169.931)" fill="#333"/><path d="M658.234,217.267a9.2,9.2,0,1,1,9.2-9.2A9.209,9.209,0,0,1,658.234,217.267Zm0-13.473a4.272,4.272,0,1,0,4.274,4.274A4.275,4.275,0,0,0,658.234,203.794Z" transform="translate(-580.647 -169.931)" fill="#333"/><path d="M643.654,217.267a9.2,9.2,0,1,1,9.2-9.2A9.209,9.209,0,0,1,643.654,217.267Zm0-13.473a4.272,4.272,0,1,0,4.273,4.274A4.275,4.275,0,0,0,643.654,203.794Z" transform="translate(-617.735 -169.931)" fill="#333"/><path d="M735.848,300.322a2.439,2.439,0,0,1-1.276-.358l-30.348-18.374h-41a18.259,18.259,0,0,1-18.235-18.239V232.366a2.465,2.465,0,0,1,4.929,0v30.985a13.322,13.322,0,0,0,13.306,13.31h41.687a2.451,2.451,0,0,1,1.276.358l25.471,15.422L727.9,279.83a2.465,2.465,0,0,1,2.363-3.168,13.322,13.322,0,0,0,13.306-13.31V224.893a13.322,13.322,0,0,0-13.306-13.31H701.755a2.465,2.465,0,0,1,0-4.929h28.508A18.257,18.257,0,0,1,748.5,224.893v38.459a18.269,18.269,0,0,1-15.014,17.955l4.727,15.844a2.464,2.464,0,0,1-2.364,3.172Z" transform="translate(-590.936 -150.119)" fill="#333"/><path d="M666.2,233.221a9.2,9.2,0,1,1,9.2-9.2A9.21,9.21,0,0,1,666.2,233.221Zm0-13.473a4.272,4.272,0,1,0,4.274,4.27A4.272,4.272,0,0,0,666.2,219.748Z" transform="translate(-560.39 -129.351)" fill="#333"/><path d="M658.911,233.221a9.2,9.2,0,1,1,9.2-9.2A9.213,9.213,0,0,1,658.911,233.221Zm0-13.473a4.272,4.272,0,1,0,4.27,4.27A4.275,4.275,0,0,0,658.911,219.748Z" transform="translate(-578.935 -129.351)" fill="#333"/><path d="M673.488,233.221a9.2,9.2,0,1,1,9.2-9.2A9.212,9.212,0,0,1,673.488,233.221Zm0-13.473a4.272,4.272,0,1,0,4.274,4.27A4.275,4.275,0,0,0,673.488,219.748Z" transform="translate(-541.847 -129.351)" fill="#333"/></svg>