<svg xmlns="http://www.w3.org/2000/svg" xmlns:xlink="http://www.w3.org/1999/xlink" width="585" height="512.569" viewBox="0 0 585 512.569"><defs><radialGradient id="a" cx="0.5" cy="0.5" r="0.707" gradientTransform="matrix(-0.408, 0.707, 0.408, 0.707, -6.059, 2.873)" gradientUnits="objectBoundingBox"><stop offset="0" stop-color="#42e8e0"/><stop offset="1" stop-color="#42e8e0" stop-opacity="0"/></radialGradient><linearGradient id="b" x1="0.5" x2="0.5" y2="1" gradientUnits="objectBoundingBox"><stop offset="0" stop-color="#42e8e0"/><stop offset="0.151" stop-color="#42e3df"/><stop offset="0.328" stop-color="#44d4de"/><stop offset="0.52" stop-color="#48bddd"/><stop offset="0.721" stop-color="#4d9bda"/><stop offset="0.927" stop-color="#5471d8"/><stop offset="1" stop-color="#5761d7"/></linearGradient><linearGradient id="n" x1="-0.105" y1="0.133" x2="1.024" y2="0.305" xlink:href="#b"/><linearGradient id="p" x1="0.207" y1="0.175" x2="1.016" y2="0.348" xlink:href="#b"/><linearGradient id="r" x1="1.549" y1="1.821" x2="0.431" y2="0.397" gradientUnits="objectBoundingBox"><stop offset="0" stop-color="#5761d7"/><stop offset="0.178" stop-color="#5b65d8"/><stop offset="0.388" stop-color="#6a72de"/><stop offset="0.613" stop-color="#8188e8"/><stop offset="0.849" stop-color="#a2a6f5"/><stop offset="1" stop-color="#bcbeff"/></linearGradient><linearGradient id="s" x1="-0.758" y1="0.5" x2="0.88" y2="0.5" gradientUnits="objectBoundingBox"><stop offset="0" stop-color="#c0bff6"/><stop offset="0.294" stop-color="#c4c3f6"/><stop offset="0.64" stop-color="#d2d2f9"/><stop offset="1" stop-color="#e9e9fd"/></linearGradient><linearGradient id="t" x1="-19.728" y1="17.74" x2="-17.545" y2="17.041" xlink:href="#s"/><linearGradient id="u" x1="107.705" y1="296.422" x2="107.705" y2="295.421" xlink:href="#s"/><linearGradient id="v" x1="23.175" y1="23.835" x2="23.175" y2="23.31" xlink:href="#s"/><linearGradient id="w" x1="-29.18" y1="1.141" x2="-28.695" y2="-0.008" gradientUnits="objectBoundingBox"><stop offset="0" stop-color="#5778ff"/><stop offset="0.04" stop-color="#5b7cff"/><stop offset="0.087" stop-color="#6a89ff"/><stop offset="0.137" stop-color="#819fff"/><stop offset="0.19" stop-color="#a2bdff"/><stop offset="0.224" stop-color="#bcd5ff"/></linearGradient><linearGradient id="x" x1="-30.782" y1="1.153" x2="-31.13" y2="0.274" gradientUnits="objectBoundingBox"><stop offset="0" stop-color="#c0d6ff"/><stop offset="0.298" stop-color="#c4daff"/><stop offset="0.649" stop-color="#d3e9ff"/><stop offset="1" stop-color="#e9ffff"/></linearGradient><linearGradient id="y" x1="1.021" x2="0.457" y2="1.035" gradientUnits="objectBoundingBox"><stop offset="0" stop-color="#c0d6ff"/><stop offset="0.078" stop-color="#c2d8ff"/><stop offset="0.134" stop-color="#cce2ff"/><stop offset="0.183" stop-color="#dbf1ff"/><stop offset="0.212" stop-color="#e9ffff"/><stop offset="0.256" stop-color="#d8eeff"/><stop offset="0.314" stop-color="#cae0ff"/><stop offset="0.387" stop-color="#c2d8ff"/><stop offset="0.514" stop-color="#c0d6ff"/><stop offset="0.624" stop-color="#d0e6ff"/><stop offset="0.755" stop-color="#e9ffff"/><stop offset="1" stop-color="#c0d6ff"/></linearGradient></defs><g transform="translate(-375 -1411.216)"><g transform="translate(310.618 1364.622)"><ellipse cx="292.5" cy="168.875" rx="292.5" ry="168.875" transform="translate(64.382 221.413)" opacity="0.25" fill="url(#a)" style="mix-blend-mode:lighten;isolation:isolate"/><path d="M308.091,260.853a5.514,5.514,0,0,0-4.165-1.241A29.744,29.744,0,0,0,282.7,274.251c-7.281,12.919,1.772,22.871,3.679,24.752a75.614,75.614,0,0,1-5.862,6.39c-2.828-1.828-5.821-3.8-8.945-5.893-5.062-3.371-10.415-7.105-16.02-11.086q-2.077-1.508-4.211-3.053l-2.144-1.554-2.133-1.593-4.337-3.236-4.232-3.25c1.558-1.307,4.592-3.922,8.314-7.456,3.146.386,19.935,1.847,27.584-9.731,6.482-9.809,1.317-17.3-1.453-20.273a4.811,4.811,0,0,0-3.538-1.361,32.306,32.306,0,0,0-22,10.318c-9.092,10.1-2.652,19.08-1.33,20.712-3.635,3.45-6.6,6.011-8.174,7.331-2.773-2.119-5.491-4.314-8.275-6.52-1.487-1.163-2.9-2.368-4.364-3.562s-2.924-2.4-4.369-3.613c-4.71-4.01-9.425-8.1-13.972-12.257.8-.495,2.127-1.333,3.856-2.465,1.9-1.24,4.273-2.837,6.929-4.7,2.617.488,18.41,2.947,27.287-6.863,7.432-8.211,3.631-15.091,1.446-17.859a4.287,4.287,0,0,0-3.126-1.405,34.3,34.3,0,0,0-22.046,7.728c-9.7,8.128-5.329,16.208-4.188,17.968-4.986,3.507-8.965,6.035-10.691,7.11-.81-.745-1.627-1.486-2.424-2.236-7.579-7.044-14.714-14.228-21.179-21.305a75.556,75.556,0,0,0,9.081-5.14c.981-.641,2.016-1.361,3.071-2.121,2.516.35,15.411,1.662,21.727-7,5.377-7.372,1.626-13.157-.422-15.46a3.685,3.685,0,0,0-2.7-1.091A26.025,26.025,0,0,0,196.085,202c-7.228,7.36-2.957,14.135-1.838,15.644a79.053,79.053,0,0,1-11.936,7.13c-2.706-2.975-5.3-5.932-7.748-8.847q-2.547-3.031-4.884-5.995c.021-.025.047-.045.049-.078.008-.132-.158-.28-.373-.334q-.814-1.038-1.6-2.064c.608-.921,3.263-4.96,6.483-10.03,2.652.078,14.719-.113,18.318-9.727,3.1-8.292-1.882-13.908-4.382-16.083a3.707,3.707,0,0,0-2.8-.837,20.045,20.045,0,0,0-14.3,9.8c-4.9,8.605,1.058,15.263,2.382,16.583-2.9,4.562-5.334,8.281-6.219,9.629a210.864,210.864,0,0,1-12.758-18.612l-1.845-3.012c-.6-.983-1.075-1.946-1.6-2.882-.139-.257-.269-.5-.407-.747,1.24-.747,5.663-4.136,1.723-12.63a30.25,30.25,0,0,0-11.739-13.03,2.716,2.716,0,0,0-2.275-.3c-2.023.893-6.048,3.719-3.456,11.575,3.047,9.237,13.13,13.64,15.1,14.424.128.244.25.475.38.724.506.939.968,1.906,1.548,2.891s1.181,1.995,1.791,3.025a210.325,210.325,0,0,0,14.129,20.938c-3.2-.773-11.121-2.674-20.216-4.792-1.174-1.333-7.288-7.5-22.72-10.906-13.306-2.939-20.378-1.531-22.958-.711a.9.9,0,0,0-.474,1.53c1.653,2.232,6.823,7.461,20.795,11.354,16.183,4.51,23.78.228,25.288-.794,9.61,2.238,17.919,4.236,20.744,4.919q2.413,3.15,5.057,6.382c2.956,3.617,6.134,7.3,9.485,11-2.1.18-7.928.63-15.947.878-1.626-1.159-10.4-6.859-26.314-7.21-13.57-.3-19.216,2.908-21.115,4.425-.56.447-.4,1.211.378,1.841,2.672,2.153,10.1,6.9,24.775,8.13,17.008,1.424,21.608-5.167,22.426-6.665,8.246-.251,14.208-.718,16.248-.894,5.876,6.47,12.3,13.016,19.073,19.453q2.211,2.122,4.492,4.218c-1.909.282-7.7,1.114-15.736,2.047-2.161-1.238-13.025-6.863-29.918-5.43-14.519,1.232-19.657,5.681-21.266,7.7-.475.593-.1,1.478.9,2.131,3.425,2.232,12.61,6.974,28.555,6.713,18.819-.31,21.7-8.945,22.081-10.6,8.259-.959,14.16-1.811,15.919-2.071,3.85,3.536,7.8,7.024,11.75,10.455,1.435,1.233,2.9,2.446,4.338,3.661s2.856,2.43,4.333,3.609c2.928,2.368,5.781,4.727,8.709,6.991l1.08.846c-1.337.482-5.122,1.8-11.122,3.477-2.61-1.2-16.144-6.818-34.347-3C176.571,281.1,172.194,287.146,171,289.8c-.354.781.306,1.814,1.586,2.486,4.38,2.3,15.778,6.964,33.171,4.706,20.793-2.7,21.271-13.807,21.205-15.66,6.1-1.709,9.92-3.04,11.223-3.512l2.656,2.08,4.314,3.282,2.123,1.617,2.135,1.579,4.193,3.1c5.582,4.044,10.917,7.838,15.967,11.267,3.4,2.328,6.64,4.495,9.689,6.5-1.277.518-5.193,2.057-11.221,4.017-2.166-.983-17.615-7.478-37.917-2.6-16.792,4.039-21.216,10.9-22.367,13.889-.341.882.439,2.018,1.876,2.738,4.915,2.461,17.627,7.38,36.482,4.42,22.128-3.474,22.407-15.513,22.239-17.9,6.316-2.047,10.368-3.65,11.56-4.136,5.7,3.735,10.687,6.863,14.642,9.29,3.1,1.9,5.573,3.373,7.276,4.369s2.644,1.529,2.644,1.529l1.891-1.731s-.885-.486-2.569-1.457-4.14-2.4-7.231-4.258c-4.117-2.477-9.368-5.711-15.392-9.594a75.993,75.993,0,0,0,5.933-6.464c2.9.126,22.094.376,27.6-14.534C319.276,272.449,311.826,264.087,308.091,260.853Z" transform="translate(10.876 32.149)" fill="#0b0244" opacity="0.05"/><g transform="translate(173.783 46.594)"><g transform="translate(19.004 276.461)" opacity="0.7"><path d="M250.8,274.326s-11.156,24.619-45.534,25.012c-26.339.3-37.333-10.981-41.034-16.275a3.982,3.982,0,0,1,.346-5.008c4.356-4.683,16.574-15,41.4-17.6C238.39,257.065,250.8,274.326,250.8,274.326Z" transform="translate(-163.507 -260.015)" fill="url(#b)"/></g><g transform="translate(140.636 213.485)" opacity="0.7"><path d="M257.754,273.175s25.786,8.1,49-17.261c17.785-19.429,16.705-35.146,15.228-41.434a3.984,3.984,0,0,0-3.964-3.08c-6.4.124-22.23,2.351-40.721,19.124C253.163,252.417,257.754,273.175,257.754,273.175Z" transform="translate(-257.405 -211.399)" fill="url(#b)"/></g><g transform="translate(121.159 167.097)" opacity="0.7"><path d="M242.39,222.137s21.345,10.031,44.4-9.17c17.66-14.71,18.572-28.427,18.033-34.037a3.478,3.478,0,0,0-3.065-3.13c-5.544-.643-19.5-.576-37.456,11.754C240.859,203.649,242.39,222.137,242.39,222.137Z" transform="translate(-242.369 -175.589)" fill="url(#b)"/></g><g transform="translate(110.729 125.528)" opacity="0.7"><path d="M234.317,181.106s18.5,10.929,41.047-4.5c17.278-11.823,19.283-24.183,19.275-29.317a3.166,3.166,0,0,0-2.51-3.1c-4.973-1.06-17.631-2.2-34.975,7.443C234.516,164.21,234.317,181.106,234.317,181.106Z" transform="translate(-234.317 -143.499)" fill="url(#b)"/></g><g transform="translate(105.945 82.873)" opacity="0.7"><path d="M230.629,145.182s16.2,8.176,34.343-6.093c13.9-10.932,14.9-21.462,14.605-25.788a2.674,2.674,0,0,0-2.289-2.473c-4.25-.615-14.985-.865-29.063,8.23C229.851,130.929,230.629,145.182,230.629,145.182Z" transform="translate(-230.624 -110.57)" fill="url(#b)"/></g><g transform="translate(100 36.869)" opacity="0.7"><path d="M226.262,116.434s17.3,5.479,32.926-11.509c11.973-13.016,11.274-23.569,10.292-27.794a2.677,2.677,0,0,0-2.656-2.075c-4.294.074-14.929,1.543-27.371,12.775C223.214,102.49,226.262,116.434,226.262,116.434Z" transform="translate(-226.035 -75.056)" fill="url(#b)"/></g><g transform="translate(5.376 216.201)" opacity="0.7"><path d="M232.149,227.564s-10.822,21.94-41.934,21.277c-23.835-.508-33.447-11.041-36.638-15.94a3.605,3.605,0,0,1,.462-4.52c4.079-4.108,15.438-13.079,37.978-14.693C221.435,211.58,232.149,227.564,232.149,227.564Z" transform="translate(-152.987 -213.496)" fill="url(#b)"/></g><g transform="translate(0 158.888)" opacity="0.7"><path d="M216.211,186.333s-11.945,17.164-38.157,12.638c-20.082-3.468-26.863-13.6-28.937-18.144a3.082,3.082,0,0,1,.968-3.76c3.972-2.952,14.717-9.087,33.973-7.579C209.191,171.457,216.211,186.333,216.211,186.333Z" transform="translate(-148.837 -169.252)" fill="url(#b)"/></g><g transform="translate(4.101 107.408)" opacity="0.7"><path d="M209.847,149.972s-12.64,13.4-34.888,6.046c-17.045-5.635-21.634-15.341-22.849-19.572a2.715,2.715,0,0,1,1.332-3.152c3.845-2.054,14-6,30.585-2.181C205.667,136.1,209.847,149.972,209.847,149.972Z" transform="translate(-152.003 -129.51)" fill="url(#b)"/></g><g transform="translate(13.455 52.535)" opacity="0.7"><path d="M206.76,118.52s-15.083,8.314-32.785-4.593c-13.563-9.89-14.873-19.843-14.744-23.957a2.54,2.54,0,0,1,2.086-2.425c4.01-.729,14.183-1.338,27.851,6.8C207.007,104.974,206.76,118.52,206.76,118.52Z" transform="translate(-159.224 -87.15)" fill="url(#b)"/></g><g transform="translate(79.831)" opacity="0.7"><path d="M217.149,93.029s-10.787-10.1-4.956-27.962c4.466-13.687,12.236-17.4,15.627-18.385a2.177,2.177,0,0,1,2.531,1.058c1.659,3.077,4.856,11.213,1.843,24.521C228.264,89.634,217.149,93.029,217.149,93.029Z" transform="translate(-210.464 -46.594)" fill="url(#b)"/></g><path d="M186.582,341.814a.468.468,0,0,1,.469-.473,358.223,358.223,0,0,0,82.357-10.294c-1.832-4.074-3.741-8.469-5.688-13.168-2.924-6.933-5.843-14.544-8.827-22.629q-1.076-3.047-2.18-6.176-.552-1.562-1.11-3.145-.525-1.593-1.058-3.2-1.063-3.222-2.15-6.511c-.418-1.356-.843-2.735-1.266-4.106-5.126,1.145-34.314,7.214-76.137,7.086a.471.471,0,1,1,0-.942c41.53.127,70.562-5.869,75.857-7.047-.172-.56-.342-1.109-.516-1.67-1.424-4.479-2.663-9.1-3.986-13.748-.683-2.32-1.237-4.691-1.858-7.056-.6-2.371-1.231-4.745-1.81-7.144-1.552-6.669-3.052-13.43-4.377-20.248-5.536.006-40.439-.148-73.57-4.753a.471.471,0,0,1,.128-.933c32.706,4.545,67.157,4.746,73.252,4.744-.516-2.694-1.009-5.4-1.456-8.108-2.13-12.353-3.7-24.8-4.679-36.988-5.723-.439-34.466-3-62.446-11.863a.471.471,0,1,1,.284-.9c27.686,8.768,56.118,11.346,62.1,11.811-.54-6.977-.891-13.868-1.026-20.6q-.132-6.016-.041-11.844c-6.239-4-39.063-24.968-54.809-33.3a.471.471,0,0,1,.44-.832c15.4,8.149,47.079,28.343,54.384,33.023a319.942,319.942,0,0,1,2.925-38.246q.373-2.792.732-5.464c.242-1.78.617-3.5.906-5.184.615-3.365,1.2-6.558,1.747-9.559.693-2.97,1.341-5.75,1.94-8.32.626-2.564,1.108-4.941,1.707-7.047,2.441-8.408,3.836-13.213,3.836-13.213l.31.1s-1.328,4.816-3.649,13.244c-.57,2.109-1.019,4.491-1.608,7.056q-.845,3.859-1.821,8.327c-.506,3-1.044,6.192-1.613,9.557-.266,1.684-.614,3.4-.832,5.179s-.433,3.6-.655,5.456a316.887,316.887,0,0,0-2.352,34.045c5.636-4.707,34.343-28.752,50.128-43.411a.471.471,0,0,1,.641.69c-16.515,15.337-47.144,40.924-50.784,43.959q-.023,1.9-.025,3.819a.471.471,0,0,1,.136.646.479.479,0,0,1-.137.118q.01,5.495.2,11.157c.184,5.441.521,10.99.974,16.6,5.2-1.632,31.886-10.682,58.622-32.156a.464.464,0,0,1,.662.071.471.471,0,0,1-.071.662,198.516,198.516,0,0,1-42.811,26.069,152.462,152.462,0,0,1-16.32,6.315,407.107,407.107,0,0,0,5.481,40.584c.258,1.439.548,2.872.826,4.307,7.375-3.143,37.2-16.195,64.841-33.226a.472.472,0,0,1,.495.8c-22.108,13.62-45.6,24.7-57.947,30.22-3.257,1.456-5.732,2.522-7.206,3.149,1.583,8.022,3.444,15.969,5.376,23.784.609,2.376,1.269,4.727,1.9,7.074.649,2.342,1.231,4.689,1.942,6.986,1.3,4.347,2.532,8.658,3.908,12.857,8.581-4.781,37.8-21.582,64.581-42.968a.471.471,0,1,1,.587.737c-27,21.563-56.481,38.474-64.874,43.145q1.049,3.245,2.082,6.437,1.123,3.251,2.225,6.438.55,1.593,1.095,3.167.575,1.564,1.144,3.109,1.139,3.091,2.249,6.1c3.073,7.987,6.074,15.5,9.069,22.341,1.83,4.25,3.627,8.252,5.354,11.981,5.562-3.422,34.036-21.686,64.011-54.485a.471.471,0,1,1,.7.636c-30.189,33.032-58.9,51.386-64.3,54.708,3.69,7.924,7.055,14.585,9.749,19.708,2.023,3.846,3.675,6.83,4.823,8.845s1.768,3.051,1.768,3.051l-4.045,2.411s-.661-1.118-1.791-3.187-2.776-5.122-4.77-9.042c-2.543-5-5.68-11.42-9.114-19.017a358.751,358.751,0,0,1-82.745,10.366A.47.47,0,0,1,186.582,341.814Z" transform="translate(-145.442 -44.475)" opacity="0.7" fill="url(#b)"/></g><g transform="translate(384.024 149.392)"><path d="M409.969,204.938l0-.092c2.021-69.2-18.59-89.838-37.416-73.7-8.337,7.145-11.406,18.611-8.623,29.233a28.892,28.892,0,0,1,.948,11.132,14.009,14.009,0,0,1-6.619,10.578,28.208,28.208,0,0,0-13.055,20.393q-.82,6.875-1.3,14.3c-5.3,82.436-26.522,132.218-32.466,152a6.6,6.6,0,0,0,10.257,7.215c13.892-10.287,50.974-41.448,72.432-94.56a29.149,29.149,0,0,0-.786-23.108,21.428,21.428,0,0,1-1.539-10.947c.9-10.416,6.514-18.682,12.451-26.48A27.745,27.745,0,0,0,409.969,204.938Z" transform="translate(-311.138 -125.952)" opacity="0.7" fill="url(#n)"/><path d="M376.8,211.117l32.783-13.094c0-.189.005-.383.007-.571L376.87,210.52c2.282-19.21,3.77-39.6,4.457-61.065l21.006-5.779c-.066-.168-.133-.329-.2-.494l-20.791,5.72q.352-11.206.409-22.8c-.177.03-.354.069-.531.106-.124,21.959-1.034,42.05-2.542,60.389l-15.025-11.977c-.06.177-.122.352-.188.525l15.158,12.086a574.83,574.83,0,0,1-8.711,63.819l-27.16-25.525q-.027.336-.056.672l27.093,25.462c-6.192,31.092-14.057,54.306-21.409,71.1-.438,1-.877,1.981-1.316,2.947l-15.977-24.282c-.056.238-.111.472-.167.707l15.888,24.143c-14.788,32.383-29.8,45.982-33.932,49.307.135.118.275.232.418.339,3.009-2.438,11.2-9.842,20.876-25.043l14.585.253.145-.154c.095-.1.19-.2.285-.3l.057-.061-14.741-.255a205.444,205.444,0,0,0,14.336-27.321,304.952,304.952,0,0,0,13.639-38.4l31.614-4.468c.074-.188.15-.376.224-.564l-31.676,4.476a436.205,436.205,0,0,0,10.3-46.139Q375.142,224.959,376.8,211.117Z" transform="translate(-310.624 -125.906)" opacity="0.7" fill="url(#n)"/></g><path d="M503.248,294.076c6.666-12.929,8.72-22.545,7.5-29.071-.012-.057-.023-.113-.034-.168h-.005c-1.433-7.24-6.942-10.617-14.64-10.467l.006-.013c-.174,0-.351.012-.527.018l0,0a37.084,37.084,0,0,0-9.945,1.93c-9.757,3.189-15.705,9.037-15.918,14.853a10.385,10.385,0,0,1-3.719,7.685l-.15.126a18.213,18.213,0,0,1-7.262,3.272c-7.965,1.9-14.538,5.472-17.734,9.862q-2.606,3.579-5.04,7.47c-26.976,43.234-60.241,68.064-71.115,78.107-1.522,1.405-1.258,2.8.017,3.766l-.008,0c.1.073.2.141.3.209h.006a9.7,9.7,0,0,0,7.415.569,326.978,326.978,0,0,0,32.579-11.166h.005l.177-.071.35-.14.07-.03h0c18.545-7.492,40.812-18.45,60.249-33.478.258-.2.5-.4.742-.6h.03l.361-.282h-.066c4.017-3.536,5.477-7.609,4.356-11.393-.47-1.583-.114-3.522,1.47-5.9,3.627-5.447,11.118-9.421,18.788-13.126,4.53-2.187,7.935-4.988,9.64-8.036l.027-.049c.685-1.227,1.324-2.421,1.933-3.593.049-.095.1-.19.149-.284Z" transform="translate(88.387 61.368)" fill="#0b0244" opacity="0.05"/><g transform="translate(427.675 132)"><path d="M499.129,218.291l.02-.119c13.987-88.543-9.086-118.437-35.919-100.813-11.884,7.806-17.713,22.025-15.888,36.125a37.422,37.422,0,0,1-.615,14.452,18.136,18.136,0,0,1-10.241,12.5,36.526,36.526,0,0,0-20.125,24.042q-2.184,8.693-4.026,18.146c-20.374,105-55.828,165.44-66.72,189.867A8.55,8.55,0,0,0,357.6,423.441c19.534-10.923,72.288-44.839,108.591-109.518a37.741,37.741,0,0,0,2.794-29.807c-1.2-3.834-1.429-8.537-.175-14.313,2.873-13.23,11.443-22.92,20.352-31.96A35.921,35.921,0,0,0,499.129,218.291Z" transform="translate(-344.836 -112.525)" opacity="0.7" fill="url(#p)"/><path d="M455.671,220.905l44.259-11.42c.034-.242.07-.491.1-.732l-44.17,11.4Q465,183.7,471.639,142.456l27.93-3.963c-.057-.225-.117-.443-.174-.666l-27.643,3.922q2.295-14.33,4.277-29.208c-.232.009-.465.031-.7.049-3.773,28.181-8.25,53.836-13.206,77.14L444.8,171.874c-.106.219-.216.433-.328.644l17.479,18.016a744.218,744.218,0,0,1-21.7,80.528l-30.678-37.254c-.061.286-.122.57-.181.855L440,271.825c-13.072,38.912-26.994,67.429-39.2,87.794-.727,1.214-1.452,2.4-2.175,3.569L382.1,329.372c-.11.3-.22.587-.33.881L398.2,363.876c-24.323,39.154-45.841,54.149-51.7,57.739q.231.26.482.5c4.266-2.635,16-10.8,30.935-28.726l18.69,2.725.211-.174.417-.345.083-.07-18.89-2.754a265.84,265.84,0,0,0,22.909-32.726,394.881,394.881,0,0,0,23.839-47.07l41.335-.532c.127-.229.255-.457.381-.688l-41.417.534a564.464,564.464,0,0,0,20.821-57.56Q451.266,238.409,455.671,220.905Z" transform="translate(-344.344 -112.52)" opacity="0.7" fill="url(#p)"/></g><g transform="translate(153.648 134.137)"><g transform="translate(0 144.989)"><path d="M318.872,452.683a12.585,12.585,0,0,1-6.174-1.42h0L135.886,349.181a4.515,4.515,0,0,1-2.593-3.819c0-1.776,1.3-3.547,3.578-4.86L311.709,239.561c4.172-2.408,10.524-2.663,14.155-.569L502.676,341.076a4.512,4.512,0,0,1,2.593,3.817c0,1.775-1.3,3.547-3.578,4.859L326.856,450.694A16.413,16.413,0,0,1,318.872,452.683Zm-5.737-2.176c3.391,1.956,9.347,1.7,13.283-.569L501.255,349c1.995-1.153,3.14-2.648,3.14-4.1a3.685,3.685,0,0,0-2.156-3.061L325.427,239.749c-3.391-1.957-9.349-1.7-13.281.569L137.309,341.258c-2,1.154-3.141,2.649-3.141,4.1a3.688,3.688,0,0,0,2.156,3.062L313.136,450.506Z" transform="translate(-133.293 -222.715)" fill="#42e8e0"/><path d="M504.731,331.3l-10.665.006-168.521-97.3c-3.517-2.03-9.66-1.776-13.719.569l-167.834,96.9-10.36.005v8.508h.008A4.058,4.058,0,0,0,136,343.441L312.817,445.525c3.516,2.03,9.658,1.776,13.718-.569L501.372,344.014c2.277-1.315,3.415-3.008,3.356-4.6h0Z" transform="translate(-133.193 -224.173)" fill="url(#r)"/><path d="M312.818,438.989,136,336.905c-3.516-2.03-3.075-5.577.986-7.921L311.827,228.042c4.06-2.343,10.2-2.6,13.719-.569L502.358,329.557c3.516,2.03,3.075,5.577-.986,7.921L326.536,438.42C322.476,440.763,316.333,441.019,312.818,438.989Z" transform="translate(-133.193 -226.103)" fill="url(#s)"/><path d="M310.334,430l-164.6-95.031c-3.273-1.89-2.863-5.192.917-7.373l162.76-93.97c3.78-2.181,9.5-2.418,12.771-.529l164.6,95.031c3.273,1.89,2.863,5.191-.917,7.373l-162.76,93.97C319.326,431.648,313.608,431.885,310.334,430Z" transform="translate(-130.271 -224.416)" fill="#180d5b" opacity="0.1"/><path d="M501.371,312.233,326.534,413.175c-4.06,2.345-10.2,2.6-13.718.569L136,311.662a4.284,4.284,0,0,1-2.328-2.966c-.228,1.469.529,2.906,2.328,3.944L312.816,414.723c3.516,2.03,9.658,1.775,13.718-.57L501.371,313.212c2.448-1.415,3.571-3.264,3.314-4.956C504.467,309.658,503.354,311.089,501.371,312.233Z" transform="translate(-133.192 -201.837)" fill="#fff"/></g><path d="M302.167,338.041H470.213l3.479-14.171-166.962-96.4c-3.517-2.03-9.66-1.775-13.719.569l-95.68,55.241,83.841,49.066A41.574,41.574,0,0,0,302.167,338.041Z" transform="translate(-114.378 -81.114)" fill="#180d5b" opacity="0.1"/><g transform="translate(178.754 0)"><path d="M272.253,116.645l4.014-2.31v.023a2,2,0,0,1,1.973.179l172.3,99.643a7.473,7.473,0,0,1,3.115,5.964l-.189,146.029a2.719,2.719,0,0,1-1.105,2.513l.019.01L448.377,371l-.284-14.5-160.75-92.964a7.471,7.471,0,0,1-3.115-5.964L284.41,123.5c-.269.846-.473,1.461-.5,1.482C283.809,125.042,272.253,116.645,272.253,116.645Z" transform="translate(-271.002 -114.175)" fill="url(#t)"/><path d="M419.2,196.291l-25.344,9.863-5.228-3.023,28.093-11.447A7.759,7.759,0,0,1,419.2,196.291Z" transform="translate(-236.627 -91.281)" fill="url(#u)"/><path d="M274.4,270.637,446.7,370.28c1.723,1,3.121-.06,3.122-2.358l.189-146.028a7.475,7.475,0,0,0-3.117-5.965L274.6,116.287c-1.723-1-3.121.06-3.122,2.358l-.189,146.028A7.475,7.475,0,0,0,274.4,270.637Z" transform="translate(-271.287 -113.662)" fill="url(#v)"/><path d="M446.712,215.928l-172.3-99.643a1.824,1.824,0,0,0-2.495.244,2.18,2.18,0,0,1,1.665.31l172.3,99.643A7.472,7.472,0,0,1,449,222.445l-.189,146.029a3.279,3.279,0,0,1-.627,2.114c.873-.234,1.456-1.188,1.457-2.667l.189-146.028A7.475,7.475,0,0,0,446.712,215.928Z" transform="translate(-271.101 -113.661)" fill="#fff"/><path d="M273.3,266.293l173.259,100.2.218-146.374-173.259-100.2Z" transform="translate(-270.693 -112.478)" fill="#24126a"/></g></g></g><g transform="translate(-583.886 1110.733)"><g transform="translate(1052.569 464.767)"><g transform="translate(182.863)"><path d="M1189.107,471.4l11.4-6.568v.009a.523.523,0,0,1,.569.024l142.89,82.5a2.022,2.022,0,0,1,.845,1.614V575.95a.8.8,0,0,1-.233.633l0,0-.008.005c-.012.009-.024.012-.036.02l-11.519,6.635-.09-13.032-131.852-76.123a2.027,2.027,0,0,1-.844-1.614V483.22Z" transform="translate(-1188.773 -464.767)" fill="url(#w)"/><path d="M1189.7,499.008l142.89,82.5c.467.27.844-.016.844-.639V553.893a2.018,2.018,0,0,0-.844-1.613l-142.89-82.5c-.466-.27-.844.016-.844.639v26.973A2.025,2.025,0,0,0,1189.7,499.008Z" transform="translate(-1188.858 -463.087)" fill="url(#x)"/><path d="M1206.852,487.467l111.26,65.42a76.548,76.548,0,0,0-9.683,10.068l-112.081-64.71A76.022,76.022,0,0,1,1206.852,487.467Z" transform="translate(-1186.299 -457.01)" fill="#242993" opacity="0.6"/><path d="M1192.672,487.637l134.738,77.791c.319.184.577-.012.577-.436v-6.777a1.38,1.38,0,0,0-.577-1.1l-134.738-77.791c-.318-.184-.577.011-.577.436v6.777A1.384,1.384,0,0,0,1192.672,487.637Z" transform="translate(-1187.752 -459.817)" fill="#242993"/><path d="M1192.672,479.321l2.74,1.582v3.658a1.381,1.381,0,0,0,.578,1.1l132,76.209v3.12c0,.424-.259.62-.577.436l-134.738-77.791a1.384,1.384,0,0,1-.577-1.1v-6.777C1192.095,479.331,1192.354,479.137,1192.672,479.321Z" transform="translate(-1187.752 -459.817)" fill="#4553c7"/></g><path d="M1164.661,777.714,1052.569,713h0c14.461-8.348,26.648-26.621,30.371-44.093a25.5,25.5,0,0,1,12.115-16.854l84.7-48.9a81.056,81.056,0,0,0,40.488-65.336c1.354-22.961,18.713-45.541,32.187-53.319h0l112.091,64.716h0c-13.274,7.663-27.885,29.079-29.549,51.651-2,27.191-16.794,51.8-40.407,65.435l-87.421,50.465a25.5,25.5,0,0,0-12.113,16.853c-3.723,17.473-15.911,35.745-30.371,44.095Z" transform="translate(-1052.569 -458.024)" opacity="0.96" fill="url(#y)"/><path d="M1202.206,484.5,1314.3,549.215c-.9.518-1.787,1.081-2.67,1.664l-.007-.007-112.077-64.713C1200.423,485.578,1201.309,485.016,1202.206,484.5Z" transform="translate(-1002.344 -458.024)" fill="#4553c7" opacity="0.8"/></g><g transform="translate(1237.993 535.936)" opacity="0.32"><path d="M1232.943,542.115l19.657,11.393.159-2.267-19.623-11.347Z" transform="translate(-1176.354 -510.263)" fill="#4553c7"/><path d="M1225.557,537.828l6.946,4.026.2-2.214-6.934-4.009Z" transform="translate(-1178.878 -511.72)" fill="#4553c7"/><path d="M1219.89,534.54l4.672,2.708.215-2.191-4.664-2.7Z" transform="translate(-1180.814 -512.837)" fill="#4553c7"/><path d="M1239.265,549.8l10.809,6.3.161-2.286-10.79-6.272Z" transform="translate(-1174.193 -507.648)" fill="#4553c7"/><path d="M1227.32,542.835l13.02,7.586.185-2.253-13-7.556Z" transform="translate(-1178.275 -510.017)" fill="#4553c7"/><path d="M1221.613,539.506l4.706,2.742.212-2.216-4.7-2.731Z" transform="translate(-1180.225 -511.149)" fill="#4553c7"/><path d="M1216.229,536.364l4.666,2.719.224-2.2-4.658-2.708Z" transform="translate(-1182.065 -512.217)" fill="#4553c7"/><path d="M1241.184,554.987l7.865,4.607.162-2.305-7.851-4.589Z" transform="translate(-1173.538 -505.886)" fill="#4553c7"/><path d="M1236.942,552.5l2.663,1.56.181-2.279-2.658-1.554Z" transform="translate(-1174.987 -506.732)" fill="#4553c7"/><path d="M1231.123,549.086l4.8,2.81.191-2.266-4.789-2.8Z" transform="translate(-1176.976 -507.892)" fill="#4553c7"/><path d="M1225.305,549.722l28.8,16.961.163-2.325-28.748-16.891Z" transform="translate(-1178.964 -507.675)" fill="#4553c7"/><path d="M1217.909,545.359l6.955,4.1.219-2.249-6.944-4.08Z" transform="translate(-1181.491 -509.158)" fill="#4553c7"/><path d="M1240.579,562.864l7.929,4.7.165-2.345-7.915-4.676Z" transform="translate(-1173.744 -503.208)" fill="#4553c7"/><path d="M1226.919,554.764l15.275,9.045.184-2.318-15.249-9.008Z" transform="translate(-1178.412 -505.961)" fill="#4553c7"/><path d="M1221.139,551.337l4.766,2.822.216-2.274-4.758-2.81Z" transform="translate(-1180.387 -507.126)" fill="#4553c7"/><path d="M1234.124,563.187l16.212,9.652.166-2.365-16.183-9.612Z" transform="translate(-1175.95 -503.097)" fill="#4553c7"/><path d="M1223.292,556.729l11.5,6.845.2-2.318-11.478-6.817Z" transform="translate(-1179.652 -505.292)" fill="#4553c7"/><path d="M1215.359,552l7.657,4.559.225-2.283-7.645-4.54Z" transform="translate(-1182.363 -506.9)" fill="#4553c7"/><path d="M1241.8,571.976l5.532,3.311.168-2.386-5.522-3.3Z" transform="translate(-1173.327 -500.11)" fill="#4553c7"/><path d="M1234.109,567.367l7.232,4.329.183-2.364-7.219-4.311Z" transform="translate(-1175.955 -501.676)" fill="#4553c7"/><path d="M1223.275,560.872l11.486,6.875.2-2.339-11.466-6.847Z" transform="translate(-1179.657 -503.883)" fill="#4553c7"/><path d="M1233.037,570.947l16.9,10.174.169-2.406-16.873-10.131Z" transform="translate(-1176.322 -500.459)" fill="#4553c7"/><path d="M1219.213,562.615l15.489,9.323.2-2.357-15.462-9.284Z" transform="translate(-1181.046 -503.291)" fill="#4553c7"/><path d="M1213.424,559.126,1218.2,562l.236-2.311-4.765-2.861Z" transform="translate(-1183.024 -504.476)" fill="#4553c7"/><path d="M1207.918,555.807l4.731,2.848.249-2.292-4.724-2.836Z" transform="translate(-1184.906 -505.604)" fill="#4553c7"/><path d="M1237.738,578.057l10.209,6.178.171-2.427-10.191-6.152Z" transform="translate(-1174.715 -498.042)" fill="#4553c7"/><path d="M1207.471,527.322l-12.785-7.41.278-2.1,12.765,7.381Z" transform="translate(-1189.427 -517.81)" fill="#4553c7"/><path d="M1204.278,529.383l-10.068-5.866.28-2.119,10.051,5.843Z" transform="translate(-1189.59 -516.584)" fill="#4553c7"/><path d="M1201.029,531.427l-7.3-4.276.282-2.137,7.287,4.259Z" transform="translate(-1189.754 -515.348)" fill="#4553c7"/><path d="M1203.924,537.1l-10.678-6.289.285-2.154,10.66,6.264Z" transform="translate(-1189.919 -514.102)" fill="#4553c7"/><path d="M1200.112,538.863l-7.354-4.354.287-2.172,7.342,4.337Z" transform="translate(-1190.086 -512.845)" fill="#4553c7"/><path d="M1201.639,543.813l-9.372-5.58.29-2.19,9.357,5.558Z" transform="translate(-1190.254 -511.579)" fill="#4553c7"/><path d="M1196.884,545.048l-5.113-3.06.292-2.208,5.1,3.048Z" transform="translate(-1190.423 -510.302)" fill="#4553c7"/><path d="M1201.244,551.777l-9.973-6,.294-2.226,9.957,5.979Z" transform="translate(-1190.594 -509.014)" fill="#4553c7"/><path d="M1200.246,555.329l-9.479-5.736.3-2.245,9.463,5.713Z" transform="translate(-1190.767 -507.716)" fill="#4553c7"/><path d="M1232.233,574.721l4.29,2.6.194-2.394-4.282-2.585Z" transform="translate(-1176.596 -499.176)" fill="#4553c7"/><path d="M1222.831,569.024l9.546,5.777.207-2.375-9.529-5.753Z" transform="translate(-1179.809 -501.112)" fill="#4553c7"/></g><g transform="translate(1144.82 623.928)" opacity="0.32"><g transform="translate(35.198)"><g transform="translate(12.956)"><path d="M1186.441,601.47,1157.214,584.6l2.087-1.2,29.227,16.874Z" transform="translate(-1157.214 -583.391)" fill="#4553c7"/><path d="M1194.349,606.035l-10.547-6.089,2.087-1.205,10.547,6.089Z" transform="translate(-1148.128 -578.145)" fill="#4553c7"/><path d="M1198.757,608.58l-3.091-1.785,2.087-1.205,3.091,1.785Z" transform="translate(-1144.074 -575.804)" fill="#4553c7"/><path d="M1212.52,616.526l-10.547-6.089,2.087-1.205,10.547,6.089Z" transform="translate(-1141.919 -574.56)" fill="#4553c7"/></g><g transform="translate(0 2.493)"><path d="M1162.535,591.384l-8.54-4.93,2.087-1.205,8.54,4.93Z" transform="translate(-1145.358 -585.249)" fill="#4553c7"/><path d="M1196.4,610.935,1165.164,592.9l2.087-1.2,31.234,18.033Z" transform="translate(-1141.541 -583.045)" fill="#4553c7"/><path d="M1195.538,610.439l-3.091-1.785,2.087-1.205,3.091,1.785Z" transform="translate(-1132.218 -577.662)" fill="#4553c7"/><path d="M1209.3,618.385l-10.547-6.089,2.087-1.205,10.547,6.089Z" transform="translate(-1130.063 -576.418)" fill="#4553c7"/><path d="M1155.046,590.777l-4.27-2.465,2.087-1.205,4.27,2.465Z" transform="translate(-1146.458 -584.614)" fill="#4553c7"/><path d="M1163.827,595.846l-5.063-2.923,2.087-1.205,5.063,2.923Z" transform="translate(-1143.729 -583.038)" fill="#4553c7"/><path d="M1169.632,599.2l-3.091-1.785,2.087-1.205,3.092,1.785Z" transform="translate(-1141.071 -581.503)" fill="#4553c7"/><path d="M1183.395,607.144l-10.547-6.089,2.087-1.205,10.547,6.089Z" transform="translate(-1138.916 -580.259)" fill="#4553c7"/><path d="M1156.1,595.1l-8.54-4.931,2.087-1.2,8.54,4.93Z" transform="translate(-1147.558 -583.979)" fill="#4553c7"/><path d="M1169.274,602.708l-10.547-6.089,2.087-1.205,10.547,6.089Z" transform="translate(-1143.741 -581.775)" fill="#4553c7"/><path d="M1173.682,605.253l-3.091-1.785,2.087-1.2,3.091,1.785Z" transform="translate(-1139.687 -579.434)" fill="#4553c7"/><path d="M1187.445,613.2,1176.9,607.11l2.087-1.2,10.547,6.089Z" transform="translate(-1137.531 -578.19)" fill="#4553c7"/></g></g><g transform="translate(17.599 10.161)"><g transform="translate(12.956)"><path d="M1173.324,609.042,1144.1,592.168l2.087-1.205,29.227,16.874Z" transform="translate(-1144.097 -590.963)" fill="#4553c7"/><path d="M1181.232,613.608l-10.547-6.089,2.087-1.2,10.547,6.089Z" transform="translate(-1135.012 -585.718)" fill="#4553c7"/><path d="M1185.64,616.153l-3.091-1.785,2.087-1.205,3.092,1.785Z" transform="translate(-1130.958 -583.377)" fill="#4553c7"/><path d="M1199.4,624.1l-10.547-6.089,2.087-1.205,10.547,6.089Z" transform="translate(-1128.802 -582.133)" fill="#4553c7"/></g><g transform="translate(0 2.493)"><path d="M1149.419,598.957l-8.54-4.93,2.087-1.2,8.54,4.93Z" transform="translate(-1132.241 -592.822)" fill="#4553c7"/><path d="M1183.282,618.508l-31.234-18.033,2.087-1.205,31.234,18.033Z" transform="translate(-1128.424 -590.618)" fill="#4553c7"/><path d="M1182.422,618.012l-3.091-1.785,2.087-1.205,3.092,1.785Z" transform="translate(-1119.101 -585.235)" fill="#4553c7"/><path d="M1196.185,625.958l-10.547-6.089,2.087-1.205,10.547,6.089Z" transform="translate(-1116.946 -583.991)" fill="#4553c7"/><path d="M1141.93,598.35l-4.27-2.465,2.087-1.205,4.27,2.465Z" transform="translate(-1133.341 -592.187)" fill="#4553c7"/><path d="M1150.71,603.419l-5.063-2.923,2.087-1.2,5.063,2.923Z" transform="translate(-1130.612 -590.611)" fill="#4553c7"/><path d="M1156.515,606.771l-3.091-1.785,2.087-1.2,3.091,1.785Z" transform="translate(-1127.954 -589.076)" fill="#4553c7"/><path d="M1170.278,614.717l-10.547-6.089,2.087-1.205,10.547,6.089Z" transform="translate(-1125.799 -587.832)" fill="#4553c7"/><path d="M1142.981,602.674l-8.54-4.93,2.087-1.205,8.539,4.931Z" transform="translate(-1134.441 -591.552)" fill="#4553c7"/><path d="M1156.157,610.281l-10.547-6.089,2.087-1.205,10.547,6.089Z" transform="translate(-1130.624 -589.348)" fill="#4553c7"/><path d="M1160.566,612.826l-3.091-1.785,2.087-1.2,3.091,1.785Z" transform="translate(-1126.57 -587.007)" fill="#4553c7"/><path d="M1174.329,620.772l-10.547-6.089,2.087-1.205,10.547,6.089Z" transform="translate(-1124.414 -585.763)" fill="#4553c7"/></g></g><g transform="translate(0 20.321)"><g transform="translate(12.956)"><path d="M1160.208,616.616l-29.227-16.874,2.087-1.205L1162.3,615.41Z" transform="translate(-1130.981 -598.536)" fill="#4553c7"/><path d="M1168.115,621.181l-10.547-6.089,2.087-1.205,10.547,6.089Z" transform="translate(-1121.895 -593.291)" fill="#4553c7"/><path d="M1172.524,623.726l-3.092-1.785,2.087-1.205,3.091,1.785Z" transform="translate(-1117.841 -590.95)" fill="#4553c7"/><path d="M1186.287,631.672l-10.547-6.089,2.087-1.205,10.547,6.089Z" transform="translate(-1115.685 -589.705)" fill="#4553c7"/></g><g transform="translate(0 2.493)"><path d="M1136.3,606.53l-8.54-4.93,2.087-1.205,8.54,4.93Z" transform="translate(-1119.125 -600.395)" fill="#4553c7"/><path d="M1170.165,626.081l-31.234-18.033,2.087-1.205,31.234,18.033Z" transform="translate(-1115.308 -598.191)" fill="#4553c7"/><path d="M1169.305,625.584l-3.091-1.785,2.087-1.205,3.091,1.785Z" transform="translate(-1105.985 -592.808)" fill="#4553c7"/><path d="M1183.068,633.53l-10.547-6.089,2.087-1.205,10.547,6.089Z" transform="translate(-1103.829 -591.564)" fill="#4553c7"/><path d="M1128.813,605.923l-4.27-2.465,2.087-1.205,4.27,2.465Z" transform="translate(-1120.225 -599.759)" fill="#4553c7"/><path d="M1137.593,610.992l-5.063-2.923,2.087-1.205,5.063,2.923Z" transform="translate(-1117.495 -598.184)" fill="#4553c7"/><path d="M1143.4,614.344l-3.091-1.785,2.087-1.2,3.091,1.785Z" transform="translate(-1114.838 -596.649)" fill="#4553c7"/><path d="M1157.161,622.29l-10.547-6.089L1148.7,615l10.547,6.089Z" transform="translate(-1112.682 -595.405)" fill="#4553c7"/><path d="M1129.864,610.247l-8.54-4.93,2.087-1.205,8.54,4.93Z" transform="translate(-1121.325 -599.125)" fill="#4553c7"/><path d="M1143.041,617.854l-10.547-6.089,2.087-1.2,10.547,6.089Z" transform="translate(-1117.508 -596.921)" fill="#4553c7"/><path d="M1147.449,620.4l-3.091-1.785,2.087-1.205,3.091,1.785Z" transform="translate(-1113.454 -594.58)" fill="#4553c7"/><path d="M1161.212,628.345l-10.547-6.089,2.087-1.205,10.547,6.089Z" transform="translate(-1111.298 -593.336)" fill="#4553c7"/></g></g></g></g></g></svg>