<svg xmlns="http://www.w3.org/2000/svg" width="190.384" height="128.426" viewBox="0 0 190.384 128.426"><path d="M770.08,181.609a3,3,0,0,1-2.6-1.485,58.452,58.452,0,0,0-50.224-28.785,3.009,3.009,0,0,1,0-6.017,64.492,64.492,0,0,1,55.415,31.758,3.008,3.008,0,0,1-2.6,4.532Z" transform="translate(-621.911 -145.313)" fill="#333"/><path d="M735.325,171.951a3.015,3.015,0,0,1-2.991-2.686,58.21,58.21,0,0,0-1.187-6.935,3.008,3.008,0,1,1,5.857-1.375h0a64.3,64.3,0,0,1,1.311,7.654,3.011,3.011,0,0,1-2.661,3.32A2.6,2.6,0,0,1,735.325,171.951Z" transform="translate(-579.145 -111.457)" fill="#333"/><path d="M753.085,187.409c-19.391,0-38.083-3.859-51.276-10.588a3.015,3.015,0,0,1-1.311-4.05,3.421,3.421,0,0,1,.227-.376,64.178,64.178,0,0,1,104.721,0,3.007,3.007,0,0,1-.709,4.2,2.863,2.863,0,0,1-.375.23C791.169,183.55,772.476,187.409,753.085,187.409Zm-45.277-14.4c12.119,5.351,28.37,8.381,45.277,8.381s33.158-3.03,45.28-8.381a58.143,58.143,0,0,0-90.557,0Z" transform="translate(-657.737 -145.319)" fill="#333"/><path d="M717.262,212.54a3.009,3.009,0,0,1-3.008-3v-61.2a3.009,3.009,0,1,1,6.017-.007v61.212A3.007,3.007,0,0,1,717.262,212.54Z" transform="translate(-621.914 -145.316)" fill="#333"/><path d="M766.159,168.609H730.092a3.009,3.009,0,0,1-.007-6.017h36.074a3.009,3.009,0,1,1,.007,6.017Z" transform="translate(-589.287 -101.385)" fill="#333"/><path d="M728.3,174.259a3.01,3.01,0,0,1-1.279-5.734l28.781-13.512a3.009,3.009,0,1,1,2.558,5.446l-28.781,13.512A3.011,3.011,0,0,1,728.3,174.259Z" transform="translate(-593.827 -121.387)" fill="#333"/><path d="M745.519,177.627a8.258,8.258,0,1,1,8.26-8.257h0A8.268,8.268,0,0,1,745.519,177.627Zm0-10.5a2.241,2.241,0,1,0,2.243,2.243A2.244,2.244,0,0,0,745.519,167.127Z" transform="translate(-563.395 -105.154)" fill="#333"/><path d="M741.613,169.053a8.258,8.258,0,1,1,8.264-8.257h0A8.269,8.269,0,0,1,741.613,169.053Zm0-10.5a2.241,2.241,0,1,0,2.243,2.243A2.243,2.243,0,0,0,741.613,158.553Z" transform="translate(-573.323 -126.963)" fill="#333"/><path d="M717.259,208.458a3.009,3.009,0,0,1,0-6.017,58.287,58.287,0,0,0,50.89-29.951,3.009,3.009,0,0,1,5.259,2.923A64.3,64.3,0,0,1,717.259,208.458Z" transform="translate(-621.911 -80.035)" fill="#333"/><path d="M734.08,177.824a3.013,3.013,0,0,1-3.012-3.019,3.1,3.1,0,0,1,.078-.677,58.144,58.144,0,0,0,1.187-6.938,3.01,3.01,0,1,1,5.989.613l-.007.046A64.3,64.3,0,0,1,737,175.5,3,3,0,0,1,734.08,177.824Z" transform="translate(-579.143 -96.571)" fill="#333"/><path d="M739.755,273.73a64.525,64.525,0,0,1-15.67-1.935,3,3,0,0,1-1.552-.964c-10.563-12.357-17.123-35.851-17.123-61.308s6.559-48.951,17.123-61.308a3,3,0,0,1,1.552-.964,64.682,64.682,0,0,1,31.34,0,2.993,2.993,0,0,1,1.559.964c10.56,12.357,17.119,35.847,17.119,61.308s-6.559,48.948-17.119,61.308a2.979,2.979,0,0,1-1.559.964A64.525,64.525,0,0,1,739.755,273.73Zm-13.26-7.541a58.706,58.706,0,0,0,26.524,0c9.313-11.517,15.064-33.09,15.064-56.666s-5.751-45.146-15.064-56.662a58.708,58.708,0,0,0-26.524,0c-9.316,11.513-15.068,33.087-15.068,56.662S717.179,254.672,726.495,266.189Z" transform="translate(-644.407 -145.307)" fill="#333"/><path d="M753.086,211.768a64.37,64.37,0,0,1-52.36-27.07,3.008,3.008,0,0,1,.709-4.2,2.694,2.694,0,0,1,.376-.227c13.2-6.733,31.885-10.592,51.276-10.592s38.083,3.859,51.276,10.592a3.009,3.009,0,0,1,1.311,4.047,3.157,3.157,0,0,1-.227.376A64.369,64.369,0,0,1,753.086,211.768Zm-45.273-27.683a58.137,58.137,0,0,0,90.554,0c-12.123-5.351-28.374-8.384-45.28-8.384s-33.157,3.033-45.277,8.384Z" transform="translate(-657.739 -83.345)" fill="#333"/><path d="M717.262,229.81a3.008,3.008,0,0,1-3.008-3.009V165.6a3.009,3.009,0,0,1,6.017-.007V226.8A3.007,3.007,0,0,1,717.262,229.81Z" transform="translate(-621.914 -101.387)" fill="#333"/><path d="M754.966,168.609H717.259a3.009,3.009,0,0,1,0-6.017h37.708a3.009,3.009,0,1,1,.007,6.017Z" transform="translate(-621.911 -101.385)" fill="#333"/><path d="M766.159,168.609H730.092a3.009,3.009,0,0,1-.007-6.017h36.074a3.009,3.009,0,1,1,.007,6.017Z" transform="translate(-589.287 -101.385)" fill="#333"/><path d="M757.085,186.175a3.01,3.01,0,0,1-1.279-.287l-28.781-13.512a3.009,3.009,0,0,1,2.558-5.447l28.781,13.512a3.009,3.009,0,0,1-1.279,5.734Z" transform="translate(-593.827 -91.083)" fill="#333"/><path d="M745.519,177.627a8.258,8.258,0,1,1,8.26-8.257h0A8.268,8.268,0,0,1,745.519,177.627Zm0-10.5a2.241,2.241,0,1,0,2.243,2.243A2.244,2.244,0,0,0,745.519,167.127Z" transform="translate(-563.395 -105.154)" fill="#333"/><path d="M741.613,186.2a8.258,8.258,0,1,1,8.264-8.26A8.259,8.259,0,0,1,741.613,186.2Zm0-10.5a2.243,2.243,0,1,0,2.243,2.243h0A2.241,2.241,0,0,0,741.613,175.7Z" transform="translate(-573.323 -83.343)" fill="#333"/><path d="M702.264,181.611a3.011,3.011,0,0,1-2.59-4.536,64.51,64.51,0,0,1,55.412-31.754,3.009,3.009,0,0,1,.007,6.017h-.007a58.466,58.466,0,0,0-50.22,28.785A3,3,0,0,1,702.264,181.611Z" transform="translate(-660.053 -145.316)" fill="#333"/><path d="M700.01,171.945c-.106,0-.22-.007-.329-.018a3.008,3.008,0,0,1-2.665-3.32,64.3,64.3,0,0,1,1.311-7.654,3.008,3.008,0,0,1,5.858,1.375h0A58.947,58.947,0,0,0,703,169.263,3.008,3.008,0,0,1,700.01,171.945Z" transform="translate(-665.807 -111.454)" fill="#333"/><path d="M730.231,168.609H694.164a3.009,3.009,0,0,1,0-6.017h36.067a3.009,3.009,0,0,1,0,6.017Z" transform="translate(-680.656 -101.385)" fill="#333"/><path d="M726.788,174.259a3.008,3.008,0,0,1-1.276-.287l-28.781-13.512a3.008,3.008,0,1,1,2.555-5.446l28.785,13.512a3.009,3.009,0,0,1-1.283,5.734Z" transform="translate(-670.887 -121.387)" fill="#333"/><path d="M696.455,177.627a8.258,8.258,0,1,1,8.257-8.26v0A8.265,8.265,0,0,1,696.455,177.627Zm0-10.5a2.241,2.241,0,1,0,2.24,2.243h0A2.245,2.245,0,0,0,696.455,167.127Z" transform="translate(-688.195 -105.154)" fill="#333"/><path d="M700.354,169.053a8.258,8.258,0,1,1,8.26-8.257h0A8.263,8.263,0,0,1,700.354,169.053Zm0-10.5A2.241,2.241,0,1,0,702.6,160.8,2.243,2.243,0,0,0,700.354,158.553Z" transform="translate(-678.267 -126.963)" fill="#333"/><path d="M755.595,208.5a64.292,64.292,0,0,1-56.148-33.041,3.008,3.008,0,1,1,5.241-2.955l.018.032a58.277,58.277,0,0,0,50.89,29.947,3.01,3.01,0,0,1,0,6.021h0Z" transform="translate(-660.562 -80.075)" fill="#333"/><path d="M701.259,177.852a3.009,3.009,0,0,1-2.927-2.321,64.3,64.3,0,0,1-1.311-7.654,3.009,3.009,0,1,1,5.967-.787l.014.128a58.918,58.918,0,0,0,1.183,6.938,3.01,3.01,0,0,1-2.25,3.618,2.918,2.918,0,0,1-.677.078Z" transform="translate(-665.812 -96.599)" fill="#333"/><path d="M744.239,168.609H706.528a3.009,3.009,0,0,1,0-6.017h37.708a3.009,3.009,0,0,1,.007,6.017h0Z" transform="translate(-649.207 -101.385)" fill="#333"/><path d="M730.231,168.609H694.164a3.009,3.009,0,0,1,0-6.017h36.067a3.009,3.009,0,0,1,0,6.017Z" transform="translate(-680.656 -101.385)" fill="#333"/><path d="M698.013,186.175a3.011,3.011,0,0,1-1.286-5.734l28.785-13.512a3.008,3.008,0,1,1,2.555,5.447l-28.781,13.512A2.981,2.981,0,0,1,698.013,186.175Z" transform="translate(-670.884 -91.083)" fill="#333"/><path d="M696.455,177.627a8.258,8.258,0,1,1,8.257-8.26v0A8.265,8.265,0,0,1,696.455,177.627Zm0-10.5a2.241,2.241,0,1,0,2.24,2.243h0A2.245,2.245,0,0,0,696.455,167.127Z" transform="translate(-688.195 -105.154)" fill="#333"/><path d="M700.352,186.2a8.257,8.257,0,1,1,8.26-8.257A8.256,8.256,0,0,1,700.352,186.2Zm0-10.5a2.241,2.241,0,1,0,2.243,2.243A2.243,2.243,0,0,0,700.352,175.7Z" transform="translate(-678.265 -83.343)" fill="#333"/></svg>