<svg xmlns="http://www.w3.org/2000/svg" width="302.095" height="32.367" viewBox="0 0 302.095 32.367">
  <g id="Gruppe_11363" data-name="Gruppe 11363" transform="translate(-147.724 406.35)">
    <path id="Pfad_23832" data-name="Pfad 23832" d="M311.733-376.707v14.972h-7.2V-385c2.311,0,4.648.1,6.97-.033a4.982,4.982,0,0,1,4.16,1.8c3.718,3.836,7.555,7.557,11.324,11.344a8.022,8.022,0,0,1,.9,1.376l.536-.336V-384.87h7.235v23.258c-2.778,0-5.558.042-8.335-.043-.442-.013-.915-.545-1.292-.919q-6.546-6.484-13.066-12.992C312.632-375.9,312.267-376.217,311.733-376.707Z" transform="translate(-109.67 -14.903)" fill="#273f59"/>
    <path id="Pfad_23833" data-name="Pfad 23833" d="M1028.752-373.984a61.248,61.248,0,0,1,15.051-19.733,41.747,41.747,0,0,0-13.156,13.515,11.15,11.15,0,0,1,.144-6.092c1.431-5.879,5.409-9.751,10.436-12.689,6.393-3.736,13.495-5.4,20.678-6.787,1.175-.226,2.363-.393,3.546-.579a2.4,2.4,0,0,1,.537.122c-3.676,2.811-5.667,6.708-7.941,10.417-.449.732-1.44,1.135-2.325,1.8l1.3.228c-2.35,4.261-4.644,8.508-8.651,11.5a20.157,20.157,0,0,1-12.767,4.053c-3.047-.074-4.955.89-6.113,3.585a3.629,3.629,0,0,1-.407.622C1029.066-374,1028.994-374.01,1028.752-373.984Z" transform="translate(-616.169)" fill="#3d8180"/>
    <path id="Pfad_23834" data-name="Pfad 23834" d="M681.954-388.93h7.906c4.3,0,8.6-.019,12.907.014a14.256,14.256,0,0,1,2.971.316,5.486,5.486,0,0,1,4.552,5.676c.078,2.941-1.21,4.631-4.211,5.528-.286.085-.57.175-1,.308.737.251,1.362.441,1.97.676,3.306,1.276,4.834,3.715,4.28,6.81a6.177,6.177,0,0,1-6.47,5.27c-6.854.037-13.707.012-20.561.012h-2.341Zm5.519,19.993c.411.036.749.092,1.088.092,4.4.005,8.807.019,13.21,0,2.164-.011,3.018-.927,3.048-3.152a2.819,2.819,0,0,0-2.984-3.166c-4.553-.048-9.107-.016-13.66-.006a3.282,3.282,0,0,0-.7.159Zm-.026-10.114c4.77,0,9.4.009,14.031,0,2.132-.006,3.348-1.17,3.34-3.139-.008-1.8-1.146-2.772-3.307-2.778q-6.437-.018-12.874,0c-.381,0-.762.071-1.19.114Z" transform="translate(-373.627 -12.179)" fill="#273f59"/>
    <path id="Pfad_23835" data-name="Pfad 23835" d="M456.783-384.718v4.332H435.958v4.153h12.6v5.541H435.947v4.7H456.76v4.439H428.385c-.041-.442-.115-.873-.115-1.3-.007-6.828.011-13.657-.023-20.485-.005-1.045.22-1.514,1.4-1.508,8.657.043,17.315.022,25.972.027C455.963-384.819,456.3-384.762,456.783-384.718Z" transform="translate(-196.191 -15.039)" fill="#273f59"/>
    <path id="Pfad_23836" data-name="Pfad 23836" d="M897.969-362.086l11.33-11.082-11.62-11.5.12-.425a30.722,30.722,0,0,0,4.227-.032,7.693,7.693,0,0,1,7.772,3.2,51.9,51.9,0,0,0,3.973,4.171c2.156-2.168,4.215-4.18,6.2-6.263a3.185,3.185,0,0,1,2.626-1.1c2.389.078,4.782.024,7.056.024l-11.658,11.6,11.845,11.744c-3.081,0-5.9.033-8.722-.037-.406-.01-.849-.47-1.19-.807-2.021-2-4.017-4.021-6.128-6.142-2.072,2.093-3.992,4.122-6.026,6.029a3.694,3.694,0,0,1-2.176.929c-2.485.115-4.978.043-7.467.043Z" transform="translate(-524.5 -14.77)" fill="#273f59"/>
    <path id="Pfad_23837" data-name="Pfad 23837" d="M565.169-368.644c-2.15,2.183-4.072,4.215-6.1,6.137a3.437,3.437,0,0,1-2.051.87,44.015,44.015,0,0,1-7.737-.318l11.566-11.2-11.868-11.776c3.04,0,5.862-.035,8.681.039.4.01.828.5,1.172.845,2.091,2.064,4.161,4.149,6.458,6.445,1.7-1.777,3.428-3.375,4.9-5.176A5.737,5.737,0,0,1,575.673-385c1.81.18,3.653.036,5.506.036l-11.521,11.481,11.487,11.432-.165.451a43.083,43.083,0,0,0-5.129.038,6.534,6.534,0,0,1-6.354-2.623C568.253-365.723,566.737-367.047,565.169-368.644Z" transform="translate(-280.629 -14.904)" fill="#273f59"/>
    <path id="Pfad_23838" data-name="Pfad 23838" d="M824.107-378.3a12.558,12.558,0,0,1-12.828,12.578,12.668,12.668,0,0,1-12.518-12.788,12.676,12.676,0,0,1,13.028-12.431A12.584,12.584,0,0,1,824.107-378.3Zm-6.087.025a6.48,6.48,0,0,0-6.469-6.607,6.588,6.588,0,0,0-6.708,6.569,6.585,6.585,0,0,0,6.595,6.532A6.479,6.479,0,0,0,818.021-378.275Z" transform="translate(-455.319 -10.777)" fill="#273f59"/>
    <path id="Pfad_23839" data-name="Pfad 23839" d="M153.844-369.9v8.66h-6.12V-384.43h27.5v3.641h-1.959c-5.9,0-11.809.037-17.713-.027-1.331-.014-1.815.4-1.672,1.7a24.086,24.086,0,0,1,.017,2.54c0,1.98,0,1.984,1.927,1.986,3.2,0,6.4,0,9.607.005.538,0,1.076.055,1.687.088v4.591Z" transform="translate(0 -15.331)" fill="#273f59"/>
    <path id="Pfad_23840" data-name="Pfad 23840" d="M266.826-360.913h-6.76v-23.006c2.1,0,4.094-.038,6.082.039a1.235,1.235,0,0,1,.867.836c.033,7.26.007,14.521-.014,21.781C267-361.176,266.917-361.091,266.826-360.913Z" transform="translate(-78.569 -15.682)" fill="#273f59"/>
  </g>
</svg>
