<svg xmlns="http://www.w3.org/2000/svg" width="69.442" height="47.085" viewBox="0 0 69.442 47.085">
  <g id="Gruppe_8939" data-name="Gruppe 8939" transform="translate(537.149 710.172)">
    <path id="Pfad_17306" data-name="Pfad 17306" d="M-458.455-606.878l2.564-2.564-11.2-11.2-2.564-2.564-2.564,2.564-21.449,21.449,2.564,2.564,21.449-21.449Z" transform="translate(-38.359 -76.718)" fill="#c00"/>
    <path id="Pfad_17307" data-name="Pfad 17307" d="M-510.573-702.482l2.564-2.564,2.564,2.564,2.564,2.564,11.2,11.2,2.531-2.531.033-.033-18.869-18.869h0l-.016-.017-29.14,29.14.016.016,2.547,2.547,21.449-21.449Z" transform="translate(0 0)" fill="#c00"/>
    <path id="Pfad_17308" data-name="Pfad 17308" d="M-309.176-612.7l-2.564,2.564,11.2,11.2,2.564,2.564,2.564-2.564L-274-620.357l-1.606-1.606-.957-.957L-297.981-601.5Z" transform="translate(-198.833 -76.965)" fill="#3c0"/>
    <path id="Pfad_17309" data-name="Pfad 17309" d="M-307.249-576.887l-2.239-2.239-.308-.308-21.416,21.416-2.564,2.564-2.564,2.564-2.564-2.564-2.564-2.564-11.2-11.2-2.564,2.564.957.957,8.956,8.956,1.282,1.282,2.564,2.564,2.564,2.564,2.547,2.547.016.016,29.107-29.107Z" transform="translate(-160.474 -115.324)" fill="#3c0"/>
  </g>
</svg>
