<svg xmlns="http://www.w3.org/2000/svg" width="21.5" height="21.5" viewBox="0 0 21.5 21.5"><path d="M10.75,20.156A9.406,9.406,0,1,0,1.344,10.75,9.406,9.406,0,0,0,10.75,20.156Zm0,1.344A10.75,10.75,0,1,0,0,10.75,10.75,10.75,0,0,0,10.75,21.5Z" fill="#09f" fill-rule="evenodd"/><path d="M18.44,10.978a1.008,1.008,0,1,1,1.439,1.411l-5.364,6.705a1.008,1.008,0,0,1-1.451.027L9.509,15.566a1.008,1.008,0,1,1,1.424-1.424l2.814,2.812,4.667-5.946a.317.317,0,0,1,.027-.029Z" transform="translate(-3.698 -4.3)" fill="#09f" fill-rule="evenodd"/></svg>