<svg xmlns="http://www.w3.org/2000/svg" width="971.592" height="950.704" viewBox="0 0 971.592 950.704"><g style="mix-blend-mode:overlay;isolation:isolate"><g transform="translate(3.36 4.675)"><path d="M1751.437,1075.2l-3.435,2.087-.224.031s-382.911-34.476-385.46-34.075-3.461-1.658-1-2.018,385.963,34.011,385.963,34.011l3.554-2.161Zm-408.719-39.9c-1.64-1.3-142.291-122.249-142.291-122.249l-.1-.2L1114,730.236l-4.6-202.161,78.188-186.712,146.993-138.536.213-.074,190.629-66.773.226.018,201.308,16.536,177.513,97.276,122.414,160.667,46.533,196.786-.043.223-37.487,198.477-115.3,166.372s-170.947,100.752-172.5,101.912-3.323-.4-.277-2.318,171.483-101.292,171.483-101.292l114.589-165.514,37.363-197.809-46.325-195.907-122-160.127-176.584-96.661L1525.7,138.137l-189.989,66.55-146.5,138.071-77.673,185.719,4.58,201.26,86.044,181.992s139.287,119.8,140.437,120.654C1345.394,1034.471,1344.358,1036.6,1342.718,1035.294Zm-.528-3.24c1.43,1.308,12.593,10.938,12.593,10.938l-1.041,1.907-.173-.147s-9.333-8.2-11.8-10.257S1340.761,1030.744,1342.19,1032.054Z" transform="translate(-1109.395 -135.981)" fill="aqua"/><g transform="translate(1.242 20.522)"><path d="M1748.831,1061.832l-1.909,2.069-.622-.165-148.262-38.985-11.356.343a3.757,3.757,0,0,1-2.92-1.257,1.573,1.573,0,0,1,1.17-.96c.924-.2,13.35-.261,13.35-.261l.147.041,147.79,38.858,1.627-1.757ZM1306.5,964.287c-2.024-2.44-78.437-112.334-78.437-112.334l-46.607-78.592-71.572-255.94.279-.411,221.705-324.148.5-.043,160.424-13.73,233.2-35.024,149.481,111.471L2024.09,400.2l24.475,177.63-13.492,215.251L1895.984,901.071s-147.026,160.261-148.008,161.726-3.76.825-2.371-.553,148.943-162.729,148.943-162.729l138.46-107.52,13.443-214.081L2022.082,401.22,1874.094,257.15,1725.43,146.3l-232.384,34.9-159.99,13.7L1112.2,517.8l71.267,254.851,46.381,78.15s77.158,110.592,78.569,112.517S1308.521,966.725,1306.5,964.287Zm-1.064-5.256c1.331,1.874,49.506,70.914,49.506,70.914s169.274-4.9,171.43-5.113,2.78,1.909-.31,2.087-172.2,5.187-172.2,5.187l-.333-.472s-47.859-68.726-49.212-70.5S1304.108,957.155,1305.436,959.032Z" transform="translate(-1109.884 -144.064)" fill="aqua"/></g><g transform="translate(71.336 19.712)"><path d="M1310.415,1033.42l30.48-141.819-203.4-119.542.033-.645L1157.633,385.9l296.019-207.241,28.984,65.892,204.586-100.81,45.959,144.043L1835,258.763l.4.764,170.128,322.421-.232.482L1851.678,904.075l-.373.157-293.31,123.135-.5-.447-81.753-73.2ZM1139.686,770.879,1343.3,890.545l-.16.752-29.726,138.317,162.683-78.432,82.317,73.7,291.7-122.459L2003.147,582,1833.923,261.281,1731.783,290.4l-45.838-143.654-204.359,100.7-28.835-65.552L1159.7,387.049Z" transform="translate(-1137.492 -143.745)" fill="aqua"/></g><g transform="translate(78.368 165.626)"><path d="M1471.095,867.161l-21.878-117.189L1335.6,804.349l-.3-1.288-40.054-170.8-154.986-83.221,80.208-65.515,16.393-244.356,2.123.143L1222.53,484.59l-78.456,64.084L1297.1,630.842l.108.467,39.861,169.978,113.73-54.43,21.7,116.237,247.159-217.281,82.53-102.9.343-.088,192.709-49.3-219.8-75.22-.127-.59-45.9-216.057,2.081-.442,45.776,215.467,225.4,77.137L1803.4,544.8,1721.19,647.277Z" transform="translate(-1140.262 -201.216)" fill="aqua"/></g><g transform="translate(4.995 593.173)"><path d="M1197.212,553l-19.4-128.556-66.447-53.172,1.33-1.662,67.1,53.694,19.528,129.381Z" transform="translate(-1111.362 -369.614)" fill="aqua"/></g><g transform="translate(713.421 381.686)"><path d="M1473.685,491.616l-56.811-78.282-.046-.222-26.439-126.36,2.081-.436,26.393,126.138,56.541,77.914Z" transform="translate(-1390.39 -286.315)" fill="aqua"/></g><g transform="translate(1.508 393.487)"><rect width="2.127" height="142.383" transform="translate(0 1.163) rotate(-33.158)" fill="aqua"/></g><g transform="translate(77.795 67.411)"><path d="M1472.958,924.49l-.276-.124-135.558-61.3-.162-.211L1140.036,607.342l.168-.528,97.217-307.053-.622-.058,50.19-137.17,2,.731-48.562,132.724,235.431-79.981.137-.8,1.475.251,3.763-1.277-.183,1.884,249.514,42.308.246.267,271.12,294.486-.787.721L1860.853,681.978l-11.747,193.16-.868.114Zm-134.473-63.143,134.8,60.954,373.806-49.047,11.694-192.264.317-.292L1998.917,553,1729.49,260.349l-248.648-42.161L1470.8,321.752l-231.208-21.786L1142.4,606.925Zm-97.309-563.369,227.707,21.459,9.856-101.6-1.1-.188Z" transform="translate(-1140.036 -162.532)" fill="aqua"/></g><g transform="translate(77.884 205.908)"><rect width="2.126" height="57.905" transform="matrix(0.972, -0.235, 0.235, 0.972, 0, 0.499)" fill="aqua"/></g><g transform="translate(383.333 0.542)"><rect width="64.047" height="2.127" transform="translate(0 55.539) rotate(-60.13)" fill="aqua"/></g><g transform="translate(234.102 557.646)"><path d="M1356.6,511.2l-1.965-.81,62.638-152.031-215.311,36.622-.357-2.1,219.1-37.267-.733,1.776Z" transform="translate(-1201.601 -355.621)" fill="aqua"/></g><g transform="translate(404.529 163.204)"><path d="M1522.4,649.111l-209.292-52.584,263.455-177.438L1268.727,262.16l263.012-61.9.486,2.071L1274.863,262.9l305.888,155.933-262.5,176.79,204.669,51.423Z" transform="translate(-1268.727 -200.262)" fill="aqua"/></g><g transform="translate(155.843 222.208)"><path d="M1799.942,781.011l-126.91-167.421L1402.874,715.322l-.469-.355L1248.376,597.956l-.112-.218L1173.778,450.61l-3-1.135,3.265-.7L1424.572,223.5,1372.1,406.956l358.677-24.919-.348,1.414-55.874,228.626,127.085,167.649ZM1250.054,596.557l153.17,116.358,269.277-101.4,55.513-227.159-355.511,24.7,96.5,153.368-292.28-110.7ZM1178.3,450.049l285.526,108.145-93.678-148.877Zm242.187-220.017L1178.206,447.9l190.741-40.5-.135-.213,1.028-.071Z" transform="translate(-1170.777 -223.502)" fill="aqua"/></g></g><path d="M1264.791,300.21a9.032,9.032,0,1,1-10.107-7.81A9.033,9.033,0,0,1,1264.791,300.21Z" transform="translate(-894.582 109.296)" fill="aqua"/><path d="M1301.542,359.606a9.032,9.032,0,1,1-10.108-7.81A9.03,9.03,0,0,1,1301.542,359.606Z" transform="translate(-838.025 200.7)" fill="aqua"/><path d="M1283.925,229.171a9.031,9.031,0,1,1-10.1-7.81A9.031,9.031,0,0,1,1283.925,229.171Z" transform="translate(-865.132 -0.028)" fill="aqua"/><path d="M1157.936,242.048a7.007,7.007,0,1,1-7.84-6.058A7.008,7.008,0,0,1,1157.936,242.048Z" transform="translate(-1052.815 22.51)" fill="aqua"/><path d="M1150,394.231a7.007,7.007,0,1,1-7.84-6.06A7,7,0,0,1,1150,394.231Z" transform="translate(-1065.023 256.703)" fill="aqua"/><path d="M1229.037,441.48a7.007,7.007,0,1,1-7.84-6.058A7.007,7.007,0,0,1,1229.037,441.48Z" transform="translate(-943.396 329.418)" fill="aqua"/><path d="M1281.4,465.254a7.007,7.007,0,1,1-7.843-6.06A7.008,7.008,0,0,1,1281.4,465.254Z" transform="translate(-862.821 366.001)" fill="aqua"/><path d="M1313.308,493.887a7.007,7.007,0,1,1-7.843-6.058A7.011,7.011,0,0,1,1313.308,493.887Z" transform="translate(-813.711 410.068)" fill="aqua"/><path d="M1429.969,445.761a7.007,7.007,0,1,1-7.84-6.058A7.009,7.009,0,0,1,1429.969,445.761Z" transform="translate(-634.18 336.006)" fill="aqua"/><path d="M1435.028,369.8a7.007,7.007,0,1,1-7.843-6.058A7.011,7.011,0,0,1,1435.028,369.8Z" transform="translate(-626.397 219.11)" fill="aqua"/><path d="M1379.558,380.5a7.007,7.007,0,1,1-7.84-6.058A7.009,7.009,0,0,1,1379.558,380.5Z" transform="translate(-711.758 235.57)" fill="aqua"/><path d="M1273.459,420.1a7.007,7.007,0,1,1-7.84-6.06A7.006,7.006,0,0,1,1273.459,420.1Z" transform="translate(-875.035 296.51)" fill="aqua"/><path d="M1213.751,373.957a7.007,7.007,0,1,1-7.84-6.06A7.008,7.008,0,0,1,1213.751,373.957Z" transform="translate(-966.92 225.503)" fill="aqua"/><path d="M1412.028,340.026a7.007,7.007,0,1,1-7.843-6.06A7.008,7.008,0,0,1,1412.028,340.026Z" transform="translate(-661.792 173.286)" fill="aqua"/><path d="M1191.263,219.491a7.007,7.007,0,1,1-7.84-6.06A7.005,7.005,0,0,1,1191.263,219.491Z" transform="translate(-1001.527 -12.206)" fill="aqua"/><path d="M1272.6,161.548a7.007,7.007,0,1,1-7.843-6.06A7.011,7.011,0,0,1,1272.6,161.548Z" transform="translate(-876.361 -101.375)" fill="aqua"/><path d="M1285.195,186.381a7.007,7.007,0,1,1-7.843-6.058A7.011,7.011,0,0,1,1285.195,186.381Z" transform="translate(-856.976 -63.157)" fill="aqua"/><path d="M1383.42,204.276a7.007,7.007,0,1,1-7.84-6.06A7.006,7.006,0,0,1,1383.42,204.276Z" transform="translate(-705.815 -35.621)" fill="aqua"/><path d="M1422.763,192.957a7.007,7.007,0,1,1-7.84-6.06A7.005,7.005,0,0,1,1422.763,192.957Z" transform="translate(-645.269 -53.04)" fill="aqua"/><path d="M1489.617,319.322a7.007,7.007,0,1,1-7.843-6.06A7.005,7.005,0,0,1,1489.617,319.322Z" transform="translate(-542.388 141.425)" fill="aqua"/><path d="M1402.054,290.2a7.007,7.007,0,1,1-7.84-6.058A7.009,7.009,0,0,1,1402.054,290.2Z" transform="translate(-677.139 96.608)" fill="aqua"/><path d="M1188.512,317.161a9.03,9.03,0,1,1-10.1-7.81A9.029,9.029,0,0,1,1188.512,317.161Z" transform="translate(-1011.965 135.38)" fill="aqua"/><path d="M1155,342.525a9.032,9.032,0,1,1-10.1-7.81A9.031,9.031,0,0,1,1155,342.525Z" transform="translate(-1063.532 174.413)" fill="aqua"/><path d="M1119.9,293.689a5.938,5.938,0,1,1-6.644-5.136A5.937,5.937,0,0,1,1119.9,293.689Z" transform="translate(-1108.072 103.413)" fill="aqua"/><path d="M1149.894,219.911a5.939,5.939,0,1,1-6.644-5.134A5.938,5.938,0,0,1,1149.894,219.911Z" transform="translate(-1061.915 -10.122)" fill="aqua"/><path d="M1121.474,372.5a5.937,5.937,0,1,1-6.644-5.134A5.935,5.935,0,0,1,1121.474,372.5Z" transform="translate(-1105.646 224.699)" fill="aqua"/><path d="M1154.782,444.322a5.939,5.939,0,1,1-6.644-5.134A5.94,5.94,0,0,1,1154.782,444.322Z" transform="translate(-1054.393 335.228)" fill="aqua"/><path d="M1215.994,495.2a5.938,5.938,0,1,1-6.644-5.134A5.937,5.937,0,0,1,1215.994,495.2Z" transform="translate(-960.193 413.528)" fill="aqua"/><path d="M1370.154,509.1a5.937,5.937,0,1,1-6.644-5.134A5.936,5.936,0,0,1,1370.154,509.1Z" transform="translate(-722.95 434.912)" fill="aqua"/><path d="M1438.391,467.593a5.938,5.938,0,1,1-6.644-5.134A5.938,5.938,0,0,1,1438.391,467.593Z" transform="translate(-617.943 371.04)" fill="aqua"/><path d="M1482.856,401.826a5.937,5.937,0,1,1-6.644-5.136A5.935,5.935,0,0,1,1482.856,401.826Z" transform="translate(-549.511 269.826)" fill="aqua"/><path d="M1497.9,324.254a5.937,5.937,0,1,1-6.645-5.136A5.936,5.936,0,0,1,1497.9,324.254Z" transform="translate(-526.358 150.45)" fill="aqua"/><path d="M1479.077,247.318a5.938,5.938,0,1,1-6.644-5.134A5.937,5.937,0,0,1,1479.077,247.318Z" transform="translate(-555.332 32.057)" fill="aqua"/><path d="M1432.442,184.262a5.938,5.938,0,1,1-6.644-5.136A5.937,5.937,0,0,1,1432.442,184.262Z" transform="translate(-627.099 -64.986)" fill="aqua"/><path d="M1362.228,147.087a5.939,5.939,0,1,1-6.644-5.134A5.937,5.937,0,0,1,1362.228,147.087Z" transform="translate(-735.152 -122.192)" fill="aqua"/><path d="M1282.9,139.322a5.937,5.937,0,1,1-6.644-5.134A5.938,5.938,0,0,1,1282.9,139.322Z" transform="translate(-857.231 -134.14)" fill="aqua"/><path d="M1207.866,165.977a5.938,5.938,0,1,1-6.645-5.136A5.941,5.941,0,0,1,1207.866,165.977Z" transform="translate(-972.701 -93.125)" fill="aqua"/></g><g style="mix-blend-mode:overlay;isolation:isolate"><g transform="translate(3.36 4.675)"><path d="M1751.437,1075.2l-3.435,2.087-.224.031s-382.911-34.476-385.46-34.075-3.461-1.658-1-2.018,385.963,34.011,385.963,34.011l3.554-2.161Zm-408.719-39.9c-1.64-1.3-142.291-122.249-142.291-122.249l-.1-.2L1114,730.236l-4.6-202.161,78.188-186.712,146.993-138.536.213-.074,190.629-66.773.226.018,201.308,16.536,177.513,97.276,122.414,160.667,46.533,196.786-.043.223-37.487,198.477-115.3,166.372s-170.947,100.752-172.5,101.912-3.323-.4-.277-2.318,171.483-101.292,171.483-101.292l114.589-165.514,37.363-197.809-46.325-195.907-122-160.127-176.584-96.661L1525.7,138.137l-189.989,66.55-146.5,138.071-77.673,185.719,4.58,201.26,86.044,181.992s139.287,119.8,140.437,120.654C1345.394,1034.471,1344.358,1036.6,1342.718,1035.294Zm-.528-3.24c1.43,1.308,12.593,10.938,12.593,10.938l-1.041,1.907-.173-.147s-9.333-8.2-11.8-10.257S1340.761,1030.744,1342.19,1032.054Z" transform="translate(-1109.395 -135.981)" fill="aqua"/><g transform="translate(1.242 20.522)"><path d="M1748.831,1061.832l-1.909,2.069-.622-.165-148.262-38.985-11.356.343a3.757,3.757,0,0,1-2.92-1.257,1.573,1.573,0,0,1,1.17-.96c.924-.2,13.35-.261,13.35-.261l.147.041,147.79,38.858,1.627-1.757ZM1306.5,964.287c-2.024-2.44-78.437-112.334-78.437-112.334l-46.607-78.592-71.572-255.94.279-.411,221.705-324.148.5-.043,160.424-13.73,233.2-35.024,149.481,111.471L2024.09,400.2l24.475,177.63-13.492,215.251L1895.984,901.071s-147.026,160.261-148.008,161.726-3.76.825-2.371-.553,148.943-162.729,148.943-162.729l138.46-107.52,13.443-214.081L2022.082,401.22,1874.094,257.15,1725.43,146.3l-232.384,34.9-159.99,13.7L1112.2,517.8l71.267,254.851,46.381,78.15s77.158,110.592,78.569,112.517S1308.521,966.725,1306.5,964.287Zm-1.064-5.256c1.331,1.874,49.506,70.914,49.506,70.914s169.274-4.9,171.43-5.113,2.78,1.909-.31,2.087-172.2,5.187-172.2,5.187l-.333-.472s-47.859-68.726-49.212-70.5S1304.108,957.155,1305.436,959.032Z" transform="translate(-1109.884 -144.064)" fill="aqua"/></g><g transform="translate(71.336 19.712)"><path d="M1310.415,1033.42l30.48-141.819-203.4-119.542.033-.645L1157.633,385.9l296.019-207.241,28.984,65.892,204.586-100.81,45.959,144.043L1835,258.763l.4.764,170.128,322.421-.232.482L1851.678,904.075l-.373.157-293.31,123.135-.5-.447-81.753-73.2ZM1139.686,770.879,1343.3,890.545l-.16.752-29.726,138.317,162.683-78.432,82.317,73.7,291.7-122.459L2003.147,582,1833.923,261.281,1731.783,290.4l-45.838-143.654-204.359,100.7-28.835-65.552L1159.7,387.049Z" transform="translate(-1137.492 -143.745)" fill="aqua"/></g><g transform="translate(78.368 165.626)"><path d="M1471.095,867.161l-21.878-117.189L1335.6,804.349l-.3-1.288-40.054-170.8-154.986-83.221,80.208-65.515,16.393-244.356,2.123.143L1222.53,484.59l-78.456,64.084L1297.1,630.842l.108.467,39.861,169.978,113.73-54.43,21.7,116.237,247.159-217.281,82.53-102.9.343-.088,192.709-49.3-219.8-75.22-.127-.59-45.9-216.057,2.081-.442,45.776,215.467,225.4,77.137L1803.4,544.8,1721.19,647.277Z" transform="translate(-1140.262 -201.216)" fill="aqua"/></g><g transform="translate(4.995 593.173)"><path d="M1197.212,553l-19.4-128.556-66.447-53.172,1.33-1.662,67.1,53.694,19.528,129.381Z" transform="translate(-1111.362 -369.614)" fill="aqua"/></g><g transform="translate(713.421 381.686)"><path d="M1473.685,491.616l-56.811-78.282-.046-.222-26.439-126.36,2.081-.436,26.393,126.138,56.541,77.914Z" transform="translate(-1390.39 -286.315)" fill="aqua"/></g><g transform="translate(1.508 393.487)"><rect width="2.127" height="142.383" transform="translate(0 1.163) rotate(-33.158)" fill="aqua"/></g><g transform="translate(77.795 67.411)"><path d="M1472.958,924.49l-.276-.124-135.558-61.3-.162-.211L1140.036,607.342l.168-.528,97.217-307.053-.622-.058,50.19-137.17,2,.731-48.562,132.724,235.431-79.981.137-.8,1.475.251,3.763-1.277-.183,1.884,249.514,42.308.246.267,271.12,294.486-.787.721L1860.853,681.978l-11.747,193.16-.868.114Zm-134.473-63.143,134.8,60.954,373.806-49.047,11.694-192.264.317-.292L1998.917,553,1729.49,260.349l-248.648-42.161L1470.8,321.752l-231.208-21.786L1142.4,606.925Zm-97.309-563.369,227.707,21.459,9.856-101.6-1.1-.188Z" transform="translate(-1140.036 -162.532)" fill="aqua"/></g><g transform="translate(77.884 205.908)"><rect width="2.126" height="57.905" transform="matrix(0.972, -0.235, 0.235, 0.972, 0, 0.499)" fill="aqua"/></g><g transform="translate(383.333 0.542)"><rect width="64.047" height="2.127" transform="translate(0 55.539) rotate(-60.13)" fill="aqua"/></g><g transform="translate(234.102 557.646)"><path d="M1356.6,511.2l-1.965-.81,62.638-152.031-215.311,36.622-.357-2.1,219.1-37.267-.733,1.776Z" transform="translate(-1201.601 -355.621)" fill="aqua"/></g><g transform="translate(404.529 163.204)"><path d="M1522.4,649.111l-209.292-52.584,263.455-177.438L1268.727,262.16l263.012-61.9.486,2.071L1274.863,262.9l305.888,155.933-262.5,176.79,204.669,51.423Z" transform="translate(-1268.727 -200.262)" fill="aqua"/></g><g transform="translate(155.843 222.208)"><path d="M1799.942,781.011l-126.91-167.421L1402.874,715.322l-.469-.355L1248.376,597.956l-.112-.218L1173.778,450.61l-3-1.135,3.265-.7L1424.572,223.5,1372.1,406.956l358.677-24.919-.348,1.414-55.874,228.626,127.085,167.649ZM1250.054,596.557l153.17,116.358,269.277-101.4,55.513-227.159-355.511,24.7,96.5,153.368-292.28-110.7ZM1178.3,450.049l285.526,108.145-93.678-148.877Zm242.187-220.017L1178.206,447.9l190.741-40.5-.135-.213,1.028-.071Z" transform="translate(-1170.777 -223.502)" fill="aqua"/></g></g><path d="M1264.791,300.21a9.032,9.032,0,1,1-10.107-7.81A9.033,9.033,0,0,1,1264.791,300.21Z" transform="translate(-894.582 109.296)" fill="aqua"/><path d="M1301.542,359.606a9.032,9.032,0,1,1-10.108-7.81A9.03,9.03,0,0,1,1301.542,359.606Z" transform="translate(-838.025 200.7)" fill="aqua"/><path d="M1283.925,229.171a9.031,9.031,0,1,1-10.1-7.81A9.031,9.031,0,0,1,1283.925,229.171Z" transform="translate(-865.132 -0.028)" fill="aqua"/><path d="M1157.936,242.048a7.007,7.007,0,1,1-7.84-6.058A7.008,7.008,0,0,1,1157.936,242.048Z" transform="translate(-1052.815 22.51)" fill="aqua"/><path d="M1150,394.231a7.007,7.007,0,1,1-7.84-6.06A7,7,0,0,1,1150,394.231Z" transform="translate(-1065.023 256.703)" fill="aqua"/><path d="M1229.037,441.48a7.007,7.007,0,1,1-7.84-6.058A7.007,7.007,0,0,1,1229.037,441.48Z" transform="translate(-943.396 329.418)" fill="aqua"/><path d="M1281.4,465.254a7.007,7.007,0,1,1-7.843-6.06A7.008,7.008,0,0,1,1281.4,465.254Z" transform="translate(-862.821 366.001)" fill="aqua"/><path d="M1313.308,493.887a7.007,7.007,0,1,1-7.843-6.058A7.011,7.011,0,0,1,1313.308,493.887Z" transform="translate(-813.711 410.068)" fill="aqua"/><path d="M1429.969,445.761a7.007,7.007,0,1,1-7.84-6.058A7.009,7.009,0,0,1,1429.969,445.761Z" transform="translate(-634.18 336.006)" fill="aqua"/><path d="M1435.028,369.8a7.007,7.007,0,1,1-7.843-6.058A7.011,7.011,0,0,1,1435.028,369.8Z" transform="translate(-626.397 219.11)" fill="aqua"/><path d="M1379.558,380.5a7.007,7.007,0,1,1-7.84-6.058A7.009,7.009,0,0,1,1379.558,380.5Z" transform="translate(-711.758 235.57)" fill="aqua"/><path d="M1273.459,420.1a7.007,7.007,0,1,1-7.84-6.06A7.006,7.006,0,0,1,1273.459,420.1Z" transform="translate(-875.035 296.51)" fill="aqua"/><path d="M1213.751,373.957a7.007,7.007,0,1,1-7.84-6.06A7.008,7.008,0,0,1,1213.751,373.957Z" transform="translate(-966.92 225.503)" fill="aqua"/><path d="M1412.028,340.026a7.007,7.007,0,1,1-7.843-6.06A7.008,7.008,0,0,1,1412.028,340.026Z" transform="translate(-661.792 173.286)" fill="aqua"/><path d="M1191.263,219.491a7.007,7.007,0,1,1-7.84-6.06A7.005,7.005,0,0,1,1191.263,219.491Z" transform="translate(-1001.527 -12.206)" fill="aqua"/><path d="M1272.6,161.548a7.007,7.007,0,1,1-7.843-6.06A7.011,7.011,0,0,1,1272.6,161.548Z" transform="translate(-876.361 -101.375)" fill="aqua"/><path d="M1285.195,186.381a7.007,7.007,0,1,1-7.843-6.058A7.011,7.011,0,0,1,1285.195,186.381Z" transform="translate(-856.976 -63.157)" fill="aqua"/><path d="M1383.42,204.276a7.007,7.007,0,1,1-7.84-6.06A7.006,7.006,0,0,1,1383.42,204.276Z" transform="translate(-705.815 -35.621)" fill="aqua"/><path d="M1422.763,192.957a7.007,7.007,0,1,1-7.84-6.06A7.005,7.005,0,0,1,1422.763,192.957Z" transform="translate(-645.269 -53.04)" fill="aqua"/><path d="M1489.617,319.322a7.007,7.007,0,1,1-7.843-6.06A7.005,7.005,0,0,1,1489.617,319.322Z" transform="translate(-542.388 141.425)" fill="aqua"/><path d="M1402.054,290.2a7.007,7.007,0,1,1-7.84-6.058A7.009,7.009,0,0,1,1402.054,290.2Z" transform="translate(-677.139 96.608)" fill="aqua"/><path d="M1188.512,317.161a9.03,9.03,0,1,1-10.1-7.81A9.029,9.029,0,0,1,1188.512,317.161Z" transform="translate(-1011.965 135.38)" fill="aqua"/><path d="M1155,342.525a9.032,9.032,0,1,1-10.1-7.81A9.031,9.031,0,0,1,1155,342.525Z" transform="translate(-1063.532 174.413)" fill="aqua"/><path d="M1119.9,293.689a5.938,5.938,0,1,1-6.644-5.136A5.937,5.937,0,0,1,1119.9,293.689Z" transform="translate(-1108.072 103.413)" fill="aqua"/><path d="M1149.894,219.911a5.939,5.939,0,1,1-6.644-5.134A5.938,5.938,0,0,1,1149.894,219.911Z" transform="translate(-1061.915 -10.122)" fill="aqua"/><path d="M1121.474,372.5a5.937,5.937,0,1,1-6.644-5.134A5.935,5.935,0,0,1,1121.474,372.5Z" transform="translate(-1105.646 224.699)" fill="aqua"/><path d="M1154.782,444.322a5.939,5.939,0,1,1-6.644-5.134A5.94,5.94,0,0,1,1154.782,444.322Z" transform="translate(-1054.393 335.228)" fill="aqua"/><path d="M1215.994,495.2a5.938,5.938,0,1,1-6.644-5.134A5.937,5.937,0,0,1,1215.994,495.2Z" transform="translate(-960.193 413.528)" fill="aqua"/><path d="M1370.154,509.1a5.937,5.937,0,1,1-6.644-5.134A5.936,5.936,0,0,1,1370.154,509.1Z" transform="translate(-722.95 434.912)" fill="aqua"/><path d="M1438.391,467.593a5.938,5.938,0,1,1-6.644-5.134A5.938,5.938,0,0,1,1438.391,467.593Z" transform="translate(-617.943 371.04)" fill="aqua"/><path d="M1482.856,401.826a5.937,5.937,0,1,1-6.644-5.136A5.935,5.935,0,0,1,1482.856,401.826Z" transform="translate(-549.511 269.826)" fill="aqua"/><path d="M1497.9,324.254a5.937,5.937,0,1,1-6.645-5.136A5.936,5.936,0,0,1,1497.9,324.254Z" transform="translate(-526.358 150.45)" fill="aqua"/><path d="M1479.077,247.318a5.938,5.938,0,1,1-6.644-5.134A5.937,5.937,0,0,1,1479.077,247.318Z" transform="translate(-555.332 32.057)" fill="aqua"/><path d="M1432.442,184.262a5.938,5.938,0,1,1-6.644-5.136A5.937,5.937,0,0,1,1432.442,184.262Z" transform="translate(-627.099 -64.986)" fill="aqua"/><path d="M1362.228,147.087a5.939,5.939,0,1,1-6.644-5.134A5.937,5.937,0,0,1,1362.228,147.087Z" transform="translate(-735.152 -122.192)" fill="aqua"/><path d="M1282.9,139.322a5.937,5.937,0,1,1-6.644-5.134A5.938,5.938,0,0,1,1282.9,139.322Z" transform="translate(-857.231 -134.14)" fill="aqua"/><path d="M1207.866,165.977a5.938,5.938,0,1,1-6.645-5.136A5.941,5.941,0,0,1,1207.866,165.977Z" transform="translate(-972.701 -93.125)" fill="aqua"/></g></svg>