<svg xmlns="http://www.w3.org/2000/svg" xmlns:xlink="http://www.w3.org/1999/xlink" width="666.645" height="410.798" viewBox="0 0 666.645 410.798"><defs><pattern id="a" preserveAspectRatio="none" width="100%" height="100%" viewBox="0 0 0 0"><image/></pattern><linearGradient id="d" x1="1.035" y1="0.381" x2="-0.127" y2="0.531" gradientUnits="objectBoundingBox"><stop offset="0.049" stop-color="#a19aba"/><stop offset="0.202" stop-color="#918db4"/><stop offset="0.434" stop-color="#807fad"/><stop offset="0.688" stop-color="#7676aa"/><stop offset="1" stop-color="#7374a9"/></linearGradient><linearGradient id="e" x1="0.239" y1="0.076" x2="0.761" y2="0.93" gradientUnits="objectBoundingBox"><stop offset="0" stop-color="#a6a0cd"/><stop offset="0.01" stop-color="#a6a0cd"/><stop offset="0.298" stop-color="#adb1d2"/><stop offset="0.613" stop-color="#b1bbd5"/><stop offset="1" stop-color="#b3bfd6"/></linearGradient><linearGradient id="f" x1="0.621" y1="0.182" x2="0.37" y2="0.943" gradientUnits="objectBoundingBox"><stop offset="0.049" stop-color="#8992c1"/><stop offset="0.355" stop-color="#8288b9"/><stop offset="0.856" stop-color="#6f70a5"/><stop offset="1" stop-color="#69689f"/></linearGradient><linearGradient id="g" x1="0.468" y1="0.615" x2="0.536" y2="0.411" xlink:href="#f"/><linearGradient id="h" x1="0" y1="0.5" x2="1" y2="0.5" xlink:href="#d"/><linearGradient id="i" x1="0.362" y1="0.839" x2="0.638" y2="0.239" gradientUnits="objectBoundingBox"><stop offset="0" stop-color="#a6a0cd"/><stop offset="1" stop-color="#b3bfd6"/></linearGradient><linearGradient id="j" x1="0.58" y1="0.654" x2="0.405" y2="0.299" gradientUnits="objectBoundingBox"><stop offset="0" stop-color="#5368a3"/><stop offset="0.264" stop-color="#51659f"/><stop offset="0.462" stop-color="#4c5e96"/><stop offset="0.638" stop-color="#445186"/><stop offset="0.802" stop-color="#383f6f"/><stop offset="0.956" stop-color="#2a2752"/><stop offset="0.967" stop-color="#292650"/></linearGradient><linearGradient id="k" x1="0.816" y1="0.181" x2="0.199" y2="0.8" gradientUnits="objectBoundingBox"><stop offset="0.049" stop-color="#a19aba"/><stop offset="0.125" stop-color="#918db4"/><stop offset="0.241" stop-color="#807fad"/><stop offset="0.368" stop-color="#7676aa"/><stop offset="0.524" stop-color="#7374a9"/><stop offset="0.967" stop-color="#424478"/></linearGradient><linearGradient id="l" x1="0.33" y1="0.071" x2="0.671" y2="0.93" gradientUnits="objectBoundingBox"><stop offset="0.049" stop-color="#d0dae8"/><stop offset="0.163" stop-color="#c5cfe0"/><stop offset="0.406" stop-color="#b5bed5"/><stop offset="0.672" stop-color="#acb4cf"/><stop offset="1" stop-color="#a9b1cd"/></linearGradient><linearGradient id="m" x1="-0.047" y1="0.363" x2="1.048" y2="0.635" gradientUnits="objectBoundingBox"><stop offset="0.049" stop-color="#ecebf2"/><stop offset="0.13" stop-color="#dfdfea"/><stop offset="0.318" stop-color="#c7cbdd"/><stop offset="0.517" stop-color="#b6bcd4"/><stop offset="0.733" stop-color="#acb3ce"/><stop offset="1" stop-color="#a9b1cd"/></linearGradient><linearGradient id="n" x1="0.02" y1="0.362" x2="0.984" y2="0.639" gradientUnits="objectBoundingBox"><stop offset="0.049" stop-color="#a2acc9"/><stop offset="0.35" stop-color="#9aa3bf"/><stop offset="0.842" stop-color="#858ba7"/><stop offset="1" stop-color="#7d839e"/></linearGradient><linearGradient id="o" x1="-0.026" y1="0.575" x2="1.024" y2="0.426" gradientUnits="objectBoundingBox"><stop offset="0.049" stop-color="#05c5f5"/><stop offset="0.287" stop-color="#04bbf2"/><stop offset="0.676" stop-color="#03a3eb"/><stop offset="1" stop-color="#038ae5"/></linearGradient><linearGradient id="p" x1="0.385" y1="0.384" x2="0.718" y2="0.772" xlink:href="#k"/><linearGradient id="q" x1="0.5" y1="0" x2="0.5" y2="1" xlink:href="#k"/><linearGradient id="r" x1="1" y1="0.5" x2="0" y2="0.5" xlink:href="#n"/><linearGradient id="by" x1="0.489" y1="1.011" x2="0.511" y2="-0.011" gradientUnits="objectBoundingBox"><stop offset="0" stop-color="#9490df"/><stop offset="1" stop-color="#b3bfd6"/></linearGradient><linearGradient id="bz" x1="0" y1="0.5" x2="1" y2="0.5" xlink:href="#k"/><linearGradient id="ca" x1="1" y1="0.5" x2="0" y2="0.5" xlink:href="#k"/><linearGradient id="cb" x1="0.589" y1="0.091" x2="0.409" y2="0.912" xlink:href="#n"/><linearGradient id="cc" x1="0.457" y1="-0.014" x2="0.542" y2="1.011" gradientUnits="objectBoundingBox"><stop offset="0.049" stop-color="#ecebf2"/><stop offset="1" stop-color="#a9b1cd"/></linearGradient><linearGradient id="cd" x1="0.761" y1="0.041" x2="0.238" y2="0.976" xlink:href="#l"/><linearGradient id="ce" x1="1.813" y1="1.447" x2="-0.994" y2="-0.656" gradientUnits="objectBoundingBox"><stop offset="0" stop-color="#ff34fb"/><stop offset="0.126" stop-color="#ff3aef"/><stop offset="0.352" stop-color="#ff4ad1"/><stop offset="0.649" stop-color="#ff659f"/><stop offset="1" stop-color="#ff8a5d"/></linearGradient></defs><g transform="translate(-221.356 -1744.553)"><g transform="translate(-59.699 1320.734)"><rect width="203.503" height="71.226" transform="translate(504.57 763.391)" opacity="0.5" fill="url(#a)"/><path d="M970.758,1196.681c-5.172-4.988-14.708-20.74-22.061-32.575-2.745-4.418-4.947-8.1-6.608-10.612-5.445-8.228-27.223-35.324-27.431-35.584h1.467c.854,1.065,22.575,25.857,28.084,34.182,1.681,2.54,3.892,6.239,6.648,10.673,7.282,11.721,15.839,28.232,20.784,33Z" transform="translate(-455.653 -458.675)" opacity="0.28"/><path d="M1019.96,1146.5c-20.967-2.148-46.328-11.424-56.034-24.041-5.863-7.621-9.845-17.023-13.7-26.115-3.878-9.156-7.542-17.8-12.79-23.98-2.584-3.041-6.553-6.185-10.755-9.512-11.276-8.93-25.31-20.046-21.823-37.011,1.624-7.9,6.735-13.775,14.6-17.382,16.351-7.5,42.928,1.559,50.82,6.323l-1.189,1.969c-7.4-4.469-34.709-12.453-48.709-6.186-7.189,3.218-11.805,8.6-13.272,15.737-3.2,15.579,9.655,25.762,21,34.746,4.294,3.4,8.349,6.613,11.08,9.826,5.477,6.444,9.207,15.25,13.156,24.573,3.8,8.959,7.719,18.223,13.4,25.61,11.347,14.751,45.14,24.755,66.641,23.515,7.059-.407,23.033-7.059,37.127-12.928,8.24-3.431,16.022-6.672,21.656-8.542,17.067-5.667,23.7.254,23.976.509l-1.558,1.692c-.059-.052-6.068-5.206-21.694-.018-5.553,1.844-13.3,5.068-21.5,8.483-14.96,6.23-30.429,12.671-37.879,13.1A79.686,79.686,0,0,1,1019.96,1146.5Z" transform="translate(-448.821 -384.456)" fill="#a1afc8"/><rect width="340.868" height="159.411" transform="translate(281.055 579.56)" opacity="0.5" fill="url(#a)"/><rect width="124.137" height="51.554" transform="translate(789.474 623.653)" opacity="0.5" fill="url(#a)"/><path d="M1898.264,940.273c-.05-.046-5.147-4.651-15.5-10.664-9.555-5.551-25.669-13.472-48.173-19.685a255.437,255.437,0,0,1-50.47-19.662,137.081,137.081,0,0,1-17.485-10.585l1.389-1.834c.235.178,24.043,17.955,67.178,29.864,22.788,6.291,39.116,14.328,48.8,19.962,10.535,6.129,15.6,10.713,15.811,10.905Z" transform="translate(-1018.664 -300.032)" fill="#a1afc8"/><path d="M1153.748,682.843a6.788,6.788,0,0,1,.759-3.711,11.48,11.48,0,0,1,3.3-2.734l-98.25-47.693s-2.5-.911-3.949.8-18.671,22.349-18.671,22.349v152.3a8.781,8.781,0,0,0,3.7,4.86l2.845,1.651-3.8-2.759a5.091,5.091,0,0,1-.928-3.389V655.6l15.525-18.4a3.134,3.134,0,0,1,3.89-1.112C1060.5,637.232,1153.748,682.843,1153.748,682.843Z" transform="translate(-536.458 -135.235)" fill="url(#d)"/><path d="M1195.78,541.164,1315.6,471.989l-95.929-47.454a5.064,5.064,0,0,0-2.734-.716,5.693,5.693,0,0,0-3.016.933l-39.057,22.61s31.62,14.826,31.815,15.021,1.9.976.081,1.953-37.007,21.14-37.007,21.14a2.7,2.7,0,0,1-1.312.521,3.622,3.622,0,0,1-1.443-.488L1137.368,470.7a3.957,3.957,0,0,0-1.486-.38,3.032,3.032,0,0,0-1.454.51L1094.4,493.607a3.586,3.586,0,0,1,3.13-.137Z" transform="translate(-574.432 0)" fill="url(#e)"/><path d="M1281.445,512.63l17.023-19.4,31.815,15.021s1.036.3,1.079,1.014-27.854,16.264-27.854,16.264Z" transform="translate(-698.037 -45.869)" fill="url(#f)"/><path d="M1277.07,550.425l-2.246,2.17,21.464,12.36,2.845-1.629Z" transform="translate(-693.661 -83.665)" fill="url(#g)"/><path d="M1269.286,556.822l-2.843,1.909,21.46,12.081,2.847-1.63Z" transform="translate(-688.123 -87.892)" fill="url(#h)"/><path d="M1254.083,562.452l-6.344,4.377,21.186,10.725a1.8,1.8,0,0,0,.849.16,3.711,3.711,0,0,0,1.09-.4l4.679-2.783Z" transform="translate(-675.763 -91.613)" fill="url(#i)"/><path d="M1371.554,1148.725v25.647a9.371,9.371,0,0,0,5.338,1.475c3.385,0,7.551-2.083,7.551-2.083l112.875-65.074a17.024,17.024,0,0,0,2.279-1.855,4.5,4.5,0,0,0,1.074-2.18v-19.724Z" transform="translate(-757.583 -436.882)" fill="url(#j)"/><path d="M1371.554,1266.422s22.219,9.591,23.781,9.287a8.691,8.691,0,0,0,3.047-1.425l-24.03-11.247Z" transform="translate(-757.583 -554.579)" fill="#1f305e"/><path d="M1042.292,818.781V669.855l15.525-18.4s1.72-2.2,3.89-1.112,95.581,46.76,95.581,46.76l16.729,169.052-17.25-8.2-2.8,3.385v25.648l-109.794-63.706A5.67,5.67,0,0,1,1042.292,818.781Z" transform="translate(-539.998 -149.494)" fill="url(#k)"/><path d="M1398,810.513s.553,3.092,3.124,3.613,5.468-1.562,5.468-1.562l113.949-65.127s2.995-2.571,3.906-4.98a20.609,20.609,0,0,0,1.107-5.045l-16.871-168.444s-.108-1.823-1.323-2.387a9.861,9.861,0,0,0-2.213-.738l-119.818,69.174s-2.775,1.546-3.3,2.734a6.7,6.7,0,0,0-.765,3.628C1381.409,642.811,1398,810.513,1398,810.513Z" transform="translate(-763.985 -93.853)" fill="url(#l)"/><path d="M1405.424,662.122l114.763-66.137s1.595-.759,2.408-.239,1.009,2.051,1.009,2.051l15.72,158.832a27.043,27.043,0,0,1-.586,3.45,2.93,2.93,0,0,1-1.79,1.953l-113.135,65.453s-2.116,1.237-3.19.683-.911-3.027-.911-3.027l-16.589-157.964a7.2,7.2,0,0,1,.455-3.168A6.118,6.118,0,0,1,1405.424,662.122Z" transform="translate(-778.434 -113.494)" fill="url(#m)"/><path d="M1452.2,797.585l92.381-52.8s1.736-1.128,1.866-2.257.152-2.821.152-2.821l-8.245-81.369a5.941,5.941,0,0,0-.955-2.409c-.694-.8-2.409,0-2.409,0l-91.936,52.792s-2.647,1.758-3.038,3.277a19.227,19.227,0,0,0-.217,4.4l8.289,78.765s.06,2.094,1.28,2.821C1450.236,798.5,1452.2,797.585,1452.2,797.585Z" transform="translate(-802.659 -153.148)" fill="url(#n)"/><path d="M1534.106,695.873l5.566,53.606a27.071,27.071,0,0,1-1.041,7.421,13.87,13.87,0,0,1-5.468,6.683c-2.17,1.345-73.08,42.355-73.08,42.355a11.849,11.849,0,0,1-4.513,0c-1.91-.521-3.515-5.034-3.515-5.034L1446.8,748.09s-.477-5.338,2-9.417,7.942-6.423,7.942-6.423l70.368-41.1a5.468,5.468,0,0,1,5.338,1.128A5.786,5.786,0,0,1,1534.106,695.873Z" transform="translate(-807.285 -176.487)" fill="url(#o)"/><g transform="translate(697.926 604.439)"><path d="M1672.413,971.016l-1.318-13.475a3.305,3.305,0,0,0-1.009-1.02,2.076,2.076,0,0,0-1.59,0l-16.274,9.157a6.651,6.651,0,0,0-1.389,1.4,3.264,3.264,0,0,0-.4,2.029l.552,8.224-30.409,17.836s-.521.162-.857-.846l.249,3.044s.005.965.7,1.117a2,2,0,0,0,1.416-.408l29.228-17.055.227,2.561a1.644,1.644,0,0,0,1.128,1.324,2.506,2.506,0,0,0,1.4-.174l16.686-10a10.313,10.313,0,0,0,1.464-1.628A4.246,4.246,0,0,0,1672.413,971.016Z" transform="translate(-1619.504 -956.35)" fill="url(#p)"/><path d="M1711.619,971.117l12.007-6.767a1.531,1.531,0,0,1,1.172,0,2.037,2.037,0,0,1,.324.247,1.434,1.434,0,0,1,.45.96l.712,10.435a3.131,3.131,0,0,1-.144,1.536,7.6,7.6,0,0,1-1.08,1.2l-12.127,6.934a1.9,1.9,0,0,1-.4.153,1.692,1.692,0,0,1-.809.079,1.189,1.189,0,0,1-.832-.976c-.136-1.689-.716-11.145-.716-11.145a3.347,3.347,0,0,1,.416-1.624A4.906,4.906,0,0,1,1711.619,971.117Z" transform="translate(-1679.282 -961.553)" fill="#1f305e"/><path d="M1650.2,1002.592a1.521,1.521,0,0,1-.464,1.157c-.5.407-30.009,17.706-30.009,17.706a1.7,1.7,0,0,0-.635,1.172c.032.635.212,2.251.212,2.251s.13.727.553.873a.5.5,0,0,0,.614-.209l29.585-17.353a.392.392,0,0,1,.371.047.709.709,0,0,1,.159.4Z" transform="translate(-1619.089 -986.908)" fill="#1f305e"/><path d="M1748.073,979.482l.262,4.207-4.489-1.769Z" transform="translate(-1701.53 -971.636)" fill="#141728"/><path d="M1661.4,986.67l-41.677,24.263a1.34,1.34,0,0,0-.635,1.172c.06.761.212,2.343.212,2.343s.016.96.683.733a6.082,6.082,0,0,0,.977-.407l44.953-26.349Z" transform="translate(-1619.084 -976.386)" fill="#554f83"/></g><path d="M1473.569,1207.5l-7.052,4.382c-1.226.792-1.535.035-1.535-.916l-1.194-9.238a2.136,2.136,0,0,1,1.15-2.045l7.083-4.332c1.114-.686,1.51.3,1.51.931l1.188,9.52A2,2,0,0,1,1473.569,1207.5Z" transform="translate(-818.535 -509.697)" fill="#9d9eb2"/><g transform="translate(594.622 718.602)"><path d="M1330.064,1304.7l-15.558-8.593v-3.157l15.558,8.853Z" transform="translate(-1314.507 -1292.945)" fill="#1f305e"/><path d="M1314.507,1296.1l2.822-1.551-2.822-1.606Z" transform="translate(-1314.507 -1292.945)" fill="#141728"/></g><g transform="translate(594.622 712.727)"><path d="M1330.064,1287.374l-15.558-8.593v-3.157l15.558,8.853Z" transform="translate(-1314.507 -1275.624)" fill="#1f305e"/><path d="M1314.507,1278.781l2.822-1.551-2.822-1.606Z" transform="translate(-1314.507 -1275.624)" fill="#141728"/></g><g transform="translate(594.622 706.435)"><path d="M1330.064,1268.821l-15.558-8.593v-3.157l15.558,8.853Z" transform="translate(-1314.507 -1257.072)" fill="#1f305e"/><path d="M1314.507,1260.229l2.822-1.551-2.822-1.606Z" transform="translate(-1314.507 -1257.072)" fill="#141728"/></g><g transform="translate(594.622 699.882)"><path d="M1330.064,1249.5l-15.558-8.593v-3.157l15.558,8.853Z" transform="translate(-1314.507 -1237.751)" fill="#1f305e"/><path d="M1314.507,1240.908l2.822-1.551-2.822-1.606Z" transform="translate(-1314.507 -1237.751)" fill="#141728"/></g><g transform="translate(573.054 706.524)"><path d="M1266.474,1269.085l-15.558-8.593v-3.157l15.558,8.853Z" transform="translate(-1250.916 -1257.335)" fill="#1f305e"/><path d="M1250.916,1260.493l2.822-1.551-2.822-1.606Z" transform="translate(-1250.916 -1257.335)" fill="#141728"/></g><g transform="translate(573.054 700.649)"><path d="M1266.474,1251.764l-15.558-8.593v-3.157l15.558,8.853Z" transform="translate(-1250.916 -1240.014)" fill="#1f305e"/><path d="M1250.916,1243.172l2.822-1.551-2.822-1.606Z" transform="translate(-1250.916 -1240.014)" fill="#141728"/></g><g transform="translate(573.054 694.357)"><path d="M1266.474,1233.211l-15.558-8.593v-3.157l15.558,8.853Z" transform="translate(-1250.916 -1221.462)" fill="#1f305e"/><path d="M1250.916,1224.619l2.822-1.551-2.822-1.606Z" transform="translate(-1250.916 -1221.462)" fill="#141728"/></g><g transform="translate(573.054 687.804)"><path d="M1266.474,1213.891l-15.558-8.593v-3.157l15.558,8.853Z" transform="translate(-1250.916 -1202.141)" fill="#1f305e"/><path d="M1250.916,1205.3l2.822-1.551-2.822-1.606Z" transform="translate(-1250.916 -1202.141)" fill="#141728"/></g><g transform="translate(551.312 694.446)"><path d="M1202.371,1233.475l-15.558-8.593v-3.157l15.558,8.853Z" transform="translate(-1186.814 -1221.725)" fill="#1f305e"/><path d="M1186.814,1224.883l2.822-1.551-2.822-1.606Z" transform="translate(-1186.814 -1221.725)" fill="#141728"/></g><g transform="translate(551.312 688.572)"><path d="M1202.371,1216.154l-15.558-8.593V1204.4l15.558,8.853Z" transform="translate(-1186.814 -1204.405)" fill="#1f305e"/><path d="M1186.814,1207.562l2.822-1.551-2.822-1.606Z" transform="translate(-1186.814 -1204.405)" fill="#141728"/></g><g transform="translate(551.312 682.279)"><path d="M1202.371,1197.6l-15.558-8.593v-3.157l15.558,8.853Z" transform="translate(-1186.814 -1185.852)" fill="#1f305e"/><path d="M1186.814,1189.009l2.822-1.551-2.822-1.606Z" transform="translate(-1186.814 -1185.852)" fill="#141728"/></g><g transform="translate(551.312 675.726)"><path d="M1202.371,1178.281l-15.558-8.593v-3.157l15.558,8.853Z" transform="translate(-1186.814 -1166.531)" fill="#1f305e"/><path d="M1186.814,1169.689l2.822-1.551-2.822-1.606Z" transform="translate(-1186.814 -1166.531)" fill="#141728"/></g><g transform="translate(530.134 682.369)"><path d="M1139.932,1197.865l-15.558-8.593v-3.157l15.558,8.853Z" transform="translate(-1124.374 -1186.116)" fill="#1f305e"/><path d="M1124.374,1189.273l2.822-1.551-2.822-1.606Z" transform="translate(-1124.374 -1186.116)" fill="#141728"/></g><g transform="translate(530.134 676.494)"><path d="M1139.932,1180.544l-15.558-8.593v-3.157l15.558,8.853Z" transform="translate(-1124.374 -1168.795)" fill="#1f305e"/><path d="M1124.374,1171.952l2.822-1.551-2.822-1.606Z" transform="translate(-1124.374 -1168.795)" fill="#141728"/></g><g transform="translate(530.134 670.201)"><path d="M1139.932,1161.992l-15.558-8.593v-3.157l15.558,8.853Z" transform="translate(-1124.374 -1150.242)" fill="#1f305e"/><path d="M1124.374,1153.4l2.822-1.551-2.822-1.606Z" transform="translate(-1124.374 -1150.242)" fill="#141728"/></g><g transform="translate(530.134 663.648)"><path d="M1139.932,1142.671l-15.558-8.593v-3.157l15.558,8.853Z" transform="translate(-1124.374 -1130.922)" fill="#1f305e"/><path d="M1124.374,1134.079l2.822-1.551-2.822-1.606Z" transform="translate(-1124.374 -1130.922)" fill="#141728"/></g><g transform="translate(508.87 670.619)"><path d="M1077.237,1163.223l-15.558-8.593v-3.157l15.558,8.853Z" transform="translate(-1061.679 -1151.474)" fill="#1f305e"/><path d="M1061.679,1154.631l2.822-1.551-2.822-1.606Z" transform="translate(-1061.679 -1151.474)" fill="#141728"/></g><g transform="translate(508.87 664.744)"><path d="M1077.237,1145.9l-15.558-8.593v-3.157l15.558,8.853Z" transform="translate(-1061.679 -1134.152)" fill="#1f305e"/><path d="M1061.679,1137.309l2.822-1.551-2.822-1.606Z" transform="translate(-1061.679 -1134.152)" fill="#141728"/></g><g transform="translate(508.87 658.452)"><path d="M1077.237,1127.349l-15.558-8.593V1115.6l15.558,8.853Z" transform="translate(-1061.679 -1115.6)" fill="#1f305e"/><path d="M1061.679,1118.757l2.822-1.551-2.822-1.606Z" transform="translate(-1061.679 -1115.6)" fill="#141728"/></g><g transform="translate(508.87 651.899)"><path d="M1077.237,1108.029l-15.558-8.593v-3.157l15.558,8.853Z" transform="translate(-1061.679 -1096.28)" fill="#1f305e"/><path d="M1061.679,1099.437l2.822-1.551-2.822-1.606Z" transform="translate(-1061.679 -1096.28)" fill="#141728"/></g><g transform="translate(627.863 646.083)"><path d="M1482.553,1251.824s4.078,2.98,7.215,2.98a27.627,27.627,0,0,0,7.372-1.49l188.453-108.853s2.98-1.961,3.058-4.941-2.666-5.019-2.666-5.019l-67.915-52.78s-4.47-2.588-7.293-2.588a30.768,30.768,0,0,0-6.98,1.255l-188.375,108.852s-3.058,1.96-2.9,4.47,2.667,5.411,2.667,5.411Z" transform="translate(-1412.515 -1079.134)" fill="#141728"/><path d="M1412.531,1311.668V1324.6a4.984,4.984,0,0,0,2.274,3.79c2.353,1.8,67.445,47.817,67.445,47.817a17.322,17.322,0,0,0,6.745,2.405,20.677,20.677,0,0,0,7.215-1.307L1684.7,1268.417a36.058,36.058,0,0,0,2.392-3.294c.823-1.373,1.53-7.171,1.53-7.171a7.635,7.635,0,0,1-3.02,4.466c-2.51,1.725-188.453,108.852-188.453,108.852s-5.019,1.49-7.372,1.49-6.725-2.643-6.725-2.643l-67.856-53.038A10.38,10.38,0,0,1,1412.531,1311.668Z" transform="translate(-1412.526 -1197.302)" fill="url(#q)"/><path d="M1412.531,1329.335v15.358a4.984,4.984,0,0,0,2.274,3.791c2.353,1.8,67.445,41,67.445,41a17.32,17.32,0,0,0,6.745,2.405,20.678,20.678,0,0,0,7.215-1.307L1684.7,1281.692a36.067,36.067,0,0,0,2.392-3.294c.823-1.373,1.53-10.5,1.53-10.5s-1.687,5.1-4.2,6.823-187.786,108.7-187.786,108.7-4.588,1.568-6.94,1.568a12.731,12.731,0,0,1-6.706-2.039c-14.822-11.45-67.8-48.2-67.8-48.2S1413.022,1333.537,1412.531,1329.335Z" transform="translate(-1412.526 -1203.873)" fill="#1f305e"/><path d="M1492.766,1228.227l44.388,34.977,12.077-7.372,11.607,9.411,141.477-81.875-12.234-9.411,14.273-7.686-43.917-34.428Z" transform="translate(-1465.547 -1113.966)" fill="#373b41"/><path d="M1987.119,1131.844v8.234l37.8,29.489,6.12-3.3Z" transform="translate(-1792.229 -1113.966)" fill="#141728"/><path d="M1660.437,1131.844l-167.671,96.383,6.08,4.791,161.59-92.94Z" transform="translate(-1465.547 -1113.966)" fill="#141728"/><path d="M2074.521,1256.01v7.32l7,5.122,5.237-3.031Z" transform="translate(-1849.987 -1196.019)" fill="#141728"/><g transform="translate(26.85 15.402)"><g transform="translate(150.447)"><path d="M1959.358,1124.544l7.921,5.777-14.294,8.431-8.025-5.7Z" transform="translate(-1941.666 -1124.544)" fill="url(#r)"/><path d="M1938.542,1149.632l-3.294,8.862,10.274,7.685,1.046-10.849Z" transform="translate(-1935.248 -1141.123)" fill="#1f305e"/><path d="M1966.584,1150.008l14.294-8.431,1.569,9.358-16.908,9.921Z" transform="translate(-1955.265 -1135.8)" fill="#554f83"/></g><g transform="translate(138.748 10.45)"><path d="M1918.56,1155.354l7.921,5.777-7.986,4.634-8.025-5.7Z" transform="translate(-1907.175 -1155.354)" fill="url(#r)"/><path d="M1904.051,1169.248l-3.294,8.862,10.274,7.686,1.045-10.849Z" transform="translate(-1900.758 -1164.535)" fill="#1f305e"/><path d="M1932.094,1177.021l7.986-4.634,1.568,9.359-10.6,6.124Z" transform="translate(-1920.774 -1166.61)" fill="#554f83"/></g><g transform="translate(153.901 16.482)"><path d="M1963.235,1173.14l7.921,5.777-7.986,4.634-8.025-5.7Z" transform="translate(-1951.85 -1173.14)" fill="url(#r)"/><path d="M1948.727,1187.033l-3.294,8.862,10.274,7.686,1.046-10.849Z" transform="translate(-1945.433 -1182.321)" fill="#1f305e"/><path d="M1976.769,1194.807l7.986-4.634,1.569,9.359-10.6,6.124Z" transform="translate(-1965.45 -1184.396)" fill="#554f83"/></g><g transform="translate(127.351 17.142)"><path d="M1884.955,1175.085l7.921,5.777-7.986,4.634-8.025-5.7Z" transform="translate(-1873.571 -1175.085)" fill="url(#r)"/><path d="M1870.447,1188.979l-3.294,8.862,10.274,7.686,1.045-10.849Z" transform="translate(-1867.153 -1184.266)" fill="#1f305e"/><path d="M1898.489,1196.752l7.986-4.634,1.568,9.359-10.6,6.124Z" transform="translate(-1887.17 -1186.341)" fill="#554f83"/></g><g transform="translate(115.679 23.877)"><path d="M1850.542,1194.942l7.921,5.777-7.986,4.634-8.025-5.7Z" transform="translate(-1839.157 -1194.942)" fill="url(#r)"/><path d="M1836.033,1208.835l-3.294,8.862,10.274,7.685,1.045-10.849Z" transform="translate(-1832.74 -1204.123)" fill="#1f305e"/><path d="M1864.076,1216.609l7.986-4.634,1.569,9.359-10.6,6.124Z" transform="translate(-1852.756 -1206.198)" fill="#554f83"/></g><g transform="translate(104.15 30.504)"><path d="M1816.552,1214.48l7.921,5.777-7.986,4.634-8.026-5.7Z" transform="translate(-1805.167 -1214.48)" fill="url(#r)"/><path d="M1802.044,1228.373l-3.294,8.862,10.274,7.686,1.046-10.849Z" transform="translate(-1798.75 -1223.661)" fill="#1f305e"/><path d="M1830.086,1236.147l7.986-4.634,1.569,9.359-10.6,6.124Z" transform="translate(-1818.767 -1225.736)" fill="#554f83"/></g><g transform="translate(92.609 37.177)"><path d="M1782.524,1234.154l7.921,5.777-7.986,4.634-8.025-5.7Z" transform="translate(-1771.14 -1234.154)" fill="url(#r)"/><path d="M1768.016,1248.047l-3.294,8.862,10.274,7.686,1.045-10.849Z" transform="translate(-1764.722 -1243.335)" fill="#1f305e"/><path d="M1796.057,1255.821l7.986-4.634,1.569,9.359-10.6,6.124Z" transform="translate(-1784.739 -1245.41)" fill="#554f83"/></g><g transform="translate(80.937 43.912)"><path d="M1748.11,1254.011l7.921,5.777-7.986,4.634-8.025-5.7Z" transform="translate(-1736.726 -1254.011)" fill="url(#r)"/><path d="M1733.6,1267.9l-3.294,8.862,10.274,7.686,1.046-10.849Z" transform="translate(-1730.308 -1263.192)" fill="#1f305e"/><path d="M1761.644,1275.678l7.986-4.634,1.568,9.359-10.6,6.124Z" transform="translate(-1750.325 -1265.267)" fill="#554f83"/></g><g transform="translate(69.409 50.538)"><path d="M1714.121,1273.549l7.921,5.777-7.986,4.634-8.025-5.7Z" transform="translate(-1702.736 -1273.549)" fill="url(#r)"/><path d="M1699.612,1287.442l-3.294,8.862,10.274,7.686,1.046-10.848Z" transform="translate(-1696.319 -1282.73)" fill="#1f305e"/><path d="M1727.654,1295.216l7.986-4.634,1.569,9.359-10.6,6.124Z" transform="translate(-1716.335 -1284.805)" fill="#554f83"/></g><g transform="translate(57.789 57.12)"><path d="M1679.861,1292.953l7.921,5.777-7.986,4.634-8.025-5.7Z" transform="translate(-1668.477 -1292.953)" fill="url(#r)"/><path d="M1665.353,1306.847l-3.294,8.862,10.274,7.686,1.046-10.849Z" transform="translate(-1662.059 -1302.135)" fill="#1f305e"/><path d="M1693.4,1314.62l7.986-4.634,1.569,9.359-10.6,6.124Z" transform="translate(-1682.076 -1304.209)" fill="#554f83"/></g><g transform="translate(46.117 63.855)"><path d="M1645.448,1312.81l7.921,5.777-7.986,4.634-8.026-5.7Z" transform="translate(-1634.063 -1312.81)" fill="url(#r)"/><path d="M1630.939,1326.7l-3.294,8.862,10.274,7.685,1.046-10.849Z" transform="translate(-1627.646 -1321.991)" fill="#1f305e"/><path d="M1658.982,1334.477l7.986-4.634,1.568,9.359-10.6,6.124Z" transform="translate(-1647.662 -1324.066)" fill="#554f83"/></g><g transform="translate(34.588 70.481)"><path d="M1611.458,1332.348l7.921,5.777-7.986,4.634-8.025-5.7Z" transform="translate(-1600.073 -1332.348)" fill="url(#r)"/><path d="M1596.95,1346.242l-3.294,8.862,10.273,7.685,1.046-10.849Z" transform="translate(-1593.656 -1341.529)" fill="#1f305e"/><path d="M1624.992,1354.015l7.986-4.634,1.568,9.359-10.6,6.124Z" transform="translate(-1613.673 -1343.604)" fill="#554f83"/></g><g transform="translate(23.2 77.184)"><path d="M1577.883,1352.108l7.921,5.777-7.986,4.634-8.025-5.7Z" transform="translate(-1566.498 -1352.108)" fill="url(#r)"/><path d="M1563.375,1366l-3.294,8.862,10.274,7.686,1.046-10.849Z" transform="translate(-1560.081 -1361.29)" fill="#1f305e"/><path d="M1591.416,1373.776l7.986-4.634,1.568,9.358-10.6,6.124Z" transform="translate(-1580.097 -1363.365)" fill="#554f83"/></g><g transform="translate(11.528 83.918)"><path d="M1543.469,1371.965l7.921,5.777-7.986,4.634-8.025-5.7Z" transform="translate(-1532.084 -1371.965)" fill="url(#r)"/><path d="M1528.961,1385.859l-3.294,8.862,10.274,7.686,1.046-10.849Z" transform="translate(-1525.667 -1381.146)" fill="#1f305e"/><path d="M1557,1393.632l7.986-4.634,1.568,9.359-10.6,6.124Z" transform="translate(-1545.684 -1383.221)" fill="#554f83"/></g><g transform="translate(0 90.545)"><path d="M1509.479,1391.5l7.921,5.777-7.986,4.634-8.025-5.7Z" transform="translate(-1498.095 -1391.503)" fill="url(#r)"/><path d="M1494.971,1405.4l-3.294,8.862,10.273,7.686L1503,1411.1Z" transform="translate(-1491.677 -1400.684)" fill="#1f305e"/><path d="M1523.013,1413.171l7.986-4.634,1.569,9.359-10.6,6.124Z" transform="translate(-1511.694 -1402.76)" fill="#554f83"/></g><g transform="translate(167.569 8.81)"><g transform="translate(1.091)"><path d="M1999.15,1150.518l18.3,13.771-4.453,2.463-11.006-7.852-4.953,2.9-8.085-5.586Z" transform="translate(-1988.948 -1150.518)" fill="url(#r)"/><path d="M2057.8,1193.583l4.453-2.463,2.011,9.109-7.51,4.2Z" transform="translate(-2033.757 -1177.35)" fill="#554f83"/><path d="M2010.824,1178.129l4.953-2.9-.758,10.519-5.2,3.137Z" transform="translate(-2002.739 -1166.849)" fill="#554f83"/></g><path d="M2025.913,1175.23l11.006,7.852-1.046,10.849-10.718-8.182Z" transform="translate(-2011.784 -1166.849)" fill="#1f305e"/><path d="M1994.907,1172.892l-.434,4.639-2.451,1.428-.653-3.9-5.637-4.112,1.091-3.644Z" transform="translate(-1985.731 -1161.612)" fill="#1f305e"/></g><g transform="translate(142.373 22.919)"><path d="M1929.245,1192.118l7.921,5.777-7.986,4.634-8.026-5.7Z" transform="translate(-1917.861 -1192.118)" fill="url(#r)"/><path d="M1914.737,1206.012l-3.294,8.862,10.274,7.685,1.046-10.849Z" transform="translate(-1911.443 -1201.3)" fill="#1f305e"/><path d="M1942.779,1213.786l7.986-4.634,1.569,9.359-10.6,6.124Z" transform="translate(-1931.46 -1203.375)" fill="#554f83"/></g><g transform="translate(130.844 29.654)"><path d="M1895.256,1211.975l7.921,5.777-7.986,4.634-8.025-5.7Z" transform="translate(-1883.871 -1211.975)" fill="url(#r)"/><path d="M1880.748,1225.869l-3.294,8.862,10.274,7.686,1.046-10.849Z" transform="translate(-1877.454 -1221.156)" fill="#1f305e"/><path d="M1908.79,1233.642l7.986-4.634,1.568,9.359-10.6,6.124Z" transform="translate(-1897.47 -1223.231)" fill="#554f83"/></g><g transform="translate(119.395 36.165)"><path d="M1861.5,1231.172l7.921,5.777-7.986,4.634-8.025-5.7Z" transform="translate(-1850.113 -1231.172)" fill="url(#r)"/><path d="M1846.989,1245.066l-3.294,8.862,10.273,7.686,1.046-10.849Z" transform="translate(-1843.695 -1240.354)" fill="#1f305e"/><path d="M1875.031,1252.84l7.986-4.634,1.568,9.359-10.6,6.124Z" transform="translate(-1863.712 -1242.429)" fill="#554f83"/></g><g transform="translate(107.866 42.9)"><path d="M1827.508,1251.029l7.921,5.777-7.986,4.634-8.025-5.7Z" transform="translate(-1816.123 -1251.029)" fill="url(#r)"/><path d="M1813,1264.922l-3.294,8.862,10.273,7.686,1.046-10.849Z" transform="translate(-1809.706 -1260.21)" fill="#1f305e"/><path d="M1841.042,1272.7l7.986-4.634,1.569,9.359-10.6,6.124Z" transform="translate(-1829.722 -1262.285)" fill="#554f83"/></g><g transform="translate(96.275 49.877)"><path d="M1793.333,1271.6l7.921,5.777-7.986,4.634-8.025-5.7Z" transform="translate(-1781.949 -1271.598)" fill="url(#r)"/><path d="M1778.825,1285.491l-3.294,8.862,10.274,7.686,1.045-10.849Z" transform="translate(-1775.531 -1280.779)" fill="#1f305e"/><path d="M1806.867,1293.265l7.986-4.634,1.568,9.359-10.6,6.124Z" transform="translate(-1795.548 -1282.854)" fill="#554f83"/></g><g transform="translate(84.747 56.611)"><path d="M1759.344,1291.454l7.921,5.777-7.986,4.634-8.025-5.7Z" transform="translate(-1747.959 -1291.454)" fill="url(#r)"/><path d="M1744.836,1305.348l-3.294,8.862,10.273,7.686,1.046-10.849Z" transform="translate(-1741.542 -1300.636)" fill="#1f305e"/><path d="M1772.878,1313.122l7.986-4.634,1.569,9.359-10.6,6.124Z" transform="translate(-1761.558 -1302.711)" fill="#554f83"/></g><g transform="translate(73.219 63.186)"><path d="M1725.354,1310.839l7.921,5.777-7.986,4.634-8.025-5.7Z" transform="translate(-1713.97 -1310.839)" fill="url(#r)"/><path d="M1710.846,1324.733l-3.294,8.862,10.273,7.686,1.046-10.849Z" transform="translate(-1707.552 -1320.021)" fill="#1f305e"/><path d="M1738.888,1332.507l7.986-4.634,1.568,9.359-10.6,6.124Z" transform="translate(-1727.569 -1322.096)" fill="#554f83"/></g><g transform="translate(61.69 69.921)"><path d="M1691.365,1330.7l7.921,5.777-7.986,4.634-8.025-5.7Z" transform="translate(-1679.98 -1330.696)" fill="url(#r)"/><path d="M1676.856,1344.589l-3.294,8.862,10.274,7.686,1.046-10.849Z" transform="translate(-1673.563 -1339.877)" fill="#1f305e"/><path d="M1704.9,1352.363l7.986-4.634,1.568,9.359-10.6,6.124Z" transform="translate(-1693.579 -1341.952)" fill="#554f83"/></g><g transform="translate(49.848 76.705)"><path d="M1656.45,1350.7l7.921,5.777-7.986,4.634-8.025-5.7Z" transform="translate(-1645.066 -1350.697)" fill="url(#r)"/><path d="M1641.942,1364.59l-3.294,8.862,10.274,7.686,1.046-10.849Z" transform="translate(-1638.648 -1359.878)" fill="#1f305e"/><path d="M1669.984,1372.364l7.986-4.634,1.568,9.359-10.6,6.124Z" transform="translate(-1658.665 -1361.953)" fill="#554f83"/></g><g transform="translate(38.32 83.44)"><path d="M1622.46,1370.553l7.921,5.777-7.986,4.634-8.025-5.7Z" transform="translate(-1611.076 -1370.553)" fill="url(#r)"/><path d="M1607.952,1384.447l-3.294,8.862,10.274,7.685,1.046-10.849Z" transform="translate(-1604.658 -1379.735)" fill="#1f305e"/><path d="M1635.994,1392.221l7.986-4.634,1.568,9.358-10.6,6.124Z" transform="translate(-1624.675 -1381.81)" fill="#554f83"/></g><g transform="translate(26.494 89.696)"><path d="M1587.594,1389l7.921,5.777-7.986,4.634-8.025-5.7Z" transform="translate(-1576.21 -1388.998)" fill="url(#r)"/><path d="M1573.086,1402.892l-3.294,8.862,10.273,7.686,1.046-10.849Z" transform="translate(-1569.792 -1398.18)" fill="#1f305e"/><path d="M1601.128,1410.666l7.986-4.634,1.568,9.359-10.6,6.124Z" transform="translate(-1589.809 -1400.255)" fill="#554f83"/></g><g transform="translate(10.809 96.669)"><path d="M1544.9,1409.559l7.921,5.777-11.532,6.81-8.025-5.7Z" transform="translate(-1529.965 -1409.559)" fill="url(#r)"/><path d="M1526.841,1429.868l-3.294,8.862,10.273,7.685,1.046-10.849Z" transform="translate(-1523.548 -1422.98)" fill="#1f305e"/><path d="M1554.883,1433.4l11.531-6.81,1.569,9.359-14.146,8.3Z" transform="translate(-1543.564 -1420.815)" fill="#554f83"/></g><g transform="translate(169.861 21.854)"><path d="M2010.291,1188.979l7.921,5.777-7.986,4.634-8.025-5.7Z" transform="translate(-1998.906 -1188.979)" fill="url(#r)"/><path d="M1995.782,1202.872l-3.294,8.862,10.273,7.685,1.046-10.849Z" transform="translate(-1992.488 -1198.16)" fill="#1f305e"/><path d="M2023.824,1210.646l7.986-4.634,1.569,9.359-10.6,6.124Z" transform="translate(-2012.505 -1200.235)" fill="#554f83"/></g><g transform="translate(158.737 28.589)"><path d="M1977.494,1208.835l7.921,5.777-7.986,4.634-8.025-5.7Z" transform="translate(-1966.109 -1208.835)" fill="url(#r)"/><path d="M1962.985,1222.729l-3.294,8.862,10.273,7.685,1.046-10.849Z" transform="translate(-1959.692 -1218.016)" fill="#1f305e"/><path d="M1991.028,1230.5l7.986-4.634,1.569,9.359-10.6,6.124Z" transform="translate(-1979.708 -1220.091)" fill="#554f83"/></g><g transform="translate(146.843 35.154)"><path d="M1942.426,1228.191l7.921,5.777-7.986,4.634-8.025-5.7Z" transform="translate(-1931.041 -1228.191)" fill="url(#r)"/><path d="M1927.918,1242.084l-3.294,8.862,10.274,7.686,1.045-10.849Z" transform="translate(-1924.624 -1237.372)" fill="#1f305e"/><path d="M1955.959,1249.858l7.986-4.634,1.569,9.359-10.6,6.124Z" transform="translate(-1944.64 -1239.447)" fill="#554f83"/></g><g transform="translate(135.719 41.889)"><path d="M1909.629,1248.047l7.921,5.777-7.986,4.634-8.025-5.7Z" transform="translate(-1898.245 -1248.047)" fill="url(#r)"/><path d="M1895.121,1261.941l-3.294,8.862,10.273,7.686,1.046-10.849Z" transform="translate(-1891.827 -1257.229)" fill="#1f305e"/><path d="M1923.163,1269.715l7.986-4.634,1.568,9.359-10.6,6.124Z" transform="translate(-1911.844 -1259.304)" fill="#554f83"/></g><g transform="translate(123.783 48.673)"><path d="M1874.436,1268.048l7.921,5.777-7.986,4.634-8.026-5.7Z" transform="translate(-1863.051 -1268.048)" fill="url(#r)"/><path d="M1859.928,1281.942l-3.294,8.862,10.273,7.686,1.046-10.849Z" transform="translate(-1856.634 -1277.229)" fill="#1f305e"/><path d="M1887.97,1289.715l7.986-4.634,1.569,9.359-10.6,6.124Z" transform="translate(-1876.651 -1279.304)" fill="#554f83"/></g><g transform="translate(112.659 55.407)"><path d="M1841.639,1287.9l7.921,5.777-7.986,4.634-8.025-5.7Z" transform="translate(-1830.255 -1287.905)" fill="url(#r)"/><path d="M1827.131,1301.8l-3.294,8.862,10.273,7.685,1.046-10.849Z" transform="translate(-1823.837 -1297.086)" fill="#1f305e"/><path d="M1855.173,1309.572l7.986-4.634,1.569,9.359-10.6,6.124Z" transform="translate(-1843.854 -1299.161)" fill="#554f83"/></g><g transform="translate(100.765 61.972)"><path d="M1806.572,1307.261l7.921,5.777-7.986,4.634-8.025-5.7Z" transform="translate(-1795.187 -1307.261)" fill="url(#r)"/><path d="M1792.063,1321.154l-3.294,8.862,10.273,7.686,1.046-10.849Z" transform="translate(-1788.77 -1316.442)" fill="#1f305e"/><path d="M1820.1,1328.928l7.986-4.634,1.569,9.359-10.6,6.124Z" transform="translate(-1808.786 -1318.517)" fill="#554f83"/></g><g transform="translate(89.642 68.707)"><path d="M1773.775,1327.117l7.921,5.777-7.986,4.634-8.025-5.7Z" transform="translate(-1762.39 -1327.117)" fill="url(#r)"/><path d="M1759.266,1341.011l-3.294,8.862,10.274,7.686,1.046-10.849Z" transform="translate(-1755.973 -1336.298)" fill="#1f305e"/><path d="M1787.308,1348.784l7.986-4.634,1.568,9.359-10.6,6.124Z" transform="translate(-1775.989 -1338.373)" fill="#554f83"/></g><g transform="translate(77.356 75.194)"><path d="M1737.552,1346.242l7.921,5.777-7.986,4.634-8.025-5.7Z" transform="translate(-1726.168 -1346.242)" fill="url(#r)"/><path d="M1723.044,1360.135l-3.294,8.862,10.273,7.686,1.046-10.849Z" transform="translate(-1719.751 -1355.423)" fill="#1f305e"/><path d="M1751.086,1367.909l7.986-4.634,1.568,9.359-10.6,6.124Z" transform="translate(-1739.767 -1357.498)" fill="#554f83"/></g><g transform="translate(66.232 81.928)"><path d="M1704.756,1366.1l7.921,5.777-7.986,4.634-8.025-5.7Z" transform="translate(-1693.371 -1366.098)" fill="url(#r)"/><path d="M1690.247,1379.992l-3.294,8.862,10.274,7.686,1.046-10.849Z" transform="translate(-1686.954 -1375.28)" fill="#1f305e"/><path d="M1718.29,1387.766l7.986-4.634,1.569,9.359-10.6,6.124Z" transform="translate(-1706.97 -1377.354)" fill="#554f83"/></g><g transform="translate(54.338 88.493)"><path d="M1669.688,1385.454l7.921,5.777-7.986,4.634-8.025-5.7Z" transform="translate(-1658.303 -1385.454)" fill="url(#r)"/><path d="M1655.18,1399.347l-3.294,8.862,10.273,7.686,1.046-10.849Z" transform="translate(-1651.886 -1394.635)" fill="#1f305e"/><path d="M1683.222,1407.121l7.986-4.634,1.569,9.359-10.6,6.124Z" transform="translate(-1671.903 -1396.71)" fill="#554f83"/></g><g transform="translate(43.214 95.228)"><path d="M1636.891,1405.311l7.921,5.777-7.986,4.634-8.025-5.7Z" transform="translate(-1625.507 -1405.311)" fill="url(#r)"/><path d="M1622.383,1419.2l-3.294,8.862,10.274,7.686,1.046-10.849Z" transform="translate(-1619.089 -1414.492)" fill="#1f305e"/><path d="M1650.425,1426.978l7.986-4.634,1.569,9.359-10.6,6.124Z" transform="translate(-1639.106 -1416.567)" fill="#554f83"/></g><g transform="translate(21.607 101.688)"><path d="M1583.147,1424.357l7.921,5.777-17.948,10.329-8.025-5.7Z" transform="translate(-1561.801 -1424.357)" fill="url(#r)"/><path d="M1558.677,1455.043l-3.294,8.862,10.274,7.686,1.046-10.849Z" transform="translate(-1555.383 -1444.635)" fill="#1f305e"/><path d="M1586.719,1451.72l17.948-10.33,1.568,9.359-20.562,11.82Z" transform="translate(-1575.4 -1435.613)" fill="#554f83"/></g><g transform="translate(172.383 26.291)"><path d="M2035.151,1202.058l7.921,5.777-25.41,14.869-8.026-5.7Z" transform="translate(-2006.342 -1202.058)" fill="url(#r)"/><path d="M2003.218,1246.129l-3.294,8.862,10.273,7.686,1.046-10.849Z" transform="translate(-1999.925 -1231.181)" fill="#1f305e"/><path d="M2031.26,1233.961l25.41-14.869,1.569,9.359-28.024,16.359Z" transform="translate(-2019.941 -1213.314)" fill="#554f83"/></g><g transform="translate(160.642 43.173)"><path d="M1983.109,1251.832l7.921,5.777-7.986,4.634-8.025-5.7Z" transform="translate(-1971.725 -1251.832)" fill="url(#r)"/><path d="M1968.6,1265.726l-3.294,8.862,10.274,7.686,1.045-10.849Z" transform="translate(-1965.307 -1261.014)" fill="#1f305e"/><path d="M1996.643,1273.5l7.986-4.634,1.569,9.359-10.6,6.124Z" transform="translate(-1985.324 -1263.089)" fill="#554f83"/></g><g transform="translate(149.185 49.849)"><path d="M1949.331,1271.516l7.921,5.777-7.986,4.634-8.025-5.7Z" transform="translate(-1937.947 -1271.516)" fill="url(#r)"/><path d="M1934.823,1285.41l-3.294,8.862,10.273,7.685,1.046-10.849Z" transform="translate(-1931.53 -1280.698)" fill="#1f305e"/><path d="M1962.865,1293.184l7.986-4.634,1.569,9.359-10.6,6.124Z" transform="translate(-1951.546 -1282.773)" fill="#554f83"/></g><g transform="translate(137.664 56.419)"><path d="M1915.362,1290.886l7.921,5.777-7.986,4.634-8.025-5.7Z" transform="translate(-1903.978 -1290.886)" fill="url(#r)"/><path d="M1900.854,1304.78l-3.294,8.862,10.273,7.685,1.046-10.849Z" transform="translate(-1897.561 -1300.068)" fill="#1f305e"/><path d="M1928.9,1312.554l7.986-4.634,1.569,9.359-10.6,6.124Z" transform="translate(-1917.577 -1302.143)" fill="#554f83"/></g><g transform="translate(126.208 63.095)"><path d="M1881.585,1310.571l7.921,5.777-7.986,4.634-8.025-5.7Z" transform="translate(-1870.2 -1310.571)" fill="url(#r)"/><path d="M1867.077,1324.464l-3.294,8.862,10.274,7.685,1.046-10.849Z" transform="translate(-1863.783 -1319.752)" fill="#1f305e"/><path d="M1895.118,1332.238l7.986-4.634,1.568,9.358-10.6,6.124Z" transform="translate(-1883.799 -1321.827)" fill="#554f83"/></g><g transform="translate(114.375 69.937)"><path d="M1846.7,1330.744l7.921,5.777-7.986,4.634-8.025-5.7Z" transform="translate(-1835.312 -1330.744)" fill="url(#r)"/><path d="M1832.189,1344.637l-3.294,8.862,10.274,7.685,1.046-10.849Z" transform="translate(-1828.895 -1339.925)" fill="#1f305e"/><path d="M1860.231,1352.411l7.986-4.634,1.569,9.359-10.6,6.124Z" transform="translate(-1848.912 -1342)" fill="#554f83"/></g><g transform="translate(102.918 76.614)"><path d="M1812.919,1350.428l7.921,5.777-7.986,4.634-8.025-5.7Z" transform="translate(-1801.535 -1350.428)" fill="url(#r)"/><path d="M1798.411,1364.322l-3.294,8.862,10.273,7.685,1.046-10.849Z" transform="translate(-1795.117 -1359.609)" fill="#1f305e"/><path d="M1826.453,1372.1l7.986-4.634,1.568,9.359-10.6,6.124Z" transform="translate(-1815.134 -1361.684)" fill="#554f83"/></g><g transform="translate(91.397 83.183)"><path d="M1778.95,1369.8l7.921,5.777-7.986,4.634-8.025-5.7Z" transform="translate(-1767.566 -1369.798)" fill="url(#r)"/><path d="M1764.442,1383.691l-3.294,8.862,10.274,7.685,1.045-10.849Z" transform="translate(-1761.148 -1378.979)" fill="#1f305e"/><path d="M1792.484,1391.465l7.986-4.634,1.568,9.358-10.6,6.124Z" transform="translate(-1781.165 -1381.054)" fill="#554f83"/></g><g transform="translate(79.94 89.86)"><path d="M1745.173,1389.482l7.921,5.777-7.986,4.634-8.025-5.7Z" transform="translate(-1733.788 -1389.482)" fill="url(#r)"/><path d="M1730.665,1403.375l-3.294,8.862,10.273,7.686,1.046-10.849Z" transform="translate(-1727.371 -1398.663)" fill="#1f305e"/><path d="M1758.706,1411.149l7.986-4.634,1.568,9.359-10.6,6.124Z" transform="translate(-1747.387 -1400.738)" fill="#554f83"/></g><g transform="translate(68.35 96.814)"><path d="M1711,1409.987l7.921,5.777-7.986,4.634-8.026-5.7Z" transform="translate(-1699.614 -1409.987)" fill="url(#r)"/><path d="M1696.49,1423.88l-3.294,8.862,10.274,7.686,1.046-10.849Z" transform="translate(-1693.196 -1419.168)" fill="#1f305e"/><path d="M1724.532,1431.654l7.986-4.634,1.568,9.359-10.6,6.124Z" transform="translate(-1713.213 -1421.243)" fill="#554f83"/></g><g transform="translate(56.828 103.384)"><path d="M1677.03,1429.357l7.921,5.777-7.986,4.634-8.025-5.7Z" transform="translate(-1665.645 -1429.357)" fill="url(#r)"/><path d="M1662.521,1443.25l-3.294,8.862,10.274,7.685,1.046-10.849Z" transform="translate(-1659.227 -1438.538)" fill="#1f305e"/><path d="M1690.563,1451.024l7.986-4.634,1.568,9.359-10.6,6.124Z" transform="translate(-1679.244 -1440.613)" fill="#554f83"/></g><g transform="translate(45.372 110.06)"><path d="M1643.252,1449.041l7.921,5.777-7.986,4.634-8.025-5.7Z" transform="translate(-1631.867 -1449.041)" fill="url(#r)"/><path d="M1628.744,1462.934l-3.294,8.862,10.274,7.686,1.046-10.849Z" transform="translate(-1625.45 -1458.222)" fill="#1f305e"/><path d="M1656.785,1470.708l7.986-4.634,1.568,9.359-10.6,6.124Z" transform="translate(-1645.466 -1460.297)" fill="#554f83"/></g><g transform="translate(33.543 116.902)"><path d="M1608.375,1469.214l7.921,5.777-7.986,4.634-8.025-5.7Z" transform="translate(-1596.991 -1469.214)" fill="url(#r)"/><path d="M1593.867,1483.108l-3.294,8.862,10.274,7.686,1.046-10.849Z" transform="translate(-1590.573 -1478.395)" fill="#1f305e"/><path d="M1621.909,1490.881l7.986-4.634,1.568,9.359-10.6,6.124Z" transform="translate(-1610.59 -1480.47)" fill="#554f83"/></g><g transform="translate(187.463 42.954)"><path d="M2062.187,1251.187l7.921,5.777-7.986,4.634-8.025-5.7Z" transform="translate(-2050.803 -1251.187)" fill="url(#r)"/><path d="M2047.679,1265.081l-3.294,8.862,10.274,7.686,1.046-10.849Z" transform="translate(-2044.385 -1260.369)" fill="#1f305e"/><path d="M2075.721,1272.854l7.986-4.634,1.568,9.359-10.6,6.124Z" transform="translate(-2064.402 -1262.443)" fill="#554f83"/></g><g transform="translate(170.743 49.849)"><path d="M2017.636,1271.516l7.921,5.777-12.731,7.3-8.025-5.7Z" transform="translate(-2001.507 -1271.516)" fill="url(#r)"/><path d="M1998.384,1293.282l-3.294,8.862,10.273,7.686,1.046-10.849Z" transform="translate(-1995.09 -1285.9)" fill="#1f305e"/><path d="M2026.425,1295.854l12.731-7.3,1.568,9.359-15.345,8.794Z" transform="translate(-2015.106 -1282.773)" fill="#554f83"/></g><g transform="translate(85.332 59.328)"><path d="M1834.68,1299.464l7.921,5.777-81.6,47.306-8.025-5.7Z" transform="translate(-1749.685 -1299.464)" fill="url(#r)"/><path d="M1746.561,1439.17l-3.294,8.862,10.274,7.686,1.045-10.849Z" transform="translate(-1743.267 -1391.786)" fill="#1f305e"/><path d="M1774.6,1363.8l81.6-47.306,1.568,9.359-84.211,48.8Z" transform="translate(-1763.284 -1310.72)" fill="#554f83"/></g><g transform="translate(68.931 108.855)"><path d="M1717.459,1445.486l7.921,5.777-12.731,7.3-8.025-5.7Z" transform="translate(-1701.33 -1445.486)" fill="url(#r)"/><path d="M1698.206,1467.251l-3.294,8.862,10.274,7.686,1.046-10.849Z" transform="translate(-1694.912 -1459.869)" fill="#1f305e"/><path d="M1726.248,1469.823l12.731-7.3,1.568,9.359-15.345,8.794Z" transform="translate(-1714.929 -1456.742)" fill="#554f83"/></g><g transform="translate(57.625 118.074)"><path d="M1679.38,1472.668l7.921,5.777-7.986,4.634-8.025-5.7Z" transform="translate(-1667.995 -1472.668)" fill="url(#r)"/><path d="M1664.871,1486.562l-3.294,8.862,10.273,7.685,1.046-10.849Z" transform="translate(-1661.578 -1481.849)" fill="#1f305e"/><path d="M1692.913,1494.335l7.986-4.634,1.568,9.359-10.6,6.124Z" transform="translate(-1681.594 -1483.924)" fill="#554f83"/></g></g><path d="M1685.985,1134.5l-67.915-52.78s-4.47-2.588-7.293-2.588a30.768,30.768,0,0,0-6.98,1.255l-188.375,108.852s-3.058,1.96-2.9,4.47,2.667,5.411,2.667,5.411l67.366,52.7s4.078,2.98,7.215,2.98a27.627,27.627,0,0,0,7.372-1.49l188.453-108.853s2.98-1.961,3.058-4.941S1685.985,1134.5,1685.985,1134.5Zm-36.7,14.035-5.238,3.031h0l-136.239,78.844L1496.2,1221l-12.077,7.372-38.308-30.186h0l-9.133-7.2,170.539-98.631,47.607,37.32-15.819,8.392,7.125,5.2.548,3.268Z" transform="translate(-1412.515 -1079.134)" fill="url(#by)"/></g><g transform="translate(863.643 610.519)"><path d="M2107.847,1070.522a8.559,8.559,0,0,0,0,3.219,5.835,5.835,0,0,0,1.7,2.178l44.406,25.469a8.965,8.965,0,0,0,3.472.884,18.364,18.364,0,0,0,3.6-1.01l28.862-17.153a12.13,12.13,0,0,0,1.42-1.846,9.073,9.073,0,0,0,.426-2.414,11.041,11.041,0,0,1-1.657,2.272,6.659,6.659,0,0,1-1.326.8l-26.558,15.1a14.761,14.761,0,0,1-4.923,1.42,9.25,9.25,0,0,1-3.693-.852l-44-25.186A5.284,5.284,0,0,1,2107.847,1070.522Z" transform="translate(-2107.679 -1037.878)" fill="#554f83"/><path d="M2114.613,1021.111l-6.438,16.759a4.333,4.333,0,0,0,1.728,2.888c1.445.827,42.047,24.16,44,25.186a7.177,7.177,0,0,0,3.693.852l.663-13.045a8.826,8.826,0,0,1-3.724-.984C2152.9,1051.82,2114.613,1021.111,2114.613,1021.111Z" transform="translate(-2108.007 -1005.226)" fill="url(#bz)"/><path d="M2254.558,1085.388l-.663,13.045s1.515.174,4.923-1.42S2286,1081.583,2286,1081.583a8.119,8.119,0,0,0,1.638-1.6c.482-.749.72-1.15.72-1.15l-5.586-9.847a4.2,4.2,0,0,1-1.467,2.461c-1.278,1.042-23.149,13.161-23.149,13.161A8.334,8.334,0,0,1,2254.558,1085.388Z" transform="translate(-2204.302 -1036.864)" fill="url(#ca)"/><path d="M2127.157,990.162a11.023,11.023,0,0,1,2.225-2.462c.9-.521,16.565-9.591,21.682-12.545a8.742,8.742,0,0,1,4.308-.852,8.349,8.349,0,0,1,3.314,1.136l38.677,28.334s1.562,1.775,1.657,2.628-1.006,2.148-1.468,2.461-23.149,13.161-23.149,13.161a6.072,6.072,0,0,1-3.7.851,8.126,8.126,0,0,1-4.885-1.865Z" transform="translate(-2120.55 -974.277)" fill="url(#cb)"/><path d="M2192.448,1020.644l17.832-9.736s1.042-1.136.852-1.515a7.676,7.676,0,0,0-1.467-1.278l-28.326-20.42a1.778,1.778,0,0,0-1.452,0c-.568.378-17.548,10.667-17.548,10.667s-.631.694-.5,1.01,28.089,21.272,28.089,21.272A2.994,2.994,0,0,0,2192.448,1020.644Z" transform="translate(-2143.454 -983.033)" fill="url(#cc)"/><path d="M2145.489,991.295v.757l6.88,2.3a17.2,17.2,0,0,1,2.777,1.389c1.073.726,5.113,3.693,5.113,3.693l13.666-7.7v-.757l-5.113-3.053a13.927,13.927,0,0,0-2.106-1.4c-.829-.379-7.243-2.438-7.243-2.438" transform="translate(-2132.665 -980.762)" fill="#1f305e"/><path d="M2159.462,981.858s6.415,2.059,7.243,2.438a13.958,13.958,0,0,1,2.106,1.4l5.113,3.811-13.666,7.7s-4.04-2.967-5.113-3.693a17.168,17.168,0,0,0-2.777-1.389l-6.88-2.3" transform="translate(-2132.665 -979.287)" fill="url(#cd)"/></g><path d="M1534.106,695.873l5.566,53.606a27.071,27.071,0,0,1-1.041,7.421,13.87,13.87,0,0,1-5.468,6.683c-2.17,1.345-73.08,42.355-73.08,42.355a11.849,11.849,0,0,1-4.513,0c-1.91-.521-3.515-5.034-3.515-5.034L1446.8,748.09s-.477-5.338,2-9.417,7.942-6.423,7.942-6.423l70.368-41.1a5.468,5.468,0,0,1,5.338,1.128A5.786,5.786,0,0,1,1534.106,695.873Z" transform="translate(-807.285 -176.487)" fill="none" stroke="#45447b" stroke-miterlimit="10" stroke-width="7.493"/><path d="M1763.82,996.32a1.08,1.08,0,1,1-1.271.372A.951.951,0,0,1,1763.82,996.32Z" transform="translate(-1015.805 -378.242)" fill="#ff1d25"/><g transform="translate(648.042 690.046)"><path d="M1478.561,1209.156a1.912,1.912,0,0,0-2.362,0,6.366,6.366,0,0,0-2.381,2.781l1.37-.8Z" transform="translate(-1473.204 -1208.751)" fill="#016f36"/><path d="M1478.047,1211.065a2.041,2.041,0,0,0-.565-1.111l-3.376,1.973-1.372.8a6.568,6.568,0,0,0-.554,1.773Z" transform="translate(-1472.121 -1209.546)" fill="#f4bc0c"/><path d="M1472.009,1217.449a3.563,3.563,0,0,0,.07.717l5.859-3.433a4.808,4.808,0,0,0,.061-.752,3.6,3.6,0,0,0-.059-.666l-5.876,3.433A4.782,4.782,0,0,0,1472.009,1217.449Z" transform="translate(-1472.009 -1211.767)" fill="#f00b2e"/><path d="M1472.8,1222.108l4.712-2.762a6.621,6.621,0,0,0,.56-1.745l-5.847,3.417A2.009,2.009,0,0,0,1472.8,1222.108Z" transform="translate(-1472.154 -1214.599)" fill="url(#ce)"/><path d="M1476.3,1225.578a6.331,6.331,0,0,0,2.347-2.708l-4.679,2.734A1.929,1.929,0,0,0,1476.3,1225.578Z" transform="translate(-1473.302 -1218.081)" fill="#059cef"/></g><path d="M1346.292,784.929l-16.244-168.771a8.53,8.53,0,0,1,1.523-4.81,9.995,9.995,0,0,1,2.629-2.285l119.816-69.617.638,1.1-119.823,69.621a8.845,8.845,0,0,0-2.265,1.972,7.3,7.3,0,0,0-1.25,3.959l16.241,168.71Z" transform="translate(-730.155 -76.41)" fill="#515193"/></g></g></svg>