<svg xmlns="http://www.w3.org/2000/svg" width="116.383" height="118.917" viewBox="0 0 116.383 118.917"><path d="M809.708,154.661H786.874a33.551,33.551,0,1,0-49.256-32.832H723.653a2,2,0,0,0,0,4h13.834a33.567,33.567,0,0,0,17.658,28.834H706.2a2.436,2.436,0,0,1-2.436-2.433V144.68a2.439,2.439,0,0,1,2.436-2.436h25.358a2,2,0,0,0,0-4H710.627a2.438,2.438,0,0,1-2.432-2.436v-7.548a2.438,2.438,0,0,1,2.432-2.436,2,2,0,1,0,0-4H706.2a2.439,2.439,0,0,1-2.436-2.436v-7.548a2.438,2.438,0,0,1,2.436-2.432H734.6a2,2,0,0,0,0-4H701.761a2.438,2.438,0,0,1-2.436-2.433V95.431a2.439,2.439,0,0,1,2.436-2.436H706.2a2,2,0,0,0,0-4,2.436,2.436,0,0,1-2.436-2.433V79.013a2.439,2.439,0,0,1,2.436-2.436H746.66a2,2,0,1,0,0-4H710.627a2.438,2.438,0,0,1-2.432-2.436V62.6a2.437,2.437,0,0,1,2.432-2.433,2,2,0,1,0,0-4H706.2a2.438,2.438,0,0,1-2.436-2.433V46.178a2.438,2.438,0,0,1,2.436-2.432h51.27a2.438,2.438,0,0,1,2.436,2.432v7.551a2.438,2.438,0,0,1-2.436,2.433H723.378a2,2,0,0,0,0,4H761.9a2.438,2.438,0,0,1,2.436,2.433v7.548a2.439,2.439,0,0,1-2.436,2.436h-4.435a2,2,0,1,0,0,4,2.439,2.439,0,0,1,2.436,2.436v5.8a2,2,0,0,0,4,0v-5.8a6.408,6.408,0,0,0-.55-2.6,6.441,6.441,0,0,0,4.981-6.268V62.6a6.444,6.444,0,0,0-4.981-6.268,6.392,6.392,0,0,0,.55-2.6V46.178a6.443,6.443,0,0,0-6.437-6.434H706.2a6.443,6.443,0,0,0-6.437,6.434v7.551A6.448,6.448,0,0,0,704.743,60a6.392,6.392,0,0,0-.55,2.6v7.548a6.421,6.421,0,0,0,.55,2.6,6.445,6.445,0,0,0-4.985,6.268v7.548a6.388,6.388,0,0,0,.55,2.6,6.445,6.445,0,0,0-4.981,6.272v7.548a6.444,6.444,0,0,0,4.981,6.268,6.4,6.4,0,0,0-.55,2.6v7.548a6.445,6.445,0,0,0,4.985,6.268,6.408,6.408,0,0,0-.55,2.6v7.548a6.421,6.421,0,0,0,.55,2.6,6.445,6.445,0,0,0-4.985,6.268v7.548a6.443,6.443,0,0,0,6.437,6.434H809.708a2,2,0,1,0,0-4ZM741.453,125.1a29.559,29.559,0,1,1,29.557,29.557A29.593,29.593,0,0,1,741.453,125.1Z" transform="translate(-695.327 -39.744)" fill="#09f"/><path d="M703.146,53.714a2,2,0,1,0,0,4h30.762a2,2,0,0,0,0-4Z" transform="translate(-680.637 -4.465)" fill="#09f"/><path d="M735.18,58.144h-17.2a5.069,5.069,0,0,0-5.055,5.055V75.993a5.068,5.068,0,0,0,5.055,5.052h2.788l-.948.948a2.41,2.41,0,0,0,3.409,3.406l4.347-4.354,7.456,0a.394.394,0,0,1,.395.395V93.919a.394.394,0,0,1-.395.395h-16.9a.4.4,0,0,1-.4-.395V89.883a2.408,2.408,0,1,0-4.816,0v4.192a5.067,5.067,0,0,0,5.055,5.055h17.2a5.069,5.069,0,0,0,5.055-5.055V81.281a5.066,5.066,0,0,0-5.055-5.052h-2.789l.836-.843.257-.257a2.41,2.41,0,0,0-.134-3.2,2.385,2.385,0,0,0-1.7-.737,2.616,2.616,0,0,0-1.72.68l-4.351,4.354h-7.456a.4.4,0,0,1-.395-.395V63.354a.4.4,0,0,1,.395-.4h16.893a.4.4,0,0,1,.4.4v4.033a2.408,2.408,0,1,0,4.816,0V63.2A5.07,5.07,0,0,0,735.18,58.144Z" transform="translate(-650.896 6.723)" fill="#09f"/></svg>