<svg xmlns="http://www.w3.org/2000/svg" width="153.248" height="111.427" viewBox="0 0 153.248 111.427"><path d="M769.288,56.515a11.271,11.271,0,1,0,11.267,11.271A11.283,11.283,0,0,0,769.288,56.515Zm0,18.589a7.319,7.319,0,1,1,7.315-7.319A7.325,7.325,0,0,1,769.288,75.1Z" transform="translate(-696.901 -4.882)" fill="#09f"/><path d="M881.759,49.489H836a1.976,1.976,0,0,0-1.974,1.978c0,5.806,6.765,10.611,16.425,12.406V71.11L828.59,74.967a2,2,0,0,0-.582.226,17.874,17.874,0,0,0-32.4,5.933L773.96,84.746V80.315c9.663-1.794,16.425-6.6,16.425-12.406a1.976,1.976,0,0,0-1.974-1.978H742.659a1.977,1.977,0,0,0-1.978,1.978c0,5.806,6.765,10.611,16.428,12.406v7.322a5.816,5.816,0,0,0,2.648,11.309l35.395-5.912v10.692H755.406a7.969,7.969,0,0,0-7.96,7.957v11.665a1.977,1.977,0,0,0,1.978,1.974h7.523v3.24a5.5,5.5,0,0,0,5.489,5.489h11.708a5.492,5.492,0,0,0,5.485-5.489v-3.24H846.5v3.24a5.492,5.492,0,0,0,5.486,5.489H863.7a5.493,5.493,0,0,0,5.489-5.489v-3.24h7.523a1.976,1.976,0,0,0,1.978-1.974V111.684a7.969,7.969,0,0,0-7.96-7.957H830.98V86.283a1.962,1.962,0,0,0,.518.011l40.355-7.114a5.832,5.832,0,0,0-2.027-11.486l-2.517.444V63.873c9.663-1.794,16.425-6.6,16.425-12.406A1.974,1.974,0,0,0,881.759,49.489ZM745.2,69.883h40.676c-1.738,3.1-7.418,6.007-15.268,6.924-.564.063-1.125.138-1.692.18-1,.074-2.02.12-3.078.127q-.3.005-.6,0c-1.054-.007-2.08-.053-3.074-.127-.567-.042-1.132-.116-1.7-.18C752.611,75.891,746.935,72.979,745.2,69.883Zm20.338,11.2h0c1.481,0,2.919-.078,4.319-.2.053,0,.106,0,.155-.007v4.537l-8.948,1.5V80.868c.049,0,.1,0,.152.007C762.616,81,764.054,81.08,765.535,81.08Zm-6.466,13.975a1.879,1.879,0,1,1-.652-3.7l36.734-6.145v3.818Zm16.608,33.509a1.538,1.538,0,0,1-1.533,1.537H762.436a1.541,1.541,0,0,1-1.537-1.537v-3.24h14.778Zm89.555,0A1.541,1.541,0,0,1,863.7,130.1H851.988a1.538,1.538,0,0,1-1.534-1.537v-3.24h14.778Zm9.5-16.879v9.688H751.4v-9.688a4.009,4.009,0,0,1,4-4H870.725A4.012,4.012,0,0,1,874.733,111.684Zm-75.626-7.957v-18.7a13.961,13.961,0,0,1,27.921,0v18.7Zm71.406-32.141a1.879,1.879,0,0,1,.652,3.7L830.811,82.4c-.032.007-.06.032-.092.039a17.762,17.762,0,0,0-.931-3.673Zm-7.156-7.16v4.41l-8.951,1.576V64.426c.053.007.106,0,.155.007,1.4.127,2.841.2,4.322.2h0c1.481,0,2.915-.078,4.318-.2C863.255,64.43,863.308,64.433,863.357,64.426Zm.6-4.061c-.567.063-1.128.137-1.7.18-.987.074-2,.12-3.046.127-.222,0-.441,0-.663,0-1.044-.007-2.059-.053-3.043-.127-.574-.042-1.142-.116-1.71-.183-7.844-.913-13.52-3.825-15.254-6.917h40.676C877.483,56.536,871.807,59.448,863.96,60.365Z" transform="translate(-740.681 -22.626)" fill="#09f"/><path d="M760.744,79.491a18.29,18.29,0,1,0-18.29-18.29A18.311,18.311,0,0,0,760.744,79.491Zm0-3.518A14.77,14.77,0,1,1,775.512,61.2,14.787,14.787,0,0,1,760.744,75.973Z" transform="translate(-736.204 -39.235)" fill="#09f"/><path d="M757.28,44.995h-8.736a3,3,0,0,0-2.993,3v6.494a3,3,0,0,0,2.993,3h.416a1.658,1.658,0,0,0,.233,2.136,1.692,1.692,0,0,0,1.181.448,1.616,1.616,0,0,0,1.139-.5l2.084-2.08h3.37v5.87h-8.112V61.54a1.653,1.653,0,0,0-3.307,0v2.126a3.006,3.006,0,0,0,2.993,3h8.736a3.009,3.009,0,0,0,3-3v-6.49a3,3,0,0,0-3-3h-.42a1.657,1.657,0,0,0-2.552-2.087l-2.076,2.083h-3.374v-5.87h8.112v1.816a1.655,1.655,0,0,0,3.31,0V48A3,3,0,0,0,757.28,44.995Z" transform="translate(-728.39 -33.975)" fill="#09f"/><path d="M775,41.869h-3.359a8.02,8.02,0,0,0-8.01,8.01v7.548a8.02,8.02,0,0,0,8.01,8.01h56.314a8.018,8.018,0,0,0,8.01-8.01V49.879a8.018,8.018,0,0,0-8.01-8.01H824.6m7.731,8.01v1.953H814.07a1.819,1.819,0,0,0,0,3.638h18.258v1.957a4.378,4.378,0,0,1-4.371,4.371H771.643a4.38,4.38,0,0,1-4.372-4.371V49.879a4.38,4.38,0,0,1,4.372-4.371h56.314A4.378,4.378,0,0,1,832.328,49.879Zm-11.37-8.01H778.64" transform="translate(-682.719 -41.869)" fill="#09f"/><path d="M779.86,44.695H775.4a1.819,1.819,0,0,0,0,3.638h4.463a1.819,1.819,0,0,0,0-3.638Z" transform="translate(-657.604 -34.732)" fill="#09f"/><path d="M770.944,44.695h-1.89a1.819,1.819,0,0,0,0,3.638h1.89a1.819,1.819,0,0,0,0-3.638Z" transform="translate(-673.622 -34.732)" fill="#09f"/></svg>