<svg xmlns="http://www.w3.org/2000/svg" xmlns:xlink="http://www.w3.org/1999/xlink" width="653.981" height="366.177" viewBox="0 0 653.981 366.177"><defs><linearGradient id="a" x1="-5.668" y1="12.535" x2="-4.971" y2="12.535" gradientUnits="objectBoundingBox"><stop offset="0" stop-color="#c0d6ff"/><stop offset="0.298" stop-color="#c4daff"/><stop offset="0.649" stop-color="#d3e9ff"/><stop offset="1" stop-color="#e9ffff"/></linearGradient><linearGradient id="b" x1="-5.544" y1="12.159" x2="-4.849" y2="12.159" gradientUnits="objectBoundingBox"><stop offset="0" stop-color="#e9ffff"/><stop offset="0.351" stop-color="#d3e9ff"/><stop offset="0.702" stop-color="#c4daff"/><stop offset="1" stop-color="#c0d6ff"/></linearGradient><linearGradient id="c" x1="51.669" y1="0.5" x2="52.669" y2="0.5" gradientUnits="objectBoundingBox"><stop offset="0" stop-color="#5778ff"/><stop offset="0.073" stop-color="#5488ff"/><stop offset="0.279" stop-color="#4db2ff"/><stop offset="0.48" stop-color="#48d4ff"/><stop offset="0.672" stop-color="#44ebff"/><stop offset="0.849" stop-color="#42faff"/><stop offset="1" stop-color="#42ffff"/></linearGradient><linearGradient id="d" x1="120.719" y1="0.777" x2="120.719" y2="0.021" xlink:href="#a"/><pattern id="e" preserveAspectRatio="none" width="100%" height="100%" viewBox="0 0 0 0"><image/></pattern><linearGradient id="f" x1="82.152" y1="0.5" x2="83.152" y2="0.5" xlink:href="#a"/><linearGradient id="g" x1="165.936" y1="0.848" x2="165.693" y2="0.192" xlink:href="#a"/><linearGradient id="h" x1="163.803" y1="0.537" x2="163.803" y2="-0.463" gradientUnits="objectBoundingBox"><stop offset="0" stop-color="#5778ff"/><stop offset="0.178" stop-color="#5b7cff"/><stop offset="0.388" stop-color="#6a89ff"/><stop offset="0.613" stop-color="#819fff"/><stop offset="0.849" stop-color="#a2bdff"/><stop offset="1" stop-color="#bcd5ff"/></linearGradient><linearGradient id="i" x1="316.478" y1="0.5" x2="317.478" y2="0.5" xlink:href="#h"/><linearGradient id="j" x1="316.995" y1="0.5" x2="317.995" y2="0.5" xlink:href="#h"/><linearGradient id="k" x1="317.518" y1="0.5" x2="318.518" y2="0.5" xlink:href="#h"/><linearGradient id="l" x1="318.034" y1="0.5" x2="319.034" y2="0.5" xlink:href="#h"/><linearGradient id="m" x1="1237.161" y1="0.5" x2="1238.161" y2="0.5" xlink:href="#a"/><linearGradient id="n" x1="1495.381" y1="0.5" x2="1496.381" y2="0.5" xlink:href="#h"/><linearGradient id="o" x1="1219.728" y1="0.5" x2="1220.728" y2="0.5" xlink:href="#a"/><linearGradient id="p" x1="1474.303" y1="0.5" x2="1475.303" y2="0.5" xlink:href="#h"/><linearGradient id="u" x1="50.121" y1="0.5" x2="51.121" y2="0.5" xlink:href="#c"/><linearGradient id="v" x1="117.148" y1="0.777" x2="117.148" y2="0.021" xlink:href="#a"/><linearGradient id="x" x1="79.692" y1="0.5" x2="80.692" y2="0.5" xlink:href="#a"/><linearGradient id="y" x1="161.015" y1="0.848" x2="160.772" y2="0.192" xlink:href="#a"/><linearGradient id="z" x1="158.882" y1="0.537" x2="158.882" y2="-0.463" xlink:href="#h"/><linearGradient id="aa" x1="306.976" y1="0.5" x2="307.976" y2="0.5" xlink:href="#h"/><linearGradient id="ab" x1="307.497" y1="0.5" x2="308.497" y2="0.5" xlink:href="#h"/><linearGradient id="ac" x1="308.018" y1="0.5" x2="309.018" y2="0.5" xlink:href="#h"/><linearGradient id="ad" x1="308.534" y1="0.5" x2="309.534" y2="0.5" xlink:href="#h"/><linearGradient id="ae" x1="1200.027" y1="0.5" x2="1201.027" y2="0.5" xlink:href="#a"/><linearGradient id="af" x1="1450.513" y1="0.5" x2="1451.513" y2="0.5" xlink:href="#h"/><linearGradient id="ag" x1="1182.595" y1="0.5" x2="1183.595" y2="0.5" xlink:href="#a"/><linearGradient id="ah" x1="1429.435" y1="0.5" x2="1430.435" y2="0.5" xlink:href="#h"/><linearGradient id="aj" x1="1450.513" y1="0.5" x2="1451.513" y2="0.5" xlink:href="#h"/><linearGradient id="am" x1="113.578" y1="0.777" x2="113.578" y2="0.021" xlink:href="#a"/><linearGradient id="ao" x1="77.232" y1="0.5" x2="78.232" y2="0.5" xlink:href="#a"/><linearGradient id="ap" x1="156.095" y1="0.848" x2="155.852" y2="0.192" xlink:href="#a"/><linearGradient id="aq" x1="153.961" y1="0.537" x2="153.961" y2="-0.463" xlink:href="#h"/><linearGradient id="ar" x1="297.478" y1="0.5" x2="298.478" y2="0.5" xlink:href="#h"/><linearGradient id="as" x1="297.995" y1="0.5" x2="298.995" y2="0.5" xlink:href="#h"/><linearGradient id="at" x1="298.511" y1="0.5" x2="299.511" y2="0.5" xlink:href="#h"/><linearGradient id="au" x1="299.033" y1="0.5" x2="300.033" y2="0.5" xlink:href="#h"/><linearGradient id="av" x1="1162.92" y1="0.5" x2="1163.92" y2="0.5" xlink:href="#a"/><linearGradient id="aw" x1="1405.645" y1="0.5" x2="1406.645" y2="0.5" xlink:href="#h"/><linearGradient id="ax" x1="1145.488" y1="0.5" x2="1146.488" y2="0.5" xlink:href="#a"/><linearGradient id="ay" x1="1385.14" y1="0.5" x2="1386.14" y2="0.5" xlink:href="#h"/><linearGradient id="bd" x1="124.763" y1="0.777" x2="124.763" y2="0.021" xlink:href="#a"/><linearGradient id="bf" x1="84.939" y1="0.5" x2="85.939" y2="0.5" xlink:href="#a"/><linearGradient id="bg" x1="171.51" y1="0.848" x2="171.267" y2="0.192" xlink:href="#a"/><linearGradient id="bh" x1="169.376" y1="0.537" x2="169.376" y2="-0.463" xlink:href="#h"/><linearGradient id="bi" x1="327.241" y1="0.5" x2="328.241" y2="0.5" xlink:href="#h"/><linearGradient id="bj" x1="327.76" y1="0.5" x2="328.76" y2="0.5" xlink:href="#h"/><linearGradient id="bk" x1="328.278" y1="0.5" x2="329.278" y2="0.5" xlink:href="#h"/><linearGradient id="bl" x1="328.801" y1="0.5" x2="329.801" y2="0.5" xlink:href="#h"/><linearGradient id="bm" x1="1279.16" y1="0.5" x2="1280.16" y2="0.5" xlink:href="#a"/><linearGradient id="bn" x1="1546.197" y1="0.5" x2="1547.197" y2="0.5" xlink:href="#h"/><linearGradient id="bo" x1="1261.729" y1="0.5" x2="1262.728" y2="0.5" xlink:href="#a"/><linearGradient id="bp" x1="1525.119" y1="0.5" x2="1526.119" y2="0.5" xlink:href="#h"/><linearGradient id="bq" x1="1279.16" y1="0.5" x2="1280.16" y2="0.5" xlink:href="#a"/><linearGradient id="bu" x1="121.192" y1="0.777" x2="121.192" y2="0.021" xlink:href="#a"/><linearGradient id="bw" x1="82.479" y1="0.5" x2="83.479" y2="0.5" xlink:href="#a"/><linearGradient id="bx" x1="166.588" y1="0.848" x2="166.345" y2="0.192" xlink:href="#a"/><linearGradient id="by" x1="164.455" y1="0.537" x2="164.455" y2="-0.463" xlink:href="#h"/><linearGradient id="bz" x1="317.741" y1="0.5" x2="318.741" y2="0.5" xlink:href="#h"/><linearGradient id="ca" x1="318.257" y1="0.5" x2="319.257" y2="0.5" xlink:href="#h"/><linearGradient id="cb" x1="318.778" y1="0.5" x2="319.778" y2="0.5" xlink:href="#h"/><linearGradient id="cc" x1="319.297" y1="0.5" x2="320.297" y2="0.5" xlink:href="#h"/><linearGradient id="cd" x1="1242.053" y1="0.5" x2="1243.054" y2="0.5" xlink:href="#a"/><linearGradient id="ce" x1="1501.329" y1="0.5" x2="1502.329" y2="0.5" xlink:href="#h"/><linearGradient id="cf" x1="1224.621" y1="0.5" x2="1225.622" y2="0.5" xlink:href="#a"/><linearGradient id="cg" x1="1480.251" y1="0.5" x2="1481.251" y2="0.5" xlink:href="#h"/><linearGradient id="cl" x1="117.621" y1="0.777" x2="117.621" y2="0.021" xlink:href="#a"/><linearGradient id="cn" x1="80.018" y1="0.5" x2="81.018" y2="0.5" xlink:href="#a"/><linearGradient id="co" x1="161.668" y1="0.848" x2="161.425" y2="0.192" xlink:href="#a"/><linearGradient id="cp" x1="159.534" y1="0.537" x2="159.534" y2="-0.463" xlink:href="#h"/><linearGradient id="cq" x1="308.234" y1="0.5" x2="309.234" y2="0.5" xlink:href="#h"/><linearGradient id="cr" x1="308.757" y1="0.5" x2="309.757" y2="0.5" xlink:href="#h"/><linearGradient id="cs" x1="309.277" y1="0.5" x2="310.277" y2="0.5" xlink:href="#h"/><linearGradient id="ct" x1="309.793" y1="0.5" x2="310.793" y2="0.5" xlink:href="#h"/><linearGradient id="cu" x1="1204.972" y1="0.5" x2="1205.972" y2="0.5" xlink:href="#a"/><linearGradient id="cv" x1="1456.461" y1="0.5" x2="1457.461" y2="0.5" xlink:href="#h"/><linearGradient id="cw" x1="1187.54" y1="0.5" x2="1188.54" y2="0.5" xlink:href="#a"/><linearGradient id="cx" x1="1435.383" y1="0.5" x2="1436.383" y2="0.5" xlink:href="#h"/><linearGradient id="dc" x1="1.022" y1="0.95" x2="0.314" y2="1.934" xlink:href="#a"/><linearGradient id="de" x1="0.817" y1="0.998" x2="0.109" y2="1.981" xlink:href="#a"/><linearGradient id="df" x1="3.747" y1="4.461" x2="3.038" y2="5.444" xlink:href="#a"/></defs><g transform="translate(-913.166 -212.912)"><g transform="translate(491.957 -384.525)"><path d="M748.683,668.282a6.029,6.029,0,0,1-3.02-.807L713.9,649.135a2.271,2.271,0,0,1,0-3.932l68.826-39.738a6.058,6.058,0,0,1,6.043,0l31.766,18.34a2.271,2.271,0,0,1,0,3.932L751.7,667.475A6.037,6.037,0,0,1,748.683,668.282Zm37.061-62.5a4.907,4.907,0,0,0-2.456.657L714.461,646.18a1.142,1.142,0,0,0,0,1.977l31.765,18.34a4.927,4.927,0,0,0,4.913,0l68.827-39.738a1.141,1.141,0,0,0,0-1.976L788.2,606.444A4.911,4.911,0,0,0,785.744,605.786Z" transform="translate(58.075 1.438)" fill="#09f"/><g transform="translate(568.299 597.437)"><g transform="translate(0 71.609)"><path d="M755,898.18a10.354,10.354,0,0,1-5.076-1.167h0L546.058,778.632a3.832,3.832,0,0,1-2.192-3.257c0-1.507,1.088-3,2.986-4.1L683.825,692.2c3.419-1.974,8.626-2.18,11.606-.457L899.3,810.121a3.832,3.832,0,0,1,2.191,3.257c0,1.506-1.088,3-2.985,4.1L761.529,896.555A13.42,13.42,0,0,1,755,898.18Zm-4.511-2.145c2.671,1.542,7.37,1.337,10.477-.458l136.973-79.082c1.539-.887,2.421-2.023,2.421-3.117a2.767,2.767,0,0,0-1.628-2.28L694.866,692.719c-2.668-1.541-7.369-1.336-10.476.458L547.416,772.26c-1.539.887-2.421,2.023-2.421,3.115a2.765,2.765,0,0,0,1.628,2.28Z" transform="translate(-543.866 -650.495)" fill="#09f"/><path d="M742.8,880.615,565.015,777.377c-2.468-1.426-2.159-3.914.692-5.559L685.16,702.851c2.85-1.645,7.162-1.824,9.63-.4L872.578,805.689c2.468,1.425,2.159,3.914-.692,5.56L752.433,880.215C749.583,881.861,745.271,882.039,742.8,880.615Z" transform="translate(-539.985 -648.32)" fill="#242993" opacity="0.5"/><g transform="translate(5.356 15.754)"><path d="M748.917,869.223,550.188,753.808c-2.749-1.585-2.4-4.357.769-6.189l132.981-60.984c3.172-1.832,7.972-17.822,10.72-16.236l198.73,115.414c2.747,1.586,2.4,4.358-.77,6.189l-132.98,76.776C756.465,870.611,751.666,870.81,748.917,869.223Z" transform="translate(-548.333 -670.289)" fill="url(#a)"/></g><path d="M900.826,775.421l-46.705-3.044L695.055,679.863c-2.83-1.635-7.773-1.429-11.042.458l-102.831,59.37-36.846-2.4v9.916l.034,0a3.239,3.239,0,0,0,1.878,2.777L750.112,868.366c2.83,1.633,7.774,1.428,11.042-.458l136.973-79.082c1.735-1,2.621-2.273,2.675-3.492h.024Z" transform="translate(-543.772 -652.848)" fill="#09f"/><path d="M750.112,862.549,546.247,744.169c-2.831-1.633-2.476-4.487.793-6.375l136.973-79.082c3.269-1.886,8.212-2.091,11.042-.457L898.921,776.634c2.83,1.635,2.475,4.489-.794,6.375L761.154,862.091C757.886,863.978,752.942,864.183,750.112,862.549Z" transform="translate(-543.772 -657.152)" fill="url(#b)"/></g><g transform="translate(42.168)"><g transform="translate(66.498)"><path d="M674.636,638.537l35.594-20.55-35.593-20.55-35.594,20.55Z" transform="translate(-633.573 -597.437)" fill="#bcd5ff"/><path d="M674.124,720,635.186,697.52a1.407,1.407,0,0,1,0-2.438L674.125,672.6a2.848,2.848,0,0,1,2.841,0l38.937,22.48a1.407,1.407,0,0,1,0,2.439L676.965,720a2.852,2.852,0,0,1-2.841,0Zm.517-46.509L635.7,695.972a.381.381,0,0,0,0,.658l38.938,22.48a1.815,1.815,0,0,0,1.811,0l38.938-22.481a.38.38,0,0,0,0-.657l-38.938-22.48a1.811,1.811,0,0,0-1.81,0Z" transform="translate(-634.482 -582.541)" fill="url(#c)"/><g transform="translate(10.903 96.347)" opacity="0.67"><path d="M673.733,712.607l30.161-17.413-30.16-17.413-30.16,17.413Z" transform="translate(-643.574 -677.781)" fill="#242993"/></g><path d="M674.636,704.316l35.594-20.55-35.593-20.549-35.594,20.55Z" transform="translate(-633.573 -584.335)" fill="#fff"/><path d="M639.043,614.574v78.882l35.593,20.55V635.123Z" transform="translate(-633.573 -594.024)" fill="url(#d)"/><path d="M704.318,614.573v78.882l-35.594,20.55V635.124Z" transform="translate(-627.661 -594.024)" fill="#242993"/><g transform="translate(43.473 25.783)" opacity="0.51"><path d="M701.506,618.938v70.9l-30.771,17.766V636.7Z" transform="translate(-670.734 -618.938)" fill="#4553c7"/></g><path d="M643.5,630.467v2.085l24.915,14.385v-2.085Z" transform="translate(-632.687 -590.858)" fill="#4553c7"/><path d="M643.5,637.818V639.9l24.915,14.385V652.2Z" transform="translate(-632.687 -589.394)" fill="#4553c7"/><path d="M643.5,645.17v2.085l24.915,14.385v-2.085Z" transform="translate(-632.687 -587.93)" fill="#4553c7"/><path d="M643.5,652.521v2.085L668.41,668.99v-2.085Z" transform="translate(-632.687 -586.465)" fill="#4553c7"/><path d="M643.5,659.872v2.085l24.915,14.385v-2.085Z" transform="translate(-632.687 -585.001)" fill="#4553c7"/><path d="M643.5,667.224v2.085l24.915,14.385v-2.085Z" transform="translate(-632.687 -583.536)" fill="#4553c7"/><rect width="35.976" height="31.947" transform="translate(40.822 3.876)" opacity="0.78" fill="url(#e)"/><g transform="translate(15.237 4.065)"><path d="M673.014,630.648l25.826-14.911-25.826-14.91-25.826,14.911Z" transform="translate(-647.188 -600.827)" fill="url(#f)"/><path d="M647.188,613.261v1.813l25.826,14.91v-1.813Z" transform="translate(-647.188 -598.35)" fill="url(#g)"/><path d="M694.55,613.26v1.813l-25.826,14.911v-1.813Z" transform="translate(-642.898 -598.35)" fill="url(#h)"/></g><g transform="translate(29.168 11.492)"><g transform="translate(10.416)"><path d="M678.909,614.684l1.145-.661-.095-.536-10.61-6.175-1.473.7.275.457Z" transform="translate(-667.413 -606.962)" fill="#3f38fc"/><path d="M669.369,607.871l-1.142.659-.737-.425,1.879-1.085,11.5,6.637-.737.426Z" transform="translate(-667.49 -607.02)" fill="url(#i)"/></g><g transform="translate(6.944 1.998)"><path d="M676.014,616.351l1.145-.661-.095-.536-10.61-6.175-1.473.7.275.458Z" transform="translate(-664.518 -608.628)" fill="#3f38fc"/><path d="M666.474,609.538l-1.142.659-.737-.425,1.879-1.085,11.5,6.637-.737.425Z" transform="translate(-664.595 -608.687)" fill="url(#j)"/></g><g transform="translate(3.472 3.996)"><path d="M673.119,618.017l1.144-.661-.095-.536-10.61-6.175-1.473.7.275.457Z" transform="translate(-661.623 -610.295)" fill="#3f38fc"/><path d="M663.579,611.2l-1.142.659-.737-.425,1.879-1.085,11.5,6.637-.737.425Z" transform="translate(-661.7 -610.353)" fill="url(#k)"/></g><g transform="translate(0 5.995)"><path d="M670.224,619.683l1.145-.661-.095-.536-10.61-6.175-1.473.7.275.457Z" transform="translate(-658.728 -611.961)" fill="#3f38fc"/><path d="M660.684,612.87l-1.142.659-.737-.425,1.879-1.085,11.5,6.637-.737.425Z" transform="translate(-658.805 -612.019)" fill="url(#l)"/></g></g><g transform="translate(41.062 20.55)" opacity="0.51"><path d="M704.318,680.989,668.724,659.5V635.124l35.594-20.55Z" transform="translate(-668.724 -614.573)" fill="#4553c7"/></g><g transform="translate(42.473 42.001)"><path d="M669.9,635.108a3.126,3.126,0,0,1,1.416-2.452.988.988,0,0,1,1-.1h0l1,.586-.621.022a1.616,1.616,0,0,1,.028.307,3.13,3.13,0,0,1-1.415,2.452,1.661,1.661,0,0,1-.3.137l.289.54-.982-.574h0A.992.992,0,0,1,669.9,635.108Z" transform="translate(-669.9 -632.462)" fill="url(#m)"/><path d="M670.741,635.6c0,.9.634,1.269,1.416.817a3.126,3.126,0,0,0,1.416-2.452c0-.9-.633-1.269-1.416-.818A3.131,3.131,0,0,0,670.741,635.6Z" transform="translate(-669.732 -632.364)" fill="url(#n)"/><path d="M671.243,635.124c0,.519.365.73.814.47a1.8,1.8,0,0,0,.815-1.41c0-.52-.366-.73-.815-.471A1.8,1.8,0,0,0,671.243,635.124Z" transform="translate(-669.633 -632.235)" fill="#3f38fc"/></g><g transform="translate(72.325 23.659)"><path d="M694.793,619.813a3.126,3.126,0,0,1,1.416-2.452.988.988,0,0,1,1-.1h0l1,.586-.621.022a1.631,1.631,0,0,1,.029.307,3.131,3.131,0,0,1-1.416,2.452,1.663,1.663,0,0,1-.3.137l.289.54-.982-.574h0A.992.992,0,0,1,694.793,619.813Z" transform="translate(-694.793 -617.167)" fill="url(#o)"/><path d="M695.634,620.306c0,.9.634,1.269,1.416.817a3.126,3.126,0,0,0,1.416-2.452c0-.9-.633-1.269-1.416-.818A3.133,3.133,0,0,0,695.634,620.306Z" transform="translate(-694.626 -617.069)" fill="url(#p)"/><path d="M696.136,619.829c0,.519.365.73.814.47a1.8,1.8,0,0,0,.815-1.41c0-.521-.365-.73-.815-.471A1.8,1.8,0,0,0,696.136,619.829Z" transform="translate(-694.526 -616.94)" fill="#3f38fc"/></g><g transform="translate(42.473 112.645)"><path d="M669.9,694.018a3.126,3.126,0,0,1,1.416-2.452.991.991,0,0,1,1-.1h0l1,.586-.621.022a1.614,1.614,0,0,1,.028.306,3.13,3.13,0,0,1-1.415,2.454,1.669,1.669,0,0,1-.3.137l.289.54-.982-.574h0A.992.992,0,0,1,669.9,694.018Z" transform="translate(-669.9 -691.372)" fill="url(#m)"/><path d="M670.741,694.51c0,.9.634,1.27,1.416.818a3.126,3.126,0,0,0,1.416-2.452c0-.9-.633-1.27-1.416-.818A3.131,3.131,0,0,0,670.741,694.51Z" transform="translate(-669.732 -691.274)" fill="url(#n)"/><path d="M671.243,694.034c0,.519.365.73.814.47a1.8,1.8,0,0,0,.815-1.411c0-.519-.366-.729-.815-.47A1.8,1.8,0,0,0,671.243,694.034Z" transform="translate(-669.633 -691.145)" fill="#3f38fc"/></g><g transform="translate(72.325 94.304)"><path d="M694.793,678.723a3.126,3.126,0,0,1,1.416-2.452.991.991,0,0,1,1-.1h0l1,.586-.621.022a1.62,1.62,0,0,1,.029.306,3.132,3.132,0,0,1-1.416,2.454,1.662,1.662,0,0,1-.3.137l.289.54-.982-.574h0A.992.992,0,0,1,694.793,678.723Z" transform="translate(-694.793 -676.077)" fill="url(#o)"/><path d="M695.634,679.216c0,.9.634,1.269,1.416.817a3.126,3.126,0,0,0,1.416-2.452c0-.9-.633-1.269-1.416-.818A3.132,3.132,0,0,0,695.634,679.216Z" transform="translate(-694.626 -675.978)" fill="url(#p)"/><path d="M696.136,678.739c0,.519.365.73.814.47a1.8,1.8,0,0,0,.815-1.411c0-.519-.365-.729-.815-.47A1.8,1.8,0,0,0,696.136,678.739Z" transform="translate(-694.526 -675.85)" fill="#3f38fc"/></g><g transform="translate(63.544 37.103)"><path d="M727.625,669.477l35.594-20.55-35.593-20.549-35.594,20.55Z" transform="translate(-686.563 -628.377)" fill="#bcd5ff"/><path d="M727.113,750.94l-38.937-22.48a1.406,1.406,0,0,1,0-2.438l38.938-22.481a2.848,2.848,0,0,1,2.841,0l38.937,22.48a1.407,1.407,0,0,1,0,2.439l-38.938,22.48a2.844,2.844,0,0,1-2.841,0Zm.517-46.508-38.939,22.48a.381.381,0,0,0,0,.658l38.938,22.48a1.815,1.815,0,0,0,1.811,0l38.938-22.481a.38.38,0,0,0,0-.657l-38.938-22.48a1.811,1.811,0,0,0-1.81,0Z" transform="translate(-687.471 -613.481)" fill="url(#u)"/><g transform="translate(10.903 96.348)" opacity="0.67"><path d="M726.722,743.547l30.16-17.413-30.159-17.413-30.161,17.413Z" transform="translate(-696.563 -708.721)" fill="#242993"/></g><path d="M727.625,735.256l35.594-20.55-35.593-20.549-35.594,20.55Z" transform="translate(-686.563 -615.274)" fill="#fff"/><path d="M692.032,645.514V724.4l35.593,20.549V666.063Z" transform="translate(-686.563 -624.964)" fill="url(#v)"/><path d="M757.307,645.513V724.4l-35.594,20.55V666.063Z" transform="translate(-680.65 -624.964)" fill="#242993"/><g transform="translate(43.474 25.783)" opacity="0.51"><path d="M754.495,649.878v70.9l-30.772,17.766v-70.9Z" transform="translate(-723.723 -649.878)" fill="#4553c7"/></g><path d="M696.484,661.407v2.085L721.4,677.876v-2.085Z" transform="translate(-685.676 -621.798)" fill="#4553c7"/><path d="M696.484,668.758v2.085L721.4,685.228v-2.085Z" transform="translate(-685.676 -620.334)" fill="#4553c7"/><path d="M696.484,676.109v2.085L721.4,692.579v-2.085Z" transform="translate(-685.676 -618.869)" fill="#4553c7"/><path d="M696.484,683.461v2.085L721.4,699.93v-2.085Z" transform="translate(-685.676 -617.405)" fill="#4553c7"/><path d="M696.484,690.812V692.9L721.4,707.282V705.2Z" transform="translate(-685.676 -615.941)" fill="#4553c7"/><path d="M696.484,698.163v2.085L721.4,714.633v-2.085Z" transform="translate(-685.676 -614.476)" fill="#4553c7"/><rect width="35.976" height="31.947" transform="translate(40.883 3.9)" opacity="0.78" fill="url(#e)"/><g transform="translate(15.237 4.065)"><path d="M726,661.588l25.826-14.911L726,631.767l-25.826,14.911Z" transform="translate(-700.177 -631.767)" fill="url(#x)"/><path d="M700.177,644.2v1.813L726,660.925v-1.813Z" transform="translate(-700.177 -629.29)" fill="url(#y)"/><path d="M747.539,644.2v1.813l-25.826,14.911v-1.813Z" transform="translate(-695.887 -629.29)" fill="url(#z)"/></g><g transform="translate(29.168 11.492)"><g transform="translate(10.415)"><path d="M731.9,645.624l1.145-.661-.095-.536-10.61-6.175-1.473.7.275.457Z" transform="translate(-720.402 -637.902)" fill="#3f38fc"/><path d="M722.358,638.811l-1.142.66-.737-.425,1.879-1.085,11.5,6.637-.737.425Z" transform="translate(-720.479 -637.96)" fill="url(#aa)"/></g><g transform="translate(6.944 1.998)"><path d="M729,647.29l1.144-.661-.095-.536-10.61-6.174-1.473.7.275.457Z" transform="translate(-717.507 -639.568)" fill="#3f38fc"/><path d="M719.463,640.478l-1.142.659-.737-.425,1.879-1.085,11.5,6.637-.737.425Z" transform="translate(-717.584 -639.627)" fill="url(#ab)"/></g><g transform="translate(3.472 3.996)"><path d="M726.108,648.957l1.145-.661-.095-.536-10.61-6.175-1.473.7.275.457Z" transform="translate(-714.612 -641.235)" fill="#3f38fc"/><path d="M716.568,642.144l-1.142.66-.737-.425,1.879-1.085,11.5,6.637-.737.426Z" transform="translate(-714.689 -641.293)" fill="url(#ac)"/></g><g transform="translate(0 5.995)"><path d="M723.213,650.623l1.145-.661-.095-.536-10.61-6.175-1.473.7.275.457Z" transform="translate(-711.717 -642.901)" fill="#3f38fc"/><path d="M713.673,643.81l-1.142.659-.737-.425,1.879-1.085,11.5,6.637-.737.425Z" transform="translate(-711.794 -642.959)" fill="url(#ad)"/></g></g><g transform="translate(41.062 20.55)" opacity="0.51"><path d="M757.307,711.929l-35.593-21.49V666.063l35.594-20.55Z" transform="translate(-721.713 -645.513)" fill="#4553c7"/></g><g transform="translate(42.473 42.001)"><path d="M722.889,666.048a3.126,3.126,0,0,1,1.416-2.452.991.991,0,0,1,1-.1h0l1,.586-.621.022a1.615,1.615,0,0,1,.029.306,3.131,3.131,0,0,1-1.416,2.453,1.661,1.661,0,0,1-.3.137l.289.54-.982-.575h0A.992.992,0,0,1,722.889,666.048Z" transform="translate(-722.889 -663.402)" fill="url(#ae)"/><path d="M723.73,666.541c0,.9.634,1.269,1.416.817a3.126,3.126,0,0,0,1.416-2.452c0-.9-.633-1.269-1.416-.818A3.131,3.131,0,0,0,723.73,666.541Z" transform="translate(-722.721 -663.303)" fill="url(#af)"/><path d="M724.232,666.064c0,.519.365.73.814.47a1.8,1.8,0,0,0,.815-1.411c0-.519-.365-.729-.815-.47A1.8,1.8,0,0,0,724.232,666.064Z" transform="translate(-722.622 -663.174)" fill="#3f38fc"/></g><g transform="translate(72.325 23.659)"><path d="M747.782,650.753A3.126,3.126,0,0,1,749.2,648.3a.991.991,0,0,1,1-.1h0l1,.586-.621.021a1.516,1.516,0,0,1,.029.306,3.131,3.131,0,0,1-1.416,2.454,1.674,1.674,0,0,1-.3.137l.289.54-.982-.574h0A.992.992,0,0,1,747.782,650.753Z" transform="translate(-747.782 -648.107)" fill="url(#ag)"/><path d="M748.623,651.246c0,.9.634,1.269,1.416.817a3.126,3.126,0,0,0,1.416-2.452c0-.9-.633-1.269-1.416-.818A3.131,3.131,0,0,0,748.623,651.246Z" transform="translate(-747.614 -648.009)" fill="url(#ah)"/><path d="M749.125,650.769c0,.519.365.73.814.47a1.8,1.8,0,0,0,.815-1.41c0-.52-.365-.73-.815-.471A1.8,1.8,0,0,0,749.125,650.769Z" transform="translate(-747.514 -647.88)" fill="#3f38fc"/></g><g transform="translate(42.473 112.646)"><path d="M722.889,724.958a3.126,3.126,0,0,1,1.416-2.452.991.991,0,0,1,1-.1h0l1,.586-.621.022a1.613,1.613,0,0,1,.029.306,3.133,3.133,0,0,1-1.416,2.454,1.66,1.66,0,0,1-.3.137l.289.54-.982-.574h0A.992.992,0,0,1,722.889,724.958Z" transform="translate(-722.889 -722.312)" fill="url(#ae)"/><path d="M723.73,725.45c0,.9.634,1.27,1.416.818a3.126,3.126,0,0,0,1.416-2.452c0-.9-.633-1.27-1.416-.818A3.131,3.131,0,0,0,723.73,725.45Z" transform="translate(-722.721 -722.214)" fill="url(#aj)"/><path d="M724.232,724.974c0,.519.365.73.814.47a1.8,1.8,0,0,0,.815-1.411c0-.519-.365-.729-.815-.47A1.8,1.8,0,0,0,724.232,724.974Z" transform="translate(-722.622 -722.085)" fill="#3f38fc"/></g><g transform="translate(72.325 94.304)"><path d="M747.782,709.663a3.126,3.126,0,0,1,1.416-2.452.991.991,0,0,1,1-.1h0l1,.586-.621.022a1.515,1.515,0,0,1,.029.306,3.133,3.133,0,0,1-1.416,2.454,1.661,1.661,0,0,1-.3.137l.289.54-.982-.574h0A.992.992,0,0,1,747.782,709.663Z" transform="translate(-747.782 -707.017)" fill="url(#ag)"/><path d="M748.623,710.154c0,.9.634,1.27,1.416.818a3.126,3.126,0,0,0,1.416-2.452c0-.9-.633-1.27-1.416-.818A3.131,3.131,0,0,0,748.623,710.154Z" transform="translate(-747.614 -706.919)" fill="url(#ah)"/><path d="M749.125,709.679c0,.519.365.73.814.47a1.8,1.8,0,0,0,.815-1.411c0-.519-.365-.729-.815-.47A1.8,1.8,0,0,0,749.125,709.679Z" transform="translate(-747.514 -706.79)" fill="#3f38fc"/></g></g><g transform="translate(132.558 74.206)"><path d="M780.614,700.417l35.594-20.55-35.593-20.55-35.594,20.55Z" transform="translate(-745.021 -659.317)" fill="#bcd5ff"/><g transform="translate(5.433 96.347)" opacity="0.67"><path d="M779.711,774.487l30.16-17.413-30.16-17.413-30.16,17.413Z" transform="translate(-749.552 -739.661)" fill="#242993"/></g><path d="M780.614,766.2l35.594-20.55L780.615,725.1l-35.594,20.55Z" transform="translate(-745.021 -646.214)" fill="#fff"/><path d="M745.021,676.454v78.882l35.593,20.55V697Z" transform="translate(-745.021 -655.904)" fill="url(#am)"/><path d="M810.3,676.453v78.882L774.7,775.885V697Z" transform="translate(-739.109 -655.904)" fill="#242993"/><g transform="translate(38.004 25.783)" opacity="0.51"><path d="M807.484,680.818v70.9l-30.771,17.766v-70.9Z" transform="translate(-776.713 -680.818)" fill="#4553c7"/></g><path d="M749.473,692.347v2.085l24.915,14.385v-2.085Z" transform="translate(-744.134 -652.738)" fill="#4553c7"/><path d="M749.473,699.7v2.085l24.915,14.385v-2.085Z" transform="translate(-744.134 -651.274)" fill="#4553c7"/><path d="M749.473,707.049v2.085l24.915,14.385v-2.085Z" transform="translate(-744.134 -649.809)" fill="#4553c7"/><path d="M749.473,714.4v2.085l24.915,14.385v-2.085Z" transform="translate(-744.134 -648.345)" fill="#4553c7"/><path d="M749.473,721.752v2.085l24.915,14.385v-2.085Z" transform="translate(-744.134 -646.88)" fill="#4553c7"/><path d="M749.473,729.1v2.085l24.915,14.385v-2.085Z" transform="translate(-744.134 -645.416)" fill="#4553c7"/><rect width="35.976" height="31.947" transform="translate(35.475 3.924)" opacity="0.78" fill="url(#e)"/><g transform="translate(9.767 4.065)"><path d="M778.992,692.528l25.826-14.911-25.826-14.91-25.826,14.911Z" transform="translate(-753.166 -662.707)" fill="url(#ao)"/><path d="M753.166,675.141v1.813l25.825,14.91v-1.813Z" transform="translate(-753.166 -660.23)" fill="url(#ap)"/><path d="M800.528,675.14v1.813L774.7,691.865v-1.813Z" transform="translate(-748.876 -660.23)" fill="url(#aq)"/></g><g transform="translate(23.698 11.492)"><g transform="translate(10.416)"><path d="M784.887,676.564l1.144-.661-.095-.536-10.61-6.175-1.473.7.275.457Z" transform="translate(-773.392 -668.842)" fill="#3f38fc"/><path d="M775.347,669.751l-1.142.659-.737-.425,1.879-1.085,11.5,6.637-.737.425Z" transform="translate(-773.468 -668.9)" fill="url(#ar)"/></g><g transform="translate(6.944 1.998)"><path d="M781.992,678.23l1.145-.661-.095-.536-10.61-6.175-1.473.7.275.457Z" transform="translate(-770.496 -670.508)" fill="#3f38fc"/><path d="M772.452,671.418l-1.142.659-.737-.425,1.879-1.085,11.5,6.637-.737.425Z" transform="translate(-770.573 -670.567)" fill="url(#as)"/></g><g transform="translate(3.472 3.996)"><path d="M779.1,679.9l1.145-.661-.095-.536-10.61-6.175-1.473.7.275.457Z" transform="translate(-767.601 -672.175)" fill="#3f38fc"/><path d="M769.557,673.084l-1.142.66-.737-.425,1.879-1.085,11.5,6.637-.737.425Z" transform="translate(-767.678 -672.233)" fill="url(#at)"/></g><g transform="translate(0 5.995)"><path d="M776.2,681.563l1.145-.661-.095-.536-10.61-6.174-1.473.7.275.457Z" transform="translate(-764.706 -673.841)" fill="#3f38fc"/><path d="M766.662,674.75l-1.142.659-.737-.425,1.879-1.085,11.5,6.637-.737.425Z" transform="translate(-764.783 -673.899)" fill="url(#au)"/></g></g><g transform="translate(35.593 20.55)" opacity="0.51"><path d="M810.3,742.869,774.7,721.379V697l35.594-20.55Z" transform="translate(-774.702 -676.453)" fill="#4553c7"/></g><g transform="translate(37.003 42.001)"><path d="M775.878,696.987a3.126,3.126,0,0,1,1.416-2.452.991.991,0,0,1,1-.1h0l1,.586-.621.022a1.525,1.525,0,0,1,.029.306,3.133,3.133,0,0,1-1.416,2.453,1.664,1.664,0,0,1-.3.137l.289.54-.982-.574h0A.992.992,0,0,1,775.878,696.987Z" transform="translate(-775.878 -694.342)" fill="url(#av)"/><path d="M776.719,697.479c0,.9.634,1.27,1.416.818a3.126,3.126,0,0,0,1.416-2.452c0-.9-.633-1.27-1.416-.818A3.131,3.131,0,0,0,776.719,697.479Z" transform="translate(-775.711 -694.244)" fill="url(#aw)"/><path d="M777.221,697c0,.519.365.73.814.47a1.8,1.8,0,0,0,.815-1.411c0-.519-.365-.729-.815-.47A1.8,1.8,0,0,0,777.221,697Z" transform="translate(-775.61 -694.115)" fill="#3f38fc"/></g><g transform="translate(66.855 23.659)"><path d="M800.771,681.693a3.129,3.129,0,0,1,1.416-2.452.991.991,0,0,1,1-.1h0l1,.586-.62.021a1.623,1.623,0,0,1,.028.306,3.132,3.132,0,0,1-1.416,2.454,1.636,1.636,0,0,1-.3.137l.289.54-.982-.574h0A.992.992,0,0,1,800.771,681.693Z" transform="translate(-800.771 -679.047)" fill="url(#ax)"/><path d="M801.613,682.185c0,.9.633,1.27,1.416.818a3.128,3.128,0,0,0,1.415-2.452c0-.9-.633-1.27-1.415-.818A3.128,3.128,0,0,0,801.613,682.185Z" transform="translate(-800.603 -678.949)" fill="url(#ay)"/><path d="M802.114,681.709c0,.519.365.73.815.47a1.8,1.8,0,0,0,.814-1.411c0-.519-.365-.729-.814-.47A1.8,1.8,0,0,0,802.114,681.709Z" transform="translate(-800.503 -678.82)" fill="#3f38fc"/></g><g transform="translate(37.003 112.645)"><path d="M775.878,755.9a3.13,3.13,0,0,1,1.416-2.454.991.991,0,0,1,1-.1h0l1,.586-.621.022a1.523,1.523,0,0,1,.029.306,3.133,3.133,0,0,1-1.416,2.454,1.673,1.673,0,0,1-.3.137l.289.539-.982-.574h0A.993.993,0,0,1,775.878,755.9Z" transform="translate(-775.878 -753.251)" fill="url(#av)"/><path d="M776.719,756.39c0,.9.634,1.27,1.416.818a3.126,3.126,0,0,0,1.416-2.452c0-.9-.633-1.27-1.416-.818A3.129,3.129,0,0,0,776.719,756.39Z" transform="translate(-775.711 -753.153)" fill="url(#aw)"/><path d="M777.221,755.914c0,.519.365.73.814.47a1.8,1.8,0,0,0,.815-1.411c0-.519-.365-.73-.815-.47A1.8,1.8,0,0,0,777.221,755.914Z" transform="translate(-775.61 -753.024)" fill="#3f38fc"/></g><g transform="translate(66.855 94.303)"><path d="M800.771,740.6a3.129,3.129,0,0,1,1.416-2.452.988.988,0,0,1,1-.1h0l1,.586-.62.022a1.622,1.622,0,0,1,.028.306,3.133,3.133,0,0,1-1.416,2.453,1.625,1.625,0,0,1-.3.137l.289.54-.982-.574h0A.994.994,0,0,1,800.771,740.6Z" transform="translate(-800.771 -737.956)" fill="url(#ax)"/><path d="M801.613,741.095c0,.9.633,1.27,1.416.818a3.128,3.128,0,0,0,1.415-2.452c0-.9-.633-1.27-1.415-.818A3.128,3.128,0,0,0,801.613,741.095Z" transform="translate(-800.603 -737.858)" fill="url(#ay)"/><path d="M802.114,740.619c0,.519.365.73.815.47a1.8,1.8,0,0,0,.814-1.411c0-.519-.365-.73-.814-.47A1.8,1.8,0,0,0,802.114,740.619Z" transform="translate(-800.503 -737.729)" fill="#3f38fc"/></g></g></g><g transform="translate(0 42.842)"><path d="M614.622,674.262l35.594-20.55-35.593-20.549-35.594,20.55Z" transform="translate(-579.03 -633.163)" fill="#bcd5ff"/><g transform="translate(5.433 96.347)" opacity="0.67"><path d="M613.72,748.332l30.16-17.413-30.16-17.413L583.56,730.92Z" transform="translate(-583.56 -713.506)" fill="#242993"/></g><path d="M614.622,740.042l35.594-20.55-35.593-20.549-35.594,20.55Z" transform="translate(-579.03 -620.06)" fill="#fff"/><path d="M579.03,650.3v78.882l35.593,20.549V670.849Z" transform="translate(-579.03 -629.749)" fill="url(#bd)"/><path d="M644.3,650.3v78.882l-35.594,20.55V670.849Z" transform="translate(-573.117 -629.749)" fill="#242993"/><g transform="translate(38.004 25.783)" opacity="0.51"><path d="M641.492,654.663v70.9l-30.772,17.766v-70.9Z" transform="translate(-610.721 -654.663)" fill="#4553c7"/></g><path d="M583.482,666.192v2.085L608.4,682.662v-2.085Z" transform="translate(-578.143 -626.584)" fill="#4553c7"/><path d="M583.482,673.544v2.085L608.4,690.013v-2.085Z" transform="translate(-578.143 -625.119)" fill="#4553c7"/><path d="M583.482,680.895v2.085L608.4,697.365V695.28Z" transform="translate(-578.143 -623.655)" fill="#4553c7"/><path d="M583.482,688.246v2.085L608.4,704.716v-2.085Z" transform="translate(-578.143 -622.19)" fill="#4553c7"/><path d="M583.482,695.6v2.085L608.4,712.067v-2.085Z" transform="translate(-578.143 -620.726)" fill="#4553c7"/><path d="M583.482,702.949v2.085L608.4,719.419v-2.085Z" transform="translate(-578.143 -619.262)" fill="#4553c7"/><rect width="35.976" height="31.947" transform="translate(35.369 3.917)" opacity="0.78" fill="url(#e)"/><g transform="translate(9.767 4.065)"><path d="M613,666.373l25.826-14.911L613,636.552l-25.826,14.911Z" transform="translate(-587.175 -636.552)" fill="url(#bf)"/><path d="M587.175,648.986V650.8L613,665.71V663.9Z" transform="translate(-587.175 -634.076)" fill="url(#bg)"/><path d="M634.537,648.986V650.8L608.71,665.71V663.9Z" transform="translate(-582.885 -634.076)" fill="url(#bh)"/></g><g transform="translate(23.698 11.492)"><g transform="translate(10.415)"><path d="M618.9,650.41l1.144-.661-.095-.536-10.61-6.175-1.473.7.275.458Z" transform="translate(-607.4 -642.688)" fill="#3f38fc"/><path d="M609.356,643.6l-1.142.659-.737-.425,1.879-1.085,11.5,6.637-.737.425Z" transform="translate(-607.477 -642.746)" fill="url(#bi)"/></g><g transform="translate(6.944 1.998)"><path d="M616,652.076l1.145-.661-.095-.536L606.44,644.7l-1.473.7.275.457Z" transform="translate(-604.505 -644.354)" fill="#3f38fc"/><path d="M606.461,645.263l-1.142.66-.737-.425,1.879-1.085,11.5,6.637-.737.425Z" transform="translate(-604.582 -644.412)" fill="url(#bj)"/></g><g transform="translate(3.472 3.996)"><path d="M613.105,653.742l1.145-.661-.095-.536-10.61-6.175-1.473.7.275.457Z" transform="translate(-601.61 -646.02)" fill="#3f38fc"/><path d="M603.566,646.929l-1.142.659-.737-.425,1.879-1.085,11.5,6.637-.737.425Z" transform="translate(-601.686 -646.079)" fill="url(#bk)"/></g><g transform="translate(0 5.995)"><path d="M610.21,655.409l1.145-.661-.095-.536-10.61-6.175-1.473.7.275.457Z" transform="translate(-598.715 -647.686)" fill="#3f38fc"/><path d="M600.67,648.6l-1.142.659-.737-.425,1.879-1.085,11.5,6.637-.737.426Z" transform="translate(-598.791 -647.745)" fill="url(#bl)"/></g></g><g transform="translate(35.593 20.55)" opacity="0.51"><path d="M644.3,716.715l-35.593-21.491V670.849L644.3,650.3Z" transform="translate(-608.71 -650.299)" fill="#4553c7"/></g><g transform="translate(37.003 42.001)"><path d="M609.886,670.834a3.131,3.131,0,0,1,1.416-2.453.993.993,0,0,1,1.006-.1h0l1,.588-.62.022a1.618,1.618,0,0,1,.028.306,3.129,3.129,0,0,1-1.416,2.452,1.489,1.489,0,0,1-.3.137l.289.54-.982-.573h0A.988.988,0,0,1,609.886,670.834Z" transform="translate(-609.886 -668.187)" fill="url(#bm)"/><path d="M610.728,671.326c0,.9.634,1.269,1.416.818a3.133,3.133,0,0,0,1.416-2.454c0-.9-.634-1.269-1.416-.817A3.129,3.129,0,0,0,610.728,671.326Z" transform="translate(-609.718 -668.089)" fill="url(#bn)"/><path d="M611.229,670.849c0,.521.366.73.815.471a1.8,1.8,0,0,0,.814-1.411c0-.519-.365-.73-.814-.47A1.8,1.8,0,0,0,611.229,670.849Z" transform="translate(-609.618 -667.96)" fill="#3f38fc"/></g><g transform="translate(66.854 23.659)"><path d="M634.779,655.539a3.133,3.133,0,0,1,1.416-2.454.993.993,0,0,1,1.006-.1h0l1,.586-.62.022a1.613,1.613,0,0,1,.028.306,3.129,3.129,0,0,1-1.416,2.452,1.49,1.49,0,0,1-.3.137l.289.54-.981-.573h0A.988.988,0,0,1,634.779,655.539Z" transform="translate(-634.779 -652.892)" fill="url(#bo)"/><path d="M635.621,656.031c0,.9.634,1.269,1.416.818a3.131,3.131,0,0,0,1.416-2.453c0-.9-.634-1.269-1.416-.817A3.129,3.129,0,0,0,635.621,656.031Z" transform="translate(-634.611 -652.794)" fill="url(#bp)"/><path d="M636.123,655.554c0,.52.365.73.814.471a1.8,1.8,0,0,0,.814-1.411c0-.519-.365-.73-.814-.47A1.8,1.8,0,0,0,636.123,655.554Z" transform="translate(-634.511 -652.665)" fill="#3f38fc"/></g><g transform="translate(37.003 112.645)"><path d="M609.886,729.742a3.131,3.131,0,0,1,1.416-2.452.993.993,0,0,1,1.006-.1h0l1,.588-.62.022a1.619,1.619,0,0,1,.028.306,3.129,3.129,0,0,1-1.416,2.452,1.547,1.547,0,0,1-.3.137l.289.54-.982-.573h0A.989.989,0,0,1,609.886,729.742Z" transform="translate(-609.886 -727.097)" fill="url(#bq)"/><path d="M610.728,730.236c0,.9.634,1.269,1.416.818a3.133,3.133,0,0,0,1.416-2.454c0-.9-.634-1.269-1.416-.818A3.133,3.133,0,0,0,610.728,730.236Z" transform="translate(-609.718 -726.999)" fill="url(#bn)"/><path d="M611.229,729.759c0,.52.366.73.815.471a1.8,1.8,0,0,0,.814-1.411c0-.519-.365-.73-.814-.47A1.8,1.8,0,0,0,611.229,729.759Z" transform="translate(-609.618 -726.87)" fill="#3f38fc"/></g><g transform="translate(66.854 94.304)"><path d="M634.779,714.449A3.131,3.131,0,0,1,636.2,712a.993.993,0,0,1,1.006-.1h0l1,.588-.62.022a1.612,1.612,0,0,1,.028.306,3.129,3.129,0,0,1-1.416,2.452,1.56,1.56,0,0,1-.3.137l.289.54-.981-.573h0A.988.988,0,0,1,634.779,714.449Z" transform="translate(-634.779 -711.802)" fill="url(#bo)"/><path d="M635.621,714.941c0,.9.634,1.269,1.416.818a3.133,3.133,0,0,0,1.416-2.453c0-.9-.634-1.269-1.416-.817A3.129,3.129,0,0,0,635.621,714.941Z" transform="translate(-634.611 -711.704)" fill="url(#bp)"/><path d="M636.123,714.464c0,.52.365.73.814.471a1.8,1.8,0,0,0,.814-1.411c0-.519-.365-.73-.814-.47A1.8,1.8,0,0,0,636.123,714.464Z" transform="translate(-634.511 -711.575)" fill="#3f38fc"/></g></g><g transform="translate(63.544 79.945)"><path d="M667.611,705.2l35.594-20.55L667.612,664.1l-35.594,20.55Z" transform="translate(-632.019 -664.103)" fill="#bcd5ff"/><g transform="translate(5.433 96.348)" opacity="0.67"><path d="M666.709,779.272l30.16-17.413L666.71,744.446l-30.16,17.413Z" transform="translate(-636.549 -744.446)" fill="#242993"/></g><path d="M667.611,770.981l35.594-20.55-35.593-20.549-35.594,20.55Z" transform="translate(-632.019 -651)" fill="#fff"/><path d="M632.019,681.239v78.882l35.593,20.55V701.789Z" transform="translate(-632.019 -660.689)" fill="url(#bu)"/><path d="M697.293,681.239v78.882L661.7,780.671V701.789Z" transform="translate(-626.107 -660.689)" fill="#242993"/><g transform="translate(38.004 25.783)" opacity="0.51"><path d="M694.482,685.6v70.9L663.71,774.271v-70.9Z" transform="translate(-663.71 -685.603)" fill="#4553c7"/></g><path d="M636.471,697.132v2.085L661.386,713.6v-2.085Z" transform="translate(-631.132 -657.523)" fill="#4553c7"/><path d="M636.471,704.483v2.085l24.915,14.385v-2.085Z" transform="translate(-631.132 -656.059)" fill="#4553c7"/><path d="M636.471,711.835v2.085L661.386,728.3v-2.085Z" transform="translate(-631.132 -654.595)" fill="#4553c7"/><path d="M636.471,719.186v2.085l24.915,14.385v-2.085Z" transform="translate(-631.132 -653.13)" fill="#4553c7"/><path d="M636.471,726.538v2.085l24.915,14.385v-2.085Z" transform="translate(-631.132 -651.666)" fill="#4553c7"/><path d="M636.471,733.889v2.085l24.915,14.385v-2.085Z" transform="translate(-631.132 -650.202)" fill="#4553c7"/><rect width="35.976" height="31.947" transform="translate(35.429 3.942)" opacity="0.78" fill="url(#e)"/><g transform="translate(9.767 4.065)"><path d="M665.989,697.314,691.815,682.4l-25.826-14.91L640.164,682.4Z" transform="translate(-640.164 -667.492)" fill="url(#bw)"/><path d="M640.164,679.926v1.813l25.826,14.91v-1.813Z" transform="translate(-640.164 -665.015)" fill="url(#bx)"/><path d="M687.526,679.926v1.813L661.7,696.65v-1.813Z" transform="translate(-635.874 -665.016)" fill="url(#by)"/></g><g transform="translate(23.698 11.492)"><g transform="translate(10.416)"><path d="M671.885,681.35l1.144-.661-.095-.536-10.61-6.175-1.473.7.275.458Z" transform="translate(-660.389 -673.628)" fill="#3f38fc"/><path d="M662.345,674.537l-1.142.659-.737-.426,1.879-1.085,11.5,6.637-.737.425Z" transform="translate(-660.466 -673.686)" fill="url(#bz)"/></g><g transform="translate(6.944 1.998)"><path d="M668.99,683.016l1.145-.661-.095-.536-10.61-6.175-1.473.7.275.457Z" transform="translate(-657.494 -675.294)" fill="#3f38fc"/><path d="M659.45,676.2l-1.142.659-.737-.425,1.879-1.085,11.5,6.637-.737.425Z" transform="translate(-657.571 -675.352)" fill="url(#ca)"/></g><g transform="translate(3.472 3.996)"><path d="M666.094,684.682l1.144-.661-.095-.536-10.61-6.174-1.473.7.275.457Z" transform="translate(-654.599 -676.96)" fill="#3f38fc"/><path d="M656.555,677.869l-1.142.659-.737-.425,1.879-1.085,11.5,6.637-.737.426Z" transform="translate(-654.675 -677.018)" fill="url(#cb)"/></g><g transform="translate(0 5.995)"><path d="M663.2,686.348l1.145-.661-.095-.536-10.61-6.175-1.473.7.275.457Z" transform="translate(-651.704 -678.626)" fill="#3f38fc"/><path d="M653.659,679.536l-1.142.66-.737-.425,1.879-1.085,11.5,6.637-.737.425Z" transform="translate(-651.78 -678.685)" fill="url(#cc)"/></g></g><g transform="translate(35.593 20.55)" opacity="0.51"><path d="M697.293,747.655,661.7,726.164V701.789l35.594-20.55Z" transform="translate(-661.699 -681.239)" fill="#4553c7"/></g><g transform="translate(37.003 42.001)"><path d="M662.875,701.774a3.131,3.131,0,0,1,1.416-2.453.993.993,0,0,1,1.006-.1h0l1,.588-.62.022a1.618,1.618,0,0,1,.028.306,3.129,3.129,0,0,1-1.416,2.452,1.557,1.557,0,0,1-.3.137l.289.54-.981-.573h0A.988.988,0,0,1,662.875,701.774Z" transform="translate(-662.875 -699.127)" fill="url(#cd)"/><path d="M663.717,702.266c0,.9.634,1.269,1.416.818a3.133,3.133,0,0,0,1.416-2.454c0-.9-.634-1.269-1.416-.817A3.129,3.129,0,0,0,663.717,702.266Z" transform="translate(-662.707 -699.029)" fill="url(#ce)"/><path d="M664.219,701.789c0,.52.365.73.814.471a1.8,1.8,0,0,0,.814-1.411c0-.519-.365-.73-.814-.47A1.8,1.8,0,0,0,664.219,701.789Z" transform="translate(-662.607 -698.9)" fill="#3f38fc"/></g><g transform="translate(66.854 23.659)"><path d="M687.768,686.479a3.132,3.132,0,0,1,1.416-2.454.993.993,0,0,1,1.006-.1h0l1,.588-.62.022a1.618,1.618,0,0,1,.028.306,3.129,3.129,0,0,1-1.416,2.452,1.571,1.571,0,0,1-.3.137l.289.54-.982-.573h0A.99.99,0,0,1,687.768,686.479Z" transform="translate(-687.768 -683.832)" fill="url(#cf)"/><path d="M688.61,686.971c0,.9.634,1.269,1.416.818a3.133,3.133,0,0,0,1.416-2.454c0-.9-.634-1.269-1.416-.817A3.129,3.129,0,0,0,688.61,686.971Z" transform="translate(-687.6 -683.734)" fill="url(#cg)"/><path d="M689.112,686.494c0,.52.365.73.814.471a1.8,1.8,0,0,0,.814-1.411c0-.519-.365-.73-.814-.47A1.8,1.8,0,0,0,689.112,686.494Z" transform="translate(-687.5 -683.605)" fill="#3f38fc"/></g><g transform="translate(37.003 112.646)"><path d="M662.875,760.682a3.131,3.131,0,0,1,1.416-2.452.993.993,0,0,1,1.006-.1h0l1,.588-.62.021a1.639,1.639,0,0,1,.028.307,3.129,3.129,0,0,1-1.416,2.452,1.556,1.556,0,0,1-.3.137l.289.54-.981-.574h0A.989.989,0,0,1,662.875,760.682Z" transform="translate(-662.875 -758.037)" fill="url(#cd)"/><path d="M663.717,761.176c0,.9.634,1.269,1.416.818a3.133,3.133,0,0,0,1.416-2.454c0-.9-.634-1.269-1.416-.818A3.133,3.133,0,0,0,663.717,761.176Z" transform="translate(-662.707 -757.939)" fill="url(#ce)"/><path d="M664.219,760.7c0,.521.365.73.814.47a1.8,1.8,0,0,0,.814-1.41c0-.519-.365-.73-.814-.47A1.8,1.8,0,0,0,664.219,760.7Z" transform="translate(-662.607 -757.81)" fill="#3f38fc"/></g><g transform="translate(66.854 94.304)"><path d="M687.768,745.387a3.131,3.131,0,0,1,1.416-2.452.993.993,0,0,1,1.006-.1h0l1,.588-.62.022a1.617,1.617,0,0,1,.028.306,3.129,3.129,0,0,1-1.416,2.452,1.579,1.579,0,0,1-.3.137l.289.54-.982-.573h0A.991.991,0,0,1,687.768,745.387Z" transform="translate(-687.768 -742.742)" fill="url(#cf)"/><path d="M688.61,745.881c0,.9.634,1.269,1.416.818a3.133,3.133,0,0,0,1.416-2.454c0-.9-.634-1.269-1.416-.818A3.133,3.133,0,0,0,688.61,745.881Z" transform="translate(-687.6 -742.644)" fill="url(#cg)"/><path d="M689.112,745.4c0,.521.365.73.814.471a1.8,1.8,0,0,0,.814-1.411c0-.519-.365-.73-.814-.47A1.8,1.8,0,0,0,689.112,745.4Z" transform="translate(-687.5 -742.515)" fill="#3f38fc"/></g></g><g transform="translate(127.088 117.048)"><path d="M720.6,736.142l35.594-20.55L720.6,695.043l-35.594,20.55Z" transform="translate(-685.008 -695.043)" fill="#bcd5ff"/><g transform="translate(5.433 96.347)" opacity="0.67"><path d="M719.7,810.212l30.16-17.413L719.7,775.386,689.539,792.8Z" transform="translate(-689.539 -775.386)" fill="#242993"/></g><path d="M720.6,801.921l35.594-20.55L720.6,760.822l-35.594,20.55Z" transform="translate(-685.008 -681.94)" fill="#fff"/><path d="M685.008,712.179v78.882L720.6,811.611V732.729Z" transform="translate(-685.008 -691.629)" fill="url(#cl)"/><path d="M750.282,712.179v78.882l-35.594,20.55V732.729Z" transform="translate(-679.095 -691.629)" fill="#242993"/><g transform="translate(38.004 25.783)" opacity="0.51"><path d="M747.47,716.543v70.9L716.7,805.211v-70.9Z" transform="translate(-716.699 -716.543)" fill="#4553c7"/></g><path d="M689.46,728.072v2.085l24.915,14.385v-2.085Z" transform="translate(-684.121 -688.463)" fill="#4553c7"/><path d="M689.46,735.423v2.085l24.915,14.385v-2.085Z" transform="translate(-684.121 -686.999)" fill="#4553c7"/><path d="M689.46,742.775v2.085l24.915,14.385v-2.085Z" transform="translate(-684.121 -685.535)" fill="#4553c7"/><path d="M689.46,750.126v2.085L714.375,766.6v-2.085Z" transform="translate(-684.121 -684.07)" fill="#4553c7"/><path d="M689.46,757.477v2.085l24.915,14.385v-2.085Z" transform="translate(-684.121 -682.606)" fill="#4553c7"/><path d="M689.46,764.829v2.085L714.375,781.3v-2.085Z" transform="translate(-684.121 -681.142)" fill="#4553c7"/><rect width="35.976" height="31.947" transform="translate(35.491 3.966)" opacity="0.78" fill="url(#e)"/><g transform="translate(9.767 4.065)"><path d="M718.978,728.253,744.8,713.342l-25.826-14.91-25.826,14.911Z" transform="translate(-693.153 -698.432)" fill="url(#cn)"/><path d="M693.153,710.866v1.813l25.826,14.91v-1.813Z" transform="translate(-693.153 -695.955)" fill="url(#co)"/><path d="M740.515,710.866v1.813L714.688,727.59v-1.813Z" transform="translate(-688.863 -695.956)" fill="url(#cp)"/></g><g transform="translate(23.698 11.492)"><g transform="translate(10.415)"><path d="M724.874,712.29l1.145-.661-.095-.536-10.61-6.175-1.473.7.275.457Z" transform="translate(-713.378 -704.568)" fill="#3f38fc"/><path d="M715.334,705.477l-1.142.659-.737-.425,1.879-1.085,11.5,6.637-.737.426Z" transform="translate(-713.455 -704.626)" fill="url(#cq)"/></g><g transform="translate(6.944 1.998)"><path d="M721.979,713.956l1.145-.661-.1-.536-10.61-6.175-1.473.7.275.457Z" transform="translate(-710.483 -706.234)" fill="#3f38fc"/><path d="M712.439,707.143l-1.142.659-.737-.425,1.879-1.085,11.5,6.637-.737.425Z" transform="translate(-710.56 -706.292)" fill="url(#cr)"/></g><g transform="translate(3.472 3.996)"><path d="M719.084,715.622l1.145-.661-.095-.536-10.61-6.175-1.473.7.275.458Z" transform="translate(-707.588 -707.9)" fill="#3f38fc"/><path d="M709.544,708.809l-1.142.659-.737-.425,1.879-1.085,11.5,6.637-.737.425Z" transform="translate(-707.665 -707.958)" fill="url(#cs)"/></g><g transform="translate(0 5.995)"><path d="M716.188,717.288l1.145-.661-.095-.536-10.61-6.175-1.473.7.275.457Z" transform="translate(-704.693 -709.566)" fill="#3f38fc"/><path d="M706.649,710.476l-1.142.659-.737-.426,1.879-1.085,11.5,6.637-.737.425Z" transform="translate(-704.769 -709.625)" fill="url(#ct)"/></g></g><g transform="translate(35.593 20.55)" opacity="0.51"><path d="M750.282,778.595,714.689,757.1V732.729l35.594-20.55Z" transform="translate(-714.688 -712.179)" fill="#4553c7"/></g><g transform="translate(37.003 42.001)"><path d="M715.864,732.712a3.131,3.131,0,0,1,1.416-2.452.992.992,0,0,1,1.006-.1h0l1,.588-.62.02a1.641,1.641,0,0,1,.028.307,3.129,3.129,0,0,1-1.416,2.452,1.55,1.55,0,0,1-.3.137l.289.54-.981-.574h0A.991.991,0,0,1,715.864,732.712Z" transform="translate(-715.864 -730.067)" fill="url(#cu)"/><path d="M716.706,733.206c0,.9.634,1.269,1.416.818a3.133,3.133,0,0,0,1.416-2.454c0-.9-.634-1.269-1.416-.818A3.133,3.133,0,0,0,716.706,733.206Z" transform="translate(-715.696 -729.969)" fill="url(#cv)"/><path d="M717.208,732.729c0,.52.365.73.814.471a1.8,1.8,0,0,0,.814-1.411c0-.519-.364-.73-.814-.47A1.8,1.8,0,0,0,717.208,732.729Z" transform="translate(-715.596 -729.84)" fill="#3f38fc"/></g><g transform="translate(66.854 23.659)"><path d="M740.757,717.419a3.132,3.132,0,0,1,1.416-2.454.993.993,0,0,1,1.006-.1h0l1,.588-.62.022a1.619,1.619,0,0,1,.028.306,3.126,3.126,0,0,1-1.416,2.452,1.569,1.569,0,0,1-.3.137l.289.54-.982-.573h0A.99.99,0,0,1,740.757,717.419Z" transform="translate(-740.757 -714.772)" fill="url(#cw)"/><path d="M741.6,717.911c0,.9.634,1.269,1.416.818a3.133,3.133,0,0,0,1.416-2.454c0-.9-.634-1.269-1.416-.818A3.133,3.133,0,0,0,741.6,717.911Z" transform="translate(-740.589 -714.674)" fill="url(#cx)"/><path d="M742.1,717.434c0,.52.365.73.814.471a1.8,1.8,0,0,0,.814-1.411c0-.519-.364-.73-.814-.47A1.8,1.8,0,0,0,742.1,717.434Z" transform="translate(-740.489 -714.545)" fill="#3f38fc"/></g><g transform="translate(37.003 112.645)"><path d="M715.864,791.622a3.129,3.129,0,0,1,1.416-2.452.99.99,0,0,1,1.006-.1h0l1,.588-.62.021a1.639,1.639,0,0,1,.028.307,3.129,3.129,0,0,1-1.416,2.452,1.63,1.63,0,0,1-.3.137l.289.54-.981-.574h0A.992.992,0,0,1,715.864,791.622Z" transform="translate(-715.864 -788.977)" fill="url(#cu)"/><path d="M716.706,792.116c0,.9.634,1.269,1.416.818a3.133,3.133,0,0,0,1.416-2.453c0-.9-.634-1.269-1.416-.818A3.133,3.133,0,0,0,716.706,792.116Z" transform="translate(-715.696 -788.879)" fill="url(#cv)"/><path d="M717.208,791.639c0,.519.365.73.814.47a1.8,1.8,0,0,0,.814-1.41c0-.52-.364-.73-.814-.47A1.8,1.8,0,0,0,717.208,791.639Z" transform="translate(-715.596 -788.75)" fill="#3f38fc"/></g><g transform="translate(66.854 94.304)"><path d="M740.757,776.327a3.131,3.131,0,0,1,1.416-2.452.993.993,0,0,1,1.006-.1h0l1,.588-.62.02a1.639,1.639,0,0,1,.028.307,3.126,3.126,0,0,1-1.416,2.452,1.564,1.564,0,0,1-.3.137l.289.54-.982-.574h0A.991.991,0,0,1,740.757,776.327Z" transform="translate(-740.757 -773.682)" fill="url(#cw)"/><path d="M741.6,776.821c0,.9.634,1.269,1.416.818a3.133,3.133,0,0,0,1.416-2.454c0-.9-.634-1.269-1.416-.818A3.133,3.133,0,0,0,741.6,776.821Z" transform="translate(-740.589 -773.584)" fill="url(#cx)"/><path d="M742.1,776.344c0,.519.365.73.814.47a1.8,1.8,0,0,0,.814-1.41c0-.519-.364-.73-.814-.47A1.8,1.8,0,0,0,742.1,776.344Z" transform="translate(-740.489 -773.455)" fill="#3f38fc"/></g></g></g></g><g transform="translate(897.637 663.56)"><path d="M889.454,757.93l-51.8-29.907c-.886-.512-.776-1.405.248-2l51.3-29.619a3.844,3.844,0,0,1,3.457-.143l51.8,29.907c.886.511.775,1.4-.248,2l-51.3,29.619A3.844,3.844,0,0,1,889.454,757.93Z" transform="translate(-814.803 -643.943)" fill="#242993" opacity="0.5"/><path d="M894.617,773.537a4.841,4.841,0,0,1-2.392-.562l-72.6-41.915a1.985,1.985,0,0,1-1.121-1.705,2.539,2.539,0,0,1,1.469-2.071l71.906-41.515a5.919,5.919,0,0,1,5.41-.2l72.6,41.918a1.985,1.985,0,0,1,1.12,1.7,2.536,2.536,0,0,1-1.468,2.071l-71.906,41.515A6.182,6.182,0,0,1,894.617,773.537Zm.286-87.4a5.092,5.092,0,0,0-2.464.609l-71.906,41.515c-.566.327-.9.736-.9,1.092a.945.945,0,0,0,.555.728L892.789,772a4.849,4.849,0,0,0,4.28-.2l71.906-41.515c.565-.327.9-.734.9-1.092a.943.943,0,0,0-.556-.726l-72.6-41.919A3.727,3.727,0,0,0,894.9,686.137Z" transform="translate(-818.499 -646.117)" fill="#09f"/><g transform="translate(22.253 22.141)"><path d="M945.051,710.551v-9.993l-16.277.011-36.112-20.849a3.844,3.844,0,0,0-3.457.143l-35.953,20.757-16.195.011,0,10.018h.01a1.029,1.029,0,0,0,.586.83l51.8,29.907a3.843,3.843,0,0,0,3.457-.144l51.3-29.619A1.459,1.459,0,0,0,945.051,710.551Z" transform="translate(-837.056 -669.38)" fill="#09f"/><path d="M889.454,733.05l-51.8-29.907c-.886-.511-.776-1.4.248-2l51.3-29.619a3.843,3.843,0,0,1,3.457-.144l51.8,29.907c.886.512.775,1.405-.248,2l-51.3,29.619A3.84,3.84,0,0,1,889.454,733.05Z" transform="translate(-837.056 -671.04)" fill="url(#dc)"/><path d="M889.454,733.05l-51.8-29.907c-.886-.511-.776-1.4.248-2l51.3-29.619a3.843,3.843,0,0,1,3.457-.144l51.8,29.907c.886.512.775,1.405-.248,2l-51.3,29.619A3.84,3.84,0,0,1,889.454,733.05Z" transform="translate(-837.056 -671.04)" fill="url(#dc)"/><path d="M888.617,728.96,842.7,702.451c-.785-.453-.687-1.246.221-1.77L888.4,674.427a3.4,3.4,0,0,1,3.064-.127l45.916,26.509c.785.453.686,1.246-.221,1.769l-45.475,26.255A3.4,3.4,0,0,1,888.617,728.96Z" transform="translate(-836.037 -670.452)" fill="#242993"/><path d="M888.086,726.366,845.9,702.011c-.722-.416-.631-1.144.2-1.625l41.779-24.122a3.13,3.13,0,0,1,2.815-.116L932.883,700.5c.721.416.631,1.144-.2,1.625L890.9,726.249A3.128,3.128,0,0,1,888.086,726.366Z" transform="translate(-835.391 -670.079)" fill="#4553c7"/><g transform="translate(46.525 25.188)"><path d="M882.1,696.448l-4.933-2.848,2.694-1.555,4.933,2.848Z" transform="translate(-875.591 -692.045)" fill="#42ffff"/><path d="M890.191,695.639l-4.933,2.848-2.694-1.555,4.933-2.848Z" transform="translate(-874.516 -691.638)" fill="#42ffff"/><path d="M881.24,696.514l-2.694,1.555-2.694-1.555,2.694-1.555Z" transform="translate(-875.853 -691.464)" fill="#42ffff"/><path d="M889.845,701.482l-2.694,1.555-7.767-4.484L882.078,697Z" transform="translate(-875.149 -691.058)" fill="#42ffff"/></g></g><path d="M945.059,688.784l-22.035.131-30.362-17.53a3.843,3.843,0,0,0-3.457.144L858.425,689.3l-21.367.127v12.981l.013.007a1.087,1.087,0,0,0,.583.729l51.8,29.907a3.844,3.844,0,0,0,3.457-.143l51.3-29.619a1.572,1.572,0,0,0,.813-.933l.034-.019Z" transform="translate(-814.802 -648.899)" fill="#42ffff" opacity="0.4"/><g transform="translate(22.253)"><path d="M945.051,692.087v-9.992l-16.277.011-36.112-20.85a3.844,3.844,0,0,0-3.457.144l-35.953,20.757-16.195.011,0,10.018h.01a1.026,1.026,0,0,0,.586.829l51.8,29.907a3.844,3.844,0,0,0,3.457-.143l51.3-29.619A1.46,1.46,0,0,0,945.051,692.087Z" transform="translate(-837.056 -650.917)" fill="#09f"/><path d="M889.454,714.587l-51.8-29.907c-.886-.512-.776-1.405.248-2l51.3-29.62a3.844,3.844,0,0,1,3.457-.143l51.8,29.907c.886.512.775,1.405-.248,2l-51.3,29.62A3.844,3.844,0,0,1,889.454,714.587Z" transform="translate(-837.056 -652.577)" fill="url(#de)"/><path d="M888.617,710.5,842.7,683.987c-.785-.453-.687-1.245.221-1.769L888.4,655.964a3.4,3.4,0,0,1,3.064-.127l45.916,26.509c.785.453.686,1.245-.221,1.769L891.681,710.37A3.4,3.4,0,0,1,888.617,710.5Z" transform="translate(-836.037 -651.989)" fill="#242993"/><path d="M888.086,707.9,845.9,683.548c-.722-.417-.631-1.144.2-1.626L887.883,657.8a3.126,3.126,0,0,1,2.815-.116l42.185,24.354c.721.417.631,1.145-.2,1.626L890.9,707.786A3.128,3.128,0,0,1,888.086,707.9Z" transform="translate(-835.391 -651.615)" fill="#4553c7"/><g transform="translate(31.824 17.476)"><g transform="translate(13.003 19.528)"><path d="M874.437,685.493v-2.059l11.743.027.015,2.064Z" transform="translate(-874.437 -683.434)" fill="#41fafa"/></g><g transform="translate(8.168 17.683)"><path d="M878.172,686.532l3.817,0,.078,3.992q-3.313.016-6.615-.168a8.089,8.089,0,0,1-3.27-.963,3.208,3.208,0,0,1-1.723-2.109,43.421,43.421,0,0,1,.146-5.392l3.544.02a2.6,2.6,0,0,1,.049.359c.022,1.29.112,2.583.03,3.872a1.592,1.592,0,0,0,.8,1.618,5.922,5.922,0,0,0,3.285.395Z" transform="translate(-870.406 -681.896)" fill="#41fafa"/></g><g transform="translate(33.758 12.091)"><path d="M895.317,677.233l.08,6.7-3.551,0-.1-6.7Z" transform="translate(-891.745 -677.233)" fill="#41fafa"/></g><g transform="translate(25.756)"><path d="M888.937,671.155h-3.809l-.056-4.005c1.968.034,4.122-.028,6.23.122a8.493,8.493,0,0,1,3.527,1.012,3.254,3.254,0,0,1,1.808,2.316c.149,1.721.037,3.445.042,5.161l-3.86-.013-.026-3.047q-.005-.775-.019-1.548a.884.884,0,0,0,0-.355,1.434,1.434,0,0,0-.754-.9,3.9,3.9,0,0,0-2.142-.435c-.3,0-.61-.036-1.269-.076.1.377.194.655.245.944S888.915,670.907,888.937,671.155Z" transform="translate(-885.072 -667.15)" fill="#41fafa"/></g><g transform="translate(0 0.034)" style="isolation:isolate"><g transform="translate(20.659 4.69)"><path d="M892.634,671.117l.02,2.025-11.821-.03-.011-2.023Z" transform="translate(-880.822 -671.089)" fill="#41fafa"/></g><g transform="translate(0 4.534)"><path d="M870.39,675.478l.04,2.22-6.816-.014a17.979,17.979,0,0,1,.229-3.8c.542-1.736,3.2-2.978,6.243-2.92,2.755,0,5.508,0,8.154.007l.042,2.324c-.544-.011-1.255-.035-1.967-.04q-2.88-.009-5.761-.014c-2.057,0-2.982.54-2.986,1.742,0,.159-.035.321-.065.579Z" transform="translate(-863.594 -670.959)" fill="#41fafa"/></g><g transform="translate(25.665 4.614)"><path d="M897.6,673.265c.018-.351.053-.708.047-1.078s-.053-.74-.084-1.143c.206-.013.412-.018.619-.018a9.378,9.378,0,0,1,4.61,1.1,3.287,3.287,0,0,1,1.919,2.659c.022,1.013.031,2.027.046,3.064-.222.012-.378.028-.542.029-4.261-.01-8.52-.01-12.782-.032-.1,0-.2,0-.3,0a9.178,9.178,0,0,1-4.222-1.095,3.164,3.164,0,0,1-1.909-2.877l3.884.044a1.636,1.636,0,0,0,.78,1.253,5.392,5.392,0,0,0,2.552.41l7.685.017c.273,0,.546-.01.811-.014.188-.87.024-1.45-.608-1.816A5.8,5.8,0,0,0,897.6,673.265Z" transform="translate(-884.996 -671.026)" fill="#41fafa"/></g><g transform="translate(7.876)"><path d="M870.188,671.1c-.314-1.977,2.19-3.724,5.6-3.907q3.108-.056,6.216.077c-.013.265-.046.616-.044.968.012,2.292.124,4.583.016,6.87-.006.066-.014.131-.025.2-.335,1.983-3.38,3.427-6.8,3.227l.007-2.206a3.194,3.194,0,0,0,2.761-.977.621.621,0,0,0,.147-.268q-.034-2.8-.074-5.6c-2.478-.261-3.631.225-3.985,1.636Z" transform="translate(-870.162 -667.178)" fill="#41fafa"/></g><g transform="translate(8.043 7.448)"><path d="M870.3,673.389l3.559.045.082,6.7-3.562,0Z" transform="translate(-870.301 -673.389)" fill="#41fafa"/></g><g transform="translate(30.588 14.981)"><path d="M897.125,681.926l.052-2.255,6.726,0a28.824,28.824,0,0,1,.076,3.352c-.163,1.787-2.607,3.216-5.691,3.328-3,.088-6.01-.044-9.186-.084.01-.592.026-1.239.038-1.882,0-.078.023-.155.042-.282l5.45.016c.863,0,1.728.008,2.591,0a4.377,4.377,0,0,0,.685,0c1.4-.11,2.377-.856,2.183-1.667a5.44,5.44,0,0,1,.063-.6Z" transform="translate(-889.101 -679.671)" fill="#41fafa"/></g><g transform="translate(0.19 14.76)"><path d="M870.666,684.141c.01.074.029.154.031.233.017.644.03,1.289.047,1.977a9.6,9.6,0,0,1-5.065-1.1,3.522,3.522,0,0,1-1.886-2.3c-.1-1.14.011-2.287.029-3.467,1.808.006,3.7.008,5.593.017,2.649.01,5.3-.02,7.944.044l.09,0a8.989,8.989,0,0,1,4.065,1.075,3.087,3.087,0,0,1,1.874,2.885L879.6,683.5a3.126,3.126,0,0,0-.482-.97,1.736,1.736,0,0,0-.422-.333,3.336,3.336,0,0,0-1.637-.391c-3.092-.013-6.182-.007-9.27-.008a1.284,1.284,0,0,0,.544,1.763A6.067,6.067,0,0,0,870.666,684.141Z" transform="translate(-863.753 -679.487)" fill="#41fafa"/></g><g transform="translate(25.76 14.835)"><path d="M896.832,687.025c.282,1.483-1.084,2.906-3.406,3.546a9.949,9.949,0,0,1-2.379.384c-1.914.04-3.839-.015-5.821-.032a2.269,2.269,0,0,1-.054-.339c-.031-2.358-.076-4.715-.084-7.072-.006-.071-.011-.142-.013-.212-.019-2.066,2.855-3.745,6.422-3.75.138,0,.275.008.348.011l.028,2.121a15.906,15.906,0,0,0-2.112.64,1.123,1.123,0,0,0-.676.836c-.036,1.836.025,3.676.05,5.51,2.711.162,3.53-.189,3.94-1.644Z" transform="translate(-885.075 -679.549)" fill="#41fafa"/></g></g></g></g></g><path d="M834.242,878.042a4.749,4.749,0,0,1-2.377-.634l-51.156-29.638.567-.976L832.43,876.43a3.632,3.632,0,0,0,3.623,0l165.977-95.28a.846.846,0,0,0,0-1.463l-64.47-37.2.565-.979,64.47,37.2a1.976,1.976,0,0,1,0,3.421l-165.978,95.28A4.739,4.739,0,0,1,834.242,878.042Z" transform="translate(71.61 28.699)" fill="#09f"/><g transform="translate(430.196 783.83)"><path d="M502.415,840.878l-51.8-29.907c-.886-.512-.775-1.405.248-2l51.3-29.62a3.841,3.841,0,0,1,3.456-.143l51.8,29.907c.886.511.775,1.406-.248,2l-51.3,29.619A3.841,3.841,0,0,1,502.415,840.878Z" transform="translate(-424.458 -747.69)" fill="#242993" opacity="0.5"/><path d="M508.12,858.71a5.049,5.049,0,0,1-2.484-.582L429.86,814.38a2.048,2.048,0,0,1-1.157-1.757,2.627,2.627,0,0,1,1.521-2.142l75.047-43.327a6.171,6.171,0,0,1,5.622-.21l75.773,43.748a2.054,2.054,0,0,1,1.158,1.758,2.627,2.627,0,0,1-1.522,2.141l-75.046,43.328A6.419,6.419,0,0,1,508.12,858.71Zm-1.92-1.561a5.08,5.08,0,0,0,4.493-.209l75.046-43.328c.6-.345.956-.781.956-1.162a1,1,0,0,0-.594-.778l-75.773-43.749a5.078,5.078,0,0,0-4.492.21l-75.047,43.328c-.6.345-.956.779-.956,1.162a1,1,0,0,0,.592.778Z" transform="translate(-428.703 -750.181)" fill="#09f"/><g transform="translate(25.558)"><path d="M558.012,792.379v-9.992l-16.277.011-36.114-20.85a3.841,3.841,0,0,0-3.456.144l-35.953,20.757-16.2.011,0,10.017h.01a1.027,1.027,0,0,0,.585.83l51.8,29.907a3.844,3.844,0,0,0,3.457-.143l51.3-29.62A1.457,1.457,0,0,0,558.012,792.379Z" transform="translate(-450.016 -751.209)" fill="#09f"/><path d="M502.415,814.879l-51.8-29.907c-.886-.512-.775-1.405.248-2l51.3-29.62a3.841,3.841,0,0,1,3.456-.143l51.8,29.907c.886.511.775,1.406-.248,2l-51.3,29.619A3.841,3.841,0,0,1,502.415,814.879Z" transform="translate(-450.016 -752.869)" fill="url(#df)"/><path d="M501.578,810.788l-45.916-26.509c-.785-.453-.687-1.245.219-1.769l45.475-26.255a3.408,3.408,0,0,1,3.064-.127l45.916,26.51c.785.453.687,1.245-.219,1.769l-45.475,26.254A3.4,3.4,0,0,1,501.578,810.788Z" transform="translate(-448.997 -752.281)" fill="#242993"/><path d="M501.047,808.194,458.863,783.84c-.722-.417-.632-1.145.2-1.626l41.779-24.121a3.128,3.128,0,0,1,2.816-.116l42.184,24.354c.722.417.632,1.144-.2,1.626l-41.779,24.12A3.128,3.128,0,0,1,501.047,808.194Z" transform="translate(-448.351 -751.907)" fill="#4553c7"/></g></g><path d="M512.507,909.3a6.085,6.085,0,0,1-3.038-.811L422.1,858.264a1.783,1.783,0,0,1,0-3.09l49.353-28.367.561.979-49.35,28.367a.655.655,0,0,0,0,1.133l87.366,50.227a4.952,4.952,0,0,0,4.947,0L678.094,815.29l.555.983-163.111,92.22A6.068,6.068,0,0,1,512.507,909.3Z" transform="translate(0 43.395)" fill="#09f"/><path d="M527.937,720.378a4.524,4.524,0,0,1-2.259-.6l-32.551-18.8a2.254,2.254,0,0,1,0-3.906l32.55-18.792a4.525,4.525,0,0,1,4.517,0l32.551,18.794a2.254,2.254,0,0,1,0,3.906l-32.55,18.794A4.52,4.52,0,0,1,527.937,720.378Zm0-41.571a3.394,3.394,0,0,0-1.695.452L493.69,698.052a1.127,1.127,0,0,0,0,1.95L526.242,718.8a3.389,3.389,0,0,0,3.388,0L562.181,700a1.126,1.126,0,0,0,0-1.95l-32.552-18.795A3.39,3.39,0,0,0,527.935,678.807Z" transform="translate(14.101 15.983)" fill="#09f"/><path d="M779.733,900.024a5.875,5.875,0,0,1-2.938-.784l-31.052-17.928a2.8,2.8,0,0,1,0-4.853l31.051-17.928a5.9,5.9,0,0,1,5.876,0l31.053,17.929a2.8,2.8,0,0,1,0,4.853l-31.052,17.927A5.875,5.875,0,0,1,779.733,900.024Zm0-41.149a4.742,4.742,0,0,0-2.374.634l-31.049,17.928a1.671,1.671,0,0,0,0,2.895l31.051,17.928a4.757,4.757,0,0,0,4.748,0l31.052-17.928a1.671,1.671,0,0,0,0-2.895L782.1,859.509A4.737,4.737,0,0,0,779.732,858.875Z" transform="translate(64.366 51.852)" fill="#09f"/><path d="M637.9,884.709a5.869,5.869,0,0,1-2.938-.785L603.908,866a2.8,2.8,0,0,1,0-4.853l31.051-17.928a5.9,5.9,0,0,1,5.876,0l31.053,17.929a2.8,2.8,0,0,1,0,4.853l-31.052,17.927A5.862,5.862,0,0,1,637.9,884.709Zm0-41.15a4.743,4.743,0,0,0-2.374.636l-31.049,17.928a1.671,1.671,0,0,0,0,2.895l31.051,17.928a4.758,4.758,0,0,0,4.748,0l31.052-17.928a1.671,1.671,0,0,0,0-2.895L640.27,844.194A4.739,4.739,0,0,0,637.9,843.558Z" transform="translate(36.113 48.801)" fill="#09f"/><path d="M506.424,730.545a7.182,7.182,0,0,1-3.59-.958L472.15,711.871a2.613,2.613,0,0,1,0-4.527l9.372-5.365a7.2,7.2,0,0,1,7.18,0L519.385,719.7a2.614,2.614,0,0,1,0,4.526l-9.373,5.366A7.181,7.181,0,0,1,506.424,730.545Zm-21.312-28.395a6.052,6.052,0,0,0-3.027.807l-9.372,5.366a1.483,1.483,0,0,0,0,2.569L503.4,728.608a6.066,6.066,0,0,0,6.05,0l9.373-5.366a1.483,1.483,0,0,0,0-2.568l-30.684-17.717A6.05,6.05,0,0,0,485.112,702.151Z" transform="translate(9.887 20.633)" fill="#09f"/><path d="M487.4,742.388a7.178,7.178,0,0,1-3.59-.959l-30.684-17.716a2.615,2.615,0,0,1,0-4.527l9.372-5.365a7.2,7.2,0,0,1,7.178,0l30.684,17.716a2.613,2.613,0,0,1,0,4.527l-9.372,5.366A7.183,7.183,0,0,1,487.4,742.388Zm-21.314-28.4a6.038,6.038,0,0,0-3.024.808l-9.372,5.364a1.485,1.485,0,0,0,0,2.57l30.684,17.714a6.063,6.063,0,0,0,6.05,0l9.372-5.365a1.483,1.483,0,0,0,0-2.569L469.114,714.8A6.046,6.046,0,0,0,466.088,713.993Z" transform="translate(6.098 22.992)" fill="#09f"/><path d="M653.936,895.852a7.183,7.183,0,0,1-3.589-.957l-9.371-5.366a2.612,2.612,0,0,1,0-4.526l30.684-17.717a7.212,7.212,0,0,1,7.18,0l9.369,5.366a2.612,2.612,0,0,1,0,4.526L657.526,894.9A7.187,7.187,0,0,1,653.936,895.852Zm18.288-27.588L641.54,885.981a1.483,1.483,0,0,0,0,2.569l9.369,5.365a6.068,6.068,0,0,0,6.052,0L687.644,876.2a1.483,1.483,0,0,0,0-2.569l-9.368-5.366a6.073,6.073,0,0,0-6.052,0Z" transform="translate(43.516 53.561)" fill="#09f"/><path d="M672.957,907.694a7.176,7.176,0,0,1-3.589-.958L660,901.371a2.613,2.613,0,0,1,0-4.527l30.684-17.716a7.193,7.193,0,0,1,7.18,0l9.368,5.365a2.613,2.613,0,0,1,0,4.527l-30.684,17.716A7.173,7.173,0,0,1,672.957,907.694Zm21.315-28.4a6.051,6.051,0,0,0-3.026.808l-30.684,17.717a1.482,1.482,0,0,0,0,2.568l9.369,5.366a6.073,6.073,0,0,0,6.052,0l30.684-17.717a1.482,1.482,0,0,0,0-2.567l-9.369-5.366A6.063,6.063,0,0,0,694.271,879.3Z" transform="translate(47.305 55.92)" fill="#09f"/><g transform="translate(485.961 801.008)"><g transform="translate(13.003 19.529)"><path d="M486.049,785.538v-2.059l11.743.027.015,2.064Z" transform="translate(-486.049 -783.479)" fill="#41fafa"/></g><g transform="translate(8.168 17.685)"><path d="M489.784,786.576l3.816,0,.079,3.991q-3.313.018-6.616-.168a8.082,8.082,0,0,1-3.27-.963,3.207,3.207,0,0,1-1.722-2.109,42.984,42.984,0,0,1,.146-5.39l3.544.02a2.557,2.557,0,0,1,.049.357c.02,1.292.112,2.583.03,3.873a1.594,1.594,0,0,0,.8,1.618,5.943,5.943,0,0,0,3.285.395Z" transform="translate(-482.017 -781.941)" fill="#41fafa"/></g><g transform="translate(33.759 12.091)"><path d="M506.929,777.277l.08,6.7-3.551,0-.1-6.7Z" transform="translate(-503.357 -777.277)" fill="#41fafa"/></g><g transform="translate(25.757)"><path d="M500.549,771.2h-3.81l-.055-4.006c1.968.035,4.122-.028,6.23.122a8.488,8.488,0,0,1,3.526,1.013,3.252,3.252,0,0,1,1.81,2.314c.147,1.721.037,3.445.042,5.163l-3.86-.013-.028-3.048q0-.774-.019-1.548a.858.858,0,0,0,0-.354,1.433,1.433,0,0,0-.754-.9,3.9,3.9,0,0,0-2.142-.435c-.3,0-.61-.035-1.27-.074.1.375.194.655.246.943S500.526,770.951,500.549,771.2Z" transform="translate(-496.684 -767.194)" fill="#41fafa"/></g><g transform="translate(0 0.035)" style="isolation:isolate"><g transform="translate(20.66 4.69)"><path d="M504.246,771.161l.02,2.025-11.821-.03-.011-2.023Z" transform="translate(-492.433 -771.134)" fill="#41fafa"/></g><g transform="translate(0 4.535)"><path d="M482,775.521l.04,2.22-6.817-.014a18.138,18.138,0,0,1,.229-3.8c.543-1.735,3.2-2.976,6.244-2.919,2.753,0,5.508,0,8.153.007l.043,2.324c-.544-.012-1.255-.036-1.968-.04l-5.76-.016c-2.057,0-2.982.54-2.986,1.744,0,.16-.035.321-.066.578Z" transform="translate(-475.206 -771.004)" fill="#41fafa"/></g><g transform="translate(25.666 4.614)"><path d="M509.215,773.31c.019-.352.054-.709.048-1.078s-.053-.741-.084-1.144c.206-.012.413-.017.619-.018a9.39,9.39,0,0,1,4.61,1.1,3.288,3.288,0,0,1,1.919,2.66c.021,1.012.03,2.027.046,3.063-.222.012-.378.029-.542.029-4.261-.008-8.522-.008-12.782-.031-.1,0-.2,0-.3-.006a9.189,9.189,0,0,1-4.222-1.094,3.163,3.163,0,0,1-1.909-2.877l3.883.044a1.637,1.637,0,0,0,.781,1.252,5.384,5.384,0,0,0,2.551.41q3.844.011,7.686.017c.273,0,.546-.008.811-.013.188-.871.024-1.451-.608-1.816A5.78,5.78,0,0,0,509.215,773.31Z" transform="translate(-496.608 -771.07)" fill="#41fafa"/></g><g transform="translate(7.877)"><path d="M481.8,771.146c-.314-1.976,2.19-3.724,5.6-3.907q3.108-.054,6.215.077c-.013.265-.046.616-.044.969.011,2.291.124,4.582.014,6.869,0,.066-.013.131-.024.2-.335,1.982-3.381,3.427-6.8,3.227l.006-2.208a3.188,3.188,0,0,0,2.762-.977.616.616,0,0,0,.147-.266q-.034-2.8-.076-5.6c-2.476-.262-3.631.227-3.984,1.636Z" transform="translate(-481.774 -767.223)" fill="#41fafa"/></g><g transform="translate(8.043 7.448)"><path d="M481.913,773.434l3.559.045.082,6.7-3.562,0Z" transform="translate(-481.913 -773.434)" fill="#41fafa"/></g><g transform="translate(30.587 14.982)"><path d="M508.737,781.969l.052-2.253,6.725,0a28.571,28.571,0,0,1,.076,3.352c-.162,1.788-2.607,3.217-5.69,3.328-3,.088-6.01-.044-9.187-.084.011-.592.028-1.239.04-1.881a2.8,2.8,0,0,1,.042-.281l5.449.014c.863,0,1.729.008,2.593,0a4.362,4.362,0,0,0,.685,0c1.4-.109,2.377-.855,2.183-1.666a5.47,5.47,0,0,1,.064-.6Z" transform="translate(-500.712 -779.716)" fill="#41fafa"/></g><g transform="translate(0.19 14.76)"><path d="M482.277,784.185a2.052,2.052,0,0,1,.031.233c.017.644.031,1.289.048,1.979a9.6,9.6,0,0,1-5.065-1.1A3.523,3.523,0,0,1,475.4,783c-.1-1.142.01-2.287.028-3.468,1.81.006,3.7.01,5.594.017,2.649.011,5.3-.02,7.942.046l.091,0a8.987,8.987,0,0,1,4.065,1.073A3.086,3.086,0,0,1,495,783.556l-3.787-.006a3.11,3.11,0,0,0-.482-.97,1.732,1.732,0,0,0-.422-.335,3.351,3.351,0,0,0-1.638-.391c-3.09-.013-6.181-.007-9.269-.007a1.282,1.282,0,0,0,.543,1.762A6.062,6.062,0,0,0,482.277,784.185Z" transform="translate(-475.364 -779.531)" fill="#41fafa"/></g><g transform="translate(25.76 14.834)"><path d="M508.443,787.07c.283,1.483-1.083,2.9-3.4,3.546a10.012,10.012,0,0,1-2.379.383c-1.914.041-3.84-.014-5.821-.032a2.131,2.131,0,0,1-.054-.339c-.031-2.358-.076-4.715-.084-7.072-.007-.07-.012-.14-.013-.212-.019-2.065,2.855-3.744,6.422-3.75.137,0,.275.01.348.012l.028,2.121a15.89,15.89,0,0,0-2.112.639,1.125,1.125,0,0,0-.676.836c-.036,1.836.024,3.675.05,5.512,2.71.162,3.53-.19,3.941-1.644Z" transform="translate(-496.687 -779.593)" fill="#41fafa"/></g></g></g></g></g></svg>