<svg xmlns="http://www.w3.org/2000/svg" width="140.8" height="127.447" viewBox="0 0 140.8 127.447"><path d="M659.277,50.962h-2.5V39.3a1.97,1.97,0,0,0-3.264-1.488L649.05,41.69a1.972,1.972,0,0,0,2.588,2.975l1.2-1.044v7.34h-2.5a1.971,1.971,0,1,0,0,3.941h8.933a1.971,1.971,0,1,0,0-3.941Z" transform="translate(-629.865 -37.325)" fill="#09f"/><path d="M660.687,50.962a1.971,1.971,0,1,0,0,3.941h8.933a1.971,1.971,0,0,0,0-3.941h-2.492V39.3a1.974,1.974,0,0,0-3.268-1.488l-4.467,3.881a1.972,1.972,0,0,0,2.588,2.975l1.2-1.044v7.34Z" transform="translate(-603.738 -37.325)" fill="#09f"/><path d="M667.958,54.9h6a4.153,4.153,0,0,0,4.149-4.146V41.471a4.151,4.151,0,0,0-4.149-4.146h-6a4.148,4.148,0,0,0-4.146,4.146v9.286A4.15,4.15,0,0,0,667.958,54.9Zm-.2-13.432a.207.207,0,0,1,.2-.2h6a.21.21,0,0,1,.208.2v9.286a.21.21,0,0,1-.208.2h-6a.207.207,0,0,1-.2-.2Z" transform="translate(-590.868 -37.323)" fill="#09f"/><path d="M671.034,50.962a1.971,1.971,0,0,0,0,3.941h8.933a1.971,1.971,0,0,0,0-3.941h-2.5V39.3a1.971,1.971,0,0,0-3.265-1.488L669.74,41.69a1.972,1.972,0,1,0,2.588,2.975l1.2-1.044v7.34Z" transform="translate(-577.611 -37.325)" fill="#09f"/><path d="M678.306,54.9h6a4.153,4.153,0,0,0,4.149-4.146V41.471a4.151,4.151,0,0,0-4.149-4.146h-6a4.151,4.151,0,0,0-4.149,4.146v9.286A4.153,4.153,0,0,0,678.306,54.9Zm-.2-13.432a.207.207,0,0,1,.2-.2h6a.207.207,0,0,1,.2.2v9.286a.207.207,0,0,1-.2.2h-6a.207.207,0,0,1-.2-.2Z" transform="translate(-564.744 -37.323)" fill="#09f"/><path d="M653.263,43.558h-6a4.151,4.151,0,0,0-4.146,4.149v9.279a4.151,4.151,0,0,0,4.146,4.149h6a4.154,4.154,0,0,0,4.149-4.149V47.707A4.154,4.154,0,0,0,653.263,43.558Zm.208,13.428a.208.208,0,0,1-.208.208h-6a.205.205,0,0,1-.2-.208V47.707a.205.205,0,0,1,.2-.208h6a.208.208,0,0,1,.208.208Z" transform="translate(-643.121 -21.583)" fill="#09f"/><path d="M659.277,57.2h-2.5V45.53a1.97,1.97,0,0,0-3.264-1.488l-4.467,3.881a1.972,1.972,0,0,0,2.588,2.975l1.2-1.043V57.2h-2.5a1.971,1.971,0,1,0,0,3.941h8.933a1.971,1.971,0,1,0,0-3.941Z" transform="translate(-629.865 -21.584)" fill="#09f"/><path d="M663.612,43.558h-6a4.154,4.154,0,0,0-4.149,4.149v9.279a4.154,4.154,0,0,0,4.149,4.149h6a4.156,4.156,0,0,0,4.149-4.149V47.707A4.156,4.156,0,0,0,663.612,43.558Zm.2,13.428a.205.205,0,0,1-.2.208h-6a.205.205,0,0,1-.2-.208V47.707a.205.205,0,0,1,.2-.208h6a.205.205,0,0,1,.2.208Z" transform="translate(-616.996 -21.583)" fill="#09f"/><path d="M660.687,61.137h8.933a1.971,1.971,0,0,0,0-3.941h-2.492V45.53a1.974,1.974,0,0,0-3.268-1.488l-4.467,3.881a1.972,1.972,0,0,0,2.588,2.975l1.2-1.043V57.2h-2.5a1.971,1.971,0,1,0,0,3.941Z" transform="translate(-603.738 -21.584)" fill="#09f"/><path d="M681.378,57.2a1.971,1.971,0,1,0,0,3.941h8.933a1.971,1.971,0,1,0,0-3.941h-2.492V45.53a1.974,1.974,0,0,0-3.268-1.488l-4.467,3.881a1.972,1.972,0,0,0,2.588,2.975l1.2-1.043V57.2Z" transform="translate(-551.485 -21.584)" fill="#09f"/><path d="M653.263,49.79h-6a4.153,4.153,0,0,0-4.146,4.149v9.282a4.151,4.151,0,0,0,4.146,4.149h6a4.154,4.154,0,0,0,4.149-4.149V53.939A4.156,4.156,0,0,0,653.263,49.79Zm.208,13.432a.211.211,0,0,1-.208.208h-6a.208.208,0,0,1-.2-.208V53.939a.2.2,0,0,1,.2-.2h6a.208.208,0,0,1,.208.2Z" transform="translate(-643.121 -5.845)" fill="#09f"/><path d="M663.612,49.79h-6a4.156,4.156,0,0,0-4.149,4.149v9.282a4.154,4.154,0,0,0,4.149,4.149h6a4.156,4.156,0,0,0,4.149-4.149V53.939A4.159,4.159,0,0,0,663.612,49.79Zm.2,13.432a.208.208,0,0,1-.2.208h-6a.208.208,0,0,1-.2-.208V53.939a.2.2,0,0,1,.2-.2h6a.2.2,0,0,1,.2.2Z" transform="translate(-616.996 -5.845)" fill="#09f"/><path d="M659.277,69.658h-2.5V58a1.97,1.97,0,0,0-3.264-1.488L649.05,60.39a1.972,1.972,0,0,0,2.588,2.975l1.2-1.044v7.336h-2.5a1.972,1.972,0,1,0,0,3.945h8.933a1.972,1.972,0,0,0,0-3.945Z" transform="translate(-629.865 9.897)" fill="#09f"/><path d="M663.612,56.024h-6a4.151,4.151,0,0,0-4.149,4.146v9.282a4.154,4.154,0,0,0,4.149,4.149h6a4.156,4.156,0,0,0,4.149-4.149V60.17A4.153,4.153,0,0,0,663.612,56.024Zm.2,13.428a.2.2,0,0,1-.2.2h-6a.2.2,0,0,1-.2-.2V60.17a.2.2,0,0,1,.2-.2h6a.2.2,0,0,1,.2.2Z" transform="translate(-616.996 9.898)" fill="#09f"/><path d="M653.263,62.257h-6a4.15,4.15,0,0,0-4.146,4.146v9.282a4.151,4.151,0,0,0,4.146,4.149h6a4.154,4.154,0,0,0,4.149-4.149V66.4A4.153,4.153,0,0,0,653.263,62.257Zm.208,13.428a.208.208,0,0,1-.208.208h-6a.206.206,0,0,1-.2-.208V66.4a.2.2,0,0,1,.2-.2h6a.208.208,0,0,1,.208.2Z" transform="translate(-643.121 25.639)" fill="#09f"/><path d="M663.612,62.257h-6a4.153,4.153,0,0,0-4.149,4.146v9.282a4.154,4.154,0,0,0,4.149,4.149h6a4.156,4.156,0,0,0,4.149-4.149V66.4A4.155,4.155,0,0,0,663.612,62.257Zm.2,13.428a.205.205,0,0,1-.2.208h-6a.205.205,0,0,1-.2-.208V66.4a.2.2,0,0,1,.2-.2h6a.2.2,0,0,1,.2.2Z" transform="translate(-616.996 25.639)" fill="#09f"/><path d="M669.62,75.894h-2.492V64.229a1.974,1.974,0,0,0-3.268-1.488l-4.467,3.881a1.972,1.972,0,0,0,2.588,2.975l1.2-1.047v7.343h-2.5a1.971,1.971,0,1,0,0,3.941h8.933a1.971,1.971,0,0,0,0-3.941Z" transform="translate(-603.738 25.638)" fill="#09f"/><path d="M690.311,75.894h-2.492V64.229a1.974,1.974,0,0,0-3.268-1.488l-4.467,3.881a1.972,1.972,0,0,0,2.588,2.975l1.2-1.047v7.343h-2.5a1.971,1.971,0,1,0,0,3.941h8.933a1.971,1.971,0,1,0,0-3.941Z" transform="translate(-551.485 25.638)" fill="#09f"/><path d="M653.263,68.489h-6a4.151,4.151,0,0,0-4.146,4.149v9.282a4.151,4.151,0,0,0,4.146,4.149h6a4.154,4.154,0,0,0,4.149-4.149V72.638A4.154,4.154,0,0,0,653.263,68.489Zm.208,13.432a.208.208,0,0,1-.208.2h-6a.2.2,0,0,1-.2-.2V72.638a.2.2,0,0,1,.2-.2h6a.208.208,0,0,1,.208.2Z" transform="translate(-643.121 41.377)" fill="#09f"/><path d="M659.277,82.124h-2.5V70.462a1.973,1.973,0,0,0-3.264-1.491l-4.467,3.881a1.973,1.973,0,0,0,2.588,2.979l1.2-1.047v7.34h-2.5a1.972,1.972,0,1,0,0,3.945h8.933a1.972,1.972,0,0,0,0-3.945Z" transform="translate(-629.865 41.379)" fill="#09f"/><path d="M669.62,82.124h-2.492V70.462a1.976,1.976,0,0,0-3.268-1.491l-4.467,3.881a1.973,1.973,0,0,0,2.588,2.979l1.2-1.047v7.34h-2.5a1.972,1.972,0,0,0,0,3.945h8.933a1.972,1.972,0,0,0,0-3.945Z" transform="translate(-603.738 41.379)" fill="#09f"/><path d="M679.967,82.124h-2.5V70.462a1.973,1.973,0,0,0-3.265-1.491l-4.466,3.881a1.973,1.973,0,1,0,2.588,2.979l1.2-1.047v7.34h-2.5a1.972,1.972,0,0,0,0,3.945h8.933a1.972,1.972,0,0,0,0-3.945Z" transform="translate(-577.611 41.379)" fill="#09f"/><path d="M684.3,68.489h-6a4.154,4.154,0,0,0-4.149,4.149v9.282a4.154,4.154,0,0,0,4.149,4.149h6a4.154,4.154,0,0,0,4.149-4.149V72.638A4.154,4.154,0,0,0,684.3,68.489Zm.2,13.432a.2.2,0,0,1-.2.2h-6a.2.2,0,0,1-.2-.2V72.638a.2.2,0,0,1,.2-.2h6a.21.21,0,0,1,.2.2Z" transform="translate(-564.744 41.377)" fill="#09f"/><path d="M725.308,79A31.707,31.707,0,1,0,693.6,110.709,31.742,31.742,0,0,0,725.308,79ZM693.6,106.764A27.764,27.764,0,1,1,721.364,79,27.8,27.8,0,0,1,693.6,106.764Z" transform="translate(-595.712 -12.146)" fill="#09f"/><path d="M684.8,66.566a1.973,1.973,0,0,0,1.939,1.629,2.234,2.234,0,0,0,.342-.028,1.978,1.978,0,0,0,1.6-2.284,38.038,38.038,0,0,0-6.257-15.194,1.972,1.972,0,1,0-3.24,2.249A34.1,34.1,0,0,1,684.8,66.566Z" transform="translate(-552.932 -5.723)" fill="#09f"/><path d="M681.593,59.162a34.657,34.657,0,0,1-1.378,5.3,1.971,1.971,0,0,0,3.723,1.294,38.385,38.385,0,0,0,1.537-5.916,1.97,1.97,0,1,0-3.882-.68Z" transform="translate(-549.723 13.705)" fill="#09f"/><path d="M688.553,64.807a34.473,34.473,0,0,1-15.6,5.129,1.972,1.972,0,0,0,.148,3.938c.049,0,.1,0,.151-.007a38.45,38.45,0,0,0,17.4-5.718,1.972,1.972,0,0,0-2.094-3.342Z" transform="translate(-572.392 31.317)" fill="#09f"/><path d="M679.25,71.577a34.7,34.7,0,0,1-12.783-7.865,1.971,1.971,0,0,0-2.743,2.831,38.724,38.724,0,0,0,14.239,8.764,2.06,2.06,0,0,0,.645.106,1.972,1.972,0,0,0,.641-3.836Z" transform="translate(-592.603 27.907)" fill="#09f"/><path d="M662.179,55.017a2,2,0,0,0-2.1,1.833q-.09,1.311-.092,2.655a38.275,38.275,0,0,0,2.588,13.89,1.976,1.976,0,0,0,1.84,1.262,1.945,1.945,0,0,0,.712-.134,1.975,1.975,0,0,0,1.125-2.552,34.342,34.342,0,0,1-2.32-12.466c0-.8.025-1.6.081-2.383A1.975,1.975,0,0,0,662.179,55.017Z" transform="translate(-600.538 7.352)" fill="#09f"/><path d="M662.352,58.107a1.97,1.97,0,0,0,2.693-.723,34.533,34.533,0,0,1,3.6-5.1,1.972,1.972,0,1,0-3-2.556,38.889,38.889,0,0,0-4.015,5.69A1.972,1.972,0,0,0,662.352,58.107Z" transform="translate(-597.048 -7.767)" fill="#09f"/><path d="M667.749,53.038a1.956,1.956,0,0,0,.867-.2,34.559,34.559,0,0,1,33.452,1.724,1.944,1.944,0,0,0,1.044.3,1.971,1.971,0,0,0,1.047-3.642A38.489,38.489,0,0,0,666.881,49.3a1.971,1.971,0,0,0,.867,3.74Z" transform="translate(-585.907 -16.972)" fill="#09f"/><path d="M675.539,51.8l-7.721,7.658,2.274,2.274,7.729-7.661Z" transform="translate(-580.753 -0.768)" fill="#09f"/><path d="M674.9,53.251l-2.324,2.326,7.573,7.49,2.314-2.309Z" transform="translate(-568.732 2.894)" fill="#09f"/><path d="M675.97,53.506c.416.412.793.836,1.174,1.244,1.727-1.477,2.912-1.424,4.311.2l.353.377s-3.846,3.822-5.574,5.535c-1.534,1.519-2.475,1.569-4.033.3l-2.577,2.478a5.978,5.978,0,0,0,8.44.483h0c.067-.06.134-.123.2-.187,2.143-2.1,6.011-5.972,7.766-7.745a1.3,1.3,0,0,0-.014-1.84c-.85-.846-1.692-1.678-2.535-2.51a5.993,5.993,0,0,0-8.468.007c-.134.137-.261.275-.381.423h0C675.106,52.706,675.55,53.09,675.97,53.506Z" transform="translate(-576.191 -5.087)" fill="#09f"/><path d="M678.967,57.149c.229.261.42.5.638.723a2.353,2.353,0,0,1,.444,3.3h0a2.3,2.3,0,0,1-.444.444c-.56.568-1.128,1.125-1.7,1.682l-3.564,3.532c.131.155.2.254.289.342.712.733,1.424,1.474,2.08,2.147l0,0c2.112-2.024,4.223-3.839,6.074-5.887a5.612,5.612,0,0,0-.025-7.456c-.853-.948-1.788-1.823-2.687-2.669a1.588,1.588,0,0,0-2.214.035l-3.286,3.279,2.492,2.574Z" transform="translate(-564.269 1.952)" fill="#09f"/><path d="M683.808,62.644c1.364,1.907,1.223,2.838-.723,4.421v0c-2.073-2.052-4.174-4.086-6.2-6.18a1.936,1.936,0,0,1-.5-1.382,10.612,10.612,0,0,1,.659-2.094l-2.4-2.376c-.049.046-.148.123-.236.215a5.943,5.943,0,0,0,.021,8.408c.078.078.162.155.243.229,2.647,2.651,5.316,5.281,7.978,7.918a4.643,4.643,0,0,0,.416.349c1.308-1.269,2.623-2.461,3.825-3.751a5.779,5.779,0,0,0,1.117-1.981,5.576,5.576,0,0,0-1.756-6.215Z" transform="translate(-568.479 7.386)" fill="#09f"/><path d="M676.175,69.275c-1.773,1.142-3.035.843-4.209-.955,2.013-2.009,4.019-4.03,6.046-6.028a2.12,2.12,0,0,1,2.151-.522,6.907,6.907,0,0,1,1.4.779l2.472-2.457a5.888,5.888,0,0,0-8.3-.6l-.063.056c-1.794,1.646-3.483,3.406-5.221,5.119-.853.846-1.71,1.692-2.545,2.521a1.589,1.589,0,0,0-.032,2.228c.917.969,1.819,1.921,2.785,2.8a5.993,5.993,0,0,0,8.331-.695c-.783-.765-1.516-1.484-2.249-2.2Z" transform="translate(-581.727 15.035)" fill="#09f"/><path d="M671.295,59.632l2.478-2.478c-.293-.264-.624-.589-.98-.881s-.73-.543-1.216-.9c.473-.384.705-.55.91-.74a2.406,2.406,0,0,1,3.384-.377,2.24,2.24,0,0,1,.395.4q.878.862,1.749,1.731l3.43,3.42,2.528-2.5c-1.925-1.932-3.783-3.948-5.806-5.792a5.68,5.68,0,0,0-7.2-.282,34.937,34.937,0,0,0-3.042,2.8,1.6,1.6,0,0,0,0,2.263Z" transform="translate(-581.68 -5.107)" fill="#09f"/><path d="M682.273,59.842l-2.489,2.482,1.918,1.742c-1.636,2.158-3.236,2.214-4.918.391-1.389-1.505-2.894-2.9-4.354-4.347-.155-.152-.335-.286-.434-.37l-2.33,2.281c1.956,2.055,3.825,4.252,5.944,6.176a5.459,5.459,0,0,0,6.691.212q1.713-1.412,3.317-2.951a1.6,1.6,0,0,0,.025-2.3Z" transform="translate(-576.085 19.283)" fill="#09f"/><rect width="10.817" height="3.277" transform="translate(98.662 80.363) rotate(-44.727)" fill="#09f"/><path d="M669.909,67.206c-.268-.31-.43-.515-.606-.7-1.347-1.357-1.35-2.574-.011-3.906q1.883-1.872,3.769-3.733c.469-.462.959-.9,1.325-1.237l-2.633-2.595c-1.724,1.72-3.522,3.508-5.316,5.3a5.679,5.679,0,0,0-.793,7.357q1.4,1.713,2.954,3.293a1.6,1.6,0,0,0,2.274.028l3.335-3.307-2.51-2.478Z" transform="translate(-588.768 7.403)" fill="#09f"/><path d="M669.187,61.767c-1.347-1.819-1.142-3.12.761-4.438q3.163,3.125,6.325,6.268a1.31,1.31,0,0,1,.2.395,2.459,2.459,0,0,1-.7,2.9l2.468,2.492a5.732,5.732,0,0,0,.814-8.066v0c-.067-.078-.134-.159-.2-.236-2.489-2.648-5.13-5.161-7.7-7.735l-.014-.011a1.6,1.6,0,0,0-2.228-.056q-1.528,1.4-2.947,2.9a5.728,5.728,0,0,0,.73,8.052Z" transform="translate(-588.787 1.895)" fill="#09f"/><path d="M666.364,58.808l7.6,7.544,2.323-2.315-7.553-7.5Z" transform="translate(-584.423 11.206)" fill="#09f"/></svg>